solid ascii
  facet normal 8.229839e-01 6.988393e-18 5.680647e-01
    outer loop
      vertex   9.831230e+00 6.042126e+00 5.556744e+00
      vertex   1.017110e+01 6.042126e+00 5.064362e+00
      vertex   1.017110e+01 1.104213e+01 5.064362e+00
    endloop
  endfacet
  facet normal 4.647232e-01 0.000000e+00 8.854560e-01
    outer loop
      vertex   1.070086e+01 1.104213e+01 4.786323e+00
      vertex   1.017110e+01 1.104213e+01 5.064362e+00
      vertex   1.017110e+01 6.042126e+00 5.064362e+00
    endloop
  endfacet
  facet normal 8.229839e-01 6.988393e-18 5.680647e-01
    outer loop
      vertex   1.017110e+01 1.104213e+01 5.064362e+00
      vertex   9.831230e+00 1.104213e+01 5.556744e+00
      vertex   9.831230e+00 6.042126e+00 5.556744e+00
    endloop
  endfacet
  facet normal 9.836199e-01 -0.000000e+00 1.802550e-01
    outer loop
      vertex   9.831230e+00 6.042126e+00 5.556744e+00
      vertex   9.831230e+00 1.104213e+01 5.556744e+00
      vertex   9.750000e+00 1.104213e+01 6.000000e+00
    endloop
  endfacet
  facet normal 9.926942e-01 5.441684e-03 1.205349e-01
    outer loop
      vertex   9.750000e+00 1.104213e+01 6.000000e+00
      vertex   9.759114e+00 6.042126e+00 6.150671e+00
      vertex   9.831230e+00 6.042126e+00 5.556744e+00
    endloop
  endfacet
  facet normal 9.981756e-01 0.000000e+00 -6.037850e-02
    outer loop
      vertex   9.750000e+00 1.104213e+01 6.000000e+00
      vertex   9.759114e+00 1.104213e+01 6.150671e+00
      vertex   9.759114e+00 6.042126e+00 6.150671e+00
    endloop
  endfacet
  facet normal 9.350162e-01 0.000000e+00 -3.546049e-01
    outer loop
      vertex   9.971270e+00 6.042126e+00 6.710081e+00
      vertex   9.759114e+00 6.042126e+00 6.150671e+00
      vertex   9.759114e+00 1.104213e+01 6.150671e+00
    endloop
  endfacet
  facet normal 9.350162e-01 0.000000e+00 -3.546049e-01
    outer loop
      vertex   9.759114e+00 1.104213e+01 6.150671e+00
      vertex   9.971270e+00 1.104213e+01 6.710081e+00
      vertex   9.971270e+00 6.042126e+00 6.710081e+00
    endloop
  endfacet
  facet normal 6.631227e-01 -6.988393e-18 -7.485107e-01
    outer loop
      vertex   1.041910e+01 6.042126e+00 7.106820e+00
      vertex   9.971270e+00 6.042126e+00 6.710081e+00
      vertex   9.971270e+00 1.104213e+01 6.710081e+00
    endloop
  endfacet
  facet normal 6.631227e-01 -6.988393e-18 -7.485107e-01
    outer loop
      vertex   9.971270e+00 1.104213e+01 6.710081e+00
      vertex   1.041910e+01 1.104213e+01 7.106820e+00
      vertex   1.041910e+01 6.042126e+00 7.106820e+00
    endloop
  endfacet
  facet normal 2.393157e-01 3.494196e-18 -9.709418e-01
    outer loop
      vertex   1.100000e+01 6.042126e+00 7.250000e+00
      vertex   1.041910e+01 6.042126e+00 7.106820e+00
      vertex   1.041910e+01 1.104213e+01 7.106820e+00
    endloop
  endfacet
  facet normal 2.393157e-01 3.494196e-18 -9.709418e-01
    outer loop
      vertex   1.041910e+01 1.104213e+01 7.106820e+00
      vertex   1.100000e+01 1.104213e+01 7.250000e+00
      vertex   1.100000e+01 6.042126e+00 7.250000e+00
    endloop
  endfacet
  facet normal -2.393157e-01 0.000000e+00 -9.709418e-01
    outer loop
      vertex   1.158090e+01 6.042126e+00 7.106820e+00
      vertex   1.100000e+01 6.042126e+00 7.250000e+00
      vertex   1.100000e+01 1.104213e+01 7.250000e+00
    endloop
  endfacet
  facet normal -2.393157e-01 0.000000e+00 -9.709418e-01
    outer loop
      vertex   1.100000e+01 1.104213e+01 7.250000e+00
      vertex   1.158090e+01 1.104213e+01 7.106820e+00
      vertex   1.158090e+01 6.042126e+00 7.106820e+00
    endloop
  endfacet
  facet normal -6.631227e-01 0.000000e+00 -7.485107e-01
    outer loop
      vertex   1.202873e+01 6.042126e+00 6.710081e+00
      vertex   1.158090e+01 6.042126e+00 7.106820e+00
      vertex   1.158090e+01 1.104213e+01 7.106820e+00
    endloop
  endfacet
  facet normal -6.631227e-01 0.000000e+00 -7.485107e-01
    outer loop
      vertex   1.158090e+01 1.104213e+01 7.106820e+00
      vertex   1.202873e+01 1.104213e+01 6.710081e+00
      vertex   1.202873e+01 6.042126e+00 6.710081e+00
    endloop
  endfacet
  facet normal -9.350162e-01 -6.988393e-18 -3.546049e-01
    outer loop
      vertex   1.224089e+01 6.042126e+00 6.150671e+00
      vertex   1.202873e+01 6.042126e+00 6.710081e+00
      vertex   1.202873e+01 1.104213e+01 6.710081e+00
    endloop
  endfacet
  facet normal -9.350162e-01 -6.988393e-18 -3.546049e-01
    outer loop
      vertex   1.202873e+01 1.104213e+01 6.710081e+00
      vertex   1.224089e+01 1.104213e+01 6.150671e+00
      vertex   1.224089e+01 6.042126e+00 6.150671e+00
    endloop
  endfacet
  facet normal -9.927089e-01 -1.747098e-18 1.205367e-01
    outer loop
      vertex   1.216877e+01 6.042126e+00 5.556744e+00
      vertex   1.224089e+01 6.042126e+00 6.150671e+00
      vertex   1.224089e+01 1.104213e+01 6.150671e+00
    endloop
  endfacet
  facet normal -9.927089e-01 -1.747098e-18 1.205367e-01
    outer loop
      vertex   1.224089e+01 1.104213e+01 6.150671e+00
      vertex   1.216877e+01 1.104213e+01 5.556744e+00
      vertex   1.216877e+01 6.042126e+00 5.556744e+00
    endloop
  endfacet
  facet normal -8.229839e-01 6.988393e-18 5.680647e-01
    outer loop
      vertex   1.182890e+01 6.042126e+00 5.064362e+00
      vertex   1.216877e+01 6.042126e+00 5.556744e+00
      vertex   1.216877e+01 1.104213e+01 5.556744e+00
    endloop
  endfacet
  facet normal -8.229839e-01 6.988393e-18 5.680647e-01
    outer loop
      vertex   1.216877e+01 1.104213e+01 5.556744e+00
      vertex   1.182890e+01 1.104213e+01 5.064362e+00
      vertex   1.182890e+01 6.042126e+00 5.064362e+00
    endloop
  endfacet
  facet normal -4.647232e-01 0.000000e+00 8.854560e-01
    outer loop
      vertex   1.129914e+01 6.042126e+00 4.786323e+00
      vertex   1.182890e+01 6.042126e+00 5.064362e+00
      vertex   1.182890e+01 1.104213e+01 5.064362e+00
    endloop
  endfacet
  facet normal -4.647232e-01 0.000000e+00 8.854560e-01
    outer loop
      vertex   1.182890e+01 1.104213e+01 5.064362e+00
      vertex   1.129914e+01 1.104213e+01 4.786323e+00
      vertex   1.129914e+01 6.042126e+00 4.786323e+00
    endloop
  endfacet
  facet normal -1.205367e-01 0.000000e+00 9.927089e-01
    outer loop
      vertex   1.100000e+01 6.042126e+00 4.750000e+00
      vertex   1.129914e+01 6.042126e+00 4.786323e+00
      vertex   1.129914e+01 1.104213e+01 4.786323e+00
    endloop
  endfacet
  facet normal 0.000000e+00 -7.264354e-03 9.999736e-01
    outer loop
      vertex   1.129914e+01 1.104213e+01 4.786323e+00
      vertex   1.070086e+01 1.104213e+01 4.786323e+00
      vertex   1.100000e+01 6.042126e+00 4.750000e+00
    endloop
  endfacet
  facet normal 1.205367e-01 0.000000e+00 9.927089e-01
    outer loop
      vertex   1.070086e+01 1.104213e+01 4.786323e+00
      vertex   1.070086e+01 6.042126e+00 4.786323e+00
      vertex   1.100000e+01 6.042126e+00 4.750000e+00
    endloop
  endfacet
  facet normal 4.647232e-01 0.000000e+00 8.854560e-01
    outer loop
      vertex   1.017110e+01 6.042126e+00 5.064362e+00
      vertex   1.070086e+01 6.042126e+00 4.786323e+00
      vertex   1.070086e+01 1.104213e+01 4.786323e+00
    endloop
  endfacet
  facet normal 6.044290e-16 -1.000000e+00 -1.151643e-15
    outer loop
      vertex   1.700000e+01 6.042126e+00 1.000000e+00
      vertex   1.182890e+01 6.042126e+00 5.064362e+00
      vertex   1.129914e+01 6.042126e+00 4.786323e+00
    endloop
  endfacet
  facet normal 0.000000e+00 -1.000000e+00 -2.061698e-15
    outer loop
      vertex   7.000000e+00 6.042126e+00 1.000000e+00
      vertex   1.700000e+01 6.042126e+00 1.000000e+00
      vertex   1.129914e+01 6.042126e+00 4.786323e+00
    endloop
  endfacet
  facet normal 2.903678e-16 -1.000000e+00 -2.391394e-15
    outer loop
      vertex   1.129914e+01 6.042126e+00 4.786323e+00
      vertex   1.100000e+01 6.042126e+00 4.750000e+00
      vertex   7.000000e+00 6.042126e+00 1.000000e+00
    endloop
  endfacet
  facet normal -2.237774e-16 -1.000000e+00 -1.842972e-15
    outer loop
      vertex   7.000000e+00 6.042126e+00 1.000000e+00
      vertex   1.100000e+01 6.042126e+00 4.750000e+00
      vertex   1.070086e+01 6.042126e+00 4.786323e+00
    endloop
  endfacet
  facet normal -7.151801e-16 -1.000000e+00 -1.362662e-15
    outer loop
      vertex   1.070086e+01 6.042126e+00 4.786323e+00
      vertex   1.017110e+01 6.042126e+00 5.064362e+00
      vertex   7.000000e+00 6.042126e+00 1.000000e+00
    endloop
  endfacet
  facet normal -1.306153e-15 -1.000000e+00 -9.015726e-16
    outer loop
      vertex   1.017110e+01 6.042126e+00 5.064362e+00
      vertex   9.831230e+00 6.042126e+00 5.556744e+00
      vertex   7.000000e+00 6.042126e+00 1.000000e+00
    endloop
  endfacet
  facet normal -2.757196e-15 -1.000000e+00 -0.000000e+00
    outer loop
      vertex   7.000000e+00 6.042126e+00 1.100000e+01
      vertex   7.000000e+00 6.042126e+00 1.000000e+00
      vertex   9.831230e+00 6.042126e+00 5.556744e+00
    endloop
  endfacet
  facet normal -3.596858e-15 -1.000000e+00 -4.367376e-16
    outer loop
      vertex   9.831230e+00 6.042126e+00 5.556744e+00
      vertex   9.759114e+00 6.042126e+00 6.150671e+00
      vertex   7.000000e+00 6.042126e+00 1.100000e+01
    endloop
  endfacet
  facet normal -1.697668e-15 -1.000000e+00 6.438407e-16
    outer loop
      vertex   9.759114e+00 6.042126e+00 6.150671e+00
      vertex   9.971270e+00 6.042126e+00 6.710081e+00
      vertex   7.000000e+00 6.042126e+00 1.100000e+01
    endloop
  endfacet
  facet normal -9.990616e-16 -1.000000e+00 1.127707e-15
    outer loop
      vertex   7.000000e+00 6.042126e+00 1.100000e+01
      vertex   9.971270e+00 6.042126e+00 6.710081e+00
      vertex   1.041910e+01 6.042126e+00 7.106820e+00
    endloop
  endfacet
  facet normal -4.062722e-16 -1.000000e+00 1.648311e-15
    outer loop
      vertex   1.041910e+01 6.042126e+00 7.106820e+00
      vertex   1.100000e+01 6.042126e+00 7.250000e+00
      vertex   7.000000e+00 6.042126e+00 1.100000e+01
    endloop
  endfacet
  facet normal 0.000000e+00 -1.000000e+00 2.081668e-15
    outer loop
      vertex   1.700000e+01 6.042126e+00 1.100000e+01
      vertex   7.000000e+00 6.042126e+00 1.100000e+01
      vertex   1.100000e+01 6.042126e+00 7.250000e+00
    endloop
  endfacet
  facet normal 3.679706e-16 -1.000000e+00 1.492915e-15
    outer loop
      vertex   1.100000e+01 6.042126e+00 7.250000e+00
      vertex   1.158090e+01 6.042126e+00 7.106820e+00
      vertex   1.700000e+01 6.042126e+00 1.100000e+01
    endloop
  endfacet
  facet normal 7.954538e-16 -1.000000e+00 8.978817e-16
    outer loop
      vertex   1.158090e+01 6.042126e+00 7.106820e+00
      vertex   1.202873e+01 6.042126e+00 6.710081e+00
      vertex   1.700000e+01 6.042126e+00 1.100000e+01
    endloop
  endfacet
  facet normal 1.183085e-15 -1.000000e+00 4.486849e-16
    outer loop
      vertex   1.700000e+01 6.042126e+00 1.100000e+01
      vertex   1.202873e+01 6.042126e+00 6.710081e+00
      vertex   1.224089e+01 6.042126e+00 6.150671e+00
    endloop
  endfacet
  facet normal 1.640275e-15 -1.000000e+00 0.000000e+00
    outer loop
      vertex   1.700000e+01 6.042126e+00 1.000000e+00
      vertex   1.700000e+01 6.042126e+00 1.100000e+01
      vertex   1.224089e+01 6.042126e+00 6.150671e+00
    endloop
  endfacet
  facet normal 1.449759e-15 -1.000000e+00 -1.760326e-16
    outer loop
      vertex   1.224089e+01 6.042126e+00 6.150671e+00
      vertex   1.216877e+01 6.042126e+00 5.556744e+00
      vertex   1.700000e+01 6.042126e+00 1.000000e+00
    endloop
  endfacet
  facet normal 9.786539e-16 -1.000000e+00 -6.755160e-16
    outer loop
      vertex   1.216877e+01 6.042126e+00 5.556744e+00
      vertex   1.182890e+01 6.042126e+00 5.064362e+00
      vertex   1.700000e+01 6.042126e+00 1.000000e+00
    endloop
  endfacet
  facet normal -8.319421e-16 1.000000e+00 1.010161e-16
    outer loop
      vertex   1.216877e+01 1.104213e+01 5.556744e+00
      vertex   1.224089e+01 1.104213e+01 6.150671e+00
      vertex   1.700000e+01 1.104213e+01 1.100000e+01
    endloop
  endfacet
  facet normal -7.181292e-16 1.000000e+00 0.000000e+00
    outer loop
      vertex   1.700000e+01 1.104213e+01 1.100000e+01
      vertex   1.700000e+01 1.104213e+01 1.000000e+00
      vertex   1.216877e+01 1.104213e+01 5.556744e+00
    endloop
  endfacet
  facet normal -4.349573e-16 1.000000e+00 3.002294e-16
    outer loop
      vertex   1.700000e+01 1.104213e+01 1.000000e+00
      vertex   1.182890e+01 1.104213e+01 5.064362e+00
      vertex   1.216877e+01 1.104213e+01 5.556744e+00
    endloop
  endfacet
  facet normal 5.805126e-16 1.000000e+00 4.006989e-16
    outer loop
      vertex   9.831230e+00 1.104213e+01 5.556744e+00
      vertex   1.017110e+01 1.104213e+01 5.064362e+00
      vertex   7.000000e+00 1.104213e+01 1.000000e+00
    endloop
  endfacet
  facet normal 3.178578e-16 1.000000e+00 6.056275e-16
    outer loop
      vertex   7.000000e+00 1.104213e+01 1.000000e+00
      vertex   1.017110e+01 1.104213e+01 5.064362e+00
      vertex   1.070086e+01 1.104213e+01 4.786323e+00
    endloop
  endfacet
  facet normal 0.000000e+00 1.000000e+00 9.163104e-16
    outer loop
      vertex   1.700000e+01 1.104213e+01 1.000000e+00
      vertex   7.000000e+00 1.104213e+01 1.000000e+00
      vertex   1.070086e+01 1.104213e+01 4.786323e+00
    endloop
  endfacet
  facet normal -0.000000e+00 1.000000e+00 9.163104e-16
    outer loop
      vertex   1.070086e+01 1.104213e+01 4.786323e+00
      vertex   1.129914e+01 1.104213e+01 4.786323e+00
      vertex   1.700000e+01 1.104213e+01 1.000000e+00
    endloop
  endfacet
  facet normal -2.686351e-16 1.000000e+00 5.118415e-16
    outer loop
      vertex   1.129914e+01 1.104213e+01 4.786323e+00
      vertex   1.182890e+01 1.104213e+01 5.064362e+00
      vertex   1.700000e+01 1.104213e+01 1.000000e+00
    endloop
  endfacet
  facet normal -5.258154e-16 1.000000e+00 -1.994155e-16
    outer loop
      vertex   1.700000e+01 1.104213e+01 1.100000e+01
      vertex   1.224089e+01 1.104213e+01 6.150671e+00
      vertex   1.202873e+01 1.104213e+01 6.710081e+00
    endloop
  endfacet
  facet normal -3.535350e-16 1.000000e+00 -3.990585e-16
    outer loop
      vertex   1.700000e+01 1.104213e+01 1.100000e+01
      vertex   1.202873e+01 1.104213e+01 6.710081e+00
      vertex   1.158090e+01 1.104213e+01 7.106820e+00
    endloop
  endfacet
  facet normal 0.000000e+00 1.000000e+00 -8.911602e-16
    outer loop
      vertex   7.000000e+00 1.104213e+01 1.100000e+01
      vertex   1.700000e+01 1.104213e+01 1.100000e+01
      vertex   1.158090e+01 1.104213e+01 7.106820e+00
    endloop
  endfacet
  facet normal -3.093757e-16 1.000000e+00 -1.255187e-15
    outer loop
      vertex   1.158090e+01 1.104213e+01 7.106820e+00
      vertex   1.100000e+01 1.104213e+01 7.250000e+00
      vertex   7.000000e+00 1.104213e+01 1.100000e+01
    endloop
  endfacet
  facet normal 1.805654e-16 1.000000e+00 -7.325827e-16
    outer loop
      vertex   7.000000e+00 1.104213e+01 1.100000e+01
      vertex   1.100000e+01 1.104213e+01 7.250000e+00
      vertex   1.041910e+01 1.104213e+01 7.106820e+00
    endloop
  endfacet
  facet normal 4.440274e-16 1.000000e+00 -5.012033e-16
    outer loop
      vertex   1.041910e+01 1.104213e+01 7.106820e+00
      vertex   9.971270e+00 1.104213e+01 6.710081e+00
      vertex   7.000000e+00 1.104213e+01 1.100000e+01
    endloop
  endfacet
  facet normal 7.545193e-16 1.000000e+00 -2.861514e-16
    outer loop
      vertex   7.000000e+00 1.104213e+01 1.100000e+01
      vertex   9.971270e+00 1.104213e+01 6.710081e+00
      vertex   9.759114e+00 1.104213e+01 6.150671e+00
    endloop
  endfacet
  facet normal 1.257450e-15 1.000000e+00 -0.000000e+00
    outer loop
      vertex   7.000000e+00 1.104213e+01 1.000000e+00
      vertex   7.000000e+00 1.104213e+01 1.100000e+01
      vertex   9.759114e+00 1.104213e+01 6.150671e+00
    endloop
  endfacet
  facet normal 1.417515e-15 1.000000e+00 -8.574386e-17
    outer loop
      vertex   9.759114e+00 1.104213e+01 6.150671e+00
      vertex   9.750000e+00 1.104213e+01 6.000000e+00
      vertex   7.000000e+00 1.104213e+01 1.000000e+00
    endloop
  endfacet
  facet normal 9.463116e-16 1.000000e+00 1.734180e-16
    outer loop
      vertex   9.750000e+00 1.104213e+01 6.000000e+00
      vertex   9.831230e+00 1.104213e+01 5.556744e+00
      vertex   7.000000e+00 1.104213e+01 1.000000e+00
    endloop
  endfacet
  facet normal 1.000000e+00 0.000000e+00 -0.000000e+00
    outer loop
      vertex   1.700000e+01 1.104213e+01 1.000000e+00
      vertex   1.700000e+01 1.104213e+01 1.100000e+01
      vertex   1.700000e+01 6.042126e+00 1.100000e+01
    endloop
  endfacet
  facet normal 1.000000e+00 0.000000e+00 0.000000e+00
    outer loop
      vertex   1.700000e+01 6.042126e+00 1.100000e+01
      vertex   1.700000e+01 6.042126e+00 1.000000e+00
      vertex   1.700000e+01 1.104213e+01 1.000000e+00
    endloop
  endfacet
  facet normal -1.000000e+00 0.000000e+00 0.000000e+00
    outer loop
      vertex   7.000000e+00 6.042126e+00 1.000000e+00
      vertex   7.000000e+00 6.042126e+00 1.100000e+01
      vertex   7.000000e+00 1.104213e+01 1.100000e+01
    endloop
  endfacet
  facet normal -1.000000e+00 0.000000e+00 -0.000000e+00
    outer loop
      vertex   7.000000e+00 1.104213e+01 1.100000e+01
      vertex   7.000000e+00 1.104213e+01 1.000000e+00
      vertex   7.000000e+00 6.042126e+00 1.000000e+00
    endloop
  endfacet
  facet normal 0.000000e+00 0.000000e+00 1.000000e+00
    outer loop
      vertex   1.700000e+01 1.104213e+01 1.100000e+01
      vertex   7.000000e+00 1.104213e+01 1.100000e+01
      vertex   7.000000e+00 6.042126e+00 1.100000e+01
    endloop
  endfacet
  facet normal 0.000000e+00 0.000000e+00 1.000000e+00
    outer loop
      vertex   7.000000e+00 6.042126e+00 1.100000e+01
      vertex   1.700000e+01 6.042126e+00 1.100000e+01
      vertex   1.700000e+01 1.104213e+01 1.100000e+01
    endloop
  endfacet
  facet normal 0.000000e+00 0.000000e+00 1.000000e+00
    outer loop
      vertex   1.870000e+02 6.042126e+00 1.000000e+00
      vertex   0.000000e+00 2.042126e+00 1.000000e+00
      vertex   2.040000e+02 2.042126e+00 1.000000e+00
    endloop
  endfacet
  facet normal 0.000000e+00 0.000000e+00 1.000000e+00
    outer loop
      vertex   2.040000e+02 2.042126e+00 1.000000e+00
      vertex   1.970000e+02 6.042126e+00 1.000000e+00
      vertex   1.870000e+02 6.042126e+00 1.000000e+00
    endloop
  endfacet
  facet normal 0.000000e+00 0.000000e+00 1.000000e+00
    outer loop
      vertex   1.700000e+01 1.104213e+01 1.000000e+00
      vertex   1.700000e+01 6.042126e+00 1.000000e+00
      vertex   1.870000e+02 6.042126e+00 1.000000e+00
    endloop
  endfacet
  facet normal 0.000000e+00 0.000000e+00 1.000000e+00
    outer loop
      vertex   1.970000e+02 1.104213e+01 1.000000e+00
      vertex   1.970000e+02 6.042126e+00 1.000000e+00
      vertex   2.040000e+02 2.042126e+00 1.000000e+00
    endloop
  endfacet
  facet normal 0.000000e+00 -0.000000e+00 1.000000e+00
    outer loop
      vertex   2.040000e+02 2.042126e+00 1.000000e+00
      vertex   2.040000e+02 8.404213e+01 1.000000e+00
      vertex   1.970000e+02 1.104213e+01 1.000000e+00
    endloop
  endfacet
  facet normal 0.000000e+00 0.000000e+00 1.000000e+00
    outer loop
      vertex   1.870000e+02 1.104213e+01 1.000000e+00
      vertex   1.970000e+02 1.104213e+01 1.000000e+00
      vertex   2.040000e+02 8.404213e+01 1.000000e+00
    endloop
  endfacet
  facet normal 0.000000e+00 0.000000e+00 1.000000e+00
    outer loop
      vertex   0.000000e+00 2.042126e+00 1.000000e+00
      vertex   1.870000e+02 6.042126e+00 1.000000e+00
      vertex   1.700000e+01 6.042126e+00 1.000000e+00
    endloop
  endfacet
  facet normal 0.000000e+00 0.000000e+00 1.000000e+00
    outer loop
      vertex   1.700000e+01 6.042126e+00 1.000000e+00
      vertex   7.000000e+00 6.042126e+00 1.000000e+00
      vertex   0.000000e+00 2.042126e+00 1.000000e+00
    endloop
  endfacet
  facet normal 0.000000e+00 0.000000e+00 1.000000e+00
    outer loop
      vertex   0.000000e+00 2.042126e+00 1.000000e+00
      vertex   7.000000e+00 6.042126e+00 1.000000e+00
      vertex   7.000000e+00 1.104213e+01 1.000000e+00
    endloop
  endfacet
  facet normal 0.000000e+00 -0.000000e+00 1.000000e+00
    outer loop
      vertex   1.870000e+02 6.042126e+00 1.000000e+00
      vertex   1.870000e+02 1.104213e+01 1.000000e+00
      vertex   1.700000e+01 1.104213e+01 1.000000e+00
    endloop
  endfacet
  facet normal 0.000000e+00 0.000000e+00 1.000000e+00
    outer loop
      vertex   2.040000e+02 8.404213e+01 1.000000e+00
      vertex   1.700000e+01 1.104213e+01 1.000000e+00
      vertex   1.870000e+02 1.104213e+01 1.000000e+00
    endloop
  endfacet
  facet normal 0.000000e+00 0.000000e+00 1.000000e+00
    outer loop
      vertex   7.000000e+00 1.104213e+01 1.000000e+00
      vertex   1.700000e+01 1.104213e+01 1.000000e+00
      vertex   2.040000e+02 8.404213e+01 1.000000e+00
    endloop
  endfacet
  facet normal 0.000000e+00 0.000000e+00 1.000000e+00
    outer loop
      vertex   2.040000e+02 8.404213e+01 1.000000e+00
      vertex   0.000000e+00 8.404213e+01 1.000000e+00
      vertex   7.000000e+00 1.104213e+01 1.000000e+00
    endloop
  endfacet
  facet normal 0.000000e+00 0.000000e+00 1.000000e+00
    outer loop
      vertex   7.000000e+00 1.104213e+01 1.000000e+00
      vertex   0.000000e+00 8.404213e+01 1.000000e+00
      vertex   0.000000e+00 2.042126e+00 1.000000e+00
    endloop
  endfacet
  facet normal -1.275532e-17 -1.000000e+00 0.000000e+00
    outer loop
      vertex   2.040000e+02 2.042126e+00 -1.000000e+00
      vertex   2.040000e+02 2.042126e+00 1.000000e+00
      vertex   0.000000e+00 2.042126e+00 1.000000e+00
    endloop
  endfacet
  facet normal -1.275532e-17 -1.000000e+00 -0.000000e+00
    outer loop
      vertex   0.000000e+00 2.042126e+00 1.000000e+00
      vertex   0.000000e+00 2.042126e+00 -1.000000e+00
      vertex   2.040000e+02 2.042126e+00 -1.000000e+00
    endloop
  endfacet
  facet normal 1.000000e+00 0.000000e+00 -0.000000e+00
    outer loop
      vertex   2.040000e+02 8.404213e+01 -1.000000e+00
      vertex   2.040000e+02 8.404213e+01 1.000000e+00
      vertex   2.040000e+02 2.042126e+00 1.000000e+00
    endloop
  endfacet
  facet normal 1.000000e+00 0.000000e+00 0.000000e+00
    outer loop
      vertex   2.040000e+02 2.042126e+00 1.000000e+00
      vertex   2.040000e+02 2.042126e+00 -1.000000e+00
      vertex   2.040000e+02 8.404213e+01 -1.000000e+00
    endloop
  endfacet
  facet normal 0.000000e+00 1.000000e+00 0.000000e+00
    outer loop
      vertex   0.000000e+00 8.404213e+01 -1.000000e+00
      vertex   0.000000e+00 8.404213e+01 1.000000e+00
      vertex   2.040000e+02 8.404213e+01 1.000000e+00
    endloop
  endfacet
  facet normal 0.000000e+00 1.000000e+00 0.000000e+00
    outer loop
      vertex   2.040000e+02 8.404213e+01 1.000000e+00
      vertex   2.040000e+02 8.404213e+01 -1.000000e+00
      vertex   0.000000e+00 8.404213e+01 -1.000000e+00
    endloop
  endfacet
  facet normal -1.000000e+00 0.000000e+00 0.000000e+00
    outer loop
      vertex   0.000000e+00 2.042126e+00 -1.000000e+00
      vertex   0.000000e+00 2.042126e+00 1.000000e+00
      vertex   0.000000e+00 8.404213e+01 1.000000e+00
    endloop
  endfacet
  facet normal -1.000000e+00 0.000000e+00 -0.000000e+00
    outer loop
      vertex   0.000000e+00 8.404213e+01 1.000000e+00
      vertex   0.000000e+00 8.404213e+01 -1.000000e+00
      vertex   0.000000e+00 2.042126e+00 -1.000000e+00
    endloop
  endfacet
  facet normal 0.000000e+00 0.000000e+00 -1.000000e+00
    outer loop
      vertex   0.000000e+00 2.042126e+00 -1.000000e+00
      vertex   0.000000e+00 8.404213e+01 -1.000000e+00
      vertex   2.040000e+02 8.404213e+01 -1.000000e+00
    endloop
  endfacet
  facet normal 0.000000e+00 -0.000000e+00 -1.000000e+00
    outer loop
      vertex   2.040000e+02 8.404213e+01 -1.000000e+00
      vertex   2.040000e+02 2.042126e+00 -1.000000e+00
      vertex   0.000000e+00 2.042126e+00 -1.000000e+00
    endloop
  endfacet
  facet normal 1.000000e+00 0.000000e+00 -0.000000e+00
    outer loop
      vertex   1.970000e+02 1.104213e+01 1.000000e+00
      vertex   1.970000e+02 1.104213e+01 1.100000e+01
      vertex   1.970000e+02 6.042126e+00 1.100000e+01
    endloop
  endfacet
  facet normal 1.000000e+00 0.000000e+00 0.000000e+00
    outer loop
      vertex   1.970000e+02 6.042126e+00 1.100000e+01
      vertex   1.970000e+02 6.042126e+00 1.000000e+00
      vertex   1.970000e+02 1.104213e+01 1.000000e+00
    endloop
  endfacet
  facet normal -1.000000e+00 0.000000e+00 0.000000e+00
    outer loop
      vertex   1.870000e+02 6.042126e+00 1.000000e+00
      vertex   1.870000e+02 6.042126e+00 1.100000e+01
      vertex   1.870000e+02 1.104213e+01 1.100000e+01
    endloop
  endfacet
  facet normal -1.000000e+00 0.000000e+00 -0.000000e+00
    outer loop
      vertex   1.870000e+02 1.104213e+01 1.100000e+01
      vertex   1.870000e+02 1.104213e+01 1.000000e+00
      vertex   1.870000e+02 6.042126e+00 1.000000e+00
    endloop
  endfacet
  facet normal 0.000000e+00 -0.000000e+00 1.000000e+00
    outer loop
      vertex   1.970000e+02 6.042126e+00 1.100000e+01
      vertex   1.970000e+02 1.104213e+01 1.100000e+01
      vertex   1.870000e+02 1.104213e+01 1.100000e+01
    endloop
  endfacet
  facet normal 0.000000e+00 0.000000e+00 1.000000e+00
    outer loop
      vertex   1.870000e+02 1.104213e+01 1.100000e+01
      vertex   1.870000e+02 6.042126e+00 1.100000e+01
      vertex   1.970000e+02 6.042126e+00 1.100000e+01
    endloop
  endfacet
  facet normal -0.000000e+00 -1.000000e+00 -2.061698e-15
    outer loop
      vertex   1.932991e+02 6.042126e+00 4.786323e+00
      vertex   1.927009e+02 6.042126e+00 4.786323e+00
      vertex   1.870000e+02 6.042126e+00 1.000000e+00
    endloop
  endfacet
  facet normal 0.000000e+00 -1.000000e+00 -2.061698e-15
    outer loop
      vertex   1.870000e+02 6.042126e+00 1.000000e+00
      vertex   1.970000e+02 6.042126e+00 1.000000e+00
      vertex   1.932991e+02 6.042126e+00 4.786323e+00
    endloop
  endfacet
  facet normal 7.151801e-16 -1.000000e+00 -1.362662e-15
    outer loop
      vertex   1.938289e+02 6.042126e+00 5.064362e+00
      vertex   1.932991e+02 6.042126e+00 4.786323e+00
      vertex   1.970000e+02 6.042126e+00 1.000000e+00
    endloop
  endfacet
  facet normal 4.062722e-16 -1.000000e+00 1.648311e-15
    outer loop
      vertex   1.970000e+02 6.042126e+00 1.100000e+01
      vertex   1.930000e+02 6.042126e+00 7.250000e+00
      vertex   1.935809e+02 6.042126e+00 7.106820e+00
    endloop
  endfacet
  facet normal -6.960954e-16 -1.000000e+00 2.824170e-15
    outer loop
      vertex   1.924191e+02 6.042126e+00 7.106820e+00
      vertex   1.930000e+02 6.042126e+00 7.250000e+00
      vertex   1.970000e+02 6.042126e+00 1.100000e+01
    endloop
  endfacet
  facet normal 0.000000e+00 -1.000000e+00 2.005110e-15
    outer loop
      vertex   1.970000e+02 6.042126e+00 1.100000e+01
      vertex   1.870000e+02 6.042126e+00 1.100000e+01
      vertex   1.924191e+02 6.042126e+00 7.106820e+00
    endloop
  endfacet
  facet normal -7.954538e-16 -1.000000e+00 8.978817e-16
    outer loop
      vertex   1.919713e+02 6.042126e+00 6.710081e+00
      vertex   1.924191e+02 6.042126e+00 7.106820e+00
      vertex   1.870000e+02 6.042126e+00 1.100000e+01
    endloop
  endfacet
  facet normal 9.990616e-16 -1.000000e+00 1.127707e-15
    outer loop
      vertex   1.970000e+02 6.042126e+00 1.100000e+01
      vertex   1.935809e+02 6.042126e+00 7.106820e+00
      vertex   1.940287e+02 6.042126e+00 6.710081e+00
    endloop
  endfacet
  facet normal 1.697668e-15 -1.000000e+00 6.438407e-16
    outer loop
      vertex   1.940287e+02 6.042126e+00 6.710081e+00
      vertex   1.942409e+02 6.042126e+00 6.150671e+00
      vertex   1.970000e+02 6.042126e+00 1.100000e+01
    endloop
  endfacet
  facet normal 2.829262e-15 -1.000000e+00 0.000000e+00
    outer loop
      vertex   1.970000e+02 6.042126e+00 1.000000e+00
      vertex   1.970000e+02 6.042126e+00 1.100000e+01
      vertex   1.942409e+02 6.042126e+00 6.150671e+00
    endloop
  endfacet
  facet normal 2.306460e-15 -1.000000e+00 -2.800549e-16
    outer loop
      vertex   1.942409e+02 6.042126e+00 6.150671e+00
      vertex   1.941688e+02 6.042126e+00 5.556744e+00
      vertex   1.970000e+02 6.042126e+00 1.000000e+00
    endloop
  endfacet
  facet normal 1.306153e-15 -1.000000e+00 -9.015726e-16
    outer loop
      vertex   1.941688e+02 6.042126e+00 5.556744e+00
      vertex   1.938289e+02 6.042126e+00 5.064362e+00
      vertex   1.970000e+02 6.042126e+00 1.000000e+00
    endloop
  endfacet
  facet normal -6.044290e-16 -1.000000e+00 -1.151643e-15
    outer loop
      vertex   1.870000e+02 6.042126e+00 1.000000e+00
      vertex   1.927009e+02 6.042126e+00 4.786323e+00
      vertex   1.921711e+02 6.042126e+00 5.064362e+00
    endloop
  endfacet
  facet normal -9.786539e-16 -1.000000e+00 -6.755160e-16
    outer loop
      vertex   1.870000e+02 6.042126e+00 1.000000e+00
      vertex   1.921711e+02 6.042126e+00 5.064362e+00
      vertex   1.918312e+02 6.042126e+00 5.556744e+00
    endloop
  endfacet
  facet normal -1.615791e-15 -1.000000e+00 -0.000000e+00
    outer loop
      vertex   1.870000e+02 6.042126e+00 1.100000e+01
      vertex   1.870000e+02 6.042126e+00 1.000000e+00
      vertex   1.918312e+02 6.042126e+00 5.556744e+00
    endloop
  endfacet
  facet normal -1.871870e-15 -1.000000e+00 -2.272861e-16
    outer loop
      vertex   1.918312e+02 6.042126e+00 5.556744e+00
      vertex   1.917591e+02 6.042126e+00 6.150671e+00
      vertex   1.870000e+02 6.042126e+00 1.100000e+01
    endloop
  endfacet
  facet normal -1.183085e-15 -1.000000e+00 4.486849e-16
    outer loop
      vertex   1.870000e+02 6.042126e+00 1.100000e+01
      vertex   1.917591e+02 6.042126e+00 6.150671e+00
      vertex   1.919713e+02 6.042126e+00 6.710081e+00
    endloop
  endfacet
  facet normal -4.440274e-16 1.000000e+00 -5.012033e-16
    outer loop
      vertex   1.940287e+02 1.104213e+01 6.710081e+00
      vertex   1.935809e+02 1.104213e+01 7.106820e+00
      vertex   1.970000e+02 1.104213e+01 1.100000e+01
    endloop
  endfacet
  facet normal -1.805654e-16 1.000000e+00 -7.325827e-16
    outer loop
      vertex   1.935809e+02 1.104213e+01 7.106820e+00
      vertex   1.930000e+02 1.104213e+01 7.250000e+00
      vertex   1.970000e+02 1.104213e+01 1.100000e+01
    endloop
  endfacet
  facet normal 0.000000e+00 1.000000e+00 -9.251859e-16
    outer loop
      vertex   1.870000e+02 1.104213e+01 1.100000e+01
      vertex   1.970000e+02 1.104213e+01 1.100000e+01
      vertex   1.930000e+02 1.104213e+01 7.250000e+00
    endloop
  endfacet
  facet normal 1.635425e-16 1.000000e+00 -6.635179e-16
    outer loop
      vertex   1.930000e+02 1.104213e+01 7.250000e+00
      vertex   1.924191e+02 1.104213e+01 7.106820e+00
      vertex   1.870000e+02 1.104213e+01 1.100000e+01
    endloop
  endfacet
  facet normal 4.349573e-16 1.000000e+00 3.002294e-16
    outer loop
      vertex   1.918312e+02 1.104213e+01 5.556744e+00
      vertex   1.921711e+02 1.104213e+01 5.064362e+00
      vertex   1.870000e+02 1.104213e+01 1.000000e+00
    endloop
  endfacet
  facet normal 2.686351e-16 1.000000e+00 5.118415e-16
    outer loop
      vertex   1.921711e+02 1.104213e+01 5.064362e+00
      vertex   1.927009e+02 1.104213e+01 4.786323e+00
      vertex   1.870000e+02 1.104213e+01 1.000000e+00
    endloop
  endfacet
  facet normal 0.000000e+00 1.000000e+00 9.163104e-16
    outer loop
      vertex   1.970000e+02 1.104213e+01 1.000000e+00
      vertex   1.870000e+02 1.104213e+01 1.000000e+00
      vertex   1.927009e+02 1.104213e+01 4.786323e+00
    endloop
  endfacet
  facet normal -0.000000e+00 1.000000e+00 9.163104e-16
    outer loop
      vertex   1.927009e+02 1.104213e+01 4.786323e+00
      vertex   1.932991e+02 1.104213e+01 4.786323e+00
      vertex   1.970000e+02 1.104213e+01 1.000000e+00
    endloop
  endfacet
  facet normal -3.178578e-16 1.000000e+00 6.056275e-16
    outer loop
      vertex   1.970000e+02 1.104213e+01 1.000000e+00
      vertex   1.932991e+02 1.104213e+01 4.786323e+00
      vertex   1.938289e+02 1.104213e+01 5.064362e+00
    endloop
  endfacet
  facet normal -5.805126e-16 1.000000e+00 4.006989e-16
    outer loop
      vertex   1.970000e+02 1.104213e+01 1.000000e+00
      vertex   1.938289e+02 1.104213e+01 5.064362e+00
      vertex   1.941688e+02 1.104213e+01 5.556744e+00
    endloop
  endfacet
  facet normal -1.225421e-15 1.000000e+00 0.000000e+00
    outer loop
      vertex   1.970000e+02 1.104213e+01 1.100000e+01
      vertex   1.970000e+02 1.104213e+01 1.000000e+00
      vertex   1.941688e+02 1.104213e+01 5.556744e+00
    endloop
  endfacet
  facet normal -1.598603e-15 1.000000e+00 1.941056e-16
    outer loop
      vertex   1.941688e+02 1.104213e+01 5.556744e+00
      vertex   1.942409e+02 1.104213e+01 6.150671e+00
      vertex   1.970000e+02 1.104213e+01 1.100000e+01
    endloop
  endfacet
  facet normal -7.545193e-16 1.000000e+00 -2.861514e-16
    outer loop
      vertex   1.970000e+02 1.104213e+01 1.100000e+01
      vertex   1.942409e+02 1.104213e+01 6.150671e+00
      vertex   1.940287e+02 1.104213e+01 6.710081e+00
    endloop
  endfacet
  facet normal 3.535350e-16 1.000000e+00 -3.990585e-16
    outer loop
      vertex   1.870000e+02 1.104213e+01 1.100000e+01
      vertex   1.924191e+02 1.104213e+01 7.106820e+00
      vertex   1.919713e+02 1.104213e+01 6.710081e+00
    endloop
  endfacet
  facet normal 5.258154e-16 1.000000e+00 -1.994155e-16
    outer loop
      vertex   1.870000e+02 1.104213e+01 1.100000e+01
      vertex   1.919713e+02 1.104213e+01 6.710081e+00
      vertex   1.917591e+02 1.104213e+01 6.150671e+00
    endloop
  endfacet
  facet normal 7.290111e-16 1.000000e+00 -0.000000e+00
    outer loop
      vertex   1.870000e+02 1.104213e+01 1.000000e+00
      vertex   1.870000e+02 1.104213e+01 1.100000e+01
      vertex   1.917591e+02 1.104213e+01 6.150671e+00
    endloop
  endfacet
  facet normal 7.800795e-16 1.000000e+00 -4.718612e-17
    outer loop
      vertex   1.917591e+02 1.104213e+01 6.150671e+00
      vertex   1.917500e+02 1.104213e+01 6.000000e+00
      vertex   1.870000e+02 1.104213e+01 1.000000e+00
    endloop
  endfacet
  facet normal 6.122967e-16 1.000000e+00 1.122075e-16
    outer loop
      vertex   1.917500e+02 1.104213e+01 6.000000e+00
      vertex   1.918312e+02 1.104213e+01 5.556744e+00
      vertex   1.870000e+02 1.104213e+01 1.000000e+00
    endloop
  endfacet
  facet normal 8.229839e-01 -6.988393e-18 5.680647e-01
    outer loop
      vertex   1.921711e+02 1.104213e+01 5.064362e+00
      vertex   1.918312e+02 1.104213e+01 5.556744e+00
      vertex   1.918312e+02 6.042126e+00 5.556744e+00
    endloop
  endfacet
  facet normal 9.836199e-01 -0.000000e+00 1.802550e-01
    outer loop
      vertex   1.918312e+02 6.042126e+00 5.556744e+00
      vertex   1.918312e+02 1.104213e+01 5.556744e+00
      vertex   1.917500e+02 1.104213e+01 6.000000e+00
    endloop
  endfacet
  facet normal 9.926942e-01 5.441684e-03 1.205349e-01
    outer loop
      vertex   1.917500e+02 1.104213e+01 6.000000e+00
      vertex   1.917591e+02 6.042126e+00 6.150671e+00
      vertex   1.918312e+02 6.042126e+00 5.556744e+00
    endloop
  endfacet
  facet normal 9.981756e-01 2.169392e-19 -6.037850e-02
    outer loop
      vertex   1.917500e+02 1.104213e+01 6.000000e+00
      vertex   1.917591e+02 1.104213e+01 6.150671e+00
      vertex   1.917591e+02 6.042126e+00 6.150671e+00
    endloop
  endfacet
  facet normal 9.350162e-01 0.000000e+00 -3.546049e-01
    outer loop
      vertex   1.919713e+02 6.042126e+00 6.710081e+00
      vertex   1.917591e+02 6.042126e+00 6.150671e+00
      vertex   1.917591e+02 1.104213e+01 6.150671e+00
    endloop
  endfacet
  facet normal 9.350162e-01 0.000000e+00 -3.546049e-01
    outer loop
      vertex   1.917591e+02 1.104213e+01 6.150671e+00
      vertex   1.919713e+02 1.104213e+01 6.710081e+00
      vertex   1.919713e+02 6.042126e+00 6.710081e+00
    endloop
  endfacet
  facet normal 6.631227e-01 -6.988393e-18 -7.485107e-01
    outer loop
      vertex   1.924191e+02 6.042126e+00 7.106820e+00
      vertex   1.919713e+02 6.042126e+00 6.710081e+00
      vertex   1.919713e+02 1.104213e+01 6.710081e+00
    endloop
  endfacet
  facet normal 6.631227e-01 -6.988393e-18 -7.485107e-01
    outer loop
      vertex   1.919713e+02 1.104213e+01 6.710081e+00
      vertex   1.924191e+02 1.104213e+01 7.106820e+00
      vertex   1.924191e+02 6.042126e+00 7.106820e+00
    endloop
  endfacet
  facet normal 2.393157e-01 3.494196e-18 -9.709418e-01
    outer loop
      vertex   1.930000e+02 6.042126e+00 7.250000e+00
      vertex   1.924191e+02 6.042126e+00 7.106820e+00
      vertex   1.924191e+02 1.104213e+01 7.106820e+00
    endloop
  endfacet
  facet normal 2.393157e-01 3.494196e-18 -9.709418e-01
    outer loop
      vertex   1.924191e+02 1.104213e+01 7.106820e+00
      vertex   1.930000e+02 1.104213e+01 7.250000e+00
      vertex   1.930000e+02 6.042126e+00 7.250000e+00
    endloop
  endfacet
  facet normal -2.393157e-01 -3.494196e-18 -9.709418e-01
    outer loop
      vertex   1.935809e+02 6.042126e+00 7.106820e+00
      vertex   1.930000e+02 6.042126e+00 7.250000e+00
      vertex   1.930000e+02 1.104213e+01 7.250000e+00
    endloop
  endfacet
  facet normal -2.393157e-01 -3.494196e-18 -9.709418e-01
    outer loop
      vertex   1.930000e+02 1.104213e+01 7.250000e+00
      vertex   1.935809e+02 1.104213e+01 7.106820e+00
      vertex   1.935809e+02 6.042126e+00 7.106820e+00
    endloop
  endfacet
  facet normal -6.631227e-01 -6.988393e-18 -7.485107e-01
    outer loop
      vertex   1.940287e+02 6.042126e+00 6.710081e+00
      vertex   1.935809e+02 6.042126e+00 7.106820e+00
      vertex   1.935809e+02 1.104213e+01 7.106820e+00
    endloop
  endfacet
  facet normal -6.631227e-01 -6.988393e-18 -7.485107e-01
    outer loop
      vertex   1.935809e+02 1.104213e+01 7.106820e+00
      vertex   1.940287e+02 1.104213e+01 6.710081e+00
      vertex   1.940287e+02 6.042126e+00 6.710081e+00
    endloop
  endfacet
  facet normal -9.350162e-01 0.000000e+00 -3.546049e-01
    outer loop
      vertex   1.942409e+02 6.042126e+00 6.150671e+00
      vertex   1.940287e+02 6.042126e+00 6.710081e+00
      vertex   1.940287e+02 1.104213e+01 6.710081e+00
    endloop
  endfacet
  facet normal -9.350162e-01 0.000000e+00 -3.546049e-01
    outer loop
      vertex   1.940287e+02 1.104213e+01 6.710081e+00
      vertex   1.942409e+02 1.104213e+01 6.150671e+00
      vertex   1.942409e+02 6.042126e+00 6.150671e+00
    endloop
  endfacet
  facet normal -9.927089e-01 0.000000e+00 1.205367e-01
    outer loop
      vertex   1.941688e+02 6.042126e+00 5.556744e+00
      vertex   1.942409e+02 6.042126e+00 6.150671e+00
      vertex   1.942409e+02 1.104213e+01 6.150671e+00
    endloop
  endfacet
  facet normal -9.927089e-01 0.000000e+00 1.205367e-01
    outer loop
      vertex   1.942409e+02 1.104213e+01 6.150671e+00
      vertex   1.941688e+02 1.104213e+01 5.556744e+00
      vertex   1.941688e+02 6.042126e+00 5.556744e+00
    endloop
  endfacet
  facet normal -8.229839e-01 0.000000e+00 5.680647e-01
    outer loop
      vertex   1.938289e+02 6.042126e+00 5.064362e+00
      vertex   1.941688e+02 6.042126e+00 5.556744e+00
      vertex   1.941688e+02 1.104213e+01 5.556744e+00
    endloop
  endfacet
  facet normal -8.229839e-01 0.000000e+00 5.680647e-01
    outer loop
      vertex   1.941688e+02 1.104213e+01 5.556744e+00
      vertex   1.938289e+02 1.104213e+01 5.064362e+00
      vertex   1.938289e+02 6.042126e+00 5.064362e+00
    endloop
  endfacet
  facet normal -4.647232e-01 0.000000e+00 8.854560e-01
    outer loop
      vertex   1.932991e+02 6.042126e+00 4.786323e+00
      vertex   1.938289e+02 6.042126e+00 5.064362e+00
      vertex   1.938289e+02 1.104213e+01 5.064362e+00
    endloop
  endfacet
  facet normal -4.647232e-01 0.000000e+00 8.854560e-01
    outer loop
      vertex   1.938289e+02 1.104213e+01 5.064362e+00
      vertex   1.932991e+02 1.104213e+01 4.786323e+00
      vertex   1.932991e+02 6.042126e+00 4.786323e+00
    endloop
  endfacet
  facet normal 0.000000e+00 0.000000e+00 1.000000e+00
    outer loop
      vertex   1.927009e+02 6.042126e+00 4.786323e+00
      vertex   1.932991e+02 6.042126e+00 4.786323e+00
      vertex   1.932991e+02 1.104213e+01 4.786323e+00
    endloop
  endfacet
  facet normal 0.000000e+00 0.000000e+00 1.000000e+00
    outer loop
      vertex   1.932991e+02 1.104213e+01 4.786323e+00
      vertex   1.927009e+02 1.104213e+01 4.786323e+00
      vertex   1.927009e+02 6.042126e+00 4.786323e+00
    endloop
  endfacet
  facet normal 4.647232e-01 0.000000e+00 8.854560e-01
    outer loop
      vertex   1.921711e+02 6.042126e+00 5.064362e+00
      vertex   1.927009e+02 6.042126e+00 4.786323e+00
      vertex   1.927009e+02 1.104213e+01 4.786323e+00
    endloop
  endfacet
  facet normal 4.647232e-01 0.000000e+00 8.854560e-01
    outer loop
      vertex   1.927009e+02 1.104213e+01 4.786323e+00
      vertex   1.921711e+02 1.104213e+01 5.064362e+00
      vertex   1.921711e+02 6.042126e+00 5.064362e+00
    endloop
  endfacet
  facet normal 8.229839e-01 -6.988393e-18 5.680647e-01
    outer loop
      vertex   1.918312e+02 6.042126e+00 5.556744e+00
      vertex   1.921711e+02 6.042126e+00 5.064362e+00
      vertex   1.921711e+02 1.104213e+01 5.064362e+00
    endloop
  endfacet
endsolid
