solid ascii
  facet normal -8.229839e-01 -5.680647e-01 0.000000e+00
    outer loop
      vertex   5.828903e+00 1.193564e+01 -1.000000e+00
      vertex   6.168770e+00 1.144326e+01 -1.000000e+00
      vertex   6.168770e+00 1.144326e+01 1.000000e+00
    endloop
  endfacet
  facet normal -9.836199e-01 -1.802550e-01 -0.000000e+00
    outer loop
      vertex   6.168770e+00 1.144326e+01 1.000000e+00
      vertex   6.168770e+00 1.144326e+01 -1.000000e+00
      vertex   6.250000e+00 1.100000e+01 -1.000000e+00
    endloop
  endfacet
  facet normal -9.926170e-01 -1.205255e-01 -1.360315e-02
    outer loop
      vertex   6.250000e+00 1.100000e+01 -1.000000e+00
      vertex   6.240886e+00 1.084933e+01 1.000000e+00
      vertex   6.168770e+00 1.144326e+01 1.000000e+00
    endloop
  endfacet
  facet normal -9.981756e-01 6.037850e-02 0.000000e+00
    outer loop
      vertex   6.250000e+00 1.100000e+01 -1.000000e+00
      vertex   6.240886e+00 1.084933e+01 -1.000000e+00
      vertex   6.240886e+00 1.084933e+01 1.000000e+00
    endloop
  endfacet
  facet normal -9.350162e-01 3.546049e-01 0.000000e+00
    outer loop
      vertex   6.028730e+00 1.028992e+01 1.000000e+00
      vertex   6.240886e+00 1.084933e+01 1.000000e+00
      vertex   6.240886e+00 1.084933e+01 -1.000000e+00
    endloop
  endfacet
  facet normal -9.350162e-01 3.546049e-01 0.000000e+00
    outer loop
      vertex   6.240886e+00 1.084933e+01 -1.000000e+00
      vertex   6.028730e+00 1.028992e+01 -1.000000e+00
      vertex   6.028730e+00 1.028992e+01 1.000000e+00
    endloop
  endfacet
  facet normal -6.631227e-01 7.485107e-01 0.000000e+00
    outer loop
      vertex   5.580904e+00 9.893180e+00 1.000000e+00
      vertex   6.028730e+00 1.028992e+01 1.000000e+00
      vertex   6.028730e+00 1.028992e+01 -1.000000e+00
    endloop
  endfacet
  facet normal -6.631227e-01 7.485107e-01 0.000000e+00
    outer loop
      vertex   6.028730e+00 1.028992e+01 -1.000000e+00
      vertex   5.580904e+00 9.893180e+00 -1.000000e+00
      vertex   5.580904e+00 9.893180e+00 1.000000e+00
    endloop
  endfacet
  facet normal -2.393157e-01 9.709418e-01 0.000000e+00
    outer loop
      vertex   5.000000e+00 9.750000e+00 1.000000e+00
      vertex   5.580904e+00 9.893180e+00 1.000000e+00
      vertex   5.580904e+00 9.893180e+00 -1.000000e+00
    endloop
  endfacet
  facet normal -2.393157e-01 9.709418e-01 0.000000e+00
    outer loop
      vertex   5.580904e+00 9.893180e+00 -1.000000e+00
      vertex   5.000000e+00 9.750000e+00 -1.000000e+00
      vertex   5.000000e+00 9.750000e+00 1.000000e+00
    endloop
  endfacet
  facet normal 2.393157e-01 9.709418e-01 -1.448543e-17
    outer loop
      vertex   4.419096e+00 9.893180e+00 1.000000e+00
      vertex   5.000000e+00 9.750000e+00 1.000000e+00
      vertex   5.000000e+00 9.750000e+00 -1.000000e+00
    endloop
  endfacet
  facet normal 2.393157e-01 9.709418e-01 -1.448543e-17
    outer loop
      vertex   5.000000e+00 9.750000e+00 -1.000000e+00
      vertex   4.419096e+00 9.893180e+00 -1.000000e+00
      vertex   4.419096e+00 9.893180e+00 1.000000e+00
    endloop
  endfacet
  facet normal 6.631227e-01 7.485107e-01 0.000000e+00
    outer loop
      vertex   3.971270e+00 1.028992e+01 1.000000e+00
      vertex   4.419096e+00 9.893180e+00 1.000000e+00
      vertex   4.419096e+00 9.893180e+00 -1.000000e+00
    endloop
  endfacet
  facet normal 6.631227e-01 7.485107e-01 0.000000e+00
    outer loop
      vertex   4.419096e+00 9.893180e+00 -1.000000e+00
      vertex   3.971270e+00 1.028992e+01 -1.000000e+00
      vertex   3.971270e+00 1.028992e+01 1.000000e+00
    endloop
  endfacet
  facet normal 9.350162e-01 3.546049e-01 0.000000e+00
    outer loop
      vertex   3.759114e+00 1.084933e+01 1.000000e+00
      vertex   3.971270e+00 1.028992e+01 1.000000e+00
      vertex   3.971270e+00 1.028992e+01 -1.000000e+00
    endloop
  endfacet
  facet normal 9.350162e-01 3.546049e-01 0.000000e+00
    outer loop
      vertex   3.971270e+00 1.028992e+01 -1.000000e+00
      vertex   3.759114e+00 1.084933e+01 -1.000000e+00
      vertex   3.759114e+00 1.084933e+01 1.000000e+00
    endloop
  endfacet
  facet normal 9.927089e-01 -1.205367e-01 0.000000e+00
    outer loop
      vertex   3.831230e+00 1.144326e+01 1.000000e+00
      vertex   3.759114e+00 1.084933e+01 1.000000e+00
      vertex   3.759114e+00 1.084933e+01 -1.000000e+00
    endloop
  endfacet
  facet normal 9.927089e-01 -1.205367e-01 0.000000e+00
    outer loop
      vertex   3.759114e+00 1.084933e+01 -1.000000e+00
      vertex   3.831230e+00 1.144326e+01 -1.000000e+00
      vertex   3.831230e+00 1.144326e+01 1.000000e+00
    endloop
  endfacet
  facet normal 8.229839e-01 -5.680647e-01 2.897086e-17
    outer loop
      vertex   4.171097e+00 1.193564e+01 1.000000e+00
      vertex   3.831230e+00 1.144326e+01 1.000000e+00
      vertex   3.831230e+00 1.144326e+01 -1.000000e+00
    endloop
  endfacet
  facet normal 8.229839e-01 -5.680647e-01 2.897086e-17
    outer loop
      vertex   3.831230e+00 1.144326e+01 -1.000000e+00
      vertex   4.171097e+00 1.193564e+01 -1.000000e+00
      vertex   4.171097e+00 1.193564e+01 1.000000e+00
    endloop
  endfacet
  facet normal 4.647232e-01 -8.854560e-01 -2.897086e-17
    outer loop
      vertex   4.700855e+00 1.221368e+01 1.000000e+00
      vertex   4.171097e+00 1.193564e+01 1.000000e+00
      vertex   4.171097e+00 1.193564e+01 -1.000000e+00
    endloop
  endfacet
  facet normal 4.647232e-01 -8.854560e-01 -2.897086e-17
    outer loop
      vertex   4.171097e+00 1.193564e+01 -1.000000e+00
      vertex   4.700855e+00 1.221368e+01 -1.000000e+00
      vertex   4.700855e+00 1.221368e+01 1.000000e+00
    endloop
  endfacet
  facet normal -0.000000e+00 -1.000000e+00 0.000000e+00
    outer loop
      vertex   5.299145e+00 1.221368e+01 1.000000e+00
      vertex   4.700855e+00 1.221368e+01 1.000000e+00
      vertex   4.700855e+00 1.221368e+01 -1.000000e+00
    endloop
  endfacet
  facet normal 0.000000e+00 -1.000000e+00 0.000000e+00
    outer loop
      vertex   4.700855e+00 1.221368e+01 -1.000000e+00
      vertex   5.299145e+00 1.221368e+01 -1.000000e+00
      vertex   5.299145e+00 1.221368e+01 1.000000e+00
    endloop
  endfacet
  facet normal -4.647232e-01 -8.854560e-01 1.448543e-17
    outer loop
      vertex   5.828903e+00 1.193564e+01 1.000000e+00
      vertex   5.299145e+00 1.221368e+01 1.000000e+00
      vertex   5.299145e+00 1.221368e+01 -1.000000e+00
    endloop
  endfacet
  facet normal -4.647232e-01 -8.854560e-01 1.448543e-17
    outer loop
      vertex   5.299145e+00 1.221368e+01 -1.000000e+00
      vertex   5.828903e+00 1.193564e+01 -1.000000e+00
      vertex   5.828903e+00 1.193564e+01 1.000000e+00
    endloop
  endfacet
  facet normal -8.229839e-01 -5.680647e-01 0.000000e+00
    outer loop
      vertex   6.168770e+00 1.144326e+01 1.000000e+00
      vertex   5.828903e+00 1.193564e+01 1.000000e+00
      vertex   5.828903e+00 1.193564e+01 -1.000000e+00
    endloop
  endfacet
  facet normal 0.000000e+00 0.000000e+00 1.000000e+00
    outer loop
      vertex   1.860287e+02 1.028992e+01 1.000000e+00
      vertex   1.855809e+02 9.893180e+00 1.000000e+00
      vertex   2.000000e+02 0.000000e+00 1.000000e+00
    endloop
  endfacet
  facet normal 0.000000e+00 0.000000e+00 1.000000e+00
    outer loop
      vertex   1.855809e+02 9.893180e+00 1.000000e+00
      vertex   1.850000e+02 9.750000e+00 1.000000e+00
      vertex   2.000000e+02 0.000000e+00 1.000000e+00
    endloop
  endfacet
  facet normal 0.000000e+00 0.000000e+00 1.000000e+00
    outer loop
      vertex   2.000000e+02 0.000000e+00 1.000000e+00
      vertex   1.850000e+02 9.750000e+00 1.000000e+00
      vertex   1.844191e+02 9.893180e+00 1.000000e+00
    endloop
  endfacet
  facet normal 0.000000e+00 0.000000e+00 1.000000e+00
    outer loop
      vertex   2.000000e+02 8.200000e+01 1.000000e+00
      vertex   1.947009e+02 1.221368e+01 1.000000e+00
      vertex   1.952991e+02 1.221368e+01 1.000000e+00
    endloop
  endfacet
  facet normal 0.000000e+00 0.000000e+00 1.000000e+00
    outer loop
      vertex   1.529914e+01 1.221368e+01 1.000000e+00
      vertex   1.582890e+01 1.193564e+01 1.000000e+00
      vertex   1.844191e+02 9.893180e+00 1.000000e+00
    endloop
  endfacet
  facet normal 0.000000e+00 0.000000e+00 1.000000e+00
    outer loop
      vertex   1.844191e+02 9.893180e+00 1.000000e+00
      vertex   1.582890e+01 1.193564e+01 1.000000e+00
      vertex   1.616877e+01 1.144326e+01 1.000000e+00
    endloop
  endfacet
  facet normal 0.000000e+00 0.000000e+00 1.000000e+00
    outer loop
      vertex   1.616877e+01 1.144326e+01 1.000000e+00
      vertex   1.624089e+01 1.084933e+01 1.000000e+00
      vertex   1.844191e+02 9.893180e+00 1.000000e+00
    endloop
  endfacet
  facet normal 0.000000e+00 0.000000e+00 1.000000e+00
    outer loop
      vertex   1.844191e+02 9.893180e+00 1.000000e+00
      vertex   1.624089e+01 1.084933e+01 1.000000e+00
      vertex   2.000000e+02 0.000000e+00 1.000000e+00
    endloop
  endfacet
  facet normal 0.000000e+00 0.000000e+00 1.000000e+00
    outer loop
      vertex   2.000000e+02 8.200000e+01 1.000000e+00
      vertex   1.937591e+02 1.084933e+01 1.000000e+00
      vertex   1.938312e+02 1.144326e+01 1.000000e+00
    endloop
  endfacet
  facet normal 0.000000e+00 0.000000e+00 1.000000e+00
    outer loop
      vertex   1.938312e+02 1.144326e+01 1.000000e+00
      vertex   1.941711e+02 1.193564e+01 1.000000e+00
      vertex   2.000000e+02 8.200000e+01 1.000000e+00
    endloop
  endfacet
  facet normal 0.000000e+00 0.000000e+00 1.000000e+00
    outer loop
      vertex   1.941711e+02 1.193564e+01 1.000000e+00
      vertex   1.947009e+02 1.221368e+01 1.000000e+00
      vertex   2.000000e+02 8.200000e+01 1.000000e+00
    endloop
  endfacet
  facet normal 0.000000e+00 0.000000e+00 1.000000e+00
    outer loop
      vertex   1.950000e+02 9.750000e+00 1.000000e+00
      vertex   1.862409e+02 1.084933e+01 1.000000e+00
      vertex   1.860287e+02 1.028992e+01 1.000000e+00
    endloop
  endfacet
  facet normal 0.000000e+00 0.000000e+00 1.000000e+00
    outer loop
      vertex   1.860287e+02 1.028992e+01 1.000000e+00
      vertex   2.000000e+02 0.000000e+00 1.000000e+00
      vertex   1.950000e+02 9.750000e+00 1.000000e+00
    endloop
  endfacet
  facet normal 0.000000e+00 0.000000e+00 1.000000e+00
    outer loop
      vertex   2.000000e+02 0.000000e+00 1.000000e+00
      vertex   1.955809e+02 9.893180e+00 1.000000e+00
      vertex   1.950000e+02 9.750000e+00 1.000000e+00
    endloop
  endfacet
  facet normal 0.000000e+00 0.000000e+00 1.000000e+00
    outer loop
      vertex   1.960287e+02 1.028992e+01 1.000000e+00
      vertex   1.955809e+02 9.893180e+00 1.000000e+00
      vertex   2.000000e+02 0.000000e+00 1.000000e+00
    endloop
  endfacet
  facet normal 0.000000e+00 0.000000e+00 1.000000e+00
    outer loop
      vertex   0.000000e+00 0.000000e+00 1.000000e+00
      vertex   5.580904e+00 9.893180e+00 1.000000e+00
      vertex   5.000000e+00 9.750000e+00 1.000000e+00
    endloop
  endfacet
  facet normal 0.000000e+00 0.000000e+00 1.000000e+00
    outer loop
      vertex   0.000000e+00 0.000000e+00 1.000000e+00
      vertex   5.000000e+00 9.750000e+00 1.000000e+00
      vertex   4.419096e+00 9.893180e+00 1.000000e+00
    endloop
  endfacet
  facet normal 0.000000e+00 0.000000e+00 1.000000e+00
    outer loop
      vertex   4.419096e+00 9.893180e+00 1.000000e+00
      vertex   3.971270e+00 1.028992e+01 1.000000e+00
      vertex   0.000000e+00 0.000000e+00 1.000000e+00
    endloop
  endfacet
  facet normal 0.000000e+00 0.000000e+00 1.000000e+00
    outer loop
      vertex   2.000000e+02 8.200000e+01 1.000000e+00
      vertex   1.952991e+02 1.221368e+01 1.000000e+00
      vertex   1.958289e+02 1.193564e+01 1.000000e+00
    endloop
  endfacet
  facet normal 0.000000e+00 0.000000e+00 1.000000e+00
    outer loop
      vertex   2.000000e+02 8.200000e+01 1.000000e+00
      vertex   1.958289e+02 1.193564e+01 1.000000e+00
      vertex   1.961688e+02 1.144326e+01 1.000000e+00
    endloop
  endfacet
  facet normal 0.000000e+00 -0.000000e+00 1.000000e+00
    outer loop
      vertex   2.000000e+02 0.000000e+00 1.000000e+00
      vertex   2.000000e+02 8.200000e+01 1.000000e+00
      vertex   1.961688e+02 1.144326e+01 1.000000e+00
    endloop
  endfacet
  facet normal 0.000000e+00 0.000000e+00 1.000000e+00
    outer loop
      vertex   1.961688e+02 1.144326e+01 1.000000e+00
      vertex   1.962409e+02 1.084933e+01 1.000000e+00
      vertex   2.000000e+02 0.000000e+00 1.000000e+00
    endloop
  endfacet
  facet normal 0.000000e+00 0.000000e+00 1.000000e+00
    outer loop
      vertex   2.000000e+02 0.000000e+00 1.000000e+00
      vertex   1.962409e+02 1.084933e+01 1.000000e+00
      vertex   1.960287e+02 1.028992e+01 1.000000e+00
    endloop
  endfacet
  facet normal 0.000000e+00 0.000000e+00 1.000000e+00
    outer loop
      vertex   2.000000e+02 0.000000e+00 1.000000e+00
      vertex   1.624089e+01 1.084933e+01 1.000000e+00
      vertex   1.602873e+01 1.028992e+01 1.000000e+00
    endloop
  endfacet
  facet normal 0.000000e+00 0.000000e+00 1.000000e+00
    outer loop
      vertex   1.602873e+01 1.028992e+01 1.000000e+00
      vertex   1.558090e+01 9.893180e+00 1.000000e+00
      vertex   2.000000e+02 0.000000e+00 1.000000e+00
    endloop
  endfacet
  facet normal 0.000000e+00 0.000000e+00 1.000000e+00
    outer loop
      vertex   0.000000e+00 0.000000e+00 1.000000e+00
      vertex   2.000000e+02 0.000000e+00 1.000000e+00
      vertex   1.558090e+01 9.893180e+00 1.000000e+00
    endloop
  endfacet
  facet normal 0.000000e+00 0.000000e+00 1.000000e+00
    outer loop
      vertex   1.558090e+01 9.893180e+00 1.000000e+00
      vertex   1.500000e+01 9.750000e+00 1.000000e+00
      vertex   0.000000e+00 0.000000e+00 1.000000e+00
    endloop
  endfacet
  facet normal 0.000000e+00 0.000000e+00 1.000000e+00
    outer loop
      vertex   5.580904e+00 9.893180e+00 1.000000e+00
      vertex   0.000000e+00 0.000000e+00 1.000000e+00
      vertex   1.500000e+01 9.750000e+00 1.000000e+00
    endloop
  endfacet
  facet normal 0.000000e+00 -0.000000e+00 1.000000e+00
    outer loop
      vertex   1.937591e+02 1.084933e+01 1.000000e+00
      vertex   2.000000e+02 8.200000e+01 1.000000e+00
      vertex   1.858289e+02 1.193564e+01 1.000000e+00
    endloop
  endfacet
  facet normal 0.000000e+00 0.000000e+00 1.000000e+00
    outer loop
      vertex   1.858289e+02 1.193564e+01 1.000000e+00
      vertex   1.861688e+02 1.144326e+01 1.000000e+00
      vertex   1.937591e+02 1.084933e+01 1.000000e+00
    endloop
  endfacet
  facet normal 0.000000e+00 0.000000e+00 1.000000e+00
    outer loop
      vertex   1.939713e+02 1.028992e+01 1.000000e+00
      vertex   1.937591e+02 1.084933e+01 1.000000e+00
      vertex   1.861688e+02 1.144326e+01 1.000000e+00
    endloop
  endfacet
  facet normal 0.000000e+00 0.000000e+00 1.000000e+00
    outer loop
      vertex   1.861688e+02 1.144326e+01 1.000000e+00
      vertex   1.862409e+02 1.084933e+01 1.000000e+00
      vertex   1.939713e+02 1.028992e+01 1.000000e+00
    endloop
  endfacet
  facet normal 0.000000e+00 0.000000e+00 1.000000e+00
    outer loop
      vertex   1.862409e+02 1.084933e+01 1.000000e+00
      vertex   1.944191e+02 9.893180e+00 1.000000e+00
      vertex   1.939713e+02 1.028992e+01 1.000000e+00
    endloop
  endfacet
  facet normal 0.000000e+00 0.000000e+00 1.000000e+00
    outer loop
      vertex   1.862409e+02 1.084933e+01 1.000000e+00
      vertex   1.950000e+02 9.750000e+00 1.000000e+00
      vertex   1.944191e+02 9.893180e+00 1.000000e+00
    endloop
  endfacet
  facet normal 0.000000e+00 0.000000e+00 1.000000e+00
    outer loop
      vertex   6.240886e+00 1.084933e+01 1.000000e+00
      vertex   1.500000e+01 9.750000e+00 1.000000e+00
      vertex   1.441910e+01 9.893180e+00 1.000000e+00
    endloop
  endfacet
  facet normal 0.000000e+00 0.000000e+00 1.000000e+00
    outer loop
      vertex   1.500000e+01 9.750000e+00 1.000000e+00
      vertex   6.240886e+00 1.084933e+01 1.000000e+00
      vertex   6.028730e+00 1.028992e+01 1.000000e+00
    endloop
  endfacet
  facet normal 0.000000e+00 0.000000e+00 1.000000e+00
    outer loop
      vertex   1.500000e+01 9.750000e+00 1.000000e+00
      vertex   6.028730e+00 1.028992e+01 1.000000e+00
      vertex   5.580904e+00 9.893180e+00 1.000000e+00
    endloop
  endfacet
  facet normal 0.000000e+00 0.000000e+00 1.000000e+00
    outer loop
      vertex   0.000000e+00 0.000000e+00 1.000000e+00
      vertex   3.971270e+00 1.028992e+01 1.000000e+00
      vertex   3.759114e+00 1.084933e+01 1.000000e+00
    endloop
  endfacet
  facet normal 0.000000e+00 0.000000e+00 1.000000e+00
    outer loop
      vertex   0.000000e+00 0.000000e+00 1.000000e+00
      vertex   3.759114e+00 1.084933e+01 1.000000e+00
      vertex   3.831230e+00 1.144326e+01 1.000000e+00
    endloop
  endfacet
  facet normal 0.000000e+00 0.000000e+00 1.000000e+00
    outer loop
      vertex   3.831230e+00 1.144326e+01 1.000000e+00
      vertex   0.000000e+00 8.200000e+01 1.000000e+00
      vertex   0.000000e+00 0.000000e+00 1.000000e+00
    endloop
  endfacet
  facet normal 0.000000e+00 -0.000000e+00 1.000000e+00
    outer loop
      vertex   3.831230e+00 1.144326e+01 1.000000e+00
      vertex   4.171097e+00 1.193564e+01 1.000000e+00
      vertex   0.000000e+00 8.200000e+01 1.000000e+00
    endloop
  endfacet
  facet normal -0.000000e+00 0.000000e+00 1.000000e+00
    outer loop
      vertex   5.299145e+00 1.221368e+01 1.000000e+00
      vertex   5.828903e+00 1.193564e+01 1.000000e+00
      vertex   2.000000e+02 8.200000e+01 1.000000e+00
    endloop
  endfacet
  facet normal 0.000000e+00 0.000000e+00 1.000000e+00
    outer loop
      vertex   2.000000e+02 8.200000e+01 1.000000e+00
      vertex   0.000000e+00 8.200000e+01 1.000000e+00
      vertex   5.299145e+00 1.221368e+01 1.000000e+00
    endloop
  endfacet
  facet normal 0.000000e+00 0.000000e+00 1.000000e+00
    outer loop
      vertex   0.000000e+00 8.200000e+01 1.000000e+00
      vertex   4.700855e+00 1.221368e+01 1.000000e+00
      vertex   5.299145e+00 1.221368e+01 1.000000e+00
    endloop
  endfacet
  facet normal 0.000000e+00 0.000000e+00 1.000000e+00
    outer loop
      vertex   0.000000e+00 8.200000e+01 1.000000e+00
      vertex   4.171097e+00 1.193564e+01 1.000000e+00
      vertex   4.700855e+00 1.221368e+01 1.000000e+00
    endloop
  endfacet
  facet normal 0.000000e+00 0.000000e+00 1.000000e+00
    outer loop
      vertex   1.441910e+01 9.893180e+00 1.000000e+00
      vertex   1.397127e+01 1.028992e+01 1.000000e+00
      vertex   6.240886e+00 1.084933e+01 1.000000e+00
    endloop
  endfacet
  facet normal 0.000000e+00 0.000000e+00 1.000000e+00
    outer loop
      vertex   6.240886e+00 1.084933e+01 1.000000e+00
      vertex   1.397127e+01 1.028992e+01 1.000000e+00
      vertex   1.375911e+01 1.084933e+01 1.000000e+00
    endloop
  endfacet
  facet normal 0.000000e+00 0.000000e+00 1.000000e+00
    outer loop
      vertex   6.168770e+00 1.144326e+01 1.000000e+00
      vertex   6.240886e+00 1.084933e+01 1.000000e+00
      vertex   1.375911e+01 1.084933e+01 1.000000e+00
    endloop
  endfacet
  facet normal 0.000000e+00 -0.000000e+00 1.000000e+00
    outer loop
      vertex   1.375911e+01 1.084933e+01 1.000000e+00
      vertex   1.383123e+01 1.144326e+01 1.000000e+00
      vertex   6.168770e+00 1.144326e+01 1.000000e+00
    endloop
  endfacet
  facet normal 0.000000e+00 0.000000e+00 1.000000e+00
    outer loop
      vertex   1.383123e+01 1.144326e+01 1.000000e+00
      vertex   5.828903e+00 1.193564e+01 1.000000e+00
      vertex   6.168770e+00 1.144326e+01 1.000000e+00
    endloop
  endfacet
  facet normal 0.000000e+00 0.000000e+00 1.000000e+00
    outer loop
      vertex   1.844191e+02 9.893180e+00 1.000000e+00
      vertex   1.839713e+02 1.028992e+01 1.000000e+00
      vertex   1.529914e+01 1.221368e+01 1.000000e+00
    endloop
  endfacet
  facet normal 0.000000e+00 0.000000e+00 1.000000e+00
    outer loop
      vertex   1.839713e+02 1.028992e+01 1.000000e+00
      vertex   1.837591e+02 1.084933e+01 1.000000e+00
      vertex   1.529914e+01 1.221368e+01 1.000000e+00
    endloop
  endfacet
  facet normal 0.000000e+00 0.000000e+00 1.000000e+00
    outer loop
      vertex   1.529914e+01 1.221368e+01 1.000000e+00
      vertex   1.837591e+02 1.084933e+01 1.000000e+00
      vertex   1.838312e+02 1.144326e+01 1.000000e+00
    endloop
  endfacet
  facet normal 0.000000e+00 0.000000e+00 1.000000e+00
    outer loop
      vertex   1.841711e+02 1.193564e+01 1.000000e+00
      vertex   1.847009e+02 1.221368e+01 1.000000e+00
      vertex   2.000000e+02 8.200000e+01 1.000000e+00
    endloop
  endfacet
  facet normal 0.000000e+00 0.000000e+00 1.000000e+00
    outer loop
      vertex   2.000000e+02 8.200000e+01 1.000000e+00
      vertex   1.847009e+02 1.221368e+01 1.000000e+00
      vertex   1.852991e+02 1.221368e+01 1.000000e+00
    endloop
  endfacet
  facet normal 0.000000e+00 0.000000e+00 1.000000e+00
    outer loop
      vertex   2.000000e+02 8.200000e+01 1.000000e+00
      vertex   1.852991e+02 1.221368e+01 1.000000e+00
      vertex   1.858289e+02 1.193564e+01 1.000000e+00
    endloop
  endfacet
  facet normal 0.000000e+00 0.000000e+00 1.000000e+00
    outer loop
      vertex   5.828903e+00 1.193564e+01 1.000000e+00
      vertex   1.383123e+01 1.144326e+01 1.000000e+00
      vertex   1.417110e+01 1.193564e+01 1.000000e+00
    endloop
  endfacet
  facet normal -0.000000e+00 0.000000e+00 1.000000e+00
    outer loop
      vertex   5.828903e+00 1.193564e+01 1.000000e+00
      vertex   1.417110e+01 1.193564e+01 1.000000e+00
      vertex   1.470086e+01 1.221368e+01 1.000000e+00
    endloop
  endfacet
  facet normal 0.000000e+00 0.000000e+00 1.000000e+00
    outer loop
      vertex   2.000000e+02 8.200000e+01 1.000000e+00
      vertex   5.828903e+00 1.193564e+01 1.000000e+00
      vertex   1.470086e+01 1.221368e+01 1.000000e+00
    endloop
  endfacet
  facet normal 0.000000e+00 0.000000e+00 1.000000e+00
    outer loop
      vertex   2.000000e+02 8.200000e+01 1.000000e+00
      vertex   1.470086e+01 1.221368e+01 1.000000e+00
      vertex   1.529914e+01 1.221368e+01 1.000000e+00
    endloop
  endfacet
  facet normal -0.000000e+00 0.000000e+00 1.000000e+00
    outer loop
      vertex   1.529914e+01 1.221368e+01 1.000000e+00
      vertex   1.841711e+02 1.193564e+01 1.000000e+00
      vertex   2.000000e+02 8.200000e+01 1.000000e+00
    endloop
  endfacet
  facet normal 0.000000e+00 -0.000000e+00 1.000000e+00
    outer loop
      vertex   1.838312e+02 1.144326e+01 1.000000e+00
      vertex   1.841711e+02 1.193564e+01 1.000000e+00
      vertex   1.529914e+01 1.221368e+01 1.000000e+00
    endloop
  endfacet
  facet normal 0.000000e+00 0.000000e+00 -1.000000e+00
    outer loop
      vertex   1.855809e+02 9.893180e+00 -1.000000e+00
      vertex   1.947009e+02 1.221368e+01 -1.000000e+00
      vertex   1.941711e+02 1.193564e+01 -1.000000e+00
    endloop
  endfacet
  facet normal 0.000000e+00 0.000000e+00 -1.000000e+00
    outer loop
      vertex   2.000000e+02 0.000000e+00 -1.000000e+00
      vertex   0.000000e+00 0.000000e+00 -1.000000e+00
      vertex   1.844191e+02 9.893180e+00 -1.000000e+00
    endloop
  endfacet
  facet normal 0.000000e+00 0.000000e+00 -1.000000e+00
    outer loop
      vertex   1.844191e+02 9.893180e+00 -1.000000e+00
      vertex   1.850000e+02 9.750000e+00 -1.000000e+00
      vertex   2.000000e+02 0.000000e+00 -1.000000e+00
    endloop
  endfacet
  facet normal 0.000000e+00 -0.000000e+00 -1.000000e+00
    outer loop
      vertex   1.944191e+02 9.893180e+00 -1.000000e+00
      vertex   2.000000e+02 0.000000e+00 -1.000000e+00
      vertex   1.850000e+02 9.750000e+00 -1.000000e+00
    endloop
  endfacet
  facet normal 0.000000e+00 0.000000e+00 -1.000000e+00
    outer loop
      vertex   1.855809e+02 9.893180e+00 -1.000000e+00
      vertex   1.941711e+02 1.193564e+01 -1.000000e+00
      vertex   1.938312e+02 1.144326e+01 -1.000000e+00
    endloop
  endfacet
  facet normal 0.000000e+00 0.000000e+00 -1.000000e+00
    outer loop
      vertex   1.855809e+02 9.893180e+00 -1.000000e+00
      vertex   1.938312e+02 1.144326e+01 -1.000000e+00
      vertex   1.937591e+02 1.084933e+01 -1.000000e+00
    endloop
  endfacet
  facet normal 0.000000e+00 0.000000e+00 -1.000000e+00
    outer loop
      vertex   1.937591e+02 1.084933e+01 -1.000000e+00
      vertex   1.850000e+02 9.750000e+00 -1.000000e+00
      vertex   1.855809e+02 9.893180e+00 -1.000000e+00
    endloop
  endfacet
  facet normal 0.000000e+00 0.000000e+00 -1.000000e+00
    outer loop
      vertex   1.850000e+02 9.750000e+00 -1.000000e+00
      vertex   1.937591e+02 1.084933e+01 -1.000000e+00
      vertex   1.939713e+02 1.028992e+01 -1.000000e+00
    endloop
  endfacet
  facet normal 0.000000e+00 0.000000e+00 -1.000000e+00
    outer loop
      vertex   1.850000e+02 9.750000e+00 -1.000000e+00
      vertex   1.939713e+02 1.028992e+01 -1.000000e+00
      vertex   1.944191e+02 9.893180e+00 -1.000000e+00
    endloop
  endfacet
  facet normal 0.000000e+00 0.000000e+00 -1.000000e+00
    outer loop
      vertex   1.944191e+02 9.893180e+00 -1.000000e+00
      vertex   1.950000e+02 9.750000e+00 -1.000000e+00
      vertex   2.000000e+02 0.000000e+00 -1.000000e+00
    endloop
  endfacet
  facet normal 0.000000e+00 0.000000e+00 -1.000000e+00
    outer loop
      vertex   2.000000e+02 0.000000e+00 -1.000000e+00
      vertex   1.950000e+02 9.750000e+00 -1.000000e+00
      vertex   1.955809e+02 9.893180e+00 -1.000000e+00
    endloop
  endfacet
  facet normal 0.000000e+00 0.000000e+00 -1.000000e+00
    outer loop
      vertex   2.000000e+02 0.000000e+00 -1.000000e+00
      vertex   1.955809e+02 9.893180e+00 -1.000000e+00
      vertex   1.960287e+02 1.028992e+01 -1.000000e+00
    endloop
  endfacet
  facet normal 0.000000e+00 0.000000e+00 -1.000000e+00
    outer loop
      vertex   0.000000e+00 0.000000e+00 -1.000000e+00
      vertex   3.971270e+00 1.028992e+01 -1.000000e+00
      vertex   4.419096e+00 9.893180e+00 -1.000000e+00
    endloop
  endfacet
  facet normal 0.000000e+00 0.000000e+00 -1.000000e+00
    outer loop
      vertex   0.000000e+00 0.000000e+00 -1.000000e+00
      vertex   4.419096e+00 9.893180e+00 -1.000000e+00
      vertex   5.000000e+00 9.750000e+00 -1.000000e+00
    endloop
  endfacet
  facet normal 0.000000e+00 0.000000e+00 -1.000000e+00
    outer loop
      vertex   1.958289e+02 1.193564e+01 -1.000000e+00
      vertex   1.952991e+02 1.221368e+01 -1.000000e+00
      vertex   2.000000e+02 8.200000e+01 -1.000000e+00
    endloop
  endfacet
  facet normal 0.000000e+00 0.000000e+00 -1.000000e+00
    outer loop
      vertex   2.000000e+02 8.200000e+01 -1.000000e+00
      vertex   1.952991e+02 1.221368e+01 -1.000000e+00
      vertex   1.947009e+02 1.221368e+01 -1.000000e+00
    endloop
  endfacet
  facet normal 0.000000e+00 0.000000e+00 -1.000000e+00
    outer loop
      vertex   1.417110e+01 1.193564e+01 -1.000000e+00
      vertex   1.383123e+01 1.144326e+01 -1.000000e+00
      vertex   5.580904e+00 9.893180e+00 -1.000000e+00
    endloop
  endfacet
  facet normal 0.000000e+00 0.000000e+00 -1.000000e+00
    outer loop
      vertex   5.580904e+00 9.893180e+00 -1.000000e+00
      vertex   1.383123e+01 1.144326e+01 -1.000000e+00
      vertex   1.375911e+01 1.084933e+01 -1.000000e+00
    endloop
  endfacet
  facet normal 0.000000e+00 0.000000e+00 -1.000000e+00
    outer loop
      vertex   1.375911e+01 1.084933e+01 -1.000000e+00
      vertex   5.000000e+00 9.750000e+00 -1.000000e+00
      vertex   5.580904e+00 9.893180e+00 -1.000000e+00
    endloop
  endfacet
  facet normal 0.000000e+00 0.000000e+00 -1.000000e+00
    outer loop
      vertex   5.000000e+00 9.750000e+00 -1.000000e+00
      vertex   1.375911e+01 1.084933e+01 -1.000000e+00
      vertex   1.397127e+01 1.028992e+01 -1.000000e+00
    endloop
  endfacet
  facet normal 0.000000e+00 0.000000e+00 -1.000000e+00
    outer loop
      vertex   1.397127e+01 1.028992e+01 -1.000000e+00
      vertex   0.000000e+00 0.000000e+00 -1.000000e+00
      vertex   5.000000e+00 9.750000e+00 -1.000000e+00
    endloop
  endfacet
  facet normal 0.000000e+00 0.000000e+00 -1.000000e+00
    outer loop
      vertex   0.000000e+00 0.000000e+00 -1.000000e+00
      vertex   1.397127e+01 1.028992e+01 -1.000000e+00
      vertex   1.441910e+01 9.893180e+00 -1.000000e+00
    endloop
  endfacet
  facet normal 0.000000e+00 -0.000000e+00 -1.000000e+00
    outer loop
      vertex   1.441910e+01 9.893180e+00 -1.000000e+00
      vertex   1.500000e+01 9.750000e+00 -1.000000e+00
      vertex   0.000000e+00 0.000000e+00 -1.000000e+00
    endloop
  endfacet
  facet normal 0.000000e+00 0.000000e+00 -1.000000e+00
    outer loop
      vertex   0.000000e+00 0.000000e+00 -1.000000e+00
      vertex   1.500000e+01 9.750000e+00 -1.000000e+00
      vertex   1.558090e+01 9.893180e+00 -1.000000e+00
    endloop
  endfacet
  facet normal 0.000000e+00 0.000000e+00 -1.000000e+00
    outer loop
      vertex   2.000000e+02 8.200000e+01 -1.000000e+00
      vertex   5.580904e+00 9.893180e+00 -1.000000e+00
      vertex   6.028730e+00 1.028992e+01 -1.000000e+00
    endloop
  endfacet
  facet normal 0.000000e+00 0.000000e+00 -1.000000e+00
    outer loop
      vertex   2.000000e+02 8.200000e+01 -1.000000e+00
      vertex   6.028730e+00 1.028992e+01 -1.000000e+00
      vertex   6.240886e+00 1.084933e+01 -1.000000e+00
    endloop
  endfacet
  facet normal 0.000000e+00 0.000000e+00 -1.000000e+00
    outer loop
      vertex   0.000000e+00 8.200000e+01 -1.000000e+00
      vertex   2.000000e+02 8.200000e+01 -1.000000e+00
      vertex   5.828903e+00 1.193564e+01 -1.000000e+00
    endloop
  endfacet
  facet normal 0.000000e+00 0.000000e+00 -1.000000e+00
    outer loop
      vertex   5.828903e+00 1.193564e+01 -1.000000e+00
      vertex   5.299145e+00 1.221368e+01 -1.000000e+00
      vertex   0.000000e+00 8.200000e+01 -1.000000e+00
    endloop
  endfacet
  facet normal 0.000000e+00 0.000000e+00 -1.000000e+00
    outer loop
      vertex   5.299145e+00 1.221368e+01 -1.000000e+00
      vertex   4.700855e+00 1.221368e+01 -1.000000e+00
      vertex   0.000000e+00 8.200000e+01 -1.000000e+00
    endloop
  endfacet
  facet normal 0.000000e+00 0.000000e+00 -1.000000e+00
    outer loop
      vertex   2.000000e+02 0.000000e+00 -1.000000e+00
      vertex   1.960287e+02 1.028992e+01 -1.000000e+00
      vertex   1.962409e+02 1.084933e+01 -1.000000e+00
    endloop
  endfacet
  facet normal 0.000000e+00 0.000000e+00 -1.000000e+00
    outer loop
      vertex   2.000000e+02 0.000000e+00 -1.000000e+00
      vertex   1.962409e+02 1.084933e+01 -1.000000e+00
      vertex   1.962500e+02 1.100000e+01 -1.000000e+00
    endloop
  endfacet
  facet normal 0.000000e+00 0.000000e+00 -1.000000e+00
    outer loop
      vertex   1.962500e+02 1.100000e+01 -1.000000e+00
      vertex   2.000000e+02 8.200000e+01 -1.000000e+00
      vertex   2.000000e+02 0.000000e+00 -1.000000e+00
    endloop
  endfacet
  facet normal 0.000000e+00 0.000000e+00 -1.000000e+00
    outer loop
      vertex   1.962500e+02 1.100000e+01 -1.000000e+00
      vertex   1.961688e+02 1.144326e+01 -1.000000e+00
      vertex   2.000000e+02 8.200000e+01 -1.000000e+00
    endloop
  endfacet
  facet normal 0.000000e+00 0.000000e+00 -1.000000e+00
    outer loop
      vertex   1.961688e+02 1.144326e+01 -1.000000e+00
      vertex   1.958289e+02 1.193564e+01 -1.000000e+00
      vertex   2.000000e+02 8.200000e+01 -1.000000e+00
    endloop
  endfacet
  facet normal 0.000000e+00 0.000000e+00 -1.000000e+00
    outer loop
      vertex   1.947009e+02 1.221368e+01 -1.000000e+00
      vertex   1.855809e+02 9.893180e+00 -1.000000e+00
      vertex   1.860287e+02 1.028992e+01 -1.000000e+00
    endloop
  endfacet
  facet normal 0.000000e+00 0.000000e+00 -1.000000e+00
    outer loop
      vertex   1.947009e+02 1.221368e+01 -1.000000e+00
      vertex   1.860287e+02 1.028992e+01 -1.000000e+00
      vertex   1.862409e+02 1.084933e+01 -1.000000e+00
    endloop
  endfacet
  facet normal 0.000000e+00 0.000000e+00 -1.000000e+00
    outer loop
      vertex   1.947009e+02 1.221368e+01 -1.000000e+00
      vertex   1.862409e+02 1.084933e+01 -1.000000e+00
      vertex   1.862500e+02 1.100000e+01 -1.000000e+00
    endloop
  endfacet
  facet normal 0.000000e+00 0.000000e+00 -1.000000e+00
    outer loop
      vertex   1.862500e+02 1.100000e+01 -1.000000e+00
      vertex   1.861688e+02 1.144326e+01 -1.000000e+00
      vertex   1.947009e+02 1.221368e+01 -1.000000e+00
    endloop
  endfacet
  facet normal 0.000000e+00 0.000000e+00 -1.000000e+00
    outer loop
      vertex   1.947009e+02 1.221368e+01 -1.000000e+00
      vertex   1.861688e+02 1.144326e+01 -1.000000e+00
      vertex   1.858289e+02 1.193564e+01 -1.000000e+00
    endloop
  endfacet
  facet normal 0.000000e+00 0.000000e+00 -1.000000e+00
    outer loop
      vertex   1.858289e+02 1.193564e+01 -1.000000e+00
      vertex   2.000000e+02 8.200000e+01 -1.000000e+00
      vertex   1.947009e+02 1.221368e+01 -1.000000e+00
    endloop
  endfacet
  facet normal 0.000000e+00 0.000000e+00 -1.000000e+00
    outer loop
      vertex   1.858289e+02 1.193564e+01 -1.000000e+00
      vertex   1.852991e+02 1.221368e+01 -1.000000e+00
      vertex   2.000000e+02 8.200000e+01 -1.000000e+00
    endloop
  endfacet
  facet normal 0.000000e+00 0.000000e+00 -1.000000e+00
    outer loop
      vertex   1.852991e+02 1.221368e+01 -1.000000e+00
      vertex   1.847009e+02 1.221368e+01 -1.000000e+00
      vertex   2.000000e+02 8.200000e+01 -1.000000e+00
    endloop
  endfacet
  facet normal 0.000000e+00 0.000000e+00 -1.000000e+00
    outer loop
      vertex   5.580904e+00 9.893180e+00 -1.000000e+00
      vertex   1.470086e+01 1.221368e+01 -1.000000e+00
      vertex   1.417110e+01 1.193564e+01 -1.000000e+00
    endloop
  endfacet
  facet normal -0.000000e+00 0.000000e+00 -1.000000e+00
    outer loop
      vertex   1.470086e+01 1.221368e+01 -1.000000e+00
      vertex   5.580904e+00 9.893180e+00 -1.000000e+00
      vertex   2.000000e+02 8.200000e+01 -1.000000e+00
    endloop
  endfacet
  facet normal 0.000000e+00 0.000000e+00 -1.000000e+00
    outer loop
      vertex   2.000000e+02 8.200000e+01 -1.000000e+00
      vertex   1.529914e+01 1.221368e+01 -1.000000e+00
      vertex   1.470086e+01 1.221368e+01 -1.000000e+00
    endloop
  endfacet
  facet normal 0.000000e+00 0.000000e+00 -1.000000e+00
    outer loop
      vertex   2.000000e+02 8.200000e+01 -1.000000e+00
      vertex   6.240886e+00 1.084933e+01 -1.000000e+00
      vertex   6.250000e+00 1.100000e+01 -1.000000e+00
    endloop
  endfacet
  facet normal 0.000000e+00 0.000000e+00 -1.000000e+00
    outer loop
      vertex   6.250000e+00 1.100000e+01 -1.000000e+00
      vertex   6.168770e+00 1.144326e+01 -1.000000e+00
      vertex   2.000000e+02 8.200000e+01 -1.000000e+00
    endloop
  endfacet
  facet normal 0.000000e+00 0.000000e+00 -1.000000e+00
    outer loop
      vertex   6.168770e+00 1.144326e+01 -1.000000e+00
      vertex   5.828903e+00 1.193564e+01 -1.000000e+00
      vertex   2.000000e+02 8.200000e+01 -1.000000e+00
    endloop
  endfacet
  facet normal 0.000000e+00 0.000000e+00 -1.000000e+00
    outer loop
      vertex   0.000000e+00 8.200000e+01 -1.000000e+00
      vertex   4.700855e+00 1.221368e+01 -1.000000e+00
      vertex   4.171097e+00 1.193564e+01 -1.000000e+00
    endloop
  endfacet
  facet normal 0.000000e+00 0.000000e+00 -1.000000e+00
    outer loop
      vertex   0.000000e+00 8.200000e+01 -1.000000e+00
      vertex   4.171097e+00 1.193564e+01 -1.000000e+00
      vertex   3.831230e+00 1.144326e+01 -1.000000e+00
    endloop
  endfacet
  facet normal 0.000000e+00 0.000000e+00 -1.000000e+00
    outer loop
      vertex   0.000000e+00 0.000000e+00 -1.000000e+00
      vertex   0.000000e+00 8.200000e+01 -1.000000e+00
      vertex   3.831230e+00 1.144326e+01 -1.000000e+00
    endloop
  endfacet
  facet normal 0.000000e+00 0.000000e+00 -1.000000e+00
    outer loop
      vertex   3.831230e+00 1.144326e+01 -1.000000e+00
      vertex   3.759114e+00 1.084933e+01 -1.000000e+00
      vertex   0.000000e+00 0.000000e+00 -1.000000e+00
    endloop
  endfacet
  facet normal 0.000000e+00 0.000000e+00 -1.000000e+00
    outer loop
      vertex   0.000000e+00 0.000000e+00 -1.000000e+00
      vertex   3.759114e+00 1.084933e+01 -1.000000e+00
      vertex   3.971270e+00 1.028992e+01 -1.000000e+00
    endloop
  endfacet
  facet normal 0.000000e+00 0.000000e+00 -1.000000e+00
    outer loop
      vertex   1.847009e+02 1.221368e+01 -1.000000e+00
      vertex   1.841711e+02 1.193564e+01 -1.000000e+00
      vertex   1.602873e+01 1.028992e+01 -1.000000e+00
    endloop
  endfacet
  facet normal 0.000000e+00 0.000000e+00 -1.000000e+00
    outer loop
      vertex   1.558090e+01 9.893180e+00 -1.000000e+00
      vertex   1.602873e+01 1.028992e+01 -1.000000e+00
      vertex   1.841711e+02 1.193564e+01 -1.000000e+00
    endloop
  endfacet
  facet normal 0.000000e+00 0.000000e+00 -1.000000e+00
    outer loop
      vertex   1.625000e+01 1.100000e+01 -1.000000e+00
      vertex   1.616877e+01 1.144326e+01 -1.000000e+00
      vertex   2.000000e+02 8.200000e+01 -1.000000e+00
    endloop
  endfacet
  facet normal 0.000000e+00 0.000000e+00 -1.000000e+00
    outer loop
      vertex   1.616877e+01 1.144326e+01 -1.000000e+00
      vertex   1.582890e+01 1.193564e+01 -1.000000e+00
      vertex   2.000000e+02 8.200000e+01 -1.000000e+00
    endloop
  endfacet
  facet normal 0.000000e+00 0.000000e+00 -1.000000e+00
    outer loop
      vertex   2.000000e+02 8.200000e+01 -1.000000e+00
      vertex   1.582890e+01 1.193564e+01 -1.000000e+00
      vertex   1.529914e+01 1.221368e+01 -1.000000e+00
    endloop
  endfacet
  facet normal 0.000000e+00 0.000000e+00 -1.000000e+00
    outer loop
      vertex   1.841711e+02 1.193564e+01 -1.000000e+00
      vertex   1.838312e+02 1.144326e+01 -1.000000e+00
      vertex   1.558090e+01 9.893180e+00 -1.000000e+00
    endloop
  endfacet
  facet normal 0.000000e+00 0.000000e+00 -1.000000e+00
    outer loop
      vertex   1.838312e+02 1.144326e+01 -1.000000e+00
      vertex   1.837591e+02 1.084933e+01 -1.000000e+00
      vertex   1.558090e+01 9.893180e+00 -1.000000e+00
    endloop
  endfacet
  facet normal 0.000000e+00 -0.000000e+00 -1.000000e+00
    outer loop
      vertex   1.558090e+01 9.893180e+00 -1.000000e+00
      vertex   1.837591e+02 1.084933e+01 -1.000000e+00
      vertex   0.000000e+00 0.000000e+00 -1.000000e+00
    endloop
  endfacet
  facet normal 0.000000e+00 0.000000e+00 -1.000000e+00
    outer loop
      vertex   0.000000e+00 0.000000e+00 -1.000000e+00
      vertex   1.837591e+02 1.084933e+01 -1.000000e+00
      vertex   1.839713e+02 1.028992e+01 -1.000000e+00
    endloop
  endfacet
  facet normal 0.000000e+00 -0.000000e+00 -1.000000e+00
    outer loop
      vertex   1.839713e+02 1.028992e+01 -1.000000e+00
      vertex   1.844191e+02 9.893180e+00 -1.000000e+00
      vertex   0.000000e+00 0.000000e+00 -1.000000e+00
    endloop
  endfacet
  facet normal 0.000000e+00 0.000000e+00 -1.000000e+00
    outer loop
      vertex   1.602873e+01 1.028992e+01 -1.000000e+00
      vertex   2.000000e+02 8.200000e+01 -1.000000e+00
      vertex   1.847009e+02 1.221368e+01 -1.000000e+00
    endloop
  endfacet
  facet normal 0.000000e+00 0.000000e+00 -1.000000e+00
    outer loop
      vertex   2.000000e+02 8.200000e+01 -1.000000e+00
      vertex   1.602873e+01 1.028992e+01 -1.000000e+00
      vertex   1.624089e+01 1.084933e+01 -1.000000e+00
    endloop
  endfacet
  facet normal 0.000000e+00 0.000000e+00 -1.000000e+00
    outer loop
      vertex   2.000000e+02 8.200000e+01 -1.000000e+00
      vertex   1.624089e+01 1.084933e+01 -1.000000e+00
      vertex   1.625000e+01 1.100000e+01 -1.000000e+00
    endloop
  endfacet
  facet normal 1.000000e+00 0.000000e+00 -0.000000e+00
    outer loop
      vertex   2.000000e+02 8.200000e+01 -1.000000e+00
      vertex   2.000000e+02 8.200000e+01 1.000000e+00
      vertex   2.000000e+02 0.000000e+00 1.000000e+00
    endloop
  endfacet
  facet normal 1.000000e+00 0.000000e+00 0.000000e+00
    outer loop
      vertex   2.000000e+02 0.000000e+00 1.000000e+00
      vertex   2.000000e+02 0.000000e+00 -1.000000e+00
      vertex   2.000000e+02 8.200000e+01 -1.000000e+00
    endloop
  endfacet
  facet normal 0.000000e+00 1.000000e+00 0.000000e+00
    outer loop
      vertex   0.000000e+00 8.200000e+01 -1.000000e+00
      vertex   0.000000e+00 8.200000e+01 1.000000e+00
      vertex   2.000000e+02 8.200000e+01 1.000000e+00
    endloop
  endfacet
  facet normal 0.000000e+00 1.000000e+00 0.000000e+00
    outer loop
      vertex   2.000000e+02 8.200000e+01 1.000000e+00
      vertex   2.000000e+02 8.200000e+01 -1.000000e+00
      vertex   0.000000e+00 8.200000e+01 -1.000000e+00
    endloop
  endfacet
  facet normal -1.000000e+00 0.000000e+00 0.000000e+00
    outer loop
      vertex   0.000000e+00 0.000000e+00 -1.000000e+00
      vertex   0.000000e+00 0.000000e+00 1.000000e+00
      vertex   0.000000e+00 8.200000e+01 1.000000e+00
    endloop
  endfacet
  facet normal -1.000000e+00 0.000000e+00 -0.000000e+00
    outer loop
      vertex   0.000000e+00 8.200000e+01 1.000000e+00
      vertex   0.000000e+00 8.200000e+01 -1.000000e+00
      vertex   0.000000e+00 0.000000e+00 -1.000000e+00
    endloop
  endfacet
  facet normal 0.000000e+00 -1.000000e+00 0.000000e+00
    outer loop
      vertex   2.000000e+02 0.000000e+00 -1.000000e+00
      vertex   2.000000e+02 0.000000e+00 1.000000e+00
      vertex   0.000000e+00 0.000000e+00 1.000000e+00
    endloop
  endfacet
  facet normal 0.000000e+00 -1.000000e+00 0.000000e+00
    outer loop
      vertex   0.000000e+00 0.000000e+00 1.000000e+00
      vertex   0.000000e+00 0.000000e+00 -1.000000e+00
      vertex   2.000000e+02 0.000000e+00 -1.000000e+00
    endloop
  endfacet
  facet normal -8.229839e-01 -5.680647e-01 0.000000e+00
    outer loop
      vertex   1.958289e+02 1.193564e+01 -1.000000e+00
      vertex   1.961688e+02 1.144326e+01 -1.000000e+00
      vertex   1.961688e+02 1.144326e+01 1.000000e+00
    endloop
  endfacet
  facet normal -9.836199e-01 -1.802550e-01 -0.000000e+00
    outer loop
      vertex   1.961688e+02 1.144326e+01 1.000000e+00
      vertex   1.961688e+02 1.144326e+01 -1.000000e+00
      vertex   1.962500e+02 1.100000e+01 -1.000000e+00
    endloop
  endfacet
  facet normal -9.926170e-01 -1.205255e-01 -1.360315e-02
    outer loop
      vertex   1.962500e+02 1.100000e+01 -1.000000e+00
      vertex   1.962409e+02 1.084933e+01 1.000000e+00
      vertex   1.961688e+02 1.144326e+01 1.000000e+00
    endloop
  endfacet
  facet normal -9.981756e-01 6.037850e-02 0.000000e+00
    outer loop
      vertex   1.962500e+02 1.100000e+01 -1.000000e+00
      vertex   1.962409e+02 1.084933e+01 -1.000000e+00
      vertex   1.962409e+02 1.084933e+01 1.000000e+00
    endloop
  endfacet
  facet normal -9.350162e-01 3.546049e-01 -1.448543e-17
    outer loop
      vertex   1.960287e+02 1.028992e+01 1.000000e+00
      vertex   1.962409e+02 1.084933e+01 1.000000e+00
      vertex   1.962409e+02 1.084933e+01 -1.000000e+00
    endloop
  endfacet
  facet normal -9.350162e-01 3.546049e-01 -1.448543e-17
    outer loop
      vertex   1.962409e+02 1.084933e+01 -1.000000e+00
      vertex   1.960287e+02 1.028992e+01 -1.000000e+00
      vertex   1.960287e+02 1.028992e+01 1.000000e+00
    endloop
  endfacet
  facet normal -6.631227e-01 7.485107e-01 0.000000e+00
    outer loop
      vertex   1.955809e+02 9.893180e+00 1.000000e+00
      vertex   1.960287e+02 1.028992e+01 1.000000e+00
      vertex   1.960287e+02 1.028992e+01 -1.000000e+00
    endloop
  endfacet
  facet normal -6.631227e-01 7.485107e-01 0.000000e+00
    outer loop
      vertex   1.960287e+02 1.028992e+01 -1.000000e+00
      vertex   1.955809e+02 9.893180e+00 -1.000000e+00
      vertex   1.955809e+02 9.893180e+00 1.000000e+00
    endloop
  endfacet
  facet normal -2.393157e-01 9.709418e-01 0.000000e+00
    outer loop
      vertex   1.950000e+02 9.750000e+00 1.000000e+00
      vertex   1.955809e+02 9.893180e+00 1.000000e+00
      vertex   1.955809e+02 9.893180e+00 -1.000000e+00
    endloop
  endfacet
  facet normal -2.393157e-01 9.709418e-01 0.000000e+00
    outer loop
      vertex   1.955809e+02 9.893180e+00 -1.000000e+00
      vertex   1.950000e+02 9.750000e+00 -1.000000e+00
      vertex   1.950000e+02 9.750000e+00 1.000000e+00
    endloop
  endfacet
  facet normal 2.393157e-01 9.709418e-01 0.000000e+00
    outer loop
      vertex   1.944191e+02 9.893180e+00 1.000000e+00
      vertex   1.950000e+02 9.750000e+00 1.000000e+00
      vertex   1.950000e+02 9.750000e+00 -1.000000e+00
    endloop
  endfacet
  facet normal 2.393157e-01 9.709418e-01 0.000000e+00
    outer loop
      vertex   1.950000e+02 9.750000e+00 -1.000000e+00
      vertex   1.944191e+02 9.893180e+00 -1.000000e+00
      vertex   1.944191e+02 9.893180e+00 1.000000e+00
    endloop
  endfacet
  facet normal 6.631227e-01 7.485107e-01 0.000000e+00
    outer loop
      vertex   1.939713e+02 1.028992e+01 1.000000e+00
      vertex   1.944191e+02 9.893180e+00 1.000000e+00
      vertex   1.944191e+02 9.893180e+00 -1.000000e+00
    endloop
  endfacet
  facet normal 6.631227e-01 7.485107e-01 0.000000e+00
    outer loop
      vertex   1.944191e+02 9.893180e+00 -1.000000e+00
      vertex   1.939713e+02 1.028992e+01 -1.000000e+00
      vertex   1.939713e+02 1.028992e+01 1.000000e+00
    endloop
  endfacet
  facet normal 9.350162e-01 3.546049e-01 0.000000e+00
    outer loop
      vertex   1.937591e+02 1.084933e+01 1.000000e+00
      vertex   1.939713e+02 1.028992e+01 1.000000e+00
      vertex   1.939713e+02 1.028992e+01 -1.000000e+00
    endloop
  endfacet
  facet normal 9.350162e-01 3.546049e-01 0.000000e+00
    outer loop
      vertex   1.939713e+02 1.028992e+01 -1.000000e+00
      vertex   1.937591e+02 1.084933e+01 -1.000000e+00
      vertex   1.937591e+02 1.084933e+01 1.000000e+00
    endloop
  endfacet
  facet normal 9.927089e-01 -1.205367e-01 0.000000e+00
    outer loop
      vertex   1.938312e+02 1.144326e+01 1.000000e+00
      vertex   1.937591e+02 1.084933e+01 1.000000e+00
      vertex   1.937591e+02 1.084933e+01 -1.000000e+00
    endloop
  endfacet
  facet normal 9.927089e-01 -1.205367e-01 0.000000e+00
    outer loop
      vertex   1.937591e+02 1.084933e+01 -1.000000e+00
      vertex   1.938312e+02 1.144326e+01 -1.000000e+00
      vertex   1.938312e+02 1.144326e+01 1.000000e+00
    endloop
  endfacet
  facet normal 8.229839e-01 -5.680647e-01 0.000000e+00
    outer loop
      vertex   1.941711e+02 1.193564e+01 1.000000e+00
      vertex   1.938312e+02 1.144326e+01 1.000000e+00
      vertex   1.938312e+02 1.144326e+01 -1.000000e+00
    endloop
  endfacet
  facet normal 8.229839e-01 -5.680647e-01 0.000000e+00
    outer loop
      vertex   1.938312e+02 1.144326e+01 -1.000000e+00
      vertex   1.941711e+02 1.193564e+01 -1.000000e+00
      vertex   1.941711e+02 1.193564e+01 1.000000e+00
    endloop
  endfacet
  facet normal 4.647232e-01 -8.854560e-01 0.000000e+00
    outer loop
      vertex   1.947009e+02 1.221368e+01 1.000000e+00
      vertex   1.941711e+02 1.193564e+01 1.000000e+00
      vertex   1.941711e+02 1.193564e+01 -1.000000e+00
    endloop
  endfacet
  facet normal 4.647232e-01 -8.854560e-01 0.000000e+00
    outer loop
      vertex   1.941711e+02 1.193564e+01 -1.000000e+00
      vertex   1.947009e+02 1.221368e+01 -1.000000e+00
      vertex   1.947009e+02 1.221368e+01 1.000000e+00
    endloop
  endfacet
  facet normal -0.000000e+00 -1.000000e+00 0.000000e+00
    outer loop
      vertex   1.952991e+02 1.221368e+01 1.000000e+00
      vertex   1.947009e+02 1.221368e+01 1.000000e+00
      vertex   1.947009e+02 1.221368e+01 -1.000000e+00
    endloop
  endfacet
  facet normal 0.000000e+00 -1.000000e+00 0.000000e+00
    outer loop
      vertex   1.947009e+02 1.221368e+01 -1.000000e+00
      vertex   1.952991e+02 1.221368e+01 -1.000000e+00
      vertex   1.952991e+02 1.221368e+01 1.000000e+00
    endloop
  endfacet
  facet normal -4.647232e-01 -8.854560e-01 1.448543e-17
    outer loop
      vertex   1.958289e+02 1.193564e+01 1.000000e+00
      vertex   1.952991e+02 1.221368e+01 1.000000e+00
      vertex   1.952991e+02 1.221368e+01 -1.000000e+00
    endloop
  endfacet
  facet normal -4.647232e-01 -8.854560e-01 1.448543e-17
    outer loop
      vertex   1.952991e+02 1.221368e+01 -1.000000e+00
      vertex   1.958289e+02 1.193564e+01 -1.000000e+00
      vertex   1.958289e+02 1.193564e+01 1.000000e+00
    endloop
  endfacet
  facet normal -8.229839e-01 -5.680647e-01 0.000000e+00
    outer loop
      vertex   1.961688e+02 1.144326e+01 1.000000e+00
      vertex   1.958289e+02 1.193564e+01 1.000000e+00
      vertex   1.958289e+02 1.193564e+01 -1.000000e+00
    endloop
  endfacet
  facet normal -8.229839e-01 -5.680647e-01 0.000000e+00
    outer loop
      vertex   1.582890e+01 1.193564e+01 -1.000000e+00
      vertex   1.616877e+01 1.144326e+01 -1.000000e+00
      vertex   1.616877e+01 1.144326e+01 1.000000e+00
    endloop
  endfacet
  facet normal -9.836199e-01 -1.802550e-01 -0.000000e+00
    outer loop
      vertex   1.616877e+01 1.144326e+01 1.000000e+00
      vertex   1.616877e+01 1.144326e+01 -1.000000e+00
      vertex   1.625000e+01 1.100000e+01 -1.000000e+00
    endloop
  endfacet
  facet normal -9.926170e-01 -1.205255e-01 -1.360315e-02
    outer loop
      vertex   1.625000e+01 1.100000e+01 -1.000000e+00
      vertex   1.624089e+01 1.084933e+01 1.000000e+00
      vertex   1.616877e+01 1.144326e+01 1.000000e+00
    endloop
  endfacet
  facet normal -9.981756e-01 6.037850e-02 0.000000e+00
    outer loop
      vertex   1.625000e+01 1.100000e+01 -1.000000e+00
      vertex   1.624089e+01 1.084933e+01 -1.000000e+00
      vertex   1.624089e+01 1.084933e+01 1.000000e+00
    endloop
  endfacet
  facet normal -9.350162e-01 3.546049e-01 -1.448543e-17
    outer loop
      vertex   1.602873e+01 1.028992e+01 1.000000e+00
      vertex   1.624089e+01 1.084933e+01 1.000000e+00
      vertex   1.624089e+01 1.084933e+01 -1.000000e+00
    endloop
  endfacet
  facet normal -9.350162e-01 3.546049e-01 -1.448543e-17
    outer loop
      vertex   1.624089e+01 1.084933e+01 -1.000000e+00
      vertex   1.602873e+01 1.028992e+01 -1.000000e+00
      vertex   1.602873e+01 1.028992e+01 1.000000e+00
    endloop
  endfacet
  facet normal -6.631227e-01 7.485107e-01 0.000000e+00
    outer loop
      vertex   1.558090e+01 9.893180e+00 1.000000e+00
      vertex   1.602873e+01 1.028992e+01 1.000000e+00
      vertex   1.602873e+01 1.028992e+01 -1.000000e+00
    endloop
  endfacet
  facet normal -6.631227e-01 7.485107e-01 0.000000e+00
    outer loop
      vertex   1.602873e+01 1.028992e+01 -1.000000e+00
      vertex   1.558090e+01 9.893180e+00 -1.000000e+00
      vertex   1.558090e+01 9.893180e+00 1.000000e+00
    endloop
  endfacet
  facet normal -2.393157e-01 9.709418e-01 1.448543e-17
    outer loop
      vertex   1.500000e+01 9.750000e+00 1.000000e+00
      vertex   1.558090e+01 9.893180e+00 1.000000e+00
      vertex   1.558090e+01 9.893180e+00 -1.000000e+00
    endloop
  endfacet
  facet normal -2.393157e-01 9.709418e-01 1.448543e-17
    outer loop
      vertex   1.558090e+01 9.893180e+00 -1.000000e+00
      vertex   1.500000e+01 9.750000e+00 -1.000000e+00
      vertex   1.500000e+01 9.750000e+00 1.000000e+00
    endloop
  endfacet
  facet normal 2.393157e-01 9.709418e-01 -1.448543e-17
    outer loop
      vertex   1.441910e+01 9.893180e+00 1.000000e+00
      vertex   1.500000e+01 9.750000e+00 1.000000e+00
      vertex   1.500000e+01 9.750000e+00 -1.000000e+00
    endloop
  endfacet
  facet normal 2.393157e-01 9.709418e-01 -1.448543e-17
    outer loop
      vertex   1.500000e+01 9.750000e+00 -1.000000e+00
      vertex   1.441910e+01 9.893180e+00 -1.000000e+00
      vertex   1.441910e+01 9.893180e+00 1.000000e+00
    endloop
  endfacet
  facet normal 6.631227e-01 7.485107e-01 2.897086e-17
    outer loop
      vertex   1.397127e+01 1.028992e+01 1.000000e+00
      vertex   1.441910e+01 9.893180e+00 1.000000e+00
      vertex   1.441910e+01 9.893180e+00 -1.000000e+00
    endloop
  endfacet
  facet normal 6.631227e-01 7.485107e-01 2.897086e-17
    outer loop
      vertex   1.441910e+01 9.893180e+00 -1.000000e+00
      vertex   1.397127e+01 1.028992e+01 -1.000000e+00
      vertex   1.397127e+01 1.028992e+01 1.000000e+00
    endloop
  endfacet
  facet normal 9.350162e-01 3.546049e-01 1.448543e-17
    outer loop
      vertex   1.375911e+01 1.084933e+01 1.000000e+00
      vertex   1.397127e+01 1.028992e+01 1.000000e+00
      vertex   1.397127e+01 1.028992e+01 -1.000000e+00
    endloop
  endfacet
  facet normal 9.350162e-01 3.546049e-01 1.448543e-17
    outer loop
      vertex   1.397127e+01 1.028992e+01 -1.000000e+00
      vertex   1.375911e+01 1.084933e+01 -1.000000e+00
      vertex   1.375911e+01 1.084933e+01 1.000000e+00
    endloop
  endfacet
  facet normal 9.927089e-01 -1.205367e-01 0.000000e+00
    outer loop
      vertex   1.383123e+01 1.144326e+01 1.000000e+00
      vertex   1.375911e+01 1.084933e+01 1.000000e+00
      vertex   1.375911e+01 1.084933e+01 -1.000000e+00
    endloop
  endfacet
  facet normal 9.927089e-01 -1.205367e-01 0.000000e+00
    outer loop
      vertex   1.375911e+01 1.084933e+01 -1.000000e+00
      vertex   1.383123e+01 1.144326e+01 -1.000000e+00
      vertex   1.383123e+01 1.144326e+01 1.000000e+00
    endloop
  endfacet
  facet normal 8.229839e-01 -5.680647e-01 0.000000e+00
    outer loop
      vertex   1.417110e+01 1.193564e+01 1.000000e+00
      vertex   1.383123e+01 1.144326e+01 1.000000e+00
      vertex   1.383123e+01 1.144326e+01 -1.000000e+00
    endloop
  endfacet
  facet normal 8.229839e-01 -5.680647e-01 0.000000e+00
    outer loop
      vertex   1.383123e+01 1.144326e+01 -1.000000e+00
      vertex   1.417110e+01 1.193564e+01 -1.000000e+00
      vertex   1.417110e+01 1.193564e+01 1.000000e+00
    endloop
  endfacet
  facet normal 4.647232e-01 -8.854560e-01 0.000000e+00
    outer loop
      vertex   1.470086e+01 1.221368e+01 1.000000e+00
      vertex   1.417110e+01 1.193564e+01 1.000000e+00
      vertex   1.417110e+01 1.193564e+01 -1.000000e+00
    endloop
  endfacet
  facet normal 4.647232e-01 -8.854560e-01 0.000000e+00
    outer loop
      vertex   1.417110e+01 1.193564e+01 -1.000000e+00
      vertex   1.470086e+01 1.221368e+01 -1.000000e+00
      vertex   1.470086e+01 1.221368e+01 1.000000e+00
    endloop
  endfacet
  facet normal -0.000000e+00 -1.000000e+00 0.000000e+00
    outer loop
      vertex   1.529914e+01 1.221368e+01 1.000000e+00
      vertex   1.470086e+01 1.221368e+01 1.000000e+00
      vertex   1.470086e+01 1.221368e+01 -1.000000e+00
    endloop
  endfacet
  facet normal 0.000000e+00 -1.000000e+00 0.000000e+00
    outer loop
      vertex   1.470086e+01 1.221368e+01 -1.000000e+00
      vertex   1.529914e+01 1.221368e+01 -1.000000e+00
      vertex   1.529914e+01 1.221368e+01 1.000000e+00
    endloop
  endfacet
  facet normal -4.647232e-01 -8.854560e-01 0.000000e+00
    outer loop
      vertex   1.582890e+01 1.193564e+01 1.000000e+00
      vertex   1.529914e+01 1.221368e+01 1.000000e+00
      vertex   1.529914e+01 1.221368e+01 -1.000000e+00
    endloop
  endfacet
  facet normal -4.647232e-01 -8.854560e-01 0.000000e+00
    outer loop
      vertex   1.529914e+01 1.221368e+01 -1.000000e+00
      vertex   1.582890e+01 1.193564e+01 -1.000000e+00
      vertex   1.582890e+01 1.193564e+01 1.000000e+00
    endloop
  endfacet
  facet normal -8.229839e-01 -5.680647e-01 0.000000e+00
    outer loop
      vertex   1.616877e+01 1.144326e+01 1.000000e+00
      vertex   1.582890e+01 1.193564e+01 1.000000e+00
      vertex   1.582890e+01 1.193564e+01 -1.000000e+00
    endloop
  endfacet
  facet normal -8.229839e-01 -5.680647e-01 0.000000e+00
    outer loop
      vertex   1.858289e+02 1.193564e+01 -1.000000e+00
      vertex   1.861688e+02 1.144326e+01 -1.000000e+00
      vertex   1.861688e+02 1.144326e+01 1.000000e+00
    endloop
  endfacet
  facet normal -9.836199e-01 -1.802550e-01 -0.000000e+00
    outer loop
      vertex   1.861688e+02 1.144326e+01 1.000000e+00
      vertex   1.861688e+02 1.144326e+01 -1.000000e+00
      vertex   1.862500e+02 1.100000e+01 -1.000000e+00
    endloop
  endfacet
  facet normal -9.926170e-01 -1.205255e-01 -1.360315e-02
    outer loop
      vertex   1.862500e+02 1.100000e+01 -1.000000e+00
      vertex   1.862409e+02 1.084933e+01 1.000000e+00
      vertex   1.861688e+02 1.144326e+01 1.000000e+00
    endloop
  endfacet
  facet normal -9.981756e-01 6.037850e-02 0.000000e+00
    outer loop
      vertex   1.862500e+02 1.100000e+01 -1.000000e+00
      vertex   1.862409e+02 1.084933e+01 -1.000000e+00
      vertex   1.862409e+02 1.084933e+01 1.000000e+00
    endloop
  endfacet
  facet normal -9.350162e-01 3.546049e-01 -1.448543e-17
    outer loop
      vertex   1.860287e+02 1.028992e+01 1.000000e+00
      vertex   1.862409e+02 1.084933e+01 1.000000e+00
      vertex   1.862409e+02 1.084933e+01 -1.000000e+00
    endloop
  endfacet
  facet normal -9.350162e-01 3.546049e-01 -1.448543e-17
    outer loop
      vertex   1.862409e+02 1.084933e+01 -1.000000e+00
      vertex   1.860287e+02 1.028992e+01 -1.000000e+00
      vertex   1.860287e+02 1.028992e+01 1.000000e+00
    endloop
  endfacet
  facet normal -6.631227e-01 7.485107e-01 0.000000e+00
    outer loop
      vertex   1.855809e+02 9.893180e+00 1.000000e+00
      vertex   1.860287e+02 1.028992e+01 1.000000e+00
      vertex   1.860287e+02 1.028992e+01 -1.000000e+00
    endloop
  endfacet
  facet normal -6.631227e-01 7.485107e-01 0.000000e+00
    outer loop
      vertex   1.860287e+02 1.028992e+01 -1.000000e+00
      vertex   1.855809e+02 9.893180e+00 -1.000000e+00
      vertex   1.855809e+02 9.893180e+00 1.000000e+00
    endloop
  endfacet
  facet normal -2.393157e-01 9.709418e-01 0.000000e+00
    outer loop
      vertex   1.850000e+02 9.750000e+00 1.000000e+00
      vertex   1.855809e+02 9.893180e+00 1.000000e+00
      vertex   1.855809e+02 9.893180e+00 -1.000000e+00
    endloop
  endfacet
  facet normal -2.393157e-01 9.709418e-01 0.000000e+00
    outer loop
      vertex   1.855809e+02 9.893180e+00 -1.000000e+00
      vertex   1.850000e+02 9.750000e+00 -1.000000e+00
      vertex   1.850000e+02 9.750000e+00 1.000000e+00
    endloop
  endfacet
  facet normal 2.393157e-01 9.709418e-01 0.000000e+00
    outer loop
      vertex   1.844191e+02 9.893180e+00 1.000000e+00
      vertex   1.850000e+02 9.750000e+00 1.000000e+00
      vertex   1.850000e+02 9.750000e+00 -1.000000e+00
    endloop
  endfacet
  facet normal 2.393157e-01 9.709418e-01 0.000000e+00
    outer loop
      vertex   1.850000e+02 9.750000e+00 -1.000000e+00
      vertex   1.844191e+02 9.893180e+00 -1.000000e+00
      vertex   1.844191e+02 9.893180e+00 1.000000e+00
    endloop
  endfacet
  facet normal 6.631227e-01 7.485107e-01 0.000000e+00
    outer loop
      vertex   1.839713e+02 1.028992e+01 1.000000e+00
      vertex   1.844191e+02 9.893180e+00 1.000000e+00
      vertex   1.844191e+02 9.893180e+00 -1.000000e+00
    endloop
  endfacet
  facet normal 6.631227e-01 7.485107e-01 0.000000e+00
    outer loop
      vertex   1.844191e+02 9.893180e+00 -1.000000e+00
      vertex   1.839713e+02 1.028992e+01 -1.000000e+00
      vertex   1.839713e+02 1.028992e+01 1.000000e+00
    endloop
  endfacet
  facet normal 9.350162e-01 3.546049e-01 0.000000e+00
    outer loop
      vertex   1.837591e+02 1.084933e+01 1.000000e+00
      vertex   1.839713e+02 1.028992e+01 1.000000e+00
      vertex   1.839713e+02 1.028992e+01 -1.000000e+00
    endloop
  endfacet
  facet normal 9.350162e-01 3.546049e-01 0.000000e+00
    outer loop
      vertex   1.839713e+02 1.028992e+01 -1.000000e+00
      vertex   1.837591e+02 1.084933e+01 -1.000000e+00
      vertex   1.837591e+02 1.084933e+01 1.000000e+00
    endloop
  endfacet
  facet normal 9.927089e-01 -1.205367e-01 0.000000e+00
    outer loop
      vertex   1.838312e+02 1.144326e+01 1.000000e+00
      vertex   1.837591e+02 1.084933e+01 1.000000e+00
      vertex   1.837591e+02 1.084933e+01 -1.000000e+00
    endloop
  endfacet
  facet normal 9.927089e-01 -1.205367e-01 0.000000e+00
    outer loop
      vertex   1.837591e+02 1.084933e+01 -1.000000e+00
      vertex   1.838312e+02 1.144326e+01 -1.000000e+00
      vertex   1.838312e+02 1.144326e+01 1.000000e+00
    endloop
  endfacet
  facet normal 8.229839e-01 -5.680647e-01 0.000000e+00
    outer loop
      vertex   1.841711e+02 1.193564e+01 1.000000e+00
      vertex   1.838312e+02 1.144326e+01 1.000000e+00
      vertex   1.838312e+02 1.144326e+01 -1.000000e+00
    endloop
  endfacet
  facet normal 8.229839e-01 -5.680647e-01 0.000000e+00
    outer loop
      vertex   1.838312e+02 1.144326e+01 -1.000000e+00
      vertex   1.841711e+02 1.193564e+01 -1.000000e+00
      vertex   1.841711e+02 1.193564e+01 1.000000e+00
    endloop
  endfacet
  facet normal 4.647232e-01 -8.854560e-01 0.000000e+00
    outer loop
      vertex   1.847009e+02 1.221368e+01 1.000000e+00
      vertex   1.841711e+02 1.193564e+01 1.000000e+00
      vertex   1.841711e+02 1.193564e+01 -1.000000e+00
    endloop
  endfacet
  facet normal 4.647232e-01 -8.854560e-01 0.000000e+00
    outer loop
      vertex   1.841711e+02 1.193564e+01 -1.000000e+00
      vertex   1.847009e+02 1.221368e+01 -1.000000e+00
      vertex   1.847009e+02 1.221368e+01 1.000000e+00
    endloop
  endfacet
  facet normal -0.000000e+00 -1.000000e+00 0.000000e+00
    outer loop
      vertex   1.852991e+02 1.221368e+01 1.000000e+00
      vertex   1.847009e+02 1.221368e+01 1.000000e+00
      vertex   1.847009e+02 1.221368e+01 -1.000000e+00
    endloop
  endfacet
  facet normal 0.000000e+00 -1.000000e+00 0.000000e+00
    outer loop
      vertex   1.847009e+02 1.221368e+01 -1.000000e+00
      vertex   1.852991e+02 1.221368e+01 -1.000000e+00
      vertex   1.852991e+02 1.221368e+01 1.000000e+00
    endloop
  endfacet
  facet normal -4.647232e-01 -8.854560e-01 1.448543e-17
    outer loop
      vertex   1.858289e+02 1.193564e+01 1.000000e+00
      vertex   1.852991e+02 1.221368e+01 1.000000e+00
      vertex   1.852991e+02 1.221368e+01 -1.000000e+00
    endloop
  endfacet
  facet normal -4.647232e-01 -8.854560e-01 1.448543e-17
    outer loop
      vertex   1.852991e+02 1.221368e+01 -1.000000e+00
      vertex   1.858289e+02 1.193564e+01 -1.000000e+00
      vertex   1.858289e+02 1.193564e+01 1.000000e+00
    endloop
  endfacet
  facet normal -8.229839e-01 -5.680647e-01 0.000000e+00
    outer loop
      vertex   1.861688e+02 1.144326e+01 1.000000e+00
      vertex   1.858289e+02 1.193564e+01 1.000000e+00
      vertex   1.858289e+02 1.193564e+01 -1.000000e+00
    endloop
  endfacet
endsolid
