solid ascii
  facet normal -8.229839e-01 -5.680647e-01 0.000000e+00
    outer loop
      vertex   5.828903e+00 8.935638e+00 0.000000e+00
      vertex   6.168770e+00 8.443256e+00 0.000000e+00
      vertex   6.168770e+00 8.443256e+00 2.000000e+00
    endloop
  endfacet
  facet normal -9.836199e-01 -1.802550e-01 -0.000000e+00
    outer loop
      vertex   6.168770e+00 8.443256e+00 2.000000e+00
      vertex   6.168770e+00 8.443256e+00 0.000000e+00
      vertex   6.250000e+00 8.000000e+00 0.000000e+00
    endloop
  endfacet
  facet normal -9.926170e-01 -1.205255e-01 -1.360315e-02
    outer loop
      vertex   6.250000e+00 8.000000e+00 0.000000e+00
      vertex   6.240886e+00 7.849329e+00 2.000000e+00
      vertex   6.168770e+00 8.443256e+00 2.000000e+00
    endloop
  endfacet
  facet normal -9.981756e-01 6.037850e-02 0.000000e+00
    outer loop
      vertex   6.250000e+00 8.000000e+00 0.000000e+00
      vertex   6.240886e+00 7.849329e+00 0.000000e+00
      vertex   6.240886e+00 7.849329e+00 2.000000e+00
    endloop
  endfacet
  facet normal -9.350162e-01 3.546049e-01 0.000000e+00
    outer loop
      vertex   6.028730e+00 7.289919e+00 2.000000e+00
      vertex   6.240886e+00 7.849329e+00 2.000000e+00
      vertex   6.240886e+00 7.849329e+00 0.000000e+00
    endloop
  endfacet
  facet normal -9.350162e-01 3.546049e-01 0.000000e+00
    outer loop
      vertex   6.240886e+00 7.849329e+00 0.000000e+00
      vertex   6.028730e+00 7.289919e+00 0.000000e+00
      vertex   6.028730e+00 7.289919e+00 2.000000e+00
    endloop
  endfacet
  facet normal -6.631227e-01 7.485107e-01 0.000000e+00
    outer loop
      vertex   5.580904e+00 6.893180e+00 2.000000e+00
      vertex   6.028730e+00 7.289919e+00 2.000000e+00
      vertex   6.028730e+00 7.289919e+00 0.000000e+00
    endloop
  endfacet
  facet normal -6.631227e-01 7.485107e-01 0.000000e+00
    outer loop
      vertex   6.028730e+00 7.289919e+00 0.000000e+00
      vertex   5.580904e+00 6.893180e+00 0.000000e+00
      vertex   5.580904e+00 6.893180e+00 2.000000e+00
    endloop
  endfacet
  facet normal -2.393157e-01 9.709418e-01 0.000000e+00
    outer loop
      vertex   5.000000e+00 6.750000e+00 2.000000e+00
      vertex   5.580904e+00 6.893180e+00 2.000000e+00
      vertex   5.580904e+00 6.893180e+00 0.000000e+00
    endloop
  endfacet
  facet normal -2.393157e-01 9.709418e-01 0.000000e+00
    outer loop
      vertex   5.580904e+00 6.893180e+00 0.000000e+00
      vertex   5.000000e+00 6.750000e+00 0.000000e+00
      vertex   5.000000e+00 6.750000e+00 2.000000e+00
    endloop
  endfacet
  facet normal 2.393157e-01 9.709418e-01 0.000000e+00
    outer loop
      vertex   4.419096e+00 6.893180e+00 2.000000e+00
      vertex   5.000000e+00 6.750000e+00 2.000000e+00
      vertex   5.000000e+00 6.750000e+00 0.000000e+00
    endloop
  endfacet
  facet normal 2.393157e-01 9.709418e-01 0.000000e+00
    outer loop
      vertex   5.000000e+00 6.750000e+00 0.000000e+00
      vertex   4.419096e+00 6.893180e+00 0.000000e+00
      vertex   4.419096e+00 6.893180e+00 2.000000e+00
    endloop
  endfacet
  facet normal 6.631227e-01 7.485107e-01 2.897086e-17
    outer loop
      vertex   3.971270e+00 7.289919e+00 2.000000e+00
      vertex   4.419096e+00 6.893180e+00 2.000000e+00
      vertex   4.419096e+00 6.893180e+00 0.000000e+00
    endloop
  endfacet
  facet normal 6.631227e-01 7.485107e-01 2.897086e-17
    outer loop
      vertex   4.419096e+00 6.893180e+00 0.000000e+00
      vertex   3.971270e+00 7.289919e+00 0.000000e+00
      vertex   3.971270e+00 7.289919e+00 2.000000e+00
    endloop
  endfacet
  facet normal 9.350162e-01 3.546049e-01 1.448543e-17
    outer loop
      vertex   3.759114e+00 7.849329e+00 2.000000e+00
      vertex   3.971270e+00 7.289919e+00 2.000000e+00
      vertex   3.971270e+00 7.289919e+00 0.000000e+00
    endloop
  endfacet
  facet normal 9.350162e-01 3.546049e-01 1.448543e-17
    outer loop
      vertex   3.971270e+00 7.289919e+00 0.000000e+00
      vertex   3.759114e+00 7.849329e+00 0.000000e+00
      vertex   3.759114e+00 7.849329e+00 2.000000e+00
    endloop
  endfacet
  facet normal 9.927089e-01 -1.205367e-01 0.000000e+00
    outer loop
      vertex   3.831230e+00 8.443256e+00 2.000000e+00
      vertex   3.759114e+00 7.849329e+00 2.000000e+00
      vertex   3.759114e+00 7.849329e+00 0.000000e+00
    endloop
  endfacet
  facet normal 9.927089e-01 -1.205367e-01 0.000000e+00
    outer loop
      vertex   3.759114e+00 7.849329e+00 0.000000e+00
      vertex   3.831230e+00 8.443256e+00 0.000000e+00
      vertex   3.831230e+00 8.443256e+00 2.000000e+00
    endloop
  endfacet
  facet normal 8.229839e-01 -5.680647e-01 2.897086e-17
    outer loop
      vertex   4.171097e+00 8.935638e+00 2.000000e+00
      vertex   3.831230e+00 8.443256e+00 2.000000e+00
      vertex   3.831230e+00 8.443256e+00 0.000000e+00
    endloop
  endfacet
  facet normal 8.229839e-01 -5.680647e-01 2.897086e-17
    outer loop
      vertex   3.831230e+00 8.443256e+00 0.000000e+00
      vertex   4.171097e+00 8.935638e+00 0.000000e+00
      vertex   4.171097e+00 8.935638e+00 2.000000e+00
    endloop
  endfacet
  facet normal 4.647232e-01 -8.854560e-01 -2.897086e-17
    outer loop
      vertex   4.700855e+00 9.213677e+00 2.000000e+00
      vertex   4.171097e+00 8.935638e+00 2.000000e+00
      vertex   4.171097e+00 8.935638e+00 0.000000e+00
    endloop
  endfacet
  facet normal 4.647232e-01 -8.854560e-01 -2.897086e-17
    outer loop
      vertex   4.171097e+00 8.935638e+00 0.000000e+00
      vertex   4.700855e+00 9.213677e+00 0.000000e+00
      vertex   4.700855e+00 9.213677e+00 2.000000e+00
    endloop
  endfacet
  facet normal -0.000000e+00 -1.000000e+00 0.000000e+00
    outer loop
      vertex   5.299145e+00 9.213677e+00 2.000000e+00
      vertex   4.700855e+00 9.213677e+00 2.000000e+00
      vertex   4.700855e+00 9.213677e+00 0.000000e+00
    endloop
  endfacet
  facet normal 0.000000e+00 -1.000000e+00 0.000000e+00
    outer loop
      vertex   4.700855e+00 9.213677e+00 0.000000e+00
      vertex   5.299145e+00 9.213677e+00 0.000000e+00
      vertex   5.299145e+00 9.213677e+00 2.000000e+00
    endloop
  endfacet
  facet normal -4.647232e-01 -8.854560e-01 2.897086e-17
    outer loop
      vertex   5.828903e+00 8.935638e+00 2.000000e+00
      vertex   5.299145e+00 9.213677e+00 2.000000e+00
      vertex   5.299145e+00 9.213677e+00 0.000000e+00
    endloop
  endfacet
  facet normal -4.647232e-01 -8.854560e-01 2.897086e-17
    outer loop
      vertex   5.299145e+00 9.213677e+00 0.000000e+00
      vertex   5.828903e+00 8.935638e+00 0.000000e+00
      vertex   5.828903e+00 8.935638e+00 2.000000e+00
    endloop
  endfacet
  facet normal -8.229839e-01 -5.680647e-01 0.000000e+00
    outer loop
      vertex   6.168770e+00 8.443256e+00 2.000000e+00
      vertex   5.828903e+00 8.935638e+00 2.000000e+00
      vertex   5.828903e+00 8.935638e+00 0.000000e+00
    endloop
  endfacet
  facet normal 0.000000e+00 0.000000e+00 -1.000000e+00
    outer loop
      vertex   6.168770e+00 8.443256e+00 0.000000e+00
      vertex   5.828903e+00 8.935638e+00 0.000000e+00
      vertex   1.000000e+01 1.400000e+01 0.000000e+00
    endloop
  endfacet
  facet normal 0.000000e+00 0.000000e+00 -1.000000e+00
    outer loop
      vertex   5.828903e+00 8.935638e+00 0.000000e+00
      vertex   5.299145e+00 9.213677e+00 0.000000e+00
      vertex   1.000000e+01 1.400000e+01 0.000000e+00
    endloop
  endfacet
  facet normal 0.000000e+00 0.000000e+00 -1.000000e+00
    outer loop
      vertex   1.000000e+01 1.400000e+01 0.000000e+00
      vertex   5.299145e+00 9.213677e+00 0.000000e+00
      vertex   4.700855e+00 9.213677e+00 0.000000e+00
    endloop
  endfacet
  facet normal -6.004587e-16 8.699146e-16 -1.000000e+00
    outer loop
      vertex   -5.443256e+00 9.168770e+00 -6.938894e-15
      vertex   -5.935638e+00 8.828903e+00 -6.938894e-15
      vertex   -1.000000e+01 1.400000e+01 0.000000e+00
    endloop
  endfacet
  facet normal -1.023683e-15 5.372702e-16 -1.000000e+00
    outer loop
      vertex   -5.935638e+00 8.828903e+00 -6.938894e-15
      vertex   -6.213677e+00 8.299145e+00 -6.938894e-15
      vertex   -1.000000e+01 1.400000e+01 0.000000e+00
    endloop
  endfacet
  facet normal -1.832621e-15 0.000000e+00 -1.000000e+00
    outer loop
      vertex   -1.000000e+01 -1.000000e+00 0.000000e+00
      vertex   -1.000000e+01 1.400000e+01 0.000000e+00
      vertex   -6.213677e+00 8.299145e+00 -6.938894e-15
    endloop
  endfacet
  facet normal -1.832621e-15 -0.000000e+00 -1.000000e+00
    outer loop
      vertex   -6.213677e+00 8.299145e+00 -6.938894e-15
      vertex   -6.213677e+00 7.700855e+00 -6.938894e-15
      vertex   -1.000000e+01 -1.000000e+00 0.000000e+00
    endloop
  endfacet
  facet normal 8.512193e-16 -2.098067e-16 -1.000000e+00
    outer loop
      vertex   4.700855e+00 9.213677e+00 0.000000e+00
      vertex   -3.893180e+00 7.419096e+00 -6.938894e-15
      vertex   -3.750000e+00 8.000000e+00 -6.938894e-15
    endloop
  endfacet
  facet normal 7.930164e-16 1.954610e-16 -1.000000e+00
    outer loop
      vertex   4.700855e+00 9.213677e+00 0.000000e+00
      vertex   -3.750000e+00 8.000000e+00 -6.938894e-15
      vertex   -3.893180e+00 8.580904e+00 -6.938894e-15
    endloop
  endfacet
  facet normal 8.790682e-16 -9.732544e-16 -1.000000e+00
    outer loop
      vertex   -3.893180e+00 8.580904e+00 -6.938894e-15
      vertex   1.000000e+01 1.400000e+01 0.000000e+00
      vertex   4.700855e+00 9.213677e+00 0.000000e+00
    endloop
  endfacet
  facet normal 3.711814e-16 3.288380e-16 -1.000000e+00
    outer loop
      vertex   1.000000e+01 1.400000e+01 0.000000e+00
      vertex   -3.893180e+00 8.580904e+00 -6.938894e-15
      vertex   -4.289919e+00 9.028730e+00 -6.938894e-15
    endloop
  endfacet
  facet normal 0.000000e+00 1.395799e-15 -1.000000e+00
    outer loop
      vertex   -1.000000e+01 1.400000e+01 0.000000e+00
      vertex   1.000000e+01 1.400000e+01 0.000000e+00
      vertex   -4.289919e+00 9.028730e+00 -6.938894e-15
    endloop
  endfacet
  facet normal 9.379316e-16 2.473122e-15 -1.000000e+00
    outer loop
      vertex   -4.289919e+00 9.028730e+00 -6.938894e-15
      vertex   -4.849329e+00 9.240886e+00 -6.938894e-15
      vertex   -1.000000e+01 1.400000e+01 0.000000e+00
    endloop
  endfacet
  facet normal -1.564735e-16 1.288675e-15 -1.000000e+00
    outer loop
      vertex   -1.000000e+01 1.400000e+01 0.000000e+00
      vertex   -4.849329e+00 9.240886e+00 -6.938894e-15
      vertex   -5.443256e+00 9.168770e+00 -6.938894e-15
    endloop
  endfacet
  facet normal -8.307183e-16 -4.359946e-16 -1.000000e+00
    outer loop
      vertex   -6.213677e+00 7.700855e+00 -6.938894e-15
      vertex   -5.935638e+00 7.171097e+00 -6.938894e-15
      vertex   -1.000000e+01 -1.000000e+00 0.000000e+00
    endloop
  endfacet
  facet normal -4.363470e-16 -6.321577e-16 -1.000000e+00
    outer loop
      vertex   -1.000000e+01 -1.000000e+00 0.000000e+00
      vertex   -5.935638e+00 7.171097e+00 -6.938894e-15
      vertex   -5.443256e+00 6.831230e+00 -6.938894e-15
    endloop
  endfacet
  facet normal -1.004869e-16 -8.275841e-16 -1.000000e+00
    outer loop
      vertex   -1.000000e+01 -1.000000e+00 0.000000e+00
      vertex   -5.443256e+00 6.831230e+00 -6.938894e-15
      vertex   -4.849329e+00 6.759114e+00 -6.938894e-15
    endloop
  endfacet
  facet normal 0.000000e+00 0.000000e+00 -1.000000e+00
    outer loop
      vertex   5.580904e+00 6.893180e+00 0.000000e+00
      vertex   6.028730e+00 7.289919e+00 0.000000e+00
      vertex   1.000000e+01 -1.000000e+00 0.000000e+00
    endloop
  endfacet
  facet normal 0.000000e+00 0.000000e+00 -1.000000e+00
    outer loop
      vertex   1.000000e+01 -1.000000e+00 0.000000e+00
      vertex   6.028730e+00 7.289919e+00 0.000000e+00
      vertex   6.240886e+00 7.849329e+00 0.000000e+00
    endloop
  endfacet
  facet normal 0.000000e+00 -0.000000e+00 -1.000000e+00
    outer loop
      vertex   1.000000e+01 1.400000e+01 0.000000e+00
      vertex   1.000000e+01 -1.000000e+00 0.000000e+00
      vertex   6.240886e+00 7.849329e+00 0.000000e+00
    endloop
  endfacet
  facet normal 0.000000e+00 0.000000e+00 -1.000000e+00
    outer loop
      vertex   6.240886e+00 7.849329e+00 0.000000e+00
      vertex   6.250000e+00 8.000000e+00 0.000000e+00
      vertex   1.000000e+01 1.400000e+01 0.000000e+00
    endloop
  endfacet
  facet normal 0.000000e+00 0.000000e+00 -1.000000e+00
    outer loop
      vertex   6.250000e+00 8.000000e+00 0.000000e+00
      vertex   6.168770e+00 8.443256e+00 0.000000e+00
      vertex   1.000000e+01 1.400000e+01 0.000000e+00
    endloop
  endfacet
  facet normal 1.340915e-15 -2.554900e-15 -1.000000e+00
    outer loop
      vertex   -3.893180e+00 7.419096e+00 -6.938894e-15
      vertex   4.700855e+00 9.213677e+00 0.000000e+00
      vertex   4.171097e+00 8.935638e+00 0.000000e+00
    endloop
  endfacet
  facet normal 9.888010e-16 -6.825200e-16 -1.000000e+00
    outer loop
      vertex   -3.893180e+00 7.419096e+00 -6.938894e-15
      vertex   4.171097e+00 8.935638e+00 0.000000e+00
      vertex   3.831230e+00 8.443256e+00 0.000000e+00
    endloop
  endfacet
  facet normal 1.017868e-15 -9.017528e-16 -1.000000e+00
    outer loop
      vertex   -4.289919e+00 6.971270e+00 -6.938894e-15
      vertex   -3.893180e+00 7.419096e+00 -6.938894e-15
      vertex   3.831230e+00 8.443256e+00 0.000000e+00
    endloop
  endfacet
  facet normal 8.736501e-16 -1.060803e-16 -1.000000e+00
    outer loop
      vertex   3.831230e+00 8.443256e+00 0.000000e+00
      vertex   3.759114e+00 7.849329e+00 0.000000e+00
      vertex   -4.289919e+00 6.971270e+00 -6.938894e-15
    endloop
  endfacet
  facet normal 1.210178e-15 -3.190976e-15 -1.000000e+00
    outer loop
      vertex   3.759114e+00 7.849329e+00 0.000000e+00
      vertex   -4.849329e+00 6.759114e+00 -6.938894e-15
      vertex   -4.289919e+00 6.971270e+00 -6.938894e-15
    endloop
  endfacet
  facet normal 7.691161e-16 2.916873e-16 -1.000000e+00
    outer loop
      vertex   -4.849329e+00 6.759114e+00 -6.938894e-15
      vertex   3.759114e+00 7.849329e+00 0.000000e+00
      vertex   3.971270e+00 7.289919e+00 0.000000e+00
    endloop
  endfacet
  facet normal 8.754580e-16 -1.475438e-15 -1.000000e+00
    outer loop
      vertex   3.971270e+00 7.289919e+00 0.000000e+00
      vertex   -1.000000e+01 -1.000000e+00 0.000000e+00
      vertex   -4.849329e+00 6.759114e+00 -6.938894e-15
    endloop
  endfacet
  facet normal 0.000000e+00 -0.000000e+00 -1.000000e+00
    outer loop
      vertex   3.971270e+00 7.289919e+00 0.000000e+00
      vertex   4.419096e+00 6.893180e+00 0.000000e+00
      vertex   -1.000000e+01 -1.000000e+00 0.000000e+00
    endloop
  endfacet
  facet normal 0.000000e+00 0.000000e+00 -1.000000e+00
    outer loop
      vertex   1.000000e+01 -1.000000e+00 0.000000e+00
      vertex   -1.000000e+01 -1.000000e+00 0.000000e+00
      vertex   4.419096e+00 6.893180e+00 0.000000e+00
    endloop
  endfacet
  facet normal 0.000000e+00 0.000000e+00 -1.000000e+00
    outer loop
      vertex   4.419096e+00 6.893180e+00 0.000000e+00
      vertex   5.000000e+00 6.750000e+00 0.000000e+00
      vertex   1.000000e+01 -1.000000e+00 0.000000e+00
    endloop
  endfacet
  facet normal 0.000000e+00 0.000000e+00 -1.000000e+00
    outer loop
      vertex   1.000000e+01 -1.000000e+00 0.000000e+00
      vertex   5.000000e+00 6.750000e+00 0.000000e+00
      vertex   5.580904e+00 6.893180e+00 0.000000e+00
    endloop
  endfacet
  facet normal 0.000000e+00 1.000000e+00 0.000000e+00
    outer loop
      vertex   1.000000e+01 1.400000e+01 2.000000e+00
      vertex   1.000000e+01 1.400000e+01 0.000000e+00
      vertex   -1.000000e+01 1.400000e+01 0.000000e+00
    endloop
  endfacet
  facet normal 0.000000e+00 1.000000e+00 0.000000e+00
    outer loop
      vertex   -1.000000e+01 1.400000e+01 0.000000e+00
      vertex   -1.000000e+01 1.400000e+01 2.000000e+00
      vertex   1.000000e+01 1.400000e+01 2.000000e+00
    endloop
  endfacet
  facet normal -9.709418e-01 -2.393157e-01 0.000000e+00
    outer loop
      vertex   -3.893180e+00 8.580904e+00 -6.938894e-15
      vertex   -3.750000e+00 8.000000e+00 -6.938894e-15
      vertex   -3.750000e+00 8.000000e+00 2.000000e+00
    endloop
  endfacet
  facet normal -9.709418e-01 -2.393157e-01 0.000000e+00
    outer loop
      vertex   -3.750000e+00 8.000000e+00 2.000000e+00
      vertex   -3.893180e+00 8.580904e+00 2.000000e+00
      vertex   -3.893180e+00 8.580904e+00 -6.938894e-15
    endloop
  endfacet
  facet normal -7.485107e-01 -6.631227e-01 -2.897086e-17
    outer loop
      vertex   -4.289919e+00 9.028730e+00 -6.938894e-15
      vertex   -3.893180e+00 8.580904e+00 -6.938894e-15
      vertex   -3.893180e+00 8.580904e+00 2.000000e+00
    endloop
  endfacet
  facet normal -7.485107e-01 -6.631227e-01 -2.897086e-17
    outer loop
      vertex   -3.893180e+00 8.580904e+00 2.000000e+00
      vertex   -4.289919e+00 9.028730e+00 2.000000e+00
      vertex   -4.289919e+00 9.028730e+00 -6.938894e-15
    endloop
  endfacet
  facet normal -3.546049e-01 -9.350162e-01 -1.448543e-17
    outer loop
      vertex   -4.849329e+00 9.240886e+00 -6.938894e-15
      vertex   -4.289919e+00 9.028730e+00 -6.938894e-15
      vertex   -4.289919e+00 9.028730e+00 2.000000e+00
    endloop
  endfacet
  facet normal -3.546049e-01 -9.350162e-01 -1.448543e-17
    outer loop
      vertex   -4.289919e+00 9.028730e+00 2.000000e+00
      vertex   -4.849329e+00 9.240886e+00 2.000000e+00
      vertex   -4.849329e+00 9.240886e+00 -6.938894e-15
    endloop
  endfacet
  facet normal 1.205367e-01 -9.927089e-01 -7.242715e-18
    outer loop
      vertex   -5.443256e+00 9.168770e+00 -6.938894e-15
      vertex   -4.849329e+00 9.240886e+00 -6.938894e-15
      vertex   -4.849329e+00 9.240886e+00 2.000000e+00
    endloop
  endfacet
  facet normal 1.205367e-01 -9.927089e-01 -7.242715e-18
    outer loop
      vertex   -4.849329e+00 9.240886e+00 2.000000e+00
      vertex   -5.443256e+00 9.168770e+00 2.000000e+00
      vertex   -5.443256e+00 9.168770e+00 -6.938894e-15
    endloop
  endfacet
  facet normal 5.680647e-01 -8.229839e-01 -2.897086e-17
    outer loop
      vertex   -5.935638e+00 8.828903e+00 -6.938894e-15
      vertex   -5.443256e+00 9.168770e+00 -6.938894e-15
      vertex   -5.443256e+00 9.168770e+00 2.000000e+00
    endloop
  endfacet
  facet normal 5.680647e-01 -8.229839e-01 -2.897086e-17
    outer loop
      vertex   -5.443256e+00 9.168770e+00 2.000000e+00
      vertex   -5.935638e+00 8.828903e+00 2.000000e+00
      vertex   -5.935638e+00 8.828903e+00 -6.938894e-15
    endloop
  endfacet
  facet normal 8.854560e-01 -4.647232e-01 0.000000e+00
    outer loop
      vertex   -6.213677e+00 8.299145e+00 -6.938894e-15
      vertex   -5.935638e+00 8.828903e+00 -6.938894e-15
      vertex   -5.935638e+00 8.828903e+00 2.000000e+00
    endloop
  endfacet
  facet normal 8.854560e-01 -4.647232e-01 0.000000e+00
    outer loop
      vertex   -5.935638e+00 8.828903e+00 2.000000e+00
      vertex   -6.213677e+00 8.299145e+00 2.000000e+00
      vertex   -6.213677e+00 8.299145e+00 -6.938894e-15
    endloop
  endfacet
  facet normal 1.000000e+00 0.000000e+00 0.000000e+00
    outer loop
      vertex   -6.213677e+00 7.700855e+00 -6.938894e-15
      vertex   -6.213677e+00 8.299145e+00 -6.938894e-15
      vertex   -6.213677e+00 8.299145e+00 2.000000e+00
    endloop
  endfacet
  facet normal 1.000000e+00 0.000000e+00 0.000000e+00
    outer loop
      vertex   -6.213677e+00 8.299145e+00 2.000000e+00
      vertex   -6.213677e+00 7.700855e+00 2.000000e+00
      vertex   -6.213677e+00 7.700855e+00 -6.938894e-15
    endloop
  endfacet
  facet normal 8.854560e-01 4.647232e-01 -1.448543e-17
    outer loop
      vertex   -5.935638e+00 7.171097e+00 -6.938894e-15
      vertex   -6.213677e+00 7.700855e+00 -6.938894e-15
      vertex   -6.213677e+00 7.700855e+00 2.000000e+00
    endloop
  endfacet
  facet normal 8.854560e-01 4.647232e-01 -1.448543e-17
    outer loop
      vertex   -6.213677e+00 7.700855e+00 2.000000e+00
      vertex   -5.935638e+00 7.171097e+00 2.000000e+00
      vertex   -5.935638e+00 7.171097e+00 -6.938894e-15
    endloop
  endfacet
  facet normal 5.680647e-01 8.229839e-01 0.000000e+00
    outer loop
      vertex   -5.443256e+00 6.831230e+00 -6.938894e-15
      vertex   -5.935638e+00 7.171097e+00 -6.938894e-15
      vertex   -5.935638e+00 7.171097e+00 2.000000e+00
    endloop
  endfacet
  facet normal 5.680647e-01 8.229839e-01 0.000000e+00
    outer loop
      vertex   -5.935638e+00 7.171097e+00 2.000000e+00
      vertex   -5.443256e+00 6.831230e+00 2.000000e+00
      vertex   -5.443256e+00 6.831230e+00 -6.938894e-15
    endloop
  endfacet
  facet normal 1.205367e-01 9.927089e-01 7.242715e-18
    outer loop
      vertex   -4.849329e+00 6.759114e+00 -6.938894e-15
      vertex   -5.443256e+00 6.831230e+00 -6.938894e-15
      vertex   -5.443256e+00 6.831230e+00 2.000000e+00
    endloop
  endfacet
  facet normal 1.205367e-01 9.927089e-01 7.242715e-18
    outer loop
      vertex   -5.443256e+00 6.831230e+00 2.000000e+00
      vertex   -4.849329e+00 6.759114e+00 2.000000e+00
      vertex   -4.849329e+00 6.759114e+00 -6.938894e-15
    endloop
  endfacet
  facet normal -3.546049e-01 9.350162e-01 0.000000e+00
    outer loop
      vertex   -4.289919e+00 6.971270e+00 -6.938894e-15
      vertex   -4.849329e+00 6.759114e+00 -6.938894e-15
      vertex   -4.849329e+00 6.759114e+00 2.000000e+00
    endloop
  endfacet
  facet normal -3.546049e-01 9.350162e-01 0.000000e+00
    outer loop
      vertex   -4.849329e+00 6.759114e+00 2.000000e+00
      vertex   -4.289919e+00 6.971270e+00 2.000000e+00
      vertex   -4.289919e+00 6.971270e+00 -6.938894e-15
    endloop
  endfacet
  facet normal -7.485107e-01 6.631227e-01 0.000000e+00
    outer loop
      vertex   -3.893180e+00 7.419096e+00 -6.938894e-15
      vertex   -4.289919e+00 6.971270e+00 -6.938894e-15
      vertex   -4.289919e+00 6.971270e+00 2.000000e+00
    endloop
  endfacet
  facet normal -7.485107e-01 6.631227e-01 0.000000e+00
    outer loop
      vertex   -4.289919e+00 6.971270e+00 2.000000e+00
      vertex   -3.893180e+00 7.419096e+00 2.000000e+00
      vertex   -3.893180e+00 7.419096e+00 -6.938894e-15
    endloop
  endfacet
  facet normal -9.709418e-01 2.393157e-01 0.000000e+00
    outer loop
      vertex   -3.750000e+00 8.000000e+00 -6.938894e-15
      vertex   -3.893180e+00 7.419096e+00 -6.938894e-15
      vertex   -3.893180e+00 7.419096e+00 2.000000e+00
    endloop
  endfacet
  facet normal -9.709418e-01 2.393157e-01 0.000000e+00
    outer loop
      vertex   -3.893180e+00 7.419096e+00 2.000000e+00
      vertex   -3.750000e+00 8.000000e+00 2.000000e+00
      vertex   -3.750000e+00 8.000000e+00 -6.938894e-15
    endloop
  endfacet
  facet normal 0.000000e+00 0.000000e+00 1.000000e+00
    outer loop
      vertex   1.000000e+01 4.000000e+00 2.000000e+00
      vertex   6.028730e+00 7.289919e+00 2.000000e+00
      vertex   5.580904e+00 6.893180e+00 2.000000e+00
    endloop
  endfacet
  facet normal 0.000000e+00 0.000000e+00 1.000000e+00
    outer loop
      vertex   1.000000e+01 4.000000e+00 2.000000e+00
      vertex   5.580904e+00 6.893180e+00 2.000000e+00
      vertex   5.000000e+00 6.750000e+00 2.000000e+00
    endloop
  endfacet
  facet normal 0.000000e+00 0.000000e+00 1.000000e+00
    outer loop
      vertex   1.000000e+01 1.400000e+01 2.000000e+00
      vertex   -1.000000e+01 1.400000e+01 2.000000e+00
      vertex   4.700855e+00 9.213677e+00 2.000000e+00
    endloop
  endfacet
  facet normal 0.000000e+00 0.000000e+00 1.000000e+00
    outer loop
      vertex   4.700855e+00 9.213677e+00 2.000000e+00
      vertex   5.299145e+00 9.213677e+00 2.000000e+00
      vertex   1.000000e+01 1.400000e+01 2.000000e+00
    endloop
  endfacet
  facet normal 0.000000e+00 0.000000e+00 1.000000e+00
    outer loop
      vertex   1.000000e+01 1.400000e+01 2.000000e+00
      vertex   5.299145e+00 9.213677e+00 2.000000e+00
      vertex   5.828903e+00 8.935638e+00 2.000000e+00
    endloop
  endfacet
  facet normal -0.000000e+00 0.000000e+00 1.000000e+00
    outer loop
      vertex   5.828903e+00 8.935638e+00 2.000000e+00
      vertex   6.168770e+00 8.443256e+00 2.000000e+00
      vertex   1.000000e+01 1.400000e+01 2.000000e+00
    endloop
  endfacet
  facet normal 0.000000e+00 -0.000000e+00 1.000000e+00
    outer loop
      vertex   1.000000e+01 4.000000e+00 2.000000e+00
      vertex   1.000000e+01 1.400000e+01 2.000000e+00
      vertex   6.168770e+00 8.443256e+00 2.000000e+00
    endloop
  endfacet
  facet normal 0.000000e+00 0.000000e+00 1.000000e+00
    outer loop
      vertex   6.168770e+00 8.443256e+00 2.000000e+00
      vertex   6.240886e+00 7.849329e+00 2.000000e+00
      vertex   1.000000e+01 4.000000e+00 2.000000e+00
    endloop
  endfacet
  facet normal 0.000000e+00 0.000000e+00 1.000000e+00
    outer loop
      vertex   1.000000e+01 4.000000e+00 2.000000e+00
      vertex   6.240886e+00 7.849329e+00 2.000000e+00
      vertex   6.028730e+00 7.289919e+00 2.000000e+00
    endloop
  endfacet
  facet normal -1.415592e-15 -3.732608e-15 1.000000e+00
    outer loop
      vertex   3.971270e+00 7.289919e+00 2.000000e+00
      vertex   -4.849329e+00 9.240886e+00 2.000000e+00
      vertex   -4.289919e+00 9.028730e+00 2.000000e+00
    endloop
  endfacet
  facet normal -7.743452e-16 -6.860100e-16 1.000000e+00
    outer loop
      vertex   3.971270e+00 7.289919e+00 2.000000e+00
      vertex   -4.289919e+00 9.028730e+00 2.000000e+00
      vertex   -3.893180e+00 8.580904e+00 2.000000e+00
    endloop
  endfacet
  facet normal -8.122341e-16 -9.168228e-16 1.000000e+00
    outer loop
      vertex   4.419096e+00 6.893180e+00 2.000000e+00
      vertex   3.971270e+00 7.289919e+00 2.000000e+00
      vertex   -3.893180e+00 8.580904e+00 2.000000e+00
    endloop
  endfacet
  facet normal -6.590653e-16 -1.624450e-16 1.000000e+00
    outer loop
      vertex   -3.893180e+00 8.580904e+00 2.000000e+00
      vertex   -3.750000e+00 8.000000e+00 2.000000e+00
      vertex   4.419096e+00 6.893180e+00 2.000000e+00
    endloop
  endfacet
  facet normal -1.414734e-15 -5.739801e-15 1.000000e+00
    outer loop
      vertex   -3.750000e+00 8.000000e+00 2.000000e+00
      vertex   5.000000e+00 6.750000e+00 2.000000e+00
      vertex   4.419096e+00 6.893180e+00 2.000000e+00
    endloop
  endfacet
  facet normal -5.745324e-16 1.416095e-16 1.000000e+00
    outer loop
      vertex   5.000000e+00 6.750000e+00 2.000000e+00
      vertex   -3.750000e+00 8.000000e+00 2.000000e+00
      vertex   -3.893180e+00 7.419096e+00 2.000000e+00
    endloop
  endfacet
  facet normal -6.779228e-16 -1.232587e-15 1.000000e+00
    outer loop
      vertex   -3.893180e+00 7.419096e+00 2.000000e+00
      vertex   1.000000e+01 4.000000e+00 2.000000e+00
      vertex   5.000000e+00 6.750000e+00 2.000000e+00
    endloop
  endfacet
  facet normal -3.075345e-16 2.724518e-16 1.000000e+00
    outer loop
      vertex   1.000000e+01 4.000000e+00 2.000000e+00
      vertex   -3.893180e+00 7.419096e+00 2.000000e+00
      vertex   -4.289919e+00 6.971270e+00 2.000000e+00
    endloop
  endfacet
  facet normal -2.352219e-16 6.202292e-16 1.000000e+00
    outer loop
      vertex   1.000000e+01 4.000000e+00 2.000000e+00
      vertex   -4.289919e+00 6.971270e+00 2.000000e+00
      vertex   -4.849329e+00 6.759114e+00 2.000000e+00
    endloop
  endfacet
  facet normal 0.000000e+00 1.886175e-15 1.000000e+00
    outer loop
      vertex   -4.849329e+00 6.759114e+00 2.000000e+00
      vertex   -1.000000e+01 4.000000e+00 2.000000e+00
      vertex   1.000000e+01 4.000000e+00 2.000000e+00
    endloop
  endfacet
  facet normal 1.867033e-16 1.537640e-15 1.000000e+00
    outer loop
      vertex   -1.000000e+01 4.000000e+00 2.000000e+00
      vertex   -4.849329e+00 6.759114e+00 2.000000e+00
      vertex   -5.443256e+00 6.831230e+00 2.000000e+00
    endloop
  endfacet
  facet normal 1.374466e-15 -0.000000e+00 1.000000e+00
    outer loop
      vertex   -6.213677e+00 7.700855e+00 2.000000e+00
      vertex   -6.213677e+00 8.299145e+00 2.000000e+00
      vertex   -1.000000e+01 1.400000e+01 2.000000e+00
    endloop
  endfacet
  facet normal 1.374466e-15 0.000000e+00 1.000000e+00
    outer loop
      vertex   -1.000000e+01 1.400000e+01 2.000000e+00
      vertex   -1.000000e+01 4.000000e+00 2.000000e+00
      vertex   -6.213677e+00 7.700855e+00 2.000000e+00
    endloop
  endfacet
  facet normal 9.084412e-16 4.767867e-16 1.000000e+00
    outer loop
      vertex   -1.000000e+01 4.000000e+00 2.000000e+00
      vertex   -5.935638e+00 7.171097e+00 2.000000e+00
      vertex   -6.213677e+00 7.700855e+00 2.000000e+00
    endloop
  endfacet
  facet normal 6.010484e-16 8.707689e-16 1.000000e+00
    outer loop
      vertex   -5.443256e+00 6.831230e+00 2.000000e+00
      vertex   -5.935638e+00 7.171097e+00 2.000000e+00
      vertex   -1.000000e+01 4.000000e+00 2.000000e+00
    endloop
  endfacet
  facet normal 7.677622e-16 -4.029527e-16 1.000000e+00
    outer loop
      vertex   -1.000000e+01 1.400000e+01 2.000000e+00
      vertex   -6.213677e+00 8.299145e+00 2.000000e+00
      vertex   -5.935638e+00 8.828903e+00 2.000000e+00
    endloop
  endfacet
  facet normal 4.503440e-16 -6.524360e-16 1.000000e+00
    outer loop
      vertex   -1.000000e+01 1.400000e+01 2.000000e+00
      vertex   -5.935638e+00 8.828903e+00 2.000000e+00
      vertex   -5.443256e+00 9.168770e+00 2.000000e+00
    endloop
  endfacet
  facet normal 1.173551e-16 -9.665062e-16 1.000000e+00
    outer loop
      vertex   -1.000000e+01 1.400000e+01 2.000000e+00
      vertex   -5.443256e+00 9.168770e+00 2.000000e+00
      vertex   -4.849329e+00 9.240886e+00 2.000000e+00
    endloop
  endfacet
  facet normal -6.440251e-16 -2.442465e-16 1.000000e+00
    outer loop
      vertex   -4.849329e+00 9.240886e+00 2.000000e+00
      vertex   3.971270e+00 7.289919e+00 2.000000e+00
      vertex   3.759114e+00 7.849329e+00 2.000000e+00
    endloop
  endfacet
  facet normal -5.929051e-16 7.199171e-17 1.000000e+00
    outer loop
      vertex   -4.849329e+00 9.240886e+00 2.000000e+00
      vertex   3.759114e+00 7.849329e+00 2.000000e+00
      vertex   3.831230e+00 8.443256e+00 2.000000e+00
    endloop
  endfacet
  facet normal -7.773002e-16 -1.934769e-15 1.000000e+00
    outer loop
      vertex   3.831230e+00 8.443256e+00 2.000000e+00
      vertex   -1.000000e+01 1.400000e+01 2.000000e+00
      vertex   -4.849329e+00 9.240886e+00 2.000000e+00
    endloop
  endfacet
  facet normal 0.000000e+00 0.000000e+00 1.000000e+00
    outer loop
      vertex   -1.000000e+01 1.400000e+01 2.000000e+00
      vertex   3.831230e+00 8.443256e+00 2.000000e+00
      vertex   4.171097e+00 8.935638e+00 2.000000e+00
    endloop
  endfacet
  facet normal 0.000000e+00 -0.000000e+00 1.000000e+00
    outer loop
      vertex   4.171097e+00 8.935638e+00 2.000000e+00
      vertex   4.700855e+00 9.213677e+00 2.000000e+00
      vertex   -1.000000e+01 1.400000e+01 2.000000e+00
    endloop
  endfacet
  facet normal 0.000000e+00 7.071068e-01 7.071068e-01
    outer loop
      vertex   1.000000e+01 4.000000e+00 2.000000e+00
      vertex   -1.000000e+01 4.000000e+00 2.000000e+00
      vertex   -1.000000e+01 1.000000e+00 5.000000e+00
    endloop
  endfacet
  facet normal 1.533293e-16 7.071068e-01 7.071068e-01
    outer loop
      vertex   -1.000000e+01 1.000000e+00 5.000000e+00
      vertex   1.000000e+01 1.000000e+00 5.000000e+00
      vertex   1.000000e+01 4.000000e+00 2.000000e+00
    endloop
  endfacet
  facet normal 1.000000e+00 0.000000e+00 0.000000e+00
    outer loop
      vertex   1.000000e+01 -1.000000e+00 0.000000e+00
      vertex   1.000000e+01 1.400000e+01 0.000000e+00
      vertex   1.000000e+01 1.400000e+01 2.000000e+00
    endloop
  endfacet
  facet normal 1.000000e+00 0.000000e+00 -0.000000e+00
    outer loop
      vertex   1.000000e+01 1.000000e+00 5.000000e+00
      vertex   1.000000e+01 1.000000e+00 1.500000e+01
      vertex   1.000000e+01 -1.000000e+00 1.500000e+01
    endloop
  endfacet
  facet normal 1.000000e+00 0.000000e+00 0.000000e+00
    outer loop
      vertex   1.000000e+01 -1.000000e+00 1.500000e+01
      vertex   1.000000e+01 -1.000000e+00 0.000000e+00
      vertex   1.000000e+01 1.000000e+00 5.000000e+00
    endloop
  endfacet
  facet normal 1.000000e+00 0.000000e+00 0.000000e+00
    outer loop
      vertex   1.000000e+01 -1.000000e+00 0.000000e+00
      vertex   1.000000e+01 4.000000e+00 2.000000e+00
      vertex   1.000000e+01 1.000000e+00 5.000000e+00
    endloop
  endfacet
  facet normal 1.000000e+00 0.000000e+00 0.000000e+00
    outer loop
      vertex   1.000000e+01 1.400000e+01 2.000000e+00
      vertex   1.000000e+01 4.000000e+00 2.000000e+00
      vertex   1.000000e+01 -1.000000e+00 0.000000e+00
    endloop
  endfacet
  facet normal -1.000000e+00 7.461020e-31 -4.625929e-16
    outer loop
      vertex   -1.000000e+01 -1.000000e+00 0.000000e+00
      vertex   -1.000000e+01 -1.000000e+00 1.500000e+01
      vertex   -1.000000e+01 1.000000e+00 1.500000e+01
    endloop
  endfacet
  facet normal -1.000000e+00 0.000000e+00 0.000000e+00
    outer loop
      vertex   -1.000000e+01 4.000000e+00 2.000000e+00
      vertex   -1.000000e+01 1.400000e+01 2.000000e+00
      vertex   -1.000000e+01 1.400000e+01 0.000000e+00
    endloop
  endfacet
  facet normal -1.000000e+00 0.000000e+00 0.000000e+00
    outer loop
      vertex   -1.000000e+01 1.400000e+01 0.000000e+00
      vertex   -1.000000e+01 -1.000000e+00 0.000000e+00
      vertex   -1.000000e+01 4.000000e+00 2.000000e+00
    endloop
  endfacet
  facet normal -1.000000e+00 0.000000e+00 -0.000000e+00
    outer loop
      vertex   -1.000000e+01 1.000000e+00 5.000000e+00
      vertex   -1.000000e+01 4.000000e+00 2.000000e+00
      vertex   -1.000000e+01 -1.000000e+00 0.000000e+00
    endloop
  endfacet
  facet normal -1.000000e+00 1.734723e-15 -6.938894e-16
    outer loop
      vertex   -1.000000e+01 1.000000e+00 1.500000e+01
      vertex   -1.000000e+01 1.000000e+00 5.000000e+00
      vertex   -1.000000e+01 -1.000000e+00 0.000000e+00
    endloop
  endfacet
  facet normal 0.000000e+00 0.000000e+00 1.000000e+00
    outer loop
      vertex   -1.000000e+01 1.000000e+00 1.500000e+01
      vertex   -1.000000e+01 -1.000000e+00 1.500000e+01
      vertex   1.000000e+01 -1.000000e+00 1.500000e+01
    endloop
  endfacet
  facet normal 0.000000e+00 -0.000000e+00 1.000000e+00
    outer loop
      vertex   1.000000e+01 -1.000000e+00 1.500000e+01
      vertex   1.000000e+01 1.000000e+00 1.500000e+01
      vertex   -1.000000e+01 1.000000e+00 1.500000e+01
    endloop
  endfacet
  facet normal -1.212679e-15 -1.000000e+00 -2.310567e-15
    outer loop
      vertex   3.971270e+00 -1.000000e+00 8.289919e+00
      vertex   -4.700855e+00 -1.000000e+00 1.021368e+01
      vertex   -4.171097e+00 -1.000000e+00 9.935638e+00
    endloop
  endfacet
  facet normal -8.665684e-16 -1.000000e+00 -5.981490e-16
    outer loop
      vertex   -4.171097e+00 -1.000000e+00 9.935638e+00
      vertex   -3.831230e+00 -1.000000e+00 9.443256e+00
      vertex   3.971270e+00 -1.000000e+00 8.289919e+00
    endloop
  endfacet
  facet normal -9.339883e-16 -1.000000e+00 -1.054255e-15
    outer loop
      vertex   4.419096e+00 -1.000000e+00 7.893180e+00
      vertex   3.971270e+00 -1.000000e+00 8.289919e+00
      vertex   -3.831230e+00 -1.000000e+00 9.443256e+00
    endloop
  endfacet
  facet normal -7.530945e-16 -1.000000e+00 -9.144222e-17
    outer loop
      vertex   -3.831230e+00 -1.000000e+00 9.443256e+00
      vertex   -3.759114e+00 -1.000000e+00 8.849329e+00
      vertex   4.419096e+00 -1.000000e+00 7.893180e+00
    endloop
  endfacet
  facet normal -1.412326e-15 -1.000000e+00 -5.730031e-15
    outer loop
      vertex   -3.759114e+00 -1.000000e+00 8.849329e+00
      vertex   5.000000e+00 -1.000000e+00 7.750000e+00
      vertex   4.419096e+00 -1.000000e+00 7.893180e+00
    endloop
  endfacet
  facet normal -7.542398e-16 -1.000000e+00 -4.866064e-16
    outer loop
      vertex   1.000000e+01 -1.000000e+00 0.000000e+00
      vertex   5.000000e+00 -1.000000e+00 7.750000e+00
      vertex   -3.759114e+00 -1.000000e+00 8.849329e+00
    endloop
  endfacet
  facet normal 0.000000e+00 -1.000000e+00 -0.000000e+00
    outer loop
      vertex   5.580904e+00 -1.000000e+00 7.893180e+00
      vertex   5.000000e+00 -1.000000e+00 7.750000e+00
      vertex   1.000000e+01 -1.000000e+00 0.000000e+00
    endloop
  endfacet
  facet normal -3.547446e-16 -1.000000e+00 1.345369e-16
    outer loop
      vertex   -3.759114e+00 -1.000000e+00 8.849329e+00
      vertex   -3.971270e+00 -1.000000e+00 8.289919e+00
      vertex   1.000000e+01 -1.000000e+00 0.000000e+00
    endloop
  endfacet
  facet normal -2.602607e-16 -1.000000e+00 2.937736e-16
    outer loop
      vertex   1.000000e+01 -1.000000e+00 0.000000e+00
      vertex   -3.971270e+00 -1.000000e+00 8.289919e+00
      vertex   -4.419096e+00 -1.000000e+00 7.893180e+00
    endloop
  endfacet
  facet normal 0.000000e+00 -1.000000e+00 7.692124e-16
    outer loop
      vertex   -1.000000e+01 -1.000000e+00 0.000000e+00
      vertex   1.000000e+01 -1.000000e+00 0.000000e+00
      vertex   -4.419096e+00 -1.000000e+00 7.893180e+00
    endloop
  endfacet
  facet normal -2.296084e-16 -1.000000e+00 9.315580e-16
    outer loop
      vertex   -4.419096e+00 -1.000000e+00 7.893180e+00
      vertex   -5.000000e+00 -1.000000e+00 7.750000e+00
      vertex   -1.000000e+01 -1.000000e+00 0.000000e+00
    endloop
  endfacet
  facet normal 1.666036e-16 -1.000000e+00 6.759373e-16
    outer loop
      vertex   -1.000000e+01 -1.000000e+00 0.000000e+00
      vertex   -5.000000e+00 -1.000000e+00 7.750000e+00
      vertex   -5.580904e+00 -1.000000e+00 7.893180e+00
    endloop
  endfacet
  facet normal 0.000000e+00 -1.000000e+00 0.000000e+00
    outer loop
      vertex   1.000000e+01 -1.000000e+00 1.500000e+01
      vertex   5.828903e+00 -1.000000e+00 9.935638e+00
      vertex   6.168770e+00 -1.000000e+00 9.443256e+00
    endloop
  endfacet
  facet normal 0.000000e+00 -1.000000e+00 0.000000e+00
    outer loop
      vertex   1.000000e+01 -1.000000e+00 1.500000e+01
      vertex   6.168770e+00 -1.000000e+00 9.443256e+00
      vertex   6.240886e+00 -1.000000e+00 8.849329e+00
    endloop
  endfacet
  facet normal 0.000000e+00 -1.000000e+00 0.000000e+00
    outer loop
      vertex   6.240886e+00 -1.000000e+00 8.849329e+00
      vertex   1.000000e+01 -1.000000e+00 0.000000e+00
      vertex   1.000000e+01 -1.000000e+00 1.500000e+01
    endloop
  endfacet
  facet normal 0.000000e+00 -1.000000e+00 0.000000e+00
    outer loop
      vertex   1.000000e+01 -1.000000e+00 0.000000e+00
      vertex   6.240886e+00 -1.000000e+00 8.849329e+00
      vertex   6.028730e+00 -1.000000e+00 8.289919e+00
    endloop
  endfacet
  facet normal 0.000000e+00 -1.000000e+00 -0.000000e+00
    outer loop
      vertex   6.028730e+00 -1.000000e+00 8.289919e+00
      vertex   5.580904e+00 -1.000000e+00 7.893180e+00
      vertex   1.000000e+01 -1.000000e+00 0.000000e+00
    endloop
  endfacet
  facet normal 1.347451e-15 -1.000000e+00 -1.636101e-16
    outer loop
      vertex   -6.240886e+00 -1.000000e+00 8.849329e+00
      vertex   -6.168770e+00 -1.000000e+00 9.443256e+00
      vertex   -1.000000e+01 -1.000000e+00 1.500000e+01
    endloop
  endfacet
  facet normal 1.615150e-15 -1.000000e+00 7.471569e-31
    outer loop
      vertex   -1.000000e+01 -1.000000e+00 1.500000e+01
      vertex   -1.000000e+01 -1.000000e+00 0.000000e+00
      vertex   -6.240886e+00 -1.000000e+00 8.849329e+00
    endloop
  endfacet
  facet normal 8.533159e-16 -1.000000e+00 3.236200e-16
    outer loop
      vertex   -1.000000e+01 -1.000000e+00 0.000000e+00
      vertex   -6.028730e+00 -1.000000e+00 8.289919e+00
      vertex   -6.240886e+00 -1.000000e+00 8.849329e+00
    endloop
  endfacet
  facet normal 4.555248e-16 -1.000000e+00 5.141812e-16
    outer loop
      vertex   -5.580904e+00 -1.000000e+00 7.893180e+00
      vertex   -6.028730e+00 -1.000000e+00 8.289919e+00
      vertex   -1.000000e+01 -1.000000e+00 0.000000e+00
    endloop
  endfacet
  facet normal -0.000000e+00 -1.000000e+00 0.000000e+00
    outer loop
      vertex   1.000000e+01 -1.000000e+00 1.500000e+01
      vertex   -1.000000e+01 -1.000000e+00 1.500000e+01
      vertex   4.700855e+00 -1.000000e+00 1.021368e+01
    endloop
  endfacet
  facet normal 0.000000e+00 -1.000000e+00 0.000000e+00
    outer loop
      vertex   4.700855e+00 -1.000000e+00 1.021368e+01
      vertex   5.299145e+00 -1.000000e+00 1.021368e+01
      vertex   1.000000e+01 -1.000000e+00 1.500000e+01
    endloop
  endfacet
  facet normal 0.000000e+00 -1.000000e+00 0.000000e+00
    outer loop
      vertex   5.299145e+00 -1.000000e+00 1.021368e+01
      vertex   5.828903e+00 -1.000000e+00 9.935638e+00
      vertex   1.000000e+01 -1.000000e+00 1.500000e+01
    endloop
  endfacet
  facet normal 7.919280e-16 -1.000000e+00 -5.466284e-16
    outer loop
      vertex   -1.000000e+01 -1.000000e+00 1.500000e+01
      vertex   -6.168770e+00 -1.000000e+00 9.443256e+00
      vertex   -5.828903e+00 -1.000000e+00 9.935638e+00
    endloop
  endfacet
  facet normal 4.393157e-16 -1.000000e+00 -8.370461e-16
    outer loop
      vertex   -5.828903e+00 -1.000000e+00 9.935638e+00
      vertex   -5.299145e+00 -1.000000e+00 1.021368e+01
      vertex   -1.000000e+01 -1.000000e+00 1.500000e+01
    endloop
  endfacet
  facet normal -1.649600e-30 -1.000000e+00 -1.268517e-15
    outer loop
      vertex   -1.000000e+01 -1.000000e+00 1.500000e+01
      vertex   -5.299145e+00 -1.000000e+00 1.021368e+01
      vertex   -4.700855e+00 -1.000000e+00 1.021368e+01
    endloop
  endfacet
  facet normal -7.644320e-16 -1.000000e+00 -2.899108e-16
    outer loop
      vertex   -4.700855e+00 -1.000000e+00 1.021368e+01
      vertex   3.971270e+00 -1.000000e+00 8.289919e+00
      vertex   3.759114e+00 -1.000000e+00 8.849329e+00
    endloop
  endfacet
  facet normal -7.038942e-16 -1.000000e+00 8.546824e-17
    outer loop
      vertex   -4.700855e+00 -1.000000e+00 1.021368e+01
      vertex   3.759114e+00 -1.000000e+00 8.849329e+00
      vertex   3.831230e+00 -1.000000e+00 9.443256e+00
    endloop
  endfacet
  facet normal -9.179210e-16 -1.000000e+00 -2.284787e-15
    outer loop
      vertex   3.831230e+00 -1.000000e+00 9.443256e+00
      vertex   -1.000000e+01 -1.000000e+00 1.500000e+01
      vertex   -4.700855e+00 -1.000000e+00 1.021368e+01
    endloop
  endfacet
  facet normal 0.000000e+00 -1.000000e+00 0.000000e+00
    outer loop
      vertex   3.831230e+00 -1.000000e+00 9.443256e+00
      vertex   4.171097e+00 -1.000000e+00 9.935638e+00
      vertex   -1.000000e+01 -1.000000e+00 1.500000e+01
    endloop
  endfacet
  facet normal 0.000000e+00 -1.000000e+00 0.000000e+00
    outer loop
      vertex   -1.000000e+01 -1.000000e+00 1.500000e+01
      vertex   4.171097e+00 -1.000000e+00 9.935638e+00
      vertex   4.700855e+00 -1.000000e+00 1.021368e+01
    endloop
  endfacet
  facet normal -0.000000e+00 1.000000e+00 1.630951e-15
    outer loop
      vertex   -1.000000e+01 1.000000e+00 1.500000e+01
      vertex   1.000000e+01 1.000000e+00 1.500000e+01
      vertex   -4.700855e+00 1.000000e+00 1.021368e+01
    endloop
  endfacet
  facet normal 0.000000e+00 1.000000e+00 1.630951e-15
    outer loop
      vertex   -4.700855e+00 1.000000e+00 1.021368e+01
      vertex   -5.299145e+00 1.000000e+00 1.021368e+01
      vertex   -1.000000e+01 1.000000e+00 1.500000e+01
    endloop
  endfacet
  facet normal -5.648344e-16 1.000000e+00 1.076202e-15
    outer loop
      vertex   -1.000000e+01 1.000000e+00 1.500000e+01
      vertex   -5.299145e+00 1.000000e+00 1.021368e+01
      vertex   -5.828903e+00 1.000000e+00 9.935638e+00
    endloop
  endfacet
  facet normal -1.018193e-15 1.000000e+00 7.028080e-16
    outer loop
      vertex   -5.828903e+00 1.000000e+00 9.935638e+00
      vertex   -6.168770e+00 1.000000e+00 9.443256e+00
      vertex   -1.000000e+01 1.000000e+00 1.500000e+01
    endloop
  endfacet
  facet normal -2.037533e-15 1.000000e+00 -1.413822e-30
    outer loop
      vertex   -1.000000e+01 1.000000e+00 5.000000e+00
      vertex   -1.000000e+01 1.000000e+00 1.500000e+01
      vertex   -6.168770e+00 1.000000e+00 9.443256e+00
    endloop
  endfacet
  facet normal 0.000000e+00 1.000000e+00 -0.000000e+00
    outer loop
      vertex   5.828903e+00 1.000000e+00 9.935638e+00
      vertex   5.299145e+00 1.000000e+00 1.021368e+01
      vertex   1.000000e+01 1.000000e+00 1.500000e+01
    endloop
  endfacet
  facet normal 0.000000e+00 1.000000e+00 0.000000e+00
    outer loop
      vertex   1.000000e+01 1.000000e+00 1.500000e+01
      vertex   5.299145e+00 1.000000e+00 1.021368e+01
      vertex   4.700855e+00 1.000000e+00 1.021368e+01
    endloop
  endfacet
  facet normal 8.303016e-16 1.000000e+00 -9.192628e-16
    outer loop
      vertex   -4.700855e+00 1.000000e+00 1.021368e+01
      vertex   1.000000e+01 1.000000e+00 1.500000e+01
      vertex   4.700855e+00 1.000000e+00 1.021368e+01
    endloop
  endfacet
  facet normal 8.303016e-16 1.000000e+00 -1.582008e-15
    outer loop
      vertex   4.700855e+00 1.000000e+00 1.021368e+01
      vertex   4.171097e+00 1.000000e+00 9.935638e+00
      vertex   -4.700855e+00 1.000000e+00 1.021368e+01
    endloop
  endfacet
  facet normal 9.357558e-16 1.000000e+00 1.782934e-15
    outer loop
      vertex   -4.171097e+00 1.000000e+00 9.935638e+00
      vertex   -4.700855e+00 1.000000e+00 1.021368e+01
      vertex   4.171097e+00 1.000000e+00 9.935638e+00
    endloop
  endfacet
  facet normal -2.371482e-15 1.000000e+00 2.879500e-16
    outer loop
      vertex   -6.168770e+00 1.000000e+00 9.443256e+00
      vertex   -6.240886e+00 1.000000e+00 8.849329e+00
      vertex   -1.000000e+01 1.000000e+00 5.000000e+00
    endloop
  endfacet
  facet normal -1.495746e-15 1.000000e+00 -5.672616e-16
    outer loop
      vertex   -6.240886e+00 1.000000e+00 8.849329e+00
      vertex   -6.028730e+00 1.000000e+00 8.289919e+00
      vertex   -1.000000e+01 1.000000e+00 5.000000e+00
    endloop
  endfacet
  facet normal -1.015802e-15 1.000000e+00 -1.146603e-15
    outer loop
      vertex   -1.000000e+01 1.000000e+00 5.000000e+00
      vertex   -6.028730e+00 1.000000e+00 8.289919e+00
      vertex   -5.580904e+00 1.000000e+00 7.893180e+00
    endloop
  endfacet
  facet normal 0.000000e+00 1.000000e+00 0.000000e+00
    outer loop
      vertex   -1.000000e+01 1.000000e+00 5.000000e+00
      vertex   3.971270e+00 1.000000e+00 8.289919e+00
      vertex   4.419096e+00 1.000000e+00 7.893180e+00
    endloop
  endfacet
  facet normal 0.000000e+00 1.000000e+00 0.000000e+00
    outer loop
      vertex   -1.000000e+01 1.000000e+00 5.000000e+00
      vertex   4.419096e+00 1.000000e+00 7.893180e+00
      vertex   5.000000e+00 1.000000e+00 7.750000e+00
    endloop
  endfacet
  facet normal 0.000000e+00 1.000000e+00 0.000000e+00
    outer loop
      vertex   5.000000e+00 1.000000e+00 7.750000e+00
      vertex   1.000000e+01 1.000000e+00 5.000000e+00
      vertex   -1.000000e+01 1.000000e+00 5.000000e+00
    endloop
  endfacet
  facet normal -0.000000e+00 1.000000e+00 0.000000e+00
    outer loop
      vertex   5.000000e+00 1.000000e+00 7.750000e+00
      vertex   5.580904e+00 1.000000e+00 7.893180e+00
      vertex   1.000000e+01 1.000000e+00 5.000000e+00
    endloop
  endfacet
  facet normal 0.000000e+00 1.000000e+00 0.000000e+00
    outer loop
      vertex   1.000000e+01 1.000000e+00 5.000000e+00
      vertex   5.580904e+00 1.000000e+00 7.893180e+00
      vertex   6.028730e+00 1.000000e+00 8.289919e+00
    endloop
  endfacet
  facet normal -0.000000e+00 1.000000e+00 0.000000e+00
    outer loop
      vertex   6.028730e+00 1.000000e+00 8.289919e+00
      vertex   6.240886e+00 1.000000e+00 8.849329e+00
      vertex   1.000000e+01 1.000000e+00 5.000000e+00
    endloop
  endfacet
  facet normal 0.000000e+00 1.000000e+00 0.000000e+00
    outer loop
      vertex   1.000000e+01 1.000000e+00 1.500000e+01
      vertex   1.000000e+01 1.000000e+00 5.000000e+00
      vertex   6.240886e+00 1.000000e+00 8.849329e+00
    endloop
  endfacet
  facet normal 0.000000e+00 1.000000e+00 -0.000000e+00
    outer loop
      vertex   6.240886e+00 1.000000e+00 8.849329e+00
      vertex   6.168770e+00 1.000000e+00 9.443256e+00
      vertex   1.000000e+01 1.000000e+00 1.500000e+01
    endloop
  endfacet
  facet normal 0.000000e+00 1.000000e+00 -0.000000e+00
    outer loop
      vertex   6.168770e+00 1.000000e+00 9.443256e+00
      vertex   5.828903e+00 1.000000e+00 9.935638e+00
      vertex   1.000000e+01 1.000000e+00 1.500000e+01
    endloop
  endfacet
  facet normal -4.831444e-16 1.000000e+00 -1.960194e-15
    outer loop
      vertex   -5.580904e+00 1.000000e+00 7.893180e+00
      vertex   -5.000000e+00 1.000000e+00 7.750000e+00
      vertex   -1.000000e+01 1.000000e+00 5.000000e+00
    endloop
  endfacet
  facet normal 1.267828e-15 1.000000e+00 -5.143780e-15
    outer loop
      vertex   -1.000000e+01 1.000000e+00 5.000000e+00
      vertex   -5.000000e+00 1.000000e+00 7.750000e+00
      vertex   -4.419096e+00 1.000000e+00 7.893180e+00
    endloop
  endfacet
  facet normal 1.164151e-15 1.000000e+00 -4.943788e-15
    outer loop
      vertex   -4.419096e+00 1.000000e+00 7.893180e+00
      vertex   3.971270e+00 1.000000e+00 8.289919e+00
      vertex   -1.000000e+01 1.000000e+00 5.000000e+00
    endloop
  endfacet
  facet normal 9.828412e-16 1.000000e+00 -1.109398e-15
    outer loop
      vertex   -4.419096e+00 1.000000e+00 7.893180e+00
      vertex   -3.971270e+00 1.000000e+00 8.289919e+00
      vertex   3.971270e+00 1.000000e+00 8.289919e+00
    endloop
  endfacet
  facet normal 9.828412e-16 1.000000e+00 -3.727425e-16
    outer loop
      vertex   -3.971270e+00 1.000000e+00 8.289919e+00
      vertex   -3.759114e+00 1.000000e+00 8.849329e+00
      vertex   3.971270e+00 1.000000e+00 8.289919e+00
    endloop
  endfacet
  facet normal 9.357558e-16 1.000000e+00 6.459056e-16
    outer loop
      vertex   4.171097e+00 1.000000e+00 9.935638e+00
      vertex   -3.831230e+00 1.000000e+00 9.443256e+00
      vertex   -4.171097e+00 1.000000e+00 9.935638e+00
    endloop
  endfacet
  facet normal 1.018766e-15 1.000000e+00 -7.032036e-16
    outer loop
      vertex   -3.831230e+00 1.000000e+00 9.443256e+00
      vertex   4.171097e+00 1.000000e+00 9.935638e+00
      vertex   3.831230e+00 1.000000e+00 9.443256e+00
    endloop
  endfacet
  facet normal 1.018766e-15 1.000000e+00 1.237006e-16
    outer loop
      vertex   -3.759114e+00 1.000000e+00 8.849329e+00
      vertex   -3.831230e+00 1.000000e+00 9.443256e+00
      vertex   3.831230e+00 1.000000e+00 9.443256e+00
    endloop
  endfacet
  facet normal 1.038311e-15 1.000000e+00 -1.260737e-16
    outer loop
      vertex   3.831230e+00 1.000000e+00 9.443256e+00
      vertex   3.759114e+00 1.000000e+00 8.849329e+00
      vertex   -3.759114e+00 1.000000e+00 8.849329e+00
    endloop
  endfacet
  facet normal 1.038311e-15 1.000000e+00 3.937793e-16
    outer loop
      vertex   3.759114e+00 1.000000e+00 8.849329e+00
      vertex   3.971270e+00 1.000000e+00 8.289919e+00
      vertex   -3.759114e+00 1.000000e+00 8.849329e+00
    endloop
  endfacet
  facet normal 2.393157e-01 0.000000e+00 9.709418e-01
    outer loop
      vertex   4.419096e+00 -1.000000e+00 7.893180e+00
      vertex   5.000000e+00 -1.000000e+00 7.750000e+00
      vertex   5.000000e+00 1.000000e+00 7.750000e+00
    endloop
  endfacet
  facet normal 2.393157e-01 0.000000e+00 9.709418e-01
    outer loop
      vertex   5.000000e+00 1.000000e+00 7.750000e+00
      vertex   4.419096e+00 1.000000e+00 7.893180e+00
      vertex   4.419096e+00 -1.000000e+00 7.893180e+00
    endloop
  endfacet
  facet normal 6.631227e-01 0.000000e+00 7.485107e-01
    outer loop
      vertex   3.971270e+00 -1.000000e+00 8.289919e+00
      vertex   4.419096e+00 -1.000000e+00 7.893180e+00
      vertex   4.419096e+00 1.000000e+00 7.893180e+00
    endloop
  endfacet
  facet normal 6.631227e-01 0.000000e+00 7.485107e-01
    outer loop
      vertex   4.419096e+00 1.000000e+00 7.893180e+00
      vertex   3.971270e+00 1.000000e+00 8.289919e+00
      vertex   3.971270e+00 -1.000000e+00 8.289919e+00
    endloop
  endfacet
  facet normal 9.350162e-01 0.000000e+00 3.546049e-01
    outer loop
      vertex   3.759114e+00 -1.000000e+00 8.849329e+00
      vertex   3.971270e+00 -1.000000e+00 8.289919e+00
      vertex   3.971270e+00 1.000000e+00 8.289919e+00
    endloop
  endfacet
  facet normal 9.350162e-01 0.000000e+00 3.546049e-01
    outer loop
      vertex   3.971270e+00 1.000000e+00 8.289919e+00
      vertex   3.759114e+00 1.000000e+00 8.849329e+00
      vertex   3.759114e+00 -1.000000e+00 8.849329e+00
    endloop
  endfacet
  facet normal 9.927089e-01 0.000000e+00 -1.205367e-01
    outer loop
      vertex   3.831230e+00 -1.000000e+00 9.443256e+00
      vertex   3.759114e+00 -1.000000e+00 8.849329e+00
      vertex   3.759114e+00 1.000000e+00 8.849329e+00
    endloop
  endfacet
  facet normal 9.927089e-01 0.000000e+00 -1.205367e-01
    outer loop
      vertex   3.759114e+00 1.000000e+00 8.849329e+00
      vertex   3.831230e+00 1.000000e+00 9.443256e+00
      vertex   3.831230e+00 -1.000000e+00 9.443256e+00
    endloop
  endfacet
  facet normal 8.229839e-01 -2.897086e-17 -5.680647e-01
    outer loop
      vertex   4.171097e+00 -1.000000e+00 9.935638e+00
      vertex   3.831230e+00 -1.000000e+00 9.443256e+00
      vertex   3.831230e+00 1.000000e+00 9.443256e+00
    endloop
  endfacet
  facet normal 8.229839e-01 -2.897086e-17 -5.680647e-01
    outer loop
      vertex   3.831230e+00 1.000000e+00 9.443256e+00
      vertex   4.171097e+00 1.000000e+00 9.935638e+00
      vertex   4.171097e+00 -1.000000e+00 9.935638e+00
    endloop
  endfacet
  facet normal 4.647232e-01 0.000000e+00 -8.854560e-01
    outer loop
      vertex   4.700855e+00 -1.000000e+00 1.021368e+01
      vertex   4.171097e+00 -1.000000e+00 9.935638e+00
      vertex   4.171097e+00 1.000000e+00 9.935638e+00
    endloop
  endfacet
  facet normal 4.647232e-01 0.000000e+00 -8.854560e-01
    outer loop
      vertex   4.171097e+00 1.000000e+00 9.935638e+00
      vertex   4.700855e+00 1.000000e+00 1.021368e+01
      vertex   4.700855e+00 -1.000000e+00 1.021368e+01
    endloop
  endfacet
  facet normal 0.000000e+00 0.000000e+00 -1.000000e+00
    outer loop
      vertex   5.299145e+00 -1.000000e+00 1.021368e+01
      vertex   4.700855e+00 -1.000000e+00 1.021368e+01
      vertex   4.700855e+00 1.000000e+00 1.021368e+01
    endloop
  endfacet
  facet normal 0.000000e+00 0.000000e+00 -1.000000e+00
    outer loop
      vertex   4.700855e+00 1.000000e+00 1.021368e+01
      vertex   5.299145e+00 1.000000e+00 1.021368e+01
      vertex   5.299145e+00 -1.000000e+00 1.021368e+01
    endloop
  endfacet
  facet normal -4.647232e-01 -1.448543e-17 -8.854560e-01
    outer loop
      vertex   5.828903e+00 -1.000000e+00 9.935638e+00
      vertex   5.299145e+00 -1.000000e+00 1.021368e+01
      vertex   5.299145e+00 1.000000e+00 1.021368e+01
    endloop
  endfacet
  facet normal -4.647232e-01 -1.448543e-17 -8.854560e-01
    outer loop
      vertex   5.299145e+00 1.000000e+00 1.021368e+01
      vertex   5.828903e+00 1.000000e+00 9.935638e+00
      vertex   5.828903e+00 -1.000000e+00 9.935638e+00
    endloop
  endfacet
  facet normal -8.229839e-01 0.000000e+00 -5.680647e-01
    outer loop
      vertex   6.168770e+00 -1.000000e+00 9.443256e+00
      vertex   5.828903e+00 -1.000000e+00 9.935638e+00
      vertex   5.828903e+00 1.000000e+00 9.935638e+00
    endloop
  endfacet
  facet normal -8.229839e-01 0.000000e+00 -5.680647e-01
    outer loop
      vertex   5.828903e+00 1.000000e+00 9.935638e+00
      vertex   6.168770e+00 1.000000e+00 9.443256e+00
      vertex   6.168770e+00 -1.000000e+00 9.443256e+00
    endloop
  endfacet
  facet normal -9.927089e-01 7.242715e-18 -1.205367e-01
    outer loop
      vertex   6.240886e+00 -1.000000e+00 8.849329e+00
      vertex   6.168770e+00 -1.000000e+00 9.443256e+00
      vertex   6.168770e+00 1.000000e+00 9.443256e+00
    endloop
  endfacet
  facet normal -9.927089e-01 7.242715e-18 -1.205367e-01
    outer loop
      vertex   6.168770e+00 1.000000e+00 9.443256e+00
      vertex   6.240886e+00 1.000000e+00 8.849329e+00
      vertex   6.240886e+00 -1.000000e+00 8.849329e+00
    endloop
  endfacet
  facet normal -9.350162e-01 0.000000e+00 3.546049e-01
    outer loop
      vertex   6.028730e+00 -1.000000e+00 8.289919e+00
      vertex   6.240886e+00 -1.000000e+00 8.849329e+00
      vertex   6.240886e+00 1.000000e+00 8.849329e+00
    endloop
  endfacet
  facet normal -9.350162e-01 0.000000e+00 3.546049e-01
    outer loop
      vertex   6.240886e+00 1.000000e+00 8.849329e+00
      vertex   6.028730e+00 1.000000e+00 8.289919e+00
      vertex   6.028730e+00 -1.000000e+00 8.289919e+00
    endloop
  endfacet
  facet normal -6.631227e-01 0.000000e+00 7.485107e-01
    outer loop
      vertex   5.580904e+00 -1.000000e+00 7.893180e+00
      vertex   6.028730e+00 -1.000000e+00 8.289919e+00
      vertex   6.028730e+00 1.000000e+00 8.289919e+00
    endloop
  endfacet
  facet normal -6.631227e-01 0.000000e+00 7.485107e-01
    outer loop
      vertex   6.028730e+00 1.000000e+00 8.289919e+00
      vertex   5.580904e+00 1.000000e+00 7.893180e+00
      vertex   5.580904e+00 -1.000000e+00 7.893180e+00
    endloop
  endfacet
  facet normal -2.393157e-01 0.000000e+00 9.709418e-01
    outer loop
      vertex   5.000000e+00 -1.000000e+00 7.750000e+00
      vertex   5.580904e+00 -1.000000e+00 7.893180e+00
      vertex   5.580904e+00 1.000000e+00 7.893180e+00
    endloop
  endfacet
  facet normal -2.393157e-01 0.000000e+00 9.709418e-01
    outer loop
      vertex   5.580904e+00 1.000000e+00 7.893180e+00
      vertex   5.000000e+00 1.000000e+00 7.750000e+00
      vertex   5.000000e+00 -1.000000e+00 7.750000e+00
    endloop
  endfacet
  facet normal -2.393157e-01 0.000000e+00 9.709418e-01
    outer loop
      vertex   -4.419096e+00 1.000000e+00 7.893180e+00
      vertex   -5.000000e+00 1.000000e+00 7.750000e+00
      vertex   -5.000000e+00 -1.000000e+00 7.750000e+00
    endloop
  endfacet
  facet normal -2.393157e-01 0.000000e+00 9.709418e-01
    outer loop
      vertex   -5.000000e+00 -1.000000e+00 7.750000e+00
      vertex   -4.419096e+00 -1.000000e+00 7.893180e+00
      vertex   -4.419096e+00 1.000000e+00 7.893180e+00
    endloop
  endfacet
  facet normal -6.631227e-01 2.897086e-17 7.485107e-01
    outer loop
      vertex   -3.971270e+00 1.000000e+00 8.289919e+00
      vertex   -4.419096e+00 1.000000e+00 7.893180e+00
      vertex   -4.419096e+00 -1.000000e+00 7.893180e+00
    endloop
  endfacet
  facet normal -6.631227e-01 2.897086e-17 7.485107e-01
    outer loop
      vertex   -4.419096e+00 -1.000000e+00 7.893180e+00
      vertex   -3.971270e+00 -1.000000e+00 8.289919e+00
      vertex   -3.971270e+00 1.000000e+00 8.289919e+00
    endloop
  endfacet
  facet normal -9.350162e-01 1.448543e-17 3.546049e-01
    outer loop
      vertex   -3.759114e+00 1.000000e+00 8.849329e+00
      vertex   -3.971270e+00 1.000000e+00 8.289919e+00
      vertex   -3.971270e+00 -1.000000e+00 8.289919e+00
    endloop
  endfacet
  facet normal -9.350162e-01 1.448543e-17 3.546049e-01
    outer loop
      vertex   -3.971270e+00 -1.000000e+00 8.289919e+00
      vertex   -3.759114e+00 -1.000000e+00 8.849329e+00
      vertex   -3.759114e+00 1.000000e+00 8.849329e+00
    endloop
  endfacet
  facet normal -9.927089e-01 0.000000e+00 -1.205367e-01
    outer loop
      vertex   -3.831230e+00 1.000000e+00 9.443256e+00
      vertex   -3.759114e+00 1.000000e+00 8.849329e+00
      vertex   -3.759114e+00 -1.000000e+00 8.849329e+00
    endloop
  endfacet
  facet normal -9.927089e-01 0.000000e+00 -1.205367e-01
    outer loop
      vertex   -3.759114e+00 -1.000000e+00 8.849329e+00
      vertex   -3.831230e+00 -1.000000e+00 9.443256e+00
      vertex   -3.831230e+00 1.000000e+00 9.443256e+00
    endloop
  endfacet
  facet normal -8.229839e-01 0.000000e+00 -5.680647e-01
    outer loop
      vertex   -4.171097e+00 1.000000e+00 9.935638e+00
      vertex   -3.831230e+00 1.000000e+00 9.443256e+00
      vertex   -3.831230e+00 -1.000000e+00 9.443256e+00
    endloop
  endfacet
  facet normal -8.229839e-01 0.000000e+00 -5.680647e-01
    outer loop
      vertex   -3.831230e+00 -1.000000e+00 9.443256e+00
      vertex   -4.171097e+00 -1.000000e+00 9.935638e+00
      vertex   -4.171097e+00 1.000000e+00 9.935638e+00
    endloop
  endfacet
  facet normal -4.647232e-01 -2.897086e-17 -8.854560e-01
    outer loop
      vertex   -4.700855e+00 1.000000e+00 1.021368e+01
      vertex   -4.171097e+00 1.000000e+00 9.935638e+00
      vertex   -4.171097e+00 -1.000000e+00 9.935638e+00
    endloop
  endfacet
  facet normal -4.647232e-01 -2.897086e-17 -8.854560e-01
    outer loop
      vertex   -4.171097e+00 -1.000000e+00 9.935638e+00
      vertex   -4.700855e+00 -1.000000e+00 1.021368e+01
      vertex   -4.700855e+00 1.000000e+00 1.021368e+01
    endloop
  endfacet
  facet normal 0.000000e+00 0.000000e+00 -1.000000e+00
    outer loop
      vertex   -5.299145e+00 1.000000e+00 1.021368e+01
      vertex   -4.700855e+00 1.000000e+00 1.021368e+01
      vertex   -4.700855e+00 -1.000000e+00 1.021368e+01
    endloop
  endfacet
  facet normal 0.000000e+00 0.000000e+00 -1.000000e+00
    outer loop
      vertex   -4.700855e+00 -1.000000e+00 1.021368e+01
      vertex   -5.299145e+00 -1.000000e+00 1.021368e+01
      vertex   -5.299145e+00 1.000000e+00 1.021368e+01
    endloop
  endfacet
  facet normal 4.647232e-01 0.000000e+00 -8.854560e-01
    outer loop
      vertex   -5.828903e+00 1.000000e+00 9.935638e+00
      vertex   -5.299145e+00 1.000000e+00 1.021368e+01
      vertex   -5.299145e+00 -1.000000e+00 1.021368e+01
    endloop
  endfacet
  facet normal 4.647232e-01 0.000000e+00 -8.854560e-01
    outer loop
      vertex   -5.299145e+00 -1.000000e+00 1.021368e+01
      vertex   -5.828903e+00 -1.000000e+00 9.935638e+00
      vertex   -5.828903e+00 1.000000e+00 9.935638e+00
    endloop
  endfacet
  facet normal 8.229839e-01 0.000000e+00 -5.680647e-01
    outer loop
      vertex   -6.168770e+00 1.000000e+00 9.443256e+00
      vertex   -5.828903e+00 1.000000e+00 9.935638e+00
      vertex   -5.828903e+00 -1.000000e+00 9.935638e+00
    endloop
  endfacet
  facet normal 8.229839e-01 0.000000e+00 -5.680647e-01
    outer loop
      vertex   -5.828903e+00 -1.000000e+00 9.935638e+00
      vertex   -6.168770e+00 -1.000000e+00 9.443256e+00
      vertex   -6.168770e+00 1.000000e+00 9.443256e+00
    endloop
  endfacet
  facet normal 9.927089e-01 -7.242715e-18 -1.205367e-01
    outer loop
      vertex   -6.240886e+00 1.000000e+00 8.849329e+00
      vertex   -6.168770e+00 1.000000e+00 9.443256e+00
      vertex   -6.168770e+00 -1.000000e+00 9.443256e+00
    endloop
  endfacet
  facet normal 9.927089e-01 -7.242715e-18 -1.205367e-01
    outer loop
      vertex   -6.168770e+00 -1.000000e+00 9.443256e+00
      vertex   -6.240886e+00 -1.000000e+00 8.849329e+00
      vertex   -6.240886e+00 1.000000e+00 8.849329e+00
    endloop
  endfacet
  facet normal 9.350162e-01 0.000000e+00 3.546049e-01
    outer loop
      vertex   -6.028730e+00 1.000000e+00 8.289919e+00
      vertex   -6.240886e+00 1.000000e+00 8.849329e+00
      vertex   -6.240886e+00 -1.000000e+00 8.849329e+00
    endloop
  endfacet
  facet normal 9.350162e-01 0.000000e+00 3.546049e-01
    outer loop
      vertex   -6.240886e+00 -1.000000e+00 8.849329e+00
      vertex   -6.028730e+00 -1.000000e+00 8.289919e+00
      vertex   -6.028730e+00 1.000000e+00 8.289919e+00
    endloop
  endfacet
  facet normal 6.631227e-01 -2.897086e-17 7.485107e-01
    outer loop
      vertex   -5.580904e+00 1.000000e+00 7.893180e+00
      vertex   -6.028730e+00 1.000000e+00 8.289919e+00
      vertex   -6.028730e+00 -1.000000e+00 8.289919e+00
    endloop
  endfacet
  facet normal 6.631227e-01 -2.897086e-17 7.485107e-01
    outer loop
      vertex   -6.028730e+00 -1.000000e+00 8.289919e+00
      vertex   -5.580904e+00 -1.000000e+00 7.893180e+00
      vertex   -5.580904e+00 1.000000e+00 7.893180e+00
    endloop
  endfacet
  facet normal 2.393157e-01 0.000000e+00 9.709418e-01
    outer loop
      vertex   -5.000000e+00 1.000000e+00 7.750000e+00
      vertex   -5.580904e+00 1.000000e+00 7.893180e+00
      vertex   -5.580904e+00 -1.000000e+00 7.893180e+00
    endloop
  endfacet
  facet normal 2.393157e-01 0.000000e+00 9.709418e-01
    outer loop
      vertex   -5.580904e+00 -1.000000e+00 7.893180e+00
      vertex   -5.000000e+00 -1.000000e+00 7.750000e+00
      vertex   -5.000000e+00 1.000000e+00 7.750000e+00
    endloop
  endfacet
endsolid
