solid ascii
  facet normal 0.000000e+00 0.000000e+00 -1.000000e+00
    outer loop
      vertex   -6.750000e+00 0.000000e+00 0.000000e+00
      vertex   -6.553857e+00 1.615381e+00 0.000000e+00
      vertex   0.000000e+00 0.000000e+00 0.000000e+00
    endloop
  endfacet
  facet normal 0.000000e+00 0.000000e+00 -1.000000e+00
    outer loop
      vertex   -6.553857e+00 -1.615381e+00 0.000000e+00
      vertex   -6.750000e+00 0.000000e+00 0.000000e+00
      vertex   0.000000e+00 0.000000e+00 0.000000e+00
    endloop
  endfacet
  facet normal 0.000000e+00 0.000000e+00 -1.000000e+00
    outer loop
      vertex   -3.834437e+00 -5.555141e+00 0.000000e+00
      vertex   -5.052448e+00 -4.476078e+00 0.000000e+00
      vertex   0.000000e+00 0.000000e+00 0.000000e+00
    endloop
  endfacet
  facet normal 0.000000e+00 0.000000e+00 -1.000000e+00
    outer loop
      vertex   -5.052448e+00 -4.476078e+00 0.000000e+00
      vertex   -5.976828e+00 -3.136881e+00 0.000000e+00
      vertex   0.000000e+00 0.000000e+00 0.000000e+00
    endloop
  endfacet
  facet normal 0.000000e+00 0.000000e+00 -1.000000e+00
    outer loop
      vertex   -5.976828e+00 -3.136881e+00 0.000000e+00
      vertex   -6.553857e+00 -1.615381e+00 0.000000e+00
      vertex   0.000000e+00 0.000000e+00 0.000000e+00
    endloop
  endfacet
  facet normal -0.000000e+00 0.000000e+00 -1.000000e+00
    outer loop
      vertex   8.136226e-01 -6.700785e+00 0.000000e+00
      vertex   -8.136226e-01 -6.700785e+00 0.000000e+00
      vertex   0.000000e+00 0.000000e+00 0.000000e+00
    endloop
  endfacet
  facet normal 0.000000e+00 0.000000e+00 -1.000000e+00
    outer loop
      vertex   -8.136226e-01 -6.700785e+00 0.000000e+00
      vertex   -2.393583e+00 -6.311360e+00 0.000000e+00
      vertex   0.000000e+00 0.000000e+00 0.000000e+00
    endloop
  endfacet
  facet normal 0.000000e+00 0.000000e+00 -1.000000e+00
    outer loop
      vertex   -2.393583e+00 -6.311360e+00 0.000000e+00
      vertex   -3.834437e+00 -5.555141e+00 0.000000e+00
      vertex   0.000000e+00 0.000000e+00 0.000000e+00
    endloop
  endfacet
  facet normal -0.000000e+00 0.000000e+00 -1.000000e+00
    outer loop
      vertex   5.052448e+00 -4.476078e+00 0.000000e+00
      vertex   3.834437e+00 -5.555141e+00 0.000000e+00
      vertex   0.000000e+00 0.000000e+00 0.000000e+00
    endloop
  endfacet
  facet normal -0.000000e+00 0.000000e+00 -1.000000e+00
    outer loop
      vertex   3.834437e+00 -5.555141e+00 0.000000e+00
      vertex   2.393583e+00 -6.311360e+00 0.000000e+00
      vertex   0.000000e+00 0.000000e+00 0.000000e+00
    endloop
  endfacet
  facet normal -0.000000e+00 0.000000e+00 -1.000000e+00
    outer loop
      vertex   2.393583e+00 -6.311360e+00 0.000000e+00
      vertex   8.136226e-01 -6.700785e+00 0.000000e+00
      vertex   0.000000e+00 0.000000e+00 0.000000e+00
    endloop
  endfacet
  facet normal 0.000000e+00 0.000000e+00 -1.000000e+00
    outer loop
      vertex   6.750000e+00 8.266366e-16 0.000000e+00
      vertex   6.553857e+00 -1.615381e+00 0.000000e+00
      vertex   0.000000e+00 0.000000e+00 0.000000e+00
    endloop
  endfacet
  facet normal -0.000000e+00 0.000000e+00 -1.000000e+00
    outer loop
      vertex   6.553857e+00 -1.615381e+00 0.000000e+00
      vertex   5.976828e+00 -3.136881e+00 0.000000e+00
      vertex   0.000000e+00 0.000000e+00 0.000000e+00
    endloop
  endfacet
  facet normal -0.000000e+00 0.000000e+00 -1.000000e+00
    outer loop
      vertex   5.976828e+00 -3.136881e+00 0.000000e+00
      vertex   5.052448e+00 -4.476078e+00 0.000000e+00
      vertex   0.000000e+00 0.000000e+00 0.000000e+00
    endloop
  endfacet
  facet normal 0.000000e+00 -0.000000e+00 -1.000000e+00
    outer loop
      vertex   5.052448e+00 4.476078e+00 0.000000e+00
      vertex   5.976828e+00 3.136881e+00 0.000000e+00
      vertex   0.000000e+00 0.000000e+00 0.000000e+00
    endloop
  endfacet
  facet normal 0.000000e+00 -0.000000e+00 -1.000000e+00
    outer loop
      vertex   5.976828e+00 3.136881e+00 0.000000e+00
      vertex   6.553857e+00 1.615381e+00 0.000000e+00
      vertex   0.000000e+00 0.000000e+00 0.000000e+00
    endloop
  endfacet
  facet normal 0.000000e+00 -0.000000e+00 -1.000000e+00
    outer loop
      vertex   6.553857e+00 1.615381e+00 0.000000e+00
      vertex   6.750000e+00 8.266366e-16 0.000000e+00
      vertex   0.000000e+00 0.000000e+00 0.000000e+00
    endloop
  endfacet
  facet normal 0.000000e+00 -0.000000e+00 -1.000000e+00
    outer loop
      vertex   8.136226e-01 6.700785e+00 0.000000e+00
      vertex   2.393583e+00 6.311360e+00 0.000000e+00
      vertex   0.000000e+00 0.000000e+00 0.000000e+00
    endloop
  endfacet
  facet normal 0.000000e+00 -0.000000e+00 -1.000000e+00
    outer loop
      vertex   2.393583e+00 6.311360e+00 0.000000e+00
      vertex   3.834437e+00 5.555141e+00 0.000000e+00
      vertex   0.000000e+00 0.000000e+00 0.000000e+00
    endloop
  endfacet
  facet normal 0.000000e+00 -0.000000e+00 -1.000000e+00
    outer loop
      vertex   3.834437e+00 5.555141e+00 0.000000e+00
      vertex   5.052448e+00 4.476078e+00 0.000000e+00
      vertex   0.000000e+00 0.000000e+00 0.000000e+00
    endloop
  endfacet
  facet normal 0.000000e+00 0.000000e+00 -1.000000e+00
    outer loop
      vertex   -3.834437e+00 5.555141e+00 0.000000e+00
      vertex   -2.393583e+00 6.311360e+00 0.000000e+00
      vertex   0.000000e+00 0.000000e+00 0.000000e+00
    endloop
  endfacet
  facet normal 0.000000e+00 0.000000e+00 -1.000000e+00
    outer loop
      vertex   -2.393583e+00 6.311360e+00 0.000000e+00
      vertex   -8.136226e-01 6.700785e+00 0.000000e+00
      vertex   0.000000e+00 0.000000e+00 0.000000e+00
    endloop
  endfacet
  facet normal 0.000000e+00 0.000000e+00 -1.000000e+00
    outer loop
      vertex   -8.136226e-01 6.700785e+00 0.000000e+00
      vertex   8.136226e-01 6.700785e+00 0.000000e+00
      vertex   0.000000e+00 0.000000e+00 0.000000e+00
    endloop
  endfacet
  facet normal 0.000000e+00 0.000000e+00 -1.000000e+00
    outer loop
      vertex   0.000000e+00 0.000000e+00 0.000000e+00
      vertex   -6.553857e+00 1.615381e+00 0.000000e+00
      vertex   -5.976828e+00 3.136881e+00 0.000000e+00
    endloop
  endfacet
  facet normal 0.000000e+00 0.000000e+00 -1.000000e+00
    outer loop
      vertex   -5.976828e+00 3.136881e+00 0.000000e+00
      vertex   -5.052448e+00 4.476078e+00 0.000000e+00
      vertex   0.000000e+00 0.000000e+00 0.000000e+00
    endloop
  endfacet
  facet normal 0.000000e+00 0.000000e+00 -1.000000e+00
    outer loop
      vertex   -5.052448e+00 4.476078e+00 0.000000e+00
      vertex   -3.834437e+00 5.555141e+00 0.000000e+00
      vertex   0.000000e+00 0.000000e+00 0.000000e+00
    endloop
  endfacet
  facet normal -9.927089e-01 1.205367e-01 0.000000e+00
    outer loop
      vertex   -6.553857e+00 1.615381e+00 1.000000e+00
      vertex   -6.553857e+00 1.615381e+00 0.000000e+00
      vertex   -6.750000e+00 0.000000e+00 0.000000e+00
    endloop
  endfacet
  facet normal -9.350162e-01 3.546049e-01 0.000000e+00
    outer loop
      vertex   -6.553857e+00 1.615381e+00 0.000000e+00
      vertex   -6.553857e+00 1.615381e+00 1.000000e+00
      vertex   -5.976828e+00 3.136881e+00 1.000000e+00
    endloop
  endfacet
  facet normal -9.350162e-01 3.546049e-01 0.000000e+00
    outer loop
      vertex   -5.976828e+00 3.136881e+00 1.000000e+00
      vertex   -5.976828e+00 3.136881e+00 0.000000e+00
      vertex   -6.553857e+00 1.615381e+00 0.000000e+00
    endloop
  endfacet
  facet normal -8.229839e-01 5.680647e-01 0.000000e+00
    outer loop
      vertex   -5.976828e+00 3.136881e+00 0.000000e+00
      vertex   -5.976828e+00 3.136881e+00 1.000000e+00
      vertex   -5.052448e+00 4.476078e+00 1.000000e+00
    endloop
  endfacet
  facet normal -8.229839e-01 5.680647e-01 0.000000e+00
    outer loop
      vertex   -5.052448e+00 4.476078e+00 1.000000e+00
      vertex   -5.052448e+00 4.476078e+00 0.000000e+00
      vertex   -5.976828e+00 3.136881e+00 0.000000e+00
    endloop
  endfacet
  facet normal -6.631227e-01 7.485107e-01 0.000000e+00
    outer loop
      vertex   -5.052448e+00 4.476078e+00 0.000000e+00
      vertex   -5.052448e+00 4.476078e+00 1.000000e+00
      vertex   -3.834437e+00 5.555141e+00 1.000000e+00
    endloop
  endfacet
  facet normal -6.631227e-01 7.485107e-01 0.000000e+00
    outer loop
      vertex   -3.834437e+00 5.555141e+00 1.000000e+00
      vertex   -3.834437e+00 5.555141e+00 0.000000e+00
      vertex   -5.052448e+00 4.476078e+00 0.000000e+00
    endloop
  endfacet
  facet normal -4.647232e-01 8.854560e-01 0.000000e+00
    outer loop
      vertex   -3.834437e+00 5.555141e+00 0.000000e+00
      vertex   -3.834437e+00 5.555141e+00 1.000000e+00
      vertex   -2.393583e+00 6.311360e+00 1.000000e+00
    endloop
  endfacet
  facet normal -4.647232e-01 8.854560e-01 0.000000e+00
    outer loop
      vertex   -2.393583e+00 6.311360e+00 1.000000e+00
      vertex   -2.393583e+00 6.311360e+00 0.000000e+00
      vertex   -3.834437e+00 5.555141e+00 0.000000e+00
    endloop
  endfacet
  facet normal -2.393157e-01 9.709418e-01 0.000000e+00
    outer loop
      vertex   -2.393583e+00 6.311360e+00 0.000000e+00
      vertex   -2.393583e+00 6.311360e+00 1.000000e+00
      vertex   -8.136226e-01 6.700785e+00 1.000000e+00
    endloop
  endfacet
  facet normal -2.393157e-01 9.709418e-01 0.000000e+00
    outer loop
      vertex   -8.136226e-01 6.700785e+00 1.000000e+00
      vertex   -8.136226e-01 6.700785e+00 0.000000e+00
      vertex   -2.393583e+00 6.311360e+00 0.000000e+00
    endloop
  endfacet
  facet normal 0.000000e+00 1.000000e+00 0.000000e+00
    outer loop
      vertex   -8.136226e-01 6.700785e+00 0.000000e+00
      vertex   -8.136226e-01 6.700785e+00 1.000000e+00
      vertex   8.136226e-01 6.700785e+00 1.000000e+00
    endloop
  endfacet
  facet normal 0.000000e+00 1.000000e+00 0.000000e+00
    outer loop
      vertex   8.136226e-01 6.700785e+00 1.000000e+00
      vertex   8.136226e-01 6.700785e+00 0.000000e+00
      vertex   -8.136226e-01 6.700785e+00 0.000000e+00
    endloop
  endfacet
  facet normal 2.393157e-01 9.709418e-01 -0.000000e+00
    outer loop
      vertex   8.136226e-01 6.700785e+00 0.000000e+00
      vertex   8.136226e-01 6.700785e+00 1.000000e+00
      vertex   2.393583e+00 6.311360e+00 1.000000e+00
    endloop
  endfacet
  facet normal 2.393157e-01 9.709418e-01 0.000000e+00
    outer loop
      vertex   2.393583e+00 6.311360e+00 1.000000e+00
      vertex   2.393583e+00 6.311360e+00 0.000000e+00
      vertex   8.136226e-01 6.700785e+00 0.000000e+00
    endloop
  endfacet
  facet normal 4.647232e-01 8.854560e-01 -0.000000e+00
    outer loop
      vertex   2.393583e+00 6.311360e+00 0.000000e+00
      vertex   2.393583e+00 6.311360e+00 1.000000e+00
      vertex   3.834437e+00 5.555141e+00 1.000000e+00
    endloop
  endfacet
  facet normal 4.647232e-01 8.854560e-01 0.000000e+00
    outer loop
      vertex   3.834437e+00 5.555141e+00 1.000000e+00
      vertex   3.834437e+00 5.555141e+00 0.000000e+00
      vertex   2.393583e+00 6.311360e+00 0.000000e+00
    endloop
  endfacet
  facet normal 6.631227e-01 7.485107e-01 -0.000000e+00
    outer loop
      vertex   3.834437e+00 5.555141e+00 0.000000e+00
      vertex   3.834437e+00 5.555141e+00 1.000000e+00
      vertex   5.052448e+00 4.476078e+00 1.000000e+00
    endloop
  endfacet
  facet normal 6.631227e-01 7.485107e-01 0.000000e+00
    outer loop
      vertex   5.052448e+00 4.476078e+00 1.000000e+00
      vertex   5.052448e+00 4.476078e+00 0.000000e+00
      vertex   3.834437e+00 5.555141e+00 0.000000e+00
    endloop
  endfacet
  facet normal 8.229839e-01 5.680647e-01 -0.000000e+00
    outer loop
      vertex   5.052448e+00 4.476078e+00 0.000000e+00
      vertex   5.052448e+00 4.476078e+00 1.000000e+00
      vertex   5.976828e+00 3.136881e+00 1.000000e+00
    endloop
  endfacet
  facet normal 8.229839e-01 5.680647e-01 0.000000e+00
    outer loop
      vertex   5.976828e+00 3.136881e+00 1.000000e+00
      vertex   5.976828e+00 3.136881e+00 0.000000e+00
      vertex   5.052448e+00 4.476078e+00 0.000000e+00
    endloop
  endfacet
  facet normal 9.350162e-01 3.546049e-01 -0.000000e+00
    outer loop
      vertex   5.976828e+00 3.136881e+00 0.000000e+00
      vertex   5.976828e+00 3.136881e+00 1.000000e+00
      vertex   6.553857e+00 1.615381e+00 1.000000e+00
    endloop
  endfacet
  facet normal 9.350162e-01 3.546049e-01 0.000000e+00
    outer loop
      vertex   6.553857e+00 1.615381e+00 1.000000e+00
      vertex   6.553857e+00 1.615381e+00 0.000000e+00
      vertex   5.976828e+00 3.136881e+00 0.000000e+00
    endloop
  endfacet
  facet normal 9.927089e-01 1.205367e-01 -0.000000e+00
    outer loop
      vertex   6.553857e+00 1.615381e+00 0.000000e+00
      vertex   6.553857e+00 1.615381e+00 1.000000e+00
      vertex   6.750000e+00 8.266366e-16 1.000000e+00
    endloop
  endfacet
  facet normal 9.927089e-01 1.205367e-01 0.000000e+00
    outer loop
      vertex   6.750000e+00 8.266366e-16 1.000000e+00
      vertex   6.750000e+00 8.266366e-16 0.000000e+00
      vertex   6.553857e+00 1.615381e+00 0.000000e+00
    endloop
  endfacet
  facet normal 9.927089e-01 -1.205367e-01 0.000000e+00
    outer loop
      vertex   6.750000e+00 8.266366e-16 0.000000e+00
      vertex   6.750000e+00 8.266366e-16 1.000000e+00
      vertex   6.553857e+00 -1.615381e+00 1.000000e+00
    endloop
  endfacet
  facet normal 9.927089e-01 -1.205367e-01 0.000000e+00
    outer loop
      vertex   6.553857e+00 -1.615381e+00 1.000000e+00
      vertex   6.553857e+00 -1.615381e+00 0.000000e+00
      vertex   6.750000e+00 8.266366e-16 0.000000e+00
    endloop
  endfacet
  facet normal 9.350162e-01 -3.546049e-01 0.000000e+00
    outer loop
      vertex   6.553857e+00 -1.615381e+00 0.000000e+00
      vertex   6.553857e+00 -1.615381e+00 1.000000e+00
      vertex   5.976828e+00 -3.136881e+00 1.000000e+00
    endloop
  endfacet
  facet normal 9.350162e-01 -3.546049e-01 0.000000e+00
    outer loop
      vertex   5.976828e+00 -3.136881e+00 1.000000e+00
      vertex   5.976828e+00 -3.136881e+00 0.000000e+00
      vertex   6.553857e+00 -1.615381e+00 0.000000e+00
    endloop
  endfacet
  facet normal 8.229839e-01 -5.680647e-01 0.000000e+00
    outer loop
      vertex   5.976828e+00 -3.136881e+00 0.000000e+00
      vertex   5.976828e+00 -3.136881e+00 1.000000e+00
      vertex   5.052448e+00 -4.476078e+00 1.000000e+00
    endloop
  endfacet
  facet normal 8.229839e-01 -5.680647e-01 0.000000e+00
    outer loop
      vertex   5.052448e+00 -4.476078e+00 1.000000e+00
      vertex   5.052448e+00 -4.476078e+00 0.000000e+00
      vertex   5.976828e+00 -3.136881e+00 0.000000e+00
    endloop
  endfacet
  facet normal 6.631227e-01 -7.485107e-01 0.000000e+00
    outer loop
      vertex   5.052448e+00 -4.476078e+00 0.000000e+00
      vertex   5.052448e+00 -4.476078e+00 1.000000e+00
      vertex   3.834437e+00 -5.555141e+00 1.000000e+00
    endloop
  endfacet
  facet normal 6.631227e-01 -7.485107e-01 0.000000e+00
    outer loop
      vertex   3.834437e+00 -5.555141e+00 1.000000e+00
      vertex   3.834437e+00 -5.555141e+00 0.000000e+00
      vertex   5.052448e+00 -4.476078e+00 0.000000e+00
    endloop
  endfacet
  facet normal 4.647232e-01 -8.854560e-01 0.000000e+00
    outer loop
      vertex   3.834437e+00 -5.555141e+00 0.000000e+00
      vertex   3.834437e+00 -5.555141e+00 1.000000e+00
      vertex   2.393583e+00 -6.311360e+00 1.000000e+00
    endloop
  endfacet
  facet normal 4.647232e-01 -8.854560e-01 0.000000e+00
    outer loop
      vertex   2.393583e+00 -6.311360e+00 1.000000e+00
      vertex   2.393583e+00 -6.311360e+00 0.000000e+00
      vertex   3.834437e+00 -5.555141e+00 0.000000e+00
    endloop
  endfacet
  facet normal 2.393157e-01 -9.709418e-01 0.000000e+00
    outer loop
      vertex   2.393583e+00 -6.311360e+00 0.000000e+00
      vertex   2.393583e+00 -6.311360e+00 1.000000e+00
      vertex   8.136226e-01 -6.700785e+00 1.000000e+00
    endloop
  endfacet
  facet normal 2.393157e-01 -9.709418e-01 0.000000e+00
    outer loop
      vertex   8.136226e-01 -6.700785e+00 1.000000e+00
      vertex   8.136226e-01 -6.700785e+00 0.000000e+00
      vertex   2.393583e+00 -6.311360e+00 0.000000e+00
    endloop
  endfacet
  facet normal 5.330246e-16 -1.000000e+00 0.000000e+00
    outer loop
      vertex   8.136226e-01 -6.700785e+00 0.000000e+00
      vertex   8.136226e-01 -6.700785e+00 1.000000e+00
      vertex   -8.136226e-01 -6.700785e+00 1.000000e+00
    endloop
  endfacet
  facet normal 5.330246e-16 -1.000000e+00 0.000000e+00
    outer loop
      vertex   -8.136226e-01 -6.700785e+00 1.000000e+00
      vertex   -8.136226e-01 -6.700785e+00 0.000000e+00
      vertex   8.136226e-01 -6.700785e+00 0.000000e+00
    endloop
  endfacet
  facet normal -2.393157e-01 -9.709418e-01 0.000000e+00
    outer loop
      vertex   -8.136226e-01 -6.700785e+00 0.000000e+00
      vertex   -8.136226e-01 -6.700785e+00 1.000000e+00
      vertex   -2.393583e+00 -6.311360e+00 1.000000e+00
    endloop
  endfacet
  facet normal -2.393157e-01 -9.709418e-01 -0.000000e+00
    outer loop
      vertex   -2.393583e+00 -6.311360e+00 1.000000e+00
      vertex   -2.393583e+00 -6.311360e+00 0.000000e+00
      vertex   -8.136226e-01 -6.700785e+00 0.000000e+00
    endloop
  endfacet
  facet normal -4.647232e-01 -8.854560e-01 0.000000e+00
    outer loop
      vertex   -2.393583e+00 -6.311360e+00 0.000000e+00
      vertex   -2.393583e+00 -6.311360e+00 1.000000e+00
      vertex   -3.834437e+00 -5.555141e+00 1.000000e+00
    endloop
  endfacet
  facet normal -4.647232e-01 -8.854560e-01 -0.000000e+00
    outer loop
      vertex   -3.834437e+00 -5.555141e+00 1.000000e+00
      vertex   -3.834437e+00 -5.555141e+00 0.000000e+00
      vertex   -2.393583e+00 -6.311360e+00 0.000000e+00
    endloop
  endfacet
  facet normal -6.631227e-01 -7.485107e-01 0.000000e+00
    outer loop
      vertex   -3.834437e+00 -5.555141e+00 0.000000e+00
      vertex   -3.834437e+00 -5.555141e+00 1.000000e+00
      vertex   -5.052448e+00 -4.476078e+00 1.000000e+00
    endloop
  endfacet
  facet normal -6.631227e-01 -7.485107e-01 -0.000000e+00
    outer loop
      vertex   -5.052448e+00 -4.476078e+00 1.000000e+00
      vertex   -5.052448e+00 -4.476078e+00 0.000000e+00
      vertex   -3.834437e+00 -5.555141e+00 0.000000e+00
    endloop
  endfacet
  facet normal -8.229839e-01 -5.680647e-01 0.000000e+00
    outer loop
      vertex   -5.052448e+00 -4.476078e+00 0.000000e+00
      vertex   -5.052448e+00 -4.476078e+00 1.000000e+00
      vertex   -5.976828e+00 -3.136881e+00 1.000000e+00
    endloop
  endfacet
  facet normal -8.229839e-01 -5.680647e-01 -0.000000e+00
    outer loop
      vertex   -5.976828e+00 -3.136881e+00 1.000000e+00
      vertex   -5.976828e+00 -3.136881e+00 0.000000e+00
      vertex   -5.052448e+00 -4.476078e+00 0.000000e+00
    endloop
  endfacet
  facet normal -9.350162e-01 -3.546049e-01 0.000000e+00
    outer loop
      vertex   -5.976828e+00 -3.136881e+00 0.000000e+00
      vertex   -5.976828e+00 -3.136881e+00 1.000000e+00
      vertex   -6.553857e+00 -1.615381e+00 1.000000e+00
    endloop
  endfacet
  facet normal -9.350162e-01 -3.546049e-01 -0.000000e+00
    outer loop
      vertex   -6.553857e+00 -1.615381e+00 1.000000e+00
      vertex   -6.553857e+00 -1.615381e+00 0.000000e+00
      vertex   -5.976828e+00 -3.136881e+00 0.000000e+00
    endloop
  endfacet
  facet normal -9.927089e-01 -1.205367e-01 0.000000e+00
    outer loop
      vertex   -6.553857e+00 -1.615381e+00 0.000000e+00
      vertex   -6.553857e+00 -1.615381e+00 1.000000e+00
      vertex   -6.750000e+00 -1.653273e-15 1.000000e+00
    endloop
  endfacet
  facet normal -9.927089e-01 -1.205367e-01 -1.992801e-16
    outer loop
      vertex   -6.750000e+00 -1.653273e-15 1.000000e+00
      vertex   -6.750000e+00 0.000000e+00 0.000000e+00
      vertex   -6.553857e+00 -1.615381e+00 0.000000e+00
    endloop
  endfacet
  facet normal -9.927089e-01 1.205367e-01 1.992801e-16
    outer loop
      vertex   -6.750000e+00 0.000000e+00 0.000000e+00
      vertex   -6.750000e+00 -1.653273e-15 1.000000e+00
      vertex   -6.553857e+00 1.615381e+00 1.000000e+00
    endloop
  endfacet
  facet normal 0.000000e+00 0.000000e+00 1.000000e+00
    outer loop
      vertex   6.019558e+00 -2.500000e-01 1.000000e+00
      vertex   6.750000e+00 8.266366e-16 1.000000e+00
      vertex   6.553857e+00 1.615381e+00 1.000000e+00
    endloop
  endfacet
  facet normal 0.000000e+00 -0.000000e+00 1.000000e+00
    outer loop
      vertex   6.553857e+00 -1.615381e+00 1.000000e+00
      vertex   6.750000e+00 8.266366e-16 1.000000e+00
      vertex   6.019558e+00 -2.500000e-01 1.000000e+00
    endloop
  endfacet
  facet normal 0.000000e+00 0.000000e+00 1.000000e+00
    outer loop
      vertex   -6.100000e+00 2.500000e-01 1.000000e+00
      vertex   -6.750000e+00 -1.653273e-15 1.000000e+00
      vertex   -6.553857e+00 -1.615381e+00 1.000000e+00
    endloop
  endfacet
  facet normal 0.000000e+00 0.000000e+00 1.000000e+00
    outer loop
      vertex   -6.553857e+00 1.615381e+00 1.000000e+00
      vertex   -6.750000e+00 -1.653273e-15 1.000000e+00
      vertex   -6.100000e+00 2.500000e-01 1.000000e+00
    endloop
  endfacet
  facet normal 0.000000e+00 -0.000000e+00 1.000000e+00
    outer loop
      vertex   -6.100000e+00 2.500000e-01 1.000000e+00
      vertex   -6.100000e+00 7.500000e-01 1.000000e+00
      vertex   -6.553857e+00 1.615381e+00 1.000000e+00
    endloop
  endfacet
  facet normal 0.000000e+00 0.000000e+00 1.000000e+00
    outer loop
      vertex   -6.553857e+00 1.615381e+00 1.000000e+00
      vertex   -6.100000e+00 7.500000e-01 1.000000e+00
      vertex   -5.377673e+00 7.500000e-01 1.000000e+00
    endloop
  endfacet
  facet normal 0.000000e+00 -0.000000e+00 1.000000e+00
    outer loop
      vertex   -5.377673e+00 7.500000e-01 1.000000e+00
      vertex   -5.016486e+00 2.077677e+00 1.000000e+00
      vertex   -6.553857e+00 1.615381e+00 1.000000e+00
    endloop
  endfacet
  facet normal 0.000000e+00 0.000000e+00 1.000000e+00
    outer loop
      vertex   6.019558e+00 -2.500000e-01 1.000000e+00
      vertex   6.019558e+00 -7.500000e-01 1.000000e+00
      vertex   6.553857e+00 -1.615381e+00 1.000000e+00
    endloop
  endfacet
  facet normal 0.000000e+00 0.000000e+00 1.000000e+00
    outer loop
      vertex   6.553857e+00 -1.615381e+00 1.000000e+00
      vertex   6.019558e+00 -7.500000e-01 1.000000e+00
      vertex   5.377673e+00 -7.500000e-01 1.000000e+00
    endloop
  endfacet
  facet normal 0.000000e+00 0.000000e+00 1.000000e+00
    outer loop
      vertex   5.377673e+00 -7.500000e-01 1.000000e+00
      vertex   5.016486e+00 -2.077677e+00 1.000000e+00
      vertex   6.553857e+00 -1.615381e+00 1.000000e+00
    endloop
  endfacet
  facet normal 0.000000e+00 0.000000e+00 1.000000e+00
    outer loop
      vertex   -5.312654e+00 -1.121420e+00 1.000000e+00
      vertex   -5.423963e+00 2.500000e-01 1.000000e+00
      vertex   -6.100000e+00 2.500000e-01 1.000000e+00
    endloop
  endfacet
  facet normal 0.000000e+00 0.000000e+00 1.000000e+00
    outer loop
      vertex   -6.553857e+00 -1.615381e+00 1.000000e+00
      vertex   -5.312654e+00 -1.121420e+00 1.000000e+00
      vertex   -6.100000e+00 2.500000e-01 1.000000e+00
    endloop
  endfacet
  facet normal 0.000000e+00 0.000000e+00 1.000000e+00
    outer loop
      vertex   -4.860192e+00 -2.420828e+00 1.000000e+00
      vertex   -5.312654e+00 -1.121420e+00 1.000000e+00
      vertex   -6.553857e+00 -1.615381e+00 1.000000e+00
    endloop
  endfacet
  facet normal 0.000000e+00 0.000000e+00 1.000000e+00
    outer loop
      vertex   -6.553857e+00 -1.615381e+00 1.000000e+00
      vertex   -5.976828e+00 -3.136881e+00 1.000000e+00
      vertex   -4.860192e+00 -2.420828e+00 1.000000e+00
    endloop
  endfacet
  facet normal 0.000000e+00 0.000000e+00 1.000000e+00
    outer loop
      vertex   -4.095632e+00 -3.564782e+00 1.000000e+00
      vertex   -4.860192e+00 -2.420828e+00 1.000000e+00
      vertex   -5.976828e+00 -3.136881e+00 1.000000e+00
    endloop
  endfacet
  facet normal 0.000000e+00 0.000000e+00 1.000000e+00
    outer loop
      vertex   -5.976828e+00 -3.136881e+00 1.000000e+00
      vertex   -5.052448e+00 -4.476078e+00 1.000000e+00
      vertex   -4.095632e+00 -3.564782e+00 1.000000e+00
    endloop
  endfacet
  facet normal 0.000000e+00 0.000000e+00 1.000000e+00
    outer loop
      vertex   -3.068071e+00 -4.479823e+00 1.000000e+00
      vertex   -4.095632e+00 -3.564782e+00 1.000000e+00
      vertex   -5.052448e+00 -4.476078e+00 1.000000e+00
    endloop
  endfacet
  facet normal 0.000000e+00 0.000000e+00 1.000000e+00
    outer loop
      vertex   -5.052448e+00 -4.476078e+00 1.000000e+00
      vertex   -3.834437e+00 -5.555141e+00 1.000000e+00
      vertex   -3.068071e+00 -4.479823e+00 1.000000e+00
    endloop
  endfacet
  facet normal 0.000000e+00 0.000000e+00 1.000000e+00
    outer loop
      vertex   -1.843493e+00 -5.107191e+00 1.000000e+00
      vertex   -3.068071e+00 -4.479823e+00 1.000000e+00
      vertex   -3.834437e+00 -5.555141e+00 1.000000e+00
    endloop
  endfacet
  facet normal -0.000000e+00 0.000000e+00 1.000000e+00
    outer loop
      vertex   -3.834437e+00 -5.555141e+00 1.000000e+00
      vertex   -2.393583e+00 -6.311360e+00 1.000000e+00
      vertex   -1.843493e+00 -5.107191e+00 1.000000e+00
    endloop
  endfacet
  facet normal 0.000000e+00 0.000000e+00 1.000000e+00
    outer loop
      vertex   -5.005354e-01 -5.406601e+00 1.000000e+00
      vertex   -1.843493e+00 -5.107191e+00 1.000000e+00
      vertex   -2.393583e+00 -6.311360e+00 1.000000e+00
    endloop
  endfacet
  facet normal -0.000000e+00 0.000000e+00 1.000000e+00
    outer loop
      vertex   -2.393583e+00 -6.311360e+00 1.000000e+00
      vertex   -8.136226e-01 -6.700785e+00 1.000000e+00
      vertex   -5.005354e-01 -5.406601e+00 1.000000e+00
    endloop
  endfacet
  facet normal 0.000000e+00 0.000000e+00 1.000000e+00
    outer loop
      vertex   8.745644e-01 -5.358825e+00 1.000000e+00
      vertex   -5.005354e-01 -5.406601e+00 1.000000e+00
      vertex   -8.136226e-01 -6.700785e+00 1.000000e+00
    endloop
  endfacet
  facet normal 0.000000e+00 0.000000e+00 1.000000e+00
    outer loop
      vertex   -8.136226e-01 -6.700785e+00 1.000000e+00
      vertex   8.136226e-01 -6.700785e+00 1.000000e+00
      vertex   8.745644e-01 -5.358825e+00 1.000000e+00
    endloop
  endfacet
  facet normal 0.000000e+00 0.000000e+00 1.000000e+00
    outer loop
      vertex   2.193504e+00 -4.966932e+00 1.000000e+00
      vertex   8.745644e-01 -5.358825e+00 1.000000e+00
      vertex   8.136226e-01 -6.700785e+00 1.000000e+00
    endloop
  endfacet
  facet normal 0.000000e+00 0.000000e+00 1.000000e+00
    outer loop
      vertex   8.136226e-01 -6.700785e+00 1.000000e+00
      vertex   2.393583e+00 -6.311360e+00 1.000000e+00
      vertex   2.193504e+00 -4.966932e+00 1.000000e+00
    endloop
  endfacet
  facet normal 0.000000e+00 0.000000e+00 1.000000e+00
    outer loop
      vertex   3.371587e+00 -4.256086e+00 1.000000e+00
      vertex   2.193504e+00 -4.966932e+00 1.000000e+00
      vertex   2.393583e+00 -6.311360e+00 1.000000e+00
    endloop
  endfacet
  facet normal 0.000000e+00 0.000000e+00 1.000000e+00
    outer loop
      vertex   2.393583e+00 -6.311360e+00 1.000000e+00
      vertex   3.834437e+00 -5.555141e+00 1.000000e+00
      vertex   3.371587e+00 -4.256086e+00 1.000000e+00
    endloop
  endfacet
  facet normal 0.000000e+00 0.000000e+00 1.000000e+00
    outer loop
      vertex   4.333164e+00 -3.271935e+00 1.000000e+00
      vertex   3.371587e+00 -4.256086e+00 1.000000e+00
      vertex   3.834437e+00 -5.555141e+00 1.000000e+00
    endloop
  endfacet
  facet normal 0.000000e+00 0.000000e+00 1.000000e+00
    outer loop
      vertex   3.834437e+00 -5.555141e+00 1.000000e+00
      vertex   5.052448e+00 -4.476078e+00 1.000000e+00
      vertex   4.333164e+00 -3.271935e+00 1.000000e+00
    endloop
  endfacet
  facet normal 0.000000e+00 0.000000e+00 1.000000e+00
    outer loop
      vertex   5.016486e+00 -2.077677e+00 1.000000e+00
      vertex   4.333164e+00 -3.271935e+00 1.000000e+00
      vertex   5.052448e+00 -4.476078e+00 1.000000e+00
    endloop
  endfacet
  facet normal 0.000000e+00 -0.000000e+00 1.000000e+00
    outer loop
      vertex   5.052448e+00 -4.476078e+00 1.000000e+00
      vertex   5.976828e+00 -3.136881e+00 1.000000e+00
      vertex   5.016486e+00 -2.077677e+00 1.000000e+00
    endloop
  endfacet
  facet normal -0.000000e+00 0.000000e+00 1.000000e+00
    outer loop
      vertex   5.016486e+00 -2.077677e+00 1.000000e+00
      vertex   5.976828e+00 -3.136881e+00 1.000000e+00
      vertex   6.553857e+00 -1.615381e+00 1.000000e+00
    endloop
  endfacet
  facet normal 0.000000e+00 0.000000e+00 1.000000e+00
    outer loop
      vertex   5.312654e+00 1.121420e+00 1.000000e+00
      vertex   5.423963e+00 -2.500000e-01 1.000000e+00
      vertex   6.019558e+00 -2.500000e-01 1.000000e+00
    endloop
  endfacet
  facet normal 0.000000e+00 0.000000e+00 1.000000e+00
    outer loop
      vertex   6.553857e+00 1.615381e+00 1.000000e+00
      vertex   5.312654e+00 1.121420e+00 1.000000e+00
      vertex   6.019558e+00 -2.500000e-01 1.000000e+00
    endloop
  endfacet
  facet normal 0.000000e+00 0.000000e+00 1.000000e+00
    outer loop
      vertex   4.860192e+00 2.420828e+00 1.000000e+00
      vertex   5.312654e+00 1.121420e+00 1.000000e+00
      vertex   6.553857e+00 1.615381e+00 1.000000e+00
    endloop
  endfacet
  facet normal 0.000000e+00 0.000000e+00 1.000000e+00
    outer loop
      vertex   6.553857e+00 1.615381e+00 1.000000e+00
      vertex   5.976828e+00 3.136881e+00 1.000000e+00
      vertex   4.860192e+00 2.420828e+00 1.000000e+00
    endloop
  endfacet
  facet normal 0.000000e+00 0.000000e+00 1.000000e+00
    outer loop
      vertex   4.095632e+00 3.564782e+00 1.000000e+00
      vertex   4.860192e+00 2.420828e+00 1.000000e+00
      vertex   5.976828e+00 3.136881e+00 1.000000e+00
    endloop
  endfacet
  facet normal 0.000000e+00 0.000000e+00 1.000000e+00
    outer loop
      vertex   5.976828e+00 3.136881e+00 1.000000e+00
      vertex   5.052448e+00 4.476078e+00 1.000000e+00
      vertex   4.095632e+00 3.564782e+00 1.000000e+00
    endloop
  endfacet
  facet normal 0.000000e+00 0.000000e+00 1.000000e+00
    outer loop
      vertex   3.068071e+00 4.479823e+00 1.000000e+00
      vertex   4.095632e+00 3.564782e+00 1.000000e+00
      vertex   5.052448e+00 4.476078e+00 1.000000e+00
    endloop
  endfacet
  facet normal 0.000000e+00 0.000000e+00 1.000000e+00
    outer loop
      vertex   5.052448e+00 4.476078e+00 1.000000e+00
      vertex   3.834437e+00 5.555141e+00 1.000000e+00
      vertex   3.068071e+00 4.479823e+00 1.000000e+00
    endloop
  endfacet
  facet normal -0.000000e+00 0.000000e+00 1.000000e+00
    outer loop
      vertex   1.843493e+00 5.107191e+00 1.000000e+00
      vertex   3.068071e+00 4.479823e+00 1.000000e+00
      vertex   3.834437e+00 5.555141e+00 1.000000e+00
    endloop
  endfacet
  facet normal 0.000000e+00 0.000000e+00 1.000000e+00
    outer loop
      vertex   3.834437e+00 5.555141e+00 1.000000e+00
      vertex   2.393583e+00 6.311360e+00 1.000000e+00
      vertex   1.843493e+00 5.107191e+00 1.000000e+00
    endloop
  endfacet
  facet normal -0.000000e+00 0.000000e+00 1.000000e+00
    outer loop
      vertex   5.005354e-01 5.406601e+00 1.000000e+00
      vertex   1.843493e+00 5.107191e+00 1.000000e+00
      vertex   2.393583e+00 6.311360e+00 1.000000e+00
    endloop
  endfacet
  facet normal 0.000000e+00 0.000000e+00 1.000000e+00
    outer loop
      vertex   2.393583e+00 6.311360e+00 1.000000e+00
      vertex   8.136226e-01 6.700785e+00 1.000000e+00
      vertex   5.005354e-01 5.406601e+00 1.000000e+00
    endloop
  endfacet
  facet normal 0.000000e+00 0.000000e+00 1.000000e+00
    outer loop
      vertex   -8.745644e-01 5.358825e+00 1.000000e+00
      vertex   5.005354e-01 5.406601e+00 1.000000e+00
      vertex   8.136226e-01 6.700785e+00 1.000000e+00
    endloop
  endfacet
  facet normal 0.000000e+00 0.000000e+00 1.000000e+00
    outer loop
      vertex   8.136226e-01 6.700785e+00 1.000000e+00
      vertex   -8.136226e-01 6.700785e+00 1.000000e+00
      vertex   -8.745644e-01 5.358825e+00 1.000000e+00
    endloop
  endfacet
  facet normal 0.000000e+00 0.000000e+00 1.000000e+00
    outer loop
      vertex   -2.193504e+00 4.966932e+00 1.000000e+00
      vertex   -8.745644e-01 5.358825e+00 1.000000e+00
      vertex   -8.136226e-01 6.700785e+00 1.000000e+00
    endloop
  endfacet
  facet normal 0.000000e+00 0.000000e+00 1.000000e+00
    outer loop
      vertex   -8.136226e-01 6.700785e+00 1.000000e+00
      vertex   -2.393583e+00 6.311360e+00 1.000000e+00
      vertex   -2.193504e+00 4.966932e+00 1.000000e+00
    endloop
  endfacet
  facet normal 0.000000e+00 0.000000e+00 1.000000e+00
    outer loop
      vertex   -3.371587e+00 4.256086e+00 1.000000e+00
      vertex   -2.193504e+00 4.966932e+00 1.000000e+00
      vertex   -2.393583e+00 6.311360e+00 1.000000e+00
    endloop
  endfacet
  facet normal 0.000000e+00 0.000000e+00 1.000000e+00
    outer loop
      vertex   -2.393583e+00 6.311360e+00 1.000000e+00
      vertex   -3.834437e+00 5.555141e+00 1.000000e+00
      vertex   -3.371587e+00 4.256086e+00 1.000000e+00
    endloop
  endfacet
  facet normal 0.000000e+00 0.000000e+00 1.000000e+00
    outer loop
      vertex   -4.333164e+00 3.271935e+00 1.000000e+00
      vertex   -3.371587e+00 4.256086e+00 1.000000e+00
      vertex   -3.834437e+00 5.555141e+00 1.000000e+00
    endloop
  endfacet
  facet normal 0.000000e+00 0.000000e+00 1.000000e+00
    outer loop
      vertex   -3.834437e+00 5.555141e+00 1.000000e+00
      vertex   -5.052448e+00 4.476078e+00 1.000000e+00
      vertex   -4.333164e+00 3.271935e+00 1.000000e+00
    endloop
  endfacet
  facet normal 0.000000e+00 -0.000000e+00 1.000000e+00
    outer loop
      vertex   -5.016486e+00 2.077677e+00 1.000000e+00
      vertex   -4.333164e+00 3.271935e+00 1.000000e+00
      vertex   -5.052448e+00 4.476078e+00 1.000000e+00
    endloop
  endfacet
  facet normal 0.000000e+00 0.000000e+00 1.000000e+00
    outer loop
      vertex   -5.052448e+00 4.476078e+00 1.000000e+00
      vertex   -5.976828e+00 3.136881e+00 1.000000e+00
      vertex   -5.016486e+00 2.077677e+00 1.000000e+00
    endloop
  endfacet
  facet normal 0.000000e+00 0.000000e+00 1.000000e+00
    outer loop
      vertex   -5.016486e+00 2.077677e+00 1.000000e+00
      vertex   -5.976828e+00 3.136881e+00 1.000000e+00
      vertex   -6.553857e+00 1.615381e+00 1.000000e+00
    endloop
  endfacet
  facet normal 9.967224e-01 8.089734e-02 0.000000e+00
    outer loop
      vertex   5.423963e+00 -2.500000e-01 1.500000e+00
      vertex   5.423963e+00 -2.500000e-01 1.000000e+00
      vertex   5.312654e+00 1.121420e+00 1.000000e+00
    endloop
  endfacet
  facet normal 9.967224e-01 8.089734e-02 -0.000000e+00
    outer loop
      vertex   5.312654e+00 1.121420e+00 1.000000e+00
      vertex   5.312654e+00 1.121420e+00 1.500000e+00
      vertex   5.423963e+00 -2.500000e-01 1.500000e+00
    endloop
  endfacet
  facet normal 9.443854e-01 3.288408e-01 0.000000e+00
    outer loop
      vertex   5.312654e+00 1.121420e+00 1.500000e+00
      vertex   5.312654e+00 1.121420e+00 1.000000e+00
      vertex   4.860192e+00 2.420828e+00 1.000000e+00
    endloop
  endfacet
  facet normal 9.443854e-01 3.288408e-01 -0.000000e+00
    outer loop
      vertex   4.860192e+00 2.420828e+00 1.000000e+00
      vertex   4.860192e+00 2.420828e+00 1.500000e+00
      vertex   5.312654e+00 1.121420e+00 1.500000e+00
    endloop
  endfacet
  facet normal 8.314045e-01 5.556677e-01 0.000000e+00
    outer loop
      vertex   4.860192e+00 2.420828e+00 1.500000e+00
      vertex   4.860192e+00 2.420828e+00 1.000000e+00
      vertex   4.095632e+00 3.564782e+00 1.000000e+00
    endloop
  endfacet
  facet normal 8.314045e-01 5.556677e-01 -0.000000e+00
    outer loop
      vertex   4.095632e+00 3.564782e+00 1.000000e+00
      vertex   4.095632e+00 3.564782e+00 1.500000e+00
      vertex   4.860192e+00 2.420828e+00 1.500000e+00
    endloop
  endfacet
  facet normal 6.650348e-01 7.468123e-01 0.000000e+00
    outer loop
      vertex   4.095632e+00 3.564782e+00 1.500000e+00
      vertex   4.095632e+00 3.564782e+00 1.000000e+00
      vertex   3.068071e+00 4.479823e+00 1.000000e+00
    endloop
  endfacet
  facet normal 6.650348e-01 7.468123e-01 -0.000000e+00
    outer loop
      vertex   3.068071e+00 4.479823e+00 1.000000e+00
      vertex   3.068071e+00 4.479823e+00 1.500000e+00
      vertex   4.095632e+00 3.564782e+00 1.500000e+00
    endloop
  endfacet
  facet normal 4.559599e-01 8.900003e-01 0.000000e+00
    outer loop
      vertex   3.068071e+00 4.479823e+00 1.500000e+00
      vertex   3.068071e+00 4.479823e+00 1.000000e+00
      vertex   1.843493e+00 5.107191e+00 1.000000e+00
    endloop
  endfacet
  facet normal 4.559599e-01 8.900003e-01 -0.000000e+00
    outer loop
      vertex   1.843493e+00 5.107191e+00 1.000000e+00
      vertex   1.843493e+00 5.107191e+00 1.500000e+00
      vertex   3.068071e+00 4.479823e+00 1.500000e+00
    endloop
  endfacet
  facet normal 2.176054e-01 9.760368e-01 0.000000e+00
    outer loop
      vertex   1.843493e+00 5.107191e+00 1.500000e+00
      vertex   1.843493e+00 5.107191e+00 1.000000e+00
      vertex   5.005354e-01 5.406601e+00 1.000000e+00
    endloop
  endfacet
  facet normal 2.176054e-01 9.760368e-01 -0.000000e+00
    outer loop
      vertex   5.005354e-01 5.406601e+00 1.000000e+00
      vertex   5.005354e-01 5.406601e+00 1.500000e+00
      vertex   1.843493e+00 5.107191e+00 1.500000e+00
    endloop
  endfacet
  facet normal -3.472259e-02 9.993970e-01 0.000000e+00
    outer loop
      vertex   5.005354e-01 5.406601e+00 1.500000e+00
      vertex   5.005354e-01 5.406601e+00 1.000000e+00
      vertex   -8.745644e-01 5.358825e+00 1.000000e+00
    endloop
  endfacet
  facet normal -3.472259e-02 9.993970e-01 0.000000e+00
    outer loop
      vertex   -8.745644e-01 5.358825e+00 1.000000e+00
      vertex   -8.745644e-01 5.358825e+00 1.500000e+00
      vertex   5.005354e-01 5.406601e+00 1.500000e+00
    endloop
  endfacet
  facet normal -2.848209e-01 9.585808e-01 0.000000e+00
    outer loop
      vertex   -8.745644e-01 5.358825e+00 1.500000e+00
      vertex   -8.745644e-01 5.358825e+00 1.000000e+00
      vertex   -2.193504e+00 4.966932e+00 1.000000e+00
    endloop
  endfacet
  facet normal -2.848209e-01 9.585808e-01 0.000000e+00
    outer loop
      vertex   -2.193504e+00 4.966932e+00 1.000000e+00
      vertex   -2.193504e+00 4.966932e+00 1.500000e+00
      vertex   -8.745644e-01 5.358825e+00 1.500000e+00
    endloop
  endfacet
  facet normal -5.166294e-01 8.562091e-01 0.000000e+00
    outer loop
      vertex   -2.193504e+00 4.966932e+00 1.500000e+00
      vertex   -2.193504e+00 4.966932e+00 1.000000e+00
      vertex   -3.371587e+00 4.256086e+00 1.000000e+00
    endloop
  endfacet
  facet normal -5.166294e-01 8.562091e-01 0.000000e+00
    outer loop
      vertex   -3.371587e+00 4.256086e+00 1.000000e+00
      vertex   -3.371587e+00 4.256086e+00 1.500000e+00
      vertex   -2.193504e+00 4.966932e+00 1.500000e+00
    endloop
  endfacet
  facet normal -7.152625e-01 6.988559e-01 0.000000e+00
    outer loop
      vertex   -3.371587e+00 4.256086e+00 1.500000e+00
      vertex   -3.371587e+00 4.256086e+00 1.000000e+00
      vertex   -4.333164e+00 3.271935e+00 1.000000e+00
    endloop
  endfacet
  facet normal -7.152625e-01 6.988559e-01 0.000000e+00
    outer loop
      vertex   -4.333164e+00 3.271935e+00 1.000000e+00
      vertex   -4.333164e+00 3.271935e+00 1.500000e+00
      vertex   -3.371587e+00 4.256086e+00 1.500000e+00
    endloop
  endfacet
  facet normal -8.679649e-01 4.966256e-01 0.000000e+00
    outer loop
      vertex   -4.333164e+00 3.271935e+00 1.500000e+00
      vertex   -4.333164e+00 3.271935e+00 1.000000e+00
      vertex   -5.016486e+00 2.077677e+00 1.000000e+00
    endloop
  endfacet
  facet normal -8.679649e-01 4.966256e-01 0.000000e+00
    outer loop
      vertex   -5.016486e+00 2.077677e+00 1.000000e+00
      vertex   -5.016486e+00 2.077677e+00 1.500000e+00
      vertex   -4.333164e+00 3.271935e+00 1.500000e+00
    endloop
  endfacet
  facet normal -9.649308e-01 2.625044e-01 0.000000e+00
    outer loop
      vertex   -5.016486e+00 2.077677e+00 1.500000e+00
      vertex   -5.016486e+00 2.077677e+00 1.000000e+00
      vertex   -5.377673e+00 7.500000e-01 1.000000e+00
    endloop
  endfacet
  facet normal -9.649308e-01 2.625044e-01 0.000000e+00
    outer loop
      vertex   -5.377673e+00 7.500000e-01 1.000000e+00
      vertex   -5.377673e+00 7.500000e-01 1.500000e+00
      vertex   -5.016486e+00 2.077677e+00 1.500000e+00
    endloop
  endfacet
  facet normal -9.967224e-01 -8.089734e-02 -0.000000e+00
    outer loop
      vertex   -5.423963e+00 2.500000e-01 1.500000e+00
      vertex   -5.423963e+00 2.500000e-01 1.000000e+00
      vertex   -5.312654e+00 -1.121420e+00 1.000000e+00
    endloop
  endfacet
  facet normal -9.967224e-01 -8.089734e-02 0.000000e+00
    outer loop
      vertex   -5.312654e+00 -1.121420e+00 1.000000e+00
      vertex   -5.312654e+00 -1.121420e+00 1.500000e+00
      vertex   -5.423963e+00 2.500000e-01 1.500000e+00
    endloop
  endfacet
  facet normal -9.443854e-01 -3.288408e-01 -0.000000e+00
    outer loop
      vertex   -5.312654e+00 -1.121420e+00 1.500000e+00
      vertex   -5.312654e+00 -1.121420e+00 1.000000e+00
      vertex   -4.860192e+00 -2.420828e+00 1.000000e+00
    endloop
  endfacet
  facet normal -9.443854e-01 -3.288408e-01 0.000000e+00
    outer loop
      vertex   -4.860192e+00 -2.420828e+00 1.000000e+00
      vertex   -4.860192e+00 -2.420828e+00 1.500000e+00
      vertex   -5.312654e+00 -1.121420e+00 1.500000e+00
    endloop
  endfacet
  facet normal -8.314045e-01 -5.556677e-01 -0.000000e+00
    outer loop
      vertex   -4.860192e+00 -2.420828e+00 1.500000e+00
      vertex   -4.860192e+00 -2.420828e+00 1.000000e+00
      vertex   -4.095632e+00 -3.564782e+00 1.000000e+00
    endloop
  endfacet
  facet normal -8.314045e-01 -5.556677e-01 0.000000e+00
    outer loop
      vertex   -4.095632e+00 -3.564782e+00 1.000000e+00
      vertex   -4.095632e+00 -3.564782e+00 1.500000e+00
      vertex   -4.860192e+00 -2.420828e+00 1.500000e+00
    endloop
  endfacet
  facet normal -6.650348e-01 -7.468123e-01 -0.000000e+00
    outer loop
      vertex   -4.095632e+00 -3.564782e+00 1.500000e+00
      vertex   -4.095632e+00 -3.564782e+00 1.000000e+00
      vertex   -3.068071e+00 -4.479823e+00 1.000000e+00
    endloop
  endfacet
  facet normal -6.650348e-01 -7.468123e-01 0.000000e+00
    outer loop
      vertex   -3.068071e+00 -4.479823e+00 1.000000e+00
      vertex   -3.068071e+00 -4.479823e+00 1.500000e+00
      vertex   -4.095632e+00 -3.564782e+00 1.500000e+00
    endloop
  endfacet
  facet normal -4.559599e-01 -8.900003e-01 -0.000000e+00
    outer loop
      vertex   -3.068071e+00 -4.479823e+00 1.500000e+00
      vertex   -3.068071e+00 -4.479823e+00 1.000000e+00
      vertex   -1.843493e+00 -5.107191e+00 1.000000e+00
    endloop
  endfacet
  facet normal -4.559599e-01 -8.900003e-01 0.000000e+00
    outer loop
      vertex   -1.843493e+00 -5.107191e+00 1.000000e+00
      vertex   -1.843493e+00 -5.107191e+00 1.500000e+00
      vertex   -3.068071e+00 -4.479823e+00 1.500000e+00
    endloop
  endfacet
  facet normal -2.176054e-01 -9.760368e-01 -0.000000e+00
    outer loop
      vertex   -1.843493e+00 -5.107191e+00 1.500000e+00
      vertex   -1.843493e+00 -5.107191e+00 1.000000e+00
      vertex   -5.005354e-01 -5.406601e+00 1.000000e+00
    endloop
  endfacet
  facet normal -2.176054e-01 -9.760368e-01 0.000000e+00
    outer loop
      vertex   -5.005354e-01 -5.406601e+00 1.000000e+00
      vertex   -5.005354e-01 -5.406601e+00 1.500000e+00
      vertex   -1.843493e+00 -5.107191e+00 1.500000e+00
    endloop
  endfacet
  facet normal 3.472259e-02 -9.993970e-01 0.000000e+00
    outer loop
      vertex   -5.005354e-01 -5.406601e+00 1.500000e+00
      vertex   -5.005354e-01 -5.406601e+00 1.000000e+00
      vertex   8.745644e-01 -5.358825e+00 1.000000e+00
    endloop
  endfacet
  facet normal 3.472259e-02 -9.993970e-01 0.000000e+00
    outer loop
      vertex   8.745644e-01 -5.358825e+00 1.000000e+00
      vertex   8.745644e-01 -5.358825e+00 1.500000e+00
      vertex   -5.005354e-01 -5.406601e+00 1.500000e+00
    endloop
  endfacet
  facet normal 2.848209e-01 -9.585808e-01 0.000000e+00
    outer loop
      vertex   8.745644e-01 -5.358825e+00 1.500000e+00
      vertex   8.745644e-01 -5.358825e+00 1.000000e+00
      vertex   2.193504e+00 -4.966932e+00 1.000000e+00
    endloop
  endfacet
  facet normal 2.848209e-01 -9.585808e-01 0.000000e+00
    outer loop
      vertex   2.193504e+00 -4.966932e+00 1.000000e+00
      vertex   2.193504e+00 -4.966932e+00 1.500000e+00
      vertex   8.745644e-01 -5.358825e+00 1.500000e+00
    endloop
  endfacet
  facet normal 5.166294e-01 -8.562091e-01 0.000000e+00
    outer loop
      vertex   2.193504e+00 -4.966932e+00 1.500000e+00
      vertex   2.193504e+00 -4.966932e+00 1.000000e+00
      vertex   3.371587e+00 -4.256086e+00 1.000000e+00
    endloop
  endfacet
  facet normal 5.166294e-01 -8.562091e-01 0.000000e+00
    outer loop
      vertex   3.371587e+00 -4.256086e+00 1.000000e+00
      vertex   3.371587e+00 -4.256086e+00 1.500000e+00
      vertex   2.193504e+00 -4.966932e+00 1.500000e+00
    endloop
  endfacet
  facet normal 7.152625e-01 -6.988559e-01 0.000000e+00
    outer loop
      vertex   3.371587e+00 -4.256086e+00 1.500000e+00
      vertex   3.371587e+00 -4.256086e+00 1.000000e+00
      vertex   4.333164e+00 -3.271935e+00 1.000000e+00
    endloop
  endfacet
  facet normal 7.152625e-01 -6.988559e-01 0.000000e+00
    outer loop
      vertex   4.333164e+00 -3.271935e+00 1.000000e+00
      vertex   4.333164e+00 -3.271935e+00 1.500000e+00
      vertex   3.371587e+00 -4.256086e+00 1.500000e+00
    endloop
  endfacet
  facet normal 8.679649e-01 -4.966256e-01 0.000000e+00
    outer loop
      vertex   4.333164e+00 -3.271935e+00 1.500000e+00
      vertex   4.333164e+00 -3.271935e+00 1.000000e+00
      vertex   5.016486e+00 -2.077677e+00 1.000000e+00
    endloop
  endfacet
  facet normal 8.679649e-01 -4.966256e-01 0.000000e+00
    outer loop
      vertex   5.016486e+00 -2.077677e+00 1.000000e+00
      vertex   5.016486e+00 -2.077677e+00 1.500000e+00
      vertex   4.333164e+00 -3.271935e+00 1.500000e+00
    endloop
  endfacet
  facet normal 9.649308e-01 -2.625044e-01 0.000000e+00
    outer loop
      vertex   5.016486e+00 -2.077677e+00 1.500000e+00
      vertex   5.016486e+00 -2.077677e+00 1.000000e+00
      vertex   5.377673e+00 -7.500000e-01 1.000000e+00
    endloop
  endfacet
  facet normal 9.649308e-01 -2.625044e-01 0.000000e+00
    outer loop
      vertex   5.377673e+00 -7.500000e-01 1.000000e+00
      vertex   5.377673e+00 -7.500000e-01 1.500000e+00
      vertex   5.016486e+00 -2.077677e+00 1.500000e+00
    endloop
  endfacet
  facet normal 0.000000e+00 1.000000e+00 0.000000e+00
    outer loop
      vertex   -6.100000e+00 7.500000e-01 1.000000e+00
      vertex   -6.100000e+00 7.500000e-01 1.500000e+00
      vertex   -5.377673e+00 7.500000e-01 1.500000e+00
    endloop
  endfacet
  facet normal 0.000000e+00 1.000000e+00 0.000000e+00
    outer loop
      vertex   -5.377673e+00 7.500000e-01 1.500000e+00
      vertex   -5.377673e+00 7.500000e-01 1.000000e+00
      vertex   -6.100000e+00 7.500000e-01 1.000000e+00
    endloop
  endfacet
  facet normal -1.000000e+00 0.000000e+00 0.000000e+00
    outer loop
      vertex   -6.100000e+00 2.500000e-01 1.000000e+00
      vertex   -6.100000e+00 2.500000e-01 1.500000e+00
      vertex   -6.100000e+00 7.500000e-01 1.500000e+00
    endloop
  endfacet
  facet normal -1.000000e+00 0.000000e+00 -0.000000e+00
    outer loop
      vertex   -6.100000e+00 7.500000e-01 1.500000e+00
      vertex   -6.100000e+00 7.500000e-01 1.000000e+00
      vertex   -6.100000e+00 2.500000e-01 1.000000e+00
    endloop
  endfacet
  facet normal 0.000000e+00 -1.000000e+00 0.000000e+00
    outer loop
      vertex   -5.423963e+00 2.500000e-01 1.000000e+00
      vertex   -5.423963e+00 2.500000e-01 1.500000e+00
      vertex   -6.100000e+00 2.500000e-01 1.500000e+00
    endloop
  endfacet
  facet normal 0.000000e+00 -1.000000e+00 0.000000e+00
    outer loop
      vertex   -6.100000e+00 2.500000e-01 1.500000e+00
      vertex   -6.100000e+00 2.500000e-01 1.000000e+00
      vertex   -5.423963e+00 2.500000e-01 1.000000e+00
    endloop
  endfacet
  facet normal 0.000000e+00 1.000000e+00 0.000000e+00
    outer loop
      vertex   5.423963e+00 -2.500000e-01 1.000000e+00
      vertex   5.423963e+00 -2.500000e-01 1.500000e+00
      vertex   6.019558e+00 -2.500000e-01 1.500000e+00
    endloop
  endfacet
  facet normal 0.000000e+00 1.000000e+00 0.000000e+00
    outer loop
      vertex   6.019558e+00 -2.500000e-01 1.500000e+00
      vertex   6.019558e+00 -2.500000e-01 1.000000e+00
      vertex   5.423963e+00 -2.500000e-01 1.000000e+00
    endloop
  endfacet
  facet normal 0.000000e+00 -1.000000e+00 0.000000e+00
    outer loop
      vertex   6.019558e+00 -7.500000e-01 1.000000e+00
      vertex   6.019558e+00 -7.500000e-01 1.500000e+00
      vertex   5.377673e+00 -7.500000e-01 1.500000e+00
    endloop
  endfacet
  facet normal 0.000000e+00 -1.000000e+00 0.000000e+00
    outer loop
      vertex   5.377673e+00 -7.500000e-01 1.500000e+00
      vertex   5.377673e+00 -7.500000e-01 1.000000e+00
      vertex   6.019558e+00 -7.500000e-01 1.000000e+00
    endloop
  endfacet
  facet normal 1.000000e+00 0.000000e+00 -0.000000e+00
    outer loop
      vertex   6.019558e+00 -2.500000e-01 1.000000e+00
      vertex   6.019558e+00 -2.500000e-01 1.500000e+00
      vertex   6.019558e+00 -7.500000e-01 1.500000e+00
    endloop
  endfacet
  facet normal 1.000000e+00 0.000000e+00 0.000000e+00
    outer loop
      vertex   6.019558e+00 -7.500000e-01 1.500000e+00
      vertex   6.019558e+00 -7.500000e-01 1.000000e+00
      vertex   6.019558e+00 -2.500000e-01 1.000000e+00
    endloop
  endfacet
  facet normal 0.000000e+00 0.000000e+00 1.000000e+00
    outer loop
      vertex   -1.080442e+00 -7.500000e-01 1.500000e+00
      vertex   4.993746e+00 -2.500000e-01 1.500000e+00
      vertex   -1.389077e-01 -2.500000e-01 1.500000e+00
    endloop
  endfacet
  facet normal 0.000000e+00 -0.000000e+00 1.000000e+00
    outer loop
      vertex   -1.389077e-01 -2.500000e-01 1.500000e+00
      vertex   6.135208e-15 2.500000e-01 1.500000e+00
      vertex   -1.080442e+00 -7.500000e-01 1.500000e+00
    endloop
  endfacet
  facet normal -0.000000e+00 0.000000e+00 1.000000e+00
    outer loop
      vertex   6.135208e-15 2.500000e-01 1.500000e+00
      vertex   -1.389077e-01 -2.500000e-01 1.500000e+00
      vertex   1.000000e+00 7.500000e-01 1.500000e+00
    endloop
  endfacet
  facet normal 0.000000e+00 0.000000e+00 1.000000e+00
    outer loop
      vertex   -4.993746e+00 2.500000e-01 1.500000e+00
      vertex   6.135208e-15 2.500000e-01 1.500000e+00
      vertex   1.000000e+00 7.500000e-01 1.500000e+00
    endloop
  endfacet
  facet normal 0.000000e+00 0.000000e+00 1.000000e+00
    outer loop
      vertex   -5.377673e+00 7.500000e-01 1.500000e+00
      vertex   -6.100000e+00 7.500000e-01 1.500000e+00
      vertex   -6.100000e+00 2.500000e-01 1.500000e+00
    endloop
  endfacet
  facet normal 0.000000e+00 0.000000e+00 1.000000e+00
    outer loop
      vertex   5.377673e+00 -7.500000e-01 1.500000e+00
      vertex   6.019558e+00 -7.500000e-01 1.500000e+00
      vertex   6.019558e+00 -2.500000e-01 1.500000e+00
    endloop
  endfacet
  facet normal 0.000000e+00 0.000000e+00 1.000000e+00
    outer loop
      vertex   -6.100000e+00 2.500000e-01 1.500000e+00
      vertex   -5.423963e+00 2.500000e-01 1.500000e+00
      vertex   -5.377673e+00 7.500000e-01 1.500000e+00
    endloop
  endfacet
  facet normal -0.000000e+00 0.000000e+00 1.000000e+00
    outer loop
      vertex   -5.377673e+00 7.500000e-01 1.500000e+00
      vertex   -5.423963e+00 2.500000e-01 1.500000e+00
      vertex   -4.943430e+00 7.500000e-01 1.500000e+00
    endloop
  endfacet
  facet normal 0.000000e+00 0.000000e+00 1.000000e+00
    outer loop
      vertex   -5.377673e+00 7.500000e-01 1.500000e+00
      vertex   -4.943430e+00 7.500000e-01 1.500000e+00
      vertex   -4.551006e+00 2.070833e+00 1.500000e+00
    endloop
  endfacet
  facet normal 0.000000e+00 0.000000e+00 1.000000e+00
    outer loop
      vertex   6.019558e+00 -2.500000e-01 1.500000e+00
      vertex   5.423963e+00 -2.500000e-01 1.500000e+00
      vertex   5.377673e+00 -7.500000e-01 1.500000e+00
    endloop
  endfacet
  facet normal 0.000000e+00 -0.000000e+00 1.000000e+00
    outer loop
      vertex   5.377673e+00 -7.500000e-01 1.500000e+00
      vertex   5.423963e+00 -2.500000e-01 1.500000e+00
      vertex   4.943430e+00 -7.500000e-01 1.500000e+00
    endloop
  endfacet
  facet normal 0.000000e+00 0.000000e+00 1.000000e+00
    outer loop
      vertex   5.377673e+00 -7.500000e-01 1.500000e+00
      vertex   4.943430e+00 -7.500000e-01 1.500000e+00
      vertex   4.551006e+00 -2.070833e+00 1.500000e+00
    endloop
  endfacet
  facet normal 0.000000e+00 0.000000e+00 1.000000e+00
    outer loop
      vertex   -1.546198e+00 4.754921e+00 1.500000e+00
      vertex   -1.896283e-01 4.996403e+00 1.500000e+00
      vertex   -8.745644e-01 5.358825e+00 1.500000e+00
    endloop
  endfacet
  facet normal 0.000000e+00 0.000000e+00 1.000000e+00
    outer loop
      vertex   -8.745644e-01 5.358825e+00 1.500000e+00
      vertex   -2.193504e+00 4.966932e+00 1.500000e+00
      vertex   -1.546198e+00 4.754921e+00 1.500000e+00
    endloop
  endfacet
  facet normal 0.000000e+00 0.000000e+00 1.000000e+00
    outer loop
      vertex   -2.785344e+00 4.152332e+00 1.500000e+00
      vertex   -1.546198e+00 4.754921e+00 1.500000e+00
      vertex   -2.193504e+00 4.966932e+00 1.500000e+00
    endloop
  endfacet
  facet normal 0.000000e+00 0.000000e+00 1.000000e+00
    outer loop
      vertex   -2.193504e+00 4.966932e+00 1.500000e+00
      vertex   -3.371587e+00 4.256086e+00 1.500000e+00
      vertex   -2.785344e+00 4.152332e+00 1.500000e+00
    endloop
  endfacet
  facet normal 0.000000e+00 0.000000e+00 1.000000e+00
    outer loop
      vertex   -3.812960e+00 3.234398e+00 1.500000e+00
      vertex   -2.785344e+00 4.152332e+00 1.500000e+00
      vertex   -3.371587e+00 4.256086e+00 1.500000e+00
    endloop
  endfacet
  facet normal 0.000000e+00 0.000000e+00 1.000000e+00
    outer loop
      vertex   -3.371587e+00 4.256086e+00 1.500000e+00
      vertex   -4.333164e+00 3.271935e+00 1.500000e+00
      vertex   -3.812960e+00 3.234398e+00 1.500000e+00
    endloop
  endfacet
  facet normal 0.000000e+00 0.000000e+00 1.000000e+00
    outer loop
      vertex   -4.551006e+00 2.070833e+00 1.500000e+00
      vertex   -3.812960e+00 3.234398e+00 1.500000e+00
      vertex   -4.333164e+00 3.271935e+00 1.500000e+00
    endloop
  endfacet
  facet normal 0.000000e+00 0.000000e+00 1.000000e+00
    outer loop
      vertex   -4.333164e+00 3.271935e+00 1.500000e+00
      vertex   -5.016486e+00 2.077677e+00 1.500000e+00
      vertex   -4.551006e+00 2.070833e+00 1.500000e+00
    endloop
  endfacet
  facet normal 0.000000e+00 0.000000e+00 1.000000e+00
    outer loop
      vertex   -4.551006e+00 2.070833e+00 1.500000e+00
      vertex   -5.016486e+00 2.077677e+00 1.500000e+00
      vertex   -5.377673e+00 7.500000e-01 1.500000e+00
    endloop
  endfacet
  facet normal 0.000000e+00 0.000000e+00 1.000000e+00
    outer loop
      vertex   1.546198e+00 -4.754921e+00 1.500000e+00
      vertex   1.896283e-01 -4.996403e+00 1.500000e+00
      vertex   8.745644e-01 -5.358825e+00 1.500000e+00
    endloop
  endfacet
  facet normal 0.000000e+00 0.000000e+00 1.000000e+00
    outer loop
      vertex   8.745644e-01 -5.358825e+00 1.500000e+00
      vertex   2.193504e+00 -4.966932e+00 1.500000e+00
      vertex   1.546198e+00 -4.754921e+00 1.500000e+00
    endloop
  endfacet
  facet normal 0.000000e+00 0.000000e+00 1.000000e+00
    outer loop
      vertex   2.785344e+00 -4.152332e+00 1.500000e+00
      vertex   1.546198e+00 -4.754921e+00 1.500000e+00
      vertex   2.193504e+00 -4.966932e+00 1.500000e+00
    endloop
  endfacet
  facet normal 0.000000e+00 0.000000e+00 1.000000e+00
    outer loop
      vertex   2.193504e+00 -4.966932e+00 1.500000e+00
      vertex   3.371587e+00 -4.256086e+00 1.500000e+00
      vertex   2.785344e+00 -4.152332e+00 1.500000e+00
    endloop
  endfacet
  facet normal 0.000000e+00 0.000000e+00 1.000000e+00
    outer loop
      vertex   3.812960e+00 -3.234398e+00 1.500000e+00
      vertex   2.785344e+00 -4.152332e+00 1.500000e+00
      vertex   3.371587e+00 -4.256086e+00 1.500000e+00
    endloop
  endfacet
  facet normal 0.000000e+00 0.000000e+00 1.000000e+00
    outer loop
      vertex   3.371587e+00 -4.256086e+00 1.500000e+00
      vertex   4.333164e+00 -3.271935e+00 1.500000e+00
      vertex   3.812960e+00 -3.234398e+00 1.500000e+00
    endloop
  endfacet
  facet normal 0.000000e+00 0.000000e+00 1.000000e+00
    outer loop
      vertex   4.551006e+00 -2.070833e+00 1.500000e+00
      vertex   3.812960e+00 -3.234398e+00 1.500000e+00
      vertex   4.333164e+00 -3.271935e+00 1.500000e+00
    endloop
  endfacet
  facet normal 0.000000e+00 0.000000e+00 1.000000e+00
    outer loop
      vertex   4.333164e+00 -3.271935e+00 1.500000e+00
      vertex   5.016486e+00 -2.077677e+00 1.500000e+00
      vertex   4.551006e+00 -2.070833e+00 1.500000e+00
    endloop
  endfacet
  facet normal -0.000000e+00 0.000000e+00 1.000000e+00
    outer loop
      vertex   4.551006e+00 -2.070833e+00 1.500000e+00
      vertex   5.016486e+00 -2.077677e+00 1.500000e+00
      vertex   5.377673e+00 -7.500000e-01 1.500000e+00
    endloop
  endfacet
  facet normal 0.000000e+00 0.000000e+00 1.000000e+00
    outer loop
      vertex   4.993746e+00 -2.500000e-01 1.500000e+00
      vertex   -1.080442e+00 -7.500000e-01 1.500000e+00
      vertex   4.943430e+00 -7.500000e-01 1.500000e+00
    endloop
  endfacet
  facet normal 0.000000e+00 0.000000e+00 1.000000e+00
    outer loop
      vertex   4.943430e+00 -7.500000e-01 1.500000e+00
      vertex   5.423963e+00 -2.500000e-01 1.500000e+00
      vertex   4.993746e+00 -2.500000e-01 1.500000e+00
    endloop
  endfacet
  facet normal 0.000000e+00 0.000000e+00 1.000000e+00
    outer loop
      vertex   4.872362e+00 1.122538e+00 1.500000e+00
      vertex   4.993746e+00 -2.500000e-01 1.500000e+00
      vertex   5.423963e+00 -2.500000e-01 1.500000e+00
    endloop
  endfacet
  facet normal 0.000000e+00 0.000000e+00 1.000000e+00
    outer loop
      vertex   5.423963e+00 -2.500000e-01 1.500000e+00
      vertex   5.312654e+00 1.121420e+00 1.500000e+00
      vertex   4.872362e+00 1.122538e+00 1.500000e+00
    endloop
  endfacet
  facet normal 0.000000e+00 0.000000e+00 1.000000e+00
    outer loop
      vertex   4.380951e+00 2.409827e+00 1.500000e+00
      vertex   4.872362e+00 1.122538e+00 1.500000e+00
      vertex   5.312654e+00 1.121420e+00 1.500000e+00
    endloop
  endfacet
  facet normal 0.000000e+00 0.000000e+00 1.000000e+00
    outer loop
      vertex   5.312654e+00 1.121420e+00 1.500000e+00
      vertex   4.860192e+00 2.420828e+00 1.500000e+00
      vertex   4.380951e+00 2.409827e+00 1.500000e+00
    endloop
  endfacet
  facet normal 0.000000e+00 0.000000e+00 1.000000e+00
    outer loop
      vertex   3.556835e+00 3.514104e+00 1.500000e+00
      vertex   4.380951e+00 2.409827e+00 1.500000e+00
      vertex   4.860192e+00 2.420828e+00 1.500000e+00
    endloop
  endfacet
  facet normal 0.000000e+00 0.000000e+00 1.000000e+00
    outer loop
      vertex   4.860192e+00 2.420828e+00 1.500000e+00
      vertex   4.095632e+00 3.564782e+00 1.500000e+00
      vertex   3.556835e+00 3.514104e+00 1.500000e+00
    endloop
  endfacet
  facet normal 0.000000e+00 0.000000e+00 1.000000e+00
    outer loop
      vertex   2.462598e+00 4.351507e+00 1.500000e+00
      vertex   3.556835e+00 3.514104e+00 1.500000e+00
      vertex   4.095632e+00 3.564782e+00 1.500000e+00
    endloop
  endfacet
  facet normal 0.000000e+00 0.000000e+00 1.000000e+00
    outer loop
      vertex   4.095632e+00 3.564782e+00 1.500000e+00
      vertex   3.068071e+00 4.479823e+00 1.500000e+00
      vertex   2.462598e+00 4.351507e+00 1.500000e+00
    endloop
  endfacet
  facet normal 0.000000e+00 0.000000e+00 1.000000e+00
    outer loop
      vertex   1.181343e+00 4.858439e+00 1.500000e+00
      vertex   2.462598e+00 4.351507e+00 1.500000e+00
      vertex   3.068071e+00 4.479823e+00 1.500000e+00
    endloop
  endfacet
  facet normal 0.000000e+00 0.000000e+00 1.000000e+00
    outer loop
      vertex   3.068071e+00 4.479823e+00 1.500000e+00
      vertex   1.843493e+00 5.107191e+00 1.500000e+00
      vertex   1.181343e+00 4.858439e+00 1.500000e+00
    endloop
  endfacet
  facet normal -0.000000e+00 0.000000e+00 1.000000e+00
    outer loop
      vertex   -1.896283e-01 4.996403e+00 1.500000e+00
      vertex   1.181343e+00 4.858439e+00 1.500000e+00
      vertex   1.843493e+00 5.107191e+00 1.500000e+00
    endloop
  endfacet
  facet normal 0.000000e+00 0.000000e+00 1.000000e+00
    outer loop
      vertex   1.843493e+00 5.107191e+00 1.500000e+00
      vertex   5.005354e-01 5.406601e+00 1.500000e+00
      vertex   -1.896283e-01 4.996403e+00 1.500000e+00
    endloop
  endfacet
  facet normal 0.000000e+00 0.000000e+00 1.000000e+00
    outer loop
      vertex   5.005354e-01 5.406601e+00 1.500000e+00
      vertex   -8.745644e-01 5.358825e+00 1.500000e+00
      vertex   -1.896283e-01 4.996403e+00 1.500000e+00
    endloop
  endfacet
  facet normal 0.000000e+00 0.000000e+00 1.000000e+00
    outer loop
      vertex   1.000000e+00 7.500000e-01 1.500000e+00
      vertex   -4.943430e+00 7.500000e-01 1.500000e+00
      vertex   -4.993746e+00 2.500000e-01 1.500000e+00
    endloop
  endfacet
  facet normal 0.000000e+00 0.000000e+00 1.000000e+00
    outer loop
      vertex   -4.943430e+00 7.500000e-01 1.500000e+00
      vertex   -5.423963e+00 2.500000e-01 1.500000e+00
      vertex   -4.993746e+00 2.500000e-01 1.500000e+00
    endloop
  endfacet
  facet normal 0.000000e+00 0.000000e+00 1.000000e+00
    outer loop
      vertex   -4.872362e+00 -1.122538e+00 1.500000e+00
      vertex   -4.993746e+00 2.500000e-01 1.500000e+00
      vertex   -5.423963e+00 2.500000e-01 1.500000e+00
    endloop
  endfacet
  facet normal 0.000000e+00 0.000000e+00 1.000000e+00
    outer loop
      vertex   -5.423963e+00 2.500000e-01 1.500000e+00
      vertex   -5.312654e+00 -1.121420e+00 1.500000e+00
      vertex   -4.872362e+00 -1.122538e+00 1.500000e+00
    endloop
  endfacet
  facet normal 0.000000e+00 0.000000e+00 1.000000e+00
    outer loop
      vertex   -4.380951e+00 -2.409827e+00 1.500000e+00
      vertex   -4.872362e+00 -1.122538e+00 1.500000e+00
      vertex   -5.312654e+00 -1.121420e+00 1.500000e+00
    endloop
  endfacet
  facet normal 0.000000e+00 0.000000e+00 1.000000e+00
    outer loop
      vertex   -5.312654e+00 -1.121420e+00 1.500000e+00
      vertex   -4.860192e+00 -2.420828e+00 1.500000e+00
      vertex   -4.380951e+00 -2.409827e+00 1.500000e+00
    endloop
  endfacet
  facet normal 0.000000e+00 0.000000e+00 1.000000e+00
    outer loop
      vertex   -3.556835e+00 -3.514104e+00 1.500000e+00
      vertex   -4.380951e+00 -2.409827e+00 1.500000e+00
      vertex   -4.860192e+00 -2.420828e+00 1.500000e+00
    endloop
  endfacet
  facet normal 0.000000e+00 0.000000e+00 1.000000e+00
    outer loop
      vertex   -4.860192e+00 -2.420828e+00 1.500000e+00
      vertex   -4.095632e+00 -3.564782e+00 1.500000e+00
      vertex   -3.556835e+00 -3.514104e+00 1.500000e+00
    endloop
  endfacet
  facet normal 0.000000e+00 0.000000e+00 1.000000e+00
    outer loop
      vertex   -2.462598e+00 -4.351507e+00 1.500000e+00
      vertex   -3.556835e+00 -3.514104e+00 1.500000e+00
      vertex   -4.095632e+00 -3.564782e+00 1.500000e+00
    endloop
  endfacet
  facet normal 0.000000e+00 0.000000e+00 1.000000e+00
    outer loop
      vertex   -4.095632e+00 -3.564782e+00 1.500000e+00
      vertex   -3.068071e+00 -4.479823e+00 1.500000e+00
      vertex   -2.462598e+00 -4.351507e+00 1.500000e+00
    endloop
  endfacet
  facet normal 0.000000e+00 0.000000e+00 1.000000e+00
    outer loop
      vertex   -1.181343e+00 -4.858439e+00 1.500000e+00
      vertex   -2.462598e+00 -4.351507e+00 1.500000e+00
      vertex   -3.068071e+00 -4.479823e+00 1.500000e+00
    endloop
  endfacet
  facet normal 0.000000e+00 0.000000e+00 1.000000e+00
    outer loop
      vertex   -3.068071e+00 -4.479823e+00 1.500000e+00
      vertex   -1.843493e+00 -5.107191e+00 1.500000e+00
      vertex   -1.181343e+00 -4.858439e+00 1.500000e+00
    endloop
  endfacet
  facet normal 0.000000e+00 0.000000e+00 1.000000e+00
    outer loop
      vertex   1.896283e-01 -4.996403e+00 1.500000e+00
      vertex   -1.181343e+00 -4.858439e+00 1.500000e+00
      vertex   -1.843493e+00 -5.107191e+00 1.500000e+00
    endloop
  endfacet
  facet normal -0.000000e+00 0.000000e+00 1.000000e+00
    outer loop
      vertex   -1.843493e+00 -5.107191e+00 1.500000e+00
      vertex   -5.005354e-01 -5.406601e+00 1.500000e+00
      vertex   1.896283e-01 -4.996403e+00 1.500000e+00
    endloop
  endfacet
  facet normal 0.000000e+00 0.000000e+00 1.000000e+00
    outer loop
      vertex   -5.005354e-01 -5.406601e+00 1.500000e+00
      vertex   8.745644e-01 -5.358825e+00 1.500000e+00
      vertex   1.896283e-01 -4.996403e+00 1.500000e+00
    endloop
  endfacet
  facet normal 9.585870e-01 -2.847998e-01 1.301900e-15
    outer loop
      vertex   -4.551006e+00 2.070833e+00 1.500000e+00
      vertex   -4.943430e+00 7.500000e-01 1.500000e+00
      vertex   -4.943430e+00 7.500000e-01 1.000000e+00
    endloop
  endfacet
  facet normal 9.585870e-01 -2.847998e-01 0.000000e+00
    outer loop
      vertex   -4.943430e+00 7.500000e-01 1.000000e+00
      vertex   -4.551006e+00 2.070833e+00 1.000000e+00
      vertex   -4.551006e+00 2.070833e+00 1.500000e+00
    endloop
  endfacet
  facet normal 8.444514e-01 -5.356322e-01 1.627375e-16
    outer loop
      vertex   -3.812960e+00 3.234398e+00 1.500000e+00
      vertex   -4.551006e+00 2.070833e+00 1.500000e+00
      vertex   -4.551006e+00 2.070833e+00 1.000000e+00
    endloop
  endfacet
  facet normal 8.444514e-01 -5.356322e-01 1.627375e-16
    outer loop
      vertex   -4.551006e+00 2.070833e+00 1.000000e+00
      vertex   -3.812960e+00 3.234398e+00 1.000000e+00
      vertex   -3.812960e+00 3.234398e+00 1.500000e+00
    endloop
  endfacet
  facet normal 6.661848e-01 -7.457867e-01 1.627375e-16
    outer loop
      vertex   -2.785344e+00 4.152332e+00 1.500000e+00
      vertex   -3.812960e+00 3.234398e+00 1.500000e+00
      vertex   -3.812960e+00 3.234398e+00 1.000000e+00
    endloop
  endfacet
  facet normal 6.661848e-01 -7.457867e-01 1.627375e-16
    outer loop
      vertex   -3.812960e+00 3.234398e+00 1.000000e+00
      vertex   -2.785344e+00 4.152332e+00 1.000000e+00
      vertex   -2.785344e+00 4.152332e+00 1.500000e+00
    endloop
  endfacet
  facet normal 4.373257e-01 -8.993032e-01 0.000000e+00
    outer loop
      vertex   -1.546198e+00 4.754921e+00 1.500000e+00
      vertex   -2.785344e+00 4.152332e+00 1.500000e+00
      vertex   -2.785344e+00 4.152332e+00 1.000000e+00
    endloop
  endfacet
  facet normal 4.373257e-01 -8.993032e-01 0.000000e+00
    outer loop
      vertex   -2.785344e+00 4.152332e+00 1.000000e+00
      vertex   -1.546198e+00 4.754921e+00 1.000000e+00
      vertex   -1.546198e+00 4.754921e+00 1.500000e+00
    endloop
  endfacet
  facet normal 1.752543e-01 -9.845232e-01 0.000000e+00
    outer loop
      vertex   -1.896283e-01 4.996403e+00 1.500000e+00
      vertex   -1.546198e+00 4.754921e+00 1.500000e+00
      vertex   -1.546198e+00 4.754921e+00 1.000000e+00
    endloop
  endfacet
  facet normal 1.752543e-01 -9.845232e-01 0.000000e+00
    outer loop
      vertex   -1.546198e+00 4.754921e+00 1.000000e+00
      vertex   -1.896283e-01 4.996403e+00 1.000000e+00
      vertex   -1.896283e-01 4.996403e+00 1.500000e+00
    endloop
  endfacet
  facet normal -1.001265e-01 -9.949747e-01 -4.068437e-17
    outer loop
      vertex   1.181343e+00 4.858439e+00 1.500000e+00
      vertex   -1.896283e-01 4.996403e+00 1.500000e+00
      vertex   -1.896283e-01 4.996403e+00 1.000000e+00
    endloop
  endfacet
  facet normal -1.001265e-01 -9.949747e-01 -4.068437e-17
    outer loop
      vertex   -1.896283e-01 4.996403e+00 1.000000e+00
      vertex   1.181343e+00 4.858439e+00 1.000000e+00
      vertex   1.181343e+00 4.858439e+00 1.500000e+00
    endloop
  endfacet
  facet normal -3.679034e-01 -9.298640e-01 0.000000e+00
    outer loop
      vertex   2.462598e+00 4.351507e+00 1.500000e+00
      vertex   1.181343e+00 4.858439e+00 1.500000e+00
      vertex   1.181343e+00 4.858439e+00 1.000000e+00
    endloop
  endfacet
  facet normal -3.679034e-01 -9.298640e-01 0.000000e+00
    outer loop
      vertex   1.181343e+00 4.858439e+00 1.000000e+00
      vertex   2.462598e+00 4.351507e+00 1.000000e+00
      vertex   2.462598e+00 4.351507e+00 1.500000e+00
    endloop
  endfacet
  facet normal -6.077402e-01 -7.941359e-01 0.000000e+00
    outer loop
      vertex   3.556835e+00 3.514104e+00 1.500000e+00
      vertex   2.462598e+00 4.351507e+00 1.500000e+00
      vertex   2.462598e+00 4.351507e+00 1.000000e+00
    endloop
  endfacet
  facet normal -6.077402e-01 -7.941359e-01 0.000000e+00
    outer loop
      vertex   2.462598e+00 4.351507e+00 1.000000e+00
      vertex   3.556835e+00 3.514104e+00 1.000000e+00
      vertex   3.556835e+00 3.514104e+00 1.500000e+00
    endloop
  endfacet
  facet normal -8.014229e-01 -5.980981e-01 0.000000e+00
    outer loop
      vertex   4.380951e+00 2.409827e+00 1.500000e+00
      vertex   3.556835e+00 3.514104e+00 1.500000e+00
      vertex   3.556835e+00 3.514104e+00 1.000000e+00
    endloop
  endfacet
  facet normal -8.014229e-01 -5.980981e-01 0.000000e+00
    outer loop
      vertex   3.556835e+00 3.514104e+00 1.000000e+00
      vertex   4.380951e+00 2.409827e+00 1.000000e+00
      vertex   4.380951e+00 2.409827e+00 1.500000e+00
    endloop
  endfacet
  facet normal -9.342425e-01 -3.566383e-01 0.000000e+00
    outer loop
      vertex   4.872362e+00 1.122538e+00 1.500000e+00
      vertex   4.380951e+00 2.409827e+00 1.500000e+00
      vertex   4.380951e+00 2.409827e+00 1.000000e+00
    endloop
  endfacet
  facet normal -9.342425e-01 -3.566383e-01 0.000000e+00
    outer loop
      vertex   4.380951e+00 2.409827e+00 1.000000e+00
      vertex   4.872362e+00 1.122538e+00 1.000000e+00
      vertex   4.872362e+00 1.122538e+00 1.500000e+00
    endloop
  endfacet
  facet normal -9.961122e-01 -8.809413e-02 0.000000e+00
    outer loop
      vertex   4.993746e+00 -2.500000e-01 1.500000e+00
      vertex   4.872362e+00 1.122538e+00 1.500000e+00
      vertex   4.872362e+00 1.122538e+00 1.000000e+00
    endloop
  endfacet
  facet normal -9.961122e-01 -8.809413e-02 0.000000e+00
    outer loop
      vertex   4.872362e+00 1.122538e+00 1.000000e+00
      vertex   4.993746e+00 -2.500000e-01 1.000000e+00
      vertex   4.993746e+00 -2.500000e-01 1.500000e+00
    endloop
  endfacet
  facet normal 0.000000e+00 0.000000e+00 1.000000e+00
    outer loop
      vertex   -4.551006e+00 2.070833e+00 1.000000e+00
      vertex   -4.943430e+00 7.500000e-01 1.000000e+00
      vertex   1.000000e+00 7.500000e-01 1.000000e+00
    endloop
  endfacet
  facet normal 0.000000e+00 0.000000e+00 1.000000e+00
    outer loop
      vertex   1.000000e+00 7.500000e-01 1.000000e+00
      vertex   -1.389077e-01 -2.500000e-01 1.000000e+00
      vertex   4.993746e+00 -2.500000e-01 1.000000e+00
    endloop
  endfacet
  facet normal -0.000000e+00 0.000000e+00 1.000000e+00
    outer loop
      vertex   1.000000e+00 7.500000e-01 1.000000e+00
      vertex   4.993746e+00 -2.500000e-01 1.000000e+00
      vertex   4.872362e+00 1.122538e+00 1.000000e+00
    endloop
  endfacet
  facet normal 0.000000e+00 0.000000e+00 1.000000e+00
    outer loop
      vertex   4.872362e+00 1.122538e+00 1.000000e+00
      vertex   4.380951e+00 2.409827e+00 1.000000e+00
      vertex   1.000000e+00 7.500000e-01 1.000000e+00
    endloop
  endfacet
  facet normal 0.000000e+00 0.000000e+00 1.000000e+00
    outer loop
      vertex   1.000000e+00 7.500000e-01 1.000000e+00
      vertex   4.380951e+00 2.409827e+00 1.000000e+00
      vertex   3.556835e+00 3.514104e+00 1.000000e+00
    endloop
  endfacet
  facet normal 0.000000e+00 0.000000e+00 1.000000e+00
    outer loop
      vertex   1.000000e+00 7.500000e-01 1.000000e+00
      vertex   3.556835e+00 3.514104e+00 1.000000e+00
      vertex   2.462598e+00 4.351507e+00 1.000000e+00
    endloop
  endfacet
  facet normal 0.000000e+00 0.000000e+00 1.000000e+00
    outer loop
      vertex   2.462598e+00 4.351507e+00 1.000000e+00
      vertex   1.181343e+00 4.858439e+00 1.000000e+00
      vertex   1.000000e+00 7.500000e-01 1.000000e+00
    endloop
  endfacet
  facet normal 0.000000e+00 -0.000000e+00 1.000000e+00
    outer loop
      vertex   1.000000e+00 7.500000e-01 1.000000e+00
      vertex   1.181343e+00 4.858439e+00 1.000000e+00
      vertex   -1.896283e-01 4.996403e+00 1.000000e+00
    endloop
  endfacet
  facet normal 0.000000e+00 0.000000e+00 1.000000e+00
    outer loop
      vertex   -1.896283e-01 4.996403e+00 1.000000e+00
      vertex   -1.546198e+00 4.754921e+00 1.000000e+00
      vertex   1.000000e+00 7.500000e-01 1.000000e+00
    endloop
  endfacet
  facet normal 0.000000e+00 0.000000e+00 1.000000e+00
    outer loop
      vertex   1.000000e+00 7.500000e-01 1.000000e+00
      vertex   -1.546198e+00 4.754921e+00 1.000000e+00
      vertex   -2.785344e+00 4.152332e+00 1.000000e+00
    endloop
  endfacet
  facet normal 0.000000e+00 0.000000e+00 1.000000e+00
    outer loop
      vertex   -2.785344e+00 4.152332e+00 1.000000e+00
      vertex   -3.812960e+00 3.234398e+00 1.000000e+00
      vertex   1.000000e+00 7.500000e-01 1.000000e+00
    endloop
  endfacet
  facet normal 0.000000e+00 0.000000e+00 1.000000e+00
    outer loop
      vertex   1.000000e+00 7.500000e-01 1.000000e+00
      vertex   -3.812960e+00 3.234398e+00 1.000000e+00
      vertex   -4.551006e+00 2.070833e+00 1.000000e+00
    endloop
  endfacet
  facet normal 0.000000e+00 1.000000e+00 0.000000e+00
    outer loop
      vertex   -1.389077e-01 -2.500000e-01 1.000000e+00
      vertex   -1.389077e-01 -2.500000e-01 1.500000e+00
      vertex   4.993746e+00 -2.500000e-01 1.500000e+00
    endloop
  endfacet
  facet normal 0.000000e+00 1.000000e+00 0.000000e+00
    outer loop
      vertex   4.993746e+00 -2.500000e-01 1.500000e+00
      vertex   4.993746e+00 -2.500000e-01 1.000000e+00
      vertex   -1.389077e-01 -2.500000e-01 1.000000e+00
    endloop
  endfacet
  facet normal 0.000000e+00 1.000000e+00 -4.987330e-15
    outer loop
      vertex   -4.943430e+00 7.500000e-01 1.000000e+00
      vertex   -4.943430e+00 7.500000e-01 1.500000e+00
      vertex   1.000000e+00 7.500000e-01 1.500000e+00
    endloop
  endfacet
  facet normal -4.195666e-16 1.000000e+00 3.639161e-31
    outer loop
      vertex   1.000000e+00 7.500000e-01 1.500000e+00
      vertex   1.000000e+00 7.500000e-01 1.000000e+00
      vertex   -4.943430e+00 7.500000e-01 1.000000e+00
    endloop
  endfacet
  facet normal 6.597950e-01 -7.514456e-01 -5.722810e-16
    outer loop
      vertex   1.000000e+00 7.500000e-01 1.000000e+00
      vertex   1.000000e+00 7.500000e-01 1.500000e+00
      vertex   -1.389077e-01 -2.500000e-01 1.500000e+00
    endloop
  endfacet
  facet normal 6.597950e-01 -7.514456e-01 -7.153512e-17
    outer loop
      vertex   -1.389077e-01 -2.500000e-01 1.500000e+00
      vertex   -1.389077e-01 -2.500000e-01 1.000000e+00
      vertex   1.000000e+00 7.500000e-01 1.000000e+00
    endloop
  endfacet
  facet normal -9.585870e-01 2.847998e-01 0.000000e+00
    outer loop
      vertex   4.551006e+00 -2.070833e+00 1.500000e+00
      vertex   4.943430e+00 -7.500000e-01 1.500000e+00
      vertex   4.943430e+00 -7.500000e-01 1.000000e+00
    endloop
  endfacet
  facet normal -9.585870e-01 2.847998e-01 0.000000e+00
    outer loop
      vertex   4.943430e+00 -7.500000e-01 1.000000e+00
      vertex   4.551006e+00 -2.070833e+00 1.000000e+00
      vertex   4.551006e+00 -2.070833e+00 1.500000e+00
    endloop
  endfacet
  facet normal -8.444514e-01 5.356322e-01 0.000000e+00
    outer loop
      vertex   3.812960e+00 -3.234398e+00 1.500000e+00
      vertex   4.551006e+00 -2.070833e+00 1.500000e+00
      vertex   4.551006e+00 -2.070833e+00 1.000000e+00
    endloop
  endfacet
  facet normal -8.444514e-01 5.356322e-01 0.000000e+00
    outer loop
      vertex   4.551006e+00 -2.070833e+00 1.000000e+00
      vertex   3.812960e+00 -3.234398e+00 1.000000e+00
      vertex   3.812960e+00 -3.234398e+00 1.500000e+00
    endloop
  endfacet
  facet normal -6.661848e-01 7.457867e-01 0.000000e+00
    outer loop
      vertex   2.785344e+00 -4.152332e+00 1.500000e+00
      vertex   3.812960e+00 -3.234398e+00 1.500000e+00
      vertex   3.812960e+00 -3.234398e+00 1.000000e+00
    endloop
  endfacet
  facet normal -6.661848e-01 7.457867e-01 0.000000e+00
    outer loop
      vertex   3.812960e+00 -3.234398e+00 1.000000e+00
      vertex   2.785344e+00 -4.152332e+00 1.000000e+00
      vertex   2.785344e+00 -4.152332e+00 1.500000e+00
    endloop
  endfacet
  facet normal -4.373257e-01 8.993032e-01 -1.627375e-16
    outer loop
      vertex   1.546198e+00 -4.754921e+00 1.500000e+00
      vertex   2.785344e+00 -4.152332e+00 1.500000e+00
      vertex   2.785344e+00 -4.152332e+00 1.000000e+00
    endloop
  endfacet
  facet normal -4.373257e-01 8.993032e-01 -1.627375e-16
    outer loop
      vertex   2.785344e+00 -4.152332e+00 1.000000e+00
      vertex   1.546198e+00 -4.754921e+00 1.000000e+00
      vertex   1.546198e+00 -4.754921e+00 1.500000e+00
    endloop
  endfacet
  facet normal -1.752543e-01 9.845232e-01 0.000000e+00
    outer loop
      vertex   1.896283e-01 -4.996403e+00 1.500000e+00
      vertex   1.546198e+00 -4.754921e+00 1.500000e+00
      vertex   1.546198e+00 -4.754921e+00 1.000000e+00
    endloop
  endfacet
  facet normal -1.752543e-01 9.845232e-01 0.000000e+00
    outer loop
      vertex   1.546198e+00 -4.754921e+00 1.000000e+00
      vertex   1.896283e-01 -4.996403e+00 1.000000e+00
      vertex   1.896283e-01 -4.996403e+00 1.500000e+00
    endloop
  endfacet
  facet normal 1.001265e-01 9.949747e-01 0.000000e+00
    outer loop
      vertex   -1.181343e+00 -4.858439e+00 1.500000e+00
      vertex   1.896283e-01 -4.996403e+00 1.500000e+00
      vertex   1.896283e-01 -4.996403e+00 1.000000e+00
    endloop
  endfacet
  facet normal 1.001265e-01 9.949747e-01 0.000000e+00
    outer loop
      vertex   1.896283e-01 -4.996403e+00 1.000000e+00
      vertex   -1.181343e+00 -4.858439e+00 1.000000e+00
      vertex   -1.181343e+00 -4.858439e+00 1.500000e+00
    endloop
  endfacet
  facet normal 3.679034e-01 9.298640e-01 0.000000e+00
    outer loop
      vertex   -2.462598e+00 -4.351507e+00 1.500000e+00
      vertex   -1.181343e+00 -4.858439e+00 1.500000e+00
      vertex   -1.181343e+00 -4.858439e+00 1.000000e+00
    endloop
  endfacet
  facet normal 3.679034e-01 9.298640e-01 0.000000e+00
    outer loop
      vertex   -1.181343e+00 -4.858439e+00 1.000000e+00
      vertex   -2.462598e+00 -4.351507e+00 1.000000e+00
      vertex   -2.462598e+00 -4.351507e+00 1.500000e+00
    endloop
  endfacet
  facet normal 6.077402e-01 7.941359e-01 0.000000e+00
    outer loop
      vertex   -3.556835e+00 -3.514104e+00 1.500000e+00
      vertex   -2.462598e+00 -4.351507e+00 1.500000e+00
      vertex   -2.462598e+00 -4.351507e+00 1.000000e+00
    endloop
  endfacet
  facet normal 6.077402e-01 7.941359e-01 0.000000e+00
    outer loop
      vertex   -2.462598e+00 -4.351507e+00 1.000000e+00
      vertex   -3.556835e+00 -3.514104e+00 1.000000e+00
      vertex   -3.556835e+00 -3.514104e+00 1.500000e+00
    endloop
  endfacet
  facet normal 8.014229e-01 5.980981e-01 0.000000e+00
    outer loop
      vertex   -4.380951e+00 -2.409827e+00 1.500000e+00
      vertex   -3.556835e+00 -3.514104e+00 1.500000e+00
      vertex   -3.556835e+00 -3.514104e+00 1.000000e+00
    endloop
  endfacet
  facet normal 8.014229e-01 5.980981e-01 0.000000e+00
    outer loop
      vertex   -3.556835e+00 -3.514104e+00 1.000000e+00
      vertex   -4.380951e+00 -2.409827e+00 1.000000e+00
      vertex   -4.380951e+00 -2.409827e+00 1.500000e+00
    endloop
  endfacet
  facet normal 9.342425e-01 3.566383e-01 0.000000e+00
    outer loop
      vertex   -4.872362e+00 -1.122538e+00 1.500000e+00
      vertex   -4.380951e+00 -2.409827e+00 1.500000e+00
      vertex   -4.380951e+00 -2.409827e+00 1.000000e+00
    endloop
  endfacet
  facet normal 9.342425e-01 3.566383e-01 0.000000e+00
    outer loop
      vertex   -4.380951e+00 -2.409827e+00 1.000000e+00
      vertex   -4.872362e+00 -1.122538e+00 1.000000e+00
      vertex   -4.872362e+00 -1.122538e+00 1.500000e+00
    endloop
  endfacet
  facet normal 9.961122e-01 8.809413e-02 0.000000e+00
    outer loop
      vertex   -4.993746e+00 2.500000e-01 1.500000e+00
      vertex   -4.872362e+00 -1.122538e+00 1.500000e+00
      vertex   -4.872362e+00 -1.122538e+00 1.000000e+00
    endloop
  endfacet
  facet normal 9.961122e-01 8.809413e-02 0.000000e+00
    outer loop
      vertex   -4.872362e+00 -1.122538e+00 1.000000e+00
      vertex   -4.993746e+00 2.500000e-01 1.000000e+00
      vertex   -4.993746e+00 2.500000e-01 1.500000e+00
    endloop
  endfacet
  facet normal 0.000000e+00 -0.000000e+00 1.000000e+00
    outer loop
      vertex   4.551006e+00 -2.070833e+00 1.000000e+00
      vertex   4.943430e+00 -7.500000e-01 1.000000e+00
      vertex   -1.080442e+00 -7.500000e-01 1.000000e+00
    endloop
  endfacet
  facet normal -0.000000e+00 0.000000e+00 1.000000e+00
    outer loop
      vertex   -3.556835e+00 -3.514104e+00 1.000000e+00
      vertex   -2.462598e+00 -4.351507e+00 1.000000e+00
      vertex   -1.080442e+00 -7.500000e-01 1.000000e+00
    endloop
  endfacet
  facet normal 0.000000e+00 0.000000e+00 1.000000e+00
    outer loop
      vertex   6.099009e-15 2.500000e-01 1.000000e+00
      vertex   -4.993746e+00 2.500000e-01 1.000000e+00
      vertex   -4.872362e+00 -1.122538e+00 1.000000e+00
    endloop
  endfacet
  facet normal 0.000000e+00 -0.000000e+00 1.000000e+00
    outer loop
      vertex   -1.080442e+00 -7.500000e-01 1.000000e+00
      vertex   6.099009e-15 2.500000e-01 1.000000e+00
      vertex   -4.872362e+00 -1.122538e+00 1.000000e+00
    endloop
  endfacet
  facet normal -0.000000e+00 0.000000e+00 1.000000e+00
    outer loop
      vertex   -4.872362e+00 -1.122538e+00 1.000000e+00
      vertex   -4.380951e+00 -2.409827e+00 1.000000e+00
      vertex   -1.080442e+00 -7.500000e-01 1.000000e+00
    endloop
  endfacet
  facet normal 0.000000e+00 0.000000e+00 1.000000e+00
    outer loop
      vertex   -1.080442e+00 -7.500000e-01 1.000000e+00
      vertex   -4.380951e+00 -2.409827e+00 1.000000e+00
      vertex   -3.556835e+00 -3.514104e+00 1.000000e+00
    endloop
  endfacet
  facet normal 0.000000e+00 0.000000e+00 1.000000e+00
    outer loop
      vertex   -1.080442e+00 -7.500000e-01 1.000000e+00
      vertex   -2.462598e+00 -4.351507e+00 1.000000e+00
      vertex   -1.181343e+00 -4.858439e+00 1.000000e+00
    endloop
  endfacet
  facet normal 0.000000e+00 0.000000e+00 1.000000e+00
    outer loop
      vertex   -1.080442e+00 -7.500000e-01 1.000000e+00
      vertex   -1.181343e+00 -4.858439e+00 1.000000e+00
      vertex   1.896283e-01 -4.996403e+00 1.000000e+00
    endloop
  endfacet
  facet normal 0.000000e+00 0.000000e+00 1.000000e+00
    outer loop
      vertex   -1.080442e+00 -7.500000e-01 1.000000e+00
      vertex   1.896283e-01 -4.996403e+00 1.000000e+00
      vertex   1.546198e+00 -4.754921e+00 1.000000e+00
    endloop
  endfacet
  facet normal 0.000000e+00 0.000000e+00 1.000000e+00
    outer loop
      vertex   -1.080442e+00 -7.500000e-01 1.000000e+00
      vertex   1.546198e+00 -4.754921e+00 1.000000e+00
      vertex   2.785344e+00 -4.152332e+00 1.000000e+00
    endloop
  endfacet
  facet normal 0.000000e+00 -0.000000e+00 1.000000e+00
    outer loop
      vertex   2.785344e+00 -4.152332e+00 1.000000e+00
      vertex   3.812960e+00 -3.234398e+00 1.000000e+00
      vertex   -1.080442e+00 -7.500000e-01 1.000000e+00
    endloop
  endfacet
  facet normal 0.000000e+00 0.000000e+00 1.000000e+00
    outer loop
      vertex   -1.080442e+00 -7.500000e-01 1.000000e+00
      vertex   3.812960e+00 -3.234398e+00 1.000000e+00
      vertex   4.551006e+00 -2.070833e+00 1.000000e+00
    endloop
  endfacet
  facet normal 0.000000e+00 -1.000000e+00 0.000000e+00
    outer loop
      vertex   4.943430e+00 -7.500000e-01 1.000000e+00
      vertex   4.943430e+00 -7.500000e-01 1.500000e+00
      vertex   -1.080442e+00 -7.500000e-01 1.500000e+00
    endloop
  endfacet
  facet normal 1.799843e-17 -1.000000e+00 2.168404e-16
    outer loop
      vertex   -1.080442e+00 -7.500000e-01 1.500000e+00
      vertex   -1.080442e+00 -7.500000e-01 1.000000e+00
      vertex   4.943430e+00 -7.500000e-01 1.000000e+00
    endloop
  endfacet
  facet normal -6.792585e-01 7.338991e-01 -1.591390e-16
    outer loop
      vertex   -1.080442e+00 -7.500000e-01 1.000000e+00
      vertex   -1.080442e+00 -7.500000e-01 1.500000e+00
      vertex   6.135208e-15 2.500000e-01 1.500000e+00
    endloop
  endfacet
  facet normal -6.792585e-01 7.338991e-01 4.917695e-17
    outer loop
      vertex   6.135208e-15 2.500000e-01 1.500000e+00
      vertex   6.099009e-15 2.500000e-01 1.000000e+00
      vertex   -1.080442e+00 -7.500000e-01 1.000000e+00
    endloop
  endfacet
  facet normal 0.000000e+00 -1.000000e+00 0.000000e+00
    outer loop
      vertex   6.099009e-15 2.500000e-01 1.000000e+00
      vertex   6.135208e-15 2.500000e-01 1.500000e+00
      vertex   -4.993746e+00 2.500000e-01 1.500000e+00
    endloop
  endfacet
  facet normal 0.000000e+00 -1.000000e+00 0.000000e+00
    outer loop
      vertex   -4.993746e+00 2.500000e-01 1.500000e+00
      vertex   -4.993746e+00 2.500000e-01 1.000000e+00
      vertex   6.099009e-15 2.500000e-01 1.000000e+00
    endloop
  endfacet
endsolid
