solid ascii
  facet normal 0.000000e+00 -0.000000e+00 -1.000000e+00
    outer loop
      vertex   4.586057e+00 1.992005e+00 0.000000e+00
      vertex   4.953430e+00 6.808332e-01 0.000000e+00
      vertex   0.000000e+00 0.000000e+00 0.000000e+00
    endloop
  endfacet
  facet normal 0.000000e+00 -0.000000e+00 -1.000000e+00
    outer loop
      vertex   4.953430e+00 6.808332e-01 0.000000e+00
      vertex   5.000000e+00 6.123234e-16 0.000000e+00
      vertex   0.000000e+00 0.000000e+00 0.000000e+00
    endloop
  endfacet
  facet normal 0.000000e+00 0.000000e+00 -1.000000e+00
    outer loop
      vertex   5.000000e+00 6.123234e-16 0.000000e+00
      vertex   4.953430e+00 -6.808332e-01 0.000000e+00
      vertex   0.000000e+00 0.000000e+00 0.000000e+00
    endloop
  endfacet
  facet normal 0.000000e+00 -0.000000e+00 -1.000000e+00
    outer loop
      vertex   1.674398e+00 4.711305e+00 0.000000e+00
      vertex   2.883402e+00 4.084849e+00 0.000000e+00
      vertex   0.000000e+00 0.000000e+00 0.000000e+00
    endloop
  endfacet
  facet normal 0.000000e+00 -0.000000e+00 -1.000000e+00
    outer loop
      vertex   2.883402e+00 4.084849e+00 0.000000e+00
      vertex   3.878556e+00 3.155440e+00 0.000000e+00
      vertex   0.000000e+00 0.000000e+00 0.000000e+00
    endloop
  endfacet
  facet normal 0.000000e+00 -0.000000e+00 -1.000000e+00
    outer loop
      vertex   3.878556e+00 3.155440e+00 0.000000e+00
      vertex   4.586057e+00 1.992005e+00 0.000000e+00
      vertex   0.000000e+00 0.000000e+00 0.000000e+00
    endloop
  endfacet
  facet normal 0.000000e+00 0.000000e+00 -1.000000e+00
    outer loop
      vertex   -2.300325e+00 4.439426e+00 0.000000e+00
      vertex   -1.017280e+00 4.895420e+00 0.000000e+00
      vertex   0.000000e+00 0.000000e+00 0.000000e+00
    endloop
  endfacet
  facet normal 0.000000e+00 0.000000e+00 -1.000000e+00
    outer loop
      vertex   -1.017280e+00 4.895420e+00 0.000000e+00
      vertex   3.412121e-01 4.988344e+00 0.000000e+00
      vertex   0.000000e+00 0.000000e+00 0.000000e+00
    endloop
  endfacet
  facet normal 0.000000e+00 -0.000000e+00 -1.000000e+00
    outer loop
      vertex   3.412121e-01 4.988344e+00 0.000000e+00
      vertex   1.674398e+00 4.711305e+00 0.000000e+00
      vertex   0.000000e+00 0.000000e+00 0.000000e+00
    endloop
  endfacet
  facet normal 0.000000e+00 0.000000e+00 -1.000000e+00
    outer loop
      vertex   -4.814586e+00 1.348984e+00 0.000000e+00
      vertex   -4.272097e+00 2.597920e+00 0.000000e+00
      vertex   0.000000e+00 0.000000e+00 0.000000e+00
    endloop
  endfacet
  facet normal 0.000000e+00 0.000000e+00 -1.000000e+00
    outer loop
      vertex   -4.272097e+00 2.597920e+00 0.000000e+00
      vertex   -3.412766e+00 3.654180e+00 0.000000e+00
      vertex   0.000000e+00 0.000000e+00 0.000000e+00
    endloop
  endfacet
  facet normal 0.000000e+00 0.000000e+00 -1.000000e+00
    outer loop
      vertex   -3.412766e+00 3.654180e+00 0.000000e+00
      vertex   -2.300325e+00 4.439426e+00 0.000000e+00
      vertex   0.000000e+00 0.000000e+00 0.000000e+00
    endloop
  endfacet
  facet normal 0.000000e+00 0.000000e+00 -1.000000e+00
    outer loop
      vertex   -4.272097e+00 -2.597920e+00 0.000000e+00
      vertex   -4.814586e+00 -1.348984e+00 0.000000e+00
      vertex   0.000000e+00 0.000000e+00 0.000000e+00
    endloop
  endfacet
  facet normal 0.000000e+00 0.000000e+00 -1.000000e+00
    outer loop
      vertex   -4.814586e+00 -1.348984e+00 0.000000e+00
      vertex   -5.000000e+00 -1.224647e-15 0.000000e+00
      vertex   0.000000e+00 0.000000e+00 0.000000e+00
    endloop
  endfacet
  facet normal 0.000000e+00 0.000000e+00 -1.000000e+00
    outer loop
      vertex   -5.000000e+00 -1.224647e-15 0.000000e+00
      vertex   -4.814586e+00 1.348984e+00 0.000000e+00
      vertex   0.000000e+00 0.000000e+00 0.000000e+00
    endloop
  endfacet
  facet normal 0.000000e+00 0.000000e+00 -1.000000e+00
    outer loop
      vertex   -1.017280e+00 -4.895420e+00 0.000000e+00
      vertex   -2.300325e+00 -4.439426e+00 0.000000e+00
      vertex   0.000000e+00 0.000000e+00 0.000000e+00
    endloop
  endfacet
  facet normal 0.000000e+00 0.000000e+00 -1.000000e+00
    outer loop
      vertex   -2.300325e+00 -4.439426e+00 0.000000e+00
      vertex   -3.412766e+00 -3.654180e+00 0.000000e+00
      vertex   0.000000e+00 0.000000e+00 0.000000e+00
    endloop
  endfacet
  facet normal 0.000000e+00 0.000000e+00 -1.000000e+00
    outer loop
      vertex   -3.412766e+00 -3.654180e+00 0.000000e+00
      vertex   -4.272097e+00 -2.597920e+00 0.000000e+00
      vertex   0.000000e+00 0.000000e+00 0.000000e+00
    endloop
  endfacet
  facet normal -0.000000e+00 0.000000e+00 -1.000000e+00
    outer loop
      vertex   2.883402e+00 -4.084849e+00 0.000000e+00
      vertex   1.674398e+00 -4.711305e+00 0.000000e+00
      vertex   0.000000e+00 0.000000e+00 0.000000e+00
    endloop
  endfacet
  facet normal -0.000000e+00 0.000000e+00 -1.000000e+00
    outer loop
      vertex   1.674398e+00 -4.711305e+00 0.000000e+00
      vertex   3.412121e-01 -4.988344e+00 0.000000e+00
      vertex   0.000000e+00 0.000000e+00 0.000000e+00
    endloop
  endfacet
  facet normal 0.000000e+00 0.000000e+00 -1.000000e+00
    outer loop
      vertex   3.412121e-01 -4.988344e+00 0.000000e+00
      vertex   -1.017280e+00 -4.895420e+00 0.000000e+00
      vertex   0.000000e+00 0.000000e+00 0.000000e+00
    endloop
  endfacet
  facet normal 0.000000e+00 0.000000e+00 -1.000000e+00
    outer loop
      vertex   0.000000e+00 0.000000e+00 0.000000e+00
      vertex   4.953430e+00 -6.808332e-01 0.000000e+00
      vertex   4.586057e+00 -1.992005e+00 0.000000e+00
    endloop
  endfacet
  facet normal -0.000000e+00 0.000000e+00 -1.000000e+00
    outer loop
      vertex   4.586057e+00 -1.992005e+00 0.000000e+00
      vertex   3.878556e+00 -3.155440e+00 0.000000e+00
      vertex   0.000000e+00 0.000000e+00 0.000000e+00
    endloop
  endfacet
  facet normal -0.000000e+00 0.000000e+00 -1.000000e+00
    outer loop
      vertex   3.878556e+00 -3.155440e+00 0.000000e+00
      vertex   2.883402e+00 -4.084849e+00 0.000000e+00
      vertex   0.000000e+00 0.000000e+00 0.000000e+00
    endloop
  endfacet
  facet normal 9.976688e-01 6.824241e-02 -7.560590e-17
    outer loop
      vertex   4.953430e+00 6.808332e-01 1.000000e+00
      vertex   5.000000e+00 1.836970e-15 1.000000e+00
      vertex   5.000000e+00 6.123234e-16 0.000000e+00
    endloop
  endfacet
  facet normal 9.976688e-01 -6.824241e-02 8.400656e-17
    outer loop
      vertex   4.953430e+00 -6.808332e-01 0.000000e+00
      vertex   5.000000e+00 6.123234e-16 0.000000e+00
      vertex   5.000000e+00 1.836970e-15 1.000000e+00
    endloop
  endfacet
  facet normal 9.976688e-01 -6.824241e-02 0.000000e+00
    outer loop
      vertex   5.000000e+00 1.836970e-15 1.000000e+00
      vertex   4.953430e+00 -6.808332e-01 1.000000e+00
      vertex   4.953430e+00 -6.808332e-01 0.000000e+00
    endloop
  endfacet
  facet normal 9.629173e-01 -2.697968e-01 0.000000e+00
    outer loop
      vertex   4.953430e+00 -6.808332e-01 0.000000e+00
      vertex   4.953430e+00 -6.808332e-01 1.000000e+00
      vertex   4.586057e+00 -1.992005e+00 1.000000e+00
    endloop
  endfacet
  facet normal 9.629173e-01 -2.697968e-01 0.000000e+00
    outer loop
      vertex   4.586057e+00 -1.992005e+00 1.000000e+00
      vertex   4.586057e+00 -1.992005e+00 0.000000e+00
      vertex   4.953430e+00 -6.808332e-01 0.000000e+00
    endloop
  endfacet
  facet normal 8.544194e-01 -5.195840e-01 0.000000e+00
    outer loop
      vertex   4.586057e+00 -1.992005e+00 0.000000e+00
      vertex   4.586057e+00 -1.992005e+00 1.000000e+00
      vertex   3.878556e+00 -3.155440e+00 1.000000e+00
    endloop
  endfacet
  facet normal 8.544194e-01 -5.195840e-01 0.000000e+00
    outer loop
      vertex   3.878556e+00 -3.155440e+00 1.000000e+00
      vertex   3.878556e+00 -3.155440e+00 0.000000e+00
      vertex   4.586057e+00 -1.992005e+00 0.000000e+00
    endloop
  endfacet
  facet normal 6.825531e-01 -7.308360e-01 0.000000e+00
    outer loop
      vertex   3.878556e+00 -3.155440e+00 0.000000e+00
      vertex   3.878556e+00 -3.155440e+00 1.000000e+00
      vertex   2.883402e+00 -4.084849e+00 1.000000e+00
    endloop
  endfacet
  facet normal 6.825531e-01 -7.308360e-01 0.000000e+00
    outer loop
      vertex   2.883402e+00 -4.084849e+00 1.000000e+00
      vertex   2.883402e+00 -4.084849e+00 0.000000e+00
      vertex   3.878556e+00 -3.155440e+00 0.000000e+00
    endloop
  endfacet
  facet normal 4.600650e-01 -8.878852e-01 0.000000e+00
    outer loop
      vertex   2.883402e+00 -4.084849e+00 0.000000e+00
      vertex   2.883402e+00 -4.084849e+00 1.000000e+00
      vertex   1.674398e+00 -4.711305e+00 1.000000e+00
    endloop
  endfacet
  facet normal 4.600650e-01 -8.878852e-01 0.000000e+00
    outer loop
      vertex   1.674398e+00 -4.711305e+00 1.000000e+00
      vertex   1.674398e+00 -4.711305e+00 0.000000e+00
      vertex   2.883402e+00 -4.084849e+00 0.000000e+00
    endloop
  endfacet
  facet normal 2.034560e-01 -9.790841e-01 0.000000e+00
    outer loop
      vertex   1.674398e+00 -4.711305e+00 0.000000e+00
      vertex   1.674398e+00 -4.711305e+00 1.000000e+00
      vertex   3.412121e-01 -4.988344e+00 1.000000e+00
    endloop
  endfacet
  facet normal 2.034560e-01 -9.790841e-01 0.000000e+00
    outer loop
      vertex   3.412121e-01 -4.988344e+00 1.000000e+00
      vertex   3.412121e-01 -4.988344e+00 0.000000e+00
      vertex   1.674398e+00 -4.711305e+00 0.000000e+00
    endloop
  endfacet
  facet normal -6.824241e-02 -9.976688e-01 0.000000e+00
    outer loop
      vertex   3.412121e-01 -4.988344e+00 0.000000e+00
      vertex   3.412121e-01 -4.988344e+00 1.000000e+00
      vertex   -1.017280e+00 -4.895420e+00 1.000000e+00
    endloop
  endfacet
  facet normal -6.824241e-02 -9.976688e-01 -0.000000e+00
    outer loop
      vertex   -1.017280e+00 -4.895420e+00 1.000000e+00
      vertex   -1.017280e+00 -4.895420e+00 0.000000e+00
      vertex   3.412121e-01 -4.988344e+00 0.000000e+00
    endloop
  endfacet
  facet normal -3.348796e-01 -9.422609e-01 0.000000e+00
    outer loop
      vertex   -1.017280e+00 -4.895420e+00 0.000000e+00
      vertex   -1.017280e+00 -4.895420e+00 1.000000e+00
      vertex   -2.300325e+00 -4.439426e+00 1.000000e+00
    endloop
  endfacet
  facet normal -3.348796e-01 -9.422609e-01 -0.000000e+00
    outer loop
      vertex   -2.300325e+00 -4.439426e+00 1.000000e+00
      vertex   -2.300325e+00 -4.439426e+00 0.000000e+00
      vertex   -1.017280e+00 -4.895420e+00 0.000000e+00
    endloop
  endfacet
  facet normal -5.766803e-01 -8.169699e-01 0.000000e+00
    outer loop
      vertex   -2.300325e+00 -4.439426e+00 0.000000e+00
      vertex   -2.300325e+00 -4.439426e+00 1.000000e+00
      vertex   -3.412766e+00 -3.654180e+00 1.000000e+00
    endloop
  endfacet
  facet normal -5.766803e-01 -8.169699e-01 -0.000000e+00
    outer loop
      vertex   -3.412766e+00 -3.654180e+00 1.000000e+00
      vertex   -3.412766e+00 -3.654180e+00 0.000000e+00
      vertex   -2.300325e+00 -4.439426e+00 0.000000e+00
    endloop
  endfacet
  facet normal -7.757113e-01 -6.310879e-01 0.000000e+00
    outer loop
      vertex   -3.412766e+00 -3.654180e+00 0.000000e+00
      vertex   -3.412766e+00 -3.654180e+00 1.000000e+00
      vertex   -4.272097e+00 -2.597920e+00 1.000000e+00
    endloop
  endfacet
  facet normal -7.757113e-01 -6.310879e-01 -0.000000e+00
    outer loop
      vertex   -4.272097e+00 -2.597920e+00 1.000000e+00
      vertex   -4.272097e+00 -2.597920e+00 0.000000e+00
      vertex   -3.412766e+00 -3.654180e+00 0.000000e+00
    endloop
  endfacet
  facet normal -9.172113e-01 -3.984011e-01 0.000000e+00
    outer loop
      vertex   -4.272097e+00 -2.597920e+00 0.000000e+00
      vertex   -4.272097e+00 -2.597920e+00 1.000000e+00
      vertex   -4.814586e+00 -1.348984e+00 1.000000e+00
    endloop
  endfacet
  facet normal -9.172113e-01 -3.984011e-01 -0.000000e+00
    outer loop
      vertex   -4.814586e+00 -1.348984e+00 1.000000e+00
      vertex   -4.814586e+00 -1.348984e+00 0.000000e+00
      vertex   -4.272097e+00 -2.597920e+00 0.000000e+00
    endloop
  endfacet
  facet normal -9.906859e-01 -1.361666e-01 0.000000e+00
    outer loop
      vertex   -4.814586e+00 -1.348984e+00 0.000000e+00
      vertex   -4.814586e+00 -1.348984e+00 1.000000e+00
      vertex   -5.000000e+00 -1.224647e-15 1.000000e+00
    endloop
  endfacet
  facet normal -9.906859e-01 -1.361666e-01 -0.000000e+00
    outer loop
      vertex   -5.000000e+00 -1.224647e-15 1.000000e+00
      vertex   -5.000000e+00 -1.224647e-15 0.000000e+00
      vertex   -4.814586e+00 -1.348984e+00 0.000000e+00
    endloop
  endfacet
  facet normal -9.906859e-01 1.361666e-01 0.000000e+00
    outer loop
      vertex   -5.000000e+00 -1.224647e-15 0.000000e+00
      vertex   -5.000000e+00 -1.224647e-15 1.000000e+00
      vertex   -4.814586e+00 1.348984e+00 1.000000e+00
    endloop
  endfacet
  facet normal -9.906859e-01 1.361666e-01 0.000000e+00
    outer loop
      vertex   -4.814586e+00 1.348984e+00 1.000000e+00
      vertex   -4.814586e+00 1.348984e+00 0.000000e+00
      vertex   -5.000000e+00 -1.224647e-15 0.000000e+00
    endloop
  endfacet
  facet normal -9.172113e-01 3.984011e-01 0.000000e+00
    outer loop
      vertex   -4.814586e+00 1.348984e+00 0.000000e+00
      vertex   -4.814586e+00 1.348984e+00 1.000000e+00
      vertex   -4.272097e+00 2.597920e+00 1.000000e+00
    endloop
  endfacet
  facet normal -9.172113e-01 3.984011e-01 0.000000e+00
    outer loop
      vertex   -4.272097e+00 2.597920e+00 1.000000e+00
      vertex   -4.272097e+00 2.597920e+00 0.000000e+00
      vertex   -4.814586e+00 1.348984e+00 0.000000e+00
    endloop
  endfacet
  facet normal -7.757113e-01 6.310879e-01 0.000000e+00
    outer loop
      vertex   -4.272097e+00 2.597920e+00 0.000000e+00
      vertex   -4.272097e+00 2.597920e+00 1.000000e+00
      vertex   -3.412766e+00 3.654180e+00 1.000000e+00
    endloop
  endfacet
  facet normal -7.757113e-01 6.310879e-01 0.000000e+00
    outer loop
      vertex   -3.412766e+00 3.654180e+00 1.000000e+00
      vertex   -3.412766e+00 3.654180e+00 0.000000e+00
      vertex   -4.272097e+00 2.597920e+00 0.000000e+00
    endloop
  endfacet
  facet normal -5.766803e-01 8.169699e-01 0.000000e+00
    outer loop
      vertex   -3.412766e+00 3.654180e+00 0.000000e+00
      vertex   -3.412766e+00 3.654180e+00 1.000000e+00
      vertex   -2.300325e+00 4.439426e+00 1.000000e+00
    endloop
  endfacet
  facet normal -5.766803e-01 8.169699e-01 0.000000e+00
    outer loop
      vertex   -2.300325e+00 4.439426e+00 1.000000e+00
      vertex   -2.300325e+00 4.439426e+00 0.000000e+00
      vertex   -3.412766e+00 3.654180e+00 0.000000e+00
    endloop
  endfacet
  facet normal -3.348796e-01 9.422609e-01 0.000000e+00
    outer loop
      vertex   -2.300325e+00 4.439426e+00 0.000000e+00
      vertex   -2.300325e+00 4.439426e+00 1.000000e+00
      vertex   -1.017280e+00 4.895420e+00 1.000000e+00
    endloop
  endfacet
  facet normal -3.348796e-01 9.422609e-01 0.000000e+00
    outer loop
      vertex   -1.017280e+00 4.895420e+00 1.000000e+00
      vertex   -1.017280e+00 4.895420e+00 0.000000e+00
      vertex   -2.300325e+00 4.439426e+00 0.000000e+00
    endloop
  endfacet
  facet normal -6.824241e-02 9.976688e-01 0.000000e+00
    outer loop
      vertex   -1.017280e+00 4.895420e+00 0.000000e+00
      vertex   -1.017280e+00 4.895420e+00 1.000000e+00
      vertex   3.412121e-01 4.988344e+00 1.000000e+00
    endloop
  endfacet
  facet normal -6.824241e-02 9.976688e-01 0.000000e+00
    outer loop
      vertex   3.412121e-01 4.988344e+00 1.000000e+00
      vertex   3.412121e-01 4.988344e+00 0.000000e+00
      vertex   -1.017280e+00 4.895420e+00 0.000000e+00
    endloop
  endfacet
  facet normal 2.034560e-01 9.790841e-01 -0.000000e+00
    outer loop
      vertex   3.412121e-01 4.988344e+00 0.000000e+00
      vertex   3.412121e-01 4.988344e+00 1.000000e+00
      vertex   1.674398e+00 4.711305e+00 1.000000e+00
    endloop
  endfacet
  facet normal 2.034560e-01 9.790841e-01 0.000000e+00
    outer loop
      vertex   1.674398e+00 4.711305e+00 1.000000e+00
      vertex   1.674398e+00 4.711305e+00 0.000000e+00
      vertex   3.412121e-01 4.988344e+00 0.000000e+00
    endloop
  endfacet
  facet normal 4.600650e-01 8.878852e-01 -0.000000e+00
    outer loop
      vertex   1.674398e+00 4.711305e+00 0.000000e+00
      vertex   1.674398e+00 4.711305e+00 1.000000e+00
      vertex   2.883402e+00 4.084849e+00 1.000000e+00
    endloop
  endfacet
  facet normal 4.600650e-01 8.878852e-01 0.000000e+00
    outer loop
      vertex   2.883402e+00 4.084849e+00 1.000000e+00
      vertex   2.883402e+00 4.084849e+00 0.000000e+00
      vertex   1.674398e+00 4.711305e+00 0.000000e+00
    endloop
  endfacet
  facet normal 6.825531e-01 7.308360e-01 -0.000000e+00
    outer loop
      vertex   2.883402e+00 4.084849e+00 0.000000e+00
      vertex   2.883402e+00 4.084849e+00 1.000000e+00
      vertex   3.878556e+00 3.155440e+00 1.000000e+00
    endloop
  endfacet
  facet normal 6.825531e-01 7.308360e-01 0.000000e+00
    outer loop
      vertex   3.878556e+00 3.155440e+00 1.000000e+00
      vertex   3.878556e+00 3.155440e+00 0.000000e+00
      vertex   2.883402e+00 4.084849e+00 0.000000e+00
    endloop
  endfacet
  facet normal 8.544194e-01 5.195840e-01 -0.000000e+00
    outer loop
      vertex   3.878556e+00 3.155440e+00 0.000000e+00
      vertex   3.878556e+00 3.155440e+00 1.000000e+00
      vertex   4.586057e+00 1.992005e+00 1.000000e+00
    endloop
  endfacet
  facet normal 8.544194e-01 5.195840e-01 0.000000e+00
    outer loop
      vertex   4.586057e+00 1.992005e+00 1.000000e+00
      vertex   4.586057e+00 1.992005e+00 0.000000e+00
      vertex   3.878556e+00 3.155440e+00 0.000000e+00
    endloop
  endfacet
  facet normal 9.629173e-01 2.697968e-01 -0.000000e+00
    outer loop
      vertex   4.586057e+00 1.992005e+00 0.000000e+00
      vertex   4.586057e+00 1.992005e+00 1.000000e+00
      vertex   4.953430e+00 6.808332e-01 1.000000e+00
    endloop
  endfacet
  facet normal 9.629173e-01 2.697968e-01 0.000000e+00
    outer loop
      vertex   4.953430e+00 6.808332e-01 1.000000e+00
      vertex   4.953430e+00 6.808332e-01 0.000000e+00
      vertex   4.586057e+00 1.992005e+00 0.000000e+00
    endloop
  endfacet
  facet normal 9.976688e-01 6.824241e-02 0.000000e+00
    outer loop
      vertex   5.000000e+00 6.123234e-16 0.000000e+00
      vertex   4.953430e+00 6.808332e-01 0.000000e+00
      vertex   4.953430e+00 6.808332e-01 1.000000e+00
    endloop
  endfacet
  facet normal -0.000000e+00 0.000000e+00 1.000000e+00
    outer loop
      vertex   3.750000e+00 2.124577e-15 1.000000e+00
      vertex   5.000000e+00 1.836970e-15 1.000000e+00
      vertex   4.953430e+00 6.808332e-01 1.000000e+00
    endloop
  endfacet
  facet normal 0.000000e+00 0.000000e+00 1.000000e+00
    outer loop
      vertex   3.566462e+00 1.158814e+00 1.000000e+00
      vertex   3.750000e+00 2.124577e-15 1.000000e+00
      vertex   4.953430e+00 6.808332e-01 1.000000e+00
    endloop
  endfacet
  facet normal 0.000000e+00 0.000000e+00 1.000000e+00
    outer loop
      vertex   4.953430e+00 6.808332e-01 1.000000e+00
      vertex   4.586057e+00 1.992005e+00 1.000000e+00
      vertex   3.566462e+00 1.158814e+00 1.000000e+00
    endloop
  endfacet
  facet normal 0.000000e+00 0.000000e+00 1.000000e+00
    outer loop
      vertex   3.033814e+00 2.204195e+00 1.000000e+00
      vertex   3.566462e+00 1.158814e+00 1.000000e+00
      vertex   4.586057e+00 1.992005e+00 1.000000e+00
    endloop
  endfacet
  facet normal 0.000000e+00 0.000000e+00 1.000000e+00
    outer loop
      vertex   4.586057e+00 1.992005e+00 1.000000e+00
      vertex   3.878556e+00 3.155440e+00 1.000000e+00
      vertex   3.033814e+00 2.204195e+00 1.000000e+00
    endloop
  endfacet
  facet normal -0.000000e+00 0.000000e+00 1.000000e+00
    outer loop
      vertex   2.204195e+00 3.033814e+00 1.000000e+00
      vertex   3.033814e+00 2.204195e+00 1.000000e+00
      vertex   3.878556e+00 3.155440e+00 1.000000e+00
    endloop
  endfacet
  facet normal 0.000000e+00 0.000000e+00 1.000000e+00
    outer loop
      vertex   3.878556e+00 3.155440e+00 1.000000e+00
      vertex   2.883402e+00 4.084849e+00 1.000000e+00
      vertex   2.204195e+00 3.033814e+00 1.000000e+00
    endloop
  endfacet
  facet normal -0.000000e+00 0.000000e+00 1.000000e+00
    outer loop
      vertex   1.158814e+00 3.566462e+00 1.000000e+00
      vertex   2.204195e+00 3.033814e+00 1.000000e+00
      vertex   2.883402e+00 4.084849e+00 1.000000e+00
    endloop
  endfacet
  facet normal 0.000000e+00 0.000000e+00 1.000000e+00
    outer loop
      vertex   2.883402e+00 4.084849e+00 1.000000e+00
      vertex   1.674398e+00 4.711305e+00 1.000000e+00
      vertex   1.158814e+00 3.566462e+00 1.000000e+00
    endloop
  endfacet
  facet normal -0.000000e+00 0.000000e+00 1.000000e+00
    outer loop
      vertex   -2.296213e-16 3.750000e+00 1.000000e+00
      vertex   1.158814e+00 3.566462e+00 1.000000e+00
      vertex   1.674398e+00 4.711305e+00 1.000000e+00
    endloop
  endfacet
  facet normal 0.000000e+00 0.000000e+00 1.000000e+00
    outer loop
      vertex   1.674398e+00 4.711305e+00 1.000000e+00
      vertex   3.412121e-01 4.988344e+00 1.000000e+00
      vertex   -2.296213e-16 3.750000e+00 1.000000e+00
    endloop
  endfacet
  facet normal 0.000000e+00 0.000000e+00 1.000000e+00
    outer loop
      vertex   -1.158814e+00 3.566462e+00 1.000000e+00
      vertex   -2.296213e-16 3.750000e+00 1.000000e+00
      vertex   3.412121e-01 4.988344e+00 1.000000e+00
    endloop
  endfacet
  facet normal 0.000000e+00 0.000000e+00 1.000000e+00
    outer loop
      vertex   3.412121e-01 4.988344e+00 1.000000e+00
      vertex   -1.017280e+00 4.895420e+00 1.000000e+00
      vertex   -1.158814e+00 3.566462e+00 1.000000e+00
    endloop
  endfacet
  facet normal 0.000000e+00 0.000000e+00 1.000000e+00
    outer loop
      vertex   -2.204195e+00 3.033814e+00 1.000000e+00
      vertex   -1.158814e+00 3.566462e+00 1.000000e+00
      vertex   -1.017280e+00 4.895420e+00 1.000000e+00
    endloop
  endfacet
  facet normal 0.000000e+00 0.000000e+00 1.000000e+00
    outer loop
      vertex   -1.158814e+00 -3.566462e+00 1.000000e+00
      vertex   -2.204195e+00 -3.033814e+00 1.000000e+00
      vertex   -2.300325e+00 -4.439426e+00 1.000000e+00
    endloop
  endfacet
  facet normal -0.000000e+00 0.000000e+00 1.000000e+00
    outer loop
      vertex   -2.300325e+00 -4.439426e+00 1.000000e+00
      vertex   -1.017280e+00 -4.895420e+00 1.000000e+00
      vertex   -1.158814e+00 -3.566462e+00 1.000000e+00
    endloop
  endfacet
  facet normal 0.000000e+00 0.000000e+00 1.000000e+00
    outer loop
      vertex   4.019533e-15 -3.750000e+00 1.000000e+00
      vertex   -1.158814e+00 -3.566462e+00 1.000000e+00
      vertex   -1.017280e+00 -4.895420e+00 1.000000e+00
    endloop
  endfacet
  facet normal -0.000000e+00 0.000000e+00 1.000000e+00
    outer loop
      vertex   -1.017280e+00 -4.895420e+00 1.000000e+00
      vertex   3.412121e-01 -4.988344e+00 1.000000e+00
      vertex   4.019533e-15 -3.750000e+00 1.000000e+00
    endloop
  endfacet
  facet normal 0.000000e+00 0.000000e+00 1.000000e+00
    outer loop
      vertex   1.158814e+00 -3.566462e+00 1.000000e+00
      vertex   4.019533e-15 -3.750000e+00 1.000000e+00
      vertex   3.412121e-01 -4.988344e+00 1.000000e+00
    endloop
  endfacet
  facet normal 0.000000e+00 0.000000e+00 1.000000e+00
    outer loop
      vertex   3.412121e-01 -4.988344e+00 1.000000e+00
      vertex   1.674398e+00 -4.711305e+00 1.000000e+00
      vertex   1.158814e+00 -3.566462e+00 1.000000e+00
    endloop
  endfacet
  facet normal 0.000000e+00 0.000000e+00 1.000000e+00
    outer loop
      vertex   2.204195e+00 -3.033814e+00 1.000000e+00
      vertex   1.158814e+00 -3.566462e+00 1.000000e+00
      vertex   1.674398e+00 -4.711305e+00 1.000000e+00
    endloop
  endfacet
  facet normal 0.000000e+00 0.000000e+00 1.000000e+00
    outer loop
      vertex   1.674398e+00 -4.711305e+00 1.000000e+00
      vertex   2.883402e+00 -4.084849e+00 1.000000e+00
      vertex   2.204195e+00 -3.033814e+00 1.000000e+00
    endloop
  endfacet
  facet normal 0.000000e+00 0.000000e+00 1.000000e+00
    outer loop
      vertex   3.033814e+00 -2.204195e+00 1.000000e+00
      vertex   2.204195e+00 -3.033814e+00 1.000000e+00
      vertex   2.883402e+00 -4.084849e+00 1.000000e+00
    endloop
  endfacet
  facet normal 0.000000e+00 0.000000e+00 1.000000e+00
    outer loop
      vertex   2.883402e+00 -4.084849e+00 1.000000e+00
      vertex   3.878556e+00 -3.155440e+00 1.000000e+00
      vertex   3.033814e+00 -2.204195e+00 1.000000e+00
    endloop
  endfacet
  facet normal 0.000000e+00 0.000000e+00 1.000000e+00
    outer loop
      vertex   3.566462e+00 -1.158814e+00 1.000000e+00
      vertex   3.033814e+00 -2.204195e+00 1.000000e+00
      vertex   3.878556e+00 -3.155440e+00 1.000000e+00
    endloop
  endfacet
  facet normal 0.000000e+00 -0.000000e+00 1.000000e+00
    outer loop
      vertex   3.878556e+00 -3.155440e+00 1.000000e+00
      vertex   4.586057e+00 -1.992005e+00 1.000000e+00
      vertex   3.566462e+00 -1.158814e+00 1.000000e+00
    endloop
  endfacet
  facet normal 0.000000e+00 0.000000e+00 1.000000e+00
    outer loop
      vertex   3.750000e+00 2.124577e-15 1.000000e+00
      vertex   3.566462e+00 -1.158814e+00 1.000000e+00
      vertex   4.586057e+00 -1.992005e+00 1.000000e+00
    endloop
  endfacet
  facet normal 0.000000e+00 -0.000000e+00 1.000000e+00
    outer loop
      vertex   4.586057e+00 -1.992005e+00 1.000000e+00
      vertex   4.953430e+00 -6.808332e-01 1.000000e+00
      vertex   3.750000e+00 2.124577e-15 1.000000e+00
    endloop
  endfacet
  facet normal 0.000000e+00 -0.000000e+00 1.000000e+00
    outer loop
      vertex   4.953430e+00 -6.808332e-01 1.000000e+00
      vertex   5.000000e+00 1.836970e-15 1.000000e+00
      vertex   3.750000e+00 2.124577e-15 1.000000e+00
    endloop
  endfacet
  facet normal 0.000000e+00 0.000000e+00 1.000000e+00
    outer loop
      vertex   -1.017280e+00 4.895420e+00 1.000000e+00
      vertex   -2.300325e+00 4.439426e+00 1.000000e+00
      vertex   -2.204195e+00 3.033814e+00 1.000000e+00
    endloop
  endfacet
  facet normal 0.000000e+00 0.000000e+00 1.000000e+00
    outer loop
      vertex   -2.300325e+00 4.439426e+00 1.000000e+00
      vertex   -3.412766e+00 3.654180e+00 1.000000e+00
      vertex   -2.204195e+00 3.033814e+00 1.000000e+00
    endloop
  endfacet
  facet normal 0.000000e+00 -0.000000e+00 1.000000e+00
    outer loop
      vertex   -3.033814e+00 2.204195e+00 1.000000e+00
      vertex   -2.204195e+00 3.033814e+00 1.000000e+00
      vertex   -3.412766e+00 3.654180e+00 1.000000e+00
    endloop
  endfacet
  facet normal 0.000000e+00 0.000000e+00 1.000000e+00
    outer loop
      vertex   -3.412766e+00 3.654180e+00 1.000000e+00
      vertex   -4.272097e+00 2.597920e+00 1.000000e+00
      vertex   -3.033814e+00 2.204195e+00 1.000000e+00
    endloop
  endfacet
  facet normal 0.000000e+00 -0.000000e+00 1.000000e+00
    outer loop
      vertex   -3.566462e+00 1.158814e+00 1.000000e+00
      vertex   -3.033814e+00 2.204195e+00 1.000000e+00
      vertex   -4.272097e+00 2.597920e+00 1.000000e+00
    endloop
  endfacet
  facet normal 0.000000e+00 0.000000e+00 1.000000e+00
    outer loop
      vertex   -4.272097e+00 2.597920e+00 1.000000e+00
      vertex   -4.814586e+00 1.348984e+00 1.000000e+00
      vertex   -3.566462e+00 1.158814e+00 1.000000e+00
    endloop
  endfacet
  facet normal 0.000000e+00 -0.000000e+00 1.000000e+00
    outer loop
      vertex   -3.750000e+00 0.000000e+00 1.000000e+00
      vertex   -3.566462e+00 1.158814e+00 1.000000e+00
      vertex   -4.814586e+00 1.348984e+00 1.000000e+00
    endloop
  endfacet
  facet normal 0.000000e+00 0.000000e+00 1.000000e+00
    outer loop
      vertex   -4.814586e+00 1.348984e+00 1.000000e+00
      vertex   -5.000000e+00 -1.224647e-15 1.000000e+00
      vertex   -3.750000e+00 0.000000e+00 1.000000e+00
    endloop
  endfacet
  facet normal 0.000000e+00 0.000000e+00 1.000000e+00
    outer loop
      vertex   -3.566462e+00 -1.158814e+00 1.000000e+00
      vertex   -3.750000e+00 0.000000e+00 1.000000e+00
      vertex   -5.000000e+00 -1.224647e-15 1.000000e+00
    endloop
  endfacet
  facet normal 0.000000e+00 0.000000e+00 1.000000e+00
    outer loop
      vertex   -5.000000e+00 -1.224647e-15 1.000000e+00
      vertex   -4.814586e+00 -1.348984e+00 1.000000e+00
      vertex   -3.566462e+00 -1.158814e+00 1.000000e+00
    endloop
  endfacet
  facet normal 0.000000e+00 0.000000e+00 1.000000e+00
    outer loop
      vertex   -3.033814e+00 -2.204195e+00 1.000000e+00
      vertex   -3.566462e+00 -1.158814e+00 1.000000e+00
      vertex   -4.814586e+00 -1.348984e+00 1.000000e+00
    endloop
  endfacet
  facet normal 0.000000e+00 0.000000e+00 1.000000e+00
    outer loop
      vertex   -4.814586e+00 -1.348984e+00 1.000000e+00
      vertex   -4.272097e+00 -2.597920e+00 1.000000e+00
      vertex   -3.033814e+00 -2.204195e+00 1.000000e+00
    endloop
  endfacet
  facet normal 0.000000e+00 0.000000e+00 1.000000e+00
    outer loop
      vertex   -2.204195e+00 -3.033814e+00 1.000000e+00
      vertex   -3.033814e+00 -2.204195e+00 1.000000e+00
      vertex   -4.272097e+00 -2.597920e+00 1.000000e+00
    endloop
  endfacet
  facet normal 0.000000e+00 0.000000e+00 1.000000e+00
    outer loop
      vertex   -4.272097e+00 -2.597920e+00 1.000000e+00
      vertex   -3.412766e+00 -3.654180e+00 1.000000e+00
      vertex   -2.204195e+00 -3.033814e+00 1.000000e+00
    endloop
  endfacet
  facet normal 0.000000e+00 0.000000e+00 1.000000e+00
    outer loop
      vertex   -2.204195e+00 -3.033814e+00 1.000000e+00
      vertex   -3.412766e+00 -3.654180e+00 1.000000e+00
      vertex   -2.300325e+00 -4.439426e+00 1.000000e+00
    endloop
  endfacet
  facet normal -9.876883e-01 1.564345e-01 0.000000e+00
    outer loop
      vertex   -3.566462e+00 1.158814e+00 3.000000e+00
      vertex   -3.566462e+00 1.158814e+00 1.000000e+00
      vertex   -3.750000e+00 0.000000e+00 1.000000e+00
    endloop
  endfacet
  facet normal -8.910065e-01 4.539905e-01 0.000000e+00
    outer loop
      vertex   -3.566462e+00 1.158814e+00 1.000000e+00
      vertex   -3.566462e+00 1.158814e+00 3.000000e+00
      vertex   -3.033814e+00 2.204195e+00 3.000000e+00
    endloop
  endfacet
  facet normal -8.910065e-01 4.539905e-01 0.000000e+00
    outer loop
      vertex   -3.033814e+00 2.204195e+00 3.000000e+00
      vertex   -3.033814e+00 2.204195e+00 1.000000e+00
      vertex   -3.566462e+00 1.158814e+00 1.000000e+00
    endloop
  endfacet
  facet normal -7.071068e-01 7.071068e-01 0.000000e+00
    outer loop
      vertex   -3.033814e+00 2.204195e+00 1.000000e+00
      vertex   -3.033814e+00 2.204195e+00 3.000000e+00
      vertex   -2.204195e+00 3.033814e+00 3.000000e+00
    endloop
  endfacet
  facet normal -7.071068e-01 7.071068e-01 0.000000e+00
    outer loop
      vertex   -2.204195e+00 3.033814e+00 3.000000e+00
      vertex   -2.204195e+00 3.033814e+00 1.000000e+00
      vertex   -3.033814e+00 2.204195e+00 1.000000e+00
    endloop
  endfacet
  facet normal -4.539905e-01 8.910065e-01 0.000000e+00
    outer loop
      vertex   -2.204195e+00 3.033814e+00 1.000000e+00
      vertex   -2.204195e+00 3.033814e+00 3.000000e+00
      vertex   -1.158814e+00 3.566462e+00 3.000000e+00
    endloop
  endfacet
  facet normal -4.539905e-01 8.910065e-01 0.000000e+00
    outer loop
      vertex   -1.158814e+00 3.566462e+00 3.000000e+00
      vertex   -1.158814e+00 3.566462e+00 1.000000e+00
      vertex   -2.204195e+00 3.033814e+00 1.000000e+00
    endloop
  endfacet
  facet normal -1.564345e-01 9.876883e-01 0.000000e+00
    outer loop
      vertex   -1.158814e+00 3.566462e+00 1.000000e+00
      vertex   -1.158814e+00 3.566462e+00 3.000000e+00
      vertex   -2.296213e-16 3.750000e+00 3.000000e+00
    endloop
  endfacet
  facet normal -1.564345e-01 9.876883e-01 0.000000e+00
    outer loop
      vertex   -2.296213e-16 3.750000e+00 3.000000e+00
      vertex   -2.296213e-16 3.750000e+00 1.000000e+00
      vertex   -1.158814e+00 3.566462e+00 1.000000e+00
    endloop
  endfacet
  facet normal 1.564345e-01 9.876883e-01 -0.000000e+00
    outer loop
      vertex   -2.296213e-16 3.750000e+00 1.000000e+00
      vertex   -2.296213e-16 3.750000e+00 3.000000e+00
      vertex   1.158814e+00 3.566462e+00 3.000000e+00
    endloop
  endfacet
  facet normal 1.564345e-01 9.876883e-01 0.000000e+00
    outer loop
      vertex   1.158814e+00 3.566462e+00 3.000000e+00
      vertex   1.158814e+00 3.566462e+00 1.000000e+00
      vertex   -2.296213e-16 3.750000e+00 1.000000e+00
    endloop
  endfacet
  facet normal 4.539905e-01 8.910065e-01 -0.000000e+00
    outer loop
      vertex   1.158814e+00 3.566462e+00 1.000000e+00
      vertex   1.158814e+00 3.566462e+00 3.000000e+00
      vertex   2.204195e+00 3.033814e+00 3.000000e+00
    endloop
  endfacet
  facet normal 4.539905e-01 8.910065e-01 0.000000e+00
    outer loop
      vertex   2.204195e+00 3.033814e+00 3.000000e+00
      vertex   2.204195e+00 3.033814e+00 1.000000e+00
      vertex   1.158814e+00 3.566462e+00 1.000000e+00
    endloop
  endfacet
  facet normal 7.071068e-01 7.071068e-01 -0.000000e+00
    outer loop
      vertex   2.204195e+00 3.033814e+00 1.000000e+00
      vertex   2.204195e+00 3.033814e+00 3.000000e+00
      vertex   3.033814e+00 2.204195e+00 3.000000e+00
    endloop
  endfacet
  facet normal 7.071068e-01 7.071068e-01 0.000000e+00
    outer loop
      vertex   3.033814e+00 2.204195e+00 3.000000e+00
      vertex   3.033814e+00 2.204195e+00 1.000000e+00
      vertex   2.204195e+00 3.033814e+00 1.000000e+00
    endloop
  endfacet
  facet normal 8.910065e-01 4.539905e-01 -0.000000e+00
    outer loop
      vertex   3.033814e+00 2.204195e+00 1.000000e+00
      vertex   3.033814e+00 2.204195e+00 3.000000e+00
      vertex   3.566462e+00 1.158814e+00 3.000000e+00
    endloop
  endfacet
  facet normal 8.910065e-01 4.539905e-01 0.000000e+00
    outer loop
      vertex   3.566462e+00 1.158814e+00 3.000000e+00
      vertex   3.566462e+00 1.158814e+00 1.000000e+00
      vertex   3.033814e+00 2.204195e+00 1.000000e+00
    endloop
  endfacet
  facet normal 9.876883e-01 1.564345e-01 -0.000000e+00
    outer loop
      vertex   3.566462e+00 1.158814e+00 1.000000e+00
      vertex   3.566462e+00 1.158814e+00 3.000000e+00
      vertex   3.750000e+00 2.124577e-15 3.000000e+00
    endloop
  endfacet
  facet normal 9.876883e-01 1.564345e-01 0.000000e+00
    outer loop
      vertex   3.750000e+00 2.124577e-15 3.000000e+00
      vertex   3.750000e+00 2.124577e-15 1.000000e+00
      vertex   3.566462e+00 1.158814e+00 1.000000e+00
    endloop
  endfacet
  facet normal 9.876883e-01 -1.564345e-01 0.000000e+00
    outer loop
      vertex   3.750000e+00 2.124577e-15 1.000000e+00
      vertex   3.750000e+00 2.124577e-15 3.000000e+00
      vertex   3.566462e+00 -1.158814e+00 3.000000e+00
    endloop
  endfacet
  facet normal 9.876883e-01 -1.564345e-01 0.000000e+00
    outer loop
      vertex   3.566462e+00 -1.158814e+00 3.000000e+00
      vertex   3.566462e+00 -1.158814e+00 1.000000e+00
      vertex   3.750000e+00 2.124577e-15 1.000000e+00
    endloop
  endfacet
  facet normal 8.910065e-01 -4.539905e-01 0.000000e+00
    outer loop
      vertex   3.566462e+00 -1.158814e+00 1.000000e+00
      vertex   3.566462e+00 -1.158814e+00 3.000000e+00
      vertex   3.033814e+00 -2.204195e+00 3.000000e+00
    endloop
  endfacet
  facet normal 8.910065e-01 -4.539905e-01 0.000000e+00
    outer loop
      vertex   3.033814e+00 -2.204195e+00 3.000000e+00
      vertex   3.033814e+00 -2.204195e+00 1.000000e+00
      vertex   3.566462e+00 -1.158814e+00 1.000000e+00
    endloop
  endfacet
  facet normal 7.071068e-01 -7.071068e-01 0.000000e+00
    outer loop
      vertex   3.033814e+00 -2.204195e+00 1.000000e+00
      vertex   3.033814e+00 -2.204195e+00 3.000000e+00
      vertex   2.204195e+00 -3.033814e+00 3.000000e+00
    endloop
  endfacet
  facet normal 7.071068e-01 -7.071068e-01 0.000000e+00
    outer loop
      vertex   2.204195e+00 -3.033814e+00 3.000000e+00
      vertex   2.204195e+00 -3.033814e+00 1.000000e+00
      vertex   3.033814e+00 -2.204195e+00 1.000000e+00
    endloop
  endfacet
  facet normal 4.539905e-01 -8.910065e-01 0.000000e+00
    outer loop
      vertex   2.204195e+00 -3.033814e+00 1.000000e+00
      vertex   2.204195e+00 -3.033814e+00 3.000000e+00
      vertex   1.158814e+00 -3.566462e+00 3.000000e+00
    endloop
  endfacet
  facet normal 4.539905e-01 -8.910065e-01 0.000000e+00
    outer loop
      vertex   1.158814e+00 -3.566462e+00 3.000000e+00
      vertex   1.158814e+00 -3.566462e+00 1.000000e+00
      vertex   2.204195e+00 -3.033814e+00 1.000000e+00
    endloop
  endfacet
  facet normal 1.564345e-01 -9.876883e-01 0.000000e+00
    outer loop
      vertex   1.158814e+00 -3.566462e+00 1.000000e+00
      vertex   1.158814e+00 -3.566462e+00 3.000000e+00
      vertex   4.019533e-15 -3.750000e+00 3.000000e+00
    endloop
  endfacet
  facet normal 1.564345e-01 -9.876883e-01 0.000000e+00
    outer loop
      vertex   4.019533e-15 -3.750000e+00 3.000000e+00
      vertex   4.019533e-15 -3.750000e+00 1.000000e+00
      vertex   1.158814e+00 -3.566462e+00 1.000000e+00
    endloop
  endfacet
  facet normal -1.564345e-01 -9.876883e-01 0.000000e+00
    outer loop
      vertex   4.019533e-15 -3.750000e+00 1.000000e+00
      vertex   4.019533e-15 -3.750000e+00 3.000000e+00
      vertex   -1.158814e+00 -3.566462e+00 3.000000e+00
    endloop
  endfacet
  facet normal -1.564345e-01 -9.876883e-01 -0.000000e+00
    outer loop
      vertex   -1.158814e+00 -3.566462e+00 3.000000e+00
      vertex   -1.158814e+00 -3.566462e+00 1.000000e+00
      vertex   4.019533e-15 -3.750000e+00 1.000000e+00
    endloop
  endfacet
  facet normal -4.539905e-01 -8.910065e-01 0.000000e+00
    outer loop
      vertex   -1.158814e+00 -3.566462e+00 1.000000e+00
      vertex   -1.158814e+00 -3.566462e+00 3.000000e+00
      vertex   -2.204195e+00 -3.033814e+00 3.000000e+00
    endloop
  endfacet
  facet normal -4.539905e-01 -8.910065e-01 -0.000000e+00
    outer loop
      vertex   -2.204195e+00 -3.033814e+00 3.000000e+00
      vertex   -2.204195e+00 -3.033814e+00 1.000000e+00
      vertex   -1.158814e+00 -3.566462e+00 1.000000e+00
    endloop
  endfacet
  facet normal -7.071068e-01 -7.071068e-01 0.000000e+00
    outer loop
      vertex   -2.204195e+00 -3.033814e+00 1.000000e+00
      vertex   -2.204195e+00 -3.033814e+00 3.000000e+00
      vertex   -3.033814e+00 -2.204195e+00 3.000000e+00
    endloop
  endfacet
  facet normal -7.071068e-01 -7.071068e-01 -0.000000e+00
    outer loop
      vertex   -3.033814e+00 -2.204195e+00 3.000000e+00
      vertex   -3.033814e+00 -2.204195e+00 1.000000e+00
      vertex   -2.204195e+00 -3.033814e+00 1.000000e+00
    endloop
  endfacet
  facet normal -8.910065e-01 -4.539905e-01 0.000000e+00
    outer loop
      vertex   -3.033814e+00 -2.204195e+00 1.000000e+00
      vertex   -3.033814e+00 -2.204195e+00 3.000000e+00
      vertex   -3.566462e+00 -1.158814e+00 3.000000e+00
    endloop
  endfacet
  facet normal -8.910065e-01 -4.539905e-01 -0.000000e+00
    outer loop
      vertex   -3.566462e+00 -1.158814e+00 3.000000e+00
      vertex   -3.566462e+00 -1.158814e+00 1.000000e+00
      vertex   -3.033814e+00 -2.204195e+00 1.000000e+00
    endloop
  endfacet
  facet normal -9.876883e-01 -1.564345e-01 0.000000e+00
    outer loop
      vertex   -3.566462e+00 -1.158814e+00 1.000000e+00
      vertex   -3.566462e+00 -1.158814e+00 3.000000e+00
      vertex   -3.750000e+00 -9.184851e-16 3.000000e+00
    endloop
  endfacet
  facet normal -9.876883e-01 -1.564345e-01 -7.184136e-17
    outer loop
      vertex   -3.750000e+00 -9.184851e-16 3.000000e+00
      vertex   -3.750000e+00 0.000000e+00 1.000000e+00
      vertex   -3.566462e+00 -1.158814e+00 1.000000e+00
    endloop
  endfacet
  facet normal -9.876883e-01 1.564345e-01 7.184136e-17
    outer loop
      vertex   -3.750000e+00 0.000000e+00 1.000000e+00
      vertex   -3.750000e+00 -9.184851e-16 3.000000e+00
      vertex   -3.566462e+00 1.158814e+00 3.000000e+00
    endloop
  endfacet
  facet normal -1.979172e-16 3.134700e-17 1.000000e+00
    outer loop
      vertex   3.566462e+00 -1.158814e+00 3.000000e+00
      vertex   3.750000e+00 2.124577e-15 3.000000e+00
      vertex   1.558776e+00 0.000000e+00 3.000000e+00
    endloop
  endfacet
  facet normal -1.621605e-16 3.182579e-16 1.000000e+00
    outer loop
      vertex   1.158814e+00 -3.566462e+00 3.000000e+00
      vertex   2.204195e+00 -3.033814e+00 3.000000e+00
      vertex   1.558776e+00 -2.000000e+00 3.000000e+00
    endloop
  endfacet
  facet normal 1.621605e-16 3.182579e-16 1.000000e+00
    outer loop
      vertex   -1.558776e+00 -2.000000e+00 3.000000e+00
      vertex   -2.204195e+00 -3.033814e+00 3.000000e+00
      vertex   -1.158814e+00 -3.566462e+00 3.000000e+00
    endloop
  endfacet
  facet normal 0.000000e+00 0.000000e+00 1.000000e+00
    outer loop
      vertex   1.558776e+00 1.000000e+00 3.000000e+00
      vertex   -1.058776e+00 -3.252607e-16 3.000000e+00
      vertex   1.558776e+00 0.000000e+00 3.000000e+00
    endloop
  endfacet
  facet normal 0.000000e+00 0.000000e+00 1.000000e+00
    outer loop
      vertex   -1.058776e+00 -3.252607e-16 3.000000e+00
      vertex   1.558776e+00 1.000000e+00 3.000000e+00
      vertex   1.058776e+00 1.000000e+00 3.000000e+00
    endloop
  endfacet
  facet normal -0.000000e+00 0.000000e+00 1.000000e+00
    outer loop
      vertex   -1.058776e+00 1.000000e+00 3.000000e+00
      vertex   -1.058776e+00 -3.252607e-16 3.000000e+00
      vertex   1.058776e+00 1.000000e+00 3.000000e+00
    endloop
  endfacet
  facet normal 0.000000e+00 0.000000e+00 1.000000e+00
    outer loop
      vertex   -1.058776e+00 1.000000e+00 3.000000e+00
      vertex   1.058776e+00 1.000000e+00 3.000000e+00
      vertex   9.539240e-01 1.459386e+00 3.000000e+00
    endloop
  endfacet
  facet normal 0.000000e+00 0.000000e+00 1.000000e+00
    outer loop
      vertex   -1.058776e+00 1.000000e+00 3.000000e+00
      vertex   9.539240e-01 1.459386e+00 3.000000e+00
      vertex   6.601359e-01 1.827784e+00 3.000000e+00
    endloop
  endfacet
  facet normal -6.719370e-16 0.000000e+00 1.000000e+00
    outer loop
      vertex   1.558776e+00 0.000000e+00 3.000000e+00
      vertex   1.558776e+00 -2.000000e+00 3.000000e+00
      vertex   2.204195e+00 -3.033814e+00 3.000000e+00
    endloop
  endfacet
  facet normal -1.178726e-16 1.178726e-16 1.000000e+00
    outer loop
      vertex   2.204195e+00 -3.033814e+00 3.000000e+00
      vertex   3.033814e+00 -2.204195e+00 3.000000e+00
      vertex   1.558776e+00 0.000000e+00 3.000000e+00
    endloop
  endfacet
  facet normal -1.669203e-16 8.505015e-17 1.000000e+00
    outer loop
      vertex   3.033814e+00 -2.204195e+00 3.000000e+00
      vertex   3.566462e+00 -1.158814e+00 3.000000e+00
      vertex   1.558776e+00 0.000000e+00 3.000000e+00
    endloop
  endfacet
  facet normal 0.000000e+00 2.768538e-16 1.000000e+00
    outer loop
      vertex   1.558776e+00 -2.000000e+00 3.000000e+00
      vertex   -1.558776e+00 -2.000000e+00 3.000000e+00
      vertex   -1.158814e+00 -3.566462e+00 3.000000e+00
    endloop
  endfacet
  facet normal 3.439771e-17 2.171786e-16 1.000000e+00
    outer loop
      vertex   -1.158814e+00 -3.566462e+00 3.000000e+00
      vertex   4.019533e-15 -3.750000e+00 3.000000e+00
      vertex   1.558776e+00 -2.000000e+00 3.000000e+00
    endloop
  endfacet
  facet normal -4.569733e-17 2.885216e-16 1.000000e+00
    outer loop
      vertex   4.019533e-15 -3.750000e+00 3.000000e+00
      vertex   1.158814e+00 -3.566462e+00 3.000000e+00
      vertex   1.558776e+00 -2.000000e+00 3.000000e+00
    endloop
  endfacet
  facet normal 0.000000e+00 0.000000e+00 1.000000e+00
    outer loop
      vertex   -2.355998e-01 2.032230e+00 3.000000e+00
      vertex   -6.601359e-01 1.827784e+00 3.000000e+00
      vertex   -9.539240e-01 1.459386e+00 3.000000e+00
    endloop
  endfacet
  facet normal -0.000000e+00 0.000000e+00 1.000000e+00
    outer loop
      vertex   -9.539240e-01 1.459386e+00 3.000000e+00
      vertex   -1.058776e+00 1.000000e+00 3.000000e+00
      vertex   -2.355998e-01 2.032230e+00 3.000000e+00
    endloop
  endfacet
  facet normal 0.000000e+00 0.000000e+00 1.000000e+00
    outer loop
      vertex   -1.058776e+00 1.000000e+00 3.000000e+00
      vertex   2.355998e-01 2.032230e+00 3.000000e+00
      vertex   -2.355998e-01 2.032230e+00 3.000000e+00
    endloop
  endfacet
  facet normal 0.000000e+00 0.000000e+00 1.000000e+00
    outer loop
      vertex   6.601359e-01 1.827784e+00 3.000000e+00
      vertex   2.355998e-01 2.032230e+00 3.000000e+00
      vertex   -1.058776e+00 1.000000e+00 3.000000e+00
    endloop
  endfacet
  facet normal 2.076413e-16 -1.057985e-16 1.000000e+00
    outer loop
      vertex   -3.033814e+00 2.204195e+00 3.000000e+00
      vertex   -3.566462e+00 1.158814e+00 3.000000e+00
      vertex   -1.558776e+00 1.000000e+00 3.000000e+00
    endloop
  endfacet
  facet normal 2.478336e-16 -5.656639e-17 1.000000e+00
    outer loop
      vertex   -1.558776e+00 1.000000e+00 3.000000e+00
      vertex   -1.404408e+00 1.676327e+00 3.000000e+00
      vertex   -3.033814e+00 2.204195e+00 3.000000e+00
    endloop
  endfacet
  facet normal 2.010320e-16 -2.010320e-16 1.000000e+00
    outer loop
      vertex   -2.204195e+00 3.033814e+00 3.000000e+00
      vertex   -3.033814e+00 2.204195e+00 3.000000e+00
      vertex   -1.404408e+00 1.676327e+00 3.000000e+00
    endloop
  endfacet
  facet normal 2.303939e-16 -1.837330e-16 1.000000e+00
    outer loop
      vertex   -1.404408e+00 1.676327e+00 3.000000e+00
      vertex   -9.718808e-01 2.218700e+00 3.000000e+00
      vertex   -2.204195e+00 3.033814e+00 3.000000e+00
    endloop
  endfacet
  facet normal 1.531324e-16 -3.005393e-16 1.000000e+00
    outer loop
      vertex   -1.158814e+00 3.566462e+00 3.000000e+00
      vertex   -2.204195e+00 3.033814e+00 3.000000e+00
      vertex   -9.718808e-01 2.218700e+00 3.000000e+00
    endloop
  endfacet
  facet normal 1.452580e-16 -3.016314e-16 1.000000e+00
    outer loop
      vertex   -9.718808e-01 2.218700e+00 3.000000e+00
      vertex   -3.468602e-01 2.519694e+00 3.000000e+00
      vertex   -1.158814e+00 3.566462e+00 3.000000e+00
    endloop
  endfacet
  facet normal -1.979172e-16 -3.134700e-17 1.000000e+00
    outer loop
      vertex   1.558776e+00 0.000000e+00 3.000000e+00
      vertex   3.750000e+00 2.124577e-15 3.000000e+00
      vertex   3.566462e+00 1.158814e+00 3.000000e+00
    endloop
  endfacet
  facet normal -1.669203e-16 -8.505015e-17 1.000000e+00
    outer loop
      vertex   3.566462e+00 1.158814e+00 3.000000e+00
      vertex   3.033814e+00 2.204195e+00 3.000000e+00
      vertex   1.558776e+00 0.000000e+00 3.000000e+00
    endloop
  endfacet
  facet normal -2.940134e-16 -2.550159e-31 1.000000e+00
    outer loop
      vertex   1.558776e+00 1.000000e+00 3.000000e+00
      vertex   1.558776e+00 0.000000e+00 3.000000e+00
      vertex   3.033814e+00 2.204195e+00 3.000000e+00
    endloop
  endfacet
  facet normal -2.478336e-16 -5.656639e-17 1.000000e+00
    outer loop
      vertex   3.033814e+00 2.204195e+00 3.000000e+00
      vertex   1.404408e+00 1.676327e+00 3.000000e+00
      vertex   1.558776e+00 1.000000e+00 3.000000e+00
    endloop
  endfacet
  facet normal -2.115139e-16 -1.686767e-16 1.000000e+00
    outer loop
      vertex   9.718808e-01 2.218700e+00 3.000000e+00
      vertex   1.404408e+00 1.676327e+00 3.000000e+00
      vertex   3.033814e+00 2.204195e+00 3.000000e+00
    endloop
  endfacet
  facet normal -2.118174e-16 -2.118174e-16 1.000000e+00
    outer loop
      vertex   3.033814e+00 2.204195e+00 3.000000e+00
      vertex   2.204195e+00 3.033814e+00 3.000000e+00
      vertex   9.718808e-01 2.218700e+00 3.000000e+00
    endloop
  endfacet
  facet normal -1.482713e-16 -3.078885e-16 1.000000e+00
    outer loop
      vertex   3.468602e-01 2.519694e+00 3.000000e+00
      vertex   9.718808e-01 2.218700e+00 3.000000e+00
      vertex   2.204195e+00 3.033814e+00 3.000000e+00
    endloop
  endfacet
  facet normal -1.513007e-16 -2.969443e-16 1.000000e+00
    outer loop
      vertex   2.204195e+00 3.033814e+00 3.000000e+00
      vertex   1.158814e+00 3.566462e+00 3.000000e+00
      vertex   3.468602e-01 2.519694e+00 3.000000e+00
    endloop
  endfacet
  facet normal 0.000000e+00 -4.143047e-16 1.000000e+00
    outer loop
      vertex   -3.468602e-01 2.519694e+00 3.000000e+00
      vertex   3.468602e-01 2.519694e+00 3.000000e+00
      vertex   1.158814e+00 3.566462e+00 3.000000e+00
    endloop
  endfacet
  facet normal -5.344381e-17 -3.374310e-16 1.000000e+00
    outer loop
      vertex   1.158814e+00 3.566462e+00 3.000000e+00
      vertex   -2.296213e-16 3.750000e+00 3.000000e+00
      vertex   -3.468602e-01 2.519694e+00 3.000000e+00
    endloop
  endfacet
  facet normal 5.843979e-17 -3.689743e-16 1.000000e+00
    outer loop
      vertex   -2.296213e-16 3.750000e+00 3.000000e+00
      vertex   -1.158814e+00 3.566462e+00 3.000000e+00
      vertex   -3.468602e-01 2.519694e+00 3.000000e+00
    endloop
  endfacet
  facet normal 2.133375e-16 -3.378933e-17 1.000000e+00
    outer loop
      vertex   -1.558776e+00 1.000000e+00 3.000000e+00
      vertex   -3.566462e+00 1.158814e+00 3.000000e+00
      vertex   -3.750000e+00 -9.184851e-16 3.000000e+00
    endloop
  endfacet
  facet normal 1.845758e-16 2.923393e-17 1.000000e+00
    outer loop
      vertex   -1.558776e+00 1.000000e+00 3.000000e+00
      vertex   -3.750000e+00 -9.184851e-16 3.000000e+00
      vertex   -3.566462e+00 -1.158814e+00 3.000000e+00
    endloop
  endfacet
  facet normal 2.160103e-16 -0.000000e+00 1.000000e+00
    outer loop
      vertex   -1.558776e+00 -2.000000e+00 3.000000e+00
      vertex   -1.558776e+00 1.000000e+00 3.000000e+00
      vertex   -3.566462e+00 -1.158814e+00 3.000000e+00
    endloop
  endfacet
  facet normal 2.746414e-16 1.399368e-16 1.000000e+00
    outer loop
      vertex   -3.566462e+00 -1.158814e+00 3.000000e+00
      vertex   -3.033814e+00 -2.204195e+00 3.000000e+00
      vertex   -1.558776e+00 -2.000000e+00 3.000000e+00
    endloop
  endfacet
  facet normal 2.582613e-16 2.582613e-16 1.000000e+00
    outer loop
      vertex   -3.033814e+00 -2.204195e+00 3.000000e+00
      vertex   -2.204195e+00 -3.033814e+00 3.000000e+00
      vertex   -1.558776e+00 -2.000000e+00 3.000000e+00
    endloop
  endfacet
  facet normal -1.242614e-16 1.000000e+00 0.000000e+00
    outer loop
      vertex   -1.058776e+00 -3.252607e-16 3.000000e+00
      vertex   -1.058776e+00 -3.252607e-16 3.400000e+00
      vertex   1.558776e+00 0.000000e+00 3.400000e+00
    endloop
  endfacet
  facet normal -1.242614e-16 1.000000e+00 0.000000e+00
    outer loop
      vertex   1.558776e+00 0.000000e+00 3.400000e+00
      vertex   1.558776e+00 0.000000e+00 3.000000e+00
      vertex   -1.058776e+00 -3.252607e-16 3.000000e+00
    endloop
  endfacet
  facet normal 1.000000e+00 2.168404e-16 -0.000000e+00
    outer loop
      vertex   -1.058776e+00 1.000000e+00 3.000000e+00
      vertex   -1.058776e+00 1.000000e+00 3.400000e+00
      vertex   -1.058776e+00 -3.252607e-16 3.400000e+00
    endloop
  endfacet
  facet normal 1.000000e+00 2.168404e-16 0.000000e+00
    outer loop
      vertex   -1.058776e+00 -3.252607e-16 3.400000e+00
      vertex   -1.058776e+00 -3.252607e-16 3.000000e+00
      vertex   -1.058776e+00 1.000000e+00 3.000000e+00
    endloop
  endfacet
  facet normal 9.749279e-01 -2.225209e-01 4.288826e-17
    outer loop
      vertex   -9.539240e-01 1.459386e+00 3.400000e+00
      vertex   -1.058776e+00 1.000000e+00 3.400000e+00
      vertex   -1.058776e+00 1.000000e+00 3.000000e+00
    endloop
  endfacet
  facet normal 9.749279e-01 -2.225209e-01 4.288826e-17
    outer loop
      vertex   -1.058776e+00 1.000000e+00 3.000000e+00
      vertex   -9.539240e-01 1.459386e+00 3.000000e+00
      vertex   -9.539240e-01 1.459386e+00 3.400000e+00
    endloop
  endfacet
  facet normal 7.818315e-01 -6.234898e-01 0.000000e+00
    outer loop
      vertex   -6.601359e-01 1.827784e+00 3.400000e+00
      vertex   -9.539240e-01 1.459386e+00 3.400000e+00
      vertex   -9.539240e-01 1.459386e+00 3.000000e+00
    endloop
  endfacet
  facet normal 7.818315e-01 -6.234898e-01 0.000000e+00
    outer loop
      vertex   -9.539240e-01 1.459386e+00 3.000000e+00
      vertex   -6.601359e-01 1.827784e+00 3.000000e+00
      vertex   -6.601359e-01 1.827784e+00 3.400000e+00
    endloop
  endfacet
  facet normal 4.338837e-01 -9.009689e-01 0.000000e+00
    outer loop
      vertex   -2.355998e-01 2.032230e+00 3.400000e+00
      vertex   -6.601359e-01 1.827784e+00 3.400000e+00
      vertex   -6.601359e-01 1.827784e+00 3.000000e+00
    endloop
  endfacet
  facet normal 4.338837e-01 -9.009689e-01 0.000000e+00
    outer loop
      vertex   -6.601359e-01 1.827784e+00 3.000000e+00
      vertex   -2.355998e-01 2.032230e+00 3.000000e+00
      vertex   -2.355998e-01 2.032230e+00 3.400000e+00
    endloop
  endfacet
  facet normal -0.000000e+00 -1.000000e+00 0.000000e+00
    outer loop
      vertex   2.355998e-01 2.032230e+00 3.400000e+00
      vertex   -2.355998e-01 2.032230e+00 3.400000e+00
      vertex   -2.355998e-01 2.032230e+00 3.000000e+00
    endloop
  endfacet
  facet normal 0.000000e+00 -1.000000e+00 0.000000e+00
    outer loop
      vertex   -2.355998e-01 2.032230e+00 3.000000e+00
      vertex   2.355998e-01 2.032230e+00 3.000000e+00
      vertex   2.355998e-01 2.032230e+00 3.400000e+00
    endloop
  endfacet
  facet normal -4.338837e-01 -9.009689e-01 0.000000e+00
    outer loop
      vertex   6.601359e-01 1.827784e+00 3.400000e+00
      vertex   2.355998e-01 2.032230e+00 3.400000e+00
      vertex   2.355998e-01 2.032230e+00 3.000000e+00
    endloop
  endfacet
  facet normal -4.338837e-01 -9.009689e-01 0.000000e+00
    outer loop
      vertex   2.355998e-01 2.032230e+00 3.000000e+00
      vertex   6.601359e-01 1.827784e+00 3.000000e+00
      vertex   6.601359e-01 1.827784e+00 3.400000e+00
    endloop
  endfacet
  facet normal -7.818315e-01 -6.234898e-01 -8.577652e-17
    outer loop
      vertex   9.539240e-01 1.459386e+00 3.400000e+00
      vertex   6.601359e-01 1.827784e+00 3.400000e+00
      vertex   6.601359e-01 1.827784e+00 3.000000e+00
    endloop
  endfacet
  facet normal -7.818315e-01 -6.234898e-01 -8.577652e-17
    outer loop
      vertex   6.601359e-01 1.827784e+00 3.000000e+00
      vertex   9.539240e-01 1.459386e+00 3.000000e+00
      vertex   9.539240e-01 1.459386e+00 3.400000e+00
    endloop
  endfacet
  facet normal -9.749279e-01 -2.225209e-01 -4.288826e-17
    outer loop
      vertex   1.058776e+00 1.000000e+00 3.400000e+00
      vertex   9.539240e-01 1.459386e+00 3.400000e+00
      vertex   9.539240e-01 1.459386e+00 3.000000e+00
    endloop
  endfacet
  facet normal -9.749279e-01 -2.225209e-01 -4.288826e-17
    outer loop
      vertex   9.539240e-01 1.459386e+00 3.000000e+00
      vertex   1.058776e+00 1.000000e+00 3.000000e+00
      vertex   1.058776e+00 1.000000e+00 3.400000e+00
    endloop
  endfacet
  facet normal 8.673617e-16 -1.000000e+00 0.000000e+00
    outer loop
      vertex   1.558776e+00 1.000000e+00 3.000000e+00
      vertex   1.558776e+00 1.000000e+00 3.400000e+00
      vertex   1.058776e+00 1.000000e+00 3.400000e+00
    endloop
  endfacet
  facet normal 8.673617e-16 -1.000000e+00 0.000000e+00
    outer loop
      vertex   1.058776e+00 1.000000e+00 3.400000e+00
      vertex   1.058776e+00 1.000000e+00 3.000000e+00
      vertex   1.558776e+00 1.000000e+00 3.000000e+00
    endloop
  endfacet
  facet normal 9.749279e-01 2.225209e-01 0.000000e+00
    outer loop
      vertex   1.558776e+00 1.000000e+00 3.400000e+00
      vertex   1.558776e+00 1.000000e+00 3.000000e+00
      vertex   1.404408e+00 1.676327e+00 3.000000e+00
    endloop
  endfacet
  facet normal 9.749279e-01 2.225209e-01 -0.000000e+00
    outer loop
      vertex   1.404408e+00 1.676327e+00 3.000000e+00
      vertex   1.404408e+00 1.676327e+00 3.400000e+00
      vertex   1.558776e+00 1.000000e+00 3.400000e+00
    endloop
  endfacet
  facet normal 7.818315e-01 6.234898e-01 0.000000e+00
    outer loop
      vertex   1.404408e+00 1.676327e+00 3.400000e+00
      vertex   1.404408e+00 1.676327e+00 3.000000e+00
      vertex   9.718808e-01 2.218700e+00 3.000000e+00
    endloop
  endfacet
  facet normal 7.818315e-01 6.234898e-01 -0.000000e+00
    outer loop
      vertex   9.718808e-01 2.218700e+00 3.000000e+00
      vertex   9.718808e-01 2.218700e+00 3.400000e+00
      vertex   1.404408e+00 1.676327e+00 3.400000e+00
    endloop
  endfacet
  facet normal 4.338837e-01 9.009689e-01 0.000000e+00
    outer loop
      vertex   9.718808e-01 2.218700e+00 3.400000e+00
      vertex   9.718808e-01 2.218700e+00 3.000000e+00
      vertex   3.468602e-01 2.519694e+00 3.000000e+00
    endloop
  endfacet
  facet normal 4.338837e-01 9.009689e-01 -0.000000e+00
    outer loop
      vertex   3.468602e-01 2.519694e+00 3.000000e+00
      vertex   3.468602e-01 2.519694e+00 3.400000e+00
      vertex   9.718808e-01 2.218700e+00 3.400000e+00
    endloop
  endfacet
  facet normal 0.000000e+00 1.000000e+00 0.000000e+00
    outer loop
      vertex   3.468602e-01 2.519694e+00 3.400000e+00
      vertex   3.468602e-01 2.519694e+00 3.000000e+00
      vertex   -3.468602e-01 2.519694e+00 3.000000e+00
    endloop
  endfacet
  facet normal 0.000000e+00 1.000000e+00 0.000000e+00
    outer loop
      vertex   -3.468602e-01 2.519694e+00 3.000000e+00
      vertex   -3.468602e-01 2.519694e+00 3.400000e+00
      vertex   3.468602e-01 2.519694e+00 3.400000e+00
    endloop
  endfacet
  facet normal -4.338837e-01 9.009689e-01 0.000000e+00
    outer loop
      vertex   -3.468602e-01 2.519694e+00 3.400000e+00
      vertex   -3.468602e-01 2.519694e+00 3.000000e+00
      vertex   -9.718808e-01 2.218700e+00 3.000000e+00
    endloop
  endfacet
  facet normal -4.338837e-01 9.009689e-01 0.000000e+00
    outer loop
      vertex   -9.718808e-01 2.218700e+00 3.000000e+00
      vertex   -9.718808e-01 2.218700e+00 3.400000e+00
      vertex   -3.468602e-01 2.519694e+00 3.400000e+00
    endloop
  endfacet
  facet normal -7.818315e-01 6.234898e-01 0.000000e+00
    outer loop
      vertex   -9.718808e-01 2.218700e+00 3.400000e+00
      vertex   -9.718808e-01 2.218700e+00 3.000000e+00
      vertex   -1.404408e+00 1.676327e+00 3.000000e+00
    endloop
  endfacet
  facet normal -7.818315e-01 6.234898e-01 0.000000e+00
    outer loop
      vertex   -1.404408e+00 1.676327e+00 3.000000e+00
      vertex   -1.404408e+00 1.676327e+00 3.400000e+00
      vertex   -9.718808e-01 2.218700e+00 3.400000e+00
    endloop
  endfacet
  facet normal -9.749279e-01 2.225209e-01 0.000000e+00
    outer loop
      vertex   -1.404408e+00 1.676327e+00 3.400000e+00
      vertex   -1.404408e+00 1.676327e+00 3.000000e+00
      vertex   -1.558776e+00 1.000000e+00 3.000000e+00
    endloop
  endfacet
  facet normal -9.749279e-01 2.225209e-01 0.000000e+00
    outer loop
      vertex   -1.558776e+00 1.000000e+00 3.000000e+00
      vertex   -1.558776e+00 1.000000e+00 3.400000e+00
      vertex   -1.404408e+00 1.676327e+00 3.400000e+00
    endloop
  endfacet
  facet normal -1.000000e+00 0.000000e+00 0.000000e+00
    outer loop
      vertex   -1.558776e+00 -2.000000e+00 3.000000e+00
      vertex   -1.558776e+00 -2.000000e+00 3.400000e+00
      vertex   -1.558776e+00 1.000000e+00 3.400000e+00
    endloop
  endfacet
  facet normal -1.000000e+00 0.000000e+00 -0.000000e+00
    outer loop
      vertex   -1.558776e+00 1.000000e+00 3.400000e+00
      vertex   -1.558776e+00 1.000000e+00 3.000000e+00
      vertex   -1.558776e+00 -2.000000e+00 3.000000e+00
    endloop
  endfacet
  facet normal 0.000000e+00 -1.000000e+00 0.000000e+00
    outer loop
      vertex   1.558776e+00 -2.000000e+00 3.000000e+00
      vertex   1.558776e+00 -2.000000e+00 3.400000e+00
      vertex   -1.558776e+00 -2.000000e+00 3.400000e+00
    endloop
  endfacet
  facet normal 0.000000e+00 -1.000000e+00 0.000000e+00
    outer loop
      vertex   -1.558776e+00 -2.000000e+00 3.400000e+00
      vertex   -1.558776e+00 -2.000000e+00 3.000000e+00
      vertex   1.558776e+00 -2.000000e+00 3.000000e+00
    endloop
  endfacet
  facet normal 1.000000e+00 0.000000e+00 -0.000000e+00
    outer loop
      vertex   1.558776e+00 0.000000e+00 3.000000e+00
      vertex   1.558776e+00 0.000000e+00 3.400000e+00
      vertex   1.558776e+00 -2.000000e+00 3.400000e+00
    endloop
  endfacet
  facet normal 1.000000e+00 0.000000e+00 0.000000e+00
    outer loop
      vertex   1.558776e+00 -2.000000e+00 3.400000e+00
      vertex   1.558776e+00 -2.000000e+00 3.000000e+00
      vertex   1.558776e+00 0.000000e+00 3.000000e+00
    endloop
  endfacet
  facet normal 0.000000e+00 -0.000000e+00 1.000000e+00
    outer loop
      vertex   -2.000000e-01 -2.500000e-01 3.400000e+00
      vertex   2.000000e-01 -2.500000e-01 3.400000e+00
      vertex   -1.058776e+00 -3.252607e-16 3.400000e+00
    endloop
  endfacet
  facet normal 0.000000e+00 0.000000e+00 1.000000e+00
    outer loop
      vertex   2.000000e-01 -1.750000e+00 3.400000e+00
      vertex   -2.000000e-01 -1.750000e+00 3.400000e+00
      vertex   -1.558776e+00 -2.000000e+00 3.400000e+00
    endloop
  endfacet
  facet normal 0.000000e+00 0.000000e+00 1.000000e+00
    outer loop
      vertex   -1.558776e+00 -2.000000e+00 3.400000e+00
      vertex   1.558776e+00 -2.000000e+00 3.400000e+00
      vertex   2.000000e-01 -1.750000e+00 3.400000e+00
    endloop
  endfacet
  facet normal 0.000000e+00 0.000000e+00 1.000000e+00
    outer loop
      vertex   2.000000e-01 -2.500000e-01 3.400000e+00
      vertex   2.000000e-01 -1.750000e+00 3.400000e+00
      vertex   1.558776e+00 -2.000000e+00 3.400000e+00
    endloop
  endfacet
  facet normal 0.000000e+00 -0.000000e+00 1.000000e+00
    outer loop
      vertex   1.558776e+00 -2.000000e+00 3.400000e+00
      vertex   1.558776e+00 0.000000e+00 3.400000e+00
      vertex   2.000000e-01 -2.500000e-01 3.400000e+00
    endloop
  endfacet
  facet normal 0.000000e+00 0.000000e+00 1.000000e+00
    outer loop
      vertex   1.558776e+00 0.000000e+00 3.400000e+00
      vertex   -1.058776e+00 -3.252607e-16 3.400000e+00
      vertex   2.000000e-01 -2.500000e-01 3.400000e+00
    endloop
  endfacet
  facet normal 0.000000e+00 0.000000e+00 1.000000e+00
    outer loop
      vertex   9.539240e-01 1.459386e+00 3.400000e+00
      vertex   1.058776e+00 1.000000e+00 3.400000e+00
      vertex   1.558776e+00 1.000000e+00 3.400000e+00
    endloop
  endfacet
  facet normal 0.000000e+00 0.000000e+00 1.000000e+00
    outer loop
      vertex   1.558776e+00 1.000000e+00 3.400000e+00
      vertex   1.404408e+00 1.676327e+00 3.400000e+00
      vertex   9.539240e-01 1.459386e+00 3.400000e+00
    endloop
  endfacet
  facet normal 0.000000e+00 0.000000e+00 1.000000e+00
    outer loop
      vertex   6.601359e-01 1.827784e+00 3.400000e+00
      vertex   9.539240e-01 1.459386e+00 3.400000e+00
      vertex   1.404408e+00 1.676327e+00 3.400000e+00
    endloop
  endfacet
  facet normal 0.000000e+00 0.000000e+00 1.000000e+00
    outer loop
      vertex   1.404408e+00 1.676327e+00 3.400000e+00
      vertex   9.718808e-01 2.218700e+00 3.400000e+00
      vertex   6.601359e-01 1.827784e+00 3.400000e+00
    endloop
  endfacet
  facet normal -0.000000e+00 0.000000e+00 1.000000e+00
    outer loop
      vertex   2.355998e-01 2.032230e+00 3.400000e+00
      vertex   6.601359e-01 1.827784e+00 3.400000e+00
      vertex   9.718808e-01 2.218700e+00 3.400000e+00
    endloop
  endfacet
  facet normal 0.000000e+00 0.000000e+00 1.000000e+00
    outer loop
      vertex   9.718808e-01 2.218700e+00 3.400000e+00
      vertex   3.468602e-01 2.519694e+00 3.400000e+00
      vertex   2.355998e-01 2.032230e+00 3.400000e+00
    endloop
  endfacet
  facet normal 0.000000e+00 0.000000e+00 1.000000e+00
    outer loop
      vertex   -2.355998e-01 2.032230e+00 3.400000e+00
      vertex   2.355998e-01 2.032230e+00 3.400000e+00
      vertex   3.468602e-01 2.519694e+00 3.400000e+00
    endloop
  endfacet
  facet normal 0.000000e+00 0.000000e+00 1.000000e+00
    outer loop
      vertex   3.468602e-01 2.519694e+00 3.400000e+00
      vertex   -3.468602e-01 2.519694e+00 3.400000e+00
      vertex   -2.355998e-01 2.032230e+00 3.400000e+00
    endloop
  endfacet
  facet normal 0.000000e+00 0.000000e+00 1.000000e+00
    outer loop
      vertex   -6.601359e-01 1.827784e+00 3.400000e+00
      vertex   -2.355998e-01 2.032230e+00 3.400000e+00
      vertex   -3.468602e-01 2.519694e+00 3.400000e+00
    endloop
  endfacet
  facet normal 0.000000e+00 0.000000e+00 1.000000e+00
    outer loop
      vertex   -3.468602e-01 2.519694e+00 3.400000e+00
      vertex   -9.718808e-01 2.218700e+00 3.400000e+00
      vertex   -6.601359e-01 1.827784e+00 3.400000e+00
    endloop
  endfacet
  facet normal 0.000000e+00 -0.000000e+00 1.000000e+00
    outer loop
      vertex   -9.539240e-01 1.459386e+00 3.400000e+00
      vertex   -6.601359e-01 1.827784e+00 3.400000e+00
      vertex   -9.718808e-01 2.218700e+00 3.400000e+00
    endloop
  endfacet
  facet normal 0.000000e+00 0.000000e+00 1.000000e+00
    outer loop
      vertex   -9.718808e-01 2.218700e+00 3.400000e+00
      vertex   -1.404408e+00 1.676327e+00 3.400000e+00
      vertex   -9.539240e-01 1.459386e+00 3.400000e+00
    endloop
  endfacet
  facet normal 0.000000e+00 -0.000000e+00 1.000000e+00
    outer loop
      vertex   -1.058776e+00 1.000000e+00 3.400000e+00
      vertex   -9.539240e-01 1.459386e+00 3.400000e+00
      vertex   -1.404408e+00 1.676327e+00 3.400000e+00
    endloop
  endfacet
  facet normal 0.000000e+00 0.000000e+00 1.000000e+00
    outer loop
      vertex   -1.404408e+00 1.676327e+00 3.400000e+00
      vertex   -1.558776e+00 1.000000e+00 3.400000e+00
      vertex   -1.058776e+00 1.000000e+00 3.400000e+00
    endloop
  endfacet
  facet normal 0.000000e+00 0.000000e+00 1.000000e+00
    outer loop
      vertex   -1.058776e+00 -3.252607e-16 3.400000e+00
      vertex   -1.058776e+00 1.000000e+00 3.400000e+00
      vertex   -1.558776e+00 1.000000e+00 3.400000e+00
    endloop
  endfacet
  facet normal 0.000000e+00 0.000000e+00 1.000000e+00
    outer loop
      vertex   -1.558776e+00 1.000000e+00 3.400000e+00
      vertex   -1.558776e+00 -2.000000e+00 3.400000e+00
      vertex   -1.058776e+00 -3.252607e-16 3.400000e+00
    endloop
  endfacet
  facet normal 0.000000e+00 0.000000e+00 1.000000e+00
    outer loop
      vertex   -2.000000e-01 -2.500000e-01 3.400000e+00
      vertex   -1.058776e+00 -3.252607e-16 3.400000e+00
      vertex   -1.558776e+00 -2.000000e+00 3.400000e+00
    endloop
  endfacet
  facet normal 0.000000e+00 0.000000e+00 1.000000e+00
    outer loop
      vertex   -1.558776e+00 -2.000000e+00 3.400000e+00
      vertex   -2.000000e-01 -1.750000e+00 3.400000e+00
      vertex   -2.000000e-01 -2.500000e-01 3.400000e+00
    endloop
  endfacet
  facet normal 0.000000e+00 -1.000000e+00 0.000000e+00
    outer loop
      vertex   2.000000e-01 -2.500000e-01 3.000000e+00
      vertex   2.000000e-01 -2.500000e-01 3.400000e+00
      vertex   -2.000000e-01 -2.500000e-01 3.400000e+00
    endloop
  endfacet
  facet normal 0.000000e+00 -1.000000e+00 0.000000e+00
    outer loop
      vertex   -2.000000e-01 -2.500000e-01 3.400000e+00
      vertex   -2.000000e-01 -2.500000e-01 3.000000e+00
      vertex   2.000000e-01 -2.500000e-01 3.000000e+00
    endloop
  endfacet
  facet normal -1.000000e+00 -5.421011e-16 0.000000e+00
    outer loop
      vertex   2.000000e-01 -1.750000e+00 3.000000e+00
      vertex   2.000000e-01 -1.750000e+00 3.400000e+00
      vertex   2.000000e-01 -2.500000e-01 3.400000e+00
    endloop
  endfacet
  facet normal -1.000000e+00 -5.421011e-16 -0.000000e+00
    outer loop
      vertex   2.000000e-01 -2.500000e-01 3.400000e+00
      vertex   2.000000e-01 -2.500000e-01 3.000000e+00
      vertex   2.000000e-01 -1.750000e+00 3.000000e+00
    endloop
  endfacet
  facet normal 0.000000e+00 1.000000e+00 0.000000e+00
    outer loop
      vertex   -2.000000e-01 -1.750000e+00 3.000000e+00
      vertex   -2.000000e-01 -1.750000e+00 3.400000e+00
      vertex   2.000000e-01 -1.750000e+00 3.400000e+00
    endloop
  endfacet
  facet normal 0.000000e+00 1.000000e+00 0.000000e+00
    outer loop
      vertex   2.000000e-01 -1.750000e+00 3.400000e+00
      vertex   2.000000e-01 -1.750000e+00 3.000000e+00
      vertex   -2.000000e-01 -1.750000e+00 3.000000e+00
    endloop
  endfacet
  facet normal 1.000000e+00 2.529805e-16 -0.000000e+00
    outer loop
      vertex   -2.000000e-01 -2.500000e-01 3.000000e+00
      vertex   -2.000000e-01 -2.500000e-01 3.400000e+00
      vertex   -2.000000e-01 -1.750000e+00 3.400000e+00
    endloop
  endfacet
  facet normal 1.000000e+00 2.529805e-16 0.000000e+00
    outer loop
      vertex   -2.000000e-01 -1.750000e+00 3.400000e+00
      vertex   -2.000000e-01 -1.750000e+00 3.000000e+00
      vertex   -2.000000e-01 -2.500000e-01 3.000000e+00
    endloop
  endfacet
  facet normal 0.000000e+00 0.000000e+00 1.000000e+00
    outer loop
      vertex   -2.000000e-01 -2.500000e-01 3.000000e+00
      vertex   -2.000000e-01 -1.750000e+00 3.000000e+00
      vertex   2.000000e-01 -1.750000e+00 3.000000e+00
    endloop
  endfacet
  facet normal 0.000000e+00 0.000000e+00 1.000000e+00
    outer loop
      vertex   2.000000e-01 -1.750000e+00 3.000000e+00
      vertex   2.000000e-01 -2.500000e-01 3.000000e+00
      vertex   -2.000000e-01 -2.500000e-01 3.000000e+00
    endloop
  endfacet
endsolid
