solid ascii
  facet normal 0.000000e+00 0.000000e+00 -1.000000e+00
    outer loop
      vertex   -5.250000e+00 0.000000e+00 -5.000000e-01
      vertex   -5.055316e+00 1.416433e+00 -5.000000e-01
      vertex   0.000000e+00 0.000000e+00 -5.000000e-01
    endloop
  endfacet
  facet normal 0.000000e+00 0.000000e+00 -1.000000e+00
    outer loop
      vertex   -5.055316e+00 -1.416433e+00 -5.000000e-01
      vertex   -5.250000e+00 0.000000e+00 -5.000000e-01
      vertex   0.000000e+00 0.000000e+00 -5.000000e-01
    endloop
  endfacet
  facet normal 0.000000e+00 0.000000e+00 -1.000000e+00
    outer loop
      vertex   -2.415341e+00 -4.661397e+00 -5.000000e-01
      vertex   -3.583404e+00 -3.836889e+00 -5.000000e-01
      vertex   0.000000e+00 0.000000e+00 -5.000000e-01
    endloop
  endfacet
  facet normal 0.000000e+00 0.000000e+00 -1.000000e+00
    outer loop
      vertex   -3.583404e+00 -3.836889e+00 -5.000000e-01
      vertex   -4.485702e+00 -2.727816e+00 -5.000000e-01
      vertex   0.000000e+00 0.000000e+00 -5.000000e-01
    endloop
  endfacet
  facet normal 0.000000e+00 0.000000e+00 -1.000000e+00
    outer loop
      vertex   -4.485702e+00 -2.727816e+00 -5.000000e-01
      vertex   -5.055316e+00 -1.416433e+00 -5.000000e-01
      vertex   0.000000e+00 0.000000e+00 -5.000000e-01
    endloop
  endfacet
  facet normal -0.000000e+00 0.000000e+00 -1.000000e+00
    outer loop
      vertex   1.758118e+00 -4.946870e+00 -5.000000e-01
      vertex   3.582727e-01 -5.237761e+00 -5.000000e-01
      vertex   0.000000e+00 0.000000e+00 -5.000000e-01
    endloop
  endfacet
  facet normal 0.000000e+00 0.000000e+00 -1.000000e+00
    outer loop
      vertex   3.582727e-01 -5.237761e+00 -5.000000e-01
      vertex   -1.068144e+00 -5.140191e+00 -5.000000e-01
      vertex   0.000000e+00 0.000000e+00 -5.000000e-01
    endloop
  endfacet
  facet normal 0.000000e+00 0.000000e+00 -1.000000e+00
    outer loop
      vertex   -1.068144e+00 -5.140191e+00 -5.000000e-01
      vertex   -2.415341e+00 -4.661397e+00 -5.000000e-01
      vertex   0.000000e+00 0.000000e+00 -5.000000e-01
    endloop
  endfacet
  facet normal -0.000000e+00 0.000000e+00 -1.000000e+00
    outer loop
      vertex   4.815359e+00 -2.091606e+00 -5.000000e-01
      vertex   4.072484e+00 -3.313212e+00 -5.000000e-01
      vertex   0.000000e+00 0.000000e+00 -5.000000e-01
    endloop
  endfacet
  facet normal -0.000000e+00 0.000000e+00 -1.000000e+00
    outer loop
      vertex   4.072484e+00 -3.313212e+00 -5.000000e-01
      vertex   3.027572e+00 -4.289092e+00 -5.000000e-01
      vertex   0.000000e+00 0.000000e+00 -5.000000e-01
    endloop
  endfacet
  facet normal -0.000000e+00 0.000000e+00 -1.000000e+00
    outer loop
      vertex   3.027572e+00 -4.289092e+00 -5.000000e-01
      vertex   1.758118e+00 -4.946870e+00 -5.000000e-01
      vertex   0.000000e+00 0.000000e+00 -5.000000e-01
    endloop
  endfacet
  facet normal 0.000000e+00 -0.000000e+00 -1.000000e+00
    outer loop
      vertex   4.815359e+00 2.091606e+00 -5.000000e-01
      vertex   5.201101e+00 7.148749e-01 -5.000000e-01
      vertex   0.000000e+00 0.000000e+00 -5.000000e-01
    endloop
  endfacet
  facet normal 0.000000e+00 -0.000000e+00 -1.000000e+00
    outer loop
      vertex   5.201101e+00 7.148749e-01 -5.000000e-01
      vertex   5.201101e+00 -7.148749e-01 -5.000000e-01
      vertex   0.000000e+00 0.000000e+00 -5.000000e-01
    endloop
  endfacet
  facet normal -0.000000e+00 0.000000e+00 -1.000000e+00
    outer loop
      vertex   5.201101e+00 -7.148749e-01 -5.000000e-01
      vertex   4.815359e+00 -2.091606e+00 -5.000000e-01
      vertex   0.000000e+00 0.000000e+00 -5.000000e-01
    endloop
  endfacet
  facet normal 0.000000e+00 -0.000000e+00 -1.000000e+00
    outer loop
      vertex   1.758118e+00 4.946870e+00 -5.000000e-01
      vertex   3.027572e+00 4.289092e+00 -5.000000e-01
      vertex   0.000000e+00 0.000000e+00 -5.000000e-01
    endloop
  endfacet
  facet normal 0.000000e+00 -0.000000e+00 -1.000000e+00
    outer loop
      vertex   3.027572e+00 4.289092e+00 -5.000000e-01
      vertex   4.072484e+00 3.313212e+00 -5.000000e-01
      vertex   0.000000e+00 0.000000e+00 -5.000000e-01
    endloop
  endfacet
  facet normal 0.000000e+00 -0.000000e+00 -1.000000e+00
    outer loop
      vertex   4.072484e+00 3.313212e+00 -5.000000e-01
      vertex   4.815359e+00 2.091606e+00 -5.000000e-01
      vertex   0.000000e+00 0.000000e+00 -5.000000e-01
    endloop
  endfacet
  facet normal 0.000000e+00 0.000000e+00 -1.000000e+00
    outer loop
      vertex   -2.415341e+00 4.661397e+00 -5.000000e-01
      vertex   -1.068144e+00 5.140191e+00 -5.000000e-01
      vertex   0.000000e+00 0.000000e+00 -5.000000e-01
    endloop
  endfacet
  facet normal 0.000000e+00 0.000000e+00 -1.000000e+00
    outer loop
      vertex   -1.068144e+00 5.140191e+00 -5.000000e-01
      vertex   3.582727e-01 5.237761e+00 -5.000000e-01
      vertex   0.000000e+00 0.000000e+00 -5.000000e-01
    endloop
  endfacet
  facet normal 0.000000e+00 -0.000000e+00 -1.000000e+00
    outer loop
      vertex   3.582727e-01 5.237761e+00 -5.000000e-01
      vertex   1.758118e+00 4.946870e+00 -5.000000e-01
      vertex   0.000000e+00 0.000000e+00 -5.000000e-01
    endloop
  endfacet
  facet normal 0.000000e+00 0.000000e+00 -1.000000e+00
    outer loop
      vertex   0.000000e+00 0.000000e+00 -5.000000e-01
      vertex   -5.055316e+00 1.416433e+00 -5.000000e-01
      vertex   -4.485702e+00 2.727816e+00 -5.000000e-01
    endloop
  endfacet
  facet normal 0.000000e+00 0.000000e+00 -1.000000e+00
    outer loop
      vertex   -4.485702e+00 2.727816e+00 -5.000000e-01
      vertex   -3.583404e+00 3.836889e+00 -5.000000e-01
      vertex   0.000000e+00 0.000000e+00 -5.000000e-01
    endloop
  endfacet
  facet normal 0.000000e+00 0.000000e+00 -1.000000e+00
    outer loop
      vertex   -3.583404e+00 3.836889e+00 -5.000000e-01
      vertex   -2.415341e+00 4.661397e+00 -5.000000e-01
      vertex   0.000000e+00 0.000000e+00 -5.000000e-01
    endloop
  endfacet
  facet normal -9.906859e-01 1.361666e-01 0.000000e+00
    outer loop
      vertex   -5.055316e+00 1.416433e+00 1.000000e+00
      vertex   -5.055316e+00 1.416433e+00 -5.000000e-01
      vertex   -5.250000e+00 0.000000e+00 -5.000000e-01
    endloop
  endfacet
  facet normal -9.172113e-01 3.984011e-01 0.000000e+00
    outer loop
      vertex   -5.055316e+00 1.416433e+00 -5.000000e-01
      vertex   -5.055316e+00 1.416433e+00 1.000000e+00
      vertex   -4.485702e+00 2.727816e+00 1.000000e+00
    endloop
  endfacet
  facet normal -9.172113e-01 3.984011e-01 0.000000e+00
    outer loop
      vertex   -4.485702e+00 2.727816e+00 1.000000e+00
      vertex   -4.485702e+00 2.727816e+00 -5.000000e-01
      vertex   -5.055316e+00 1.416433e+00 -5.000000e-01
    endloop
  endfacet
  facet normal -7.757113e-01 6.310879e-01 0.000000e+00
    outer loop
      vertex   -4.485702e+00 2.727816e+00 -5.000000e-01
      vertex   -4.485702e+00 2.727816e+00 1.000000e+00
      vertex   -3.583404e+00 3.836889e+00 1.000000e+00
    endloop
  endfacet
  facet normal -7.757113e-01 6.310879e-01 0.000000e+00
    outer loop
      vertex   -3.583404e+00 3.836889e+00 1.000000e+00
      vertex   -3.583404e+00 3.836889e+00 -5.000000e-01
      vertex   -4.485702e+00 2.727816e+00 -5.000000e-01
    endloop
  endfacet
  facet normal -5.766803e-01 8.169699e-01 0.000000e+00
    outer loop
      vertex   -3.583404e+00 3.836889e+00 -5.000000e-01
      vertex   -3.583404e+00 3.836889e+00 1.000000e+00
      vertex   -2.415341e+00 4.661397e+00 1.000000e+00
    endloop
  endfacet
  facet normal -5.766803e-01 8.169699e-01 0.000000e+00
    outer loop
      vertex   -2.415341e+00 4.661397e+00 1.000000e+00
      vertex   -2.415341e+00 4.661397e+00 -5.000000e-01
      vertex   -3.583404e+00 3.836889e+00 -5.000000e-01
    endloop
  endfacet
  facet normal -3.348796e-01 9.422609e-01 0.000000e+00
    outer loop
      vertex   -2.415341e+00 4.661397e+00 -5.000000e-01
      vertex   -2.415341e+00 4.661397e+00 1.000000e+00
      vertex   -1.068144e+00 5.140191e+00 1.000000e+00
    endloop
  endfacet
  facet normal -3.348796e-01 9.422609e-01 0.000000e+00
    outer loop
      vertex   -1.068144e+00 5.140191e+00 1.000000e+00
      vertex   -1.068144e+00 5.140191e+00 -5.000000e-01
      vertex   -2.415341e+00 4.661397e+00 -5.000000e-01
    endloop
  endfacet
  facet normal -6.824241e-02 9.976688e-01 0.000000e+00
    outer loop
      vertex   -1.068144e+00 5.140191e+00 -5.000000e-01
      vertex   -1.068144e+00 5.140191e+00 1.000000e+00
      vertex   3.582727e-01 5.237761e+00 1.000000e+00
    endloop
  endfacet
  facet normal -6.824241e-02 9.976688e-01 0.000000e+00
    outer loop
      vertex   3.582727e-01 5.237761e+00 1.000000e+00
      vertex   3.582727e-01 5.237761e+00 -5.000000e-01
      vertex   -1.068144e+00 5.140191e+00 -5.000000e-01
    endloop
  endfacet
  facet normal 2.034560e-01 9.790841e-01 -0.000000e+00
    outer loop
      vertex   3.582727e-01 5.237761e+00 -5.000000e-01
      vertex   3.582727e-01 5.237761e+00 1.000000e+00
      vertex   1.758118e+00 4.946870e+00 1.000000e+00
    endloop
  endfacet
  facet normal 2.034560e-01 9.790841e-01 0.000000e+00
    outer loop
      vertex   1.758118e+00 4.946870e+00 1.000000e+00
      vertex   1.758118e+00 4.946870e+00 -5.000000e-01
      vertex   3.582727e-01 5.237761e+00 -5.000000e-01
    endloop
  endfacet
  facet normal 4.600650e-01 8.878852e-01 -0.000000e+00
    outer loop
      vertex   1.758118e+00 4.946870e+00 -5.000000e-01
      vertex   1.758118e+00 4.946870e+00 1.000000e+00
      vertex   3.027572e+00 4.289092e+00 1.000000e+00
    endloop
  endfacet
  facet normal 4.600650e-01 8.878852e-01 0.000000e+00
    outer loop
      vertex   3.027572e+00 4.289092e+00 1.000000e+00
      vertex   3.027572e+00 4.289092e+00 -5.000000e-01
      vertex   1.758118e+00 4.946870e+00 -5.000000e-01
    endloop
  endfacet
  facet normal 6.825531e-01 7.308360e-01 -0.000000e+00
    outer loop
      vertex   3.027572e+00 4.289092e+00 -5.000000e-01
      vertex   3.027572e+00 4.289092e+00 1.000000e+00
      vertex   4.072484e+00 3.313212e+00 1.000000e+00
    endloop
  endfacet
  facet normal 6.825531e-01 7.308360e-01 0.000000e+00
    outer loop
      vertex   4.072484e+00 3.313212e+00 1.000000e+00
      vertex   4.072484e+00 3.313212e+00 -5.000000e-01
      vertex   3.027572e+00 4.289092e+00 -5.000000e-01
    endloop
  endfacet
  facet normal 8.544194e-01 5.195840e-01 -0.000000e+00
    outer loop
      vertex   4.072484e+00 3.313212e+00 -5.000000e-01
      vertex   4.072484e+00 3.313212e+00 1.000000e+00
      vertex   4.815359e+00 2.091606e+00 1.000000e+00
    endloop
  endfacet
  facet normal 8.544194e-01 5.195840e-01 0.000000e+00
    outer loop
      vertex   4.815359e+00 2.091606e+00 1.000000e+00
      vertex   4.815359e+00 2.091606e+00 -5.000000e-01
      vertex   4.072484e+00 3.313212e+00 -5.000000e-01
    endloop
  endfacet
  facet normal 9.629173e-01 2.697968e-01 -0.000000e+00
    outer loop
      vertex   4.815359e+00 2.091606e+00 -5.000000e-01
      vertex   4.815359e+00 2.091606e+00 1.000000e+00
      vertex   5.201101e+00 7.148749e-01 1.000000e+00
    endloop
  endfacet
  facet normal 9.629173e-01 2.697968e-01 0.000000e+00
    outer loop
      vertex   5.201101e+00 7.148749e-01 1.000000e+00
      vertex   5.201101e+00 7.148749e-01 -5.000000e-01
      vertex   4.815359e+00 2.091606e+00 -5.000000e-01
    endloop
  endfacet
  facet normal 1.000000e+00 6.066528e-16 -0.000000e+00
    outer loop
      vertex   5.201101e+00 7.148749e-01 -5.000000e-01
      vertex   5.201101e+00 7.148749e-01 1.000000e+00
      vertex   5.201101e+00 -7.148749e-01 1.000000e+00
    endloop
  endfacet
  facet normal 1.000000e+00 6.066528e-16 0.000000e+00
    outer loop
      vertex   5.201101e+00 -7.148749e-01 1.000000e+00
      vertex   5.201101e+00 -7.148749e-01 -5.000000e-01
      vertex   5.201101e+00 7.148749e-01 -5.000000e-01
    endloop
  endfacet
  facet normal 9.629173e-01 -2.697968e-01 0.000000e+00
    outer loop
      vertex   5.201101e+00 -7.148749e-01 -5.000000e-01
      vertex   5.201101e+00 -7.148749e-01 1.000000e+00
      vertex   4.815359e+00 -2.091606e+00 1.000000e+00
    endloop
  endfacet
  facet normal 9.629173e-01 -2.697968e-01 0.000000e+00
    outer loop
      vertex   4.815359e+00 -2.091606e+00 1.000000e+00
      vertex   4.815359e+00 -2.091606e+00 -5.000000e-01
      vertex   5.201101e+00 -7.148749e-01 -5.000000e-01
    endloop
  endfacet
  facet normal 8.544194e-01 -5.195840e-01 0.000000e+00
    outer loop
      vertex   4.815359e+00 -2.091606e+00 -5.000000e-01
      vertex   4.815359e+00 -2.091606e+00 1.000000e+00
      vertex   4.072484e+00 -3.313212e+00 1.000000e+00
    endloop
  endfacet
  facet normal 8.544194e-01 -5.195840e-01 0.000000e+00
    outer loop
      vertex   4.072484e+00 -3.313212e+00 1.000000e+00
      vertex   4.072484e+00 -3.313212e+00 -5.000000e-01
      vertex   4.815359e+00 -2.091606e+00 -5.000000e-01
    endloop
  endfacet
  facet normal 6.825531e-01 -7.308360e-01 0.000000e+00
    outer loop
      vertex   4.072484e+00 -3.313212e+00 -5.000000e-01
      vertex   4.072484e+00 -3.313212e+00 1.000000e+00
      vertex   3.027572e+00 -4.289092e+00 1.000000e+00
    endloop
  endfacet
  facet normal 6.825531e-01 -7.308360e-01 0.000000e+00
    outer loop
      vertex   3.027572e+00 -4.289092e+00 1.000000e+00
      vertex   3.027572e+00 -4.289092e+00 -5.000000e-01
      vertex   4.072484e+00 -3.313212e+00 -5.000000e-01
    endloop
  endfacet
  facet normal 4.600650e-01 -8.878852e-01 0.000000e+00
    outer loop
      vertex   3.027572e+00 -4.289092e+00 -5.000000e-01
      vertex   3.027572e+00 -4.289092e+00 1.000000e+00
      vertex   1.758118e+00 -4.946870e+00 1.000000e+00
    endloop
  endfacet
  facet normal 4.600650e-01 -8.878852e-01 0.000000e+00
    outer loop
      vertex   1.758118e+00 -4.946870e+00 1.000000e+00
      vertex   1.758118e+00 -4.946870e+00 -5.000000e-01
      vertex   3.027572e+00 -4.289092e+00 -5.000000e-01
    endloop
  endfacet
  facet normal 2.034560e-01 -9.790841e-01 0.000000e+00
    outer loop
      vertex   1.758118e+00 -4.946870e+00 -5.000000e-01
      vertex   1.758118e+00 -4.946870e+00 1.000000e+00
      vertex   3.582727e-01 -5.237761e+00 1.000000e+00
    endloop
  endfacet
  facet normal 2.034560e-01 -9.790841e-01 0.000000e+00
    outer loop
      vertex   3.582727e-01 -5.237761e+00 1.000000e+00
      vertex   3.582727e-01 -5.237761e+00 -5.000000e-01
      vertex   1.758118e+00 -4.946870e+00 -5.000000e-01
    endloop
  endfacet
  facet normal -6.824241e-02 -9.976688e-01 0.000000e+00
    outer loop
      vertex   3.582727e-01 -5.237761e+00 -5.000000e-01
      vertex   3.582727e-01 -5.237761e+00 1.000000e+00
      vertex   -1.068144e+00 -5.140191e+00 1.000000e+00
    endloop
  endfacet
  facet normal -6.824241e-02 -9.976688e-01 -0.000000e+00
    outer loop
      vertex   -1.068144e+00 -5.140191e+00 1.000000e+00
      vertex   -1.068144e+00 -5.140191e+00 -5.000000e-01
      vertex   3.582727e-01 -5.237761e+00 -5.000000e-01
    endloop
  endfacet
  facet normal -3.348796e-01 -9.422609e-01 0.000000e+00
    outer loop
      vertex   -1.068144e+00 -5.140191e+00 -5.000000e-01
      vertex   -1.068144e+00 -5.140191e+00 1.000000e+00
      vertex   -2.415341e+00 -4.661397e+00 1.000000e+00
    endloop
  endfacet
  facet normal -3.348796e-01 -9.422609e-01 -0.000000e+00
    outer loop
      vertex   -2.415341e+00 -4.661397e+00 1.000000e+00
      vertex   -2.415341e+00 -4.661397e+00 -5.000000e-01
      vertex   -1.068144e+00 -5.140191e+00 -5.000000e-01
    endloop
  endfacet
  facet normal -5.766803e-01 -8.169699e-01 0.000000e+00
    outer loop
      vertex   -2.415341e+00 -4.661397e+00 -5.000000e-01
      vertex   -2.415341e+00 -4.661397e+00 1.000000e+00
      vertex   -3.583404e+00 -3.836889e+00 1.000000e+00
    endloop
  endfacet
  facet normal -5.766803e-01 -8.169699e-01 -0.000000e+00
    outer loop
      vertex   -3.583404e+00 -3.836889e+00 1.000000e+00
      vertex   -3.583404e+00 -3.836889e+00 -5.000000e-01
      vertex   -2.415341e+00 -4.661397e+00 -5.000000e-01
    endloop
  endfacet
  facet normal -7.757113e-01 -6.310879e-01 0.000000e+00
    outer loop
      vertex   -3.583404e+00 -3.836889e+00 -5.000000e-01
      vertex   -3.583404e+00 -3.836889e+00 1.000000e+00
      vertex   -4.485702e+00 -2.727816e+00 1.000000e+00
    endloop
  endfacet
  facet normal -7.757113e-01 -6.310879e-01 -0.000000e+00
    outer loop
      vertex   -4.485702e+00 -2.727816e+00 1.000000e+00
      vertex   -4.485702e+00 -2.727816e+00 -5.000000e-01
      vertex   -3.583404e+00 -3.836889e+00 -5.000000e-01
    endloop
  endfacet
  facet normal -9.172113e-01 -3.984011e-01 0.000000e+00
    outer loop
      vertex   -4.485702e+00 -2.727816e+00 -5.000000e-01
      vertex   -4.485702e+00 -2.727816e+00 1.000000e+00
      vertex   -5.055316e+00 -1.416433e+00 1.000000e+00
    endloop
  endfacet
  facet normal -9.172113e-01 -3.984011e-01 -0.000000e+00
    outer loop
      vertex   -5.055316e+00 -1.416433e+00 1.000000e+00
      vertex   -5.055316e+00 -1.416433e+00 -5.000000e-01
      vertex   -4.485702e+00 -2.727816e+00 -5.000000e-01
    endloop
  endfacet
  facet normal -9.906859e-01 -1.361666e-01 0.000000e+00
    outer loop
      vertex   -5.055316e+00 -1.416433e+00 -5.000000e-01
      vertex   -5.055316e+00 -1.416433e+00 1.000000e+00
      vertex   -5.250000e+00 -1.285879e-15 1.000000e+00
    endloop
  endfacet
  facet normal -9.906859e-01 -1.361666e-01 -1.167292e-16
    outer loop
      vertex   -5.250000e+00 -1.285879e-15 1.000000e+00
      vertex   -5.250000e+00 0.000000e+00 -5.000000e-01
      vertex   -5.055316e+00 -1.416433e+00 -5.000000e-01
    endloop
  endfacet
  facet normal -9.906859e-01 1.361666e-01 1.167292e-16
    outer loop
      vertex   -5.250000e+00 0.000000e+00 -5.000000e-01
      vertex   -5.250000e+00 -1.285879e-15 1.000000e+00
      vertex   -5.055316e+00 1.416433e+00 1.000000e+00
    endloop
  endfacet
  facet normal 0.000000e+00 0.000000e+00 1.000000e+00
    outer loop
      vertex   -1.068144e+00 5.140191e+00 1.000000e+00
      vertex   -2.415341e+00 4.661397e+00 1.000000e+00
      vertex   -1.437987e+00 3.463336e+00 1.000000e+00
    endloop
  endfacet
  facet normal 0.000000e+00 0.000000e+00 1.000000e+00
    outer loop
      vertex   -2.280343e+00 -2.977001e+00 1.000000e+00
      vertex   -3.115370e+00 -2.087335e+00 1.000000e+00
      vertex   -3.988621e+00 -2.591506e+00 1.000000e+00
    endloop
  endfacet
  facet normal 0.000000e+00 0.000000e+00 1.000000e+00
    outer loop
      vertex   2.500000e-01 4.750000e+00 1.000000e+00
      vertex   2.500000e-01 3.741657e+00 1.000000e+00
      vertex   1.437987e+00 3.463336e+00 1.000000e+00
    endloop
  endfacet
  facet normal 0.000000e+00 0.000000e+00 1.000000e+00
    outer loop
      vertex   2.280343e+00 -2.977001e+00 1.000000e+00
      vertex   3.027572e+00 -4.289092e+00 1.000000e+00
      vertex   4.072484e+00 -3.313212e+00 1.000000e+00
    endloop
  endfacet
  facet normal 0.000000e+00 0.000000e+00 1.000000e+00
    outer loop
      vertex   -2.473737e+00 2.818355e+00 1.000000e+00
      vertex   -1.437987e+00 3.463336e+00 1.000000e+00
      vertex   -2.415341e+00 4.661397e+00 1.000000e+00
    endloop
  endfacet
  facet normal 0.000000e+00 0.000000e+00 1.000000e+00
    outer loop
      vertex   -2.415341e+00 4.661397e+00 1.000000e+00
      vertex   -3.583404e+00 3.836889e+00 1.000000e+00
      vertex   -2.473737e+00 2.818355e+00 1.000000e+00
    endloop
  endfacet
  facet normal 0.000000e+00 -0.000000e+00 1.000000e+00
    outer loop
      vertex   -3.247595e+00 1.875000e+00 1.000000e+00
      vertex   -2.473737e+00 2.818355e+00 1.000000e+00
      vertex   -3.583404e+00 3.836889e+00 1.000000e+00
    endloop
  endfacet
  facet normal 0.000000e+00 0.000000e+00 1.000000e+00
    outer loop
      vertex   -3.583404e+00 3.836889e+00 1.000000e+00
      vertex   -4.485702e+00 2.727816e+00 1.000000e+00
      vertex   -3.247595e+00 1.875000e+00 1.000000e+00
    endloop
  endfacet
  facet normal 0.000000e+00 -0.000000e+00 1.000000e+00
    outer loop
      vertex   -3.677636e+00 7.331411e-01 1.000000e+00
      vertex   -3.247595e+00 1.875000e+00 1.000000e+00
      vertex   -4.485702e+00 2.727816e+00 1.000000e+00
    endloop
  endfacet
  facet normal 0.000000e+00 0.000000e+00 1.000000e+00
    outer loop
      vertex   -4.485702e+00 2.727816e+00 1.000000e+00
      vertex   -5.055316e+00 1.416433e+00 1.000000e+00
      vertex   -3.677636e+00 7.331411e-01 1.000000e+00
    endloop
  endfacet
  facet normal 0.000000e+00 -0.000000e+00 1.000000e+00
    outer loop
      vertex   -3.718330e+00 -4.863344e-01 1.000000e+00
      vertex   -3.677636e+00 7.331411e-01 1.000000e+00
      vertex   -5.055316e+00 1.416433e+00 1.000000e+00
    endloop
  endfacet
  facet normal 0.000000e+00 0.000000e+00 1.000000e+00
    outer loop
      vertex   -5.055316e+00 1.416433e+00 1.000000e+00
      vertex   -5.250000e+00 -1.285879e-15 1.000000e+00
      vertex   -3.718330e+00 -4.863344e-01 1.000000e+00
    endloop
  endfacet
  facet normal 0.000000e+00 0.000000e+00 1.000000e+00
    outer loop
      vertex   -3.718330e+00 -4.863344e-01 1.000000e+00
      vertex   -5.250000e+00 -1.285879e-15 1.000000e+00
      vertex   -5.055316e+00 -1.416433e+00 1.000000e+00
    endloop
  endfacet
  facet normal 0.000000e+00 0.000000e+00 1.000000e+00
    outer loop
      vertex   3.718330e+00 -4.863344e-01 1.000000e+00
      vertex   3.365370e+00 -1.654322e+00 1.000000e+00
      vertex   4.238621e+00 -2.158494e+00 1.000000e+00
    endloop
  endfacet
  facet normal 0.000000e+00 -0.000000e+00 1.000000e+00
    outer loop
      vertex   4.238621e+00 -2.158494e+00 1.000000e+00
      vertex   5.201101e+00 -7.148749e-01 1.000000e+00
      vertex   3.718330e+00 -4.863344e-01 1.000000e+00
    endloop
  endfacet
  facet normal 0.000000e+00 0.000000e+00 1.000000e+00
    outer loop
      vertex   3.677636e+00 7.331411e-01 1.000000e+00
      vertex   3.718330e+00 -4.863344e-01 1.000000e+00
      vertex   5.201101e+00 -7.148749e-01 1.000000e+00
    endloop
  endfacet
  facet normal 0.000000e+00 0.000000e+00 1.000000e+00
    outer loop
      vertex   5.201101e+00 -7.148749e-01 1.000000e+00
      vertex   5.201101e+00 7.148749e-01 1.000000e+00
      vertex   3.677636e+00 7.331411e-01 1.000000e+00
    endloop
  endfacet
  facet normal 0.000000e+00 0.000000e+00 1.000000e+00
    outer loop
      vertex   3.247595e+00 1.875000e+00 1.000000e+00
      vertex   3.677636e+00 7.331411e-01 1.000000e+00
      vertex   5.201101e+00 7.148749e-01 1.000000e+00
    endloop
  endfacet
  facet normal 0.000000e+00 0.000000e+00 1.000000e+00
    outer loop
      vertex   3.988621e+00 -2.591506e+00 1.000000e+00
      vertex   3.115370e+00 -2.087335e+00 1.000000e+00
      vertex   2.280343e+00 -2.977001e+00 1.000000e+00
    endloop
  endfacet
  facet normal 0.000000e+00 0.000000e+00 1.000000e+00
    outer loop
      vertex   4.072484e+00 -3.313212e+00 1.000000e+00
      vertex   3.988621e+00 -2.591506e+00 1.000000e+00
      vertex   2.280343e+00 -2.977001e+00 1.000000e+00
    endloop
  endfacet
  facet normal 0.000000e+00 0.000000e+00 1.000000e+00
    outer loop
      vertex   4.238621e+00 -2.158494e+00 1.000000e+00
      vertex   3.988621e+00 -2.591506e+00 1.000000e+00
      vertex   4.072484e+00 -3.313212e+00 1.000000e+00
    endloop
  endfacet
  facet normal 0.000000e+00 0.000000e+00 1.000000e+00
    outer loop
      vertex   4.072484e+00 -3.313212e+00 1.000000e+00
      vertex   4.815359e+00 -2.091606e+00 1.000000e+00
      vertex   4.238621e+00 -2.158494e+00 1.000000e+00
    endloop
  endfacet
  facet normal 0.000000e+00 0.000000e+00 1.000000e+00
    outer loop
      vertex   4.238621e+00 -2.158494e+00 1.000000e+00
      vertex   4.815359e+00 -2.091606e+00 1.000000e+00
      vertex   5.201101e+00 -7.148749e-01 1.000000e+00
    endloop
  endfacet
  facet normal 0.000000e+00 0.000000e+00 1.000000e+00
    outer loop
      vertex   1.758118e+00 -4.946870e+00 1.000000e+00
      vertex   3.027572e+00 -4.289092e+00 1.000000e+00
      vertex   2.280343e+00 -2.977001e+00 1.000000e+00
    endloop
  endfacet
  facet normal 0.000000e+00 0.000000e+00 1.000000e+00
    outer loop
      vertex   2.280343e+00 -2.977001e+00 1.000000e+00
      vertex   1.203899e+00 -3.551496e+00 1.000000e+00
      vertex   1.758118e+00 -4.946870e+00 1.000000e+00
    endloop
  endfacet
  facet normal 0.000000e+00 0.000000e+00 1.000000e+00
    outer loop
      vertex   3.582727e-01 -5.237761e+00 1.000000e+00
      vertex   1.758118e+00 -4.946870e+00 1.000000e+00
      vertex   1.203899e+00 -3.551496e+00 1.000000e+00
    endloop
  endfacet
  facet normal 0.000000e+00 0.000000e+00 1.000000e+00
    outer loop
      vertex   1.203899e+00 -3.551496e+00 1.000000e+00
      vertex   6.888638e-16 -3.750000e+00 1.000000e+00
      vertex   3.582727e-01 -5.237761e+00 1.000000e+00
    endloop
  endfacet
  facet normal -0.000000e+00 0.000000e+00 1.000000e+00
    outer loop
      vertex   -1.068144e+00 -5.140191e+00 1.000000e+00
      vertex   3.582727e-01 -5.237761e+00 1.000000e+00
      vertex   6.888638e-16 -3.750000e+00 1.000000e+00
    endloop
  endfacet
  facet normal 0.000000e+00 0.000000e+00 1.000000e+00
    outer loop
      vertex   6.888638e-16 -3.750000e+00 1.000000e+00
      vertex   -1.203899e+00 -3.551496e+00 1.000000e+00
      vertex   -1.068144e+00 -5.140191e+00 1.000000e+00
    endloop
  endfacet
  facet normal -0.000000e+00 0.000000e+00 1.000000e+00
    outer loop
      vertex   -2.415341e+00 -4.661397e+00 1.000000e+00
      vertex   -1.068144e+00 -5.140191e+00 1.000000e+00
      vertex   -1.203899e+00 -3.551496e+00 1.000000e+00
    endloop
  endfacet
  facet normal 0.000000e+00 0.000000e+00 1.000000e+00
    outer loop
      vertex   -2.415341e+00 -4.661397e+00 1.000000e+00
      vertex   -1.203899e+00 -3.551496e+00 1.000000e+00
      vertex   -2.280343e+00 -2.977001e+00 1.000000e+00
    endloop
  endfacet
  facet normal 0.000000e+00 0.000000e+00 1.000000e+00
    outer loop
      vertex   -2.280343e+00 -2.977001e+00 1.000000e+00
      vertex   -3.583404e+00 -3.836889e+00 1.000000e+00
      vertex   -2.415341e+00 -4.661397e+00 1.000000e+00
    endloop
  endfacet
  facet normal 0.000000e+00 0.000000e+00 1.000000e+00
    outer loop
      vertex   -3.988621e+00 -2.591506e+00 1.000000e+00
      vertex   -3.583404e+00 -3.836889e+00 1.000000e+00
      vertex   -2.280343e+00 -2.977001e+00 1.000000e+00
    endloop
  endfacet
  facet normal -0.000000e+00 0.000000e+00 1.000000e+00
    outer loop
      vertex   -4.485702e+00 -2.727816e+00 1.000000e+00
      vertex   -3.583404e+00 -3.836889e+00 1.000000e+00
      vertex   -3.988621e+00 -2.591506e+00 1.000000e+00
    endloop
  endfacet
  facet normal 0.000000e+00 0.000000e+00 1.000000e+00
    outer loop
      vertex   -4.485702e+00 -2.727816e+00 1.000000e+00
      vertex   -3.988621e+00 -2.591506e+00 1.000000e+00
      vertex   -4.238621e+00 -2.158494e+00 1.000000e+00
    endloop
  endfacet
  facet normal 0.000000e+00 0.000000e+00 1.000000e+00
    outer loop
      vertex   -4.238621e+00 -2.158494e+00 1.000000e+00
      vertex   -5.055316e+00 -1.416433e+00 1.000000e+00
      vertex   -4.485702e+00 -2.727816e+00 1.000000e+00
    endloop
  endfacet
  facet normal 0.000000e+00 0.000000e+00 1.000000e+00
    outer loop
      vertex   -5.055316e+00 -1.416433e+00 1.000000e+00
      vertex   -4.238621e+00 -2.158494e+00 1.000000e+00
      vertex   -3.365370e+00 -1.654322e+00 1.000000e+00
    endloop
  endfacet
  facet normal 0.000000e+00 0.000000e+00 1.000000e+00
    outer loop
      vertex   -3.365370e+00 -1.654322e+00 1.000000e+00
      vertex   -3.718330e+00 -4.863344e-01 1.000000e+00
      vertex   -5.055316e+00 -1.416433e+00 1.000000e+00
    endloop
  endfacet
  facet normal 0.000000e+00 0.000000e+00 1.000000e+00
    outer loop
      vertex   -1.068144e+00 5.140191e+00 1.000000e+00
      vertex   -1.437987e+00 3.463336e+00 1.000000e+00
      vertex   -2.500000e-01 3.741657e+00 1.000000e+00
    endloop
  endfacet
  facet normal 0.000000e+00 -0.000000e+00 1.000000e+00
    outer loop
      vertex   -2.500000e-01 3.741657e+00 1.000000e+00
      vertex   -2.500000e-01 4.750000e+00 1.000000e+00
      vertex   -1.068144e+00 5.140191e+00 1.000000e+00
    endloop
  endfacet
  facet normal 0.000000e+00 0.000000e+00 1.000000e+00
    outer loop
      vertex   3.582727e-01 5.237761e+00 1.000000e+00
      vertex   -1.068144e+00 5.140191e+00 1.000000e+00
      vertex   -2.500000e-01 4.750000e+00 1.000000e+00
    endloop
  endfacet
  facet normal 0.000000e+00 0.000000e+00 1.000000e+00
    outer loop
      vertex   -2.500000e-01 4.750000e+00 1.000000e+00
      vertex   2.500000e-01 4.750000e+00 1.000000e+00
      vertex   3.582727e-01 5.237761e+00 1.000000e+00
    endloop
  endfacet
  facet normal 0.000000e+00 0.000000e+00 1.000000e+00
    outer loop
      vertex   1.758118e+00 4.946870e+00 1.000000e+00
      vertex   3.582727e-01 5.237761e+00 1.000000e+00
      vertex   2.500000e-01 4.750000e+00 1.000000e+00
    endloop
  endfacet
  facet normal 0.000000e+00 -0.000000e+00 1.000000e+00
    outer loop
      vertex   1.437987e+00 3.463336e+00 1.000000e+00
      vertex   1.758118e+00 4.946870e+00 1.000000e+00
      vertex   2.500000e-01 4.750000e+00 1.000000e+00
    endloop
  endfacet
  facet normal 0.000000e+00 0.000000e+00 1.000000e+00
    outer loop
      vertex   3.027572e+00 4.289092e+00 1.000000e+00
      vertex   1.758118e+00 4.946870e+00 1.000000e+00
      vertex   1.437987e+00 3.463336e+00 1.000000e+00
    endloop
  endfacet
  facet normal -0.000000e+00 0.000000e+00 1.000000e+00
    outer loop
      vertex   1.437987e+00 3.463336e+00 1.000000e+00
      vertex   2.473737e+00 2.818355e+00 1.000000e+00
      vertex   3.027572e+00 4.289092e+00 1.000000e+00
    endloop
  endfacet
  facet normal 0.000000e+00 0.000000e+00 1.000000e+00
    outer loop
      vertex   4.072484e+00 3.313212e+00 1.000000e+00
      vertex   3.027572e+00 4.289092e+00 1.000000e+00
      vertex   2.473737e+00 2.818355e+00 1.000000e+00
    endloop
  endfacet
  facet normal -0.000000e+00 0.000000e+00 1.000000e+00
    outer loop
      vertex   2.473737e+00 2.818355e+00 1.000000e+00
      vertex   3.247595e+00 1.875000e+00 1.000000e+00
      vertex   4.072484e+00 3.313212e+00 1.000000e+00
    endloop
  endfacet
  facet normal 0.000000e+00 0.000000e+00 1.000000e+00
    outer loop
      vertex   3.247595e+00 1.875000e+00 1.000000e+00
      vertex   4.815359e+00 2.091606e+00 1.000000e+00
      vertex   4.072484e+00 3.313212e+00 1.000000e+00
    endloop
  endfacet
  facet normal 0.000000e+00 0.000000e+00 1.000000e+00
    outer loop
      vertex   5.201101e+00 7.148749e-01 1.000000e+00
      vertex   4.815359e+00 2.091606e+00 1.000000e+00
      vertex   3.247595e+00 1.875000e+00 1.000000e+00
    endloop
  endfacet
  facet normal 9.572461e-01 -2.892747e-01 0.000000e+00
    outer loop
      vertex   3.365370e+00 -1.654322e+00 3.000000e+00
      vertex   3.365370e+00 -1.654322e+00 1.000000e+00
      vertex   3.718330e+00 -4.863344e-01 1.000000e+00
    endloop
  endfacet
  facet normal 9.572461e-01 -2.892747e-01 0.000000e+00
    outer loop
      vertex   3.718330e+00 -4.863344e-01 1.000000e+00
      vertex   3.718330e+00 -4.863344e-01 3.000000e+00
      vertex   3.365370e+00 -1.654322e+00 3.000000e+00
    endloop
  endfacet
  facet normal 9.994437e-01 3.335189e-02 0.000000e+00
    outer loop
      vertex   3.718330e+00 -4.863344e-01 3.000000e+00
      vertex   3.718330e+00 -4.863344e-01 1.000000e+00
      vertex   3.677636e+00 7.331411e-01 1.000000e+00
    endloop
  endfacet
  facet normal 9.994437e-01 3.335189e-02 -0.000000e+00
    outer loop
      vertex   3.677636e+00 7.331411e-01 1.000000e+00
      vertex   3.677636e+00 7.331411e-01 3.000000e+00
      vertex   3.718330e+00 -4.863344e-01 3.000000e+00
    endloop
  endfacet
  facet normal 9.358316e-01 3.524476e-01 0.000000e+00
    outer loop
      vertex   3.677636e+00 7.331411e-01 3.000000e+00
      vertex   3.677636e+00 7.331411e-01 1.000000e+00
      vertex   3.247595e+00 1.875000e+00 1.000000e+00
    endloop
  endfacet
  facet normal 9.358316e-01 3.524476e-01 -0.000000e+00
    outer loop
      vertex   3.247595e+00 1.875000e+00 1.000000e+00
      vertex   3.247595e+00 1.875000e+00 3.000000e+00
      vertex   3.677636e+00 7.331411e-01 3.000000e+00
    endloop
  endfacet
  facet normal 7.731443e-01 6.342301e-01 0.000000e+00
    outer loop
      vertex   3.247595e+00 1.875000e+00 3.000000e+00
      vertex   3.247595e+00 1.875000e+00 1.000000e+00
      vertex   2.473737e+00 2.818355e+00 1.000000e+00
    endloop
  endfacet
  facet normal 7.731443e-01 6.342301e-01 -0.000000e+00
    outer loop
      vertex   2.473737e+00 2.818355e+00 1.000000e+00
      vertex   2.473737e+00 2.818355e+00 3.000000e+00
      vertex   3.247595e+00 1.875000e+00 3.000000e+00
    endloop
  endfacet
  facet normal 5.286054e-01 8.488677e-01 0.000000e+00
    outer loop
      vertex   2.473737e+00 2.818355e+00 3.000000e+00
      vertex   2.473737e+00 2.818355e+00 1.000000e+00
      vertex   1.437987e+00 3.463336e+00 1.000000e+00
    endloop
  endfacet
  facet normal 5.286054e-01 8.488677e-01 -0.000000e+00
    outer loop
      vertex   1.437987e+00 3.463336e+00 1.000000e+00
      vertex   1.437987e+00 3.463336e+00 3.000000e+00
      vertex   2.473737e+00 2.818355e+00 3.000000e+00
    endloop
  endfacet
  facet normal 2.281038e-01 9.736368e-01 0.000000e+00
    outer loop
      vertex   1.437987e+00 3.463336e+00 3.000000e+00
      vertex   1.437987e+00 3.463336e+00 1.000000e+00
      vertex   2.500000e-01 3.741657e+00 1.000000e+00
    endloop
  endfacet
  facet normal 2.281038e-01 9.736368e-01 -0.000000e+00
    outer loop
      vertex   2.500000e-01 3.741657e+00 1.000000e+00
      vertex   2.500000e-01 3.741657e+00 3.000000e+00
      vertex   1.437987e+00 3.463336e+00 3.000000e+00
    endloop
  endfacet
  facet normal 5.000000e-01 8.660254e-01 3.108363e-17
    outer loop
      vertex   4.238621e+00 -2.158494e+00 1.000000e+00
      vertex   3.365370e+00 -1.654322e+00 1.000000e+00
      vertex   3.365370e+00 -1.654322e+00 3.000000e+00
    endloop
  endfacet
  facet normal 5.000000e-01 8.660254e-01 3.108363e-17
    outer loop
      vertex   3.365370e+00 -1.654322e+00 3.000000e+00
      vertex   4.238621e+00 -2.158494e+00 3.000000e+00
      vertex   4.238621e+00 -2.158494e+00 1.000000e+00
    endloop
  endfacet
  facet normal -5.000000e-01 -8.660254e-01 3.108363e-17
    outer loop
      vertex   3.115370e+00 -2.087335e+00 1.000000e+00
      vertex   3.988621e+00 -2.591506e+00 1.000000e+00
      vertex   3.988621e+00 -2.591506e+00 3.000000e+00
    endloop
  endfacet
  facet normal -5.000000e-01 -8.660254e-01 3.108363e-17
    outer loop
      vertex   3.988621e+00 -2.591506e+00 3.000000e+00
      vertex   3.115370e+00 -2.087335e+00 3.000000e+00
      vertex   3.115370e+00 -2.087335e+00 1.000000e+00
    endloop
  endfacet
  facet normal 8.660254e-01 -5.000000e-01 1.430490e-17
    outer loop
      vertex   3.988621e+00 -2.591506e+00 1.000000e+00
      vertex   4.238621e+00 -2.158494e+00 1.000000e+00
      vertex   4.238621e+00 -2.158494e+00 3.000000e+00
    endloop
  endfacet
  facet normal 8.660254e-01 -5.000000e-01 1.430490e-17
    outer loop
      vertex   4.238621e+00 -2.158494e+00 3.000000e+00
      vertex   3.988621e+00 -2.591506e+00 3.000000e+00
      vertex   3.988621e+00 -2.591506e+00 1.000000e+00
    endloop
  endfacet
  facet normal -7.291423e-01 -6.843621e-01 -0.000000e+00
    outer loop
      vertex   -3.115370e+00 -2.087335e+00 3.000000e+00
      vertex   -3.115370e+00 -2.087335e+00 1.000000e+00
      vertex   -2.280343e+00 -2.977001e+00 1.000000e+00
    endloop
  endfacet
  facet normal -7.291423e-01 -6.843621e-01 0.000000e+00
    outer loop
      vertex   -2.280343e+00 -2.977001e+00 1.000000e+00
      vertex   -2.280343e+00 -2.977001e+00 3.000000e+00
      vertex   -3.115370e+00 -2.087335e+00 3.000000e+00
    endloop
  endfacet
  facet normal -4.708383e-01 -8.822196e-01 -0.000000e+00
    outer loop
      vertex   -2.280343e+00 -2.977001e+00 3.000000e+00
      vertex   -2.280343e+00 -2.977001e+00 1.000000e+00
      vertex   -1.203899e+00 -3.551496e+00 1.000000e+00
    endloop
  endfacet
  facet normal -4.708383e-01 -8.822196e-01 0.000000e+00
    outer loop
      vertex   -1.203899e+00 -3.551496e+00 1.000000e+00
      vertex   -1.203899e+00 -3.551496e+00 3.000000e+00
      vertex   -2.280343e+00 -2.977001e+00 3.000000e+00
    endloop
  endfacet
  facet normal -1.626872e-01 -9.866777e-01 -0.000000e+00
    outer loop
      vertex   -1.203899e+00 -3.551496e+00 3.000000e+00
      vertex   -1.203899e+00 -3.551496e+00 1.000000e+00
      vertex   6.888638e-16 -3.750000e+00 1.000000e+00
    endloop
  endfacet
  facet normal -1.626872e-01 -9.866777e-01 0.000000e+00
    outer loop
      vertex   6.888638e-16 -3.750000e+00 1.000000e+00
      vertex   6.888638e-16 -3.750000e+00 3.000000e+00
      vertex   -1.203899e+00 -3.551496e+00 3.000000e+00
    endloop
  endfacet
  facet normal 1.626872e-01 -9.866777e-01 0.000000e+00
    outer loop
      vertex   6.888638e-16 -3.750000e+00 3.000000e+00
      vertex   6.888638e-16 -3.750000e+00 1.000000e+00
      vertex   1.203899e+00 -3.551496e+00 1.000000e+00
    endloop
  endfacet
  facet normal 1.626872e-01 -9.866777e-01 0.000000e+00
    outer loop
      vertex   1.203899e+00 -3.551496e+00 1.000000e+00
      vertex   1.203899e+00 -3.551496e+00 3.000000e+00
      vertex   6.888638e-16 -3.750000e+00 3.000000e+00
    endloop
  endfacet
  facet normal 4.708383e-01 -8.822196e-01 0.000000e+00
    outer loop
      vertex   1.203899e+00 -3.551496e+00 3.000000e+00
      vertex   1.203899e+00 -3.551496e+00 1.000000e+00
      vertex   2.280343e+00 -2.977001e+00 1.000000e+00
    endloop
  endfacet
  facet normal 4.708383e-01 -8.822196e-01 0.000000e+00
    outer loop
      vertex   2.280343e+00 -2.977001e+00 1.000000e+00
      vertex   2.280343e+00 -2.977001e+00 3.000000e+00
      vertex   1.203899e+00 -3.551496e+00 3.000000e+00
    endloop
  endfacet
  facet normal 7.291423e-01 -6.843621e-01 0.000000e+00
    outer loop
      vertex   2.280343e+00 -2.977001e+00 3.000000e+00
      vertex   2.280343e+00 -2.977001e+00 1.000000e+00
      vertex   3.115370e+00 -2.087335e+00 1.000000e+00
    endloop
  endfacet
  facet normal 7.291423e-01 -6.843621e-01 0.000000e+00
    outer loop
      vertex   3.115370e+00 -2.087335e+00 1.000000e+00
      vertex   3.115370e+00 -2.087335e+00 3.000000e+00
      vertex   2.280343e+00 -2.977001e+00 3.000000e+00
    endloop
  endfacet
  facet normal 5.000000e-01 -8.660254e-01 6.216725e-17
    outer loop
      vertex   -3.988621e+00 -2.591506e+00 1.000000e+00
      vertex   -3.115370e+00 -2.087335e+00 1.000000e+00
      vertex   -3.115370e+00 -2.087335e+00 3.000000e+00
    endloop
  endfacet
  facet normal 5.000000e-01 -8.660254e-01 6.216725e-17
    outer loop
      vertex   -3.115370e+00 -2.087335e+00 3.000000e+00
      vertex   -3.988621e+00 -2.591506e+00 3.000000e+00
      vertex   -3.988621e+00 -2.591506e+00 1.000000e+00
    endloop
  endfacet
  facet normal -5.000000e-01 8.660254e-01 0.000000e+00
    outer loop
      vertex   -3.365370e+00 -1.654322e+00 1.000000e+00
      vertex   -4.238621e+00 -2.158494e+00 1.000000e+00
      vertex   -4.238621e+00 -2.158494e+00 3.000000e+00
    endloop
  endfacet
  facet normal -5.000000e-01 8.660254e-01 0.000000e+00
    outer loop
      vertex   -4.238621e+00 -2.158494e+00 3.000000e+00
      vertex   -3.365370e+00 -1.654322e+00 3.000000e+00
      vertex   -3.365370e+00 -1.654322e+00 1.000000e+00
    endloop
  endfacet
  facet normal -8.660254e-01 -5.000000e-01 -1.430490e-17
    outer loop
      vertex   -4.238621e+00 -2.158494e+00 1.000000e+00
      vertex   -3.988621e+00 -2.591506e+00 1.000000e+00
      vertex   -3.988621e+00 -2.591506e+00 3.000000e+00
    endloop
  endfacet
  facet normal -8.660254e-01 -5.000000e-01 -1.430490e-17
    outer loop
      vertex   -3.988621e+00 -2.591506e+00 3.000000e+00
      vertex   -4.238621e+00 -2.158494e+00 3.000000e+00
      vertex   -4.238621e+00 -2.158494e+00 1.000000e+00
    endloop
  endfacet
  facet normal -2.281038e-01 9.736368e-01 0.000000e+00
    outer loop
      vertex   -2.500000e-01 3.741657e+00 3.000000e+00
      vertex   -2.500000e-01 3.741657e+00 1.000000e+00
      vertex   -1.437987e+00 3.463336e+00 1.000000e+00
    endloop
  endfacet
  facet normal -2.281038e-01 9.736368e-01 0.000000e+00
    outer loop
      vertex   -1.437987e+00 3.463336e+00 1.000000e+00
      vertex   -1.437987e+00 3.463336e+00 3.000000e+00
      vertex   -2.500000e-01 3.741657e+00 3.000000e+00
    endloop
  endfacet
  facet normal -5.286054e-01 8.488677e-01 0.000000e+00
    outer loop
      vertex   -1.437987e+00 3.463336e+00 3.000000e+00
      vertex   -1.437987e+00 3.463336e+00 1.000000e+00
      vertex   -2.473737e+00 2.818355e+00 1.000000e+00
    endloop
  endfacet
  facet normal -5.286054e-01 8.488677e-01 0.000000e+00
    outer loop
      vertex   -2.473737e+00 2.818355e+00 1.000000e+00
      vertex   -2.473737e+00 2.818355e+00 3.000000e+00
      vertex   -1.437987e+00 3.463336e+00 3.000000e+00
    endloop
  endfacet
  facet normal -7.731443e-01 6.342301e-01 0.000000e+00
    outer loop
      vertex   -2.473737e+00 2.818355e+00 3.000000e+00
      vertex   -2.473737e+00 2.818355e+00 1.000000e+00
      vertex   -3.247595e+00 1.875000e+00 1.000000e+00
    endloop
  endfacet
  facet normal -7.731443e-01 6.342301e-01 0.000000e+00
    outer loop
      vertex   -3.247595e+00 1.875000e+00 1.000000e+00
      vertex   -3.247595e+00 1.875000e+00 3.000000e+00
      vertex   -2.473737e+00 2.818355e+00 3.000000e+00
    endloop
  endfacet
  facet normal -9.358316e-01 3.524476e-01 0.000000e+00
    outer loop
      vertex   -3.247595e+00 1.875000e+00 3.000000e+00
      vertex   -3.247595e+00 1.875000e+00 1.000000e+00
      vertex   -3.677636e+00 7.331411e-01 1.000000e+00
    endloop
  endfacet
  facet normal -9.358316e-01 3.524476e-01 0.000000e+00
    outer loop
      vertex   -3.677636e+00 7.331411e-01 1.000000e+00
      vertex   -3.677636e+00 7.331411e-01 3.000000e+00
      vertex   -3.247595e+00 1.875000e+00 3.000000e+00
    endloop
  endfacet
  facet normal -9.994437e-01 3.335189e-02 0.000000e+00
    outer loop
      vertex   -3.677636e+00 7.331411e-01 3.000000e+00
      vertex   -3.677636e+00 7.331411e-01 1.000000e+00
      vertex   -3.718330e+00 -4.863344e-01 1.000000e+00
    endloop
  endfacet
  facet normal -9.994437e-01 3.335189e-02 0.000000e+00
    outer loop
      vertex   -3.718330e+00 -4.863344e-01 1.000000e+00
      vertex   -3.718330e+00 -4.863344e-01 3.000000e+00
      vertex   -3.677636e+00 7.331411e-01 3.000000e+00
    endloop
  endfacet
  facet normal -9.572461e-01 -2.892747e-01 -0.000000e+00
    outer loop
      vertex   -3.718330e+00 -4.863344e-01 3.000000e+00
      vertex   -3.718330e+00 -4.863344e-01 1.000000e+00
      vertex   -3.365370e+00 -1.654322e+00 1.000000e+00
    endloop
  endfacet
  facet normal -9.572461e-01 -2.892747e-01 0.000000e+00
    outer loop
      vertex   -3.365370e+00 -1.654322e+00 1.000000e+00
      vertex   -3.365370e+00 -1.654322e+00 3.000000e+00
      vertex   -3.718330e+00 -4.863344e-01 3.000000e+00
    endloop
  endfacet
  facet normal -1.000000e+00 0.000000e+00 0.000000e+00
    outer loop
      vertex   -2.500000e-01 4.750000e+00 1.000000e+00
      vertex   -2.500000e-01 3.741657e+00 1.000000e+00
      vertex   -2.500000e-01 3.741657e+00 3.000000e+00
    endloop
  endfacet
  facet normal -1.000000e+00 0.000000e+00 0.000000e+00
    outer loop
      vertex   -2.500000e-01 3.741657e+00 3.000000e+00
      vertex   -2.500000e-01 4.750000e+00 3.000000e+00
      vertex   -2.500000e-01 4.750000e+00 1.000000e+00
    endloop
  endfacet
  facet normal 1.000000e+00 0.000000e+00 0.000000e+00
    outer loop
      vertex   2.500000e-01 3.741657e+00 1.000000e+00
      vertex   2.500000e-01 4.750000e+00 1.000000e+00
      vertex   2.500000e-01 4.750000e+00 3.000000e+00
    endloop
  endfacet
  facet normal 1.000000e+00 0.000000e+00 0.000000e+00
    outer loop
      vertex   2.500000e-01 4.750000e+00 3.000000e+00
      vertex   2.500000e-01 3.741657e+00 3.000000e+00
      vertex   2.500000e-01 3.741657e+00 1.000000e+00
    endloop
  endfacet
  facet normal 0.000000e+00 1.000000e+00 0.000000e+00
    outer loop
      vertex   2.500000e-01 4.750000e+00 1.000000e+00
      vertex   -2.500000e-01 4.750000e+00 1.000000e+00
      vertex   -2.500000e-01 4.750000e+00 3.000000e+00
    endloop
  endfacet
  facet normal -0.000000e+00 1.000000e+00 0.000000e+00
    outer loop
      vertex   -2.500000e-01 4.750000e+00 3.000000e+00
      vertex   2.500000e-01 4.750000e+00 3.000000e+00
      vertex   2.500000e-01 4.750000e+00 1.000000e+00
    endloop
  endfacet
  facet normal -2.598172e-17 4.630787e-16 1.000000e+00
    outer loop
      vertex   -3.115370e+00 -2.087335e+00 3.000000e+00
      vertex   -2.280343e+00 -2.977001e+00 3.000000e+00
      vertex   -1.558776e+00 -2.000000e+00 3.000000e+00
    endloop
  endfacet
  facet normal -6.010263e-16 0.000000e+00 1.000000e+00
    outer loop
      vertex   1.558776e+00 0.000000e+00 3.000000e+00
      vertex   1.558776e+00 -2.000000e+00 3.000000e+00
      vertex   2.280343e+00 -2.977001e+00 3.000000e+00
    endloop
  endfacet
  facet normal 5.659052e-16 -7.387925e-16 1.000000e+00
    outer loop
      vertex   -9.718808e-01 2.218700e+00 3.000000e+00
      vertex   2.500000e-01 3.741657e+00 3.000000e+00
      vertex   -3.677636e+00 7.331411e-01 3.000000e+00
    endloop
  endfacet
  facet normal -3.724713e-16 -2.150464e-16 1.000000e+00
    outer loop
      vertex   -3.365370e+00 -1.654322e+00 3.000000e+00
      vertex   -4.238621e+00 -2.158494e+00 3.000000e+00
      vertex   -3.988621e+00 -2.591506e+00 3.000000e+00
    endloop
  endfacet
  facet normal 3.724713e-16 -2.150464e-16 1.000000e+00
    outer loop
      vertex   3.115370e+00 -2.087335e+00 3.000000e+00
      vertex   3.988621e+00 -2.591506e+00 3.000000e+00
      vertex   4.238621e+00 -2.158494e+00 3.000000e+00
    endloop
  endfacet
  facet normal 4.336809e-16 7.511573e-16 1.000000e+00
    outer loop
      vertex   4.238621e+00 -2.158494e+00 3.000000e+00
      vertex   3.365370e+00 -1.654322e+00 3.000000e+00
      vertex   3.115370e+00 -2.087335e+00 3.000000e+00
    endloop
  endfacet
  facet normal 7.961557e-16 5.418824e-16 1.000000e+00
    outer loop
      vertex   1.558776e+00 1.000000e+00 3.000000e+00
      vertex   3.115370e+00 -2.087335e+00 3.000000e+00
      vertex   3.365370e+00 -1.654322e+00 3.000000e+00
    endloop
  endfacet
  facet normal 1.699247e-16 3.183914e-16 1.000000e+00
    outer loop
      vertex   -1.558776e+00 -2.000000e+00 3.000000e+00
      vertex   -2.280343e+00 -2.977001e+00 3.000000e+00
      vertex   -1.203899e+00 -3.551496e+00 3.000000e+00
    endloop
  endfacet
  facet normal 4.789537e-17 2.904794e-16 1.000000e+00
    outer loop
      vertex   -1.558776e+00 -2.000000e+00 3.000000e+00
      vertex   -1.203899e+00 -3.551496e+00 3.000000e+00
      vertex   6.888638e-16 -3.750000e+00 3.000000e+00
    endloop
  endfacet
  facet normal 0.000000e+00 2.478176e-16 1.000000e+00
    outer loop
      vertex   1.558776e+00 -2.000000e+00 3.000000e+00
      vertex   -1.558776e+00 -2.000000e+00 3.000000e+00
      vertex   6.888638e-16 -3.750000e+00 3.000000e+00
    endloop
  endfacet
  facet normal -4.789537e-17 2.904794e-16 1.000000e+00
    outer loop
      vertex   6.888638e-16 -3.750000e+00 3.000000e+00
      vertex   1.203899e+00 -3.551496e+00 3.000000e+00
      vertex   1.558776e+00 -2.000000e+00 3.000000e+00
    endloop
  endfacet
  facet normal -1.699247e-16 3.183914e-16 1.000000e+00
    outer loop
      vertex   1.203899e+00 -3.551496e+00 3.000000e+00
      vertex   2.280343e+00 -2.977001e+00 3.000000e+00
      vertex   1.558776e+00 -2.000000e+00 3.000000e+00
    endloop
  endfacet
  facet normal 5.852324e-16 -9.398028e-16 1.000000e+00
    outer loop
      vertex   -2.500000e-01 3.741657e+00 3.000000e+00
      vertex   -1.437987e+00 3.463336e+00 3.000000e+00
      vertex   -2.473737e+00 2.818355e+00 3.000000e+00
    endloop
  endfacet
  facet normal -1.233542e-16 1.157784e-16 1.000000e+00
    outer loop
      vertex   2.280343e+00 -2.977001e+00 3.000000e+00
      vertex   3.115370e+00 -2.087335e+00 3.000000e+00
      vertex   1.558776e+00 0.000000e+00 3.000000e+00
    endloop
  endfacet
  facet normal -2.786088e-16 -2.138689e-31 1.000000e+00
    outer loop
      vertex   3.115370e+00 -2.087335e+00 3.000000e+00
      vertex   1.558776e+00 1.000000e+00 3.000000e+00
      vertex   1.558776e+00 0.000000e+00 3.000000e+00
    endloop
  endfacet
  facet normal 0.000000e+00 0.000000e+00 1.000000e+00
    outer loop
      vertex   -1.058776e+00 -3.252607e-16 3.000000e+00
      vertex   1.558776e+00 0.000000e+00 3.000000e+00
      vertex   1.558776e+00 1.000000e+00 3.000000e+00
    endloop
  endfacet
  facet normal 0.000000e+00 0.000000e+00 1.000000e+00
    outer loop
      vertex   1.558776e+00 1.000000e+00 3.000000e+00
      vertex   1.058776e+00 1.000000e+00 3.000000e+00
      vertex   -1.058776e+00 -3.252607e-16 3.000000e+00
    endloop
  endfacet
  facet normal -0.000000e+00 0.000000e+00 1.000000e+00
    outer loop
      vertex   -1.058776e+00 1.000000e+00 3.000000e+00
      vertex   -1.058776e+00 -3.252607e-16 3.000000e+00
      vertex   1.058776e+00 1.000000e+00 3.000000e+00
    endloop
  endfacet
  facet normal 0.000000e+00 0.000000e+00 1.000000e+00
    outer loop
      vertex   -1.058776e+00 1.000000e+00 3.000000e+00
      vertex   1.058776e+00 1.000000e+00 3.000000e+00
      vertex   9.539240e-01 1.459386e+00 3.000000e+00
    endloop
  endfacet
  facet normal 0.000000e+00 0.000000e+00 1.000000e+00
    outer loop
      vertex   -1.058776e+00 1.000000e+00 3.000000e+00
      vertex   9.539240e-01 1.459386e+00 3.000000e+00
      vertex   6.601359e-01 1.827784e+00 3.000000e+00
    endloop
  endfacet
  facet normal 0.000000e+00 4.300928e-16 1.000000e+00
    outer loop
      vertex   2.500000e-01 3.741657e+00 3.000000e+00
      vertex   2.500000e-01 4.750000e+00 3.000000e+00
      vertex   -2.500000e-01 4.750000e+00 3.000000e+00
    endloop
  endfacet
  facet normal -8.673617e-16 0.000000e+00 1.000000e+00
    outer loop
      vertex   -2.500000e-01 4.750000e+00 3.000000e+00
      vertex   -2.500000e-01 3.741657e+00 3.000000e+00
      vertex   2.500000e-01 3.741657e+00 3.000000e+00
    endloop
  endfacet
  facet normal -8.673617e-16 1.132346e-15 1.000000e+00
    outer loop
      vertex   -3.677636e+00 7.331411e-01 3.000000e+00
      vertex   2.500000e-01 3.741657e+00 3.000000e+00
      vertex   -2.500000e-01 3.741657e+00 3.000000e+00
    endloop
  endfacet
  facet normal 2.565145e-16 -1.480987e-16 1.000000e+00
    outer loop
      vertex   -3.677636e+00 7.331411e-01 3.000000e+00
      vertex   -2.500000e-01 3.741657e+00 3.000000e+00
      vertex   -2.473737e+00 2.818355e+00 3.000000e+00
    endloop
  endfacet
  facet normal 0.000000e+00 0.000000e+00 1.000000e+00
    outer loop
      vertex   -2.473737e+00 2.818355e+00 3.000000e+00
      vertex   -3.247595e+00 1.875000e+00 3.000000e+00
      vertex   -3.677636e+00 7.331411e-01 3.000000e+00
    endloop
  endfacet
  facet normal 0.000000e+00 0.000000e+00 1.000000e+00
    outer loop
      vertex   -2.355998e-01 2.032230e+00 3.000000e+00
      vertex   -6.601359e-01 1.827784e+00 3.000000e+00
      vertex   -9.539240e-01 1.459386e+00 3.000000e+00
    endloop
  endfacet
  facet normal -0.000000e+00 0.000000e+00 1.000000e+00
    outer loop
      vertex   -9.539240e-01 1.459386e+00 3.000000e+00
      vertex   -1.058776e+00 1.000000e+00 3.000000e+00
      vertex   -2.355998e-01 2.032230e+00 3.000000e+00
    endloop
  endfacet
  facet normal 0.000000e+00 0.000000e+00 1.000000e+00
    outer loop
      vertex   -1.058776e+00 1.000000e+00 3.000000e+00
      vertex   2.355998e-01 2.032230e+00 3.000000e+00
      vertex   -2.355998e-01 2.032230e+00 3.000000e+00
    endloop
  endfacet
  facet normal 0.000000e+00 0.000000e+00 1.000000e+00
    outer loop
      vertex   6.601359e-01 1.827784e+00 3.000000e+00
      vertex   2.355998e-01 2.032230e+00 3.000000e+00
      vertex   -1.058776e+00 1.000000e+00 3.000000e+00
    endloop
  endfacet
  facet normal 4.336809e-16 -7.511573e-16 1.000000e+00
    outer loop
      vertex   -3.988621e+00 -2.591506e+00 3.000000e+00
      vertex   -3.115370e+00 -2.087335e+00 3.000000e+00
      vertex   -3.365370e+00 -1.654322e+00 3.000000e+00
    endloop
  endfacet
  facet normal 5.442990e-17 -9.701179e-16 1.000000e+00
    outer loop
      vertex   -1.558776e+00 -2.000000e+00 3.000000e+00
      vertex   -3.365370e+00 -1.654322e+00 3.000000e+00
      vertex   -3.115370e+00 -2.087335e+00 3.000000e+00
    endloop
  endfacet
  facet normal 2.547868e-16 7.699521e-17 1.000000e+00
    outer loop
      vertex   -3.718330e+00 -4.863344e-01 3.000000e+00
      vertex   -3.365370e+00 -1.654322e+00 3.000000e+00
      vertex   -1.558776e+00 -2.000000e+00 3.000000e+00
    endloop
  endfacet
  facet normal 2.008196e-16 -0.000000e+00 1.000000e+00
    outer loop
      vertex   -1.558776e+00 -2.000000e+00 3.000000e+00
      vertex   -1.558776e+00 1.000000e+00 3.000000e+00
      vertex   -3.718330e+00 -4.863344e-01 3.000000e+00
    endloop
  endfacet
  facet normal 2.055404e-16 -6.858975e-18 1.000000e+00
    outer loop
      vertex   -1.558776e+00 1.000000e+00 3.000000e+00
      vertex   -3.677636e+00 7.331411e-01 3.000000e+00
      vertex   -3.718330e+00 -4.863344e-01 3.000000e+00
    endloop
  endfacet
  facet normal 2.107343e-16 -4.809873e-17 1.000000e+00
    outer loop
      vertex   -1.558776e+00 1.000000e+00 3.000000e+00
      vertex   -1.404408e+00 1.676327e+00 3.000000e+00
      vertex   -3.677636e+00 7.331411e-01 3.000000e+00
    endloop
  endfacet
  facet normal 2.851173e-16 -2.273735e-16 1.000000e+00
    outer loop
      vertex   -3.677636e+00 7.331411e-01 3.000000e+00
      vertex   -1.404408e+00 1.676327e+00 3.000000e+00
      vertex   -9.718808e-01 2.218700e+00 3.000000e+00
    endloop
  endfacet
  facet normal 2.234809e-16 -4.640628e-16 1.000000e+00
    outer loop
      vertex   2.500000e-01 3.741657e+00 3.000000e+00
      vertex   -9.718808e-01 2.218700e+00 3.000000e+00
      vertex   -3.468602e-01 2.519694e+00 3.000000e+00
    endloop
  endfacet
  facet normal 9.695624e-32 -3.549050e-16 1.000000e+00
    outer loop
      vertex   2.500000e-01 3.741657e+00 3.000000e+00
      vertex   -3.468602e-01 2.519694e+00 3.000000e+00
      vertex   3.468602e-01 2.519694e+00 3.000000e+00
    endloop
  endfacet
  facet normal -8.472050e-17 -3.616204e-16 1.000000e+00
    outer loop
      vertex   1.437987e+00 3.463336e+00 3.000000e+00
      vertex   2.500000e-01 3.741657e+00 3.000000e+00
      vertex   3.468602e-01 2.519694e+00 3.000000e+00
    endloop
  endfacet
  facet normal -1.421616e-16 -2.952016e-16 1.000000e+00
    outer loop
      vertex   3.468602e-01 2.519694e+00 3.000000e+00
      vertex   9.718808e-01 2.218700e+00 3.000000e+00
      vertex   1.437987e+00 3.463336e+00 3.000000e+00
    endloop
  endfacet
  facet normal -1.759483e-16 -2.825488e-16 1.000000e+00
    outer loop
      vertex   2.473737e+00 2.818355e+00 3.000000e+00
      vertex   1.437987e+00 3.463336e+00 3.000000e+00
      vertex   9.718808e-01 2.218700e+00 3.000000e+00
    endloop
  endfacet
  facet normal -2.190235e-16 -1.746654e-16 1.000000e+00
    outer loop
      vertex   9.718808e-01 2.218700e+00 3.000000e+00
      vertex   1.404408e+00 1.676327e+00 3.000000e+00
      vertex   2.473737e+00 2.818355e+00 3.000000e+00
    endloop
  endfacet
  facet normal -3.777971e-16 -2.571377e-16 1.000000e+00
    outer loop
      vertex   3.365370e+00 -1.654322e+00 3.000000e+00
      vertex   3.718330e+00 -4.863344e-01 3.000000e+00
      vertex   1.558776e+00 1.000000e+00 3.000000e+00
    endloop
  endfacet
  facet normal -2.055404e-16 -6.858975e-18 1.000000e+00
    outer loop
      vertex   1.558776e+00 1.000000e+00 3.000000e+00
      vertex   3.718330e+00 -4.863344e-01 3.000000e+00
      vertex   3.677636e+00 7.331411e-01 3.000000e+00
    endloop
  endfacet
  facet normal -2.107343e-16 -4.809873e-17 1.000000e+00
    outer loop
      vertex   1.404408e+00 1.676327e+00 3.000000e+00
      vertex   1.558776e+00 1.000000e+00 3.000000e+00
      vertex   3.677636e+00 7.331411e-01 3.000000e+00
    endloop
  endfacet
  facet normal -2.261098e-16 -8.515620e-17 1.000000e+00
    outer loop
      vertex   3.677636e+00 7.331411e-01 3.000000e+00
      vertex   3.247595e+00 1.875000e+00 3.000000e+00
      vertex   1.404408e+00 1.676327e+00 3.000000e+00
    endloop
  endfacet
  facet normal -2.161743e-16 -1.773333e-16 1.000000e+00
    outer loop
      vertex   1.404408e+00 1.676327e+00 3.000000e+00
      vertex   3.247595e+00 1.875000e+00 3.000000e+00
      vertex   2.473737e+00 2.818355e+00 3.000000e+00
    endloop
  endfacet
  facet normal -1.242614e-16 1.000000e+00 0.000000e+00
    outer loop
      vertex   -1.058776e+00 -3.252607e-16 3.000000e+00
      vertex   -1.058776e+00 -3.252607e-16 3.400000e+00
      vertex   1.558776e+00 0.000000e+00 3.400000e+00
    endloop
  endfacet
  facet normal -1.242614e-16 1.000000e+00 0.000000e+00
    outer loop
      vertex   1.558776e+00 0.000000e+00 3.400000e+00
      vertex   1.558776e+00 0.000000e+00 3.000000e+00
      vertex   -1.058776e+00 -3.252607e-16 3.000000e+00
    endloop
  endfacet
  facet normal 1.000000e+00 2.168404e-16 -0.000000e+00
    outer loop
      vertex   -1.058776e+00 1.000000e+00 3.000000e+00
      vertex   -1.058776e+00 1.000000e+00 3.400000e+00
      vertex   -1.058776e+00 -3.252607e-16 3.400000e+00
    endloop
  endfacet
  facet normal 1.000000e+00 2.168404e-16 0.000000e+00
    outer loop
      vertex   -1.058776e+00 -3.252607e-16 3.400000e+00
      vertex   -1.058776e+00 -3.252607e-16 3.000000e+00
      vertex   -1.058776e+00 1.000000e+00 3.000000e+00
    endloop
  endfacet
  facet normal 9.749279e-01 -2.225209e-01 4.288826e-17
    outer loop
      vertex   -9.539240e-01 1.459386e+00 3.400000e+00
      vertex   -1.058776e+00 1.000000e+00 3.400000e+00
      vertex   -1.058776e+00 1.000000e+00 3.000000e+00
    endloop
  endfacet
  facet normal 9.749279e-01 -2.225209e-01 4.288826e-17
    outer loop
      vertex   -1.058776e+00 1.000000e+00 3.000000e+00
      vertex   -9.539240e-01 1.459386e+00 3.000000e+00
      vertex   -9.539240e-01 1.459386e+00 3.400000e+00
    endloop
  endfacet
  facet normal 7.818315e-01 -6.234898e-01 0.000000e+00
    outer loop
      vertex   -6.601359e-01 1.827784e+00 3.400000e+00
      vertex   -9.539240e-01 1.459386e+00 3.400000e+00
      vertex   -9.539240e-01 1.459386e+00 3.000000e+00
    endloop
  endfacet
  facet normal 7.818315e-01 -6.234898e-01 0.000000e+00
    outer loop
      vertex   -9.539240e-01 1.459386e+00 3.000000e+00
      vertex   -6.601359e-01 1.827784e+00 3.000000e+00
      vertex   -6.601359e-01 1.827784e+00 3.400000e+00
    endloop
  endfacet
  facet normal 4.338837e-01 -9.009689e-01 0.000000e+00
    outer loop
      vertex   -2.355998e-01 2.032230e+00 3.400000e+00
      vertex   -6.601359e-01 1.827784e+00 3.400000e+00
      vertex   -6.601359e-01 1.827784e+00 3.000000e+00
    endloop
  endfacet
  facet normal 4.338837e-01 -9.009689e-01 0.000000e+00
    outer loop
      vertex   -6.601359e-01 1.827784e+00 3.000000e+00
      vertex   -2.355998e-01 2.032230e+00 3.000000e+00
      vertex   -2.355998e-01 2.032230e+00 3.400000e+00
    endloop
  endfacet
  facet normal -0.000000e+00 -1.000000e+00 0.000000e+00
    outer loop
      vertex   2.355998e-01 2.032230e+00 3.400000e+00
      vertex   -2.355998e-01 2.032230e+00 3.400000e+00
      vertex   -2.355998e-01 2.032230e+00 3.000000e+00
    endloop
  endfacet
  facet normal 0.000000e+00 -1.000000e+00 0.000000e+00
    outer loop
      vertex   -2.355998e-01 2.032230e+00 3.000000e+00
      vertex   2.355998e-01 2.032230e+00 3.000000e+00
      vertex   2.355998e-01 2.032230e+00 3.400000e+00
    endloop
  endfacet
  facet normal -4.338837e-01 -9.009689e-01 0.000000e+00
    outer loop
      vertex   6.601359e-01 1.827784e+00 3.400000e+00
      vertex   2.355998e-01 2.032230e+00 3.400000e+00
      vertex   2.355998e-01 2.032230e+00 3.000000e+00
    endloop
  endfacet
  facet normal -4.338837e-01 -9.009689e-01 0.000000e+00
    outer loop
      vertex   2.355998e-01 2.032230e+00 3.000000e+00
      vertex   6.601359e-01 1.827784e+00 3.000000e+00
      vertex   6.601359e-01 1.827784e+00 3.400000e+00
    endloop
  endfacet
  facet normal -7.818315e-01 -6.234898e-01 -8.577652e-17
    outer loop
      vertex   9.539240e-01 1.459386e+00 3.400000e+00
      vertex   6.601359e-01 1.827784e+00 3.400000e+00
      vertex   6.601359e-01 1.827784e+00 3.000000e+00
    endloop
  endfacet
  facet normal -7.818315e-01 -6.234898e-01 -8.577652e-17
    outer loop
      vertex   6.601359e-01 1.827784e+00 3.000000e+00
      vertex   9.539240e-01 1.459386e+00 3.000000e+00
      vertex   9.539240e-01 1.459386e+00 3.400000e+00
    endloop
  endfacet
  facet normal -9.749279e-01 -2.225209e-01 -4.288826e-17
    outer loop
      vertex   1.058776e+00 1.000000e+00 3.400000e+00
      vertex   9.539240e-01 1.459386e+00 3.400000e+00
      vertex   9.539240e-01 1.459386e+00 3.000000e+00
    endloop
  endfacet
  facet normal -9.749279e-01 -2.225209e-01 -4.288826e-17
    outer loop
      vertex   9.539240e-01 1.459386e+00 3.000000e+00
      vertex   1.058776e+00 1.000000e+00 3.000000e+00
      vertex   1.058776e+00 1.000000e+00 3.400000e+00
    endloop
  endfacet
  facet normal 8.673617e-16 -1.000000e+00 0.000000e+00
    outer loop
      vertex   1.558776e+00 1.000000e+00 3.000000e+00
      vertex   1.558776e+00 1.000000e+00 3.400000e+00
      vertex   1.058776e+00 1.000000e+00 3.400000e+00
    endloop
  endfacet
  facet normal 8.673617e-16 -1.000000e+00 0.000000e+00
    outer loop
      vertex   1.058776e+00 1.000000e+00 3.400000e+00
      vertex   1.058776e+00 1.000000e+00 3.000000e+00
      vertex   1.558776e+00 1.000000e+00 3.000000e+00
    endloop
  endfacet
  facet normal 9.749279e-01 2.225209e-01 0.000000e+00
    outer loop
      vertex   1.558776e+00 1.000000e+00 3.400000e+00
      vertex   1.558776e+00 1.000000e+00 3.000000e+00
      vertex   1.404408e+00 1.676327e+00 3.000000e+00
    endloop
  endfacet
  facet normal 9.749279e-01 2.225209e-01 -0.000000e+00
    outer loop
      vertex   1.404408e+00 1.676327e+00 3.000000e+00
      vertex   1.404408e+00 1.676327e+00 3.400000e+00
      vertex   1.558776e+00 1.000000e+00 3.400000e+00
    endloop
  endfacet
  facet normal 7.818315e-01 6.234898e-01 0.000000e+00
    outer loop
      vertex   1.404408e+00 1.676327e+00 3.400000e+00
      vertex   1.404408e+00 1.676327e+00 3.000000e+00
      vertex   9.718808e-01 2.218700e+00 3.000000e+00
    endloop
  endfacet
  facet normal 7.818315e-01 6.234898e-01 -0.000000e+00
    outer loop
      vertex   9.718808e-01 2.218700e+00 3.000000e+00
      vertex   9.718808e-01 2.218700e+00 3.400000e+00
      vertex   1.404408e+00 1.676327e+00 3.400000e+00
    endloop
  endfacet
  facet normal 4.338837e-01 9.009689e-01 0.000000e+00
    outer loop
      vertex   9.718808e-01 2.218700e+00 3.400000e+00
      vertex   9.718808e-01 2.218700e+00 3.000000e+00
      vertex   3.468602e-01 2.519694e+00 3.000000e+00
    endloop
  endfacet
  facet normal 4.338837e-01 9.009689e-01 -0.000000e+00
    outer loop
      vertex   3.468602e-01 2.519694e+00 3.000000e+00
      vertex   3.468602e-01 2.519694e+00 3.400000e+00
      vertex   9.718808e-01 2.218700e+00 3.400000e+00
    endloop
  endfacet
  facet normal 0.000000e+00 1.000000e+00 0.000000e+00
    outer loop
      vertex   3.468602e-01 2.519694e+00 3.400000e+00
      vertex   3.468602e-01 2.519694e+00 3.000000e+00
      vertex   -3.468602e-01 2.519694e+00 3.000000e+00
    endloop
  endfacet
  facet normal 0.000000e+00 1.000000e+00 0.000000e+00
    outer loop
      vertex   -3.468602e-01 2.519694e+00 3.000000e+00
      vertex   -3.468602e-01 2.519694e+00 3.400000e+00
      vertex   3.468602e-01 2.519694e+00 3.400000e+00
    endloop
  endfacet
  facet normal -4.338837e-01 9.009689e-01 0.000000e+00
    outer loop
      vertex   -3.468602e-01 2.519694e+00 3.400000e+00
      vertex   -3.468602e-01 2.519694e+00 3.000000e+00
      vertex   -9.718808e-01 2.218700e+00 3.000000e+00
    endloop
  endfacet
  facet normal -4.338837e-01 9.009689e-01 0.000000e+00
    outer loop
      vertex   -9.718808e-01 2.218700e+00 3.000000e+00
      vertex   -9.718808e-01 2.218700e+00 3.400000e+00
      vertex   -3.468602e-01 2.519694e+00 3.400000e+00
    endloop
  endfacet
  facet normal -7.818315e-01 6.234898e-01 0.000000e+00
    outer loop
      vertex   -9.718808e-01 2.218700e+00 3.400000e+00
      vertex   -9.718808e-01 2.218700e+00 3.000000e+00
      vertex   -1.404408e+00 1.676327e+00 3.000000e+00
    endloop
  endfacet
  facet normal -7.818315e-01 6.234898e-01 0.000000e+00
    outer loop
      vertex   -1.404408e+00 1.676327e+00 3.000000e+00
      vertex   -1.404408e+00 1.676327e+00 3.400000e+00
      vertex   -9.718808e-01 2.218700e+00 3.400000e+00
    endloop
  endfacet
  facet normal -9.749279e-01 2.225209e-01 0.000000e+00
    outer loop
      vertex   -1.404408e+00 1.676327e+00 3.400000e+00
      vertex   -1.404408e+00 1.676327e+00 3.000000e+00
      vertex   -1.558776e+00 1.000000e+00 3.000000e+00
    endloop
  endfacet
  facet normal -9.749279e-01 2.225209e-01 0.000000e+00
    outer loop
      vertex   -1.558776e+00 1.000000e+00 3.000000e+00
      vertex   -1.558776e+00 1.000000e+00 3.400000e+00
      vertex   -1.404408e+00 1.676327e+00 3.400000e+00
    endloop
  endfacet
  facet normal -1.000000e+00 0.000000e+00 0.000000e+00
    outer loop
      vertex   -1.558776e+00 -2.000000e+00 3.000000e+00
      vertex   -1.558776e+00 -2.000000e+00 3.400000e+00
      vertex   -1.558776e+00 1.000000e+00 3.400000e+00
    endloop
  endfacet
  facet normal -1.000000e+00 0.000000e+00 -0.000000e+00
    outer loop
      vertex   -1.558776e+00 1.000000e+00 3.400000e+00
      vertex   -1.558776e+00 1.000000e+00 3.000000e+00
      vertex   -1.558776e+00 -2.000000e+00 3.000000e+00
    endloop
  endfacet
  facet normal 0.000000e+00 -1.000000e+00 0.000000e+00
    outer loop
      vertex   1.558776e+00 -2.000000e+00 3.000000e+00
      vertex   1.558776e+00 -2.000000e+00 3.400000e+00
      vertex   -1.558776e+00 -2.000000e+00 3.400000e+00
    endloop
  endfacet
  facet normal 0.000000e+00 -1.000000e+00 0.000000e+00
    outer loop
      vertex   -1.558776e+00 -2.000000e+00 3.400000e+00
      vertex   -1.558776e+00 -2.000000e+00 3.000000e+00
      vertex   1.558776e+00 -2.000000e+00 3.000000e+00
    endloop
  endfacet
  facet normal 1.000000e+00 0.000000e+00 -0.000000e+00
    outer loop
      vertex   1.558776e+00 0.000000e+00 3.000000e+00
      vertex   1.558776e+00 0.000000e+00 3.400000e+00
      vertex   1.558776e+00 -2.000000e+00 3.400000e+00
    endloop
  endfacet
  facet normal 1.000000e+00 0.000000e+00 0.000000e+00
    outer loop
      vertex   1.558776e+00 -2.000000e+00 3.400000e+00
      vertex   1.558776e+00 -2.000000e+00 3.000000e+00
      vertex   1.558776e+00 0.000000e+00 3.000000e+00
    endloop
  endfacet
  facet normal 0.000000e+00 -0.000000e+00 1.000000e+00
    outer loop
      vertex   -2.000000e-01 -2.500000e-01 3.400000e+00
      vertex   2.000000e-01 -2.500000e-01 3.400000e+00
      vertex   -1.058776e+00 -3.252607e-16 3.400000e+00
    endloop
  endfacet
  facet normal 0.000000e+00 0.000000e+00 1.000000e+00
    outer loop
      vertex   2.000000e-01 -1.750000e+00 3.400000e+00
      vertex   -2.000000e-01 -1.750000e+00 3.400000e+00
      vertex   -1.558776e+00 -2.000000e+00 3.400000e+00
    endloop
  endfacet
  facet normal 0.000000e+00 0.000000e+00 1.000000e+00
    outer loop
      vertex   -1.558776e+00 -2.000000e+00 3.400000e+00
      vertex   1.558776e+00 -2.000000e+00 3.400000e+00
      vertex   2.000000e-01 -1.750000e+00 3.400000e+00
    endloop
  endfacet
  facet normal 0.000000e+00 0.000000e+00 1.000000e+00
    outer loop
      vertex   2.000000e-01 -2.500000e-01 3.400000e+00
      vertex   2.000000e-01 -1.750000e+00 3.400000e+00
      vertex   1.558776e+00 -2.000000e+00 3.400000e+00
    endloop
  endfacet
  facet normal 0.000000e+00 -0.000000e+00 1.000000e+00
    outer loop
      vertex   1.558776e+00 -2.000000e+00 3.400000e+00
      vertex   1.558776e+00 0.000000e+00 3.400000e+00
      vertex   2.000000e-01 -2.500000e-01 3.400000e+00
    endloop
  endfacet
  facet normal 0.000000e+00 0.000000e+00 1.000000e+00
    outer loop
      vertex   1.558776e+00 0.000000e+00 3.400000e+00
      vertex   -1.058776e+00 -3.252607e-16 3.400000e+00
      vertex   2.000000e-01 -2.500000e-01 3.400000e+00
    endloop
  endfacet
  facet normal 0.000000e+00 0.000000e+00 1.000000e+00
    outer loop
      vertex   9.539240e-01 1.459386e+00 3.400000e+00
      vertex   1.058776e+00 1.000000e+00 3.400000e+00
      vertex   1.558776e+00 1.000000e+00 3.400000e+00
    endloop
  endfacet
  facet normal 0.000000e+00 0.000000e+00 1.000000e+00
    outer loop
      vertex   1.558776e+00 1.000000e+00 3.400000e+00
      vertex   1.404408e+00 1.676327e+00 3.400000e+00
      vertex   9.539240e-01 1.459386e+00 3.400000e+00
    endloop
  endfacet
  facet normal 0.000000e+00 0.000000e+00 1.000000e+00
    outer loop
      vertex   6.601359e-01 1.827784e+00 3.400000e+00
      vertex   9.539240e-01 1.459386e+00 3.400000e+00
      vertex   1.404408e+00 1.676327e+00 3.400000e+00
    endloop
  endfacet
  facet normal 0.000000e+00 0.000000e+00 1.000000e+00
    outer loop
      vertex   1.404408e+00 1.676327e+00 3.400000e+00
      vertex   9.718808e-01 2.218700e+00 3.400000e+00
      vertex   6.601359e-01 1.827784e+00 3.400000e+00
    endloop
  endfacet
  facet normal -0.000000e+00 0.000000e+00 1.000000e+00
    outer loop
      vertex   2.355998e-01 2.032230e+00 3.400000e+00
      vertex   6.601359e-01 1.827784e+00 3.400000e+00
      vertex   9.718808e-01 2.218700e+00 3.400000e+00
    endloop
  endfacet
  facet normal 0.000000e+00 0.000000e+00 1.000000e+00
    outer loop
      vertex   9.718808e-01 2.218700e+00 3.400000e+00
      vertex   3.468602e-01 2.519694e+00 3.400000e+00
      vertex   2.355998e-01 2.032230e+00 3.400000e+00
    endloop
  endfacet
  facet normal 0.000000e+00 0.000000e+00 1.000000e+00
    outer loop
      vertex   -2.355998e-01 2.032230e+00 3.400000e+00
      vertex   2.355998e-01 2.032230e+00 3.400000e+00
      vertex   3.468602e-01 2.519694e+00 3.400000e+00
    endloop
  endfacet
  facet normal 0.000000e+00 0.000000e+00 1.000000e+00
    outer loop
      vertex   3.468602e-01 2.519694e+00 3.400000e+00
      vertex   -3.468602e-01 2.519694e+00 3.400000e+00
      vertex   -2.355998e-01 2.032230e+00 3.400000e+00
    endloop
  endfacet
  facet normal 0.000000e+00 0.000000e+00 1.000000e+00
    outer loop
      vertex   -6.601359e-01 1.827784e+00 3.400000e+00
      vertex   -2.355998e-01 2.032230e+00 3.400000e+00
      vertex   -3.468602e-01 2.519694e+00 3.400000e+00
    endloop
  endfacet
  facet normal 0.000000e+00 0.000000e+00 1.000000e+00
    outer loop
      vertex   -3.468602e-01 2.519694e+00 3.400000e+00
      vertex   -9.718808e-01 2.218700e+00 3.400000e+00
      vertex   -6.601359e-01 1.827784e+00 3.400000e+00
    endloop
  endfacet
  facet normal 0.000000e+00 -0.000000e+00 1.000000e+00
    outer loop
      vertex   -9.539240e-01 1.459386e+00 3.400000e+00
      vertex   -6.601359e-01 1.827784e+00 3.400000e+00
      vertex   -9.718808e-01 2.218700e+00 3.400000e+00
    endloop
  endfacet
  facet normal 0.000000e+00 0.000000e+00 1.000000e+00
    outer loop
      vertex   -9.718808e-01 2.218700e+00 3.400000e+00
      vertex   -1.404408e+00 1.676327e+00 3.400000e+00
      vertex   -9.539240e-01 1.459386e+00 3.400000e+00
    endloop
  endfacet
  facet normal 0.000000e+00 -0.000000e+00 1.000000e+00
    outer loop
      vertex   -1.058776e+00 1.000000e+00 3.400000e+00
      vertex   -9.539240e-01 1.459386e+00 3.400000e+00
      vertex   -1.404408e+00 1.676327e+00 3.400000e+00
    endloop
  endfacet
  facet normal 0.000000e+00 0.000000e+00 1.000000e+00
    outer loop
      vertex   -1.404408e+00 1.676327e+00 3.400000e+00
      vertex   -1.558776e+00 1.000000e+00 3.400000e+00
      vertex   -1.058776e+00 1.000000e+00 3.400000e+00
    endloop
  endfacet
  facet normal 0.000000e+00 0.000000e+00 1.000000e+00
    outer loop
      vertex   -1.058776e+00 -3.252607e-16 3.400000e+00
      vertex   -1.058776e+00 1.000000e+00 3.400000e+00
      vertex   -1.558776e+00 1.000000e+00 3.400000e+00
    endloop
  endfacet
  facet normal 0.000000e+00 0.000000e+00 1.000000e+00
    outer loop
      vertex   -1.558776e+00 1.000000e+00 3.400000e+00
      vertex   -1.558776e+00 -2.000000e+00 3.400000e+00
      vertex   -1.058776e+00 -3.252607e-16 3.400000e+00
    endloop
  endfacet
  facet normal 0.000000e+00 0.000000e+00 1.000000e+00
    outer loop
      vertex   -2.000000e-01 -2.500000e-01 3.400000e+00
      vertex   -1.058776e+00 -3.252607e-16 3.400000e+00
      vertex   -1.558776e+00 -2.000000e+00 3.400000e+00
    endloop
  endfacet
  facet normal 0.000000e+00 0.000000e+00 1.000000e+00
    outer loop
      vertex   -1.558776e+00 -2.000000e+00 3.400000e+00
      vertex   -2.000000e-01 -1.750000e+00 3.400000e+00
      vertex   -2.000000e-01 -2.500000e-01 3.400000e+00
    endloop
  endfacet
  facet normal 0.000000e+00 -1.000000e+00 0.000000e+00
    outer loop
      vertex   2.000000e-01 -2.500000e-01 3.000000e+00
      vertex   2.000000e-01 -2.500000e-01 3.400000e+00
      vertex   -2.000000e-01 -2.500000e-01 3.400000e+00
    endloop
  endfacet
  facet normal 0.000000e+00 -1.000000e+00 0.000000e+00
    outer loop
      vertex   -2.000000e-01 -2.500000e-01 3.400000e+00
      vertex   -2.000000e-01 -2.500000e-01 3.000000e+00
      vertex   2.000000e-01 -2.500000e-01 3.000000e+00
    endloop
  endfacet
  facet normal -1.000000e+00 -5.421011e-16 0.000000e+00
    outer loop
      vertex   2.000000e-01 -1.750000e+00 3.000000e+00
      vertex   2.000000e-01 -1.750000e+00 3.400000e+00
      vertex   2.000000e-01 -2.500000e-01 3.400000e+00
    endloop
  endfacet
  facet normal -1.000000e+00 -5.421011e-16 -0.000000e+00
    outer loop
      vertex   2.000000e-01 -2.500000e-01 3.400000e+00
      vertex   2.000000e-01 -2.500000e-01 3.000000e+00
      vertex   2.000000e-01 -1.750000e+00 3.000000e+00
    endloop
  endfacet
  facet normal 0.000000e+00 1.000000e+00 0.000000e+00
    outer loop
      vertex   -2.000000e-01 -1.750000e+00 3.000000e+00
      vertex   -2.000000e-01 -1.750000e+00 3.400000e+00
      vertex   2.000000e-01 -1.750000e+00 3.400000e+00
    endloop
  endfacet
  facet normal 0.000000e+00 1.000000e+00 0.000000e+00
    outer loop
      vertex   2.000000e-01 -1.750000e+00 3.400000e+00
      vertex   2.000000e-01 -1.750000e+00 3.000000e+00
      vertex   -2.000000e-01 -1.750000e+00 3.000000e+00
    endloop
  endfacet
  facet normal 1.000000e+00 2.529805e-16 -0.000000e+00
    outer loop
      vertex   -2.000000e-01 -2.500000e-01 3.000000e+00
      vertex   -2.000000e-01 -2.500000e-01 3.400000e+00
      vertex   -2.000000e-01 -1.750000e+00 3.400000e+00
    endloop
  endfacet
  facet normal 1.000000e+00 2.529805e-16 0.000000e+00
    outer loop
      vertex   -2.000000e-01 -1.750000e+00 3.400000e+00
      vertex   -2.000000e-01 -1.750000e+00 3.000000e+00
      vertex   -2.000000e-01 -2.500000e-01 3.000000e+00
    endloop
  endfacet
  facet normal 0.000000e+00 0.000000e+00 1.000000e+00
    outer loop
      vertex   -2.000000e-01 -2.500000e-01 3.000000e+00
      vertex   -2.000000e-01 -1.750000e+00 3.000000e+00
      vertex   2.000000e-01 -1.750000e+00 3.000000e+00
    endloop
  endfacet
  facet normal 0.000000e+00 0.000000e+00 1.000000e+00
    outer loop
      vertex   2.000000e-01 -1.750000e+00 3.000000e+00
      vertex   2.000000e-01 -2.500000e-01 3.000000e+00
      vertex   -2.000000e-01 -2.500000e-01 3.000000e+00
    endloop
  endfacet
endsolid
