solid ascii
  facet normal 2.393157e-01 9.709418e-01 7.026651e-18
    outer loop
      vertex   -9.732362e+00 -9.942728e+00 1.500000e+00
      vertex   -9.500000e+00 -1.000000e+01 1.500000e+00
      vertex   -9.500000e+00 -1.000000e+01 2.168404e-16
    endloop
  endfacet
  facet normal 2.393157e-01 9.709418e-01 7.026651e-18
    outer loop
      vertex   -9.500000e+00 -1.000000e+01 2.168404e-16
      vertex   -9.732362e+00 -9.942728e+00 2.168404e-16
      vertex   -9.732362e+00 -9.942728e+00 1.500000e+00
    endloop
  endfacet
  facet normal 6.631227e-01 7.485107e-01 0.000000e+00
    outer loop
      vertex   -9.911492e+00 -9.784032e+00 1.500000e+00
      vertex   -9.732362e+00 -9.942728e+00 1.500000e+00
      vertex   -9.732362e+00 -9.942728e+00 2.168404e-16
    endloop
  endfacet
  facet normal 6.631227e-01 7.485107e-01 0.000000e+00
    outer loop
      vertex   -9.732362e+00 -9.942728e+00 2.168404e-16
      vertex   -9.911492e+00 -9.784032e+00 2.168404e-16
      vertex   -9.911492e+00 -9.784032e+00 1.500000e+00
    endloop
  endfacet
  facet normal 9.350162e-01 3.546049e-01 -7.026651e-18
    outer loop
      vertex   -9.996354e+00 -9.560268e+00 1.500000e+00
      vertex   -9.911492e+00 -9.784032e+00 1.500000e+00
      vertex   -9.911492e+00 -9.784032e+00 2.168404e-16
    endloop
  endfacet
  facet normal 9.350162e-01 3.546049e-01 -7.026651e-18
    outer loop
      vertex   -9.911492e+00 -9.784032e+00 2.168404e-16
      vertex   -9.996354e+00 -9.560268e+00 2.168404e-16
      vertex   -9.996354e+00 -9.560268e+00 1.500000e+00
    endloop
  endfacet
  facet normal 9.927089e-01 -1.205367e-01 0.000000e+00
    outer loop
      vertex   -9.967508e+00 -9.322698e+00 1.500000e+00
      vertex   -9.996354e+00 -9.560268e+00 1.500000e+00
      vertex   -9.996354e+00 -9.560268e+00 2.168404e-16
    endloop
  endfacet
  facet normal 9.927089e-01 -1.205367e-01 0.000000e+00
    outer loop
      vertex   -9.996354e+00 -9.560268e+00 2.168404e-16
      vertex   -9.967508e+00 -9.322698e+00 2.168404e-16
      vertex   -9.967508e+00 -9.322698e+00 1.500000e+00
    endloop
  endfacet
  facet normal 8.229839e-01 -5.680647e-01 -1.405330e-17
    outer loop
      vertex   -9.831561e+00 -9.125745e+00 1.500000e+00
      vertex   -9.967508e+00 -9.322698e+00 1.500000e+00
      vertex   -9.967508e+00 -9.322698e+00 2.168404e-16
    endloop
  endfacet
  facet normal 8.229839e-01 -5.680647e-01 -1.405330e-17
    outer loop
      vertex   -9.967508e+00 -9.322698e+00 2.168404e-16
      vertex   -9.831561e+00 -9.125745e+00 2.168404e-16
      vertex   -9.831561e+00 -9.125745e+00 1.500000e+00
    endloop
  endfacet
  facet normal 4.647232e-01 -8.854560e-01 0.000000e+00
    outer loop
      vertex   -9.619658e+00 -9.014529e+00 1.500000e+00
      vertex   -9.831561e+00 -9.125745e+00 1.500000e+00
      vertex   -9.831561e+00 -9.125745e+00 2.168404e-16
    endloop
  endfacet
  facet normal 4.647232e-01 -8.854560e-01 0.000000e+00
    outer loop
      vertex   -9.831561e+00 -9.125745e+00 2.168404e-16
      vertex   -9.619658e+00 -9.014529e+00 2.168404e-16
      vertex   -9.619658e+00 -9.014529e+00 1.500000e+00
    endloop
  endfacet
  facet normal -0.000000e+00 -1.000000e+00 0.000000e+00
    outer loop
      vertex   -9.380342e+00 -9.014529e+00 1.500000e+00
      vertex   -9.619658e+00 -9.014529e+00 1.500000e+00
      vertex   -9.619658e+00 -9.014529e+00 2.168404e-16
    endloop
  endfacet
  facet normal 0.000000e+00 -1.000000e+00 0.000000e+00
    outer loop
      vertex   -9.619658e+00 -9.014529e+00 2.168404e-16
      vertex   -9.380342e+00 -9.014529e+00 2.168404e-16
      vertex   -9.380342e+00 -9.014529e+00 1.500000e+00
    endloop
  endfacet
  facet normal -4.647232e-01 -8.854560e-01 0.000000e+00
    outer loop
      vertex   -9.168439e+00 -9.125745e+00 1.500000e+00
      vertex   -9.380342e+00 -9.014529e+00 1.500000e+00
      vertex   -9.380342e+00 -9.014529e+00 2.168404e-16
    endloop
  endfacet
  facet normal -4.647232e-01 -8.854560e-01 0.000000e+00
    outer loop
      vertex   -9.380342e+00 -9.014529e+00 2.168404e-16
      vertex   -9.168439e+00 -9.125745e+00 2.168404e-16
      vertex   -9.168439e+00 -9.125745e+00 1.500000e+00
    endloop
  endfacet
  facet normal -8.229839e-01 -5.680647e-01 1.405330e-17
    outer loop
      vertex   -9.032492e+00 -9.322698e+00 1.500000e+00
      vertex   -9.168439e+00 -9.125745e+00 1.500000e+00
      vertex   -9.168439e+00 -9.125745e+00 2.168404e-16
    endloop
  endfacet
  facet normal -8.229839e-01 -5.680647e-01 1.405330e-17
    outer loop
      vertex   -9.168439e+00 -9.125745e+00 2.168404e-16
      vertex   -9.032492e+00 -9.322698e+00 2.168404e-16
      vertex   -9.032492e+00 -9.322698e+00 1.500000e+00
    endloop
  endfacet
  facet normal -9.836199e-01 -1.802550e-01 0.000000e+00
    outer loop
      vertex   -9.000000e+00 -9.500000e+00 1.500000e+00
      vertex   -9.032492e+00 -9.322698e+00 1.500000e+00
      vertex   -9.032492e+00 -9.322698e+00 2.168404e-16
    endloop
  endfacet
  facet normal -9.836199e-01 -1.802550e-01 0.000000e+00
    outer loop
      vertex   -9.032492e+00 -9.322698e+00 2.168404e-16
      vertex   -9.000000e+00 -9.500000e+00 2.168404e-16
      vertex   -9.000000e+00 -9.500000e+00 1.500000e+00
    endloop
  endfacet
  facet normal -9.981756e-01 6.037850e-02 0.000000e+00
    outer loop
      vertex   -9.003646e+00 -9.560268e+00 1.500000e+00
      vertex   -9.000000e+00 -9.500000e+00 1.500000e+00
      vertex   -9.000000e+00 -9.500000e+00 2.168404e-16
    endloop
  endfacet
  facet normal -9.981756e-01 6.037850e-02 0.000000e+00
    outer loop
      vertex   -9.000000e+00 -9.500000e+00 2.168404e-16
      vertex   -9.003646e+00 -9.560268e+00 2.168404e-16
      vertex   -9.003646e+00 -9.560268e+00 1.500000e+00
    endloop
  endfacet
  facet normal -9.350162e-01 3.546049e-01 7.026651e-18
    outer loop
      vertex   -9.088508e+00 -9.784032e+00 1.500000e+00
      vertex   -9.003646e+00 -9.560268e+00 1.500000e+00
      vertex   -9.003646e+00 -9.560268e+00 2.168404e-16
    endloop
  endfacet
  facet normal -9.350162e-01 3.546049e-01 7.026651e-18
    outer loop
      vertex   -9.003646e+00 -9.560268e+00 2.168404e-16
      vertex   -9.088508e+00 -9.784032e+00 2.168404e-16
      vertex   -9.088508e+00 -9.784032e+00 1.500000e+00
    endloop
  endfacet
  facet normal -6.631227e-01 7.485107e-01 0.000000e+00
    outer loop
      vertex   -9.267638e+00 -9.942728e+00 1.500000e+00
      vertex   -9.088508e+00 -9.784032e+00 1.500000e+00
      vertex   -9.088508e+00 -9.784032e+00 2.168404e-16
    endloop
  endfacet
  facet normal -6.631227e-01 7.485107e-01 0.000000e+00
    outer loop
      vertex   -9.088508e+00 -9.784032e+00 2.168404e-16
      vertex   -9.267638e+00 -9.942728e+00 2.168404e-16
      vertex   -9.267638e+00 -9.942728e+00 1.500000e+00
    endloop
  endfacet
  facet normal -2.393157e-01 9.709418e-01 -7.026651e-18
    outer loop
      vertex   -9.500000e+00 -1.000000e+01 1.500000e+00
      vertex   -9.267638e+00 -9.942728e+00 1.500000e+00
      vertex   -9.267638e+00 -9.942728e+00 2.168404e-16
    endloop
  endfacet
  facet normal -2.393157e-01 9.709418e-01 -7.026651e-18
    outer loop
      vertex   -9.267638e+00 -9.942728e+00 2.168404e-16
      vertex   -9.500000e+00 -1.000000e+01 2.168404e-16
      vertex   -9.500000e+00 -1.000000e+01 1.500000e+00
    endloop
  endfacet
  facet normal -0.000000e+00 1.189438e-17 1.000000e+00
    outer loop
      vertex   -9.619658e+00 -9.014529e+00 1.500000e+00
      vertex   -9.380342e+00 -9.014529e+00 1.500000e+00
      vertex   9.911492e+00 9.215968e+00 1.500000e+00
    endloop
  endfacet
  facet normal -1.426192e-17 2.717381e-17 1.000000e+00
    outer loop
      vertex   9.911492e+00 9.215968e+00 1.500000e+00
      vertex   -9.831561e+00 -9.125745e+00 1.500000e+00
      vertex   -9.619658e+00 -9.014529e+00 1.500000e+00
    endloop
  endfacet
  facet normal 0.000000e+00 0.000000e+00 1.000000e+00
    outer loop
      vertex   9.967508e+00 -9.322698e+00 1.500000e+00
      vertex   1.000000e+01 -9.500000e+00 1.500000e+00
      vertex   1.250000e+01 -1.250000e+01 1.500000e+00
    endloop
  endfacet
  facet normal 0.000000e+00 -0.000000e+00 1.000000e+00
    outer loop
      vertex   1.250000e+01 -1.250000e+01 1.500000e+00
      vertex   1.250000e+01 1.250000e+01 1.500000e+00
      vertex   9.967508e+00 -9.322698e+00 1.500000e+00
    endloop
  endfacet
  facet normal 0.000000e+00 0.000000e+00 1.000000e+00
    outer loop
      vertex   1.250000e+01 1.250000e+01 1.500000e+00
      vertex   9.831561e+00 -9.125745e+00 1.500000e+00
      vertex   9.967508e+00 -9.322698e+00 1.500000e+00
    endloop
  endfacet
  facet normal -0.000000e+00 0.000000e+00 1.000000e+00
    outer loop
      vertex   -9.088508e+00 9.215968e+00 1.500000e+00
      vertex   9.088508e+00 9.215968e+00 1.500000e+00
      vertex   9.003646e+00 9.439732e+00 1.500000e+00
    endloop
  endfacet
  facet normal 0.000000e+00 0.000000e+00 1.000000e+00
    outer loop
      vertex   9.380342e+00 -9.014529e+00 1.500000e+00
      vertex   9.619658e+00 -9.014529e+00 1.500000e+00
      vertex   9.911492e+00 9.215968e+00 1.500000e+00
    endloop
  endfacet
  facet normal 0.000000e+00 0.000000e+00 1.000000e+00
    outer loop
      vertex   1.250000e+01 -1.250000e+01 1.500000e+00
      vertex   1.000000e+01 -9.500000e+00 1.500000e+00
      vertex   9.996354e+00 -9.560268e+00 1.500000e+00
    endloop
  endfacet
  facet normal 0.000000e+00 0.000000e+00 1.000000e+00
    outer loop
      vertex   9.996354e+00 -9.560268e+00 1.500000e+00
      vertex   9.911492e+00 -9.784032e+00 1.500000e+00
      vertex   1.250000e+01 -1.250000e+01 1.500000e+00
    endloop
  endfacet
  facet normal 0.000000e+00 0.000000e+00 1.000000e+00
    outer loop
      vertex   1.250000e+01 -1.250000e+01 1.500000e+00
      vertex   9.911492e+00 -9.784032e+00 1.500000e+00
      vertex   9.732362e+00 -9.942728e+00 1.500000e+00
    endloop
  endfacet
  facet normal -0.000000e+00 0.000000e+00 1.000000e+00
    outer loop
      vertex   9.619658e+00 -9.014529e+00 1.500000e+00
      vertex   9.831561e+00 -9.125745e+00 1.500000e+00
      vertex   1.250000e+01 1.250000e+01 1.500000e+00
    endloop
  endfacet
  facet normal 0.000000e+00 0.000000e+00 1.000000e+00
    outer loop
      vertex   9.619658e+00 -9.014529e+00 1.500000e+00
      vertex   1.250000e+01 1.250000e+01 1.500000e+00
      vertex   9.996354e+00 9.439732e+00 1.500000e+00
    endloop
  endfacet
  facet normal 0.000000e+00 0.000000e+00 1.000000e+00
    outer loop
      vertex   9.996354e+00 9.439732e+00 1.500000e+00
      vertex   9.911492e+00 9.215968e+00 1.500000e+00
      vertex   9.619658e+00 -9.014529e+00 1.500000e+00
    endloop
  endfacet
  facet normal 3.035748e-17 -1.231652e-16 1.000000e+00
    outer loop
      vertex   -9.267638e+00 -9.942728e+00 1.500000e+00
      vertex   -9.500000e+00 -1.000000e+01 1.500000e+00
      vertex   -1.250000e+01 -1.250000e+01 1.500000e+00
    endloop
  endfacet
  facet normal 0.000000e+00 -8.479365e-17 1.000000e+00
    outer loop
      vertex   -1.250000e+01 -1.250000e+01 1.500000e+00
      vertex   1.250000e+01 -1.250000e+01 1.500000e+00
      vertex   -9.267638e+00 -9.942728e+00 1.500000e+00
    endloop
  endfacet
  facet normal 8.795273e-18 -9.927811e-18 1.000000e+00
    outer loop
      vertex   1.250000e+01 -1.250000e+01 1.500000e+00
      vertex   -9.088508e+00 -9.784032e+00 1.500000e+00
      vertex   -9.267638e+00 -9.942728e+00 1.500000e+00
    endloop
  endfacet
  facet normal 0.000000e+00 -0.000000e+00 1.000000e+00
    outer loop
      vertex   -9.967508e+00 9.677302e+00 1.500000e+00
      vertex   -9.831561e+00 9.874255e+00 1.500000e+00
      vertex   -1.250000e+01 1.250000e+01 1.500000e+00
    endloop
  endfacet
  facet normal 1.210715e-17 -8.356965e-18 1.000000e+00
    outer loop
      vertex   9.032492e+00 -9.322698e+00 1.500000e+00
      vertex   9.168439e+00 -9.125745e+00 1.500000e+00
      vertex   -9.000000e+00 -9.500000e+00 1.500000e+00
    endloop
  endfacet
  facet normal 1.242257e-17 -2.366924e-17 1.000000e+00
    outer loop
      vertex   9.168439e+00 -9.125745e+00 1.500000e+00
      vertex   9.380342e+00 -9.014529e+00 1.500000e+00
      vertex   -9.000000e+00 -9.500000e+00 1.500000e+00
    endloop
  endfacet
  facet normal 1.174058e-17 2.151542e-18 1.000000e+00
    outer loop
      vertex   -9.032492e+00 -9.322698e+00 1.500000e+00
      vertex   -9.000000e+00 -9.500000e+00 1.500000e+00
      vertex   9.380342e+00 -9.014529e+00 1.500000e+00
    endloop
  endfacet
  facet normal 1.178234e-17 -3.432811e-19 1.000000e+00
    outer loop
      vertex   -9.032492e+00 -9.322698e+00 1.500000e+00
      vertex   9.380342e+00 -9.014529e+00 1.500000e+00
      vertex   9.911492e+00 9.215968e+00 1.500000e+00
    endloop
  endfacet
  facet normal 6.831707e-18 4.715587e-18 1.000000e+00
    outer loop
      vertex   9.911492e+00 9.215968e+00 1.500000e+00
      vertex   -9.168439e+00 -9.125745e+00 1.500000e+00
      vertex   -9.032492e+00 -9.322698e+00 1.500000e+00
    endloop
  endfacet
  facet normal 4.013546e-18 7.647173e-18 1.000000e+00
    outer loop
      vertex   -9.380342e+00 -9.014529e+00 1.500000e+00
      vertex   -9.168439e+00 -9.125745e+00 1.500000e+00
      vertex   9.911492e+00 9.215968e+00 1.500000e+00
    endloop
  endfacet
  facet normal 0.000000e+00 -0.000000e+00 1.000000e+00
    outer loop
      vertex   9.003646e+00 9.439732e+00 1.500000e+00
      vertex   9.032492e+00 9.677302e+00 1.500000e+00
      vertex   -9.000000e+00 9.500000e+00 1.500000e+00
    endloop
  endfacet
  facet normal 0.000000e+00 0.000000e+00 1.000000e+00
    outer loop
      vertex   -9.000000e+00 9.500000e+00 1.500000e+00
      vertex   -9.003646e+00 9.439732e+00 1.500000e+00
      vertex   9.003646e+00 9.439732e+00 1.500000e+00
    endloop
  endfacet
  facet normal 0.000000e+00 0.000000e+00 1.000000e+00
    outer loop
      vertex   -9.003646e+00 9.439732e+00 1.500000e+00
      vertex   -9.088508e+00 9.215968e+00 1.500000e+00
      vertex   9.003646e+00 9.439732e+00 1.500000e+00
    endloop
  endfacet
  facet normal -1.819541e-17 1.255938e-17 1.000000e+00
    outer loop
      vertex   -9.088508e+00 9.215968e+00 1.500000e+00
      vertex   -9.967508e+00 -9.322698e+00 1.500000e+00
      vertex   -9.831561e+00 -9.125745e+00 1.500000e+00
    endloop
  endfacet
  facet normal 0.000000e+00 0.000000e+00 1.000000e+00
    outer loop
      vertex   9.732362e+00 -9.942728e+00 1.500000e+00
      vertex   9.500000e+00 -1.000000e+01 1.500000e+00
      vertex   1.250000e+01 -1.250000e+01 1.500000e+00
    endloop
  endfacet
  facet normal 0.000000e+00 0.000000e+00 1.000000e+00
    outer loop
      vertex   1.250000e+01 -1.250000e+01 1.500000e+00
      vertex   9.500000e+00 -1.000000e+01 1.500000e+00
      vertex   9.267638e+00 -9.942728e+00 1.500000e+00
    endloop
  endfacet
  facet normal 1.194347e-17 1.509641e-17 1.000000e+00
    outer loop
      vertex   9.267638e+00 -9.942728e+00 1.500000e+00
      vertex   -9.088508e+00 -9.784032e+00 1.500000e+00
      vertex   1.250000e+01 -1.250000e+01 1.500000e+00
    endloop
  endfacet
  facet normal 1.192937e-17 1.346548e-17 1.000000e+00
    outer loop
      vertex   9.267638e+00 -9.942728e+00 1.500000e+00
      vertex   9.088508e+00 -9.784032e+00 1.500000e+00
      vertex   -9.088508e+00 -9.784032e+00 1.500000e+00
    endloop
  endfacet
  facet normal 1.192937e-17 4.524215e-18 1.000000e+00
    outer loop
      vertex   -9.088508e+00 -9.784032e+00 1.500000e+00
      vertex   9.088508e+00 -9.784032e+00 1.500000e+00
      vertex   9.003646e+00 -9.560268e+00 1.500000e+00
    endloop
  endfacet
  facet normal -2.257673e-16 2.548386e-16 1.000000e+00
    outer loop
      vertex   -9.831561e+00 -9.125745e+00 1.500000e+00
      vertex   9.911492e+00 9.215968e+00 1.500000e+00
      vertex   9.732362e+00 9.057272e+00 1.500000e+00
    endloop
  endfacet
  facet normal -4.000194e-18 1.622943e-17 1.000000e+00
    outer loop
      vertex   -9.831561e+00 -9.125745e+00 1.500000e+00
      vertex   9.732362e+00 9.057272e+00 1.500000e+00
      vertex   9.500000e+00 9.000000e+00 1.500000e+00
    endloop
  endfacet
  facet normal 1.372904e-19 1.181670e-17 1.000000e+00
    outer loop
      vertex   9.500000e+00 9.000000e+00 1.500000e+00
      vertex   -9.088508e+00 9.215968e+00 1.500000e+00
      vertex   -9.831561e+00 -9.125745e+00 1.500000e+00
    endloop
  endfacet
  facet normal 0.000000e+00 0.000000e+00 1.000000e+00
    outer loop
      vertex   -9.088508e+00 9.215968e+00 1.500000e+00
      vertex   9.500000e+00 9.000000e+00 1.500000e+00
      vertex   9.267638e+00 9.057272e+00 1.500000e+00
    endloop
  endfacet
  facet normal 0.000000e+00 0.000000e+00 1.000000e+00
    outer loop
      vertex   9.267638e+00 9.057272e+00 1.500000e+00
      vertex   9.088508e+00 9.215968e+00 1.500000e+00
      vertex   -9.088508e+00 9.215968e+00 1.500000e+00
    endloop
  endfacet
  facet normal 0.000000e+00 0.000000e+00 1.000000e+00
    outer loop
      vertex   1.250000e+01 1.250000e+01 1.500000e+00
      vertex   9.831561e+00 9.874255e+00 1.500000e+00
      vertex   9.967508e+00 9.677302e+00 1.500000e+00
    endloop
  endfacet
  facet normal -0.000000e+00 0.000000e+00 1.000000e+00
    outer loop
      vertex   9.967508e+00 9.677302e+00 1.500000e+00
      vertex   1.000000e+01 9.500000e+00 1.500000e+00
      vertex   1.250000e+01 1.250000e+01 1.500000e+00
    endloop
  endfacet
  facet normal 0.000000e+00 0.000000e+00 1.000000e+00
    outer loop
      vertex   1.250000e+01 1.250000e+01 1.500000e+00
      vertex   1.000000e+01 9.500000e+00 1.500000e+00
      vertex   9.996354e+00 9.439732e+00 1.500000e+00
    endloop
  endfacet
  facet normal 1.203936e-17 -1.461843e-18 1.000000e+00
    outer loop
      vertex   9.003646e+00 -9.560268e+00 1.500000e+00
      vertex   9.032492e+00 -9.322698e+00 1.500000e+00
      vertex   -9.000000e+00 -9.500000e+00 1.500000e+00
    endloop
  endfacet
  facet normal 1.204181e-17 -7.283955e-19 1.000000e+00
    outer loop
      vertex   -9.000000e+00 -9.500000e+00 1.500000e+00
      vertex   -9.003646e+00 -9.560268e+00 1.500000e+00
      vertex   9.003646e+00 -9.560268e+00 1.500000e+00
    endloop
  endfacet
  facet normal 1.204181e-17 -4.566857e-18 1.000000e+00
    outer loop
      vertex   -9.003646e+00 -9.560268e+00 1.500000e+00
      vertex   -9.088508e+00 -9.784032e+00 1.500000e+00
      vertex   9.003646e+00 -9.560268e+00 1.500000e+00
    endloop
  endfacet
  facet normal -1.649868e-17 -6.693776e-17 1.000000e+00
    outer loop
      vertex   -1.250000e+01 -1.250000e+01 1.500000e+00
      vertex   -9.500000e+00 -1.000000e+01 1.500000e+00
      vertex   -9.732362e+00 -9.942728e+00 1.500000e+00
    endloop
  endfacet
  facet normal -3.835032e-17 -4.328856e-17 1.000000e+00
    outer loop
      vertex   -9.732362e+00 -9.942728e+00 1.500000e+00
      vertex   -9.911492e+00 -9.784032e+00 1.500000e+00
      vertex   -1.250000e+01 -1.250000e+01 1.500000e+00
    endloop
  endfacet
  facet normal -5.992486e-17 -2.272650e-17 1.000000e+00
    outer loop
      vertex   -1.250000e+01 -1.250000e+01 1.500000e+00
      vertex   -9.911492e+00 -9.784032e+00 1.500000e+00
      vertex   -9.996354e+00 -9.560268e+00 1.500000e+00
    endloop
  endfacet
  facet normal 0.000000e+00 0.000000e+00 1.000000e+00
    outer loop
      vertex   -1.250000e+01 1.250000e+01 1.500000e+00
      vertex   -9.831561e+00 9.874255e+00 1.500000e+00
      vertex   -9.619658e+00 9.985471e+00 1.500000e+00
    endloop
  endfacet
  facet normal 0.000000e+00 0.000000e+00 1.000000e+00
    outer loop
      vertex   -1.250000e+01 1.250000e+01 1.500000e+00
      vertex   -9.619658e+00 9.985471e+00 1.500000e+00
      vertex   -9.380342e+00 9.985471e+00 1.500000e+00
    endloop
  endfacet
  facet normal 0.000000e+00 0.000000e+00 1.000000e+00
    outer loop
      vertex   1.250000e+01 1.250000e+01 1.500000e+00
      vertex   -1.250000e+01 1.250000e+01 1.500000e+00
      vertex   -9.380342e+00 9.985471e+00 1.500000e+00
    endloop
  endfacet
  facet normal -1.081670e-17 1.220953e-17 1.000000e+00
    outer loop
      vertex   -9.967508e+00 -9.322698e+00 1.500000e+00
      vertex   -9.088508e+00 9.215968e+00 1.500000e+00
      vertex   -9.267638e+00 9.057272e+00 1.500000e+00
    endloop
  endfacet
  facet normal -2.935409e-18 1.190942e-17 1.000000e+00
    outer loop
      vertex   -9.967508e+00 -9.322698e+00 1.500000e+00
      vertex   -9.267638e+00 9.057272e+00 1.500000e+00
      vertex   -9.500000e+00 9.000000e+00 1.500000e+00
    endloop
  endfacet
  facet normal -1.233962e-16 1.498301e-17 1.000000e+00
    outer loop
      vertex   -9.500000e+00 9.000000e+00 1.500000e+00
      vertex   -9.996354e+00 -9.560268e+00 1.500000e+00
      vertex   -9.967508e+00 -9.322698e+00 1.500000e+00
    endloop
  endfacet
  facet normal 2.860755e-18 1.160654e-17 1.000000e+00
    outer loop
      vertex   -9.996354e+00 -9.560268e+00 1.500000e+00
      vertex   -9.500000e+00 9.000000e+00 1.500000e+00
      vertex   -9.732362e+00 9.057272e+00 1.500000e+00
    endloop
  endfacet
  facet normal -1.019837e-16 1.309321e-17 1.000000e+00
    outer loop
      vertex   -9.732362e+00 9.057272e+00 1.500000e+00
      vertex   -1.250000e+01 -1.250000e+01 1.500000e+00
      vertex   -9.996354e+00 -9.560268e+00 1.500000e+00
    endloop
  endfacet
  facet normal 0.000000e+00 0.000000e+00 1.000000e+00
    outer loop
      vertex   -9.732362e+00 9.057272e+00 1.500000e+00
      vertex   -9.911492e+00 9.215968e+00 1.500000e+00
      vertex   -1.250000e+01 -1.250000e+01 1.500000e+00
    endloop
  endfacet
  facet normal 0.000000e+00 0.000000e+00 1.000000e+00
    outer loop
      vertex   -1.250000e+01 1.250000e+01 1.500000e+00
      vertex   -1.250000e+01 -1.250000e+01 1.500000e+00
      vertex   -9.911492e+00 9.215968e+00 1.500000e+00
    endloop
  endfacet
  facet normal 0.000000e+00 0.000000e+00 1.000000e+00
    outer loop
      vertex   -9.911492e+00 9.215968e+00 1.500000e+00
      vertex   -9.996354e+00 9.439732e+00 1.500000e+00
      vertex   -1.250000e+01 1.250000e+01 1.500000e+00
    endloop
  endfacet
  facet normal 0.000000e+00 0.000000e+00 1.000000e+00
    outer loop
      vertex   -1.250000e+01 1.250000e+01 1.500000e+00
      vertex   -9.996354e+00 9.439732e+00 1.500000e+00
      vertex   -9.967508e+00 9.677302e+00 1.500000e+00
    endloop
  endfacet
  facet normal -0.000000e+00 0.000000e+00 1.000000e+00
    outer loop
      vertex   -9.380342e+00 9.985471e+00 1.500000e+00
      vertex   -9.168439e+00 9.874255e+00 1.500000e+00
      vertex   1.250000e+01 1.250000e+01 1.500000e+00
    endloop
  endfacet
  facet normal 0.000000e+00 0.000000e+00 1.000000e+00
    outer loop
      vertex   1.250000e+01 1.250000e+01 1.500000e+00
      vertex   -9.168439e+00 9.874255e+00 1.500000e+00
      vertex   -9.032492e+00 9.677302e+00 1.500000e+00
    endloop
  endfacet
  facet normal 0.000000e+00 0.000000e+00 1.000000e+00
    outer loop
      vertex   1.250000e+01 1.250000e+01 1.500000e+00
      vertex   -9.032492e+00 9.677302e+00 1.500000e+00
      vertex   -9.000000e+00 9.500000e+00 1.500000e+00
    endloop
  endfacet
  facet normal 0.000000e+00 -0.000000e+00 1.000000e+00
    outer loop
      vertex   9.032492e+00 9.677302e+00 1.500000e+00
      vertex   9.168439e+00 9.874255e+00 1.500000e+00
      vertex   -9.000000e+00 9.500000e+00 1.500000e+00
    endloop
  endfacet
  facet normal 0.000000e+00 -0.000000e+00 1.000000e+00
    outer loop
      vertex   9.168439e+00 9.874255e+00 1.500000e+00
      vertex   9.380342e+00 9.985471e+00 1.500000e+00
      vertex   -9.000000e+00 9.500000e+00 1.500000e+00
    endloop
  endfacet
  facet normal 0.000000e+00 0.000000e+00 1.000000e+00
    outer loop
      vertex   -9.000000e+00 9.500000e+00 1.500000e+00
      vertex   9.380342e+00 9.985471e+00 1.500000e+00
      vertex   1.250000e+01 1.250000e+01 1.500000e+00
    endloop
  endfacet
  facet normal 0.000000e+00 0.000000e+00 1.000000e+00
    outer loop
      vertex   9.380342e+00 9.985471e+00 1.500000e+00
      vertex   9.619658e+00 9.985471e+00 1.500000e+00
      vertex   1.250000e+01 1.250000e+01 1.500000e+00
    endloop
  endfacet
  facet normal -0.000000e+00 0.000000e+00 1.000000e+00
    outer loop
      vertex   9.619658e+00 9.985471e+00 1.500000e+00
      vertex   9.831561e+00 9.874255e+00 1.500000e+00
      vertex   1.250000e+01 1.250000e+01 1.500000e+00
    endloop
  endfacet
  facet normal 5.992486e-17 2.272650e-17 -1.000000e+00
    outer loop
      vertex   -1.250000e+01 -1.250000e+01 0.000000e+00
      vertex   -9.996354e+00 -9.560268e+00 2.168404e-16
      vertex   -9.911492e+00 -9.784032e+00 2.168404e-16
    endloop
  endfacet
  facet normal 0.000000e+00 0.000000e+00 -1.000000e+00
    outer loop
      vertex   1.000000e+01 9.500000e+00 0.000000e+00
      vertex   9.967508e+00 9.677302e+00 0.000000e+00
      vertex   1.250000e+01 1.250000e+01 0.000000e+00
    endloop
  endfacet
  facet normal 0.000000e+00 0.000000e+00 -1.000000e+00
    outer loop
      vertex   1.250000e+01 -1.250000e+01 0.000000e+00
      vertex   -1.250000e+01 -1.250000e+01 0.000000e+00
      vertex   9.267638e+00 -9.942728e+00 0.000000e+00
    endloop
  endfacet
  facet normal 0.000000e+00 0.000000e+00 -1.000000e+00
    outer loop
      vertex   9.267638e+00 -9.942728e+00 0.000000e+00
      vertex   9.500000e+00 -1.000000e+01 0.000000e+00
      vertex   1.250000e+01 -1.250000e+01 0.000000e+00
    endloop
  endfacet
  facet normal 0.000000e+00 0.000000e+00 -1.000000e+00
    outer loop
      vertex   1.250000e+01 -1.250000e+01 0.000000e+00
      vertex   9.500000e+00 -1.000000e+01 0.000000e+00
      vertex   9.732362e+00 -9.942728e+00 0.000000e+00
    endloop
  endfacet
  facet normal 0.000000e+00 0.000000e+00 -1.000000e+00
    outer loop
      vertex   9.967508e+00 -9.322698e+00 0.000000e+00
      vertex   9.831561e+00 -9.125745e+00 0.000000e+00
      vertex   9.911492e+00 9.215968e+00 0.000000e+00
    endloop
  endfacet
  facet normal 0.000000e+00 0.000000e+00 -1.000000e+00
    outer loop
      vertex   9.911492e+00 9.215968e+00 0.000000e+00
      vertex   9.831561e+00 -9.125745e+00 0.000000e+00
      vertex   9.619658e+00 -9.014529e+00 0.000000e+00
    endloop
  endfacet
  facet normal 0.000000e+00 -0.000000e+00 -1.000000e+00
    outer loop
      vertex   9.732362e+00 9.057272e+00 0.000000e+00
      vertex   9.911492e+00 9.215968e+00 0.000000e+00
      vertex   9.619658e+00 -9.014529e+00 0.000000e+00
    endloop
  endfacet
  facet normal 0.000000e+00 0.000000e+00 -1.000000e+00
    outer loop
      vertex   -9.088508e+00 9.215968e+00 0.000000e+00
      vertex   9.380342e+00 9.985471e+00 0.000000e+00
      vertex   9.168439e+00 9.874255e+00 0.000000e+00
    endloop
  endfacet
  facet normal 0.000000e+00 0.000000e+00 -1.000000e+00
    outer loop
      vertex   -9.088508e+00 9.215968e+00 0.000000e+00
      vertex   9.168439e+00 9.874255e+00 0.000000e+00
      vertex   9.032492e+00 9.677302e+00 0.000000e+00
    endloop
  endfacet
  facet normal 0.000000e+00 0.000000e+00 -1.000000e+00
    outer loop
      vertex   -9.267638e+00 9.057272e+00 0.000000e+00
      vertex   -9.088508e+00 9.215968e+00 0.000000e+00
      vertex   9.032492e+00 9.677302e+00 0.000000e+00
    endloop
  endfacet
  facet normal 0.000000e+00 0.000000e+00 -1.000000e+00
    outer loop
      vertex   -9.267638e+00 9.057272e+00 0.000000e+00
      vertex   9.032492e+00 9.677302e+00 0.000000e+00
      vertex   9.003646e+00 9.439732e+00 0.000000e+00
    endloop
  endfacet
  facet normal 0.000000e+00 0.000000e+00 -1.000000e+00
    outer loop
      vertex   9.003646e+00 9.439732e+00 0.000000e+00
      vertex   -9.500000e+00 9.000000e+00 0.000000e+00
      vertex   -9.267638e+00 9.057272e+00 0.000000e+00
    endloop
  endfacet
  facet normal 1.010112e-16 -1.226498e-17 -1.000000e+00
    outer loop
      vertex   -9.967508e+00 -9.322698e+00 2.168404e-16
      vertex   -9.996354e+00 -9.560268e+00 2.168404e-16
      vertex   -1.250000e+01 -1.250000e+01 0.000000e+00
    endloop
  endfacet
  facet normal 8.562335e-17 0.000000e+00 -1.000000e+00
    outer loop
      vertex   -1.250000e+01 -1.250000e+01 0.000000e+00
      vertex   -1.250000e+01 1.250000e+01 0.000000e+00
      vertex   -9.967508e+00 -9.322698e+00 2.168404e-16
    endloop
  endfacet
  facet normal 1.232355e-17 -8.506333e-18 -1.000000e+00
    outer loop
      vertex   -1.250000e+01 1.250000e+01 0.000000e+00
      vertex   -9.831561e+00 -9.125745e+00 2.168404e-16
      vertex   -9.967508e+00 -9.322698e+00 2.168404e-16
    endloop
  endfacet
  facet normal 0.000000e+00 0.000000e+00 -1.000000e+00
    outer loop
      vertex   1.250000e+01 1.250000e+01 0.000000e+00
      vertex   -9.168439e+00 9.874255e+00 0.000000e+00
      vertex   -9.380342e+00 9.985471e+00 0.000000e+00
    endloop
  endfacet
  facet normal 0.000000e+00 0.000000e+00 -1.000000e+00
    outer loop
      vertex   -9.380342e+00 9.985471e+00 0.000000e+00
      vertex   -1.250000e+01 1.250000e+01 0.000000e+00
      vertex   1.250000e+01 1.250000e+01 0.000000e+00
    endloop
  endfacet
  facet normal 0.000000e+00 0.000000e+00 -1.000000e+00
    outer loop
      vertex   -1.250000e+01 1.250000e+01 0.000000e+00
      vertex   -9.380342e+00 9.985471e+00 0.000000e+00
      vertex   -9.619658e+00 9.985471e+00 0.000000e+00
    endloop
  endfacet
  facet normal -0.000000e+00 0.000000e+00 -1.000000e+00
    outer loop
      vertex   -9.619658e+00 9.985471e+00 0.000000e+00
      vertex   -9.831561e+00 9.874255e+00 0.000000e+00
      vertex   -1.250000e+01 1.250000e+01 0.000000e+00
    endloop
  endfacet
  facet normal 3.835032e-17 4.328856e-17 -1.000000e+00
    outer loop
      vertex   -1.250000e+01 -1.250000e+01 0.000000e+00
      vertex   -9.911492e+00 -9.784032e+00 2.168404e-16
      vertex   -9.732362e+00 -9.942728e+00 2.168404e-16
    endloop
  endfacet
  facet normal 1.649868e-17 6.693776e-17 -1.000000e+00
    outer loop
      vertex   -9.732362e+00 -9.942728e+00 2.168404e-16
      vertex   -9.500000e+00 -1.000000e+01 2.168404e-16
      vertex   -1.250000e+01 -1.250000e+01 0.000000e+00
    endloop
  endfacet
  facet normal -3.035748e-17 1.231652e-16 -1.000000e+00
    outer loop
      vertex   -1.250000e+01 -1.250000e+01 0.000000e+00
      vertex   -9.500000e+00 -1.000000e+01 2.168404e-16
      vertex   -9.267638e+00 -9.942728e+00 2.168404e-16
    endloop
  endfacet
  facet normal -1.275331e-17 2.429939e-17 -1.000000e+00
    outer loop
      vertex   -9.088508e+00 -9.784032e+00 2.168404e-16
      vertex   9.380342e+00 -9.014529e+00 0.000000e+00
      vertex   9.168439e+00 -9.125745e+00 0.000000e+00
    endloop
  endfacet
  facet normal -1.218029e-17 8.407449e-18 -1.000000e+00
    outer loop
      vertex   -9.088508e+00 -9.784032e+00 2.168404e-16
      vertex   9.168439e+00 -9.125745e+00 0.000000e+00
      vertex   9.032492e+00 -9.322698e+00 0.000000e+00
    endloop
  endfacet
  facet normal -1.232030e-17 1.390674e-17 -1.000000e+00
    outer loop
      vertex   -9.267638e+00 -9.942728e+00 2.168404e-16
      vertex   -9.088508e+00 -9.784032e+00 2.168404e-16
      vertex   9.032492e+00 -9.322698e+00 0.000000e+00
    endloop
  endfacet
  facet normal -1.189807e-17 1.444687e-18 -1.000000e+00
    outer loop
      vertex   9.032492e+00 -9.322698e+00 0.000000e+00
      vertex   9.003646e+00 -9.560268e+00 0.000000e+00
      vertex   -9.267638e+00 -9.942728e+00 2.168404e-16
    endloop
  endfacet
  facet normal -1.401352e-17 1.025066e-16 -1.000000e+00
    outer loop
      vertex   -9.267638e+00 -9.942728e+00 2.168404e-16
      vertex   9.003646e+00 -9.560268e+00 0.000000e+00
      vertex   -1.250000e+01 -1.250000e+01 0.000000e+00
    endloop
  endfacet
  facet normal 0.000000e+00 0.000000e+00 -1.000000e+00
    outer loop
      vertex   -1.250000e+01 -1.250000e+01 0.000000e+00
      vertex   9.003646e+00 -9.560268e+00 0.000000e+00
      vertex   9.088508e+00 -9.784032e+00 0.000000e+00
    endloop
  endfacet
  facet normal 0.000000e+00 0.000000e+00 -1.000000e+00
    outer loop
      vertex   -1.250000e+01 -1.250000e+01 0.000000e+00
      vertex   9.088508e+00 -9.784032e+00 0.000000e+00
      vertex   9.267638e+00 -9.942728e+00 0.000000e+00
    endloop
  endfacet
  facet normal 0.000000e+00 0.000000e+00 -1.000000e+00
    outer loop
      vertex   9.732362e+00 -9.942728e+00 0.000000e+00
      vertex   9.911492e+00 -9.784032e+00 0.000000e+00
      vertex   1.250000e+01 -1.250000e+01 0.000000e+00
    endloop
  endfacet
  facet normal 0.000000e+00 0.000000e+00 -1.000000e+00
    outer loop
      vertex   1.250000e+01 -1.250000e+01 0.000000e+00
      vertex   9.911492e+00 -9.784032e+00 0.000000e+00
      vertex   9.996354e+00 -9.560268e+00 0.000000e+00
    endloop
  endfacet
  facet normal 0.000000e+00 0.000000e+00 -1.000000e+00
    outer loop
      vertex   1.250000e+01 -1.250000e+01 0.000000e+00
      vertex   9.996354e+00 -9.560268e+00 0.000000e+00
      vertex   1.000000e+01 -9.500000e+00 0.000000e+00
    endloop
  endfacet
  facet normal 0.000000e+00 0.000000e+00 -1.000000e+00
    outer loop
      vertex   1.250000e+01 -1.250000e+01 0.000000e+00
      vertex   1.000000e+01 -9.500000e+00 0.000000e+00
      vertex   9.967508e+00 -9.322698e+00 0.000000e+00
    endloop
  endfacet
  facet normal 0.000000e+00 0.000000e+00 -1.000000e+00
    outer loop
      vertex   9.967508e+00 -9.322698e+00 0.000000e+00
      vertex   9.911492e+00 9.215968e+00 0.000000e+00
      vertex   1.250000e+01 -1.250000e+01 0.000000e+00
    endloop
  endfacet
  facet normal 0.000000e+00 -0.000000e+00 -1.000000e+00
    outer loop
      vertex   1.250000e+01 1.250000e+01 0.000000e+00
      vertex   1.250000e+01 -1.250000e+01 0.000000e+00
      vertex   9.911492e+00 9.215968e+00 0.000000e+00
    endloop
  endfacet
  facet normal 0.000000e+00 0.000000e+00 -1.000000e+00
    outer loop
      vertex   9.911492e+00 9.215968e+00 0.000000e+00
      vertex   9.996354e+00 9.439732e+00 0.000000e+00
      vertex   1.250000e+01 1.250000e+01 0.000000e+00
    endloop
  endfacet
  facet normal 0.000000e+00 0.000000e+00 -1.000000e+00
    outer loop
      vertex   1.250000e+01 1.250000e+01 0.000000e+00
      vertex   9.996354e+00 9.439732e+00 0.000000e+00
      vertex   1.000000e+01 9.500000e+00 0.000000e+00
    endloop
  endfacet
  facet normal -7.013559e-18 -4.841110e-18 -1.000000e+00
    outer loop
      vertex   -9.032492e+00 -9.322698e+00 2.168404e-16
      vertex   -9.168439e+00 -9.125745e+00 2.168404e-16
      vertex   9.088508e+00 9.215968e+00 0.000000e+00
    endloop
  endfacet
  facet normal -5.553343e-18 -6.268429e-18 -1.000000e+00
    outer loop
      vertex   9.088508e+00 9.215968e+00 0.000000e+00
      vertex   9.267638e+00 9.057272e+00 0.000000e+00
      vertex   -9.032492e+00 -9.322698e+00 2.168404e-16
    endloop
  endfacet
  facet normal -1.000723e-17 -1.833892e-18 -1.000000e+00
    outer loop
      vertex   -9.000000e+00 -9.500000e+00 2.168404e-16
      vertex   -9.032492e+00 -9.322698e+00 2.168404e-16
      vertex   9.267638e+00 9.057272e+00 0.000000e+00
    endloop
  endfacet
  facet normal -1.264735e-17 7.650236e-19 -1.000000e+00
    outer loop
      vertex   -9.003646e+00 -9.560268e+00 2.168404e-16
      vertex   -9.000000e+00 -9.500000e+00 2.168404e-16
      vertex   9.267638e+00 9.057272e+00 0.000000e+00
    endloop
  endfacet
  facet normal 0.000000e+00 0.000000e+00 -1.000000e+00
    outer loop
      vertex   9.967508e+00 9.677302e+00 0.000000e+00
      vertex   9.831561e+00 9.874255e+00 0.000000e+00
      vertex   1.250000e+01 1.250000e+01 0.000000e+00
    endloop
  endfacet
  facet normal 0.000000e+00 0.000000e+00 -1.000000e+00
    outer loop
      vertex   1.250000e+01 1.250000e+01 0.000000e+00
      vertex   9.831561e+00 9.874255e+00 0.000000e+00
      vertex   9.619658e+00 9.985471e+00 0.000000e+00
    endloop
  endfacet
  facet normal 0.000000e+00 0.000000e+00 -1.000000e+00
    outer loop
      vertex   1.250000e+01 1.250000e+01 0.000000e+00
      vertex   9.619658e+00 9.985471e+00 0.000000e+00
      vertex   9.380342e+00 9.985471e+00 0.000000e+00
    endloop
  endfacet
  facet normal 0.000000e+00 0.000000e+00 -1.000000e+00
    outer loop
      vertex   9.500000e+00 9.000000e+00 0.000000e+00
      vertex   9.732362e+00 9.057272e+00 0.000000e+00
      vertex   9.619658e+00 -9.014529e+00 0.000000e+00
    endloop
  endfacet
  facet normal 0.000000e+00 0.000000e+00 -1.000000e+00
    outer loop
      vertex   9.619658e+00 -9.014529e+00 0.000000e+00
      vertex   9.380342e+00 -9.014529e+00 0.000000e+00
      vertex   9.500000e+00 9.000000e+00 0.000000e+00
    endloop
  endfacet
  facet normal 0.000000e+00 0.000000e+00 -1.000000e+00
    outer loop
      vertex   9.267638e+00 9.057272e+00 0.000000e+00
      vertex   9.500000e+00 9.000000e+00 0.000000e+00
      vertex   9.380342e+00 -9.014529e+00 0.000000e+00
    endloop
  endfacet
  facet normal -1.173782e-17 -7.320227e-20 -1.000000e+00
    outer loop
      vertex   9.380342e+00 -9.014529e+00 0.000000e+00
      vertex   -9.088508e+00 -9.784032e+00 2.168404e-16
      vertex   9.267638e+00 9.057272e+00 0.000000e+00
    endloop
  endfacet
  facet normal -1.934248e-17 7.335634e-18 -1.000000e+00
    outer loop
      vertex   9.267638e+00 9.057272e+00 0.000000e+00
      vertex   -9.088508e+00 -9.784032e+00 2.168404e-16
      vertex   -9.003646e+00 -9.560268e+00 2.168404e-16
    endloop
  endfacet
  facet normal 0.000000e+00 0.000000e+00 -1.000000e+00
    outer loop
      vertex   -1.250000e+01 1.250000e+01 0.000000e+00
      vertex   -9.831561e+00 9.874255e+00 0.000000e+00
      vertex   -9.967508e+00 9.677302e+00 0.000000e+00
    endloop
  endfacet
  facet normal -0.000000e+00 0.000000e+00 -1.000000e+00
    outer loop
      vertex   -9.967508e+00 9.677302e+00 0.000000e+00
      vertex   -9.996354e+00 9.439732e+00 0.000000e+00
      vertex   -1.250000e+01 1.250000e+01 0.000000e+00
    endloop
  endfacet
  facet normal -1.443306e-17 -1.180788e-17 -1.000000e+00
    outer loop
      vertex   -9.831561e+00 -9.125745e+00 2.168404e-16
      vertex   -1.250000e+01 1.250000e+01 0.000000e+00
      vertex   -9.996354e+00 9.439732e+00 0.000000e+00
    endloop
  endfacet
  facet normal -3.153509e-17 -1.195968e-17 -1.000000e+00
    outer loop
      vertex   -9.996354e+00 9.439732e+00 0.000000e+00
      vertex   -9.911492e+00 9.215968e+00 0.000000e+00
      vertex   -9.831561e+00 -9.125745e+00 2.168404e-16
    endloop
  endfacet
  facet normal 6.190640e-18 -1.179528e-17 -1.000000e+00
    outer loop
      vertex   -9.619658e+00 -9.014529e+00 2.168404e-16
      vertex   -9.831561e+00 -9.125745e+00 2.168404e-16
      vertex   -9.911492e+00 9.215968e+00 0.000000e+00
    endloop
  endfacet
  facet normal -1.068909e-17 -1.206549e-17 -1.000000e+00
    outer loop
      vertex   -9.619658e+00 -9.014529e+00 2.168404e-16
      vertex   -9.911492e+00 9.215968e+00 0.000000e+00
      vertex   -9.732362e+00 9.057272e+00 0.000000e+00
    endloop
  endfacet
  facet normal -0.000000e+00 -1.199883e-17 -1.000000e+00
    outer loop
      vertex   -9.380342e+00 -9.014529e+00 2.168404e-16
      vertex   -9.619658e+00 -9.014529e+00 2.168404e-16
      vertex   -9.732362e+00 9.057272e+00 0.000000e+00
    endloop
  endfacet
  facet normal -2.971713e-18 -1.205671e-17 -1.000000e+00
    outer loop
      vertex   -9.732362e+00 9.057272e+00 0.000000e+00
      vertex   -9.500000e+00 9.000000e+00 0.000000e+00
      vertex   -9.380342e+00 -9.014529e+00 2.168404e-16
    endloop
  endfacet
  facet normal -6.339593e-18 -1.207908e-17 -1.000000e+00
    outer loop
      vertex   -9.168439e+00 -9.125745e+00 2.168404e-16
      vertex   -9.380342e+00 -9.014529e+00 2.168404e-16
      vertex   -9.500000e+00 9.000000e+00 0.000000e+00
    endloop
  endfacet
  facet normal 2.841751e-19 -1.195792e-17 -1.000000e+00
    outer loop
      vertex   -9.500000e+00 9.000000e+00 0.000000e+00
      vertex   9.003646e+00 9.439732e+00 0.000000e+00
      vertex   -9.168439e+00 -9.125745e+00 2.168404e-16
    endloop
  endfacet
  facet normal -8.600329e-18 -3.261674e-18 -1.000000e+00
    outer loop
      vertex   -9.168439e+00 -9.125745e+00 2.168404e-16
      vertex   9.003646e+00 9.439732e+00 0.000000e+00
      vertex   9.088508e+00 9.215968e+00 0.000000e+00
    endloop
  endfacet
  facet normal 0.000000e+00 0.000000e+00 -1.000000e+00
    outer loop
      vertex   9.380342e+00 9.985471e+00 0.000000e+00
      vertex   -9.088508e+00 9.215968e+00 0.000000e+00
      vertex   -9.003646e+00 9.439732e+00 0.000000e+00
    endloop
  endfacet
  facet normal 0.000000e+00 0.000000e+00 -1.000000e+00
    outer loop
      vertex   9.380342e+00 9.985471e+00 0.000000e+00
      vertex   -9.003646e+00 9.439732e+00 0.000000e+00
      vertex   -9.000000e+00 9.500000e+00 0.000000e+00
    endloop
  endfacet
  facet normal 0.000000e+00 0.000000e+00 -1.000000e+00
    outer loop
      vertex   -9.000000e+00 9.500000e+00 0.000000e+00
      vertex   1.250000e+01 1.250000e+01 0.000000e+00
      vertex   9.380342e+00 9.985471e+00 0.000000e+00
    endloop
  endfacet
  facet normal 0.000000e+00 0.000000e+00 -1.000000e+00
    outer loop
      vertex   -9.000000e+00 9.500000e+00 0.000000e+00
      vertex   -9.032492e+00 9.677302e+00 0.000000e+00
      vertex   1.250000e+01 1.250000e+01 0.000000e+00
    endloop
  endfacet
  facet normal 0.000000e+00 0.000000e+00 -1.000000e+00
    outer loop
      vertex   -9.032492e+00 9.677302e+00 0.000000e+00
      vertex   -9.168439e+00 9.874255e+00 0.000000e+00
      vertex   1.250000e+01 1.250000e+01 0.000000e+00
    endloop
  endfacet
  facet normal 0.000000e+00 -1.000000e+00 0.000000e+00
    outer loop
      vertex   1.250000e+01 -1.250000e+01 0.000000e+00
      vertex   1.250000e+01 -1.250000e+01 1.500000e+00
      vertex   -1.250000e+01 -1.250000e+01 1.500000e+00
    endloop
  endfacet
  facet normal 0.000000e+00 -1.000000e+00 0.000000e+00
    outer loop
      vertex   -1.250000e+01 -1.250000e+01 1.500000e+00
      vertex   -1.250000e+01 -1.250000e+01 0.000000e+00
      vertex   1.250000e+01 -1.250000e+01 0.000000e+00
    endloop
  endfacet
  facet normal 1.000000e+00 0.000000e+00 -0.000000e+00
    outer loop
      vertex   1.250000e+01 1.250000e+01 0.000000e+00
      vertex   1.250000e+01 1.250000e+01 1.500000e+00
      vertex   1.250000e+01 -1.250000e+01 1.500000e+00
    endloop
  endfacet
  facet normal 1.000000e+00 0.000000e+00 0.000000e+00
    outer loop
      vertex   1.250000e+01 -1.250000e+01 1.500000e+00
      vertex   1.250000e+01 -1.250000e+01 0.000000e+00
      vertex   1.250000e+01 1.250000e+01 0.000000e+00
    endloop
  endfacet
  facet normal 0.000000e+00 1.000000e+00 0.000000e+00
    outer loop
      vertex   -1.250000e+01 1.250000e+01 0.000000e+00
      vertex   -1.250000e+01 1.250000e+01 1.500000e+00
      vertex   1.250000e+01 1.250000e+01 1.500000e+00
    endloop
  endfacet
  facet normal 0.000000e+00 1.000000e+00 0.000000e+00
    outer loop
      vertex   1.250000e+01 1.250000e+01 1.500000e+00
      vertex   1.250000e+01 1.250000e+01 0.000000e+00
      vertex   -1.250000e+01 1.250000e+01 0.000000e+00
    endloop
  endfacet
  facet normal -1.000000e+00 0.000000e+00 0.000000e+00
    outer loop
      vertex   -1.250000e+01 -1.250000e+01 0.000000e+00
      vertex   -1.250000e+01 -1.250000e+01 1.500000e+00
      vertex   -1.250000e+01 1.250000e+01 1.500000e+00
    endloop
  endfacet
  facet normal -1.000000e+00 0.000000e+00 -0.000000e+00
    outer loop
      vertex   -1.250000e+01 1.250000e+01 1.500000e+00
      vertex   -1.250000e+01 1.250000e+01 0.000000e+00
      vertex   -1.250000e+01 -1.250000e+01 0.000000e+00
    endloop
  endfacet
  facet normal 2.393157e-01 9.709418e-01 7.026651e-18
    outer loop
      vertex   9.267638e+00 -9.942728e+00 1.500000e+00
      vertex   9.500000e+00 -1.000000e+01 1.500000e+00
      vertex   9.500000e+00 -1.000000e+01 0.000000e+00
    endloop
  endfacet
  facet normal 2.393157e-01 9.709418e-01 7.026651e-18
    outer loop
      vertex   9.500000e+00 -1.000000e+01 0.000000e+00
      vertex   9.267638e+00 -9.942728e+00 0.000000e+00
      vertex   9.267638e+00 -9.942728e+00 1.500000e+00
    endloop
  endfacet
  facet normal 6.631227e-01 7.485107e-01 0.000000e+00
    outer loop
      vertex   9.088508e+00 -9.784032e+00 1.500000e+00
      vertex   9.267638e+00 -9.942728e+00 1.500000e+00
      vertex   9.267638e+00 -9.942728e+00 0.000000e+00
    endloop
  endfacet
  facet normal 6.631227e-01 7.485107e-01 0.000000e+00
    outer loop
      vertex   9.267638e+00 -9.942728e+00 0.000000e+00
      vertex   9.088508e+00 -9.784032e+00 0.000000e+00
      vertex   9.088508e+00 -9.784032e+00 1.500000e+00
    endloop
  endfacet
  facet normal 9.350162e-01 3.546049e-01 -7.026651e-18
    outer loop
      vertex   9.003646e+00 -9.560268e+00 1.500000e+00
      vertex   9.088508e+00 -9.784032e+00 1.500000e+00
      vertex   9.088508e+00 -9.784032e+00 0.000000e+00
    endloop
  endfacet
  facet normal 9.350162e-01 3.546049e-01 -7.026651e-18
    outer loop
      vertex   9.088508e+00 -9.784032e+00 0.000000e+00
      vertex   9.003646e+00 -9.560268e+00 0.000000e+00
      vertex   9.003646e+00 -9.560268e+00 1.500000e+00
    endloop
  endfacet
  facet normal 9.927089e-01 -1.205367e-01 0.000000e+00
    outer loop
      vertex   9.032492e+00 -9.322698e+00 1.500000e+00
      vertex   9.003646e+00 -9.560268e+00 1.500000e+00
      vertex   9.003646e+00 -9.560268e+00 0.000000e+00
    endloop
  endfacet
  facet normal 9.927089e-01 -1.205367e-01 0.000000e+00
    outer loop
      vertex   9.003646e+00 -9.560268e+00 0.000000e+00
      vertex   9.032492e+00 -9.322698e+00 0.000000e+00
      vertex   9.032492e+00 -9.322698e+00 1.500000e+00
    endloop
  endfacet
  facet normal 8.229839e-01 -5.680647e-01 -1.405330e-17
    outer loop
      vertex   9.168439e+00 -9.125745e+00 1.500000e+00
      vertex   9.032492e+00 -9.322698e+00 1.500000e+00
      vertex   9.032492e+00 -9.322698e+00 0.000000e+00
    endloop
  endfacet
  facet normal 8.229839e-01 -5.680647e-01 -1.405330e-17
    outer loop
      vertex   9.032492e+00 -9.322698e+00 0.000000e+00
      vertex   9.168439e+00 -9.125745e+00 0.000000e+00
      vertex   9.168439e+00 -9.125745e+00 1.500000e+00
    endloop
  endfacet
  facet normal 4.647232e-01 -8.854560e-01 0.000000e+00
    outer loop
      vertex   9.380342e+00 -9.014529e+00 1.500000e+00
      vertex   9.168439e+00 -9.125745e+00 1.500000e+00
      vertex   9.168439e+00 -9.125745e+00 0.000000e+00
    endloop
  endfacet
  facet normal 4.647232e-01 -8.854560e-01 0.000000e+00
    outer loop
      vertex   9.168439e+00 -9.125745e+00 0.000000e+00
      vertex   9.380342e+00 -9.014529e+00 0.000000e+00
      vertex   9.380342e+00 -9.014529e+00 1.500000e+00
    endloop
  endfacet
  facet normal -0.000000e+00 -1.000000e+00 0.000000e+00
    outer loop
      vertex   9.619658e+00 -9.014529e+00 1.500000e+00
      vertex   9.380342e+00 -9.014529e+00 1.500000e+00
      vertex   9.380342e+00 -9.014529e+00 0.000000e+00
    endloop
  endfacet
  facet normal 0.000000e+00 -1.000000e+00 0.000000e+00
    outer loop
      vertex   9.380342e+00 -9.014529e+00 0.000000e+00
      vertex   9.619658e+00 -9.014529e+00 0.000000e+00
      vertex   9.619658e+00 -9.014529e+00 1.500000e+00
    endloop
  endfacet
  facet normal -4.647232e-01 -8.854560e-01 0.000000e+00
    outer loop
      vertex   9.831561e+00 -9.125745e+00 1.500000e+00
      vertex   9.619658e+00 -9.014529e+00 1.500000e+00
      vertex   9.619658e+00 -9.014529e+00 0.000000e+00
    endloop
  endfacet
  facet normal -4.647232e-01 -8.854560e-01 0.000000e+00
    outer loop
      vertex   9.619658e+00 -9.014529e+00 0.000000e+00
      vertex   9.831561e+00 -9.125745e+00 0.000000e+00
      vertex   9.831561e+00 -9.125745e+00 1.500000e+00
    endloop
  endfacet
  facet normal -8.229839e-01 -5.680647e-01 1.405330e-17
    outer loop
      vertex   9.967508e+00 -9.322698e+00 1.500000e+00
      vertex   9.831561e+00 -9.125745e+00 1.500000e+00
      vertex   9.831561e+00 -9.125745e+00 0.000000e+00
    endloop
  endfacet
  facet normal -8.229839e-01 -5.680647e-01 1.405330e-17
    outer loop
      vertex   9.831561e+00 -9.125745e+00 0.000000e+00
      vertex   9.967508e+00 -9.322698e+00 0.000000e+00
      vertex   9.967508e+00 -9.322698e+00 1.500000e+00
    endloop
  endfacet
  facet normal -9.836199e-01 -1.802550e-01 0.000000e+00
    outer loop
      vertex   1.000000e+01 -9.500000e+00 1.500000e+00
      vertex   9.967508e+00 -9.322698e+00 1.500000e+00
      vertex   9.967508e+00 -9.322698e+00 0.000000e+00
    endloop
  endfacet
  facet normal -9.836199e-01 -1.802550e-01 0.000000e+00
    outer loop
      vertex   9.967508e+00 -9.322698e+00 0.000000e+00
      vertex   1.000000e+01 -9.500000e+00 0.000000e+00
      vertex   1.000000e+01 -9.500000e+00 1.500000e+00
    endloop
  endfacet
  facet normal -9.981756e-01 6.037850e-02 0.000000e+00
    outer loop
      vertex   9.996354e+00 -9.560268e+00 1.500000e+00
      vertex   1.000000e+01 -9.500000e+00 1.500000e+00
      vertex   1.000000e+01 -9.500000e+00 0.000000e+00
    endloop
  endfacet
  facet normal -9.981756e-01 6.037850e-02 0.000000e+00
    outer loop
      vertex   1.000000e+01 -9.500000e+00 0.000000e+00
      vertex   9.996354e+00 -9.560268e+00 0.000000e+00
      vertex   9.996354e+00 -9.560268e+00 1.500000e+00
    endloop
  endfacet
  facet normal -9.350162e-01 3.546049e-01 7.026651e-18
    outer loop
      vertex   9.911492e+00 -9.784032e+00 1.500000e+00
      vertex   9.996354e+00 -9.560268e+00 1.500000e+00
      vertex   9.996354e+00 -9.560268e+00 0.000000e+00
    endloop
  endfacet
  facet normal -9.350162e-01 3.546049e-01 7.026651e-18
    outer loop
      vertex   9.996354e+00 -9.560268e+00 0.000000e+00
      vertex   9.911492e+00 -9.784032e+00 0.000000e+00
      vertex   9.911492e+00 -9.784032e+00 1.500000e+00
    endloop
  endfacet
  facet normal -6.631227e-01 7.485107e-01 0.000000e+00
    outer loop
      vertex   9.732362e+00 -9.942728e+00 1.500000e+00
      vertex   9.911492e+00 -9.784032e+00 1.500000e+00
      vertex   9.911492e+00 -9.784032e+00 0.000000e+00
    endloop
  endfacet
  facet normal -6.631227e-01 7.485107e-01 0.000000e+00
    outer loop
      vertex   9.911492e+00 -9.784032e+00 0.000000e+00
      vertex   9.732362e+00 -9.942728e+00 0.000000e+00
      vertex   9.732362e+00 -9.942728e+00 1.500000e+00
    endloop
  endfacet
  facet normal -2.393157e-01 9.709418e-01 -7.026651e-18
    outer loop
      vertex   9.500000e+00 -1.000000e+01 1.500000e+00
      vertex   9.732362e+00 -9.942728e+00 1.500000e+00
      vertex   9.732362e+00 -9.942728e+00 0.000000e+00
    endloop
  endfacet
  facet normal -2.393157e-01 9.709418e-01 -7.026651e-18
    outer loop
      vertex   9.732362e+00 -9.942728e+00 0.000000e+00
      vertex   9.500000e+00 -1.000000e+01 0.000000e+00
      vertex   9.500000e+00 -1.000000e+01 1.500000e+00
    endloop
  endfacet
  facet normal 2.393157e-01 9.709418e-01 7.026651e-18
    outer loop
      vertex   9.267638e+00 9.057272e+00 1.500000e+00
      vertex   9.500000e+00 9.000000e+00 1.500000e+00
      vertex   9.500000e+00 9.000000e+00 0.000000e+00
    endloop
  endfacet
  facet normal 2.393157e-01 9.709418e-01 7.026651e-18
    outer loop
      vertex   9.500000e+00 9.000000e+00 0.000000e+00
      vertex   9.267638e+00 9.057272e+00 0.000000e+00
      vertex   9.267638e+00 9.057272e+00 1.500000e+00
    endloop
  endfacet
  facet normal 6.631227e-01 7.485107e-01 0.000000e+00
    outer loop
      vertex   9.088508e+00 9.215968e+00 1.500000e+00
      vertex   9.267638e+00 9.057272e+00 1.500000e+00
      vertex   9.267638e+00 9.057272e+00 0.000000e+00
    endloop
  endfacet
  facet normal 6.631227e-01 7.485107e-01 0.000000e+00
    outer loop
      vertex   9.267638e+00 9.057272e+00 0.000000e+00
      vertex   9.088508e+00 9.215968e+00 0.000000e+00
      vertex   9.088508e+00 9.215968e+00 1.500000e+00
    endloop
  endfacet
  facet normal 9.350162e-01 3.546049e-01 -7.026651e-18
    outer loop
      vertex   9.003646e+00 9.439732e+00 1.500000e+00
      vertex   9.088508e+00 9.215968e+00 1.500000e+00
      vertex   9.088508e+00 9.215968e+00 0.000000e+00
    endloop
  endfacet
  facet normal 9.350162e-01 3.546049e-01 -7.026651e-18
    outer loop
      vertex   9.088508e+00 9.215968e+00 0.000000e+00
      vertex   9.003646e+00 9.439732e+00 0.000000e+00
      vertex   9.003646e+00 9.439732e+00 1.500000e+00
    endloop
  endfacet
  facet normal 9.927089e-01 -1.205367e-01 0.000000e+00
    outer loop
      vertex   9.032492e+00 9.677302e+00 1.500000e+00
      vertex   9.003646e+00 9.439732e+00 1.500000e+00
      vertex   9.003646e+00 9.439732e+00 0.000000e+00
    endloop
  endfacet
  facet normal 9.927089e-01 -1.205367e-01 0.000000e+00
    outer loop
      vertex   9.003646e+00 9.439732e+00 0.000000e+00
      vertex   9.032492e+00 9.677302e+00 0.000000e+00
      vertex   9.032492e+00 9.677302e+00 1.500000e+00
    endloop
  endfacet
  facet normal 8.229839e-01 -5.680647e-01 -1.405330e-17
    outer loop
      vertex   9.168439e+00 9.874255e+00 1.500000e+00
      vertex   9.032492e+00 9.677302e+00 1.500000e+00
      vertex   9.032492e+00 9.677302e+00 0.000000e+00
    endloop
  endfacet
  facet normal 8.229839e-01 -5.680647e-01 -1.405330e-17
    outer loop
      vertex   9.032492e+00 9.677302e+00 0.000000e+00
      vertex   9.168439e+00 9.874255e+00 0.000000e+00
      vertex   9.168439e+00 9.874255e+00 1.500000e+00
    endloop
  endfacet
  facet normal 4.647232e-01 -8.854560e-01 0.000000e+00
    outer loop
      vertex   9.380342e+00 9.985471e+00 1.500000e+00
      vertex   9.168439e+00 9.874255e+00 1.500000e+00
      vertex   9.168439e+00 9.874255e+00 0.000000e+00
    endloop
  endfacet
  facet normal 4.647232e-01 -8.854560e-01 0.000000e+00
    outer loop
      vertex   9.168439e+00 9.874255e+00 0.000000e+00
      vertex   9.380342e+00 9.985471e+00 0.000000e+00
      vertex   9.380342e+00 9.985471e+00 1.500000e+00
    endloop
  endfacet
  facet normal -0.000000e+00 -1.000000e+00 0.000000e+00
    outer loop
      vertex   9.619658e+00 9.985471e+00 1.500000e+00
      vertex   9.380342e+00 9.985471e+00 1.500000e+00
      vertex   9.380342e+00 9.985471e+00 0.000000e+00
    endloop
  endfacet
  facet normal 0.000000e+00 -1.000000e+00 0.000000e+00
    outer loop
      vertex   9.380342e+00 9.985471e+00 0.000000e+00
      vertex   9.619658e+00 9.985471e+00 0.000000e+00
      vertex   9.619658e+00 9.985471e+00 1.500000e+00
    endloop
  endfacet
  facet normal -4.647232e-01 -8.854560e-01 0.000000e+00
    outer loop
      vertex   9.831561e+00 9.874255e+00 1.500000e+00
      vertex   9.619658e+00 9.985471e+00 1.500000e+00
      vertex   9.619658e+00 9.985471e+00 0.000000e+00
    endloop
  endfacet
  facet normal -4.647232e-01 -8.854560e-01 0.000000e+00
    outer loop
      vertex   9.619658e+00 9.985471e+00 0.000000e+00
      vertex   9.831561e+00 9.874255e+00 0.000000e+00
      vertex   9.831561e+00 9.874255e+00 1.500000e+00
    endloop
  endfacet
  facet normal -8.229839e-01 -5.680647e-01 1.405330e-17
    outer loop
      vertex   9.967508e+00 9.677302e+00 1.500000e+00
      vertex   9.831561e+00 9.874255e+00 1.500000e+00
      vertex   9.831561e+00 9.874255e+00 0.000000e+00
    endloop
  endfacet
  facet normal -8.229839e-01 -5.680647e-01 1.405330e-17
    outer loop
      vertex   9.831561e+00 9.874255e+00 0.000000e+00
      vertex   9.967508e+00 9.677302e+00 0.000000e+00
      vertex   9.967508e+00 9.677302e+00 1.500000e+00
    endloop
  endfacet
  facet normal -9.836199e-01 -1.802550e-01 0.000000e+00
    outer loop
      vertex   1.000000e+01 9.500000e+00 1.500000e+00
      vertex   9.967508e+00 9.677302e+00 1.500000e+00
      vertex   9.967508e+00 9.677302e+00 0.000000e+00
    endloop
  endfacet
  facet normal -9.836199e-01 -1.802550e-01 0.000000e+00
    outer loop
      vertex   9.967508e+00 9.677302e+00 0.000000e+00
      vertex   1.000000e+01 9.500000e+00 0.000000e+00
      vertex   1.000000e+01 9.500000e+00 1.500000e+00
    endloop
  endfacet
  facet normal -9.981756e-01 6.037850e-02 0.000000e+00
    outer loop
      vertex   9.996354e+00 9.439732e+00 1.500000e+00
      vertex   1.000000e+01 9.500000e+00 1.500000e+00
      vertex   1.000000e+01 9.500000e+00 0.000000e+00
    endloop
  endfacet
  facet normal -9.981756e-01 6.037850e-02 0.000000e+00
    outer loop
      vertex   1.000000e+01 9.500000e+00 0.000000e+00
      vertex   9.996354e+00 9.439732e+00 0.000000e+00
      vertex   9.996354e+00 9.439732e+00 1.500000e+00
    endloop
  endfacet
  facet normal -9.350162e-01 3.546049e-01 7.026651e-18
    outer loop
      vertex   9.911492e+00 9.215968e+00 1.500000e+00
      vertex   9.996354e+00 9.439732e+00 1.500000e+00
      vertex   9.996354e+00 9.439732e+00 0.000000e+00
    endloop
  endfacet
  facet normal -9.350162e-01 3.546049e-01 7.026651e-18
    outer loop
      vertex   9.996354e+00 9.439732e+00 0.000000e+00
      vertex   9.911492e+00 9.215968e+00 0.000000e+00
      vertex   9.911492e+00 9.215968e+00 1.500000e+00
    endloop
  endfacet
  facet normal -6.631227e-01 7.485107e-01 0.000000e+00
    outer loop
      vertex   9.732362e+00 9.057272e+00 1.500000e+00
      vertex   9.911492e+00 9.215968e+00 1.500000e+00
      vertex   9.911492e+00 9.215968e+00 0.000000e+00
    endloop
  endfacet
  facet normal -6.631227e-01 7.485107e-01 0.000000e+00
    outer loop
      vertex   9.911492e+00 9.215968e+00 0.000000e+00
      vertex   9.732362e+00 9.057272e+00 0.000000e+00
      vertex   9.732362e+00 9.057272e+00 1.500000e+00
    endloop
  endfacet
  facet normal -2.393157e-01 9.709418e-01 -7.026651e-18
    outer loop
      vertex   9.500000e+00 9.000000e+00 1.500000e+00
      vertex   9.732362e+00 9.057272e+00 1.500000e+00
      vertex   9.732362e+00 9.057272e+00 0.000000e+00
    endloop
  endfacet
  facet normal -2.393157e-01 9.709418e-01 -7.026651e-18
    outer loop
      vertex   9.732362e+00 9.057272e+00 0.000000e+00
      vertex   9.500000e+00 9.000000e+00 0.000000e+00
      vertex   9.500000e+00 9.000000e+00 1.500000e+00
    endloop
  endfacet
  facet normal 2.393157e-01 9.709418e-01 7.026651e-18
    outer loop
      vertex   -9.732362e+00 9.057272e+00 1.500000e+00
      vertex   -9.500000e+00 9.000000e+00 1.500000e+00
      vertex   -9.500000e+00 9.000000e+00 0.000000e+00
    endloop
  endfacet
  facet normal 2.393157e-01 9.709418e-01 7.026651e-18
    outer loop
      vertex   -9.500000e+00 9.000000e+00 0.000000e+00
      vertex   -9.732362e+00 9.057272e+00 0.000000e+00
      vertex   -9.732362e+00 9.057272e+00 1.500000e+00
    endloop
  endfacet
  facet normal 6.631227e-01 7.485107e-01 0.000000e+00
    outer loop
      vertex   -9.911492e+00 9.215968e+00 1.500000e+00
      vertex   -9.732362e+00 9.057272e+00 1.500000e+00
      vertex   -9.732362e+00 9.057272e+00 0.000000e+00
    endloop
  endfacet
  facet normal 6.631227e-01 7.485107e-01 0.000000e+00
    outer loop
      vertex   -9.732362e+00 9.057272e+00 0.000000e+00
      vertex   -9.911492e+00 9.215968e+00 0.000000e+00
      vertex   -9.911492e+00 9.215968e+00 1.500000e+00
    endloop
  endfacet
  facet normal 9.350162e-01 3.546049e-01 -7.026651e-18
    outer loop
      vertex   -9.996354e+00 9.439732e+00 1.500000e+00
      vertex   -9.911492e+00 9.215968e+00 1.500000e+00
      vertex   -9.911492e+00 9.215968e+00 0.000000e+00
    endloop
  endfacet
  facet normal 9.350162e-01 3.546049e-01 -7.026651e-18
    outer loop
      vertex   -9.911492e+00 9.215968e+00 0.000000e+00
      vertex   -9.996354e+00 9.439732e+00 0.000000e+00
      vertex   -9.996354e+00 9.439732e+00 1.500000e+00
    endloop
  endfacet
  facet normal 9.927089e-01 -1.205367e-01 0.000000e+00
    outer loop
      vertex   -9.967508e+00 9.677302e+00 1.500000e+00
      vertex   -9.996354e+00 9.439732e+00 1.500000e+00
      vertex   -9.996354e+00 9.439732e+00 0.000000e+00
    endloop
  endfacet
  facet normal 9.927089e-01 -1.205367e-01 0.000000e+00
    outer loop
      vertex   -9.996354e+00 9.439732e+00 0.000000e+00
      vertex   -9.967508e+00 9.677302e+00 0.000000e+00
      vertex   -9.967508e+00 9.677302e+00 1.500000e+00
    endloop
  endfacet
  facet normal 8.229839e-01 -5.680647e-01 -1.405330e-17
    outer loop
      vertex   -9.831561e+00 9.874255e+00 1.500000e+00
      vertex   -9.967508e+00 9.677302e+00 1.500000e+00
      vertex   -9.967508e+00 9.677302e+00 0.000000e+00
    endloop
  endfacet
  facet normal 8.229839e-01 -5.680647e-01 -1.405330e-17
    outer loop
      vertex   -9.967508e+00 9.677302e+00 0.000000e+00
      vertex   -9.831561e+00 9.874255e+00 0.000000e+00
      vertex   -9.831561e+00 9.874255e+00 1.500000e+00
    endloop
  endfacet
  facet normal 4.647232e-01 -8.854560e-01 0.000000e+00
    outer loop
      vertex   -9.619658e+00 9.985471e+00 1.500000e+00
      vertex   -9.831561e+00 9.874255e+00 1.500000e+00
      vertex   -9.831561e+00 9.874255e+00 0.000000e+00
    endloop
  endfacet
  facet normal 4.647232e-01 -8.854560e-01 0.000000e+00
    outer loop
      vertex   -9.831561e+00 9.874255e+00 0.000000e+00
      vertex   -9.619658e+00 9.985471e+00 0.000000e+00
      vertex   -9.619658e+00 9.985471e+00 1.500000e+00
    endloop
  endfacet
  facet normal -0.000000e+00 -1.000000e+00 0.000000e+00
    outer loop
      vertex   -9.380342e+00 9.985471e+00 1.500000e+00
      vertex   -9.619658e+00 9.985471e+00 1.500000e+00
      vertex   -9.619658e+00 9.985471e+00 0.000000e+00
    endloop
  endfacet
  facet normal 0.000000e+00 -1.000000e+00 0.000000e+00
    outer loop
      vertex   -9.619658e+00 9.985471e+00 0.000000e+00
      vertex   -9.380342e+00 9.985471e+00 0.000000e+00
      vertex   -9.380342e+00 9.985471e+00 1.500000e+00
    endloop
  endfacet
  facet normal -4.647232e-01 -8.854560e-01 0.000000e+00
    outer loop
      vertex   -9.168439e+00 9.874255e+00 1.500000e+00
      vertex   -9.380342e+00 9.985471e+00 1.500000e+00
      vertex   -9.380342e+00 9.985471e+00 0.000000e+00
    endloop
  endfacet
  facet normal -4.647232e-01 -8.854560e-01 0.000000e+00
    outer loop
      vertex   -9.380342e+00 9.985471e+00 0.000000e+00
      vertex   -9.168439e+00 9.874255e+00 0.000000e+00
      vertex   -9.168439e+00 9.874255e+00 1.500000e+00
    endloop
  endfacet
  facet normal -8.229839e-01 -5.680647e-01 1.405330e-17
    outer loop
      vertex   -9.032492e+00 9.677302e+00 1.500000e+00
      vertex   -9.168439e+00 9.874255e+00 1.500000e+00
      vertex   -9.168439e+00 9.874255e+00 0.000000e+00
    endloop
  endfacet
  facet normal -8.229839e-01 -5.680647e-01 1.405330e-17
    outer loop
      vertex   -9.168439e+00 9.874255e+00 0.000000e+00
      vertex   -9.032492e+00 9.677302e+00 0.000000e+00
      vertex   -9.032492e+00 9.677302e+00 1.500000e+00
    endloop
  endfacet
  facet normal -9.836199e-01 -1.802550e-01 0.000000e+00
    outer loop
      vertex   -9.000000e+00 9.500000e+00 1.500000e+00
      vertex   -9.032492e+00 9.677302e+00 1.500000e+00
      vertex   -9.032492e+00 9.677302e+00 0.000000e+00
    endloop
  endfacet
  facet normal -9.836199e-01 -1.802550e-01 0.000000e+00
    outer loop
      vertex   -9.032492e+00 9.677302e+00 0.000000e+00
      vertex   -9.000000e+00 9.500000e+00 0.000000e+00
      vertex   -9.000000e+00 9.500000e+00 1.500000e+00
    endloop
  endfacet
  facet normal -9.981756e-01 6.037850e-02 0.000000e+00
    outer loop
      vertex   -9.003646e+00 9.439732e+00 1.500000e+00
      vertex   -9.000000e+00 9.500000e+00 1.500000e+00
      vertex   -9.000000e+00 9.500000e+00 0.000000e+00
    endloop
  endfacet
  facet normal -9.981756e-01 6.037850e-02 0.000000e+00
    outer loop
      vertex   -9.000000e+00 9.500000e+00 0.000000e+00
      vertex   -9.003646e+00 9.439732e+00 0.000000e+00
      vertex   -9.003646e+00 9.439732e+00 1.500000e+00
    endloop
  endfacet
  facet normal -9.350162e-01 3.546049e-01 7.026651e-18
    outer loop
      vertex   -9.088508e+00 9.215968e+00 1.500000e+00
      vertex   -9.003646e+00 9.439732e+00 1.500000e+00
      vertex   -9.003646e+00 9.439732e+00 0.000000e+00
    endloop
  endfacet
  facet normal -9.350162e-01 3.546049e-01 7.026651e-18
    outer loop
      vertex   -9.003646e+00 9.439732e+00 0.000000e+00
      vertex   -9.088508e+00 9.215968e+00 0.000000e+00
      vertex   -9.088508e+00 9.215968e+00 1.500000e+00
    endloop
  endfacet
  facet normal -6.631227e-01 7.485107e-01 0.000000e+00
    outer loop
      vertex   -9.267638e+00 9.057272e+00 1.500000e+00
      vertex   -9.088508e+00 9.215968e+00 1.500000e+00
      vertex   -9.088508e+00 9.215968e+00 0.000000e+00
    endloop
  endfacet
  facet normal -6.631227e-01 7.485107e-01 0.000000e+00
    outer loop
      vertex   -9.088508e+00 9.215968e+00 0.000000e+00
      vertex   -9.267638e+00 9.057272e+00 0.000000e+00
      vertex   -9.267638e+00 9.057272e+00 1.500000e+00
    endloop
  endfacet
  facet normal -2.393157e-01 9.709418e-01 -7.026651e-18
    outer loop
      vertex   -9.500000e+00 9.000000e+00 1.500000e+00
      vertex   -9.267638e+00 9.057272e+00 1.500000e+00
      vertex   -9.267638e+00 9.057272e+00 0.000000e+00
    endloop
  endfacet
  facet normal -2.393157e-01 9.709418e-01 -7.026651e-18
    outer loop
      vertex   -9.267638e+00 9.057272e+00 0.000000e+00
      vertex   -9.500000e+00 9.000000e+00 0.000000e+00
      vertex   -9.500000e+00 9.000000e+00 1.500000e+00
    endloop
  endfacet
endsolid
