solid ascii
  facet normal -3.469447e-15 1.000000e+00 0.000000e+00
    outer loop
      vertex   5.500000e+00 1.875000e+01 -1.250000e+01
      vertex   5.500000e+00 1.875000e+01 1.250000e+01
      vertex   6.500000e+00 1.875000e+01 1.250000e+01
    endloop
  endfacet
  facet normal -3.469447e-15 1.000000e+00 0.000000e+00
    outer loop
      vertex   6.500000e+00 1.875000e+01 1.250000e+01
      vertex   6.500000e+00 1.875000e+01 -1.250000e+01
      vertex   5.500000e+00 1.875000e+01 -1.250000e+01
    endloop
  endfacet
  facet normal 1.000000e+00 0.000000e+00 -0.000000e+00
    outer loop
      vertex   6.500000e+00 1.875000e+01 -1.250000e+01
      vertex   6.500000e+00 1.875000e+01 1.250000e+01
      vertex   6.500000e+00 -1.125000e+01 1.250000e+01
    endloop
  endfacet
  facet normal 1.000000e+00 0.000000e+00 0.000000e+00
    outer loop
      vertex   6.500000e+00 -1.125000e+01 1.250000e+01
      vertex   6.500000e+00 -1.125000e+01 -1.250000e+01
      vertex   6.500000e+00 1.875000e+01 -1.250000e+01
    endloop
  endfacet
  facet normal 0.000000e+00 1.000000e+00 0.000000e+00
    outer loop
      vertex   1.150000e+01 -1.125000e+01 1.250000e+01
      vertex   1.150000e+01 -1.125000e+01 -1.250000e+01
      vertex   6.500000e+00 -1.125000e+01 -1.250000e+01
    endloop
  endfacet
  facet normal 0.000000e+00 1.000000e+00 0.000000e+00
    outer loop
      vertex   6.500000e+00 -1.125000e+01 -1.250000e+01
      vertex   6.500000e+00 -1.125000e+01 1.250000e+01
      vertex   1.150000e+01 -1.125000e+01 1.250000e+01
    endloop
  endfacet
  facet normal -1.000000e+00 0.000000e+00 -0.000000e+00
    outer loop
      vertex   1.150000e+01 1.875000e+01 1.250000e+01
      vertex   1.150000e+01 1.875000e+01 -1.250000e+01
      vertex   1.150000e+01 -1.125000e+01 -1.250000e+01
    endloop
  endfacet
  facet normal -1.000000e+00 0.000000e+00 0.000000e+00
    outer loop
      vertex   1.150000e+01 -1.125000e+01 -1.250000e+01
      vertex   1.150000e+01 -1.125000e+01 1.250000e+01
      vertex   1.150000e+01 1.875000e+01 1.250000e+01
    endloop
  endfacet
  facet normal 0.000000e+00 1.000000e+00 0.000000e+00
    outer loop
      vertex   1.250000e+01 1.875000e+01 -1.250000e+01
      vertex   1.150000e+01 1.875000e+01 -1.250000e+01
      vertex   1.150000e+01 1.875000e+01 1.250000e+01
    endloop
  endfacet
  facet normal -0.000000e+00 1.000000e+00 0.000000e+00
    outer loop
      vertex   1.150000e+01 1.875000e+01 1.250000e+01
      vertex   1.250000e+01 1.875000e+01 1.250000e+01
      vertex   1.250000e+01 1.875000e+01 -1.250000e+01
    endloop
  endfacet
  facet normal 1.000000e+00 0.000000e+00 -0.000000e+00
    outer loop
      vertex   1.250000e+01 1.875000e+01 -1.250000e+01
      vertex   1.250000e+01 1.875000e+01 1.250000e+01
      vertex   1.250000e+01 -1.125000e+01 1.250000e+01
    endloop
  endfacet
  facet normal 1.000000e+00 0.000000e+00 0.000000e+00
    outer loop
      vertex   1.250000e+01 -1.125000e+01 1.250000e+01
      vertex   1.250000e+01 -1.125000e+01 -1.250000e+01
      vertex   1.250000e+01 1.875000e+01 -1.250000e+01
    endloop
  endfacet
  facet normal 0.000000e+00 1.000000e+00 0.000000e+00
    outer loop
      vertex   1.750000e+01 -1.125000e+01 1.250000e+01
      vertex   1.750000e+01 -1.125000e+01 -1.250000e+01
      vertex   1.250000e+01 -1.125000e+01 -1.250000e+01
    endloop
  endfacet
  facet normal 0.000000e+00 1.000000e+00 0.000000e+00
    outer loop
      vertex   1.250000e+01 -1.125000e+01 -1.250000e+01
      vertex   1.250000e+01 -1.125000e+01 1.250000e+01
      vertex   1.750000e+01 -1.125000e+01 1.250000e+01
    endloop
  endfacet
  facet normal -1.000000e+00 0.000000e+00 -0.000000e+00
    outer loop
      vertex   1.750000e+01 1.875000e+01 1.250000e+01
      vertex   1.750000e+01 1.875000e+01 -1.250000e+01
      vertex   1.750000e+01 -1.125000e+01 -1.250000e+01
    endloop
  endfacet
  facet normal -1.000000e+00 0.000000e+00 0.000000e+00
    outer loop
      vertex   1.750000e+01 -1.125000e+01 -1.250000e+01
      vertex   1.750000e+01 -1.125000e+01 1.250000e+01
      vertex   1.750000e+01 1.875000e+01 1.250000e+01
    endloop
  endfacet
  facet normal 0.000000e+00 1.000000e+00 0.000000e+00
    outer loop
      vertex   1.850000e+01 1.875000e+01 -1.250000e+01
      vertex   1.750000e+01 1.875000e+01 -1.250000e+01
      vertex   1.750000e+01 1.875000e+01 1.250000e+01
    endloop
  endfacet
  facet normal 3.469447e-15 1.000000e+00 1.387779e-16
    outer loop
      vertex   1.750000e+01 1.875000e+01 1.250000e+01
      vertex   1.850000e+01 1.875000e+01 1.250000e+01
      vertex   1.850000e+01 1.875000e+01 -1.250000e+01
    endloop
  endfacet
  facet normal 1.000000e+00 0.000000e+00 0.000000e+00
    outer loop
      vertex   1.850000e+01 1.875000e+01 -1.250000e+01
      vertex   1.850000e+01 1.875000e+01 1.250000e+01
      vertex   1.850000e+01 -1.125000e+01 1.250000e+01
    endloop
  endfacet
  facet normal 1.000000e+00 0.000000e+00 0.000000e+00
    outer loop
      vertex   1.850000e+01 -1.125000e+01 1.250000e+01
      vertex   1.850000e+01 -1.125000e+01 -1.250000e+01
      vertex   1.850000e+01 1.875000e+01 -1.250000e+01
    endloop
  endfacet
  facet normal 0.000000e+00 1.000000e+00 0.000000e+00
    outer loop
      vertex   2.350000e+01 -1.125000e+01 1.250000e+01
      vertex   2.350000e+01 -1.125000e+01 -1.250000e+01
      vertex   1.850000e+01 -1.125000e+01 -1.250000e+01
    endloop
  endfacet
  facet normal 0.000000e+00 1.000000e+00 0.000000e+00
    outer loop
      vertex   1.850000e+01 -1.125000e+01 -1.250000e+01
      vertex   1.850000e+01 -1.125000e+01 1.250000e+01
      vertex   2.350000e+01 -1.125000e+01 1.250000e+01
    endloop
  endfacet
  facet normal -1.000000e+00 0.000000e+00 -0.000000e+00
    outer loop
      vertex   2.350000e+01 1.875000e+01 1.250000e+01
      vertex   2.350000e+01 1.875000e+01 -1.250000e+01
      vertex   2.350000e+01 -1.125000e+01 -1.250000e+01
    endloop
  endfacet
  facet normal -1.000000e+00 0.000000e+00 0.000000e+00
    outer loop
      vertex   2.350000e+01 -1.125000e+01 -1.250000e+01
      vertex   2.350000e+01 -1.125000e+01 1.250000e+01
      vertex   2.350000e+01 1.875000e+01 1.250000e+01
    endloop
  endfacet
  facet normal 0.000000e+00 1.000000e+00 1.387779e-16
    outer loop
      vertex   2.550000e+01 1.875000e+01 -1.250000e+01
      vertex   2.350000e+01 1.875000e+01 -1.250000e+01
      vertex   2.350000e+01 1.875000e+01 1.250000e+01
    endloop
  endfacet
  facet normal -0.000000e+00 1.000000e+00 1.387779e-16
    outer loop
      vertex   2.350000e+01 1.875000e+01 1.250000e+01
      vertex   2.550000e+01 1.875000e+01 1.250000e+01
      vertex   2.550000e+01 1.875000e+01 -1.250000e+01
    endloop
  endfacet
  facet normal 1.000000e+00 0.000000e+00 0.000000e+00
    outer loop
      vertex   2.550000e+01 1.875000e+01 -1.250000e+01
      vertex   2.550000e+01 1.875000e+01 1.250000e+01
      vertex   2.550000e+01 -2.125000e+01 1.250000e+01
    endloop
  endfacet
  facet normal 1.000000e+00 0.000000e+00 0.000000e+00
    outer loop
      vertex   2.550000e+01 -2.125000e+01 1.250000e+01
      vertex   2.550000e+01 -2.125000e+01 -1.250000e+01
      vertex   2.550000e+01 1.875000e+01 -1.250000e+01
    endloop
  endfacet
  facet normal 6.802837e-17 -1.000000e+00 0.000000e+00
    outer loop
      vertex   2.550000e+01 -2.125000e+01 -1.250000e+01
      vertex   2.550000e+01 -2.125000e+01 1.250000e+01
      vertex   -2.550000e+01 -2.125000e+01 1.250000e+01
    endloop
  endfacet
  facet normal 6.802837e-17 -1.000000e+00 0.000000e+00
    outer loop
      vertex   -2.550000e+01 -2.125000e+01 1.250000e+01
      vertex   -2.550000e+01 -2.125000e+01 -1.250000e+01
      vertex   2.550000e+01 -2.125000e+01 -1.250000e+01
    endloop
  endfacet
  facet normal -1.000000e+00 0.000000e+00 -0.000000e+00
    outer loop
      vertex   -2.550000e+01 1.875000e+01 1.250000e+01
      vertex   -2.550000e+01 1.875000e+01 -1.250000e+01
      vertex   -2.550000e+01 -2.125000e+01 -1.250000e+01
    endloop
  endfacet
  facet normal -1.000000e+00 0.000000e+00 0.000000e+00
    outer loop
      vertex   -2.550000e+01 -2.125000e+01 -1.250000e+01
      vertex   -2.550000e+01 -2.125000e+01 1.250000e+01
      vertex   -2.550000e+01 1.875000e+01 1.250000e+01
    endloop
  endfacet
  facet normal 1.734723e-15 1.000000e+00 1.387779e-16
    outer loop
      vertex   -2.350000e+01 1.875000e+01 -1.250000e+01
      vertex   -2.550000e+01 1.875000e+01 -1.250000e+01
      vertex   -2.550000e+01 1.875000e+01 1.250000e+01
    endloop
  endfacet
  facet normal -0.000000e+00 1.000000e+00 0.000000e+00
    outer loop
      vertex   -2.550000e+01 1.875000e+01 1.250000e+01
      vertex   -2.350000e+01 1.875000e+01 1.250000e+01
      vertex   -2.350000e+01 1.875000e+01 -1.250000e+01
    endloop
  endfacet
  facet normal 1.000000e+00 0.000000e+00 -0.000000e+00
    outer loop
      vertex   -2.350000e+01 1.875000e+01 -1.250000e+01
      vertex   -2.350000e+01 1.875000e+01 1.250000e+01
      vertex   -2.350000e+01 -1.125000e+01 1.250000e+01
    endloop
  endfacet
  facet normal 1.000000e+00 0.000000e+00 0.000000e+00
    outer loop
      vertex   -2.350000e+01 -1.125000e+01 1.250000e+01
      vertex   -2.350000e+01 -1.125000e+01 -1.250000e+01
      vertex   -2.350000e+01 1.875000e+01 -1.250000e+01
    endloop
  endfacet
  facet normal 0.000000e+00 1.000000e+00 0.000000e+00
    outer loop
      vertex   -1.850000e+01 -1.125000e+01 -1.250000e+01
      vertex   -2.350000e+01 -1.125000e+01 -1.250000e+01
      vertex   -2.350000e+01 -1.125000e+01 1.250000e+01
    endloop
  endfacet
  facet normal -0.000000e+00 1.000000e+00 0.000000e+00
    outer loop
      vertex   -2.350000e+01 -1.125000e+01 1.250000e+01
      vertex   -1.850000e+01 -1.125000e+01 1.250000e+01
      vertex   -1.850000e+01 -1.125000e+01 -1.250000e+01
    endloop
  endfacet
  facet normal -1.000000e+00 0.000000e+00 -0.000000e+00
    outer loop
      vertex   -1.850000e+01 1.875000e+01 1.250000e+01
      vertex   -1.850000e+01 1.875000e+01 -1.250000e+01
      vertex   -1.850000e+01 -1.125000e+01 -1.250000e+01
    endloop
  endfacet
  facet normal -1.000000e+00 0.000000e+00 0.000000e+00
    outer loop
      vertex   -1.850000e+01 -1.125000e+01 -1.250000e+01
      vertex   -1.850000e+01 -1.125000e+01 1.250000e+01
      vertex   -1.850000e+01 1.875000e+01 1.250000e+01
    endloop
  endfacet
  facet normal 3.469447e-15 1.000000e+00 1.387779e-16
    outer loop
      vertex   -1.750000e+01 1.875000e+01 -1.250000e+01
      vertex   -1.850000e+01 1.875000e+01 -1.250000e+01
      vertex   -1.850000e+01 1.875000e+01 1.250000e+01
    endloop
  endfacet
  facet normal -0.000000e+00 1.000000e+00 0.000000e+00
    outer loop
      vertex   -1.850000e+01 1.875000e+01 1.250000e+01
      vertex   -1.750000e+01 1.875000e+01 1.250000e+01
      vertex   -1.750000e+01 1.875000e+01 -1.250000e+01
    endloop
  endfacet
  facet normal 1.000000e+00 0.000000e+00 -0.000000e+00
    outer loop
      vertex   -1.750000e+01 1.875000e+01 -1.250000e+01
      vertex   -1.750000e+01 1.875000e+01 1.250000e+01
      vertex   -1.750000e+01 -1.125000e+01 1.250000e+01
    endloop
  endfacet
  facet normal 1.000000e+00 0.000000e+00 0.000000e+00
    outer loop
      vertex   -1.750000e+01 -1.125000e+01 1.250000e+01
      vertex   -1.750000e+01 -1.125000e+01 -1.250000e+01
      vertex   -1.750000e+01 1.875000e+01 -1.250000e+01
    endloop
  endfacet
  facet normal 0.000000e+00 1.000000e+00 0.000000e+00
    outer loop
      vertex   -1.250000e+01 -1.125000e+01 1.250000e+01
      vertex   -1.250000e+01 -1.125000e+01 -1.250000e+01
      vertex   -1.750000e+01 -1.125000e+01 -1.250000e+01
    endloop
  endfacet
  facet normal 0.000000e+00 1.000000e+00 0.000000e+00
    outer loop
      vertex   -1.750000e+01 -1.125000e+01 -1.250000e+01
      vertex   -1.750000e+01 -1.125000e+01 1.250000e+01
      vertex   -1.250000e+01 -1.125000e+01 1.250000e+01
    endloop
  endfacet
  facet normal -1.000000e+00 0.000000e+00 -0.000000e+00
    outer loop
      vertex   -1.250000e+01 1.875000e+01 1.250000e+01
      vertex   -1.250000e+01 1.875000e+01 -1.250000e+01
      vertex   -1.250000e+01 -1.125000e+01 -1.250000e+01
    endloop
  endfacet
  facet normal -1.000000e+00 0.000000e+00 0.000000e+00
    outer loop
      vertex   -1.250000e+01 -1.125000e+01 -1.250000e+01
      vertex   -1.250000e+01 -1.125000e+01 1.250000e+01
      vertex   -1.250000e+01 1.875000e+01 1.250000e+01
    endloop
  endfacet
  facet normal 0.000000e+00 1.000000e+00 0.000000e+00
    outer loop
      vertex   -1.150000e+01 1.875000e+01 -1.250000e+01
      vertex   -1.250000e+01 1.875000e+01 -1.250000e+01
      vertex   -1.250000e+01 1.875000e+01 1.250000e+01
    endloop
  endfacet
  facet normal -0.000000e+00 1.000000e+00 0.000000e+00
    outer loop
      vertex   -1.250000e+01 1.875000e+01 1.250000e+01
      vertex   -1.150000e+01 1.875000e+01 1.250000e+01
      vertex   -1.150000e+01 1.875000e+01 -1.250000e+01
    endloop
  endfacet
  facet normal 1.000000e+00 5.782412e-17 6.938894e-17
    outer loop
      vertex   -1.150000e+01 1.875000e+01 -1.250000e+01
      vertex   -1.150000e+01 1.875000e+01 1.250000e+01
      vertex   -1.150000e+01 -1.125000e+01 1.250000e+01
    endloop
  endfacet
  facet normal 1.000000e+00 0.000000e+00 0.000000e+00
    outer loop
      vertex   -1.150000e+01 -1.125000e+01 1.250000e+01
      vertex   -1.150000e+01 -1.125000e+01 -1.250000e+01
      vertex   -1.150000e+01 1.875000e+01 -1.250000e+01
    endloop
  endfacet
  facet normal 0.000000e+00 1.000000e+00 0.000000e+00
    outer loop
      vertex   -6.500000e+00 -1.125000e+01 1.250000e+01
      vertex   -6.500000e+00 -1.125000e+01 -1.250000e+01
      vertex   -1.150000e+01 -1.125000e+01 -1.250000e+01
    endloop
  endfacet
  facet normal 0.000000e+00 1.000000e+00 0.000000e+00
    outer loop
      vertex   -1.150000e+01 -1.125000e+01 -1.250000e+01
      vertex   -1.150000e+01 -1.125000e+01 1.250000e+01
      vertex   -6.500000e+00 -1.125000e+01 1.250000e+01
    endloop
  endfacet
  facet normal -1.000000e+00 0.000000e+00 -0.000000e+00
    outer loop
      vertex   -6.500000e+00 1.875000e+01 1.250000e+01
      vertex   -6.500000e+00 1.875000e+01 -1.250000e+01
      vertex   -6.500000e+00 -1.125000e+01 -1.250000e+01
    endloop
  endfacet
  facet normal -1.000000e+00 0.000000e+00 0.000000e+00
    outer loop
      vertex   -6.500000e+00 -1.125000e+01 -1.250000e+01
      vertex   -6.500000e+00 -1.125000e+01 1.250000e+01
      vertex   -6.500000e+00 1.875000e+01 1.250000e+01
    endloop
  endfacet
  facet normal 0.000000e+00 1.000000e+00 0.000000e+00
    outer loop
      vertex   -5.500000e+00 1.875000e+01 -1.250000e+01
      vertex   -6.500000e+00 1.875000e+01 -1.250000e+01
      vertex   -6.500000e+00 1.875000e+01 1.250000e+01
    endloop
  endfacet
  facet normal 3.469447e-15 1.000000e+00 1.387779e-16
    outer loop
      vertex   -6.500000e+00 1.875000e+01 1.250000e+01
      vertex   -5.500000e+00 1.875000e+01 1.250000e+01
      vertex   -5.500000e+00 1.875000e+01 -1.250000e+01
    endloop
  endfacet
  facet normal 1.000000e+00 -5.782412e-17 -6.938894e-17
    outer loop
      vertex   -5.500000e+00 1.875000e+01 1.250000e+01
      vertex   -5.500000e+00 -1.125000e+01 1.250000e+01
      vertex   -5.500000e+00 -1.125000e+01 -1.250000e+01
    endloop
  endfacet
  facet normal 1.000000e+00 -1.445603e-16 3.469447e-17
    outer loop
      vertex   -5.500000e+00 -1.125000e+01 -1.250000e+01
      vertex   -5.500000e+00 1.875000e+01 -1.250000e+01
      vertex   -5.500000e+00 1.875000e+01 1.250000e+01
    endloop
  endfacet
  facet normal -0.000000e+00 1.000000e+00 0.000000e+00
    outer loop
      vertex   -5.500000e+00 -1.125000e+01 1.250000e+01
      vertex   -5.000000e-01 -1.125000e+01 1.250000e+01
      vertex   -5.000000e-01 -1.125000e+01 -1.250000e+01
    endloop
  endfacet
  facet normal 0.000000e+00 1.000000e+00 0.000000e+00
    outer loop
      vertex   -5.000000e-01 -1.125000e+01 -1.250000e+01
      vertex   -5.500000e+00 -1.125000e+01 -1.250000e+01
      vertex   -5.500000e+00 -1.125000e+01 1.250000e+01
    endloop
  endfacet
  facet normal -1.000000e+00 5.782412e-17 -4.336809e-18
    outer loop
      vertex   -5.000000e-01 -1.125000e+01 1.250000e+01
      vertex   -5.000000e-01 1.875000e+01 1.250000e+01
      vertex   -5.000000e-01 1.875000e+01 -1.250000e+01
    endloop
  endfacet
  facet normal -1.000000e+00 1.337183e-16 8.673617e-17
    outer loop
      vertex   -5.000000e-01 1.875000e+01 -1.250000e+01
      vertex   -5.000000e-01 -1.125000e+01 -1.250000e+01
      vertex   -5.000000e-01 -1.125000e+01 1.250000e+01
    endloop
  endfacet
  facet normal 0.000000e+00 1.000000e+00 0.000000e+00
    outer loop
      vertex   5.000000e-01 1.875000e+01 -1.250000e+01
      vertex   -5.000000e-01 1.875000e+01 -1.250000e+01
      vertex   -5.000000e-01 1.875000e+01 1.250000e+01
    endloop
  endfacet
  facet normal 3.469447e-15 1.000000e+00 1.387779e-16
    outer loop
      vertex   -5.000000e-01 1.875000e+01 1.250000e+01
      vertex   5.000000e-01 1.875000e+01 1.250000e+01
      vertex   5.000000e-01 1.875000e+01 -1.250000e+01
    endloop
  endfacet
  facet normal 0.000000e+00 -0.000000e+00 1.000000e+00
    outer loop
      vertex   1.850000e+01 -1.125000e+01 1.250000e+01
      vertex   1.850000e+01 1.875000e+01 1.250000e+01
      vertex   1.750000e+01 1.875000e+01 1.250000e+01
    endloop
  endfacet
  facet normal -1.180104e-32 1.734723e-16 1.000000e+00
    outer loop
      vertex   -2.550000e+01 -2.125000e+01 1.250000e+01
      vertex   2.550000e+01 -2.125000e+01 1.250000e+01
      vertex   5.500000e+00 -1.125000e+01 1.250000e+01
    endloop
  endfacet
  facet normal 0.000000e+00 1.734723e-16 1.000000e+00
    outer loop
      vertex   5.500000e+00 -1.125000e+01 1.250000e+01
      vertex   5.000000e-01 -1.125000e+01 1.250000e+01
      vertex   -2.550000e+01 -2.125000e+01 1.250000e+01
    endloop
  endfacet
  facet normal -1.734723e-15 0.000000e+00 1.000000e+00
    outer loop
      vertex   6.500000e+00 -1.125000e+01 1.250000e+01
      vertex   6.500000e+00 1.875000e+01 1.250000e+01
      vertex   5.500000e+00 1.875000e+01 1.250000e+01
    endloop
  endfacet
  facet normal 0.000000e+00 1.734723e-16 1.000000e+00
    outer loop
      vertex   -5.000000e-01 -1.125000e+01 1.250000e+01
      vertex   -5.500000e+00 -1.125000e+01 1.250000e+01
      vertex   -2.550000e+01 -2.125000e+01 1.250000e+01
    endloop
  endfacet
  facet normal 0.000000e+00 1.734723e-16 1.000000e+00
    outer loop
      vertex   -2.550000e+01 -2.125000e+01 1.250000e+01
      vertex   5.000000e-01 -1.125000e+01 1.250000e+01
      vertex   -5.000000e-01 -1.125000e+01 1.250000e+01
    endloop
  endfacet
  facet normal 3.699839e-31 -5.782412e-17 1.000000e+00
    outer loop
      vertex   -5.000000e-01 1.875000e+01 1.250000e+01
      vertex   -5.000000e-01 -1.125000e+01 1.250000e+01
      vertex   5.000000e-01 -1.125000e+01 1.250000e+01
    endloop
  endfacet
  facet normal 1.734723e-15 -1.253861e-32 1.000000e+00
    outer loop
      vertex   5.000000e-01 -1.125000e+01 1.250000e+01
      vertex   5.000000e-01 1.875000e+01 1.250000e+01
      vertex   -5.000000e-01 1.875000e+01 1.250000e+01
    endloop
  endfacet
  facet normal 0.000000e+00 0.000000e+00 1.000000e+00
    outer loop
      vertex   1.750000e+01 -1.125000e+01 1.250000e+01
      vertex   1.250000e+01 -1.125000e+01 1.250000e+01
      vertex   2.550000e+01 -2.125000e+01 1.250000e+01
    endloop
  endfacet
  facet normal 0.000000e+00 0.000000e+00 1.000000e+00
    outer loop
      vertex   -1.150000e+01 -1.125000e+01 1.250000e+01
      vertex   -1.150000e+01 1.875000e+01 1.250000e+01
      vertex   -1.250000e+01 1.875000e+01 1.250000e+01
    endloop
  endfacet
  facet normal 0.000000e+00 0.000000e+00 1.000000e+00
    outer loop
      vertex   1.750000e+01 1.875000e+01 1.250000e+01
      vertex   1.750000e+01 -1.125000e+01 1.250000e+01
      vertex   1.850000e+01 -1.125000e+01 1.250000e+01
    endloop
  endfacet
  facet normal 0.000000e+00 0.000000e+00 1.000000e+00
    outer loop
      vertex   2.550000e+01 -2.125000e+01 1.250000e+01
      vertex   1.850000e+01 -1.125000e+01 1.250000e+01
      vertex   1.750000e+01 -1.125000e+01 1.250000e+01
    endloop
  endfacet
  facet normal 0.000000e+00 0.000000e+00 1.000000e+00
    outer loop
      vertex   2.550000e+01 -2.125000e+01 1.250000e+01
      vertex   2.350000e+01 -1.125000e+01 1.250000e+01
      vertex   1.850000e+01 -1.125000e+01 1.250000e+01
    endloop
  endfacet
  facet normal -0.000000e+00 0.000000e+00 1.000000e+00
    outer loop
      vertex   2.350000e+01 -1.125000e+01 1.250000e+01
      vertex   2.550000e+01 -2.125000e+01 1.250000e+01
      vertex   2.550000e+01 1.875000e+01 1.250000e+01
    endloop
  endfacet
  facet normal 0.000000e+00 0.000000e+00 1.000000e+00
    outer loop
      vertex   2.550000e+01 1.875000e+01 1.250000e+01
      vertex   2.350000e+01 1.875000e+01 1.250000e+01
      vertex   2.350000e+01 -1.125000e+01 1.250000e+01
    endloop
  endfacet
  facet normal -1.734723e-15 0.000000e+00 1.000000e+00
    outer loop
      vertex   5.500000e+00 1.875000e+01 1.250000e+01
      vertex   5.500000e+00 -1.125000e+01 1.250000e+01
      vertex   6.500000e+00 -1.125000e+01 1.250000e+01
    endloop
  endfacet
  facet normal -1.734723e-15 -3.295975e-15 1.000000e+00
    outer loop
      vertex   6.500000e+00 -1.125000e+01 1.250000e+01
      vertex   5.500000e+00 -1.125000e+01 1.250000e+01
      vertex   2.550000e+01 -2.125000e+01 1.250000e+01
    endloop
  endfacet
  facet normal 0.000000e+00 0.000000e+00 1.000000e+00
    outer loop
      vertex   1.150000e+01 -1.125000e+01 1.250000e+01
      vertex   6.500000e+00 -1.125000e+01 1.250000e+01
      vertex   2.550000e+01 -2.125000e+01 1.250000e+01
    endloop
  endfacet
  facet normal 0.000000e+00 0.000000e+00 1.000000e+00
    outer loop
      vertex   2.550000e+01 -2.125000e+01 1.250000e+01
      vertex   1.250000e+01 -1.125000e+01 1.250000e+01
      vertex   1.150000e+01 -1.125000e+01 1.250000e+01
    endloop
  endfacet
  facet normal 0.000000e+00 0.000000e+00 1.000000e+00
    outer loop
      vertex   1.150000e+01 1.875000e+01 1.250000e+01
      vertex   1.150000e+01 -1.125000e+01 1.250000e+01
      vertex   1.250000e+01 -1.125000e+01 1.250000e+01
    endloop
  endfacet
  facet normal 0.000000e+00 -0.000000e+00 1.000000e+00
    outer loop
      vertex   1.250000e+01 -1.125000e+01 1.250000e+01
      vertex   1.250000e+01 1.875000e+01 1.250000e+01
      vertex   1.150000e+01 1.875000e+01 1.250000e+01
    endloop
  endfacet
  facet normal 0.000000e+00 0.000000e+00 1.000000e+00
    outer loop
      vertex   -1.250000e+01 -1.125000e+01 1.250000e+01
      vertex   -1.750000e+01 -1.125000e+01 1.250000e+01
      vertex   -2.550000e+01 -2.125000e+01 1.250000e+01
    endloop
  endfacet
  facet normal 0.000000e+00 0.000000e+00 1.000000e+00
    outer loop
      vertex   -1.250000e+01 1.875000e+01 1.250000e+01
      vertex   -1.250000e+01 -1.125000e+01 1.250000e+01
      vertex   -1.150000e+01 -1.125000e+01 1.250000e+01
    endloop
  endfacet
  facet normal 0.000000e+00 0.000000e+00 1.000000e+00
    outer loop
      vertex   -2.550000e+01 -2.125000e+01 1.250000e+01
      vertex   -1.150000e+01 -1.125000e+01 1.250000e+01
      vertex   -1.250000e+01 -1.125000e+01 1.250000e+01
    endloop
  endfacet
  facet normal 0.000000e+00 0.000000e+00 1.000000e+00
    outer loop
      vertex   -6.500000e+00 -1.125000e+01 1.250000e+01
      vertex   -1.150000e+01 -1.125000e+01 1.250000e+01
      vertex   -2.550000e+01 -2.125000e+01 1.250000e+01
    endloop
  endfacet
  facet normal 1.734723e-15 -3.295975e-15 1.000000e+00
    outer loop
      vertex   -2.550000e+01 -2.125000e+01 1.250000e+01
      vertex   -5.500000e+00 -1.125000e+01 1.250000e+01
      vertex   -6.500000e+00 -1.125000e+01 1.250000e+01
    endloop
  endfacet
  facet normal 1.734723e-15 0.000000e+00 1.000000e+00
    outer loop
      vertex   -6.500000e+00 1.875000e+01 1.250000e+01
      vertex   -6.500000e+00 -1.125000e+01 1.250000e+01
      vertex   -5.500000e+00 -1.125000e+01 1.250000e+01
    endloop
  endfacet
  facet normal 1.734723e-15 -1.003089e-31 1.000000e+00
    outer loop
      vertex   -5.500000e+00 -1.125000e+01 1.250000e+01
      vertex   -5.500000e+00 1.875000e+01 1.250000e+01
      vertex   -6.500000e+00 1.875000e+01 1.250000e+01
    endloop
  endfacet
  facet normal 0.000000e+00 -0.000000e+00 1.000000e+00
    outer loop
      vertex   -2.350000e+01 -1.125000e+01 1.250000e+01
      vertex   -2.350000e+01 1.875000e+01 1.250000e+01
      vertex   -2.550000e+01 1.875000e+01 1.250000e+01
    endloop
  endfacet
  facet normal 0.000000e+00 0.000000e+00 1.000000e+00
    outer loop
      vertex   -2.550000e+01 1.875000e+01 1.250000e+01
      vertex   -2.550000e+01 -2.125000e+01 1.250000e+01
      vertex   -2.350000e+01 -1.125000e+01 1.250000e+01
    endloop
  endfacet
  facet normal 0.000000e+00 0.000000e+00 1.000000e+00
    outer loop
      vertex   -1.850000e+01 -1.125000e+01 1.250000e+01
      vertex   -2.350000e+01 -1.125000e+01 1.250000e+01
      vertex   -2.550000e+01 -2.125000e+01 1.250000e+01
    endloop
  endfacet
  facet normal 0.000000e+00 0.000000e+00 1.000000e+00
    outer loop
      vertex   -2.550000e+01 -2.125000e+01 1.250000e+01
      vertex   -1.750000e+01 -1.125000e+01 1.250000e+01
      vertex   -1.850000e+01 -1.125000e+01 1.250000e+01
    endloop
  endfacet
  facet normal 0.000000e+00 0.000000e+00 1.000000e+00
    outer loop
      vertex   -1.850000e+01 1.875000e+01 1.250000e+01
      vertex   -1.850000e+01 -1.125000e+01 1.250000e+01
      vertex   -1.750000e+01 -1.125000e+01 1.250000e+01
    endloop
  endfacet
  facet normal 0.000000e+00 -0.000000e+00 1.000000e+00
    outer loop
      vertex   -1.750000e+01 -1.125000e+01 1.250000e+01
      vertex   -1.750000e+01 1.875000e+01 1.250000e+01
      vertex   -1.850000e+01 1.875000e+01 1.250000e+01
    endloop
  endfacet
  facet normal 0.000000e+00 0.000000e+00 -1.000000e+00
    outer loop
      vertex   1.150000e+01 -1.125000e+01 -1.250000e+01
      vertex   1.150000e+01 1.875000e+01 -1.250000e+01
      vertex   1.250000e+01 1.875000e+01 -1.250000e+01
    endloop
  endfacet
  facet normal 0.000000e+00 0.000000e+00 -1.000000e+00
    outer loop
      vertex   1.250000e+01 -1.125000e+01 -1.250000e+01
      vertex   1.750000e+01 -1.125000e+01 -1.250000e+01
      vertex   2.550000e+01 -2.125000e+01 -1.250000e+01
    endloop
  endfacet
  facet normal 0.000000e+00 0.000000e+00 -1.000000e+00
    outer loop
      vertex   -5.000000e-01 -1.125000e+01 -1.250000e+01
      vertex   -5.000000e-01 1.875000e+01 -1.250000e+01
      vertex   5.000000e-01 1.875000e+01 -1.250000e+01
    endloop
  endfacet
  facet normal 0.000000e+00 0.000000e+00 -1.000000e+00
    outer loop
      vertex   2.350000e+01 -1.125000e+01 -1.250000e+01
      vertex   2.350000e+01 1.875000e+01 -1.250000e+01
      vertex   2.550000e+01 1.875000e+01 -1.250000e+01
    endloop
  endfacet
  facet normal 0.000000e+00 -0.000000e+00 -1.000000e+00
    outer loop
      vertex   2.550000e+01 1.875000e+01 -1.250000e+01
      vertex   2.550000e+01 -2.125000e+01 -1.250000e+01
      vertex   2.350000e+01 -1.125000e+01 -1.250000e+01
    endloop
  endfacet
  facet normal 0.000000e+00 0.000000e+00 -1.000000e+00
    outer loop
      vertex   1.850000e+01 -1.125000e+01 -1.250000e+01
      vertex   2.350000e+01 -1.125000e+01 -1.250000e+01
      vertex   2.550000e+01 -2.125000e+01 -1.250000e+01
    endloop
  endfacet
  facet normal 0.000000e+00 0.000000e+00 -1.000000e+00
    outer loop
      vertex   2.550000e+01 -2.125000e+01 -1.250000e+01
      vertex   1.750000e+01 -1.125000e+01 -1.250000e+01
      vertex   1.850000e+01 -1.125000e+01 -1.250000e+01
    endloop
  endfacet
  facet normal 0.000000e+00 -0.000000e+00 -1.000000e+00
    outer loop
      vertex   1.850000e+01 1.875000e+01 -1.250000e+01
      vertex   1.850000e+01 -1.125000e+01 -1.250000e+01
      vertex   1.750000e+01 -1.125000e+01 -1.250000e+01
    endloop
  endfacet
  facet normal 0.000000e+00 0.000000e+00 -1.000000e+00
    outer loop
      vertex   1.750000e+01 -1.125000e+01 -1.250000e+01
      vertex   1.750000e+01 1.875000e+01 -1.250000e+01
      vertex   1.850000e+01 1.875000e+01 -1.250000e+01
    endloop
  endfacet
  facet normal 0.000000e+00 0.000000e+00 -1.000000e+00
    outer loop
      vertex   -2.550000e+01 -2.125000e+01 -1.250000e+01
      vertex   -2.350000e+01 -1.125000e+01 -1.250000e+01
      vertex   -1.850000e+01 -1.125000e+01 -1.250000e+01
    endloop
  endfacet
  facet normal -0.000000e+00 0.000000e+00 -1.000000e+00
    outer loop
      vertex   -2.350000e+01 -1.125000e+01 -1.250000e+01
      vertex   -2.550000e+01 -2.125000e+01 -1.250000e+01
      vertex   -2.550000e+01 1.875000e+01 -1.250000e+01
    endloop
  endfacet
  facet normal 0.000000e+00 0.000000e+00 -1.000000e+00
    outer loop
      vertex   -2.550000e+01 1.875000e+01 -1.250000e+01
      vertex   -2.350000e+01 1.875000e+01 -1.250000e+01
      vertex   -2.350000e+01 -1.125000e+01 -1.250000e+01
    endloop
  endfacet
  facet normal 0.000000e+00 0.000000e+00 -1.000000e+00
    outer loop
      vertex   5.500000e+00 -1.125000e+01 -1.250000e+01
      vertex   5.500000e+00 1.875000e+01 -1.250000e+01
      vertex   6.500000e+00 1.875000e+01 -1.250000e+01
    endloop
  endfacet
  facet normal 0.000000e+00 -0.000000e+00 -1.000000e+00
    outer loop
      vertex   6.500000e+00 1.875000e+01 -1.250000e+01
      vertex   6.500000e+00 -1.125000e+01 -1.250000e+01
      vertex   5.500000e+00 -1.125000e+01 -1.250000e+01
    endloop
  endfacet
  facet normal 0.000000e+00 0.000000e+00 -1.000000e+00
    outer loop
      vertex   -1.850000e+01 -1.125000e+01 -1.250000e+01
      vertex   -1.850000e+01 1.875000e+01 -1.250000e+01
      vertex   -1.750000e+01 1.875000e+01 -1.250000e+01
    endloop
  endfacet
  facet normal 0.000000e+00 -0.000000e+00 -1.000000e+00
    outer loop
      vertex   -1.750000e+01 1.875000e+01 -1.250000e+01
      vertex   -1.750000e+01 -1.125000e+01 -1.250000e+01
      vertex   -1.850000e+01 -1.125000e+01 -1.250000e+01
    endloop
  endfacet
  facet normal 0.000000e+00 0.000000e+00 -1.000000e+00
    outer loop
      vertex   -2.550000e+01 -2.125000e+01 -1.250000e+01
      vertex   -1.850000e+01 -1.125000e+01 -1.250000e+01
      vertex   -1.750000e+01 -1.125000e+01 -1.250000e+01
    endloop
  endfacet
  facet normal 0.000000e+00 0.000000e+00 -1.000000e+00
    outer loop
      vertex   -2.550000e+01 -2.125000e+01 -1.250000e+01
      vertex   -1.750000e+01 -1.125000e+01 -1.250000e+01
      vertex   -1.250000e+01 -1.125000e+01 -1.250000e+01
    endloop
  endfacet
  facet normal 0.000000e+00 0.000000e+00 -1.000000e+00
    outer loop
      vertex   -1.250000e+01 -1.125000e+01 -1.250000e+01
      vertex   -1.250000e+01 1.875000e+01 -1.250000e+01
      vertex   -1.150000e+01 1.875000e+01 -1.250000e+01
    endloop
  endfacet
  facet normal 0.000000e+00 -0.000000e+00 -1.000000e+00
    outer loop
      vertex   -1.150000e+01 1.875000e+01 -1.250000e+01
      vertex   -1.150000e+01 -1.125000e+01 -1.250000e+01
      vertex   -1.250000e+01 -1.125000e+01 -1.250000e+01
    endloop
  endfacet
  facet normal 0.000000e+00 0.000000e+00 -1.000000e+00
    outer loop
      vertex   -2.550000e+01 -2.125000e+01 -1.250000e+01
      vertex   -1.250000e+01 -1.125000e+01 -1.250000e+01
      vertex   -1.150000e+01 -1.125000e+01 -1.250000e+01
    endloop
  endfacet
  facet normal 0.000000e+00 0.000000e+00 -1.000000e+00
    outer loop
      vertex   -2.550000e+01 -2.125000e+01 -1.250000e+01
      vertex   -1.150000e+01 -1.125000e+01 -1.250000e+01
      vertex   -6.500000e+00 -1.125000e+01 -1.250000e+01
    endloop
  endfacet
  facet normal 0.000000e+00 -0.000000e+00 -1.000000e+00
    outer loop
      vertex   5.000000e-01 1.875000e+01 -1.250000e+01
      vertex   5.000000e-01 -1.125000e+01 -1.250000e+01
      vertex   -5.000000e-01 -1.125000e+01 -1.250000e+01
    endloop
  endfacet
  facet normal 0.000000e+00 0.000000e+00 -1.000000e+00
    outer loop
      vertex   -2.550000e+01 -2.125000e+01 -1.250000e+01
      vertex   -5.000000e-01 -1.125000e+01 -1.250000e+01
      vertex   5.000000e-01 -1.125000e+01 -1.250000e+01
    endloop
  endfacet
  facet normal 0.000000e+00 0.000000e+00 -1.000000e+00
    outer loop
      vertex   -2.550000e+01 -2.125000e+01 -1.250000e+01
      vertex   -5.500000e+00 -1.125000e+01 -1.250000e+01
      vertex   -5.000000e-01 -1.125000e+01 -1.250000e+01
    endloop
  endfacet
  facet normal 0.000000e+00 0.000000e+00 -1.000000e+00
    outer loop
      vertex   -2.550000e+01 -2.125000e+01 -1.250000e+01
      vertex   -6.500000e+00 -1.125000e+01 -1.250000e+01
      vertex   -5.500000e+00 -1.125000e+01 -1.250000e+01
    endloop
  endfacet
  facet normal 0.000000e+00 0.000000e+00 -1.000000e+00
    outer loop
      vertex   -5.500000e+00 1.875000e+01 -1.250000e+01
      vertex   -5.500000e+00 -1.125000e+01 -1.250000e+01
      vertex   -6.500000e+00 -1.125000e+01 -1.250000e+01
    endloop
  endfacet
  facet normal 0.000000e+00 0.000000e+00 -1.000000e+00
    outer loop
      vertex   -6.500000e+00 -1.125000e+01 -1.250000e+01
      vertex   -6.500000e+00 1.875000e+01 -1.250000e+01
      vertex   -5.500000e+00 1.875000e+01 -1.250000e+01
    endloop
  endfacet
  facet normal 0.000000e+00 -0.000000e+00 -1.000000e+00
    outer loop
      vertex   1.250000e+01 1.875000e+01 -1.250000e+01
      vertex   1.250000e+01 -1.125000e+01 -1.250000e+01
      vertex   1.150000e+01 -1.125000e+01 -1.250000e+01
    endloop
  endfacet
  facet normal 0.000000e+00 0.000000e+00 -1.000000e+00
    outer loop
      vertex   2.550000e+01 -2.125000e+01 -1.250000e+01
      vertex   1.150000e+01 -1.125000e+01 -1.250000e+01
      vertex   1.250000e+01 -1.125000e+01 -1.250000e+01
    endloop
  endfacet
  facet normal 0.000000e+00 0.000000e+00 -1.000000e+00
    outer loop
      vertex   6.500000e+00 -1.125000e+01 -1.250000e+01
      vertex   1.150000e+01 -1.125000e+01 -1.250000e+01
      vertex   2.550000e+01 -2.125000e+01 -1.250000e+01
    endloop
  endfacet
  facet normal -0.000000e+00 0.000000e+00 -1.000000e+00
    outer loop
      vertex   2.550000e+01 -2.125000e+01 -1.250000e+01
      vertex   -2.550000e+01 -2.125000e+01 -1.250000e+01
      vertex   6.500000e+00 -1.125000e+01 -1.250000e+01
    endloop
  endfacet
  facet normal 0.000000e+00 -0.000000e+00 -1.000000e+00
    outer loop
      vertex   5.500000e+00 -1.125000e+01 -1.250000e+01
      vertex   6.500000e+00 -1.125000e+01 -1.250000e+01
      vertex   -2.550000e+01 -2.125000e+01 -1.250000e+01
    endloop
  endfacet
  facet normal 0.000000e+00 0.000000e+00 -1.000000e+00
    outer loop
      vertex   -2.550000e+01 -2.125000e+01 -1.250000e+01
      vertex   5.000000e-01 -1.125000e+01 -1.250000e+01
      vertex   5.500000e+00 -1.125000e+01 -1.250000e+01
    endloop
  endfacet
  facet normal -1.000000e+00 0.000000e+00 0.000000e+00
    outer loop
      vertex   5.500000e+00 -1.125000e+01 -1.250000e+01
      vertex   5.500000e+00 -1.125000e+01 1.250000e+01
      vertex   5.500000e+00 1.875000e+01 1.250000e+01
    endloop
  endfacet
  facet normal -1.000000e+00 0.000000e+00 -0.000000e+00
    outer loop
      vertex   5.500000e+00 1.875000e+01 1.250000e+01
      vertex   5.500000e+00 1.875000e+01 -1.250000e+01
      vertex   5.500000e+00 -1.125000e+01 -1.250000e+01
    endloop
  endfacet
  facet normal 0.000000e+00 1.000000e+00 0.000000e+00
    outer loop
      vertex   5.000000e-01 -1.125000e+01 -1.250000e+01
      vertex   5.000000e-01 -1.125000e+01 1.250000e+01
      vertex   5.500000e+00 -1.125000e+01 1.250000e+01
    endloop
  endfacet
  facet normal 0.000000e+00 1.000000e+00 0.000000e+00
    outer loop
      vertex   5.500000e+00 -1.125000e+01 1.250000e+01
      vertex   5.500000e+00 -1.125000e+01 -1.250000e+01
      vertex   5.000000e-01 -1.125000e+01 -1.250000e+01
    endloop
  endfacet
  facet normal 1.000000e+00 -7.228014e-18 -8.673617e-18
    outer loop
      vertex   5.000000e-01 1.875000e+01 -1.250000e+01
      vertex   5.000000e-01 1.875000e+01 1.250000e+01
      vertex   5.000000e-01 -1.125000e+01 1.250000e+01
    endloop
  endfacet
  facet normal 1.000000e+00 0.000000e+00 0.000000e+00
    outer loop
      vertex   5.000000e-01 -1.125000e+01 1.250000e+01
      vertex   5.000000e-01 -1.125000e+01 -1.250000e+01
      vertex   5.000000e-01 1.875000e+01 -1.250000e+01
    endloop
  endfacet
endsolid
