solid ascii
  facet normal -9.588831e-01 -2.569320e-01 -1.205367e-01
    outer loop
      vertex   4.390715e+01 -1.044215e-14 -1.800000e+01
      vertex   4.387706e+01 -1.044450e-14 -1.776068e+01
      vertex   4.093786e+01 1.096927e+01 -1.776068e+01
    endloop
  endfacet
  facet normal -8.552848e-01 -2.291729e-01 -4.647232e-01
    outer loop
      vertex   4.093786e+01 1.096927e+01 -1.776068e+01
      vertex   4.387706e+01 -1.044450e-14 -1.776068e+01
      vertex   4.364679e+01 -1.046252e-14 -1.733688e+01
    endloop
  endfacet
  facet normal -8.552848e-01 -2.291729e-01 -4.647232e-01
    outer loop
      vertex   4.364679e+01 -1.046252e-14 -1.733688e+01
      vertex   4.072301e+01 1.091170e+01 -1.733688e+01
      vertex   4.093786e+01 1.096927e+01 -1.776068e+01
    endloop
  endfacet
  facet normal -5.487084e-01 -1.470260e-01 -8.229839e-01
    outer loop
      vertex   4.072301e+01 1.091170e+01 -1.733688e+01
      vertex   4.364679e+01 -1.046252e-14 -1.733688e+01
      vertex   4.323898e+01 -1.049443e-14 -1.706498e+01
    endloop
  endfacet
  facet normal -5.487084e-01 -1.470260e-01 -8.229839e-01
    outer loop
      vertex   4.323898e+01 -1.049443e-14 -1.706498e+01
      vertex   4.034252e+01 1.080975e+01 -1.706498e+01
      vertex   4.072301e+01 1.091170e+01 -1.733688e+01
    endloop
  endfacet
  facet normal -1.164295e-01 -3.119719e-02 -9.927089e-01
    outer loop
      vertex   4.034252e+01 1.080975e+01 -1.706498e+01
      vertex   4.323898e+01 -1.049443e-14 -1.706498e+01
      vertex   4.274708e+01 -1.053292e-14 -1.700729e+01
    endloop
  endfacet
  facet normal -1.164295e-01 -3.119719e-02 -9.927089e-01
    outer loop
      vertex   4.274708e+01 -1.053292e-14 -1.700729e+01
      vertex   3.988357e+01 1.068677e+01 -1.700729e+01
      vertex   4.034252e+01 1.080975e+01 -1.706498e+01
    endloop
  endfacet
  facet normal 3.425220e-01 9.177850e-02 -9.350162e-01
    outer loop
      vertex   3.988357e+01 1.068677e+01 -1.700729e+01
      vertex   4.274708e+01 -1.053292e-14 -1.700729e+01
      vertex   4.228377e+01 -1.056918e-14 -1.717702e+01
    endloop
  endfacet
  facet normal 3.425220e-01 9.177850e-02 -9.350162e-01
    outer loop
      vertex   4.228377e+01 -1.056918e-14 -1.717702e+01
      vertex   3.945129e+01 1.057094e+01 -1.717702e+01
      vertex   3.988357e+01 1.068677e+01 -1.700729e+01
    endloop
  endfacet
  facet normal 7.230059e-01 1.937288e-01 -6.631227e-01
    outer loop
      vertex   3.945129e+01 1.057094e+01 -1.717702e+01
      vertex   4.228377e+01 -1.056918e-14 -1.717702e+01
      vertex   4.195518e+01 -1.059489e-14 -1.753528e+01
    endloop
  endfacet
  facet normal 7.230059e-01 1.937288e-01 -6.631227e-01
    outer loop
      vertex   4.195518e+01 -1.059489e-14 -1.753528e+01
      vertex   3.914472e+01 1.048879e+01 -1.753528e+01
      vertex   3.945129e+01 1.057094e+01 -1.717702e+01
    endloop
  endfacet
  facet normal 9.378578e-01 2.512982e-01 -2.393157e-01
    outer loop
      vertex   3.914472e+01 1.048879e+01 -1.753528e+01
      vertex   4.195518e+01 -1.059489e-14 -1.753528e+01
      vertex   4.183659e+01 -1.060417e-14 -1.800000e+01
    endloop
  endfacet
  facet normal 9.378578e-01 2.512982e-01 -2.393157e-01
    outer loop
      vertex   4.183659e+01 -1.060417e-14 -1.800000e+01
      vertex   3.903407e+01 1.045915e+01 -1.800000e+01
      vertex   3.914472e+01 1.048879e+01 -1.753528e+01
    endloop
  endfacet
  facet normal 9.378578e-01 2.512982e-01 2.393157e-01
    outer loop
      vertex   3.903407e+01 1.045915e+01 -1.800000e+01
      vertex   4.183659e+01 -1.060417e-14 -1.800000e+01
      vertex   4.195518e+01 -1.059489e-14 -1.846472e+01
    endloop
  endfacet
  facet normal 9.378578e-01 2.512982e-01 2.393157e-01
    outer loop
      vertex   4.195518e+01 -1.059489e-14 -1.846472e+01
      vertex   3.914472e+01 1.048879e+01 -1.846472e+01
      vertex   3.903407e+01 1.045915e+01 -1.800000e+01
    endloop
  endfacet
  facet normal 7.230059e-01 1.937288e-01 6.631227e-01
    outer loop
      vertex   3.914472e+01 1.048879e+01 -1.846472e+01
      vertex   4.195518e+01 -1.059489e-14 -1.846472e+01
      vertex   4.228377e+01 -1.056918e-14 -1.882298e+01
    endloop
  endfacet
  facet normal 7.230059e-01 1.937288e-01 6.631227e-01
    outer loop
      vertex   4.228377e+01 -1.056918e-14 -1.882298e+01
      vertex   3.945129e+01 1.057094e+01 -1.882298e+01
      vertex   3.914472e+01 1.048879e+01 -1.846472e+01
    endloop
  endfacet
  facet normal 3.425220e-01 9.177850e-02 9.350162e-01
    outer loop
      vertex   3.945129e+01 1.057094e+01 -1.882298e+01
      vertex   4.228377e+01 -1.056918e-14 -1.882298e+01
      vertex   4.274708e+01 -1.053292e-14 -1.899271e+01
    endloop
  endfacet
  facet normal 3.425220e-01 9.177850e-02 9.350162e-01
    outer loop
      vertex   4.274708e+01 -1.053292e-14 -1.899271e+01
      vertex   3.988357e+01 1.068677e+01 -1.899271e+01
      vertex   3.945129e+01 1.057094e+01 -1.882298e+01
    endloop
  endfacet
  facet normal -1.164295e-01 -3.119719e-02 9.927089e-01
    outer loop
      vertex   3.988357e+01 1.068677e+01 -1.899271e+01
      vertex   4.274708e+01 -1.053292e-14 -1.899271e+01
      vertex   4.323898e+01 -1.049443e-14 -1.893502e+01
    endloop
  endfacet
  facet normal -1.164295e-01 -3.119719e-02 9.927089e-01
    outer loop
      vertex   4.323898e+01 -1.049443e-14 -1.893502e+01
      vertex   4.034252e+01 1.080975e+01 -1.893502e+01
      vertex   3.988357e+01 1.068677e+01 -1.899271e+01
    endloop
  endfacet
  facet normal -5.487084e-01 -1.470260e-01 8.229839e-01
    outer loop
      vertex   4.034252e+01 1.080975e+01 -1.893502e+01
      vertex   4.323898e+01 -1.049443e-14 -1.893502e+01
      vertex   4.364679e+01 -1.046252e-14 -1.866312e+01
    endloop
  endfacet
  facet normal -5.487084e-01 -1.470260e-01 8.229839e-01
    outer loop
      vertex   4.364679e+01 -1.046252e-14 -1.866312e+01
      vertex   4.072301e+01 1.091170e+01 -1.866312e+01
      vertex   4.034252e+01 1.080975e+01 -1.893502e+01
    endloop
  endfacet
  facet normal -8.552848e-01 -2.291729e-01 4.647232e-01
    outer loop
      vertex   4.072301e+01 1.091170e+01 -1.866312e+01
      vertex   4.364679e+01 -1.046252e-14 -1.866312e+01
      vertex   4.387706e+01 -1.044450e-14 -1.823932e+01
    endloop
  endfacet
  facet normal -8.552848e-01 -2.291729e-01 4.647232e-01
    outer loop
      vertex   4.387706e+01 -1.044450e-14 -1.823932e+01
      vertex   4.093786e+01 1.096927e+01 -1.823932e+01
      vertex   4.072301e+01 1.091170e+01 -1.866312e+01
    endloop
  endfacet
  facet normal -9.588831e-01 -2.569320e-01 1.205367e-01
    outer loop
      vertex   4.093786e+01 1.096927e+01 -1.823932e+01
      vertex   4.387706e+01 -1.044450e-14 -1.823932e+01
      vertex   4.390715e+01 -1.044215e-14 -1.800000e+01
    endloop
  endfacet
  facet normal -9.652609e-01 -2.612881e-01 -0.000000e+00
    outer loop
      vertex   4.093786e+01 1.096927e+01 -1.776068e+01
      vertex   4.093786e+01 1.096927e+01 -1.823932e+01
      vertex   4.390715e+01 -1.044215e-14 -1.800000e+01
    endloop
  endfacet
  facet normal 7.824781e-17 -1.000000e+00 -1.402932e-31
    outer loop
      vertex   4.195518e+01 -1.059489e-14 1.753528e+01
      vertex   4.183659e+01 -1.060417e-14 1.800000e+01
      vertex   1.072393e-13 -1.387779e-14 5.000000e+01
    endloop
  endfacet
  facet normal 7.824781e-17 -1.000000e+00 -8.239655e-33
    outer loop
      vertex   1.072393e-13 -1.387779e-14 5.000000e+01
      vertex   1.557808e-13 -1.387779e-14 -5.000000e+01
      vertex   4.195518e+01 -1.059489e-14 1.753528e+01
    endloop
  endfacet
  facet normal 7.824781e-17 -1.000000e+00 9.598974e-32
    outer loop
      vertex   4.323898e+01 -1.049443e-14 1.893502e+01
      vertex   4.364679e+01 -1.046252e-14 1.866312e+01
      vertex   5.000000e+01 -9.965397e-15 5.000000e+01
    endloop
  endfacet
  facet normal 7.824781e-17 -1.000000e+00 5.628564e-31
    outer loop
      vertex   5.000000e+01 -9.965397e-15 5.000000e+01
      vertex   4.364679e+01 -1.046252e-14 1.866312e+01
      vertex   4.387706e+01 -1.044450e-14 1.823932e+01
    endloop
  endfacet
  facet normal 7.824781e-17 -1.000000e+00 -2.988002e-30
    outer loop
      vertex   4.387706e+01 -1.044450e-14 1.823932e+01
      vertex   4.390715e+01 -1.044215e-14 1.800000e+01
      vertex   5.000000e+01 -9.965397e-15 5.000000e+01
    endloop
  endfacet
  facet normal 7.824781e-17 -1.000000e+00 4.463619e-31
    outer loop
      vertex   4.387706e+01 -1.044450e-14 -1.823932e+01
      vertex   4.364679e+01 -1.046252e-14 -1.866312e+01
      vertex   5.000000e+01 -9.965397e-15 -5.000000e+01
    endloop
  endfacet
  facet normal 7.824781e-17 -1.000000e+00 -6.706131e-31
    outer loop
      vertex   5.000000e+01 -9.965397e-15 -5.000000e+01
      vertex   4.390715e+01 -1.044215e-14 -1.800000e+01
      vertex   4.387706e+01 -1.044450e-14 -1.823932e+01
    endloop
  endfacet
  facet normal 7.824781e-17 -1.000000e+00 -2.880837e-30
    outer loop
      vertex   4.195518e+01 -1.059489e-14 -1.846472e+01
      vertex   4.183659e+01 -1.060417e-14 -1.800000e+01
      vertex   1.557808e-13 -1.387779e-14 -5.000000e+01
    endloop
  endfacet
  facet normal 7.824781e-17 -1.000000e+00 5.502539e-30
    outer loop
      vertex   1.557808e-13 -1.387779e-14 -5.000000e+01
      vertex   4.183659e+01 -1.060417e-14 -1.800000e+01
      vertex   4.195518e+01 -1.059489e-14 -1.753528e+01
    endloop
  endfacet
  facet normal 7.824781e-17 -1.000000e+00 -1.548174e-32
    outer loop
      vertex   4.195518e+01 -1.059489e-14 -1.753528e+01
      vertex   4.195518e+01 -1.059489e-14 1.753528e+01
      vertex   1.557808e-13 -1.387779e-14 -5.000000e+01
    endloop
  endfacet
  facet normal 7.824781e-17 -1.000000e+00 -1.548174e-32
    outer loop
      vertex   4.195518e+01 -1.059489e-14 1.753528e+01
      vertex   4.195518e+01 -1.059489e-14 -1.753528e+01
      vertex   4.228377e+01 -1.056918e-14 -1.717702e+01
    endloop
  endfacet
  facet normal 7.824781e-17 -1.000000e+00 0.000000e+00
    outer loop
      vertex   1.072393e-13 -1.387779e-14 5.000000e+01
      vertex   4.183659e+01 -1.060417e-14 1.800000e+01
      vertex   4.195518e+01 -1.059489e-14 1.846472e+01
    endloop
  endfacet
  facet normal 7.824781e-17 -1.000000e+00 -6.692110e-31
    outer loop
      vertex   1.072393e-13 -1.387779e-14 5.000000e+01
      vertex   4.195518e+01 -1.059489e-14 1.846472e+01
      vertex   4.228377e+01 -1.056918e-14 1.882298e+01
    endloop
  endfacet
  facet normal 7.824781e-17 -1.000000e+00 -9.523391e-33
    outer loop
      vertex   5.000000e+01 -9.965397e-15 5.000000e+01
      vertex   1.072393e-13 -1.387779e-14 5.000000e+01
      vertex   4.228377e+01 -1.056918e-14 1.882298e+01
    endloop
  endfacet
  facet normal 7.824781e-17 -1.000000e+00 -7.807460e-32
    outer loop
      vertex   4.228377e+01 -1.056918e-14 1.882298e+01
      vertex   4.274708e+01 -1.053292e-14 1.899271e+01
      vertex   5.000000e+01 -9.965397e-15 5.000000e+01
    endloop
  endfacet
  facet normal 7.824781e-17 -1.000000e+00 -1.488613e-31
    outer loop
      vertex   4.274708e+01 -1.053292e-14 1.899271e+01
      vertex   4.323898e+01 -1.049443e-14 1.893502e+01
      vertex   5.000000e+01 -9.965397e-15 5.000000e+01
    endloop
  endfacet
  facet normal 7.824781e-17 -1.000000e+00 -1.349577e-31
    outer loop
      vertex   5.000000e+01 -9.965397e-15 -5.000000e+01
      vertex   4.364679e+01 -1.046252e-14 -1.866312e+01
      vertex   4.323898e+01 -1.049443e-14 -1.893502e+01
    endloop
  endfacet
  facet normal 7.824781e-17 -1.000000e+00 -2.986115e-31
    outer loop
      vertex   5.000000e+01 -9.965397e-15 -5.000000e+01
      vertex   4.323898e+01 -1.049443e-14 -1.893502e+01
      vertex   4.274708e+01 -1.053292e-14 -1.899271e+01
    endloop
  endfacet
  facet normal 7.824781e-17 -1.000000e+00 0.000000e+00
    outer loop
      vertex   1.557808e-13 -1.387779e-14 -5.000000e+01
      vertex   5.000000e+01 -9.965397e-15 -5.000000e+01
      vertex   4.274708e+01 -1.053292e-14 -1.899271e+01
    endloop
  endfacet
  facet normal 7.824781e-17 -1.000000e+00 -1.143810e-30
    outer loop
      vertex   4.274708e+01 -1.053292e-14 -1.899271e+01
      vertex   4.228377e+01 -1.056918e-14 -1.882298e+01
      vertex   1.557808e-13 -1.387779e-14 -5.000000e+01
    endloop
  endfacet
  facet normal 7.824781e-17 -1.000000e+00 2.355371e-30
    outer loop
      vertex   4.228377e+01 -1.056918e-14 -1.882298e+01
      vertex   4.195518e+01 -1.059489e-14 -1.846472e+01
      vertex   1.557808e-13 -1.387779e-14 -5.000000e+01
    endloop
  endfacet
  facet normal 7.824781e-17 -1.000000e+00 4.399786e-30
    outer loop
      vertex   4.387706e+01 -1.044450e-14 -1.776068e+01
      vertex   4.390715e+01 -1.044215e-14 -1.800000e+01
      vertex   5.000000e+01 -9.965397e-15 -5.000000e+01
    endloop
  endfacet
  facet normal 7.824781e-17 -1.000000e+00 -7.022710e-34
    outer loop
      vertex   4.387706e+01 -1.044450e-14 -1.776068e+01
      vertex   5.000000e+01 -9.965397e-15 -5.000000e+01
      vertex   5.000000e+01 -9.965397e-15 5.000000e+01
    endloop
  endfacet
  facet normal 7.824781e-17 -1.000000e+00 -2.678451e-31
    outer loop
      vertex   5.000000e+01 -9.965397e-15 5.000000e+01
      vertex   4.364679e+01 -1.046252e-14 -1.733688e+01
      vertex   4.387706e+01 -1.044450e-14 -1.776068e+01
    endloop
  endfacet
  facet normal 7.824781e-17 -1.000000e+00 4.107582e-32
    outer loop
      vertex   4.364679e+01 -1.046252e-14 -1.733688e+01
      vertex   5.000000e+01 -9.965397e-15 5.000000e+01
      vertex   4.390715e+01 -1.044215e-14 1.800000e+01
    endloop
  endfacet
  facet normal 7.824781e-17 -1.000000e+00 -2.669660e-31
    outer loop
      vertex   4.390715e+01 -1.044215e-14 1.800000e+01
      vertex   4.387706e+01 -1.044450e-14 1.776068e+01
      vertex   4.364679e+01 -1.046252e-14 -1.733688e+01
    endloop
  endfacet
  facet normal 7.824781e-17 -1.000000e+00 2.868553e-32
    outer loop
      vertex   4.387706e+01 -1.044450e-14 1.776068e+01
      vertex   4.364679e+01 -1.046252e-14 1.733688e+01
      vertex   4.364679e+01 -1.046252e-14 -1.733688e+01
    endloop
  endfacet
  facet normal 7.824781e-17 -1.000000e+00 2.877654e-32
    outer loop
      vertex   4.364679e+01 -1.046252e-14 -1.733688e+01
      vertex   4.364679e+01 -1.046252e-14 1.733688e+01
      vertex   4.323898e+01 -1.049443e-14 1.706498e+01
    endloop
  endfacet
  facet normal 7.824781e-17 -1.000000e+00 2.923503e-32
    outer loop
      vertex   4.323898e+01 -1.049443e-14 -1.706498e+01
      vertex   4.364679e+01 -1.046252e-14 -1.733688e+01
      vertex   4.323898e+01 -1.049443e-14 1.706498e+01
    endloop
  endfacet
  facet normal 7.824781e-17 -1.000000e+00 2.942803e-32
    outer loop
      vertex   4.274708e+01 -1.053292e-14 -1.700729e+01
      vertex   4.323898e+01 -1.049443e-14 -1.706498e+01
      vertex   4.323898e+01 -1.049443e-14 1.706498e+01
    endloop
  endfacet
  facet normal 7.824781e-17 -1.000000e+00 0.000000e+00
    outer loop
      vertex   4.323898e+01 -1.049443e-14 1.706498e+01
      vertex   4.274708e+01 -1.053292e-14 1.700729e+01
      vertex   4.274708e+01 -1.053292e-14 -1.700729e+01
    endloop
  endfacet
  facet normal 7.824781e-17 -1.000000e+00 0.000000e+00
    outer loop
      vertex   4.274708e+01 -1.053292e-14 1.700729e+01
      vertex   4.228377e+01 -1.056918e-14 -1.717702e+01
      vertex   4.274708e+01 -1.053292e-14 -1.700729e+01
    endloop
  endfacet
  facet normal 7.824781e-17 -1.000000e+00 2.041143e-34
    outer loop
      vertex   4.274708e+01 -1.053292e-14 1.700729e+01
      vertex   4.228377e+01 -1.056918e-14 1.717702e+01
      vertex   4.228377e+01 -1.056918e-14 -1.717702e+01
    endloop
  endfacet
  facet normal 7.824781e-17 -1.000000e+00 0.000000e+00
    outer loop
      vertex   4.228377e+01 -1.056918e-14 1.717702e+01
      vertex   4.195518e+01 -1.059489e-14 1.753528e+01
      vertex   4.228377e+01 -1.056918e-14 -1.717702e+01
    endloop
  endfacet
  facet normal -2.588190e-01 9.659258e-01 6.686300e-16
    outer loop
      vertex   3.914472e+01 1.048879e+01 1.846472e+01
      vertex   3.903407e+01 1.045915e+01 1.800000e+01
      vertex   1.072393e-13 -1.387779e-14 5.000000e+01
    endloop
  endfacet
  facet normal -2.588190e-01 9.659258e-01 0.000000e+00
    outer loop
      vertex   1.072393e-13 -1.387779e-14 5.000000e+01
      vertex   3.903407e+01 1.045915e+01 1.800000e+01
      vertex   3.914472e+01 1.048879e+01 1.753528e+01
    endloop
  endfacet
  facet normal -2.588190e-01 9.659258e-01 2.455230e-16
    outer loop
      vertex   3.914472e+01 1.048879e+01 1.753528e+01
      vertex   3.945129e+01 1.057094e+01 1.717702e+01
      vertex   4.034252e+01 1.080975e+01 -1.706498e+01
    endloop
  endfacet
  facet normal -2.588190e-01 9.659258e-01 1.129573e-15
    outer loop
      vertex   3.914472e+01 1.048879e+01 -1.753528e+01
      vertex   3.903407e+01 1.045915e+01 -1.800000e+01
      vertex   1.557808e-13 -1.387779e-14 -5.000000e+01
    endloop
  endfacet
  facet normal -2.588190e-01 9.659258e-01 -1.256347e-16
    outer loop
      vertex   1.557808e-13 -1.387779e-14 -5.000000e+01
      vertex   1.072393e-13 -1.387779e-14 5.000000e+01
      vertex   3.914472e+01 1.048879e+01 -1.753528e+01
    endloop
  endfacet
  facet normal -2.588190e-01 9.659258e-01 2.390086e-15
    outer loop
      vertex   1.072393e-13 -1.387779e-14 5.000000e+01
      vertex   3.945129e+01 1.057094e+01 -1.717702e+01
      vertex   3.914472e+01 1.048879e+01 -1.753528e+01
    endloop
  endfacet
  facet normal -2.588190e-01 9.659258e-01 1.265153e-16
    outer loop
      vertex   3.914472e+01 1.048879e+01 1.753528e+01
      vertex   3.945129e+01 1.057094e+01 -1.717702e+01
      vertex   1.072393e-13 -1.387779e-14 5.000000e+01
    endloop
  endfacet
  facet normal -2.588190e-01 9.659258e-01 1.048963e-16
    outer loop
      vertex   3.988357e+01 1.068677e+01 -1.700729e+01
      vertex   3.945129e+01 1.057094e+01 -1.717702e+01
      vertex   3.914472e+01 1.048879e+01 1.753528e+01
    endloop
  endfacet
  facet normal -2.588190e-01 9.659258e-01 1.457670e-16
    outer loop
      vertex   4.034252e+01 1.080975e+01 -1.706498e+01
      vertex   3.988357e+01 1.068677e+01 -1.700729e+01
      vertex   3.914472e+01 1.048879e+01 1.753528e+01
    endloop
  endfacet
  facet normal -2.588190e-01 9.659258e-01 0.000000e+00
    outer loop
      vertex   1.557808e-13 -1.387779e-14 -5.000000e+01
      vertex   3.903407e+01 1.045915e+01 -1.800000e+01
      vertex   3.914472e+01 1.048879e+01 -1.846472e+01
    endloop
  endfacet
  facet normal -2.588190e-01 9.659258e-01 -1.334975e-15
    outer loop
      vertex   3.914472e+01 1.048879e+01 -1.846472e+01
      vertex   3.945129e+01 1.057094e+01 -1.882298e+01
      vertex   1.557808e-13 -1.387779e-14 -5.000000e+01
    endloop
  endfacet
  facet normal -2.588190e-01 9.659258e-01 -1.323410e-16
    outer loop
      vertex   5.000000e+01 1.339746e+01 -5.000000e+01
      vertex   1.557808e-13 -1.387779e-14 -5.000000e+01
      vertex   3.945129e+01 1.057094e+01 -1.882298e+01
    endloop
  endfacet
  facet normal -2.588190e-01 9.659258e-01 -8.161102e-16
    outer loop
      vertex   3.945129e+01 1.057094e+01 -1.882298e+01
      vertex   3.988357e+01 1.068677e+01 -1.899271e+01
      vertex   5.000000e+01 1.339746e+01 -5.000000e+01
    endloop
  endfacet
  facet normal -2.588190e-01 9.659258e-01 -1.842661e-16
    outer loop
      vertex   3.988357e+01 1.068677e+01 -1.899271e+01
      vertex   4.034252e+01 1.080975e+01 -1.893502e+01
      vertex   5.000000e+01 1.339746e+01 -5.000000e+01
    endloop
  endfacet
  facet normal -2.588190e-01 9.659258e-01 4.962786e-16
    outer loop
      vertex   5.000000e+01 1.339746e+01 -5.000000e+01
      vertex   4.034252e+01 1.080975e+01 -1.893502e+01
      vertex   4.072301e+01 1.091170e+01 -1.866312e+01
    endloop
  endfacet
  facet normal -2.588190e-01 9.659258e-01 7.291884e-17
    outer loop
      vertex   4.093786e+01 1.096927e+01 -1.776068e+01
      vertex   3.945129e+01 1.057094e+01 1.717702e+01
      vertex   3.988357e+01 1.068677e+01 1.700729e+01
    endloop
  endfacet
  facet normal -2.588190e-01 9.659258e-01 1.839573e-16
    outer loop
      vertex   3.945129e+01 1.057094e+01 1.717702e+01
      vertex   4.093786e+01 1.096927e+01 -1.776068e+01
      vertex   4.072301e+01 1.091170e+01 -1.733688e+01
    endloop
  endfacet
  facet normal -2.588190e-01 9.659258e-01 2.296408e-16
    outer loop
      vertex   4.072301e+01 1.091170e+01 -1.733688e+01
      vertex   4.034252e+01 1.080975e+01 -1.706498e+01
      vertex   3.945129e+01 1.057094e+01 1.717702e+01
    endloop
  endfacet
  facet normal -2.588190e-01 9.659258e-01 -8.152121e-16
    outer loop
      vertex   4.072301e+01 1.091170e+01 1.866312e+01
      vertex   4.034252e+01 1.080975e+01 1.893502e+01
      vertex   5.000000e+01 1.339746e+01 5.000000e+01
    endloop
  endfacet
  facet normal -2.588190e-01 9.659258e-01 -2.416101e-16
    outer loop
      vertex   5.000000e+01 1.339746e+01 5.000000e+01
      vertex   4.034252e+01 1.080975e+01 1.893502e+01
      vertex   3.988357e+01 1.068677e+01 1.899271e+01
    endloop
  endfacet
  facet normal -2.588190e-01 9.659258e-01 -4.622167e-16
    outer loop
      vertex   1.072393e-13 -1.387779e-14 5.000000e+01
      vertex   5.000000e+01 1.339746e+01 5.000000e+01
      vertex   3.988357e+01 1.068677e+01 1.899271e+01
    endloop
  endfacet
  facet normal -2.588190e-01 9.659258e-01 -1.970763e-15
    outer loop
      vertex   3.988357e+01 1.068677e+01 1.899271e+01
      vertex   3.945129e+01 1.057094e+01 1.882298e+01
      vertex   1.072393e-13 -1.387779e-14 5.000000e+01
    endloop
  endfacet
  facet normal -2.588190e-01 9.659258e-01 0.000000e+00
    outer loop
      vertex   1.072393e-13 -1.387779e-14 5.000000e+01
      vertex   3.945129e+01 1.057094e+01 1.882298e+01
      vertex   3.914472e+01 1.048879e+01 1.846472e+01
    endloop
  endfacet
  facet normal -2.588190e-01 9.659258e-01 3.410928e-16
    outer loop
      vertex   5.000000e+01 1.339746e+01 -5.000000e+01
      vertex   4.072301e+01 1.091170e+01 -1.866312e+01
      vertex   4.093786e+01 1.096927e+01 -1.823932e+01
    endloop
  endfacet
  facet normal -2.588190e-01 9.659258e-01 -1.718285e-15
    outer loop
      vertex   5.000000e+01 1.339746e+01 -5.000000e+01
      vertex   4.093786e+01 1.096927e+01 -1.823932e+01
      vertex   4.093786e+01 1.096927e+01 -1.776068e+01
    endloop
  endfacet
  facet normal -2.588190e-01 9.659258e-01 1.396673e-16
    outer loop
      vertex   4.093786e+01 1.096927e+01 -1.776068e+01
      vertex   4.034252e+01 1.080975e+01 1.706498e+01
      vertex   5.000000e+01 1.339746e+01 -5.000000e+01
    endloop
  endfacet
  facet normal -2.588190e-01 9.659258e-01 1.188249e-16
    outer loop
      vertex   4.093786e+01 1.096927e+01 -1.776068e+01
      vertex   3.988357e+01 1.068677e+01 1.700729e+01
      vertex   4.034252e+01 1.080975e+01 1.706498e+01
    endloop
  endfacet
  facet normal -2.588190e-01 9.659258e-01 4.118992e-16
    outer loop
      vertex   5.000000e+01 1.339746e+01 -5.000000e+01
      vertex   4.034252e+01 1.080975e+01 1.706498e+01
      vertex   4.072301e+01 1.091170e+01 1.733688e+01
    endloop
  endfacet
  facet normal -2.588190e-01 9.659258e-01 0.000000e+00
    outer loop
      vertex   5.000000e+01 1.339746e+01 -5.000000e+01
      vertex   4.072301e+01 1.091170e+01 1.733688e+01
      vertex   4.093786e+01 1.096927e+01 1.776068e+01
    endloop
  endfacet
  facet normal -2.588190e-01 9.659258e-01 -1.146689e-16
    outer loop
      vertex   4.093786e+01 1.096927e+01 1.776068e+01
      vertex   5.000000e+01 1.339746e+01 5.000000e+01
      vertex   5.000000e+01 1.339746e+01 -5.000000e+01
    endloop
  endfacet
  facet normal -2.588190e-01 9.659258e-01 -8.591426e-16
    outer loop
      vertex   5.000000e+01 1.339746e+01 5.000000e+01
      vertex   4.093786e+01 1.096927e+01 1.776068e+01
      vertex   4.093786e+01 1.096927e+01 1.823932e+01
    endloop
  endfacet
  facet normal -2.588190e-01 9.659258e-01 -3.387128e-16
    outer loop
      vertex   4.093786e+01 1.096927e+01 1.823932e+01
      vertex   4.072301e+01 1.091170e+01 1.866312e+01
      vertex   5.000000e+01 1.339746e+01 5.000000e+01
    endloop
  endfacet
  facet normal 1.000000e+00 0.000000e+00 -0.000000e+00
    outer loop
      vertex   5.000000e+01 1.339746e+01 -5.000000e+01
      vertex   5.000000e+01 1.339746e+01 5.000000e+01
      vertex   5.000000e+01 -9.965397e-15 5.000000e+01
    endloop
  endfacet
  facet normal 1.000000e+00 0.000000e+00 0.000000e+00
    outer loop
      vertex   5.000000e+01 -9.965397e-15 5.000000e+01
      vertex   5.000000e+01 -9.965397e-15 -5.000000e+01
      vertex   5.000000e+01 1.339746e+01 -5.000000e+01
    endloop
  endfacet
  facet normal 0.000000e+00 0.000000e+00 1.000000e+00
    outer loop
      vertex   1.072393e-13 -1.387779e-14 5.000000e+01
      vertex   5.000000e+01 -9.965397e-15 5.000000e+01
      vertex   5.000000e+01 1.339746e+01 5.000000e+01
    endloop
  endfacet
  facet normal 0.000000e+00 -0.000000e+00 -1.000000e+00
    outer loop
      vertex   5.000000e+01 1.339746e+01 -5.000000e+01
      vertex   5.000000e+01 -9.965397e-15 -5.000000e+01
      vertex   1.557808e-13 -1.387779e-14 -5.000000e+01
    endloop
  endfacet
  facet normal -9.588831e-01 -2.569320e-01 -1.205367e-01
    outer loop
      vertex   4.390715e+01 -1.044215e-14 1.800000e+01
      vertex   4.387706e+01 -1.044450e-14 1.823932e+01
      vertex   4.093786e+01 1.096927e+01 1.823932e+01
    endloop
  endfacet
  facet normal -8.552848e-01 -2.291729e-01 -4.647232e-01
    outer loop
      vertex   4.093786e+01 1.096927e+01 1.823932e+01
      vertex   4.387706e+01 -1.044450e-14 1.823932e+01
      vertex   4.364679e+01 -1.046252e-14 1.866312e+01
    endloop
  endfacet
  facet normal -8.552848e-01 -2.291729e-01 -4.647232e-01
    outer loop
      vertex   4.364679e+01 -1.046252e-14 1.866312e+01
      vertex   4.072301e+01 1.091170e+01 1.866312e+01
      vertex   4.093786e+01 1.096927e+01 1.823932e+01
    endloop
  endfacet
  facet normal -5.487084e-01 -1.470260e-01 -8.229839e-01
    outer loop
      vertex   4.072301e+01 1.091170e+01 1.866312e+01
      vertex   4.364679e+01 -1.046252e-14 1.866312e+01
      vertex   4.323898e+01 -1.049443e-14 1.893502e+01
    endloop
  endfacet
  facet normal -5.487084e-01 -1.470260e-01 -8.229839e-01
    outer loop
      vertex   4.323898e+01 -1.049443e-14 1.893502e+01
      vertex   4.034252e+01 1.080975e+01 1.893502e+01
      vertex   4.072301e+01 1.091170e+01 1.866312e+01
    endloop
  endfacet
  facet normal -1.164295e-01 -3.119719e-02 -9.927089e-01
    outer loop
      vertex   4.034252e+01 1.080975e+01 1.893502e+01
      vertex   4.323898e+01 -1.049443e-14 1.893502e+01
      vertex   4.274708e+01 -1.053292e-14 1.899271e+01
    endloop
  endfacet
  facet normal -1.164295e-01 -3.119719e-02 -9.927089e-01
    outer loop
      vertex   4.274708e+01 -1.053292e-14 1.899271e+01
      vertex   3.988357e+01 1.068677e+01 1.899271e+01
      vertex   4.034252e+01 1.080975e+01 1.893502e+01
    endloop
  endfacet
  facet normal 3.425220e-01 9.177850e-02 -9.350162e-01
    outer loop
      vertex   3.988357e+01 1.068677e+01 1.899271e+01
      vertex   4.274708e+01 -1.053292e-14 1.899271e+01
      vertex   4.228377e+01 -1.056918e-14 1.882298e+01
    endloop
  endfacet
  facet normal 3.425220e-01 9.177850e-02 -9.350162e-01
    outer loop
      vertex   4.228377e+01 -1.056918e-14 1.882298e+01
      vertex   3.945129e+01 1.057094e+01 1.882298e+01
      vertex   3.988357e+01 1.068677e+01 1.899271e+01
    endloop
  endfacet
  facet normal 7.230059e-01 1.937288e-01 -6.631227e-01
    outer loop
      vertex   3.945129e+01 1.057094e+01 1.882298e+01
      vertex   4.228377e+01 -1.056918e-14 1.882298e+01
      vertex   4.195518e+01 -1.059489e-14 1.846472e+01
    endloop
  endfacet
  facet normal 7.230059e-01 1.937288e-01 -6.631227e-01
    outer loop
      vertex   4.195518e+01 -1.059489e-14 1.846472e+01
      vertex   3.914472e+01 1.048879e+01 1.846472e+01
      vertex   3.945129e+01 1.057094e+01 1.882298e+01
    endloop
  endfacet
  facet normal 9.378578e-01 2.512982e-01 -2.393157e-01
    outer loop
      vertex   3.914472e+01 1.048879e+01 1.846472e+01
      vertex   4.195518e+01 -1.059489e-14 1.846472e+01
      vertex   4.183659e+01 -1.060417e-14 1.800000e+01
    endloop
  endfacet
  facet normal 9.378578e-01 2.512982e-01 -2.393157e-01
    outer loop
      vertex   4.183659e+01 -1.060417e-14 1.800000e+01
      vertex   3.903407e+01 1.045915e+01 1.800000e+01
      vertex   3.914472e+01 1.048879e+01 1.846472e+01
    endloop
  endfacet
  facet normal 9.378578e-01 2.512982e-01 2.393157e-01
    outer loop
      vertex   3.903407e+01 1.045915e+01 1.800000e+01
      vertex   4.183659e+01 -1.060417e-14 1.800000e+01
      vertex   4.195518e+01 -1.059489e-14 1.753528e+01
    endloop
  endfacet
  facet normal 9.378578e-01 2.512982e-01 2.393157e-01
    outer loop
      vertex   4.195518e+01 -1.059489e-14 1.753528e+01
      vertex   3.914472e+01 1.048879e+01 1.753528e+01
      vertex   3.903407e+01 1.045915e+01 1.800000e+01
    endloop
  endfacet
  facet normal 7.230059e-01 1.937288e-01 6.631227e-01
    outer loop
      vertex   3.914472e+01 1.048879e+01 1.753528e+01
      vertex   4.195518e+01 -1.059489e-14 1.753528e+01
      vertex   4.228377e+01 -1.056918e-14 1.717702e+01
    endloop
  endfacet
  facet normal 7.230059e-01 1.937288e-01 6.631227e-01
    outer loop
      vertex   4.228377e+01 -1.056918e-14 1.717702e+01
      vertex   3.945129e+01 1.057094e+01 1.717702e+01
      vertex   3.914472e+01 1.048879e+01 1.753528e+01
    endloop
  endfacet
  facet normal 3.425220e-01 9.177850e-02 9.350162e-01
    outer loop
      vertex   3.945129e+01 1.057094e+01 1.717702e+01
      vertex   4.228377e+01 -1.056918e-14 1.717702e+01
      vertex   4.274708e+01 -1.053292e-14 1.700729e+01
    endloop
  endfacet
  facet normal 3.425220e-01 9.177850e-02 9.350162e-01
    outer loop
      vertex   4.274708e+01 -1.053292e-14 1.700729e+01
      vertex   3.988357e+01 1.068677e+01 1.700729e+01
      vertex   3.945129e+01 1.057094e+01 1.717702e+01
    endloop
  endfacet
  facet normal -1.164295e-01 -3.119719e-02 9.927089e-01
    outer loop
      vertex   3.988357e+01 1.068677e+01 1.700729e+01
      vertex   4.274708e+01 -1.053292e-14 1.700729e+01
      vertex   4.323898e+01 -1.049443e-14 1.706498e+01
    endloop
  endfacet
  facet normal -1.164295e-01 -3.119719e-02 9.927089e-01
    outer loop
      vertex   4.323898e+01 -1.049443e-14 1.706498e+01
      vertex   4.034252e+01 1.080975e+01 1.706498e+01
      vertex   3.988357e+01 1.068677e+01 1.700729e+01
    endloop
  endfacet
  facet normal -5.487084e-01 -1.470260e-01 8.229839e-01
    outer loop
      vertex   4.034252e+01 1.080975e+01 1.706498e+01
      vertex   4.323898e+01 -1.049443e-14 1.706498e+01
      vertex   4.364679e+01 -1.046252e-14 1.733688e+01
    endloop
  endfacet
  facet normal -5.487084e-01 -1.470260e-01 8.229839e-01
    outer loop
      vertex   4.364679e+01 -1.046252e-14 1.733688e+01
      vertex   4.072301e+01 1.091170e+01 1.733688e+01
      vertex   4.034252e+01 1.080975e+01 1.706498e+01
    endloop
  endfacet
  facet normal -8.552848e-01 -2.291729e-01 4.647232e-01
    outer loop
      vertex   4.072301e+01 1.091170e+01 1.733688e+01
      vertex   4.364679e+01 -1.046252e-14 1.733688e+01
      vertex   4.387706e+01 -1.044450e-14 1.776068e+01
    endloop
  endfacet
  facet normal -8.552848e-01 -2.291729e-01 4.647232e-01
    outer loop
      vertex   4.387706e+01 -1.044450e-14 1.776068e+01
      vertex   4.093786e+01 1.096927e+01 1.776068e+01
      vertex   4.072301e+01 1.091170e+01 1.733688e+01
    endloop
  endfacet
  facet normal -9.588831e-01 -2.569320e-01 1.205367e-01
    outer loop
      vertex   4.093786e+01 1.096927e+01 1.776068e+01
      vertex   4.387706e+01 -1.044450e-14 1.776068e+01
      vertex   4.390715e+01 -1.044215e-14 1.800000e+01
    endloop
  endfacet
  facet normal -9.652609e-01 -2.612881e-01 -0.000000e+00
    outer loop
      vertex   4.093786e+01 1.096927e+01 1.823932e+01
      vertex   4.093786e+01 1.096927e+01 1.776068e+01
      vertex   4.390715e+01 -1.044215e-14 1.800000e+01
    endloop
  endfacet
endsolid
