solid ascii
  facet normal 0.000000e+00 1.000000e+00 0.000000e+00
    outer loop
      vertex   4.183109e+01 3.000000e+01 0.000000e+00
      vertex   4.183109e+01 3.000000e+01 1.000000e+01
      vertex   7.183109e+01 3.000000e+01 1.000000e+01
    endloop
  endfacet
  facet normal 0.000000e+00 1.000000e+00 0.000000e+00
    outer loop
      vertex   7.183109e+01 3.000000e+01 1.000000e+01
      vertex   7.183109e+01 3.000000e+01 0.000000e+00
      vertex   4.183109e+01 3.000000e+01 0.000000e+00
    endloop
  endfacet
  facet normal -1.000000e+00 0.000000e+00 0.000000e+00
    outer loop
      vertex   4.183109e+01 5.000000e+00 0.000000e+00
      vertex   4.183109e+01 5.000000e+00 1.000000e+01
      vertex   4.183109e+01 3.000000e+01 1.000000e+01
    endloop
  endfacet
  facet normal -1.000000e+00 0.000000e+00 -0.000000e+00
    outer loop
      vertex   4.183109e+01 3.000000e+01 1.000000e+01
      vertex   4.183109e+01 3.000000e+01 0.000000e+00
      vertex   4.183109e+01 5.000000e+00 0.000000e+00
    endloop
  endfacet
  facet normal -2.119475e-16 1.000000e+00 0.000000e+00
    outer loop
      vertex   5.000000e+00 5.000000e+00 0.000000e+00
      vertex   5.000000e+00 5.000000e+00 1.000000e+01
      vertex   4.183109e+01 5.000000e+00 1.000000e+01
    endloop
  endfacet
  facet normal -2.119475e-16 1.000000e+00 0.000000e+00
    outer loop
      vertex   4.183109e+01 5.000000e+00 1.000000e+01
      vertex   4.183109e+01 5.000000e+00 0.000000e+00
      vertex   5.000000e+00 5.000000e+00 0.000000e+00
    endloop
  endfacet
  facet normal 1.000000e+00 1.734723e-16 -0.000000e+00
    outer loop
      vertex   5.000000e+00 3.000000e+01 0.000000e+00
      vertex   5.000000e+00 3.000000e+01 1.000000e+01
      vertex   5.000000e+00 5.000000e+00 1.000000e+01
    endloop
  endfacet
  facet normal 1.000000e+00 1.734723e-16 0.000000e+00
    outer loop
      vertex   5.000000e+00 5.000000e+00 1.000000e+01
      vertex   5.000000e+00 5.000000e+00 0.000000e+00
      vertex   5.000000e+00 3.000000e+01 0.000000e+00
    endloop
  endfacet
  facet normal 0.000000e+00 1.000000e+00 0.000000e+00
    outer loop
      vertex   0.000000e+00 3.000000e+01 0.000000e+00
      vertex   5.774800e-15 3.000000e+01 1.000000e+01
      vertex   5.000000e+00 3.000000e+01 1.000000e+01
    endloop
  endfacet
  facet normal 0.000000e+00 1.000000e+00 0.000000e+00
    outer loop
      vertex   5.000000e+00 3.000000e+01 1.000000e+01
      vertex   5.000000e+00 3.000000e+01 0.000000e+00
      vertex   0.000000e+00 3.000000e+01 0.000000e+00
    endloop
  endfacet
  facet normal -1.000000e+00 1.924933e-16 0.000000e+00
    outer loop
      vertex   0.000000e+00 0.000000e+00 0.000000e+00
      vertex   0.000000e+00 0.000000e+00 1.000000e+01
      vertex   5.774800e-15 3.000000e+01 1.000000e+01
    endloop
  endfacet
  facet normal -1.000000e+00 0.000000e+00 5.774800e-16
    outer loop
      vertex   5.774800e-15 3.000000e+01 1.000000e+01
      vertex   0.000000e+00 3.000000e+01 0.000000e+00
      vertex   0.000000e+00 0.000000e+00 0.000000e+00
    endloop
  endfacet
  facet normal 0.000000e+00 -1.000000e+00 0.000000e+00
    outer loop
      vertex   4.183109e+01 0.000000e+00 0.000000e+00
      vertex   4.183109e+01 0.000000e+00 1.000000e+01
      vertex   0.000000e+00 0.000000e+00 1.000000e+01
    endloop
  endfacet
  facet normal 0.000000e+00 -1.000000e+00 0.000000e+00
    outer loop
      vertex   0.000000e+00 0.000000e+00 1.000000e+01
      vertex   0.000000e+00 0.000000e+00 0.000000e+00
      vertex   4.183109e+01 0.000000e+00 0.000000e+00
    endloop
  endfacet
  facet normal 1.000000e+00 0.000000e+00 -0.000000e+00
    outer loop
      vertex   7.183109e+01 3.000000e+01 0.000000e+00
      vertex   7.183109e+01 3.000000e+01 1.000000e+01
      vertex   7.183109e+01 1.500000e+01 1.000000e+01
    endloop
  endfacet
  facet normal 1.000000e+00 0.000000e+00 0.000000e+00
    outer loop
      vertex   7.183109e+01 1.500000e+01 1.000000e+01
      vertex   7.183109e+01 1.500000e+01 0.000000e+00
      vertex   7.183109e+01 3.000000e+01 0.000000e+00
    endloop
  endfacet
  facet normal 0.000000e+00 -1.000000e+00 0.000000e+00
    outer loop
      vertex   7.183109e+01 1.500000e+01 0.000000e+00
      vertex   7.183109e+01 1.500000e+01 1.000000e+01
      vertex   4.683109e+01 1.500000e+01 1.000000e+01
    endloop
  endfacet
  facet normal 0.000000e+00 -1.000000e+00 0.000000e+00
    outer loop
      vertex   4.683109e+01 1.500000e+01 1.000000e+01
      vertex   4.683109e+01 1.500000e+01 0.000000e+00
      vertex   7.183109e+01 1.500000e+01 0.000000e+00
    endloop
  endfacet
  facet normal -0.000000e+00 0.000000e+00 1.000000e+00
    outer loop
      vertex   4.183109e+01 5.000000e+00 1.000000e+01
      vertex   4.683109e+01 -2.500000e+01 1.000000e+01
      vertex   4.683109e+01 1.500000e+01 1.000000e+01
    endloop
  endfacet
  facet normal 0.000000e+00 0.000000e+00 1.000000e+00
    outer loop
      vertex   4.683109e+01 1.500000e+01 1.000000e+01
      vertex   7.183109e+01 1.500000e+01 1.000000e+01
      vertex   7.183109e+01 3.000000e+01 1.000000e+01
    endloop
  endfacet
  facet normal 0.000000e+00 0.000000e+00 1.000000e+00
    outer loop
      vertex   7.183109e+01 3.000000e+01 1.000000e+01
      vertex   4.183109e+01 3.000000e+01 1.000000e+01
      vertex   4.683109e+01 1.500000e+01 1.000000e+01
    endloop
  endfacet
  facet normal 0.000000e+00 0.000000e+00 1.000000e+00
    outer loop
      vertex   4.683109e+01 1.500000e+01 1.000000e+01
      vertex   4.183109e+01 3.000000e+01 1.000000e+01
      vertex   4.183109e+01 5.000000e+00 1.000000e+01
    endloop
  endfacet
  facet normal 0.000000e+00 0.000000e+00 1.000000e+00
    outer loop
      vertex   4.183109e+01 0.000000e+00 1.000000e+01
      vertex   4.183109e+01 -2.500000e+01 1.000000e+01
      vertex   4.683109e+01 -2.500000e+01 1.000000e+01
    endloop
  endfacet
  facet normal 0.000000e+00 0.000000e+00 1.000000e+00
    outer loop
      vertex   4.683109e+01 -2.500000e+01 1.000000e+01
      vertex   4.183109e+01 5.000000e+00 1.000000e+01
      vertex   4.183109e+01 0.000000e+00 1.000000e+01
    endloop
  endfacet
  facet normal 0.000000e+00 0.000000e+00 1.000000e+00
    outer loop
      vertex   0.000000e+00 0.000000e+00 1.000000e+01
      vertex   4.183109e+01 0.000000e+00 1.000000e+01
      vertex   4.183109e+01 5.000000e+00 1.000000e+01
    endloop
  endfacet
  facet normal 0.000000e+00 0.000000e+00 1.000000e+00
    outer loop
      vertex   4.183109e+01 5.000000e+00 1.000000e+01
      vertex   5.000000e+00 5.000000e+00 1.000000e+01
      vertex   0.000000e+00 0.000000e+00 1.000000e+01
    endloop
  endfacet
  facet normal 0.000000e+00 0.000000e+00 1.000000e+00
    outer loop
      vertex   5.774800e-15 3.000000e+01 1.000000e+01
      vertex   0.000000e+00 0.000000e+00 1.000000e+01
      vertex   5.000000e+00 5.000000e+00 1.000000e+01
    endloop
  endfacet
  facet normal 0.000000e+00 0.000000e+00 1.000000e+00
    outer loop
      vertex   5.000000e+00 5.000000e+00 1.000000e+01
      vertex   5.000000e+00 3.000000e+01 1.000000e+01
      vertex   5.774800e-15 3.000000e+01 1.000000e+01
    endloop
  endfacet
  facet normal 0.000000e+00 -0.000000e+00 -1.000000e+00
    outer loop
      vertex   4.683109e+01 1.500000e+01 0.000000e+00
      vertex   4.683109e+01 -2.500000e+01 0.000000e+00
      vertex   4.183109e+01 -2.500000e+01 0.000000e+00
    endloop
  endfacet
  facet normal 0.000000e+00 0.000000e+00 -1.000000e+00
    outer loop
      vertex   4.183109e+01 -2.500000e+01 0.000000e+00
      vertex   4.183109e+01 0.000000e+00 0.000000e+00
      vertex   4.683109e+01 1.500000e+01 0.000000e+00
    endloop
  endfacet
  facet normal 0.000000e+00 0.000000e+00 -1.000000e+00
    outer loop
      vertex   0.000000e+00 0.000000e+00 0.000000e+00
      vertex   0.000000e+00 3.000000e+01 0.000000e+00
      vertex   5.000000e+00 3.000000e+01 0.000000e+00
    endloop
  endfacet
  facet normal 0.000000e+00 -0.000000e+00 -1.000000e+00
    outer loop
      vertex   5.000000e+00 3.000000e+01 0.000000e+00
      vertex   5.000000e+00 5.000000e+00 0.000000e+00
      vertex   0.000000e+00 0.000000e+00 0.000000e+00
    endloop
  endfacet
  facet normal 0.000000e+00 0.000000e+00 -1.000000e+00
    outer loop
      vertex   4.183109e+01 0.000000e+00 0.000000e+00
      vertex   0.000000e+00 0.000000e+00 0.000000e+00
      vertex   5.000000e+00 5.000000e+00 0.000000e+00
    endloop
  endfacet
  facet normal 0.000000e+00 0.000000e+00 -1.000000e+00
    outer loop
      vertex   5.000000e+00 5.000000e+00 0.000000e+00
      vertex   4.183109e+01 5.000000e+00 0.000000e+00
      vertex   4.183109e+01 0.000000e+00 0.000000e+00
    endloop
  endfacet
  facet normal 0.000000e+00 0.000000e+00 -1.000000e+00
    outer loop
      vertex   4.183109e+01 5.000000e+00 0.000000e+00
      vertex   4.683109e+01 1.500000e+01 0.000000e+00
      vertex   4.183109e+01 0.000000e+00 0.000000e+00
    endloop
  endfacet
  facet normal -0.000000e+00 0.000000e+00 -1.000000e+00
    outer loop
      vertex   4.683109e+01 1.500000e+01 0.000000e+00
      vertex   4.183109e+01 5.000000e+00 0.000000e+00
      vertex   4.183109e+01 3.000000e+01 0.000000e+00
    endloop
  endfacet
  facet normal 0.000000e+00 0.000000e+00 -1.000000e+00
    outer loop
      vertex   7.183109e+01 1.500000e+01 0.000000e+00
      vertex   4.683109e+01 1.500000e+01 0.000000e+00
      vertex   4.183109e+01 3.000000e+01 0.000000e+00
    endloop
  endfacet
  facet normal 0.000000e+00 0.000000e+00 -1.000000e+00
    outer loop
      vertex   4.183109e+01 3.000000e+01 0.000000e+00
      vertex   7.183109e+01 3.000000e+01 0.000000e+00
      vertex   7.183109e+01 1.500000e+01 0.000000e+00
    endloop
  endfacet
  facet normal 1.000000e+00 0.000000e+00 -0.000000e+00
    outer loop
      vertex   4.683109e+01 1.500000e+01 0.000000e+00
      vertex   4.683109e+01 1.500000e+01 1.000000e+01
      vertex   4.683109e+01 -2.500000e+01 1.000000e+01
    endloop
  endfacet
  facet normal 1.000000e+00 0.000000e+00 0.000000e+00
    outer loop
      vertex   4.683109e+01 -2.500000e+01 1.000000e+01
      vertex   4.683109e+01 -2.500000e+01 0.000000e+00
      vertex   4.683109e+01 1.500000e+01 0.000000e+00
    endloop
  endfacet
  facet normal -1.000000e+00 0.000000e+00 0.000000e+00
    outer loop
      vertex   4.183109e+01 0.000000e+00 0.000000e+00
      vertex   4.183109e+01 -2.500000e+01 0.000000e+00
      vertex   4.183109e+01 -2.500000e+01 1.000000e+01
    endloop
  endfacet
  facet normal -1.000000e+00 0.000000e+00 0.000000e+00
    outer loop
      vertex   4.183109e+01 -2.500000e+01 1.000000e+01
      vertex   4.183109e+01 0.000000e+00 1.000000e+01
      vertex   4.183109e+01 0.000000e+00 0.000000e+00
    endloop
  endfacet
  facet normal 0.000000e+00 -1.000000e+00 0.000000e+00
    outer loop
      vertex   4.183109e+01 -2.500000e+01 0.000000e+00
      vertex   4.683109e+01 -2.500000e+01 0.000000e+00
      vertex   4.683109e+01 -2.500000e+01 1.000000e+01
    endloop
  endfacet
  facet normal -0.000000e+00 -1.000000e+00 0.000000e+00
    outer loop
      vertex   4.683109e+01 -2.500000e+01 1.000000e+01
      vertex   4.183109e+01 -2.500000e+01 1.000000e+01
      vertex   4.183109e+01 -2.500000e+01 0.000000e+00
    endloop
  endfacet
endsolid
