solid ascii
  facet normal 4.647232e-01 -7.010062e-18 -8.854560e-01
    outer loop
      vertex   -4.869108e+00 3.350000e+01 -2.091616e+01
      vertex   -4.233397e+00 3.350000e+01 -2.058252e+01
      vertex   -4.233397e+00 2.850000e+01 -2.058252e+01
    endloop
  endfacet
  facet normal 1.205367e-01 0.000000e+00 -9.927089e-01
    outer loop
      vertex   -4.233397e+00 2.850000e+01 -2.058252e+01
      vertex   -4.233397e+00 3.350000e+01 -2.058252e+01
      vertex   -3.874424e+00 3.350000e+01 -2.053893e+01
    endloop
  endfacet
  facet normal 0.000000e+00 8.717124e-03 -9.999620e-01
    outer loop
      vertex   -3.874424e+00 3.350000e+01 -2.053893e+01
      vertex   -3.515450e+00 2.850000e+01 -2.058252e+01
      vertex   -4.233397e+00 2.850000e+01 -2.058252e+01
    endloop
  endfacet
  facet normal -1.205367e-01 0.000000e+00 -9.927089e-01
    outer loop
      vertex   -3.874424e+00 3.350000e+01 -2.053893e+01
      vertex   -3.515450e+00 3.350000e+01 -2.058252e+01
      vertex   -3.515450e+00 2.850000e+01 -2.058252e+01
    endloop
  endfacet
  facet normal -4.647232e-01 -7.010062e-18 -8.854560e-01
    outer loop
      vertex   -2.879740e+00 2.850000e+01 -2.091616e+01
      vertex   -3.515450e+00 2.850000e+01 -2.058252e+01
      vertex   -3.515450e+00 3.350000e+01 -2.058252e+01
    endloop
  endfacet
  facet normal -4.647232e-01 -7.010062e-18 -8.854560e-01
    outer loop
      vertex   -3.515450e+00 3.350000e+01 -2.058252e+01
      vertex   -2.879740e+00 3.350000e+01 -2.091616e+01
      vertex   -2.879740e+00 2.850000e+01 -2.091616e+01
    endloop
  endfacet
  facet normal -8.229839e-01 0.000000e+00 -5.680647e-01
    outer loop
      vertex   -2.471899e+00 2.850000e+01 -2.150702e+01
      vertex   -2.879740e+00 2.850000e+01 -2.091616e+01
      vertex   -2.879740e+00 3.350000e+01 -2.091616e+01
    endloop
  endfacet
  facet normal -8.229839e-01 0.000000e+00 -5.680647e-01
    outer loop
      vertex   -2.879740e+00 3.350000e+01 -2.091616e+01
      vertex   -2.471899e+00 3.350000e+01 -2.150702e+01
      vertex   -2.471899e+00 2.850000e+01 -2.150702e+01
    endloop
  endfacet
  facet normal -9.927089e-01 0.000000e+00 -1.205367e-01
    outer loop
      vertex   -2.385360e+00 2.850000e+01 -2.221974e+01
      vertex   -2.471899e+00 2.850000e+01 -2.150702e+01
      vertex   -2.471899e+00 3.350000e+01 -2.150702e+01
    endloop
  endfacet
  facet normal -9.927089e-01 0.000000e+00 -1.205367e-01
    outer loop
      vertex   -2.471899e+00 3.350000e+01 -2.150702e+01
      vertex   -2.385360e+00 3.350000e+01 -2.221974e+01
      vertex   -2.385360e+00 2.850000e+01 -2.221974e+01
    endloop
  endfacet
  facet normal -9.350162e-01 0.000000e+00 3.546049e-01
    outer loop
      vertex   -2.639948e+00 2.850000e+01 -2.289103e+01
      vertex   -2.385360e+00 2.850000e+01 -2.221974e+01
      vertex   -2.385360e+00 3.350000e+01 -2.221974e+01
    endloop
  endfacet
  facet normal -9.350162e-01 0.000000e+00 3.546049e-01
    outer loop
      vertex   -2.385360e+00 3.350000e+01 -2.221974e+01
      vertex   -2.639948e+00 3.350000e+01 -2.289103e+01
      vertex   -2.639948e+00 2.850000e+01 -2.289103e+01
    endloop
  endfacet
  facet normal -6.631227e-01 0.000000e+00 7.485107e-01
    outer loop
      vertex   -3.177339e+00 2.850000e+01 -2.336711e+01
      vertex   -2.639948e+00 2.850000e+01 -2.289103e+01
      vertex   -2.639948e+00 3.350000e+01 -2.289103e+01
    endloop
  endfacet
  facet normal -6.631227e-01 0.000000e+00 7.485107e-01
    outer loop
      vertex   -2.639948e+00 3.350000e+01 -2.289103e+01
      vertex   -3.177339e+00 3.350000e+01 -2.336711e+01
      vertex   -3.177339e+00 2.850000e+01 -2.336711e+01
    endloop
  endfacet
  facet normal -2.393157e-01 0.000000e+00 9.709418e-01
    outer loop
      vertex   -3.874424e+00 2.850000e+01 -2.353893e+01
      vertex   -3.177339e+00 2.850000e+01 -2.336711e+01
      vertex   -3.177339e+00 3.350000e+01 -2.336711e+01
    endloop
  endfacet
  facet normal -2.393157e-01 2.103019e-17 9.709418e-01
    outer loop
      vertex   -3.177339e+00 3.350000e+01 -2.336711e+01
      vertex   -3.874424e+00 3.350000e+01 -2.353893e+01
      vertex   -3.874424e+00 2.850000e+01 -2.353893e+01
    endloop
  endfacet
  facet normal 2.393157e-01 -2.103019e-17 9.709418e-01
    outer loop
      vertex   -4.571508e+00 2.850000e+01 -2.336711e+01
      vertex   -3.874424e+00 2.850000e+01 -2.353893e+01
      vertex   -3.874424e+00 3.350000e+01 -2.353893e+01
    endloop
  endfacet
  facet normal 2.393157e-01 7.010062e-18 9.709418e-01
    outer loop
      vertex   -3.874424e+00 3.350000e+01 -2.353893e+01
      vertex   -4.571508e+00 3.350000e+01 -2.336711e+01
      vertex   -4.571508e+00 2.850000e+01 -2.336711e+01
    endloop
  endfacet
  facet normal 6.631227e-01 -1.402012e-17 7.485107e-01
    outer loop
      vertex   -5.108899e+00 2.850000e+01 -2.289103e+01
      vertex   -4.571508e+00 2.850000e+01 -2.336711e+01
      vertex   -4.571508e+00 3.350000e+01 -2.336711e+01
    endloop
  endfacet
  facet normal 6.631227e-01 -1.402012e-17 7.485107e-01
    outer loop
      vertex   -4.571508e+00 3.350000e+01 -2.336711e+01
      vertex   -5.108899e+00 3.350000e+01 -2.289103e+01
      vertex   -5.108899e+00 2.850000e+01 -2.289103e+01
    endloop
  endfacet
  facet normal 9.350162e-01 0.000000e+00 3.546049e-01
    outer loop
      vertex   -5.363487e+00 2.850000e+01 -2.221974e+01
      vertex   -5.108899e+00 2.850000e+01 -2.289103e+01
      vertex   -5.108899e+00 3.350000e+01 -2.289103e+01
    endloop
  endfacet
  facet normal 9.350162e-01 0.000000e+00 3.546049e-01
    outer loop
      vertex   -5.108899e+00 3.350000e+01 -2.289103e+01
      vertex   -5.363487e+00 3.350000e+01 -2.221974e+01
      vertex   -5.363487e+00 2.850000e+01 -2.221974e+01
    endloop
  endfacet
  facet normal 9.927089e-01 3.505031e-18 -1.205367e-01
    outer loop
      vertex   -5.276948e+00 2.850000e+01 -2.150702e+01
      vertex   -5.363487e+00 2.850000e+01 -2.221974e+01
      vertex   -5.363487e+00 3.350000e+01 -2.221974e+01
    endloop
  endfacet
  facet normal 9.927089e-01 3.505031e-18 -1.205367e-01
    outer loop
      vertex   -5.363487e+00 3.350000e+01 -2.221974e+01
      vertex   -5.276948e+00 3.350000e+01 -2.150702e+01
      vertex   -5.276948e+00 2.850000e+01 -2.150702e+01
    endloop
  endfacet
  facet normal 8.229839e-01 0.000000e+00 -5.680647e-01
    outer loop
      vertex   -4.869108e+00 2.850000e+01 -2.091616e+01
      vertex   -5.276948e+00 2.850000e+01 -2.150702e+01
      vertex   -5.276948e+00 3.350000e+01 -2.150702e+01
    endloop
  endfacet
  facet normal 8.229839e-01 0.000000e+00 -5.680647e-01
    outer loop
      vertex   -5.276948e+00 3.350000e+01 -2.150702e+01
      vertex   -4.869108e+00 3.350000e+01 -2.091616e+01
      vertex   -4.869108e+00 2.850000e+01 -2.091616e+01
    endloop
  endfacet
  facet normal 4.647232e-01 -7.010062e-18 -8.854560e-01
    outer loop
      vertex   -4.233397e+00 2.850000e+01 -2.058252e+01
      vertex   -4.869108e+00 2.850000e+01 -2.091616e+01
      vertex   -4.869108e+00 3.350000e+01 -2.091616e+01
    endloop
  endfacet
  facet normal 0.000000e+00 1.000000e+00 -0.000000e+00
    outer loop
      vertex   1.527695e+01 3.350000e+01 -2.150702e+01
      vertex   1.486911e+01 3.350000e+01 -2.091616e+01
      vertex   2.250000e+01 3.350000e+01 2.750000e+00
    endloop
  endfacet
  facet normal 0.000000e+00 1.000000e+00 0.000000e+00
    outer loop
      vertex   -1.250000e+01 3.350000e+01 2.750000e+00
      vertex   -3.874424e+00 3.350000e+01 -2.053893e+01
      vertex   -4.233397e+00 3.350000e+01 -2.058252e+01
    endloop
  endfacet
  facet normal 0.000000e+00 1.000000e+00 0.000000e+00
    outer loop
      vertex   2.250000e+01 3.350000e+01 2.750000e+00
      vertex   1.486911e+01 3.350000e+01 -2.091616e+01
      vertex   1.423340e+01 3.350000e+01 -2.058252e+01
    endloop
  endfacet
  facet normal 0.000000e+00 1.000000e+00 -0.000000e+00
    outer loop
      vertex   1.423340e+01 3.350000e+01 -2.058252e+01
      vertex   1.387442e+01 3.350000e+01 -2.053893e+01
      vertex   2.250000e+01 3.350000e+01 2.750000e+00
    endloop
  endfacet
  facet normal -0.000000e+00 1.000000e+00 0.000000e+00
    outer loop
      vertex   -1.250000e+01 3.350000e+01 2.750000e+00
      vertex   2.250000e+01 3.350000e+01 2.750000e+00
      vertex   1.387442e+01 3.350000e+01 -2.053893e+01
    endloop
  endfacet
  facet normal 0.000000e+00 1.000000e+00 0.000000e+00
    outer loop
      vertex   1.387442e+01 3.350000e+01 -2.053893e+01
      vertex   1.351545e+01 3.350000e+01 -2.058252e+01
      vertex   -1.250000e+01 3.350000e+01 2.750000e+00
    endloop
  endfacet
  facet normal 0.000000e+00 1.000000e+00 0.000000e+00
    outer loop
      vertex   1.351545e+01 3.350000e+01 -2.058252e+01
      vertex   1.287974e+01 3.350000e+01 -2.091616e+01
      vertex   -1.250000e+01 3.350000e+01 2.750000e+00
    endloop
  endfacet
  facet normal 0.000000e+00 1.000000e+00 0.000000e+00
    outer loop
      vertex   -1.250000e+01 3.350000e+01 -2.725000e+01
      vertex   -5.108899e+00 3.350000e+01 -2.289103e+01
      vertex   -4.571508e+00 3.350000e+01 -2.336711e+01
    endloop
  endfacet
  facet normal 0.000000e+00 1.000000e+00 0.000000e+00
    outer loop
      vertex   -4.571508e+00 3.350000e+01 -2.336711e+01
      vertex   -3.874424e+00 3.350000e+01 -2.353893e+01
      vertex   -1.250000e+01 3.350000e+01 -2.725000e+01
    endloop
  endfacet
  facet normal 0.000000e+00 1.000000e+00 0.000000e+00
    outer loop
      vertex   2.250000e+01 3.350000e+01 -2.725000e+01
      vertex   -1.250000e+01 3.350000e+01 -2.725000e+01
      vertex   -3.874424e+00 3.350000e+01 -2.353893e+01
    endloop
  endfacet
  facet normal -0.000000e+00 1.000000e+00 0.000000e+00
    outer loop
      vertex   -3.874424e+00 3.350000e+01 -2.353893e+01
      vertex   -3.177339e+00 3.350000e+01 -2.336711e+01
      vertex   2.250000e+01 3.350000e+01 -2.725000e+01
    endloop
  endfacet
  facet normal -0.000000e+00 1.000000e+00 0.000000e+00
    outer loop
      vertex   -3.177339e+00 3.350000e+01 -2.336711e+01
      vertex   -2.639948e+00 3.350000e+01 -2.289103e+01
      vertex   2.250000e+01 3.350000e+01 -2.725000e+01
    endloop
  endfacet
  facet normal 0.000000e+00 1.000000e+00 -0.000000e+00
    outer loop
      vertex   1.536349e+01 3.350000e+01 -2.221974e+01
      vertex   1.527695e+01 3.350000e+01 -2.150702e+01
      vertex   2.250000e+01 3.350000e+01 2.750000e+00
    endloop
  endfacet
  facet normal 0.000000e+00 1.000000e+00 0.000000e+00
    outer loop
      vertex   2.250000e+01 3.350000e+01 2.750000e+00
      vertex   2.250000e+01 3.350000e+01 -2.725000e+01
      vertex   1.536349e+01 3.350000e+01 -2.221974e+01
    endloop
  endfacet
  facet normal 0.000000e+00 1.000000e+00 0.000000e+00
    outer loop
      vertex   2.250000e+01 3.350000e+01 -2.725000e+01
      vertex   1.510890e+01 3.350000e+01 -2.289103e+01
      vertex   1.536349e+01 3.350000e+01 -2.221974e+01
    endloop
  endfacet
  facet normal 0.000000e+00 1.000000e+00 0.000000e+00
    outer loop
      vertex   -4.233397e+00 3.350000e+01 -2.058252e+01
      vertex   -4.869108e+00 3.350000e+01 -2.091616e+01
      vertex   -1.250000e+01 3.350000e+01 2.750000e+00
    endloop
  endfacet
  facet normal 0.000000e+00 1.000000e+00 0.000000e+00
    outer loop
      vertex   -1.250000e+01 3.350000e+01 2.750000e+00
      vertex   -4.869108e+00 3.350000e+01 -2.091616e+01
      vertex   -5.276948e+00 3.350000e+01 -2.150702e+01
    endloop
  endfacet
  facet normal 0.000000e+00 1.000000e+00 0.000000e+00
    outer loop
      vertex   -1.250000e+01 3.350000e+01 -2.725000e+01
      vertex   -1.250000e+01 3.350000e+01 2.750000e+00
      vertex   -5.276948e+00 3.350000e+01 -2.150702e+01
    endloop
  endfacet
  facet normal 0.000000e+00 1.000000e+00 0.000000e+00
    outer loop
      vertex   -5.276948e+00 3.350000e+01 -2.150702e+01
      vertex   -5.363487e+00 3.350000e+01 -2.221974e+01
      vertex   -1.250000e+01 3.350000e+01 -2.725000e+01
    endloop
  endfacet
  facet normal 0.000000e+00 1.000000e+00 0.000000e+00
    outer loop
      vertex   -5.363487e+00 3.350000e+01 -2.221974e+01
      vertex   -5.108899e+00 3.350000e+01 -2.289103e+01
      vertex   -1.250000e+01 3.350000e+01 -2.725000e+01
    endloop
  endfacet
  facet normal -0.000000e+00 1.000000e+00 0.000000e+00
    outer loop
      vertex   -2.639948e+00 3.350000e+01 -2.289103e+01
      vertex   1.263995e+01 3.350000e+01 -2.289103e+01
      vertex   1.317734e+01 3.350000e+01 -2.336711e+01
    endloop
  endfacet
  facet normal 0.000000e+00 1.000000e+00 0.000000e+00
    outer loop
      vertex   -2.639948e+00 3.350000e+01 -2.289103e+01
      vertex   1.317734e+01 3.350000e+01 -2.336711e+01
      vertex   1.387442e+01 3.350000e+01 -2.353893e+01
    endloop
  endfacet
  facet normal 0.000000e+00 1.000000e+00 0.000000e+00
    outer loop
      vertex   1.387442e+01 3.350000e+01 -2.353893e+01
      vertex   2.250000e+01 3.350000e+01 -2.725000e+01
      vertex   -2.639948e+00 3.350000e+01 -2.289103e+01
    endloop
  endfacet
  facet normal 0.000000e+00 1.000000e+00 0.000000e+00
    outer loop
      vertex   2.250000e+01 3.350000e+01 -2.725000e+01
      vertex   1.387442e+01 3.350000e+01 -2.353893e+01
      vertex   1.457151e+01 3.350000e+01 -2.336711e+01
    endloop
  endfacet
  facet normal -0.000000e+00 1.000000e+00 0.000000e+00
    outer loop
      vertex   1.457151e+01 3.350000e+01 -2.336711e+01
      vertex   1.510890e+01 3.350000e+01 -2.289103e+01
      vertex   2.250000e+01 3.350000e+01 -2.725000e+01
    endloop
  endfacet
  facet normal 0.000000e+00 1.000000e+00 0.000000e+00
    outer loop
      vertex   1.238536e+01 3.350000e+01 -2.221974e+01
      vertex   1.263995e+01 3.350000e+01 -2.289103e+01
      vertex   -2.639948e+00 3.350000e+01 -2.289103e+01
    endloop
  endfacet
  facet normal 0.000000e+00 1.000000e+00 0.000000e+00
    outer loop
      vertex   1.238536e+01 3.350000e+01 -2.221974e+01
      vertex   -2.639948e+00 3.350000e+01 -2.289103e+01
      vertex   -2.385360e+00 3.350000e+01 -2.221974e+01
    endloop
  endfacet
  facet normal 0.000000e+00 1.000000e+00 0.000000e+00
    outer loop
      vertex   1.247190e+01 3.350000e+01 -2.150702e+01
      vertex   1.238536e+01 3.350000e+01 -2.221974e+01
      vertex   -2.385360e+00 3.350000e+01 -2.221974e+01
    endloop
  endfacet
  facet normal 0.000000e+00 1.000000e+00 -0.000000e+00
    outer loop
      vertex   -2.385360e+00 3.350000e+01 -2.221974e+01
      vertex   -2.471899e+00 3.350000e+01 -2.150702e+01
      vertex   1.247190e+01 3.350000e+01 -2.150702e+01
    endloop
  endfacet
  facet normal 0.000000e+00 1.000000e+00 0.000000e+00
    outer loop
      vertex   -2.471899e+00 3.350000e+01 -2.150702e+01
      vertex   1.287974e+01 3.350000e+01 -2.091616e+01
      vertex   1.247190e+01 3.350000e+01 -2.150702e+01
    endloop
  endfacet
  facet normal 0.000000e+00 1.000000e+00 -0.000000e+00
    outer loop
      vertex   -2.471899e+00 3.350000e+01 -2.150702e+01
      vertex   -2.879740e+00 3.350000e+01 -2.091616e+01
      vertex   1.287974e+01 3.350000e+01 -2.091616e+01
    endloop
  endfacet
  facet normal 0.000000e+00 1.000000e+00 0.000000e+00
    outer loop
      vertex   -1.250000e+01 3.350000e+01 2.750000e+00
      vertex   1.287974e+01 3.350000e+01 -2.091616e+01
      vertex   -2.879740e+00 3.350000e+01 -2.091616e+01
    endloop
  endfacet
  facet normal 0.000000e+00 1.000000e+00 0.000000e+00
    outer loop
      vertex   -2.879740e+00 3.350000e+01 -2.091616e+01
      vertex   -3.515450e+00 3.350000e+01 -2.058252e+01
      vertex   -1.250000e+01 3.350000e+01 2.750000e+00
    endloop
  endfacet
  facet normal 0.000000e+00 1.000000e+00 0.000000e+00
    outer loop
      vertex   -3.515450e+00 3.350000e+01 -2.058252e+01
      vertex   -3.874424e+00 3.350000e+01 -2.053893e+01
      vertex   -1.250000e+01 3.350000e+01 2.750000e+00
    endloop
  endfacet
  facet normal 0.000000e+00 0.000000e+00 -1.000000e+00
    outer loop
      vertex   2.250000e+01 2.850000e+01 -2.725000e+01
      vertex   -1.250000e+01 2.850000e+01 -2.725000e+01
      vertex   -1.250000e+01 3.350000e+01 -2.725000e+01
    endloop
  endfacet
  facet normal 0.000000e+00 0.000000e+00 -1.000000e+00
    outer loop
      vertex   -1.250000e+01 3.350000e+01 -2.725000e+01
      vertex   2.250000e+01 3.350000e+01 -2.725000e+01
      vertex   2.250000e+01 2.850000e+01 -2.725000e+01
    endloop
  endfacet
  facet normal 4.647232e-01 -7.010062e-18 -8.854560e-01
    outer loop
      vertex   1.287974e+01 3.350000e+01 -2.091616e+01
      vertex   1.351545e+01 3.350000e+01 -2.058252e+01
      vertex   1.351545e+01 2.850000e+01 -2.058252e+01
    endloop
  endfacet
  facet normal 1.205367e-01 0.000000e+00 -9.927089e-01
    outer loop
      vertex   1.351545e+01 2.850000e+01 -2.058252e+01
      vertex   1.351545e+01 3.350000e+01 -2.058252e+01
      vertex   1.387442e+01 3.350000e+01 -2.053893e+01
    endloop
  endfacet
  facet normal 0.000000e+00 8.717124e-03 -9.999620e-01
    outer loop
      vertex   1.387442e+01 3.350000e+01 -2.053893e+01
      vertex   1.423340e+01 2.850000e+01 -2.058252e+01
      vertex   1.351545e+01 2.850000e+01 -2.058252e+01
    endloop
  endfacet
  facet normal -1.205367e-01 0.000000e+00 -9.927089e-01
    outer loop
      vertex   1.387442e+01 3.350000e+01 -2.053893e+01
      vertex   1.423340e+01 3.350000e+01 -2.058252e+01
      vertex   1.423340e+01 2.850000e+01 -2.058252e+01
    endloop
  endfacet
  facet normal -4.647232e-01 0.000000e+00 -8.854560e-01
    outer loop
      vertex   1.486911e+01 2.850000e+01 -2.091616e+01
      vertex   1.423340e+01 2.850000e+01 -2.058252e+01
      vertex   1.423340e+01 3.350000e+01 -2.058252e+01
    endloop
  endfacet
  facet normal -4.647232e-01 0.000000e+00 -8.854560e-01
    outer loop
      vertex   1.423340e+01 3.350000e+01 -2.058252e+01
      vertex   1.486911e+01 3.350000e+01 -2.091616e+01
      vertex   1.486911e+01 2.850000e+01 -2.091616e+01
    endloop
  endfacet
  facet normal -8.229839e-01 0.000000e+00 -5.680647e-01
    outer loop
      vertex   1.527695e+01 2.850000e+01 -2.150702e+01
      vertex   1.486911e+01 2.850000e+01 -2.091616e+01
      vertex   1.486911e+01 3.350000e+01 -2.091616e+01
    endloop
  endfacet
  facet normal -8.229839e-01 0.000000e+00 -5.680647e-01
    outer loop
      vertex   1.486911e+01 3.350000e+01 -2.091616e+01
      vertex   1.527695e+01 3.350000e+01 -2.150702e+01
      vertex   1.527695e+01 2.850000e+01 -2.150702e+01
    endloop
  endfacet
  facet normal -9.927089e-01 -3.505031e-18 -1.205367e-01
    outer loop
      vertex   1.536349e+01 2.850000e+01 -2.221974e+01
      vertex   1.527695e+01 2.850000e+01 -2.150702e+01
      vertex   1.527695e+01 3.350000e+01 -2.150702e+01
    endloop
  endfacet
  facet normal -9.927089e-01 -3.505031e-18 -1.205367e-01
    outer loop
      vertex   1.527695e+01 3.350000e+01 -2.150702e+01
      vertex   1.536349e+01 3.350000e+01 -2.221974e+01
      vertex   1.536349e+01 2.850000e+01 -2.221974e+01
    endloop
  endfacet
  facet normal -9.350162e-01 0.000000e+00 3.546049e-01
    outer loop
      vertex   1.510890e+01 2.850000e+01 -2.289103e+01
      vertex   1.536349e+01 2.850000e+01 -2.221974e+01
      vertex   1.536349e+01 3.350000e+01 -2.221974e+01
    endloop
  endfacet
  facet normal -9.350162e-01 0.000000e+00 3.546049e-01
    outer loop
      vertex   1.536349e+01 3.350000e+01 -2.221974e+01
      vertex   1.510890e+01 3.350000e+01 -2.289103e+01
      vertex   1.510890e+01 2.850000e+01 -2.289103e+01
    endloop
  endfacet
  facet normal -6.631227e-01 0.000000e+00 7.485107e-01
    outer loop
      vertex   1.457151e+01 2.850000e+01 -2.336711e+01
      vertex   1.510890e+01 2.850000e+01 -2.289103e+01
      vertex   1.510890e+01 3.350000e+01 -2.289103e+01
    endloop
  endfacet
  facet normal -6.631227e-01 0.000000e+00 7.485107e-01
    outer loop
      vertex   1.510890e+01 3.350000e+01 -2.289103e+01
      vertex   1.457151e+01 3.350000e+01 -2.336711e+01
      vertex   1.457151e+01 2.850000e+01 -2.336711e+01
    endloop
  endfacet
  facet normal -2.393157e-01 7.010062e-18 9.709418e-01
    outer loop
      vertex   1.387442e+01 2.850000e+01 -2.353893e+01
      vertex   1.457151e+01 2.850000e+01 -2.336711e+01
      vertex   1.457151e+01 3.350000e+01 -2.336711e+01
    endloop
  endfacet
  facet normal -2.393157e-01 7.010062e-18 9.709418e-01
    outer loop
      vertex   1.457151e+01 3.350000e+01 -2.336711e+01
      vertex   1.387442e+01 3.350000e+01 -2.353893e+01
      vertex   1.387442e+01 2.850000e+01 -2.353893e+01
    endloop
  endfacet
  facet normal 2.393157e-01 -7.010062e-18 9.709418e-01
    outer loop
      vertex   1.317734e+01 2.850000e+01 -2.336711e+01
      vertex   1.387442e+01 2.850000e+01 -2.353893e+01
      vertex   1.387442e+01 3.350000e+01 -2.353893e+01
    endloop
  endfacet
  facet normal 2.393157e-01 -7.010062e-18 9.709418e-01
    outer loop
      vertex   1.387442e+01 3.350000e+01 -2.353893e+01
      vertex   1.317734e+01 3.350000e+01 -2.336711e+01
      vertex   1.317734e+01 2.850000e+01 -2.336711e+01
    endloop
  endfacet
  facet normal 6.631227e-01 -1.402012e-17 7.485107e-01
    outer loop
      vertex   1.263995e+01 2.850000e+01 -2.289103e+01
      vertex   1.317734e+01 2.850000e+01 -2.336711e+01
      vertex   1.317734e+01 3.350000e+01 -2.336711e+01
    endloop
  endfacet
  facet normal 6.631227e-01 -1.402012e-17 7.485107e-01
    outer loop
      vertex   1.317734e+01 3.350000e+01 -2.336711e+01
      vertex   1.263995e+01 3.350000e+01 -2.289103e+01
      vertex   1.263995e+01 2.850000e+01 -2.289103e+01
    endloop
  endfacet
  facet normal 9.350162e-01 0.000000e+00 3.546049e-01
    outer loop
      vertex   1.238536e+01 2.850000e+01 -2.221974e+01
      vertex   1.263995e+01 2.850000e+01 -2.289103e+01
      vertex   1.263995e+01 3.350000e+01 -2.289103e+01
    endloop
  endfacet
  facet normal 9.350162e-01 0.000000e+00 3.546049e-01
    outer loop
      vertex   1.263995e+01 3.350000e+01 -2.289103e+01
      vertex   1.238536e+01 3.350000e+01 -2.221974e+01
      vertex   1.238536e+01 2.850000e+01 -2.221974e+01
    endloop
  endfacet
  facet normal 9.927089e-01 3.505031e-18 -1.205367e-01
    outer loop
      vertex   1.247190e+01 2.850000e+01 -2.150702e+01
      vertex   1.238536e+01 2.850000e+01 -2.221974e+01
      vertex   1.238536e+01 3.350000e+01 -2.221974e+01
    endloop
  endfacet
  facet normal 9.927089e-01 3.505031e-18 -1.205367e-01
    outer loop
      vertex   1.238536e+01 3.350000e+01 -2.221974e+01
      vertex   1.247190e+01 3.350000e+01 -2.150702e+01
      vertex   1.247190e+01 2.850000e+01 -2.150702e+01
    endloop
  endfacet
  facet normal 8.229839e-01 0.000000e+00 -5.680647e-01
    outer loop
      vertex   1.287974e+01 2.850000e+01 -2.091616e+01
      vertex   1.247190e+01 2.850000e+01 -2.150702e+01
      vertex   1.247190e+01 3.350000e+01 -2.150702e+01
    endloop
  endfacet
  facet normal 8.229839e-01 0.000000e+00 -5.680647e-01
    outer loop
      vertex   1.247190e+01 3.350000e+01 -2.150702e+01
      vertex   1.287974e+01 3.350000e+01 -2.091616e+01
      vertex   1.287974e+01 2.850000e+01 -2.091616e+01
    endloop
  endfacet
  facet normal 4.647232e-01 -7.010062e-18 -8.854560e-01
    outer loop
      vertex   1.351545e+01 2.850000e+01 -2.058252e+01
      vertex   1.287974e+01 2.850000e+01 -2.091616e+01
      vertex   1.287974e+01 3.350000e+01 -2.091616e+01
    endloop
  endfacet
  facet normal 0.000000e+00 0.000000e+00 1.000000e+00
    outer loop
      vertex   -1.250000e+01 3.500000e+00 2.750000e+00
      vertex   2.250000e+01 3.500000e+00 2.750000e+00
      vertex   2.250000e+01 3.350000e+01 2.750000e+00
    endloop
  endfacet
  facet normal 0.000000e+00 0.000000e+00 1.000000e+00
    outer loop
      vertex   2.250000e+01 3.350000e+01 2.750000e+00
      vertex   -1.250000e+01 3.350000e+01 2.750000e+00
      vertex   -1.250000e+01 3.500000e+00 2.750000e+00
    endloop
  endfacet
  facet normal -1.000000e+00 6.938894e-17 0.000000e+00
    outer loop
      vertex   -1.250000e+01 2.850000e+01 -2.250000e+00
      vertex   -1.250000e+01 3.500000e+00 -2.250000e+00
      vertex   -1.250000e+01 3.500000e+00 2.750000e+00
    endloop
  endfacet
  facet normal -1.000000e+00 0.000000e+00 -3.469447e-16
    outer loop
      vertex   -1.250000e+01 3.500000e+00 2.750000e+00
      vertex   -1.250000e+01 3.350000e+01 2.750000e+00
      vertex   -1.250000e+01 2.850000e+01 -2.250000e+00
    endloop
  endfacet
  facet normal -1.000000e+00 -4.163336e-16 6.938894e-17
    outer loop
      vertex   -1.250000e+01 2.850000e+01 -2.725000e+01
      vertex   -1.250000e+01 2.850000e+01 -2.250000e+00
      vertex   -1.250000e+01 3.350000e+01 2.750000e+00
    endloop
  endfacet
  facet normal -1.000000e+00 0.000000e+00 -0.000000e+00
    outer loop
      vertex   -1.250000e+01 3.350000e+01 2.750000e+00
      vertex   -1.250000e+01 3.350000e+01 -2.725000e+01
      vertex   -1.250000e+01 2.850000e+01 -2.725000e+01
    endloop
  endfacet
  facet normal 1.000000e+00 0.000000e+00 1.387779e-16
    outer loop
      vertex   2.250000e+01 2.850000e+01 -2.250000e+00
      vertex   2.250000e+01 2.850000e+01 -2.725000e+01
      vertex   2.250000e+01 3.350000e+01 -2.725000e+01
    endloop
  endfacet
  facet normal 1.000000e+00 -6.938894e-16 0.000000e+00
    outer loop
      vertex   2.250000e+01 3.350000e+01 -2.725000e+01
      vertex   2.250000e+01 3.350000e+01 2.750000e+00
      vertex   2.250000e+01 2.850000e+01 -2.250000e+00
    endloop
  endfacet
  facet normal 1.000000e+00 1.387779e-16 -8.326673e-16
    outer loop
      vertex   2.250000e+01 3.500000e+00 -2.250000e+00
      vertex   2.250000e+01 2.850000e+01 -2.250000e+00
      vertex   2.250000e+01 3.350000e+01 2.750000e+00
    endloop
  endfacet
  facet normal 1.000000e+00 0.000000e+00 0.000000e+00
    outer loop
      vertex   2.250000e+01 3.350000e+01 2.750000e+00
      vertex   2.250000e+01 3.500000e+00 2.750000e+00
      vertex   2.250000e+01 3.500000e+00 -2.250000e+00
    endloop
  endfacet
  facet normal -4.956353e-17 -1.000000e+00 4.357882e-32
    outer loop
      vertex   -1.250000e+01 3.500000e+00 -2.250000e+00
      vertex   2.250000e+01 3.500000e+00 -2.250000e+00
      vertex   2.250000e+01 3.500000e+00 2.750000e+00
    endloop
  endfacet
  facet normal -0.000000e+00 -1.000000e+00 -3.469447e-16
    outer loop
      vertex   2.250000e+01 3.500000e+00 2.750000e+00
      vertex   -1.250000e+01 3.500000e+00 2.750000e+00
      vertex   -1.250000e+01 3.500000e+00 -2.250000e+00
    endloop
  endfacet
  facet normal 0.000000e+00 -1.000000e+00 0.000000e+00
    outer loop
      vertex   2.250000e+01 2.850000e+01 -2.725000e+01
      vertex   2.250000e+01 2.850000e+01 -2.250000e+00
      vertex   1.750000e+01 2.850000e+01 -2.250000e+00
    endloop
  endfacet
  facet normal 0.000000e+00 -1.000000e+00 0.000000e+00
    outer loop
      vertex   1.750000e+01 2.850000e+01 -2.250000e+00
      vertex   1.750000e+01 2.850000e+01 -1.725000e+01
      vertex   2.250000e+01 2.850000e+01 -2.725000e+01
    endloop
  endfacet
  facet normal 0.000000e+00 -1.000000e+00 0.000000e+00
    outer loop
      vertex   -7.500000e+00 2.850000e+01 -1.725000e+01
      vertex   -7.500000e+00 2.850000e+01 -2.250000e+00
      vertex   -1.250000e+01 2.850000e+01 -2.250000e+00
    endloop
  endfacet
  facet normal 0.000000e+00 -1.000000e+00 -0.000000e+00
    outer loop
      vertex   -1.250000e+01 2.850000e+01 -2.250000e+00
      vertex   -1.250000e+01 2.850000e+01 -2.725000e+01
      vertex   -7.500000e+00 2.850000e+01 -1.725000e+01
    endloop
  endfacet
  facet normal 0.000000e+00 -1.000000e+00 -0.000000e+00
    outer loop
      vertex   -2.385360e+00 2.850000e+01 -2.221974e+01
      vertex   -2.639948e+00 2.850000e+01 -2.289103e+01
      vertex   2.250000e+01 2.850000e+01 -2.725000e+01
    endloop
  endfacet
  facet normal 0.000000e+00 -1.000000e+00 0.000000e+00
    outer loop
      vertex   1.750000e+01 2.850000e+01 -1.725000e+01
      vertex   1.486911e+01 2.850000e+01 -2.091616e+01
      vertex   1.527695e+01 2.850000e+01 -2.150702e+01
    endloop
  endfacet
  facet normal 0.000000e+00 -1.000000e+00 0.000000e+00
    outer loop
      vertex   1.317734e+01 2.850000e+01 -2.336711e+01
      vertex   -2.488474e-01 2.850000e+01 -1.725000e+01
      vertex   -2.879740e+00 2.850000e+01 -2.091616e+01
    endloop
  endfacet
  facet normal 0.000000e+00 -1.000000e+00 0.000000e+00
    outer loop
      vertex   -2.488474e-01 2.850000e+01 -1.725000e+01
      vertex   1.317734e+01 2.850000e+01 -2.336711e+01
      vertex   1.263995e+01 2.850000e+01 -2.289103e+01
    endloop
  endfacet
  facet normal 0.000000e+00 -1.000000e+00 0.000000e+00
    outer loop
      vertex   1.263995e+01 2.850000e+01 -2.289103e+01
      vertex   1.238536e+01 2.850000e+01 -2.221974e+01
      vertex   -2.488474e-01 2.850000e+01 -1.725000e+01
    endloop
  endfacet
  facet normal 0.000000e+00 -1.000000e+00 0.000000e+00
    outer loop
      vertex   -5.363487e+00 2.850000e+01 -2.221974e+01
      vertex   -5.276948e+00 2.850000e+01 -2.150702e+01
      vertex   -7.500000e+00 2.850000e+01 -1.725000e+01
    endloop
  endfacet
  facet normal 0.000000e+00 -1.000000e+00 -0.000000e+00
    outer loop
      vertex   -7.500000e+00 2.850000e+01 -1.725000e+01
      vertex   -1.250000e+01 2.850000e+01 -2.725000e+01
      vertex   -5.363487e+00 2.850000e+01 -2.221974e+01
    endloop
  endfacet
  facet normal -0.000000e+00 -1.000000e+00 0.000000e+00
    outer loop
      vertex   -5.108899e+00 2.850000e+01 -2.289103e+01
      vertex   -5.363487e+00 2.850000e+01 -2.221974e+01
      vertex   -1.250000e+01 2.850000e+01 -2.725000e+01
    endloop
  endfacet
  facet normal 0.000000e+00 -1.000000e+00 0.000000e+00
    outer loop
      vertex   -2.879740e+00 2.850000e+01 -2.091616e+01
      vertex   -2.471899e+00 2.850000e+01 -2.150702e+01
      vertex   1.317734e+01 2.850000e+01 -2.336711e+01
    endloop
  endfacet
  facet normal 0.000000e+00 -1.000000e+00 0.000000e+00
    outer loop
      vertex   1.317734e+01 2.850000e+01 -2.336711e+01
      vertex   -2.471899e+00 2.850000e+01 -2.150702e+01
      vertex   -2.385360e+00 2.850000e+01 -2.221974e+01
    endloop
  endfacet
  facet normal 0.000000e+00 -1.000000e+00 0.000000e+00
    outer loop
      vertex   -2.385360e+00 2.850000e+01 -2.221974e+01
      vertex   1.387442e+01 2.850000e+01 -2.353893e+01
      vertex   1.317734e+01 2.850000e+01 -2.336711e+01
    endloop
  endfacet
  facet normal 0.000000e+00 -1.000000e+00 0.000000e+00
    outer loop
      vertex   2.250000e+01 2.850000e+01 -2.725000e+01
      vertex   1.387442e+01 2.850000e+01 -2.353893e+01
      vertex   -2.385360e+00 2.850000e+01 -2.221974e+01
    endloop
  endfacet
  facet normal 0.000000e+00 -1.000000e+00 -0.000000e+00
    outer loop
      vertex   1.457151e+01 2.850000e+01 -2.336711e+01
      vertex   1.387442e+01 2.850000e+01 -2.353893e+01
      vertex   2.250000e+01 2.850000e+01 -2.725000e+01
    endloop
  endfacet
  facet normal 0.000000e+00 -1.000000e+00 0.000000e+00
    outer loop
      vertex   2.250000e+01 2.850000e+01 -2.725000e+01
      vertex   1.510890e+01 2.850000e+01 -2.289103e+01
      vertex   1.457151e+01 2.850000e+01 -2.336711e+01
    endloop
  endfacet
  facet normal 0.000000e+00 -1.000000e+00 0.000000e+00
    outer loop
      vertex   2.250000e+01 2.850000e+01 -2.725000e+01
      vertex   -2.639948e+00 2.850000e+01 -2.289103e+01
      vertex   -3.177339e+00 2.850000e+01 -2.336711e+01
    endloop
  endfacet
  facet normal 0.000000e+00 -1.000000e+00 0.000000e+00
    outer loop
      vertex   2.250000e+01 2.850000e+01 -2.725000e+01
      vertex   -3.177339e+00 2.850000e+01 -2.336711e+01
      vertex   -3.874424e+00 2.850000e+01 -2.353893e+01
    endloop
  endfacet
  facet normal 0.000000e+00 -1.000000e+00 -0.000000e+00
    outer loop
      vertex   -3.874424e+00 2.850000e+01 -2.353893e+01
      vertex   -1.250000e+01 2.850000e+01 -2.725000e+01
      vertex   2.250000e+01 2.850000e+01 -2.725000e+01
    endloop
  endfacet
  facet normal 0.000000e+00 -1.000000e+00 0.000000e+00
    outer loop
      vertex   -1.250000e+01 2.850000e+01 -2.725000e+01
      vertex   -3.874424e+00 2.850000e+01 -2.353893e+01
      vertex   -4.571508e+00 2.850000e+01 -2.336711e+01
    endloop
  endfacet
  facet normal 0.000000e+00 -1.000000e+00 0.000000e+00
    outer loop
      vertex   -1.250000e+01 2.850000e+01 -2.725000e+01
      vertex   -4.571508e+00 2.850000e+01 -2.336711e+01
      vertex   -5.108899e+00 2.850000e+01 -2.289103e+01
    endloop
  endfacet
  facet normal 0.000000e+00 -1.000000e+00 0.000000e+00
    outer loop
      vertex   -2.488474e-01 2.850000e+01 -1.725000e+01
      vertex   1.238536e+01 2.850000e+01 -2.221974e+01
      vertex   1.247190e+01 2.850000e+01 -2.150702e+01
    endloop
  endfacet
  facet normal -0.000000e+00 -1.000000e+00 -0.000000e+00
    outer loop
      vertex   1.024885e+01 2.850000e+01 -1.725000e+01
      vertex   -2.488474e-01 2.850000e+01 -1.725000e+01
      vertex   1.247190e+01 2.850000e+01 -2.150702e+01
    endloop
  endfacet
  facet normal 0.000000e+00 -1.000000e+00 0.000000e+00
    outer loop
      vertex   -2.488474e-01 2.850000e+01 -2.250000e+00
      vertex   -2.488474e-01 2.850000e+01 -1.725000e+01
      vertex   1.024885e+01 2.850000e+01 -1.725000e+01
    endloop
  endfacet
  facet normal 0.000000e+00 -1.000000e+00 0.000000e+00
    outer loop
      vertex   1.024885e+01 2.850000e+01 -1.725000e+01
      vertex   1.024885e+01 2.850000e+01 -2.250000e+00
      vertex   -2.488474e-01 2.850000e+01 -2.250000e+00
    endloop
  endfacet
  facet normal 0.000000e+00 -1.000000e+00 0.000000e+00
    outer loop
      vertex   2.250000e+01 2.850000e+01 -2.725000e+01
      vertex   1.750000e+01 2.850000e+01 -1.725000e+01
      vertex   1.527695e+01 2.850000e+01 -2.150702e+01
    endloop
  endfacet
  facet normal 0.000000e+00 -1.000000e+00 0.000000e+00
    outer loop
      vertex   1.527695e+01 2.850000e+01 -2.150702e+01
      vertex   1.536349e+01 2.850000e+01 -2.221974e+01
      vertex   2.250000e+01 2.850000e+01 -2.725000e+01
    endloop
  endfacet
  facet normal 0.000000e+00 -1.000000e+00 -0.000000e+00
    outer loop
      vertex   1.536349e+01 2.850000e+01 -2.221974e+01
      vertex   1.510890e+01 2.850000e+01 -2.289103e+01
      vertex   2.250000e+01 2.850000e+01 -2.725000e+01
    endloop
  endfacet
  facet normal 0.000000e+00 -1.000000e+00 0.000000e+00
    outer loop
      vertex   -7.500000e+00 2.850000e+01 -1.725000e+01
      vertex   -5.276948e+00 2.850000e+01 -2.150702e+01
      vertex   -4.869108e+00 2.850000e+01 -2.091616e+01
    endloop
  endfacet
  facet normal 0.000000e+00 -1.000000e+00 0.000000e+00
    outer loop
      vertex   -7.500000e+00 2.850000e+01 -1.725000e+01
      vertex   -4.869108e+00 2.850000e+01 -2.091616e+01
      vertex   -4.233397e+00 2.850000e+01 -2.058252e+01
    endloop
  endfacet
  facet normal -0.000000e+00 -1.000000e+00 0.000000e+00
    outer loop
      vertex   -2.488474e-01 2.850000e+01 -1.725000e+01
      vertex   -7.500000e+00 2.850000e+01 -1.725000e+01
      vertex   -4.233397e+00 2.850000e+01 -2.058252e+01
    endloop
  endfacet
  facet normal 0.000000e+00 -1.000000e+00 0.000000e+00
    outer loop
      vertex   -4.233397e+00 2.850000e+01 -2.058252e+01
      vertex   -3.515450e+00 2.850000e+01 -2.058252e+01
      vertex   -2.488474e-01 2.850000e+01 -1.725000e+01
    endloop
  endfacet
  facet normal 0.000000e+00 -1.000000e+00 0.000000e+00
    outer loop
      vertex   -3.515450e+00 2.850000e+01 -2.058252e+01
      vertex   -2.879740e+00 2.850000e+01 -2.091616e+01
      vertex   -2.488474e-01 2.850000e+01 -1.725000e+01
    endloop
  endfacet
  facet normal 0.000000e+00 -1.000000e+00 0.000000e+00
    outer loop
      vertex   1.247190e+01 2.850000e+01 -2.150702e+01
      vertex   1.287974e+01 2.850000e+01 -2.091616e+01
      vertex   1.024885e+01 2.850000e+01 -1.725000e+01
    endloop
  endfacet
  facet normal 0.000000e+00 -1.000000e+00 0.000000e+00
    outer loop
      vertex   1.024885e+01 2.850000e+01 -1.725000e+01
      vertex   1.287974e+01 2.850000e+01 -2.091616e+01
      vertex   1.351545e+01 2.850000e+01 -2.058252e+01
    endloop
  endfacet
  facet normal -0.000000e+00 -1.000000e+00 0.000000e+00
    outer loop
      vertex   1.750000e+01 2.850000e+01 -1.725000e+01
      vertex   1.024885e+01 2.850000e+01 -1.725000e+01
      vertex   1.351545e+01 2.850000e+01 -2.058252e+01
    endloop
  endfacet
  facet normal 0.000000e+00 -1.000000e+00 0.000000e+00
    outer loop
      vertex   1.351545e+01 2.850000e+01 -2.058252e+01
      vertex   1.423340e+01 2.850000e+01 -2.058252e+01
      vertex   1.750000e+01 2.850000e+01 -1.725000e+01
    endloop
  endfacet
  facet normal 0.000000e+00 -1.000000e+00 0.000000e+00
    outer loop
      vertex   1.423340e+01 2.850000e+01 -2.058252e+01
      vertex   1.486911e+01 2.850000e+01 -2.091616e+01
      vertex   1.750000e+01 2.850000e+01 -1.725000e+01
    endloop
  endfacet
  facet normal 0.000000e+00 3.469447e-16 -1.000000e+00
    outer loop
      vertex   1.750000e+01 1.350000e+01 -2.250000e+00
      vertex   1.750000e+01 2.850000e+01 -2.250000e+00
      vertex   2.250000e+01 2.850000e+01 -2.250000e+00
    endloop
  endfacet
  facet normal 6.245005e-16 1.387779e-16 -1.000000e+00
    outer loop
      vertex   2.250000e+01 2.850000e+01 -2.250000e+00
      vertex   2.250000e+01 3.500000e+00 -2.250000e+00
      vertex   1.750000e+01 1.350000e+01 -2.250000e+00
    endloop
  endfacet
  facet normal -2.392342e-16 -2.930894e-16 -1.000000e+00
    outer loop
      vertex   1.024885e+01 1.350000e+01 -2.250000e+00
      vertex   1.750000e+01 1.350000e+01 -2.250000e+00
      vertex   2.250000e+01 3.500000e+00 -2.250000e+00
    endloop
  endfacet
  facet normal 0.000000e+00 1.387779e-16 -1.000000e+00
    outer loop
      vertex   -1.250000e+01 3.500000e+00 -2.250000e+00
      vertex   -1.250000e+01 2.850000e+01 -2.250000e+00
      vertex   -7.500000e+00 2.850000e+01 -2.250000e+00
    endloop
  endfacet
  facet normal 6.938894e-16 0.000000e+00 -1.000000e+00
    outer loop
      vertex   -7.500000e+00 2.850000e+01 -2.250000e+00
      vertex   -7.500000e+00 1.350000e+01 -2.250000e+00
      vertex   -1.250000e+01 3.500000e+00 -2.250000e+00
    endloop
  endfacet
  facet normal -4.784683e-16 5.861789e-16 -1.000000e+00
    outer loop
      vertex   -1.250000e+01 3.500000e+00 -2.250000e+00
      vertex   -7.500000e+00 1.350000e+01 -2.250000e+00
      vertex   -2.488474e-01 1.350000e+01 -2.250000e+00
    endloop
  endfacet
  facet normal 0.000000e+00 0.000000e+00 -1.000000e+00
    outer loop
      vertex   -2.488474e-01 1.350000e+01 -2.250000e+00
      vertex   -2.488474e-01 2.850000e+01 -2.250000e+00
      vertex   1.024885e+01 2.850000e+01 -2.250000e+00
    endloop
  endfacet
  facet normal 0.000000e+00 -0.000000e+00 -1.000000e+00
    outer loop
      vertex   1.024885e+01 2.850000e+01 -2.250000e+00
      vertex   1.024885e+01 1.350000e+01 -2.250000e+00
      vertex   -2.488474e-01 1.350000e+01 -2.250000e+00
    endloop
  endfacet
  facet normal 0.000000e+00 -0.000000e+00 -1.000000e+00
    outer loop
      vertex   -2.488474e-01 1.350000e+01 -2.250000e+00
      vertex   1.024885e+01 1.350000e+01 -2.250000e+00
      vertex   -1.250000e+01 3.500000e+00 -2.250000e+00
    endloop
  endfacet
  facet normal 0.000000e+00 0.000000e+00 -1.000000e+00
    outer loop
      vertex   2.250000e+01 3.500000e+00 -2.250000e+00
      vertex   -1.250000e+01 3.500000e+00 -2.250000e+00
      vertex   1.024885e+01 1.350000e+01 -2.250000e+00
    endloop
  endfacet
  facet normal 0.000000e+00 -7.071068e-01 -7.071068e-01
    outer loop
      vertex   1.024885e+01 2.850000e+01 -1.725000e+01
      vertex   1.750000e+01 2.850000e+01 -1.725000e+01
      vertex   1.750000e+01 1.350000e+01 -2.250000e+00
    endloop
  endfacet
  facet normal 3.383282e-16 -7.071068e-01 -7.071068e-01
    outer loop
      vertex   1.750000e+01 1.350000e+01 -2.250000e+00
      vertex   1.024885e+01 1.350000e+01 -2.250000e+00
      vertex   1.024885e+01 2.850000e+01 -1.725000e+01
    endloop
  endfacet
  facet normal -3.383282e-16 -7.071068e-01 -7.071068e-01
    outer loop
      vertex   -2.488474e-01 1.350000e+01 -2.250000e+00
      vertex   -7.500000e+00 1.350000e+01 -2.250000e+00
      vertex   -7.500000e+00 2.850000e+01 -1.725000e+01
    endloop
  endfacet
  facet normal 0.000000e+00 -7.071068e-01 -7.071068e-01
    outer loop
      vertex   -7.500000e+00 2.850000e+01 -1.725000e+01
      vertex   -2.488474e-01 2.850000e+01 -1.725000e+01
      vertex   -2.488474e-01 1.350000e+01 -2.250000e+00
    endloop
  endfacet
  facet normal 1.000000e+00 0.000000e+00 -0.000000e+00
    outer loop
      vertex   1.750000e+01 2.850000e+01 -1.725000e+01
      vertex   1.750000e+01 2.850000e+01 -2.250000e+00
      vertex   1.750000e+01 1.350000e+01 -2.250000e+00
    endloop
  endfacet
  facet normal -1.000000e+00 0.000000e+00 0.000000e+00
    outer loop
      vertex   -7.500000e+00 1.350000e+01 -2.250000e+00
      vertex   -7.500000e+00 2.850000e+01 -2.250000e+00
      vertex   -7.500000e+00 2.850000e+01 -1.725000e+01
    endloop
  endfacet
  facet normal -1.000000e+00 0.000000e+00 1.156482e-16
    outer loop
      vertex   1.024885e+01 2.850000e+01 -2.250000e+00
      vertex   1.024885e+01 2.850000e+01 -1.725000e+01
      vertex   1.024885e+01 1.350000e+01 -2.250000e+00
    endloop
  endfacet
  facet normal 1.000000e+00 -7.228014e-18 3.252607e-16
    outer loop
      vertex   -2.488474e-01 2.850000e+01 -2.250000e+00
      vertex   -2.488474e-01 1.350000e+01 -2.250000e+00
      vertex   -2.488474e-01 2.850000e+01 -1.725000e+01
    endloop
  endfacet
endsolid
