solid ascii
  facet normal 0.000000e+00 -1.000000e+00 0.000000e+00
    outer loop
      vertex   -2.500000e+00 2.850000e+01 -1.537500e+01
      vertex   -2.500000e+00 2.850000e+01 -3.637500e+01
      vertex   1.250000e+01 2.850000e+01 -3.637500e+01
    endloop
  endfacet
  facet normal 0.000000e+00 -1.000000e+00 0.000000e+00
    outer loop
      vertex   1.250000e+01 2.850000e+01 -3.637500e+01
      vertex   1.250000e+01 2.850000e+01 -1.537500e+01
      vertex   -2.500000e+00 2.850000e+01 -1.537500e+01
    endloop
  endfacet
  facet normal -2.312965e-16 4.444185e-32 -1.000000e+00
    outer loop
      vertex   -2.500000e+00 2.850000e+01 -1.537500e+01
      vertex   1.250000e+01 2.850000e+01 -1.537500e+01
      vertex   1.250000e+01 1.850000e+01 -1.537500e+01
    endloop
  endfacet
  facet normal 0.000000e+00 3.469447e-16 -1.000000e+00
    outer loop
      vertex   1.250000e+01 1.850000e+01 -1.537500e+01
      vertex   -2.500000e+00 1.850000e+01 -1.537500e+01
      vertex   -2.500000e+00 2.850000e+01 -1.537500e+01
    endloop
  endfacet
  facet normal 0.000000e+00 0.000000e+00 -1.000000e+00
    outer loop
      vertex   1.250000e+01 2.850000e+01 -3.637500e+01
      vertex   -2.500000e+00 2.850000e+01 -3.637500e+01
      vertex   -2.500000e+00 4.183567e+01 -3.637500e+01
    endloop
  endfacet
  facet normal 0.000000e+00 0.000000e+00 -1.000000e+00
    outer loop
      vertex   -2.500000e+00 4.183567e+01 -3.637500e+01
      vertex   1.250000e+01 4.183567e+01 -3.637500e+01
      vertex   1.250000e+01 2.850000e+01 -3.637500e+01
    endloop
  endfacet
  facet normal 0.000000e+00 1.000000e+00 0.000000e+00
    outer loop
      vertex   -2.500000e+00 4.183567e+01 -3.637500e+01
      vertex   -2.500000e+00 4.183567e+01 -3.237500e+01
      vertex   1.250000e+01 4.183567e+01 -3.237500e+01
    endloop
  endfacet
  facet normal 0.000000e+00 1.000000e+00 0.000000e+00
    outer loop
      vertex   1.250000e+01 4.183567e+01 -3.237500e+01
      vertex   1.250000e+01 4.183567e+01 -3.637500e+01
      vertex   -2.500000e+00 4.183567e+01 -3.637500e+01
    endloop
  endfacet
  facet normal 0.000000e+00 0.000000e+00 1.000000e+00
    outer loop
      vertex   -2.500000e+00 3.450000e+01 -3.237500e+01
      vertex   1.250000e+01 3.450000e+01 -3.237500e+01
      vertex   1.250000e+01 4.183567e+01 -3.237500e+01
    endloop
  endfacet
  facet normal 0.000000e+00 0.000000e+00 1.000000e+00
    outer loop
      vertex   1.250000e+01 4.183567e+01 -3.237500e+01
      vertex   -2.500000e+00 4.183567e+01 -3.237500e+01
      vertex   -2.500000e+00 3.450000e+01 -3.237500e+01
    endloop
  endfacet
  facet normal 0.000000e+00 9.807853e-01 1.950903e-01
    outer loop
      vertex   -2.500000e+00 3.357612e+01 -3.175768e+01
      vertex   -2.500000e+00 3.350000e+01 -3.137500e+01
      vertex   1.250000e+01 3.350000e+01 -3.137500e+01
    endloop
  endfacet
  facet normal 0.000000e+00 9.807853e-01 1.950903e-01
    outer loop
      vertex   1.250000e+01 3.350000e+01 -3.137500e+01
      vertex   1.250000e+01 3.357612e+01 -3.175768e+01
      vertex   -2.500000e+00 3.357612e+01 -3.175768e+01
    endloop
  endfacet
  facet normal 0.000000e+00 8.314696e-01 5.555702e-01
    outer loop
      vertex   -2.500000e+00 3.379289e+01 -3.208211e+01
      vertex   -2.500000e+00 3.357612e+01 -3.175768e+01
      vertex   1.250000e+01 3.357612e+01 -3.175768e+01
    endloop
  endfacet
  facet normal 0.000000e+00 8.314696e-01 5.555702e-01
    outer loop
      vertex   1.250000e+01 3.357612e+01 -3.175768e+01
      vertex   1.250000e+01 3.379289e+01 -3.208211e+01
      vertex   -2.500000e+00 3.379289e+01 -3.208211e+01
    endloop
  endfacet
  facet normal 0.000000e+00 5.555702e-01 8.314696e-01
    outer loop
      vertex   -2.500000e+00 3.411732e+01 -3.229888e+01
      vertex   -2.500000e+00 3.379289e+01 -3.208211e+01
      vertex   1.250000e+01 3.379289e+01 -3.208211e+01
    endloop
  endfacet
  facet normal 0.000000e+00 5.555702e-01 8.314696e-01
    outer loop
      vertex   1.250000e+01 3.379289e+01 -3.208211e+01
      vertex   1.250000e+01 3.411732e+01 -3.229888e+01
      vertex   -2.500000e+00 3.411732e+01 -3.229888e+01
    endloop
  endfacet
  facet normal 0.000000e+00 1.950903e-01 9.807853e-01
    outer loop
      vertex   -2.500000e+00 3.450000e+01 -3.237500e+01
      vertex   -2.500000e+00 3.411732e+01 -3.229888e+01
      vertex   1.250000e+01 3.411732e+01 -3.229888e+01
    endloop
  endfacet
  facet normal 0.000000e+00 1.950903e-01 9.807853e-01
    outer loop
      vertex   1.250000e+01 3.411732e+01 -3.229888e+01
      vertex   1.250000e+01 3.450000e+01 -3.237500e+01
      vertex   -2.500000e+00 3.450000e+01 -3.237500e+01
    endloop
  endfacet
  facet normal -1.000000e+00 -1.734723e-16 0.000000e+00
    outer loop
      vertex   -2.500000e+00 2.850000e+01 -1.537500e+01
      vertex   -2.500000e+00 1.850000e+01 -1.537500e+01
      vertex   -2.500000e+00 1.850000e+01 -1.037500e+01
    endloop
  endfacet
  facet normal -1.000000e+00 0.000000e+00 3.469447e-16
    outer loop
      vertex   -2.500000e+00 1.850000e+01 -1.037500e+01
      vertex   -2.500000e+00 3.350000e+01 -1.037500e+01
      vertex   -2.500000e+00 2.850000e+01 -1.537500e+01
    endloop
  endfacet
  facet normal -1.000000e+00 4.295506e-16 -8.260588e-17
    outer loop
      vertex   -2.500000e+00 2.850000e+01 -3.637500e+01
      vertex   -2.500000e+00 2.850000e+01 -1.537500e+01
      vertex   -2.500000e+00 3.350000e+01 -1.037500e+01
    endloop
  endfacet
  facet normal -1.000000e+00 0.000000e+00 -0.000000e+00
    outer loop
      vertex   -2.500000e+00 3.350000e+01 -1.037500e+01
      vertex   -2.500000e+00 3.350000e+01 -3.137500e+01
      vertex   -2.500000e+00 2.850000e+01 -3.637500e+01
    endloop
  endfacet
  facet normal -1.000000e+00 0.000000e+00 -0.000000e+00
    outer loop
      vertex   -2.500000e+00 3.350000e+01 -3.137500e+01
      vertex   -2.500000e+00 3.357612e+01 -3.175768e+01
      vertex   -2.500000e+00 2.850000e+01 -3.637500e+01
    endloop
  endfacet
  facet normal -1.000000e+00 0.000000e+00 0.000000e+00
    outer loop
      vertex   -2.500000e+00 2.850000e+01 -3.637500e+01
      vertex   -2.500000e+00 3.357612e+01 -3.175768e+01
      vertex   -2.500000e+00 3.379289e+01 -3.208211e+01
    endloop
  endfacet
  facet normal -1.000000e+00 0.000000e+00 0.000000e+00
    outer loop
      vertex   -2.500000e+00 3.450000e+01 -3.237500e+01
      vertex   -2.500000e+00 4.183567e+01 -3.237500e+01
      vertex   -2.500000e+00 4.183567e+01 -3.637500e+01
    endloop
  endfacet
  facet normal -1.000000e+00 0.000000e+00 0.000000e+00
    outer loop
      vertex   -2.500000e+00 4.183567e+01 -3.637500e+01
      vertex   -2.500000e+00 2.850000e+01 -3.637500e+01
      vertex   -2.500000e+00 3.450000e+01 -3.237500e+01
    endloop
  endfacet
  facet normal -1.000000e+00 0.000000e+00 0.000000e+00
    outer loop
      vertex   -2.500000e+00 2.850000e+01 -3.637500e+01
      vertex   -2.500000e+00 3.411732e+01 -3.229888e+01
      vertex   -2.500000e+00 3.450000e+01 -3.237500e+01
    endloop
  endfacet
  facet normal -1.000000e+00 0.000000e+00 -0.000000e+00
    outer loop
      vertex   -2.500000e+00 3.379289e+01 -3.208211e+01
      vertex   -2.500000e+00 3.411732e+01 -3.229888e+01
      vertex   -2.500000e+00 2.850000e+01 -3.637500e+01
    endloop
  endfacet
  facet normal 1.000000e+00 0.000000e+00 0.000000e+00
    outer loop
      vertex   1.250000e+01 2.850000e+01 -3.637500e+01
      vertex   1.250000e+01 4.183567e+01 -3.637500e+01
      vertex   1.250000e+01 4.183567e+01 -3.237500e+01
    endloop
  endfacet
  facet normal 1.000000e+00 0.000000e+00 0.000000e+00
    outer loop
      vertex   1.250000e+01 4.183567e+01 -3.237500e+01
      vertex   1.250000e+01 3.450000e+01 -3.237500e+01
      vertex   1.250000e+01 2.850000e+01 -3.637500e+01
    endloop
  endfacet
  facet normal 1.000000e+00 0.000000e+00 0.000000e+00
    outer loop
      vertex   1.250000e+01 3.450000e+01 -3.237500e+01
      vertex   1.250000e+01 3.411732e+01 -3.229888e+01
      vertex   1.250000e+01 2.850000e+01 -3.637500e+01
    endloop
  endfacet
  facet normal 1.000000e+00 0.000000e+00 0.000000e+00
    outer loop
      vertex   1.250000e+01 2.850000e+01 -3.637500e+01
      vertex   1.250000e+01 3.411732e+01 -3.229888e+01
      vertex   1.250000e+01 3.379289e+01 -3.208211e+01
    endloop
  endfacet
  facet normal 1.000000e+00 0.000000e+00 0.000000e+00
    outer loop
      vertex   1.250000e+01 3.350000e+01 -1.037500e+01
      vertex   1.250000e+01 1.850000e+01 -1.037500e+01
      vertex   1.250000e+01 1.850000e+01 -1.537500e+01
    endloop
  endfacet
  facet normal 1.000000e+00 0.000000e+00 0.000000e+00
    outer loop
      vertex   1.250000e+01 1.850000e+01 -1.537500e+01
      vertex   1.250000e+01 2.850000e+01 -1.537500e+01
      vertex   1.250000e+01 3.350000e+01 -1.037500e+01
    endloop
  endfacet
  facet normal 1.000000e+00 0.000000e+00 -0.000000e+00
    outer loop
      vertex   1.250000e+01 3.350000e+01 -3.137500e+01
      vertex   1.250000e+01 3.350000e+01 -1.037500e+01
      vertex   1.250000e+01 2.850000e+01 -1.537500e+01
    endloop
  endfacet
  facet normal 1.000000e+00 0.000000e+00 0.000000e+00
    outer loop
      vertex   1.250000e+01 2.850000e+01 -1.537500e+01
      vertex   1.250000e+01 2.850000e+01 -3.637500e+01
      vertex   1.250000e+01 3.350000e+01 -3.137500e+01
    endloop
  endfacet
  facet normal 1.000000e+00 0.000000e+00 0.000000e+00
    outer loop
      vertex   1.250000e+01 2.850000e+01 -3.637500e+01
      vertex   1.250000e+01 3.357612e+01 -3.175768e+01
      vertex   1.250000e+01 3.350000e+01 -3.137500e+01
    endloop
  endfacet
  facet normal 1.000000e+00 0.000000e+00 0.000000e+00
    outer loop
      vertex   1.250000e+01 3.379289e+01 -3.208211e+01
      vertex   1.250000e+01 3.357612e+01 -3.175768e+01
      vertex   1.250000e+01 2.850000e+01 -3.637500e+01
    endloop
  endfacet
  facet normal 0.000000e+00 1.000000e+00 0.000000e+00
    outer loop
      vertex   1.250000e+01 3.350000e+01 -3.137500e+01
      vertex   -2.500000e+00 3.350000e+01 -3.137500e+01
      vertex   -2.500000e+00 3.350000e+01 -1.037500e+01
    endloop
  endfacet
  facet normal -0.000000e+00 1.000000e+00 0.000000e+00
    outer loop
      vertex   -2.500000e+00 3.350000e+01 -1.037500e+01
      vertex   1.250000e+01 3.350000e+01 -1.037500e+01
      vertex   1.250000e+01 3.350000e+01 -3.137500e+01
    endloop
  endfacet
  facet normal 0.000000e+00 0.000000e+00 1.000000e+00
    outer loop
      vertex   -2.500000e+00 1.850000e+01 -1.037500e+01
      vertex   1.250000e+01 1.850000e+01 -1.037500e+01
      vertex   1.250000e+01 3.350000e+01 -1.037500e+01
    endloop
  endfacet
  facet normal 0.000000e+00 0.000000e+00 1.000000e+00
    outer loop
      vertex   1.250000e+01 3.350000e+01 -1.037500e+01
      vertex   -2.500000e+00 3.350000e+01 -1.037500e+01
      vertex   -2.500000e+00 1.850000e+01 -1.037500e+01
    endloop
  endfacet
  facet normal 0.000000e+00 -1.000000e+00 0.000000e+00
    outer loop
      vertex   -2.500000e+00 1.850000e+01 -1.537500e+01
      vertex   1.250000e+01 1.850000e+01 -1.537500e+01
      vertex   1.250000e+01 1.850000e+01 -1.037500e+01
    endloop
  endfacet
  facet normal -0.000000e+00 -1.000000e+00 0.000000e+00
    outer loop
      vertex   1.250000e+01 1.850000e+01 -1.037500e+01
      vertex   -2.500000e+00 1.850000e+01 -1.037500e+01
      vertex   -2.500000e+00 1.850000e+01 -1.537500e+01
    endloop
  endfacet
endsolid
