solid ascii
  facet normal 0.000000e+00 -1.000000e+00 -3.016910e-17
    outer loop
      vertex   -1.050000e+01 -1.050000e+01 6.250000e+01
      vertex   1.050000e+01 -1.050000e+01 6.250000e+01
      vertex   1.050000e+01 -1.050000e+01 1.200000e+02
    endloop
  endfacet
  facet normal -8.260588e-17 -1.000000e+00 -6.561135e-33
    outer loop
      vertex   1.050000e+01 -1.050000e+01 1.200000e+02
      vertex   -1.050000e+01 -1.050000e+01 1.200000e+02
      vertex   -1.050000e+01 -1.050000e+01 6.250000e+01
    endloop
  endfacet
  facet normal 0.000000e+00 -0.000000e+00 1.000000e+00
    outer loop
      vertex   1.050000e+01 -1.050000e+01 1.200000e+02
      vertex   1.050000e+01 1.050000e+01 1.200000e+02
      vertex   -1.050000e+01 1.050000e+01 1.200000e+02
    endloop
  endfacet
  facet normal 0.000000e+00 0.000000e+00 1.000000e+00
    outer loop
      vertex   -1.050000e+01 1.050000e+01 1.200000e+02
      vertex   -1.050000e+01 -1.050000e+01 1.200000e+02
      vertex   1.050000e+01 -1.050000e+01 1.200000e+02
    endloop
  endfacet
  facet normal 8.260588e-17 1.000000e+00 -0.000000e+00
    outer loop
      vertex   -1.050000e+01 1.050000e+01 0.000000e+00
      vertex   -1.050000e+01 1.050000e+01 1.200000e+02
      vertex   1.050000e+01 1.050000e+01 1.200000e+02
    endloop
  endfacet
  facet normal 8.260588e-17 1.000000e+00 0.000000e+00
    outer loop
      vertex   1.050000e+01 1.050000e+01 1.200000e+02
      vertex   1.050000e+01 1.050000e+01 0.000000e+00
      vertex   -1.050000e+01 1.050000e+01 0.000000e+00
    endloop
  endfacet
  facet normal 0.000000e+00 0.000000e+00 -1.000000e+00
    outer loop
      vertex   -1.050000e+01 -1.050000e+01 0.000000e+00
      vertex   -1.050000e+01 1.050000e+01 0.000000e+00
      vertex   1.050000e+01 1.050000e+01 0.000000e+00
    endloop
  endfacet
  facet normal 0.000000e+00 -0.000000e+00 -1.000000e+00
    outer loop
      vertex   1.050000e+01 1.050000e+01 0.000000e+00
      vertex   1.050000e+01 -1.050000e+01 0.000000e+00
      vertex   -1.050000e+01 -1.050000e+01 0.000000e+00
    endloop
  endfacet
  facet normal 8.260588e-17 -1.000000e+00 -3.016910e-17
    outer loop
      vertex   1.050000e+01 -1.050000e+01 5.750000e+01
      vertex   -1.050000e+01 -1.050000e+01 5.750000e+01
      vertex   -1.050000e+01 -1.050000e+01 0.000000e+00
    endloop
  endfacet
  facet normal -8.260588e-17 -1.000000e+00 3.016910e-17
    outer loop
      vertex   -1.050000e+01 -1.050000e+01 0.000000e+00
      vertex   1.050000e+01 -1.050000e+01 0.000000e+00
      vertex   1.050000e+01 -1.050000e+01 5.750000e+01
    endloop
  endfacet
  facet normal 1.000000e+00 0.000000e+00 -0.000000e+00
    outer loop
      vertex   1.050000e+01 1.050000e+01 0.000000e+00
      vertex   1.050000e+01 1.050000e+01 1.200000e+02
      vertex   1.050000e+01 -1.050000e+01 1.200000e+02
    endloop
  endfacet
  facet normal 1.000000e+00 0.000000e+00 0.000000e+00
    outer loop
      vertex   1.050000e+01 -1.050000e+01 1.200000e+02
      vertex   1.050000e+01 -1.050000e+01 6.250000e+01
      vertex   1.050000e+01 1.050000e+01 0.000000e+00
    endloop
  endfacet
  facet normal 1.000000e+00 0.000000e+00 0.000000e+00
    outer loop
      vertex   1.050000e+01 -1.050000e+01 5.750000e+01
      vertex   1.050000e+01 -1.050000e+01 0.000000e+00
      vertex   1.050000e+01 1.050000e+01 0.000000e+00
    endloop
  endfacet
  facet normal 1.000000e+00 0.000000e+00 0.000000e+00
    outer loop
      vertex   1.050000e+01 1.050000e+01 0.000000e+00
      vertex   1.050000e+01 -1.050000e+01 6.250000e+01
      vertex   1.050000e+01 -1.050000e+01 5.750000e+01
    endloop
  endfacet
  facet normal 1.000000e+00 0.000000e+00 0.000000e+00
    outer loop
      vertex   1.050000e+01 -1.850000e+01 5.750000e+01
      vertex   1.050000e+01 -1.050000e+01 5.750000e+01
      vertex   1.050000e+01 -1.050000e+01 6.250000e+01
    endloop
  endfacet
  facet normal 1.000000e+00 0.000000e+00 0.000000e+00
    outer loop
      vertex   1.050000e+01 -1.050000e+01 6.250000e+01
      vertex   1.050000e+01 -1.850000e+01 6.250000e+01
      vertex   1.050000e+01 -1.850000e+01 5.750000e+01
    endloop
  endfacet
  facet normal -1.000000e+00 8.260588e-17 0.000000e+00
    outer loop
      vertex   -1.050000e+01 1.050000e+01 1.200000e+02
      vertex   -1.050000e+01 1.050000e+01 0.000000e+00
      vertex   -1.050000e+01 -1.050000e+01 0.000000e+00
    endloop
  endfacet
  facet normal -1.000000e+00 8.260588e-17 2.492145e-33
    outer loop
      vertex   -1.050000e+01 -1.050000e+01 0.000000e+00
      vertex   -1.050000e+01 -1.050000e+01 5.750000e+01
      vertex   -1.050000e+01 1.050000e+01 1.200000e+02
    endloop
  endfacet
  facet normal -1.000000e+00 8.260588e-17 0.000000e+00
    outer loop
      vertex   -1.050000e+01 -1.050000e+01 6.250000e+01
      vertex   -1.050000e+01 -1.050000e+01 1.200000e+02
      vertex   -1.050000e+01 1.050000e+01 1.200000e+02
    endloop
  endfacet
  facet normal -1.000000e+00 8.260588e-17 -5.922497e-32
    outer loop
      vertex   -1.050000e+01 1.050000e+01 1.200000e+02
      vertex   -1.050000e+01 -1.050000e+01 5.750000e+01
      vertex   -1.050000e+01 -1.050000e+01 6.250000e+01
    endloop
  endfacet
  facet normal -1.000000e+00 0.000000e+00 0.000000e+00
    outer loop
      vertex   -1.050000e+01 -1.850000e+01 6.250000e+01
      vertex   -1.050000e+01 -1.050000e+01 6.250000e+01
      vertex   -1.050000e+01 -1.050000e+01 5.750000e+01
    endloop
  endfacet
  facet normal -1.000000e+00 0.000000e+00 0.000000e+00
    outer loop
      vertex   -1.050000e+01 -1.050000e+01 5.750000e+01
      vertex   -1.050000e+01 -1.850000e+01 5.750000e+01
      vertex   -1.050000e+01 -1.850000e+01 6.250000e+01
    endloop
  endfacet
  facet normal 0.000000e+00 0.000000e+00 1.000000e+00
    outer loop
      vertex   -1.050000e+01 -1.050000e+01 6.250000e+01
      vertex   -1.050000e+01 -1.850000e+01 6.250000e+01
      vertex   1.050000e+01 -1.850000e+01 6.250000e+01
    endloop
  endfacet
  facet normal 0.000000e+00 -0.000000e+00 1.000000e+00
    outer loop
      vertex   1.050000e+01 -1.850000e+01 6.250000e+01
      vertex   1.050000e+01 -1.050000e+01 6.250000e+01
      vertex   -1.050000e+01 -1.050000e+01 6.250000e+01
    endloop
  endfacet
  facet normal 0.000000e+00 -0.000000e+00 -1.000000e+00
    outer loop
      vertex   1.050000e+01 -1.050000e+01 5.750000e+01
      vertex   1.050000e+01 -1.850000e+01 5.750000e+01
      vertex   -1.050000e+01 -1.850000e+01 5.750000e+01
    endloop
  endfacet
  facet normal 0.000000e+00 0.000000e+00 -1.000000e+00
    outer loop
      vertex   -1.050000e+01 -1.850000e+01 5.750000e+01
      vertex   -1.050000e+01 -1.050000e+01 5.750000e+01
      vertex   1.050000e+01 -1.050000e+01 5.750000e+01
    endloop
  endfacet
  facet normal 0.000000e+00 -1.000000e+00 0.000000e+00
    outer loop
      vertex   -1.050000e+01 -1.850000e+01 6.250000e+01
      vertex   -1.050000e+01 -1.850000e+01 5.750000e+01
      vertex   1.050000e+01 -1.850000e+01 5.750000e+01
    endloop
  endfacet
  facet normal 0.000000e+00 -1.000000e+00 0.000000e+00
    outer loop
      vertex   1.050000e+01 -1.850000e+01 5.750000e+01
      vertex   1.050000e+01 -1.850000e+01 6.250000e+01
      vertex   -1.050000e+01 -1.850000e+01 6.250000e+01
    endloop
  endfacet
endsolid
