solid ascii
  facet normal 1.000000e+00 0.000000e+00 0.000000e+00
    outer loop
      vertex   1.890000e+02 0.000000e+00 3.400000e+01
      vertex   1.890000e+02 0.000000e+00 1.500000e+00
      vertex   1.890000e+02 1.700000e+02 1.500000e+00
    endloop
  endfacet
  facet normal 1.000000e+00 0.000000e+00 -0.000000e+00
    outer loop
      vertex   1.890000e+02 1.700000e+02 1.500000e+00
      vertex   1.890000e+02 1.700000e+02 3.400000e+01
      vertex   1.890000e+02 0.000000e+00 3.400000e+01
    endloop
  endfacet
  facet normal 0.000000e+00 0.000000e+00 -1.000000e+00
    outer loop
      vertex   0.000000e+00 0.000000e+00 1.500000e+00
      vertex   0.000000e+00 1.700000e+02 1.500000e+00
      vertex   1.890000e+02 1.700000e+02 1.500000e+00
    endloop
  endfacet
  facet normal 0.000000e+00 -0.000000e+00 -1.000000e+00
    outer loop
      vertex   1.890000e+02 1.700000e+02 1.500000e+00
      vertex   1.890000e+02 0.000000e+00 1.500000e+00
      vertex   0.000000e+00 0.000000e+00 1.500000e+00
    endloop
  endfacet
  facet normal -1.000000e+00 0.000000e+00 -0.000000e+00
    outer loop
      vertex   0.000000e+00 1.700000e+02 3.400000e+01
      vertex   0.000000e+00 1.700000e+02 1.500000e+00
      vertex   0.000000e+00 0.000000e+00 1.500000e+00
    endloop
  endfacet
  facet normal -1.000000e+00 0.000000e+00 0.000000e+00
    outer loop
      vertex   0.000000e+00 0.000000e+00 1.500000e+00
      vertex   0.000000e+00 0.000000e+00 3.400000e+01
      vertex   0.000000e+00 1.700000e+02 3.400000e+01
    endloop
  endfacet
  facet normal 0.000000e+00 -0.000000e+00 1.000000e+00
    outer loop
      vertex   2.000000e+00 0.000000e+00 3.400000e+01
      vertex   2.000000e+00 1.700000e+02 3.400000e+01
      vertex   0.000000e+00 1.700000e+02 3.400000e+01
    endloop
  endfacet
  facet normal 0.000000e+00 0.000000e+00 1.000000e+00
    outer loop
      vertex   0.000000e+00 1.700000e+02 3.400000e+01
      vertex   0.000000e+00 0.000000e+00 3.400000e+01
      vertex   2.000000e+00 0.000000e+00 3.400000e+01
    endloop
  endfacet
  facet normal -1.000000e+00 0.000000e+00 -0.000000e+00
    outer loop
      vertex   2.000000e+00 1.700000e+02 5.900000e+01
      vertex   2.000000e+00 1.700000e+02 3.400000e+01
      vertex   2.000000e+00 0.000000e+00 3.400000e+01
    endloop
  endfacet
  facet normal -1.000000e+00 0.000000e+00 0.000000e+00
    outer loop
      vertex   2.000000e+00 0.000000e+00 3.400000e+01
      vertex   2.000000e+00 -1.387779e-14 5.900000e+01
      vertex   2.000000e+00 1.700000e+02 5.900000e+01
    endloop
  endfacet
  facet normal -0.000000e+00 1.000000e+00 0.000000e+00
    outer loop
      vertex   1.870000e+02 1.700000e+02 3.400000e+01
      vertex   1.890000e+02 1.700000e+02 3.400000e+01
      vertex   1.890000e+02 1.700000e+02 1.500000e+00
    endloop
  endfacet
  facet normal 0.000000e+00 1.000000e+00 0.000000e+00
    outer loop
      vertex   0.000000e+00 1.700000e+02 1.500000e+00
      vertex   0.000000e+00 1.700000e+02 3.400000e+01
      vertex   2.000000e+00 1.700000e+02 3.400000e+01
    endloop
  endfacet
  facet normal 0.000000e+00 1.000000e+00 0.000000e+00
    outer loop
      vertex   2.000000e+00 1.700000e+02 3.400000e+01
      vertex   2.000000e+00 1.700000e+02 5.900000e+01
      vertex   1.870000e+02 1.700000e+02 5.900000e+01
    endloop
  endfacet
  facet normal 0.000000e+00 1.000000e+00 0.000000e+00
    outer loop
      vertex   1.870000e+02 1.700000e+02 5.900000e+01
      vertex   1.870000e+02 1.700000e+02 3.400000e+01
      vertex   2.000000e+00 1.700000e+02 3.400000e+01
    endloop
  endfacet
  facet normal -0.000000e+00 1.000000e+00 0.000000e+00
    outer loop
      vertex   2.000000e+00 1.700000e+02 3.400000e+01
      vertex   1.870000e+02 1.700000e+02 3.400000e+01
      vertex   0.000000e+00 1.700000e+02 1.500000e+00
    endloop
  endfacet
  facet normal 0.000000e+00 1.000000e+00 0.000000e+00
    outer loop
      vertex   1.890000e+02 1.700000e+02 1.500000e+00
      vertex   0.000000e+00 1.700000e+02 1.500000e+00
      vertex   1.870000e+02 1.700000e+02 3.400000e+01
    endloop
  endfacet
  facet normal 1.000000e+00 0.000000e+00 0.000000e+00
    outer loop
      vertex   1.870000e+02 0.000000e+00 5.900000e+01
      vertex   1.870000e+02 -1.387779e-14 3.400000e+01
      vertex   1.870000e+02 1.700000e+02 3.400000e+01
    endloop
  endfacet
  facet normal 1.000000e+00 0.000000e+00 -0.000000e+00
    outer loop
      vertex   1.870000e+02 1.700000e+02 3.400000e+01
      vertex   1.870000e+02 1.700000e+02 5.900000e+01
      vertex   1.870000e+02 0.000000e+00 5.900000e+01
    endloop
  endfacet
  facet normal 0.000000e+00 -0.000000e+00 1.000000e+00
    outer loop
      vertex   1.890000e+02 0.000000e+00 3.400000e+01
      vertex   1.890000e+02 1.700000e+02 3.400000e+01
      vertex   1.870000e+02 1.700000e+02 3.400000e+01
    endloop
  endfacet
  facet normal 0.000000e+00 0.000000e+00 1.000000e+00
    outer loop
      vertex   1.870000e+02 1.700000e+02 3.400000e+01
      vertex   1.870000e+02 -1.387779e-14 3.400000e+01
      vertex   1.890000e+02 0.000000e+00 3.400000e+01
    endloop
  endfacet
  facet normal -0.000000e+00 -1.000000e+00 0.000000e+00
    outer loop
      vertex   2.000000e+00 0.000000e+00 3.400000e+01
      vertex   0.000000e+00 0.000000e+00 3.400000e+01
      vertex   0.000000e+00 0.000000e+00 1.500000e+00
    endloop
  endfacet
  facet normal -1.850372e-16 -1.000000e+00 0.000000e+00
    outer loop
      vertex   1.870000e+02 -1.387779e-14 3.400000e+01
      vertex   1.120000e+02 0.000000e+00 3.276013e+01
      vertex   1.120000e+02 0.000000e+00 2.276013e+01
    endloop
  endfacet
  facet normal 1.850372e-16 -1.000000e+00 0.000000e+00
    outer loop
      vertex   7.700000e+01 0.000000e+00 2.276013e+01
      vertex   7.700000e+01 0.000000e+00 3.276013e+01
      vertex   2.000000e+00 -1.387779e-14 5.900000e+01
    endloop
  endfacet
  facet normal 0.000000e+00 -1.000000e+00 -1.119292e-14
    outer loop
      vertex   1.870000e+02 -1.387779e-14 3.400000e+01
      vertex   7.700000e+01 0.000000e+00 3.276013e+01
      vertex   1.120000e+02 0.000000e+00 3.276013e+01
    endloop
  endfacet
  facet normal -1.324187e-16 -1.000000e+00 5.551115e-16
    outer loop
      vertex   7.700000e+01 0.000000e+00 3.276013e+01
      vertex   1.870000e+02 -1.387779e-14 3.400000e+01
      vertex   1.870000e+02 0.000000e+00 5.900000e+01
    endloop
  endfacet
  facet normal 7.501507e-17 -1.000000e+00 -3.144702e-16
    outer loop
      vertex   1.870000e+02 0.000000e+00 5.900000e+01
      vertex   2.000000e+00 -1.387779e-14 5.900000e+01
      vertex   7.700000e+01 0.000000e+00 3.276013e+01
    endloop
  endfacet
  facet normal 6.938894e-15 -1.000000e+00 0.000000e+00
    outer loop
      vertex   1.890000e+02 0.000000e+00 1.500000e+00
      vertex   1.890000e+02 0.000000e+00 3.400000e+01
      vertex   1.870000e+02 -1.387779e-14 3.400000e+01
    endloop
  endfacet
  facet normal -1.199374e-16 -1.000000e+00 -4.343896e-16
    outer loop
      vertex   1.120000e+02 0.000000e+00 2.276013e+01
      vertex   1.890000e+02 0.000000e+00 1.500000e+00
      vertex   1.870000e+02 -1.387779e-14 3.400000e+01
    endloop
  endfacet
  facet normal 0.000000e+00 -1.000000e+00 0.000000e+00
    outer loop
      vertex   0.000000e+00 0.000000e+00 1.500000e+00
      vertex   1.890000e+02 0.000000e+00 1.500000e+00
      vertex   1.120000e+02 0.000000e+00 2.276013e+01
    endloop
  endfacet
  facet normal 0.000000e+00 -1.000000e+00 0.000000e+00
    outer loop
      vertex   1.120000e+02 0.000000e+00 2.276013e+01
      vertex   7.700000e+01 0.000000e+00 2.276013e+01
      vertex   0.000000e+00 0.000000e+00 1.500000e+00
    endloop
  endfacet
  facet normal 0.000000e+00 -1.000000e+00 0.000000e+00
    outer loop
      vertex   0.000000e+00 0.000000e+00 1.500000e+00
      vertex   7.700000e+01 0.000000e+00 2.276013e+01
      vertex   2.000000e+00 0.000000e+00 3.400000e+01
    endloop
  endfacet
  facet normal -8.319177e-17 -1.000000e+00 -5.551115e-16
    outer loop
      vertex   2.000000e+00 -1.387779e-14 5.900000e+01
      vertex   2.000000e+00 0.000000e+00 3.400000e+01
      vertex   7.700000e+01 0.000000e+00 2.276013e+01
    endloop
  endfacet
  facet normal 9.912706e-17 0.000000e+00 -1.000000e+00
    outer loop
      vertex   1.120000e+02 0.000000e+00 2.276013e+01
      vertex   1.120000e+02 -2.000000e+01 2.276013e+01
      vertex   7.700000e+01 -2.000000e+01 2.276013e+01
    endloop
  endfacet
  facet normal 9.912706e-17 0.000000e+00 -1.000000e+00
    outer loop
      vertex   7.700000e+01 -2.000000e+01 2.276013e+01
      vertex   7.700000e+01 0.000000e+00 2.276013e+01
      vertex   1.120000e+02 0.000000e+00 2.276013e+01
    endloop
  endfacet
  facet normal 1.000000e+00 0.000000e+00 0.000000e+00
    outer loop
      vertex   1.120000e+02 0.000000e+00 3.276013e+01
      vertex   1.120000e+02 -2.000000e+01 3.276013e+01
      vertex   1.120000e+02 -2.000000e+01 2.276013e+01
    endloop
  endfacet
  facet normal 1.000000e+00 0.000000e+00 0.000000e+00
    outer loop
      vertex   1.120000e+02 -2.000000e+01 2.276013e+01
      vertex   1.120000e+02 0.000000e+00 2.276013e+01
      vertex   1.120000e+02 0.000000e+00 3.276013e+01
    endloop
  endfacet
  facet normal 0.000000e+00 0.000000e+00 1.000000e+00
    outer loop
      vertex   7.700000e+01 0.000000e+00 3.276013e+01
      vertex   7.700000e+01 -2.000000e+01 3.276013e+01
      vertex   1.120000e+02 -2.000000e+01 3.276013e+01
    endloop
  endfacet
  facet normal 0.000000e+00 -0.000000e+00 1.000000e+00
    outer loop
      vertex   1.120000e+02 -2.000000e+01 3.276013e+01
      vertex   1.120000e+02 0.000000e+00 3.276013e+01
      vertex   7.700000e+01 0.000000e+00 3.276013e+01
    endloop
  endfacet
  facet normal -1.000000e+00 0.000000e+00 0.000000e+00
    outer loop
      vertex   7.700000e+01 0.000000e+00 2.276013e+01
      vertex   7.700000e+01 -2.000000e+01 2.276013e+01
      vertex   7.700000e+01 -2.000000e+01 3.276013e+01
    endloop
  endfacet
  facet normal -1.000000e+00 0.000000e+00 0.000000e+00
    outer loop
      vertex   7.700000e+01 -2.000000e+01 3.276013e+01
      vertex   7.700000e+01 0.000000e+00 3.276013e+01
      vertex   7.700000e+01 0.000000e+00 2.276013e+01
    endloop
  endfacet
  facet normal 0.000000e+00 -1.000000e+00 0.000000e+00
    outer loop
      vertex   1.120000e+02 -2.000000e+01 2.276013e+01
      vertex   1.120000e+02 -2.000000e+01 3.276013e+01
      vertex   7.700000e+01 -2.000000e+01 3.276013e+01
    endloop
  endfacet
  facet normal 0.000000e+00 -1.000000e+00 0.000000e+00
    outer loop
      vertex   7.700000e+01 -2.000000e+01 3.276013e+01
      vertex   7.700000e+01 -2.000000e+01 2.276013e+01
      vertex   1.120000e+02 -2.000000e+01 2.276013e+01
    endloop
  endfacet
  facet normal 0.000000e+00 -0.000000e+00 1.000000e+00
    outer loop
      vertex   1.000000e+01 8.000000e+00 5.900000e+01
      vertex   1.000000e+01 1.620000e+02 5.900000e+01
      vertex   2.000000e+00 1.700000e+02 5.900000e+01
    endloop
  endfacet
  facet normal 0.000000e+00 0.000000e+00 1.000000e+00
    outer loop
      vertex   2.000000e+00 1.700000e+02 5.900000e+01
      vertex   2.000000e+00 -1.387779e-14 5.900000e+01
      vertex   1.000000e+01 8.000000e+00 5.900000e+01
    endloop
  endfacet
  facet normal 0.000000e+00 0.000000e+00 1.000000e+00
    outer loop
      vertex   1.790000e+02 8.000000e+00 5.900000e+01
      vertex   1.000000e+01 8.000000e+00 5.900000e+01
      vertex   2.000000e+00 -1.387779e-14 5.900000e+01
    endloop
  endfacet
  facet normal 0.000000e+00 0.000000e+00 1.000000e+00
    outer loop
      vertex   2.000000e+00 -1.387779e-14 5.900000e+01
      vertex   1.870000e+02 0.000000e+00 5.900000e+01
      vertex   1.790000e+02 8.000000e+00 5.900000e+01
    endloop
  endfacet
  facet normal 0.000000e+00 0.000000e+00 1.000000e+00
    outer loop
      vertex   1.790000e+02 1.620000e+02 5.900000e+01
      vertex   1.790000e+02 8.000000e+00 5.900000e+01
      vertex   1.870000e+02 0.000000e+00 5.900000e+01
    endloop
  endfacet
  facet normal 0.000000e+00 -0.000000e+00 1.000000e+00
    outer loop
      vertex   1.870000e+02 0.000000e+00 5.900000e+01
      vertex   1.870000e+02 1.700000e+02 5.900000e+01
      vertex   1.790000e+02 1.620000e+02 5.900000e+01
    endloop
  endfacet
  facet normal 0.000000e+00 0.000000e+00 1.000000e+00
    outer loop
      vertex   1.000000e+01 1.620000e+02 5.900000e+01
      vertex   1.790000e+02 1.620000e+02 5.900000e+01
      vertex   1.870000e+02 1.700000e+02 5.900000e+01
    endloop
  endfacet
  facet normal 0.000000e+00 0.000000e+00 1.000000e+00
    outer loop
      vertex   1.870000e+02 1.700000e+02 5.900000e+01
      vertex   2.000000e+00 1.700000e+02 5.900000e+01
      vertex   1.000000e+01 1.620000e+02 5.900000e+01
    endloop
  endfacet
  facet normal 1.000000e+00 0.000000e+00 0.000000e+00
    outer loop
      vertex   1.000000e+01 8.000000e+00 5.900000e+01
      vertex   1.000000e+01 8.000000e+00 2.600000e+01
      vertex   1.000000e+01 1.620000e+02 2.600000e+01
    endloop
  endfacet
  facet normal 1.000000e+00 0.000000e+00 -0.000000e+00
    outer loop
      vertex   1.000000e+01 1.620000e+02 2.600000e+01
      vertex   1.000000e+01 1.620000e+02 5.900000e+01
      vertex   1.000000e+01 8.000000e+00 5.900000e+01
    endloop
  endfacet
  facet normal 0.000000e+00 0.000000e+00 -1.000000e+00
    outer loop
      vertex   8.000000e+00 8.000000e+00 2.600000e+01
      vertex   8.000000e+00 1.620000e+02 2.600000e+01
      vertex   1.000000e+01 1.620000e+02 2.600000e+01
    endloop
  endfacet
  facet normal 0.000000e+00 -0.000000e+00 -1.000000e+00
    outer loop
      vertex   1.000000e+01 1.620000e+02 2.600000e+01
      vertex   1.000000e+01 8.000000e+00 2.600000e+01
      vertex   8.000000e+00 8.000000e+00 2.600000e+01
    endloop
  endfacet
  facet normal 1.000000e+00 0.000000e+00 0.000000e+00
    outer loop
      vertex   8.000000e+00 8.000000e+00 2.600000e+01
      vertex   8.000000e+00 8.000000e+00 9.500000e+00
      vertex   8.000000e+00 1.620000e+02 9.500000e+00
    endloop
  endfacet
  facet normal 1.000000e+00 0.000000e+00 -0.000000e+00
    outer loop
      vertex   8.000000e+00 1.620000e+02 9.500000e+00
      vertex   8.000000e+00 1.620000e+02 2.600000e+01
      vertex   8.000000e+00 8.000000e+00 2.600000e+01
    endloop
  endfacet
  facet normal 0.000000e+00 -0.000000e+00 1.000000e+00
    outer loop
      vertex   1.810000e+02 8.000000e+00 9.500000e+00
      vertex   1.810000e+02 1.620000e+02 9.500000e+00
      vertex   8.000000e+00 1.620000e+02 9.500000e+00
    endloop
  endfacet
  facet normal 0.000000e+00 0.000000e+00 1.000000e+00
    outer loop
      vertex   8.000000e+00 1.620000e+02 9.500000e+00
      vertex   8.000000e+00 8.000000e+00 9.500000e+00
      vertex   1.810000e+02 8.000000e+00 9.500000e+00
    endloop
  endfacet
  facet normal 0.000000e+00 1.000000e+00 0.000000e+00
    outer loop
      vertex   1.000000e+01 8.000000e+00 2.600000e+01
      vertex   1.810000e+02 8.000000e+00 9.500000e+00
      vertex   8.000000e+00 8.000000e+00 9.500000e+00
    endloop
  endfacet
  facet normal 0.000000e+00 1.000000e+00 0.000000e+00
    outer loop
      vertex   8.000000e+00 8.000000e+00 9.500000e+00
      vertex   8.000000e+00 8.000000e+00 2.600000e+01
      vertex   1.000000e+01 8.000000e+00 2.600000e+01
    endloop
  endfacet
  facet normal -0.000000e+00 1.000000e+00 0.000000e+00
    outer loop
      vertex   1.790000e+02 8.000000e+00 2.600000e+01
      vertex   1.810000e+02 8.000000e+00 2.600000e+01
      vertex   1.810000e+02 8.000000e+00 9.500000e+00
    endloop
  endfacet
  facet normal 0.000000e+00 1.000000e+00 0.000000e+00
    outer loop
      vertex   1.810000e+02 8.000000e+00 9.500000e+00
      vertex   1.000000e+01 8.000000e+00 2.600000e+01
      vertex   1.790000e+02 8.000000e+00 2.600000e+01
    endloop
  endfacet
  facet normal 0.000000e+00 1.000000e+00 0.000000e+00
    outer loop
      vertex   1.790000e+02 8.000000e+00 5.900000e+01
      vertex   1.790000e+02 8.000000e+00 2.600000e+01
      vertex   1.000000e+01 8.000000e+00 2.600000e+01
    endloop
  endfacet
  facet normal 0.000000e+00 1.000000e+00 0.000000e+00
    outer loop
      vertex   1.000000e+01 8.000000e+00 2.600000e+01
      vertex   1.000000e+01 8.000000e+00 5.900000e+01
      vertex   1.790000e+02 8.000000e+00 5.900000e+01
    endloop
  endfacet
  facet normal -0.000000e+00 -1.000000e+00 0.000000e+00
    outer loop
      vertex   1.000000e+01 1.620000e+02 2.600000e+01
      vertex   8.000000e+00 1.620000e+02 2.600000e+01
      vertex   8.000000e+00 1.620000e+02 9.500000e+00
    endloop
  endfacet
  facet normal 0.000000e+00 -1.000000e+00 0.000000e+00
    outer loop
      vertex   1.810000e+02 1.620000e+02 9.500000e+00
      vertex   1.810000e+02 1.620000e+02 2.600000e+01
      vertex   1.790000e+02 1.620000e+02 2.600000e+01
    endloop
  endfacet
  facet normal 0.000000e+00 -1.000000e+00 0.000000e+00
    outer loop
      vertex   1.790000e+02 1.620000e+02 2.600000e+01
      vertex   1.790000e+02 1.620000e+02 5.900000e+01
      vertex   1.000000e+01 1.620000e+02 5.900000e+01
    endloop
  endfacet
  facet normal 0.000000e+00 -1.000000e+00 0.000000e+00
    outer loop
      vertex   1.000000e+01 1.620000e+02 5.900000e+01
      vertex   1.000000e+01 1.620000e+02 2.600000e+01
      vertex   1.790000e+02 1.620000e+02 2.600000e+01
    endloop
  endfacet
  facet normal -0.000000e+00 -1.000000e+00 -0.000000e+00
    outer loop
      vertex   1.790000e+02 1.620000e+02 2.600000e+01
      vertex   1.000000e+01 1.620000e+02 2.600000e+01
      vertex   1.810000e+02 1.620000e+02 9.500000e+00
    endloop
  endfacet
  facet normal 0.000000e+00 -1.000000e+00 0.000000e+00
    outer loop
      vertex   8.000000e+00 1.620000e+02 9.500000e+00
      vertex   1.810000e+02 1.620000e+02 9.500000e+00
      vertex   1.000000e+01 1.620000e+02 2.600000e+01
    endloop
  endfacet
  facet normal -1.000000e+00 0.000000e+00 -0.000000e+00
    outer loop
      vertex   1.810000e+02 1.620000e+02 2.600000e+01
      vertex   1.810000e+02 1.620000e+02 9.500000e+00
      vertex   1.810000e+02 8.000000e+00 9.500000e+00
    endloop
  endfacet
  facet normal -1.000000e+00 0.000000e+00 0.000000e+00
    outer loop
      vertex   1.810000e+02 8.000000e+00 9.500000e+00
      vertex   1.810000e+02 8.000000e+00 2.600000e+01
      vertex   1.810000e+02 1.620000e+02 2.600000e+01
    endloop
  endfacet
  facet normal -1.000000e+00 0.000000e+00 -0.000000e+00
    outer loop
      vertex   1.790000e+02 1.620000e+02 5.900000e+01
      vertex   1.790000e+02 1.620000e+02 2.600000e+01
      vertex   1.790000e+02 8.000000e+00 2.600000e+01
    endloop
  endfacet
  facet normal -1.000000e+00 0.000000e+00 0.000000e+00
    outer loop
      vertex   1.790000e+02 8.000000e+00 2.600000e+01
      vertex   1.790000e+02 8.000000e+00 5.900000e+01
      vertex   1.790000e+02 1.620000e+02 5.900000e+01
    endloop
  endfacet
  facet normal 0.000000e+00 0.000000e+00 -1.000000e+00
    outer loop
      vertex   1.790000e+02 8.000000e+00 2.600000e+01
      vertex   1.790000e+02 1.620000e+02 2.600000e+01
      vertex   1.810000e+02 1.620000e+02 2.600000e+01
    endloop
  endfacet
  facet normal 0.000000e+00 -0.000000e+00 -1.000000e+00
    outer loop
      vertex   1.810000e+02 1.620000e+02 2.600000e+01
      vertex   1.810000e+02 8.000000e+00 2.600000e+01
      vertex   1.790000e+02 8.000000e+00 2.600000e+01
    endloop
  endfacet
endsolid
