solid ascii
  facet normal 0.000000e+00 -1.000000e+00 0.000000e+00
    outer loop
      vertex   9.450000e+01 -2.875000e+01 0.000000e+00
      vertex   9.450000e+01 -2.875000e+01 1.700000e+02
      vertex   -9.450000e+01 -2.875000e+01 1.700000e+02
    endloop
  endfacet
  facet normal 0.000000e+00 -1.000000e+00 0.000000e+00
    outer loop
      vertex   -9.450000e+01 -2.875000e+01 1.700000e+02
      vertex   -9.450000e+01 -2.875000e+01 0.000000e+00
      vertex   9.450000e+01 -2.875000e+01 0.000000e+00
    endloop
  endfacet
  facet normal 1.000000e+00 0.000000e+00 -0.000000e+00
    outer loop
      vertex   9.450000e+01 2.875000e+01 0.000000e+00
      vertex   9.450000e+01 2.875000e+01 1.700000e+02
      vertex   9.450000e+01 -2.875000e+01 1.700000e+02
    endloop
  endfacet
  facet normal 1.000000e+00 0.000000e+00 0.000000e+00
    outer loop
      vertex   9.450000e+01 -2.875000e+01 1.700000e+02
      vertex   9.450000e+01 -2.875000e+01 0.000000e+00
      vertex   9.450000e+01 2.875000e+01 0.000000e+00
    endloop
  endfacet
  facet normal -1.000000e+00 0.000000e+00 0.000000e+00
    outer loop
      vertex   -9.450000e+01 -2.875000e+01 0.000000e+00
      vertex   -9.450000e+01 -2.875000e+01 1.700000e+02
      vertex   -9.450000e+01 2.875000e+01 1.700000e+02
    endloop
  endfacet
  facet normal -1.000000e+00 0.000000e+00 -0.000000e+00
    outer loop
      vertex   -9.450000e+01 2.875000e+01 1.700000e+02
      vertex   -9.450000e+01 2.875000e+01 0.000000e+00
      vertex   -9.450000e+01 -2.875000e+01 0.000000e+00
    endloop
  endfacet
  facet normal 0.000000e+00 0.000000e+00 -1.000000e+00
    outer loop
      vertex   -9.450000e+01 -2.875000e+01 0.000000e+00
      vertex   -9.450000e+01 2.875000e+01 0.000000e+00
      vertex   9.450000e+01 2.875000e+01 0.000000e+00
    endloop
  endfacet
  facet normal 0.000000e+00 -0.000000e+00 -1.000000e+00
    outer loop
      vertex   9.450000e+01 2.875000e+01 0.000000e+00
      vertex   9.450000e+01 -2.875000e+01 0.000000e+00
      vertex   -9.450000e+01 -2.875000e+01 0.000000e+00
    endloop
  endfacet
  facet normal 0.000000e+00 1.000000e+00 0.000000e+00
    outer loop
      vertex   -8.650000e+01 2.875000e+01 1.620000e+02
      vertex   -8.650000e+01 2.875000e+01 8.000000e+00
      vertex   -9.450000e+01 2.875000e+01 0.000000e+00
    endloop
  endfacet
  facet normal 0.000000e+00 1.000000e+00 0.000000e+00
    outer loop
      vertex   -9.450000e+01 2.875000e+01 0.000000e+00
      vertex   -9.450000e+01 2.875000e+01 1.700000e+02
      vertex   -8.650000e+01 2.875000e+01 1.620000e+02
    endloop
  endfacet
  facet normal 0.000000e+00 1.000000e+00 0.000000e+00
    outer loop
      vertex   8.650000e+01 2.875000e+01 1.620000e+02
      vertex   -8.650000e+01 2.875000e+01 1.620000e+02
      vertex   -9.450000e+01 2.875000e+01 1.700000e+02
    endloop
  endfacet
  facet normal -0.000000e+00 1.000000e+00 0.000000e+00
    outer loop
      vertex   -9.450000e+01 2.875000e+01 1.700000e+02
      vertex   9.450000e+01 2.875000e+01 1.700000e+02
      vertex   8.650000e+01 2.875000e+01 1.620000e+02
    endloop
  endfacet
  facet normal 0.000000e+00 1.000000e+00 0.000000e+00
    outer loop
      vertex   8.650000e+01 2.875000e+01 8.000000e+00
      vertex   8.650000e+01 2.875000e+01 1.620000e+02
      vertex   9.450000e+01 2.875000e+01 1.700000e+02
    endloop
  endfacet
  facet normal 0.000000e+00 1.000000e+00 0.000000e+00
    outer loop
      vertex   9.450000e+01 2.875000e+01 1.700000e+02
      vertex   9.450000e+01 2.875000e+01 0.000000e+00
      vertex   8.650000e+01 2.875000e+01 8.000000e+00
    endloop
  endfacet
  facet normal -0.000000e+00 1.000000e+00 0.000000e+00
    outer loop
      vertex   -8.650000e+01 2.875000e+01 8.000000e+00
      vertex   8.650000e+01 2.875000e+01 8.000000e+00
      vertex   9.450000e+01 2.875000e+01 0.000000e+00
    endloop
  endfacet
  facet normal 0.000000e+00 1.000000e+00 0.000000e+00
    outer loop
      vertex   9.450000e+01 2.875000e+01 0.000000e+00
      vertex   -9.450000e+01 2.875000e+01 0.000000e+00
      vertex   -8.650000e+01 2.875000e+01 8.000000e+00
    endloop
  endfacet
  facet normal -1.000000e+00 0.000000e+00 0.000000e+00
    outer loop
      vertex   8.650000e+01 -2.075000e+01 8.000000e+00
      vertex   8.650000e+01 -2.075000e+01 1.620000e+02
      vertex   8.650000e+01 2.875000e+01 1.620000e+02
    endloop
  endfacet
  facet normal -1.000000e+00 0.000000e+00 -0.000000e+00
    outer loop
      vertex   8.650000e+01 2.875000e+01 1.620000e+02
      vertex   8.650000e+01 2.875000e+01 8.000000e+00
      vertex   8.650000e+01 -2.075000e+01 8.000000e+00
    endloop
  endfacet
  facet normal 0.000000e+00 1.000000e+00 0.000000e+00
    outer loop
      vertex   -8.650000e+01 -2.075000e+01 8.000000e+00
      vertex   -8.650000e+01 -2.075000e+01 1.620000e+02
      vertex   8.650000e+01 -2.075000e+01 1.620000e+02
    endloop
  endfacet
  facet normal 0.000000e+00 1.000000e+00 0.000000e+00
    outer loop
      vertex   8.650000e+01 -2.075000e+01 1.620000e+02
      vertex   8.650000e+01 -2.075000e+01 8.000000e+00
      vertex   -8.650000e+01 -2.075000e+01 8.000000e+00
    endloop
  endfacet
  facet normal 1.000000e+00 0.000000e+00 -0.000000e+00
    outer loop
      vertex   -8.650000e+01 2.875000e+01 8.000000e+00
      vertex   -8.650000e+01 2.875000e+01 1.620000e+02
      vertex   -8.650000e+01 -2.075000e+01 1.620000e+02
    endloop
  endfacet
  facet normal 1.000000e+00 0.000000e+00 0.000000e+00
    outer loop
      vertex   -8.650000e+01 -2.075000e+01 1.620000e+02
      vertex   -8.650000e+01 -2.075000e+01 8.000000e+00
      vertex   -8.650000e+01 2.875000e+01 8.000000e+00
    endloop
  endfacet
  facet normal 0.000000e+00 0.000000e+00 -1.000000e+00
    outer loop
      vertex   -8.650000e+01 -2.075000e+01 1.620000e+02
      vertex   -8.650000e+01 2.875000e+01 1.620000e+02
      vertex   8.650000e+01 2.875000e+01 1.620000e+02
    endloop
  endfacet
  facet normal 0.000000e+00 -0.000000e+00 -1.000000e+00
    outer loop
      vertex   8.650000e+01 2.875000e+01 1.620000e+02
      vertex   8.650000e+01 -2.075000e+01 1.620000e+02
      vertex   -8.650000e+01 -2.075000e+01 1.620000e+02
    endloop
  endfacet
  facet normal -4.010921e-17 0.000000e+00 1.000000e+00
    outer loop
      vertex   8.650000e+01 -2.075000e+01 8.000000e+00
      vertex   8.650000e+01 2.875000e+01 8.000000e+00
      vertex   -8.650000e+01 2.875000e+01 8.000000e+00
    endloop
  endfacet
  facet normal 0.000000e+00 1.401797e-16 1.000000e+00
    outer loop
      vertex   -8.650000e+01 2.875000e+01 8.000000e+00
      vertex   -8.650000e+01 -2.075000e+01 8.000000e+00
      vertex   8.650000e+01 -2.075000e+01 8.000000e+00
    endloop
  endfacet
  facet normal 3.604620e-16 -0.000000e+00 1.000000e+00
    outer loop
      vertex   -1.750000e+01 -5.000000e+00 1.700000e+02
      vertex   -1.750000e+01 5.000000e+00 1.700000e+02
      vertex   -9.450000e+01 2.875000e+01 1.700000e+02
    endloop
  endfacet
  facet normal 3.604620e-16 0.000000e+00 1.000000e+00
    outer loop
      vertex   -9.450000e+01 2.875000e+01 1.700000e+02
      vertex   -9.450000e+01 -2.875000e+01 1.700000e+02
      vertex   -1.750000e+01 -5.000000e+00 1.700000e+02
    endloop
  endfacet
  facet normal 0.000000e+00 1.168656e-15 1.000000e+00
    outer loop
      vertex   1.750000e+01 -5.000000e+00 1.700000e+02
      vertex   -1.750000e+01 -5.000000e+00 1.700000e+02
      vertex   -9.450000e+01 -2.875000e+01 1.700000e+02
    endloop
  endfacet
  facet normal -0.000000e+00 1.168656e-15 1.000000e+00
    outer loop
      vertex   -9.450000e+01 -2.875000e+01 1.700000e+02
      vertex   9.450000e+01 -2.875000e+01 1.700000e+02
      vertex   1.750000e+01 -5.000000e+00 1.700000e+02
    endloop
  endfacet
  facet normal -3.604620e-16 0.000000e+00 1.000000e+00
    outer loop
      vertex   1.750000e+01 5.000000e+00 1.700000e+02
      vertex   1.750000e+01 -5.000000e+00 1.700000e+02
      vertex   9.450000e+01 -2.875000e+01 1.700000e+02
    endloop
  endfacet
  facet normal -3.604620e-16 0.000000e+00 1.000000e+00
    outer loop
      vertex   9.450000e+01 -2.875000e+01 1.700000e+02
      vertex   9.450000e+01 2.875000e+01 1.700000e+02
      vertex   1.750000e+01 5.000000e+00 1.700000e+02
    endloop
  endfacet
  facet normal 0.000000e+00 -1.168656e-15 1.000000e+00
    outer loop
      vertex   -1.750000e+01 5.000000e+00 1.700000e+02
      vertex   1.750000e+01 5.000000e+00 1.700000e+02
      vertex   9.450000e+01 2.875000e+01 1.700000e+02
    endloop
  endfacet
  facet normal 0.000000e+00 -1.168656e-15 1.000000e+00
    outer loop
      vertex   9.450000e+01 2.875000e+01 1.700000e+02
      vertex   -9.450000e+01 2.875000e+01 1.700000e+02
      vertex   -1.750000e+01 5.000000e+00 1.700000e+02
    endloop
  endfacet
  facet normal 0.000000e+00 -1.000000e+00 0.000000e+00
    outer loop
      vertex   1.750000e+01 -5.000000e+00 1.700000e+02
      vertex   1.750000e+01 -5.000000e+00 1.950000e+02
      vertex   -1.750000e+01 -5.000000e+00 1.950000e+02
    endloop
  endfacet
  facet normal 0.000000e+00 -1.000000e+00 0.000000e+00
    outer loop
      vertex   -1.750000e+01 -5.000000e+00 1.950000e+02
      vertex   -1.750000e+01 -5.000000e+00 1.700000e+02
      vertex   1.750000e+01 -5.000000e+00 1.700000e+02
    endloop
  endfacet
  facet normal 1.000000e+00 0.000000e+00 -0.000000e+00
    outer loop
      vertex   1.750000e+01 5.000000e+00 1.700000e+02
      vertex   1.750000e+01 5.000000e+00 1.950000e+02
      vertex   1.750000e+01 -5.000000e+00 1.950000e+02
    endloop
  endfacet
  facet normal 1.000000e+00 0.000000e+00 0.000000e+00
    outer loop
      vertex   1.750000e+01 -5.000000e+00 1.950000e+02
      vertex   1.750000e+01 -5.000000e+00 1.700000e+02
      vertex   1.750000e+01 5.000000e+00 1.700000e+02
    endloop
  endfacet
  facet normal 0.000000e+00 1.000000e+00 0.000000e+00
    outer loop
      vertex   -1.750000e+01 5.000000e+00 1.700000e+02
      vertex   -1.750000e+01 5.000000e+00 1.950000e+02
      vertex   1.750000e+01 5.000000e+00 1.950000e+02
    endloop
  endfacet
  facet normal 0.000000e+00 1.000000e+00 0.000000e+00
    outer loop
      vertex   1.750000e+01 5.000000e+00 1.950000e+02
      vertex   1.750000e+01 5.000000e+00 1.700000e+02
      vertex   -1.750000e+01 5.000000e+00 1.700000e+02
    endloop
  endfacet
  facet normal -1.000000e+00 0.000000e+00 0.000000e+00
    outer loop
      vertex   -1.750000e+01 -5.000000e+00 1.700000e+02
      vertex   -1.750000e+01 -5.000000e+00 1.950000e+02
      vertex   -1.750000e+01 5.000000e+00 1.950000e+02
    endloop
  endfacet
  facet normal -1.000000e+00 0.000000e+00 -0.000000e+00
    outer loop
      vertex   -1.750000e+01 5.000000e+00 1.950000e+02
      vertex   -1.750000e+01 5.000000e+00 1.700000e+02
      vertex   -1.750000e+01 -5.000000e+00 1.700000e+02
    endloop
  endfacet
  facet normal 0.000000e+00 -0.000000e+00 1.000000e+00
    outer loop
      vertex   1.750000e+01 -5.000000e+00 1.950000e+02
      vertex   1.750000e+01 5.000000e+00 1.950000e+02
      vertex   -1.750000e+01 5.000000e+00 1.950000e+02
    endloop
  endfacet
  facet normal 0.000000e+00 0.000000e+00 1.000000e+00
    outer loop
      vertex   -1.750000e+01 5.000000e+00 1.950000e+02
      vertex   -1.750000e+01 -5.000000e+00 1.950000e+02
      vertex   1.750000e+01 -5.000000e+00 1.950000e+02
    endloop
  endfacet
endsolid
