solid ascii
  facet normal 0.000000e+00 0.000000e+00 -1.000000e+00
    outer loop
      vertex   1.162500e+02 4.146627e+01 8.000000e+00
      vertex   1.168309e+02 4.132309e+01 8.000000e+00
      vertex   1.162500e+02 4.021627e+01 8.000000e+00
    endloop
  endfacet
  facet normal 0.000000e+00 0.000000e+00 -1.000000e+00
    outer loop
      vertex   1.150091e+02 4.036694e+01 8.000000e+00
      vertex   1.152213e+02 4.092635e+01 8.000000e+00
      vertex   1.162500e+02 4.021627e+01 8.000000e+00
    endloop
  endfacet
  facet normal 0.000000e+00 0.000000e+00 -1.000000e+00
    outer loop
      vertex   1.152213e+02 4.092635e+01 8.000000e+00
      vertex   1.156691e+02 4.132309e+01 8.000000e+00
      vertex   1.162500e+02 4.021627e+01 8.000000e+00
    endloop
  endfacet
  facet normal 0.000000e+00 0.000000e+00 -1.000000e+00
    outer loop
      vertex   1.156691e+02 4.132309e+01 8.000000e+00
      vertex   1.162500e+02 4.146627e+01 8.000000e+00
      vertex   1.162500e+02 4.021627e+01 8.000000e+00
    endloop
  endfacet
  facet normal 0.000000e+00 0.000000e+00 -1.000000e+00
    outer loop
      vertex   1.159509e+02 3.900259e+01 8.000000e+00
      vertex   1.154211e+02 3.928063e+01 8.000000e+00
      vertex   1.162500e+02 4.021627e+01 8.000000e+00
    endloop
  endfacet
  facet normal 0.000000e+00 0.000000e+00 -1.000000e+00
    outer loop
      vertex   1.154211e+02 3.928063e+01 8.000000e+00
      vertex   1.150812e+02 3.977301e+01 8.000000e+00
      vertex   1.162500e+02 4.021627e+01 8.000000e+00
    endloop
  endfacet
  facet normal 0.000000e+00 0.000000e+00 -1.000000e+00
    outer loop
      vertex   1.150812e+02 3.977301e+01 8.000000e+00
      vertex   1.150091e+02 4.036694e+01 8.000000e+00
      vertex   1.162500e+02 4.021627e+01 8.000000e+00
    endloop
  endfacet
  facet normal -0.000000e+00 0.000000e+00 -1.000000e+00
    outer loop
      vertex   1.174188e+02 3.977301e+01 8.000000e+00
      vertex   1.170789e+02 3.928063e+01 8.000000e+00
      vertex   1.162500e+02 4.021627e+01 8.000000e+00
    endloop
  endfacet
  facet normal -0.000000e+00 0.000000e+00 -1.000000e+00
    outer loop
      vertex   1.170789e+02 3.928063e+01 8.000000e+00
      vertex   1.165491e+02 3.900259e+01 8.000000e+00
      vertex   1.162500e+02 4.021627e+01 8.000000e+00
    endloop
  endfacet
  facet normal 0.000000e+00 0.000000e+00 -1.000000e+00
    outer loop
      vertex   1.165491e+02 3.900259e+01 8.000000e+00
      vertex   1.159509e+02 3.900259e+01 8.000000e+00
      vertex   1.162500e+02 4.021627e+01 8.000000e+00
    endloop
  endfacet
  facet normal 0.000000e+00 0.000000e+00 -1.000000e+00
    outer loop
      vertex   1.162500e+02 4.021627e+01 8.000000e+00
      vertex   1.168309e+02 4.132309e+01 8.000000e+00
      vertex   1.172787e+02 4.092635e+01 8.000000e+00
    endloop
  endfacet
  facet normal 0.000000e+00 -0.000000e+00 -1.000000e+00
    outer loop
      vertex   1.172787e+02 4.092635e+01 8.000000e+00
      vertex   1.174909e+02 4.036694e+01 8.000000e+00
      vertex   1.162500e+02 4.021627e+01 8.000000e+00
    endloop
  endfacet
  facet normal 0.000000e+00 0.000000e+00 -1.000000e+00
    outer loop
      vertex   1.174909e+02 4.036694e+01 8.000000e+00
      vertex   1.174188e+02 3.977301e+01 8.000000e+00
      vertex   1.162500e+02 4.021627e+01 8.000000e+00
    endloop
  endfacet
  facet normal -9.350162e-01 -3.546049e-01 -1.415107e-17
    outer loop
      vertex   1.172787e+02 4.092635e+01 5.000000e+00
      vertex   1.174909e+02 4.036694e+01 5.000000e+00
      vertex   1.174909e+02 4.036694e+01 8.000000e+00
    endloop
  endfacet
  facet normal -9.981756e-01 -6.037850e-02 -0.000000e+00
    outer loop
      vertex   1.174909e+02 4.036694e+01 8.000000e+00
      vertex   1.174909e+02 4.036694e+01 5.000000e+00
      vertex   1.175000e+02 4.021627e+01 5.000000e+00
    endloop
  endfacet
  facet normal -9.926680e-01 1.205317e-01 -9.069234e-03
    outer loop
      vertex   1.174188e+02 3.977301e+01 8.000000e+00
      vertex   1.174909e+02 4.036694e+01 8.000000e+00
      vertex   1.175000e+02 4.021627e+01 5.000000e+00
    endloop
  endfacet
  facet normal -9.836199e-01 1.802550e-01 7.016741e-18
    outer loop
      vertex   1.175000e+02 4.021627e+01 5.000000e+00
      vertex   1.174188e+02 3.977301e+01 5.000000e+00
      vertex   1.174188e+02 3.977301e+01 8.000000e+00
    endloop
  endfacet
  facet normal -8.229839e-01 5.680647e-01 0.000000e+00
    outer loop
      vertex   1.170789e+02 3.928063e+01 8.000000e+00
      vertex   1.174188e+02 3.977301e+01 8.000000e+00
      vertex   1.174188e+02 3.977301e+01 5.000000e+00
    endloop
  endfacet
  facet normal -8.229839e-01 5.680647e-01 0.000000e+00
    outer loop
      vertex   1.174188e+02 3.977301e+01 5.000000e+00
      vertex   1.170789e+02 3.928063e+01 5.000000e+00
      vertex   1.170789e+02 3.928063e+01 8.000000e+00
    endloop
  endfacet
  facet normal -4.647232e-01 8.854560e-01 -1.415107e-17
    outer loop
      vertex   1.165491e+02 3.900259e+01 8.000000e+00
      vertex   1.170789e+02 3.928063e+01 8.000000e+00
      vertex   1.170789e+02 3.928063e+01 5.000000e+00
    endloop
  endfacet
  facet normal -4.647232e-01 8.854560e-01 -1.415107e-17
    outer loop
      vertex   1.170789e+02 3.928063e+01 5.000000e+00
      vertex   1.165491e+02 3.900259e+01 5.000000e+00
      vertex   1.165491e+02 3.900259e+01 8.000000e+00
    endloop
  endfacet
  facet normal -0.000000e+00 1.000000e+00 0.000000e+00
    outer loop
      vertex   1.159509e+02 3.900259e+01 8.000000e+00
      vertex   1.165491e+02 3.900259e+01 8.000000e+00
      vertex   1.165491e+02 3.900259e+01 5.000000e+00
    endloop
  endfacet
  facet normal 0.000000e+00 1.000000e+00 0.000000e+00
    outer loop
      vertex   1.165491e+02 3.900259e+01 5.000000e+00
      vertex   1.159509e+02 3.900259e+01 5.000000e+00
      vertex   1.159509e+02 3.900259e+01 8.000000e+00
    endloop
  endfacet
  facet normal 4.647232e-01 8.854560e-01 1.415107e-17
    outer loop
      vertex   1.154211e+02 3.928063e+01 8.000000e+00
      vertex   1.159509e+02 3.900259e+01 8.000000e+00
      vertex   1.159509e+02 3.900259e+01 5.000000e+00
    endloop
  endfacet
  facet normal 4.647232e-01 8.854560e-01 1.415107e-17
    outer loop
      vertex   1.159509e+02 3.900259e+01 5.000000e+00
      vertex   1.154211e+02 3.928063e+01 5.000000e+00
      vertex   1.154211e+02 3.928063e+01 8.000000e+00
    endloop
  endfacet
  facet normal 8.229839e-01 5.680647e-01 0.000000e+00
    outer loop
      vertex   1.150812e+02 3.977301e+01 8.000000e+00
      vertex   1.154211e+02 3.928063e+01 8.000000e+00
      vertex   1.154211e+02 3.928063e+01 5.000000e+00
    endloop
  endfacet
  facet normal 8.229839e-01 5.680647e-01 0.000000e+00
    outer loop
      vertex   1.154211e+02 3.928063e+01 5.000000e+00
      vertex   1.150812e+02 3.977301e+01 5.000000e+00
      vertex   1.150812e+02 3.977301e+01 8.000000e+00
    endloop
  endfacet
  facet normal 9.927089e-01 1.205367e-01 -3.537768e-18
    outer loop
      vertex   1.150091e+02 4.036694e+01 8.000000e+00
      vertex   1.150812e+02 3.977301e+01 8.000000e+00
      vertex   1.150812e+02 3.977301e+01 5.000000e+00
    endloop
  endfacet
  facet normal 9.927089e-01 1.205367e-01 -3.537768e-18
    outer loop
      vertex   1.150812e+02 3.977301e+01 5.000000e+00
      vertex   1.150091e+02 4.036694e+01 5.000000e+00
      vertex   1.150091e+02 4.036694e+01 8.000000e+00
    endloop
  endfacet
  facet normal 9.350162e-01 -3.546049e-01 1.415107e-17
    outer loop
      vertex   1.152213e+02 4.092635e+01 8.000000e+00
      vertex   1.150091e+02 4.036694e+01 8.000000e+00
      vertex   1.150091e+02 4.036694e+01 5.000000e+00
    endloop
  endfacet
  facet normal 9.350162e-01 -3.546049e-01 1.415107e-17
    outer loop
      vertex   1.150091e+02 4.036694e+01 5.000000e+00
      vertex   1.152213e+02 4.092635e+01 5.000000e+00
      vertex   1.152213e+02 4.092635e+01 8.000000e+00
    endloop
  endfacet
  facet normal 6.631227e-01 -7.485107e-01 1.415107e-17
    outer loop
      vertex   1.156691e+02 4.132309e+01 8.000000e+00
      vertex   1.152213e+02 4.092635e+01 8.000000e+00
      vertex   1.152213e+02 4.092635e+01 5.000000e+00
    endloop
  endfacet
  facet normal 6.631227e-01 -7.485107e-01 1.415107e-17
    outer loop
      vertex   1.152213e+02 4.092635e+01 5.000000e+00
      vertex   1.156691e+02 4.132309e+01 5.000000e+00
      vertex   1.156691e+02 4.132309e+01 8.000000e+00
    endloop
  endfacet
  facet normal 2.393157e-01 -9.709418e-01 0.000000e+00
    outer loop
      vertex   1.162500e+02 4.146627e+01 8.000000e+00
      vertex   1.156691e+02 4.132309e+01 8.000000e+00
      vertex   1.156691e+02 4.132309e+01 5.000000e+00
    endloop
  endfacet
  facet normal 2.393157e-01 -9.709418e-01 0.000000e+00
    outer loop
      vertex   1.156691e+02 4.132309e+01 5.000000e+00
      vertex   1.162500e+02 4.146627e+01 5.000000e+00
      vertex   1.162500e+02 4.146627e+01 8.000000e+00
    endloop
  endfacet
  facet normal -2.393157e-01 -9.709418e-01 0.000000e+00
    outer loop
      vertex   1.168309e+02 4.132309e+01 8.000000e+00
      vertex   1.162500e+02 4.146627e+01 8.000000e+00
      vertex   1.162500e+02 4.146627e+01 5.000000e+00
    endloop
  endfacet
  facet normal -2.393157e-01 -9.709418e-01 0.000000e+00
    outer loop
      vertex   1.162500e+02 4.146627e+01 5.000000e+00
      vertex   1.168309e+02 4.132309e+01 5.000000e+00
      vertex   1.168309e+02 4.132309e+01 8.000000e+00
    endloop
  endfacet
  facet normal -6.631227e-01 -7.485107e-01 -1.415107e-17
    outer loop
      vertex   1.172787e+02 4.092635e+01 8.000000e+00
      vertex   1.168309e+02 4.132309e+01 8.000000e+00
      vertex   1.168309e+02 4.132309e+01 5.000000e+00
    endloop
  endfacet
  facet normal -6.631227e-01 -7.485107e-01 -1.415107e-17
    outer loop
      vertex   1.168309e+02 4.132309e+01 5.000000e+00
      vertex   1.172787e+02 4.092635e+01 5.000000e+00
      vertex   1.172787e+02 4.092635e+01 8.000000e+00
    endloop
  endfacet
  facet normal -9.350162e-01 -3.546049e-01 -1.415107e-17
    outer loop
      vertex   1.174909e+02 4.036694e+01 8.000000e+00
      vertex   1.172787e+02 4.092635e+01 8.000000e+00
      vertex   1.172787e+02 4.092635e+01 5.000000e+00
    endloop
  endfacet
  facet normal 0.000000e+00 -0.000000e+00 -1.000000e+00
    outer loop
      vertex   1.150091e+02 4.036694e+01 5.000000e+00
      vertex   1.150812e+02 3.977301e+01 5.000000e+00
      vertex   1.100000e+02 3.271627e+01 5.000000e+00
    endloop
  endfacet
  facet normal 0.000000e+00 0.000000e+00 -1.000000e+00
    outer loop
      vertex   1.100000e+02 3.271627e+01 5.000000e+00
      vertex   1.100000e+02 4.771627e+01 5.000000e+00
      vertex   1.150091e+02 4.036694e+01 5.000000e+00
    endloop
  endfacet
  facet normal -0.000000e+00 0.000000e+00 -1.000000e+00
    outer loop
      vertex   1.152213e+02 4.092635e+01 5.000000e+00
      vertex   1.150091e+02 4.036694e+01 5.000000e+00
      vertex   1.100000e+02 4.771627e+01 5.000000e+00
    endloop
  endfacet
  facet normal 0.000000e+00 0.000000e+00 -1.000000e+00
    outer loop
      vertex   1.225000e+02 4.771627e+01 5.000000e+00
      vertex   1.172787e+02 4.092635e+01 5.000000e+00
      vertex   1.168309e+02 4.132309e+01 5.000000e+00
    endloop
  endfacet
  facet normal 0.000000e+00 0.000000e+00 -1.000000e+00
    outer loop
      vertex   1.168309e+02 4.132309e+01 5.000000e+00
      vertex   1.162500e+02 4.146627e+01 5.000000e+00
      vertex   1.225000e+02 4.771627e+01 5.000000e+00
    endloop
  endfacet
  facet normal 0.000000e+00 0.000000e+00 -1.000000e+00
    outer loop
      vertex   1.100000e+02 4.771627e+01 5.000000e+00
      vertex   1.225000e+02 4.771627e+01 5.000000e+00
      vertex   1.162500e+02 4.146627e+01 5.000000e+00
    endloop
  endfacet
  facet normal -0.000000e+00 0.000000e+00 -1.000000e+00
    outer loop
      vertex   1.162500e+02 4.146627e+01 5.000000e+00
      vertex   1.156691e+02 4.132309e+01 5.000000e+00
      vertex   1.100000e+02 4.771627e+01 5.000000e+00
    endloop
  endfacet
  facet normal -0.000000e+00 0.000000e+00 -1.000000e+00
    outer loop
      vertex   1.156691e+02 4.132309e+01 5.000000e+00
      vertex   1.152213e+02 4.092635e+01 5.000000e+00
      vertex   1.100000e+02 4.771627e+01 5.000000e+00
    endloop
  endfacet
  facet normal 0.000000e+00 -0.000000e+00 -1.000000e+00
    outer loop
      vertex   1.150812e+02 3.977301e+01 5.000000e+00
      vertex   1.154211e+02 3.928063e+01 5.000000e+00
      vertex   1.100000e+02 3.271627e+01 5.000000e+00
    endloop
  endfacet
  facet normal 0.000000e+00 0.000000e+00 -1.000000e+00
    outer loop
      vertex   1.100000e+02 3.271627e+01 5.000000e+00
      vertex   1.154211e+02 3.928063e+01 5.000000e+00
      vertex   1.159509e+02 3.900259e+01 5.000000e+00
    endloop
  endfacet
  facet normal 0.000000e+00 0.000000e+00 -1.000000e+00
    outer loop
      vertex   1.225000e+02 3.271627e+01 5.000000e+00
      vertex   1.100000e+02 3.271627e+01 5.000000e+00
      vertex   1.159509e+02 3.900259e+01 5.000000e+00
    endloop
  endfacet
  facet normal 0.000000e+00 0.000000e+00 -1.000000e+00
    outer loop
      vertex   1.159509e+02 3.900259e+01 5.000000e+00
      vertex   1.165491e+02 3.900259e+01 5.000000e+00
      vertex   1.225000e+02 3.271627e+01 5.000000e+00
    endloop
  endfacet
  facet normal 0.000000e+00 0.000000e+00 -1.000000e+00
    outer loop
      vertex   1.165491e+02 3.900259e+01 5.000000e+00
      vertex   1.170789e+02 3.928063e+01 5.000000e+00
      vertex   1.225000e+02 3.271627e+01 5.000000e+00
    endloop
  endfacet
  facet normal 0.000000e+00 0.000000e+00 -1.000000e+00
    outer loop
      vertex   1.225000e+02 3.271627e+01 5.000000e+00
      vertex   1.170789e+02 3.928063e+01 5.000000e+00
      vertex   1.174188e+02 3.977301e+01 5.000000e+00
    endloop
  endfacet
  facet normal 0.000000e+00 0.000000e+00 -1.000000e+00
    outer loop
      vertex   1.225000e+02 3.271627e+01 5.000000e+00
      vertex   1.174188e+02 3.977301e+01 5.000000e+00
      vertex   1.175000e+02 4.021627e+01 5.000000e+00
    endloop
  endfacet
  facet normal 0.000000e+00 -0.000000e+00 -1.000000e+00
    outer loop
      vertex   1.225000e+02 4.771627e+01 5.000000e+00
      vertex   1.225000e+02 3.271627e+01 5.000000e+00
      vertex   1.175000e+02 4.021627e+01 5.000000e+00
    endloop
  endfacet
  facet normal 0.000000e+00 0.000000e+00 -1.000000e+00
    outer loop
      vertex   1.175000e+02 4.021627e+01 5.000000e+00
      vertex   1.174909e+02 4.036694e+01 5.000000e+00
      vertex   1.225000e+02 4.771627e+01 5.000000e+00
    endloop
  endfacet
  facet normal 0.000000e+00 0.000000e+00 -1.000000e+00
    outer loop
      vertex   1.174909e+02 4.036694e+01 5.000000e+00
      vertex   1.172787e+02 4.092635e+01 5.000000e+00
      vertex   1.225000e+02 4.771627e+01 5.000000e+00
    endloop
  endfacet
  facet normal 0.000000e+00 -1.000000e+00 0.000000e+00
    outer loop
      vertex   1.225000e+02 4.771627e+01 0.000000e+00
      vertex   1.225000e+02 4.771627e+01 5.000000e+00
      vertex   1.100000e+02 4.771627e+01 5.000000e+00
    endloop
  endfacet
  facet normal 0.000000e+00 -1.000000e+00 0.000000e+00
    outer loop
      vertex   1.100000e+02 4.771627e+01 5.000000e+00
      vertex   1.100000e+02 4.771627e+01 0.000000e+00
      vertex   1.225000e+02 4.771627e+01 0.000000e+00
    endloop
  endfacet
  facet normal 1.000000e+00 1.850372e-15 -0.000000e+00
    outer loop
      vertex   1.100000e+02 4.771627e+01 0.000000e+00
      vertex   1.100000e+02 4.771627e+01 5.000000e+00
      vertex   1.100000e+02 3.271627e+01 5.000000e+00
    endloop
  endfacet
  facet normal 1.000000e+00 1.850372e-15 0.000000e+00
    outer loop
      vertex   1.100000e+02 3.271627e+01 5.000000e+00
      vertex   1.100000e+02 3.271627e+01 0.000000e+00
      vertex   1.100000e+02 4.771627e+01 0.000000e+00
    endloop
  endfacet
  facet normal 0.000000e+00 1.000000e+00 0.000000e+00
    outer loop
      vertex   1.100000e+02 3.271627e+01 0.000000e+00
      vertex   1.100000e+02 3.271627e+01 5.000000e+00
      vertex   1.225000e+02 3.271627e+01 5.000000e+00
    endloop
  endfacet
  facet normal 0.000000e+00 1.000000e+00 0.000000e+00
    outer loop
      vertex   1.225000e+02 3.271627e+01 5.000000e+00
      vertex   1.225000e+02 3.271627e+01 0.000000e+00
      vertex   1.100000e+02 3.271627e+01 0.000000e+00
    endloop
  endfacet
  facet normal 0.000000e+00 0.000000e+00 -1.000000e+00
    outer loop
      vertex   1.100000e+02 8.043254e+01 0.000000e+00
      vertex   1.225000e+02 8.043254e+01 0.000000e+00
      vertex   1.225000e+02 4.771627e+01 0.000000e+00
    endloop
  endfacet
  facet normal 0.000000e+00 0.000000e+00 -1.000000e+00
    outer loop
      vertex   1.100000e+02 3.271627e+01 0.000000e+00
      vertex   1.225000e+02 3.271627e+01 0.000000e+00
      vertex   1.225000e+02 0.000000e+00 0.000000e+00
    endloop
  endfacet
  facet normal 0.000000e+00 0.000000e+00 -1.000000e+00
    outer loop
      vertex   1.225000e+02 0.000000e+00 0.000000e+00
      vertex   0.000000e+00 0.000000e+00 0.000000e+00
      vertex   1.100000e+02 3.271627e+01 0.000000e+00
    endloop
  endfacet
  facet normal 0.000000e+00 -0.000000e+00 -1.000000e+00
    outer loop
      vertex   1.100000e+02 4.771627e+01 0.000000e+00
      vertex   1.100000e+02 3.271627e+01 0.000000e+00
      vertex   0.000000e+00 0.000000e+00 0.000000e+00
    endloop
  endfacet
  facet normal 0.000000e+00 0.000000e+00 -1.000000e+00
    outer loop
      vertex   0.000000e+00 0.000000e+00 0.000000e+00
      vertex   0.000000e+00 1.758651e+02 0.000000e+00
      vertex   1.100000e+02 4.771627e+01 0.000000e+00
    endloop
  endfacet
  facet normal 0.000000e+00 0.000000e+00 -1.000000e+00
    outer loop
      vertex   0.000000e+00 1.758651e+02 0.000000e+00
      vertex   1.100000e+02 1.431488e+02 0.000000e+00
      vertex   1.100000e+02 1.281488e+02 0.000000e+00
    endloop
  endfacet
  facet normal 0.000000e+00 0.000000e+00 -1.000000e+00
    outer loop
      vertex   1.100000e+02 1.431488e+02 0.000000e+00
      vertex   0.000000e+00 1.758651e+02 0.000000e+00
      vertex   1.225000e+02 1.758651e+02 0.000000e+00
    endloop
  endfacet
  facet normal 0.000000e+00 -0.000000e+00 -1.000000e+00
    outer loop
      vertex   1.225000e+02 1.758651e+02 0.000000e+00
      vertex   1.225000e+02 1.431488e+02 0.000000e+00
      vertex   1.100000e+02 1.431488e+02 0.000000e+00
    endloop
  endfacet
  facet normal 0.000000e+00 0.000000e+00 -1.000000e+00
    outer loop
      vertex   1.100000e+02 1.281488e+02 0.000000e+00
      vertex   1.225000e+02 1.281488e+02 0.000000e+00
      vertex   1.225000e+02 9.543254e+01 0.000000e+00
    endloop
  endfacet
  facet normal -0.000000e+00 0.000000e+00 -1.000000e+00
    outer loop
      vertex   1.225000e+02 9.543254e+01 0.000000e+00
      vertex   1.100000e+02 9.543254e+01 0.000000e+00
      vertex   1.100000e+02 1.281488e+02 0.000000e+00
    endloop
  endfacet
  facet normal -0.000000e+00 -0.000000e+00 -1.000000e+00
    outer loop
      vertex   1.100000e+02 1.281488e+02 0.000000e+00
      vertex   1.100000e+02 9.543254e+01 0.000000e+00
      vertex   0.000000e+00 1.758651e+02 0.000000e+00
    endloop
  endfacet
  facet normal 0.000000e+00 0.000000e+00 -1.000000e+00
    outer loop
      vertex   0.000000e+00 1.758651e+02 0.000000e+00
      vertex   1.100000e+02 9.543254e+01 0.000000e+00
      vertex   1.100000e+02 8.043254e+01 0.000000e+00
    endloop
  endfacet
  facet normal -0.000000e+00 0.000000e+00 -1.000000e+00
    outer loop
      vertex   1.100000e+02 8.043254e+01 0.000000e+00
      vertex   1.100000e+02 4.771627e+01 0.000000e+00
      vertex   0.000000e+00 1.758651e+02 0.000000e+00
    endloop
  endfacet
  facet normal 0.000000e+00 0.000000e+00 -1.000000e+00
    outer loop
      vertex   1.225000e+02 4.771627e+01 0.000000e+00
      vertex   1.100000e+02 4.771627e+01 0.000000e+00
      vertex   1.100000e+02 8.043254e+01 0.000000e+00
    endloop
  endfacet
  facet normal 1.000000e+00 1.850372e-15 -0.000000e+00
    outer loop
      vertex   1.100000e+02 9.543254e+01 0.000000e+00
      vertex   1.100000e+02 9.543254e+01 5.000000e+00
      vertex   1.100000e+02 8.043254e+01 5.000000e+00
    endloop
  endfacet
  facet normal 1.000000e+00 1.850372e-15 0.000000e+00
    outer loop
      vertex   1.100000e+02 8.043254e+01 5.000000e+00
      vertex   1.100000e+02 8.043254e+01 0.000000e+00
      vertex   1.100000e+02 9.543254e+01 0.000000e+00
    endloop
  endfacet
  facet normal 1.110223e-15 -1.000000e+00 0.000000e+00
    outer loop
      vertex   1.225000e+02 9.543254e+01 0.000000e+00
      vertex   1.225000e+02 9.543254e+01 5.000000e+00
      vertex   1.100000e+02 9.543254e+01 5.000000e+00
    endloop
  endfacet
  facet normal 1.110223e-15 -1.000000e+00 0.000000e+00
    outer loop
      vertex   1.100000e+02 9.543254e+01 5.000000e+00
      vertex   1.100000e+02 9.543254e+01 0.000000e+00
      vertex   1.225000e+02 9.543254e+01 0.000000e+00
    endloop
  endfacet
  facet normal 0.000000e+00 1.000000e+00 0.000000e+00
    outer loop
      vertex   1.100000e+02 8.043254e+01 0.000000e+00
      vertex   1.100000e+02 8.043254e+01 5.000000e+00
      vertex   1.225000e+02 8.043254e+01 5.000000e+00
    endloop
  endfacet
  facet normal 0.000000e+00 1.000000e+00 0.000000e+00
    outer loop
      vertex   1.225000e+02 8.043254e+01 5.000000e+00
      vertex   1.225000e+02 8.043254e+01 0.000000e+00
      vertex   1.100000e+02 8.043254e+01 0.000000e+00
    endloop
  endfacet
  facet normal 0.000000e+00 -0.000000e+00 -1.000000e+00
    outer loop
      vertex   1.150812e+02 8.748928e+01 5.000000e+00
      vertex   1.154211e+02 8.699690e+01 5.000000e+00
      vertex   1.100000e+02 8.043254e+01 5.000000e+00
    endloop
  endfacet
  facet normal 0.000000e+00 0.000000e+00 -1.000000e+00
    outer loop
      vertex   1.100000e+02 8.043254e+01 5.000000e+00
      vertex   1.154211e+02 8.699690e+01 5.000000e+00
      vertex   1.159509e+02 8.671886e+01 5.000000e+00
    endloop
  endfacet
  facet normal 6.938894e-17 -6.568602e-17 -1.000000e+00
    outer loop
      vertex   1.225000e+02 8.043254e+01 5.000000e+00
      vertex   1.100000e+02 8.043254e+01 5.000000e+00
      vertex   1.159509e+02 8.671886e+01 5.000000e+00
    endloop
  endfacet
  facet normal 0.000000e+00 -1.379760e-16 -1.000000e+00
    outer loop
      vertex   1.159509e+02 8.671886e+01 5.000000e+00
      vertex   1.165491e+02 8.671886e+01 5.000000e+00
      vertex   1.225000e+02 8.043254e+01 5.000000e+00
    endloop
  endfacet
  facet normal 4.837909e-17 -9.217865e-17 -1.000000e+00
    outer loop
      vertex   1.165491e+02 8.671886e+01 5.000000e+00
      vertex   1.170789e+02 8.699690e+01 5.000000e+00
      vertex   1.225000e+02 8.043254e+01 5.000000e+00
    endloop
  endfacet
  facet normal 8.715322e-17 -6.015752e-17 -1.000000e+00
    outer loop
      vertex   1.225000e+02 8.043254e+01 5.000000e+00
      vertex   1.170789e+02 8.699690e+01 5.000000e+00
      vertex   1.174188e+02 8.748928e+01 5.000000e+00
    endloop
  endfacet
  facet normal 9.039382e-17 -5.782412e-17 -1.000000e+00
    outer loop
      vertex   1.225000e+02 9.543254e+01 5.000000e+00
      vertex   1.225000e+02 8.043254e+01 5.000000e+00
      vertex   1.174188e+02 8.748928e+01 5.000000e+00
    endloop
  endfacet
  facet normal 0.000000e+00 0.000000e+00 -1.000000e+00
    outer loop
      vertex   1.174188e+02 8.748928e+01 5.000000e+00
      vertex   1.174909e+02 8.808321e+01 5.000000e+00
      vertex   1.225000e+02 9.543254e+01 5.000000e+00
    endloop
  endfacet
  facet normal 0.000000e+00 0.000000e+00 -1.000000e+00
    outer loop
      vertex   1.225000e+02 9.543254e+01 5.000000e+00
      vertex   1.174909e+02 8.808321e+01 5.000000e+00
      vertex   1.172787e+02 8.864262e+01 5.000000e+00
    endloop
  endfacet
  facet normal 0.000000e+00 0.000000e+00 -1.000000e+00
    outer loop
      vertex   1.225000e+02 9.543254e+01 5.000000e+00
      vertex   1.172787e+02 8.864262e+01 5.000000e+00
      vertex   1.168309e+02 8.903936e+01 5.000000e+00
    endloop
  endfacet
  facet normal 0.000000e+00 0.000000e+00 -1.000000e+00
    outer loop
      vertex   1.168309e+02 8.903936e+01 5.000000e+00
      vertex   1.162500e+02 8.918254e+01 5.000000e+00
      vertex   1.225000e+02 9.543254e+01 5.000000e+00
    endloop
  endfacet
  facet normal 0.000000e+00 0.000000e+00 -1.000000e+00
    outer loop
      vertex   1.100000e+02 9.543254e+01 5.000000e+00
      vertex   1.225000e+02 9.543254e+01 5.000000e+00
      vertex   1.162500e+02 8.918254e+01 5.000000e+00
    endloop
  endfacet
  facet normal -0.000000e+00 0.000000e+00 -1.000000e+00
    outer loop
      vertex   1.162500e+02 8.918254e+01 5.000000e+00
      vertex   1.156691e+02 8.903936e+01 5.000000e+00
      vertex   1.100000e+02 9.543254e+01 5.000000e+00
    endloop
  endfacet
  facet normal -0.000000e+00 0.000000e+00 -1.000000e+00
    outer loop
      vertex   1.156691e+02 8.903936e+01 5.000000e+00
      vertex   1.152213e+02 8.864262e+01 5.000000e+00
      vertex   1.100000e+02 9.543254e+01 5.000000e+00
    endloop
  endfacet
  facet normal 0.000000e+00 0.000000e+00 -1.000000e+00
    outer loop
      vertex   1.100000e+02 9.543254e+01 5.000000e+00
      vertex   1.152213e+02 8.864262e+01 5.000000e+00
      vertex   1.150091e+02 8.808321e+01 5.000000e+00
    endloop
  endfacet
  facet normal 0.000000e+00 0.000000e+00 -1.000000e+00
    outer loop
      vertex   1.100000e+02 8.043254e+01 5.000000e+00
      vertex   1.100000e+02 9.543254e+01 5.000000e+00
      vertex   1.150091e+02 8.808321e+01 5.000000e+00
    endloop
  endfacet
  facet normal 0.000000e+00 0.000000e+00 -1.000000e+00
    outer loop
      vertex   1.150091e+02 8.808321e+01 5.000000e+00
      vertex   1.150000e+02 8.793254e+01 5.000000e+00
      vertex   1.100000e+02 8.043254e+01 5.000000e+00
    endloop
  endfacet
  facet normal 0.000000e+00 0.000000e+00 -1.000000e+00
    outer loop
      vertex   1.100000e+02 8.043254e+01 5.000000e+00
      vertex   1.150000e+02 8.793254e+01 5.000000e+00
      vertex   1.150812e+02 8.748928e+01 5.000000e+00
    endloop
  endfacet
  facet normal 1.000000e+00 0.000000e+00 -0.000000e+00
    outer loop
      vertex   1.100000e+02 1.431488e+02 0.000000e+00
      vertex   1.100000e+02 1.431488e+02 5.000000e+00
      vertex   1.100000e+02 1.281488e+02 5.000000e+00
    endloop
  endfacet
  facet normal 1.000000e+00 0.000000e+00 0.000000e+00
    outer loop
      vertex   1.100000e+02 1.281488e+02 5.000000e+00
      vertex   1.100000e+02 1.281488e+02 0.000000e+00
      vertex   1.100000e+02 1.431488e+02 0.000000e+00
    endloop
  endfacet
  facet normal 0.000000e+00 -1.000000e+00 0.000000e+00
    outer loop
      vertex   1.225000e+02 1.431488e+02 0.000000e+00
      vertex   1.225000e+02 1.431488e+02 5.000000e+00
      vertex   1.100000e+02 1.431488e+02 5.000000e+00
    endloop
  endfacet
  facet normal 0.000000e+00 -1.000000e+00 0.000000e+00
    outer loop
      vertex   1.100000e+02 1.431488e+02 5.000000e+00
      vertex   1.100000e+02 1.431488e+02 0.000000e+00
      vertex   1.225000e+02 1.431488e+02 0.000000e+00
    endloop
  endfacet
  facet normal 0.000000e+00 1.000000e+00 0.000000e+00
    outer loop
      vertex   1.100000e+02 1.281488e+02 0.000000e+00
      vertex   1.100000e+02 1.281488e+02 5.000000e+00
      vertex   1.225000e+02 1.281488e+02 5.000000e+00
    endloop
  endfacet
  facet normal 0.000000e+00 1.000000e+00 0.000000e+00
    outer loop
      vertex   1.225000e+02 1.281488e+02 5.000000e+00
      vertex   1.225000e+02 1.281488e+02 0.000000e+00
      vertex   1.100000e+02 1.281488e+02 0.000000e+00
    endloop
  endfacet
  facet normal 1.000000e+00 0.000000e+00 0.000000e+00
    outer loop
      vertex   1.225000e+02 0.000000e+00 1.500000e+01
      vertex   1.225000e+02 0.000000e+00 0.000000e+00
      vertex   1.225000e+02 3.271627e+01 0.000000e+00
    endloop
  endfacet
  facet normal 1.000000e+00 0.000000e+00 0.000000e+00
    outer loop
      vertex   1.225000e+02 4.771627e+01 5.000000e+00
      vertex   1.225000e+02 4.771627e+01 0.000000e+00
      vertex   1.225000e+02 8.043254e+01 0.000000e+00
    endloop
  endfacet
  facet normal 1.000000e+00 0.000000e+00 -0.000000e+00
    outer loop
      vertex   1.225000e+02 8.043254e+01 0.000000e+00
      vertex   1.225000e+02 8.043254e+01 5.000000e+00
      vertex   1.225000e+02 4.771627e+01 5.000000e+00
    endloop
  endfacet
  facet normal 1.000000e+00 0.000000e+00 -0.000000e+00
    outer loop
      vertex   1.225000e+02 3.271627e+01 0.000000e+00
      vertex   1.225000e+02 3.271627e+01 5.000000e+00
      vertex   1.225000e+02 0.000000e+00 1.500000e+01
    endloop
  endfacet
  facet normal 1.000000e+00 0.000000e+00 0.000000e+00
    outer loop
      vertex   1.225000e+02 0.000000e+00 1.500000e+01
      vertex   1.225000e+02 3.271627e+01 5.000000e+00
      vertex   1.225000e+02 4.771627e+01 5.000000e+00
    endloop
  endfacet
  facet normal 1.000000e+00 0.000000e+00 -0.000000e+00
    outer loop
      vertex   1.225000e+02 4.771627e+01 5.000000e+00
      vertex   1.225000e+02 1.758651e+02 1.500000e+01
      vertex   1.225000e+02 0.000000e+00 1.500000e+01
    endloop
  endfacet
  facet normal 1.000000e+00 0.000000e+00 0.000000e+00
    outer loop
      vertex   1.225000e+02 1.758651e+02 1.500000e+01
      vertex   1.225000e+02 4.771627e+01 5.000000e+00
      vertex   1.225000e+02 8.043254e+01 5.000000e+00
    endloop
  endfacet
  facet normal 1.000000e+00 -0.000000e+00 0.000000e+00
    outer loop
      vertex   1.225000e+02 8.043254e+01 5.000000e+00
      vertex   1.225000e+02 9.543254e+01 5.000000e+00
      vertex   1.225000e+02 1.758651e+02 1.500000e+01
    endloop
  endfacet
  facet normal 1.000000e+00 0.000000e+00 0.000000e+00
    outer loop
      vertex   1.225000e+02 1.431488e+02 5.000000e+00
      vertex   1.225000e+02 1.431488e+02 0.000000e+00
      vertex   1.225000e+02 1.758651e+02 0.000000e+00
    endloop
  endfacet
  facet normal 1.000000e+00 0.000000e+00 -0.000000e+00
    outer loop
      vertex   1.225000e+02 1.758651e+02 0.000000e+00
      vertex   1.225000e+02 1.758651e+02 1.500000e+01
      vertex   1.225000e+02 1.431488e+02 5.000000e+00
    endloop
  endfacet
  facet normal 1.000000e+00 0.000000e+00 0.000000e+00
    outer loop
      vertex   1.225000e+02 1.281488e+02 5.000000e+00
      vertex   1.225000e+02 1.431488e+02 5.000000e+00
      vertex   1.225000e+02 1.758651e+02 1.500000e+01
    endloop
  endfacet
  facet normal 1.000000e+00 0.000000e+00 0.000000e+00
    outer loop
      vertex   1.225000e+02 1.758651e+02 1.500000e+01
      vertex   1.225000e+02 9.543254e+01 5.000000e+00
      vertex   1.225000e+02 1.281488e+02 5.000000e+00
    endloop
  endfacet
  facet normal 1.000000e+00 0.000000e+00 -0.000000e+00
    outer loop
      vertex   1.225000e+02 1.281488e+02 0.000000e+00
      vertex   1.225000e+02 1.281488e+02 5.000000e+00
      vertex   1.225000e+02 9.543254e+01 5.000000e+00
    endloop
  endfacet
  facet normal 1.000000e+00 0.000000e+00 0.000000e+00
    outer loop
      vertex   1.225000e+02 9.543254e+01 5.000000e+00
      vertex   1.225000e+02 9.543254e+01 0.000000e+00
      vertex   1.225000e+02 1.281488e+02 0.000000e+00
    endloop
  endfacet
  facet normal -1.000000e+00 0.000000e+00 0.000000e+00
    outer loop
      vertex   0.000000e+00 0.000000e+00 0.000000e+00
      vertex   0.000000e+00 0.000000e+00 1.500000e+01
      vertex   0.000000e+00 1.758651e+02 1.500000e+01
    endloop
  endfacet
  facet normal -1.000000e+00 0.000000e+00 -0.000000e+00
    outer loop
      vertex   0.000000e+00 1.758651e+02 1.500000e+01
      vertex   0.000000e+00 1.758651e+02 0.000000e+00
      vertex   0.000000e+00 0.000000e+00 0.000000e+00
    endloop
  endfacet
  facet normal 0.000000e+00 -1.000000e+00 0.000000e+00
    outer loop
      vertex   1.225000e+02 0.000000e+00 0.000000e+00
      vertex   1.225000e+02 0.000000e+00 1.500000e+01
      vertex   0.000000e+00 0.000000e+00 1.500000e+01
    endloop
  endfacet
  facet normal 0.000000e+00 -1.000000e+00 0.000000e+00
    outer loop
      vertex   0.000000e+00 0.000000e+00 1.500000e+01
      vertex   0.000000e+00 0.000000e+00 0.000000e+00
      vertex   1.225000e+02 0.000000e+00 0.000000e+00
    endloop
  endfacet
  facet normal 0.000000e+00 1.000000e+00 0.000000e+00
    outer loop
      vertex   0.000000e+00 1.758651e+02 0.000000e+00
      vertex   0.000000e+00 1.758651e+02 1.500000e+01
      vertex   1.225000e+02 1.758651e+02 1.500000e+01
    endloop
  endfacet
  facet normal 0.000000e+00 1.000000e+00 0.000000e+00
    outer loop
      vertex   1.225000e+02 1.758651e+02 1.500000e+01
      vertex   1.225000e+02 1.758651e+02 0.000000e+00
      vertex   0.000000e+00 1.758651e+02 0.000000e+00
    endloop
  endfacet
  facet normal 0.000000e+00 -0.000000e+00 -1.000000e+00
    outer loop
      vertex   1.150091e+02 1.357995e+02 5.000000e+00
      vertex   1.150812e+02 1.352056e+02 5.000000e+00
      vertex   1.100000e+02 1.281488e+02 5.000000e+00
    endloop
  endfacet
  facet normal 0.000000e+00 0.000000e+00 -1.000000e+00
    outer loop
      vertex   1.100000e+02 1.281488e+02 5.000000e+00
      vertex   1.100000e+02 1.431488e+02 5.000000e+00
      vertex   1.150091e+02 1.357995e+02 5.000000e+00
    endloop
  endfacet
  facet normal -0.000000e+00 0.000000e+00 -1.000000e+00
    outer loop
      vertex   1.152213e+02 1.363589e+02 5.000000e+00
      vertex   1.150091e+02 1.357995e+02 5.000000e+00
      vertex   1.100000e+02 1.431488e+02 5.000000e+00
    endloop
  endfacet
  facet normal 0.000000e+00 0.000000e+00 -1.000000e+00
    outer loop
      vertex   1.172787e+02 1.363589e+02 5.000000e+00
      vertex   1.168309e+02 1.367556e+02 5.000000e+00
      vertex   1.225000e+02 1.431488e+02 5.000000e+00
    endloop
  endfacet
  facet normal 0.000000e+00 0.000000e+00 -1.000000e+00
    outer loop
      vertex   1.225000e+02 1.431488e+02 5.000000e+00
      vertex   1.168309e+02 1.367556e+02 5.000000e+00
      vertex   1.162500e+02 1.368988e+02 5.000000e+00
    endloop
  endfacet
  facet normal 0.000000e+00 0.000000e+00 -1.000000e+00
    outer loop
      vertex   1.100000e+02 1.431488e+02 5.000000e+00
      vertex   1.225000e+02 1.431488e+02 5.000000e+00
      vertex   1.162500e+02 1.368988e+02 5.000000e+00
    endloop
  endfacet
  facet normal -0.000000e+00 0.000000e+00 -1.000000e+00
    outer loop
      vertex   1.162500e+02 1.368988e+02 5.000000e+00
      vertex   1.156691e+02 1.367556e+02 5.000000e+00
      vertex   1.100000e+02 1.431488e+02 5.000000e+00
    endloop
  endfacet
  facet normal 0.000000e+00 0.000000e+00 -1.000000e+00
    outer loop
      vertex   1.100000e+02 1.431488e+02 5.000000e+00
      vertex   1.156691e+02 1.367556e+02 5.000000e+00
      vertex   1.152213e+02 1.363589e+02 5.000000e+00
    endloop
  endfacet
  facet normal 0.000000e+00 -0.000000e+00 -1.000000e+00
    outer loop
      vertex   1.150812e+02 1.352056e+02 5.000000e+00
      vertex   1.154211e+02 1.347132e+02 5.000000e+00
      vertex   1.100000e+02 1.281488e+02 5.000000e+00
    endloop
  endfacet
  facet normal 0.000000e+00 0.000000e+00 -1.000000e+00
    outer loop
      vertex   1.100000e+02 1.281488e+02 5.000000e+00
      vertex   1.154211e+02 1.347132e+02 5.000000e+00
      vertex   1.159509e+02 1.344351e+02 5.000000e+00
    endloop
  endfacet
  facet normal 0.000000e+00 0.000000e+00 -1.000000e+00
    outer loop
      vertex   1.225000e+02 1.281488e+02 5.000000e+00
      vertex   1.100000e+02 1.281488e+02 5.000000e+00
      vertex   1.159509e+02 1.344351e+02 5.000000e+00
    endloop
  endfacet
  facet normal 0.000000e+00 0.000000e+00 -1.000000e+00
    outer loop
      vertex   1.159509e+02 1.344351e+02 5.000000e+00
      vertex   1.165491e+02 1.344351e+02 5.000000e+00
      vertex   1.225000e+02 1.281488e+02 5.000000e+00
    endloop
  endfacet
  facet normal 0.000000e+00 0.000000e+00 -1.000000e+00
    outer loop
      vertex   1.165491e+02 1.344351e+02 5.000000e+00
      vertex   1.170789e+02 1.347132e+02 5.000000e+00
      vertex   1.225000e+02 1.281488e+02 5.000000e+00
    endloop
  endfacet
  facet normal 0.000000e+00 0.000000e+00 -1.000000e+00
    outer loop
      vertex   1.225000e+02 1.281488e+02 5.000000e+00
      vertex   1.170789e+02 1.347132e+02 5.000000e+00
      vertex   1.174188e+02 1.352056e+02 5.000000e+00
    endloop
  endfacet
  facet normal 0.000000e+00 0.000000e+00 -1.000000e+00
    outer loop
      vertex   1.225000e+02 1.281488e+02 5.000000e+00
      vertex   1.174188e+02 1.352056e+02 5.000000e+00
      vertex   1.175000e+02 1.356488e+02 5.000000e+00
    endloop
  endfacet
  facet normal 0.000000e+00 -0.000000e+00 -1.000000e+00
    outer loop
      vertex   1.225000e+02 1.431488e+02 5.000000e+00
      vertex   1.225000e+02 1.281488e+02 5.000000e+00
      vertex   1.175000e+02 1.356488e+02 5.000000e+00
    endloop
  endfacet
  facet normal 0.000000e+00 0.000000e+00 -1.000000e+00
    outer loop
      vertex   1.175000e+02 1.356488e+02 5.000000e+00
      vertex   1.174909e+02 1.357995e+02 5.000000e+00
      vertex   1.225000e+02 1.431488e+02 5.000000e+00
    endloop
  endfacet
  facet normal 0.000000e+00 0.000000e+00 -1.000000e+00
    outer loop
      vertex   1.174909e+02 1.357995e+02 5.000000e+00
      vertex   1.172787e+02 1.363589e+02 5.000000e+00
      vertex   1.225000e+02 1.431488e+02 5.000000e+00
    endloop
  endfacet
  facet normal -9.350162e-01 -3.546049e-01 -1.415107e-17
    outer loop
      vertex   1.172787e+02 1.363589e+02 5.000000e+00
      vertex   1.174909e+02 1.357995e+02 5.000000e+00
      vertex   1.174909e+02 1.357995e+02 8.000000e+00
    endloop
  endfacet
  facet normal -9.981756e-01 -6.037850e-02 -0.000000e+00
    outer loop
      vertex   1.174909e+02 1.357995e+02 8.000000e+00
      vertex   1.174909e+02 1.357995e+02 5.000000e+00
      vertex   1.175000e+02 1.356488e+02 5.000000e+00
    endloop
  endfacet
  facet normal -9.926680e-01 1.205317e-01 -9.069234e-03
    outer loop
      vertex   1.174188e+02 1.352056e+02 8.000000e+00
      vertex   1.174909e+02 1.357995e+02 8.000000e+00
      vertex   1.175000e+02 1.356488e+02 5.000000e+00
    endloop
  endfacet
  facet normal -9.836199e-01 1.802550e-01 3.508371e-18
    outer loop
      vertex   1.175000e+02 1.356488e+02 5.000000e+00
      vertex   1.174188e+02 1.352056e+02 5.000000e+00
      vertex   1.174188e+02 1.352056e+02 8.000000e+00
    endloop
  endfacet
  facet normal -8.229839e-01 5.680647e-01 0.000000e+00
    outer loop
      vertex   1.170789e+02 1.347132e+02 8.000000e+00
      vertex   1.174188e+02 1.352056e+02 8.000000e+00
      vertex   1.174188e+02 1.352056e+02 5.000000e+00
    endloop
  endfacet
  facet normal -8.229839e-01 5.680647e-01 0.000000e+00
    outer loop
      vertex   1.174188e+02 1.352056e+02 5.000000e+00
      vertex   1.170789e+02 1.347132e+02 5.000000e+00
      vertex   1.170789e+02 1.347132e+02 8.000000e+00
    endloop
  endfacet
  facet normal -4.647232e-01 8.854560e-01 0.000000e+00
    outer loop
      vertex   1.165491e+02 1.344351e+02 8.000000e+00
      vertex   1.170789e+02 1.347132e+02 8.000000e+00
      vertex   1.170789e+02 1.347132e+02 5.000000e+00
    endloop
  endfacet
  facet normal -4.647232e-01 8.854560e-01 0.000000e+00
    outer loop
      vertex   1.170789e+02 1.347132e+02 5.000000e+00
      vertex   1.165491e+02 1.344351e+02 5.000000e+00
      vertex   1.165491e+02 1.344351e+02 8.000000e+00
    endloop
  endfacet
  facet normal -0.000000e+00 1.000000e+00 0.000000e+00
    outer loop
      vertex   1.159509e+02 1.344351e+02 8.000000e+00
      vertex   1.165491e+02 1.344351e+02 8.000000e+00
      vertex   1.165491e+02 1.344351e+02 5.000000e+00
    endloop
  endfacet
  facet normal 0.000000e+00 1.000000e+00 0.000000e+00
    outer loop
      vertex   1.165491e+02 1.344351e+02 5.000000e+00
      vertex   1.159509e+02 1.344351e+02 5.000000e+00
      vertex   1.159509e+02 1.344351e+02 8.000000e+00
    endloop
  endfacet
  facet normal 4.647232e-01 8.854560e-01 0.000000e+00
    outer loop
      vertex   1.154211e+02 1.347132e+02 8.000000e+00
      vertex   1.159509e+02 1.344351e+02 8.000000e+00
      vertex   1.159509e+02 1.344351e+02 5.000000e+00
    endloop
  endfacet
  facet normal 4.647232e-01 8.854560e-01 0.000000e+00
    outer loop
      vertex   1.159509e+02 1.344351e+02 5.000000e+00
      vertex   1.154211e+02 1.347132e+02 5.000000e+00
      vertex   1.154211e+02 1.347132e+02 8.000000e+00
    endloop
  endfacet
  facet normal 8.229839e-01 5.680647e-01 0.000000e+00
    outer loop
      vertex   1.150812e+02 1.352056e+02 8.000000e+00
      vertex   1.154211e+02 1.347132e+02 8.000000e+00
      vertex   1.154211e+02 1.347132e+02 5.000000e+00
    endloop
  endfacet
  facet normal 8.229839e-01 5.680647e-01 0.000000e+00
    outer loop
      vertex   1.154211e+02 1.347132e+02 5.000000e+00
      vertex   1.150812e+02 1.352056e+02 5.000000e+00
      vertex   1.150812e+02 1.352056e+02 8.000000e+00
    endloop
  endfacet
  facet normal 9.927089e-01 1.205367e-01 -3.537768e-18
    outer loop
      vertex   1.150091e+02 1.357995e+02 8.000000e+00
      vertex   1.150812e+02 1.352056e+02 8.000000e+00
      vertex   1.150812e+02 1.352056e+02 5.000000e+00
    endloop
  endfacet
  facet normal 9.927089e-01 1.205367e-01 -3.537768e-18
    outer loop
      vertex   1.150812e+02 1.352056e+02 5.000000e+00
      vertex   1.150091e+02 1.357995e+02 5.000000e+00
      vertex   1.150091e+02 1.357995e+02 8.000000e+00
    endloop
  endfacet
  facet normal 9.350162e-01 -3.546049e-01 -1.415107e-17
    outer loop
      vertex   1.152213e+02 1.363589e+02 8.000000e+00
      vertex   1.150091e+02 1.357995e+02 8.000000e+00
      vertex   1.150091e+02 1.357995e+02 5.000000e+00
    endloop
  endfacet
  facet normal 9.350162e-01 -3.546049e-01 -1.415107e-17
    outer loop
      vertex   1.150091e+02 1.357995e+02 5.000000e+00
      vertex   1.152213e+02 1.363589e+02 5.000000e+00
      vertex   1.152213e+02 1.363589e+02 8.000000e+00
    endloop
  endfacet
  facet normal 6.631227e-01 -7.485107e-01 -1.415107e-17
    outer loop
      vertex   1.156691e+02 1.367556e+02 8.000000e+00
      vertex   1.152213e+02 1.363589e+02 8.000000e+00
      vertex   1.152213e+02 1.363589e+02 5.000000e+00
    endloop
  endfacet
  facet normal 6.631227e-01 -7.485107e-01 -1.415107e-17
    outer loop
      vertex   1.152213e+02 1.363589e+02 5.000000e+00
      vertex   1.156691e+02 1.367556e+02 5.000000e+00
      vertex   1.156691e+02 1.367556e+02 8.000000e+00
    endloop
  endfacet
  facet normal 2.393157e-01 -9.709418e-01 0.000000e+00
    outer loop
      vertex   1.162500e+02 1.368988e+02 8.000000e+00
      vertex   1.156691e+02 1.367556e+02 8.000000e+00
      vertex   1.156691e+02 1.367556e+02 5.000000e+00
    endloop
  endfacet
  facet normal 2.393157e-01 -9.709418e-01 0.000000e+00
    outer loop
      vertex   1.156691e+02 1.367556e+02 5.000000e+00
      vertex   1.162500e+02 1.368988e+02 5.000000e+00
      vertex   1.162500e+02 1.368988e+02 8.000000e+00
    endloop
  endfacet
  facet normal -2.393157e-01 -9.709418e-01 0.000000e+00
    outer loop
      vertex   1.168309e+02 1.367556e+02 8.000000e+00
      vertex   1.162500e+02 1.368988e+02 8.000000e+00
      vertex   1.162500e+02 1.368988e+02 5.000000e+00
    endloop
  endfacet
  facet normal -2.393157e-01 -9.709418e-01 0.000000e+00
    outer loop
      vertex   1.162500e+02 1.368988e+02 5.000000e+00
      vertex   1.168309e+02 1.367556e+02 5.000000e+00
      vertex   1.168309e+02 1.367556e+02 8.000000e+00
    endloop
  endfacet
  facet normal -6.631227e-01 -7.485107e-01 1.415107e-17
    outer loop
      vertex   1.172787e+02 1.363589e+02 8.000000e+00
      vertex   1.168309e+02 1.367556e+02 8.000000e+00
      vertex   1.168309e+02 1.367556e+02 5.000000e+00
    endloop
  endfacet
  facet normal -6.631227e-01 -7.485107e-01 1.415107e-17
    outer loop
      vertex   1.168309e+02 1.367556e+02 5.000000e+00
      vertex   1.172787e+02 1.363589e+02 5.000000e+00
      vertex   1.172787e+02 1.363589e+02 8.000000e+00
    endloop
  endfacet
  facet normal -9.350162e-01 -3.546049e-01 -1.415107e-17
    outer loop
      vertex   1.174909e+02 1.357995e+02 8.000000e+00
      vertex   1.172787e+02 1.363589e+02 8.000000e+00
      vertex   1.172787e+02 1.363589e+02 5.000000e+00
    endloop
  endfacet
  facet normal 0.000000e+00 0.000000e+00 -1.000000e+00
    outer loop
      vertex   1.162500e+02 1.368988e+02 8.000000e+00
      vertex   1.168309e+02 1.367556e+02 8.000000e+00
      vertex   1.162500e+02 1.356488e+02 8.000000e+00
    endloop
  endfacet
  facet normal 0.000000e+00 0.000000e+00 -1.000000e+00
    outer loop
      vertex   1.150091e+02 1.357995e+02 8.000000e+00
      vertex   1.152213e+02 1.363589e+02 8.000000e+00
      vertex   1.162500e+02 1.356488e+02 8.000000e+00
    endloop
  endfacet
  facet normal 0.000000e+00 0.000000e+00 -1.000000e+00
    outer loop
      vertex   1.152213e+02 1.363589e+02 8.000000e+00
      vertex   1.156691e+02 1.367556e+02 8.000000e+00
      vertex   1.162500e+02 1.356488e+02 8.000000e+00
    endloop
  endfacet
  facet normal 0.000000e+00 0.000000e+00 -1.000000e+00
    outer loop
      vertex   1.156691e+02 1.367556e+02 8.000000e+00
      vertex   1.162500e+02 1.368988e+02 8.000000e+00
      vertex   1.162500e+02 1.356488e+02 8.000000e+00
    endloop
  endfacet
  facet normal 0.000000e+00 0.000000e+00 -1.000000e+00
    outer loop
      vertex   1.159509e+02 1.344351e+02 8.000000e+00
      vertex   1.154211e+02 1.347132e+02 8.000000e+00
      vertex   1.162500e+02 1.356488e+02 8.000000e+00
    endloop
  endfacet
  facet normal 0.000000e+00 0.000000e+00 -1.000000e+00
    outer loop
      vertex   1.154211e+02 1.347132e+02 8.000000e+00
      vertex   1.150812e+02 1.352056e+02 8.000000e+00
      vertex   1.162500e+02 1.356488e+02 8.000000e+00
    endloop
  endfacet
  facet normal 0.000000e+00 0.000000e+00 -1.000000e+00
    outer loop
      vertex   1.150812e+02 1.352056e+02 8.000000e+00
      vertex   1.150091e+02 1.357995e+02 8.000000e+00
      vertex   1.162500e+02 1.356488e+02 8.000000e+00
    endloop
  endfacet
  facet normal -0.000000e+00 0.000000e+00 -1.000000e+00
    outer loop
      vertex   1.174188e+02 1.352056e+02 8.000000e+00
      vertex   1.170789e+02 1.347132e+02 8.000000e+00
      vertex   1.162500e+02 1.356488e+02 8.000000e+00
    endloop
  endfacet
  facet normal -0.000000e+00 0.000000e+00 -1.000000e+00
    outer loop
      vertex   1.170789e+02 1.347132e+02 8.000000e+00
      vertex   1.165491e+02 1.344351e+02 8.000000e+00
      vertex   1.162500e+02 1.356488e+02 8.000000e+00
    endloop
  endfacet
  facet normal 0.000000e+00 0.000000e+00 -1.000000e+00
    outer loop
      vertex   1.165491e+02 1.344351e+02 8.000000e+00
      vertex   1.159509e+02 1.344351e+02 8.000000e+00
      vertex   1.162500e+02 1.356488e+02 8.000000e+00
    endloop
  endfacet
  facet normal 0.000000e+00 0.000000e+00 -1.000000e+00
    outer loop
      vertex   1.162500e+02 1.356488e+02 8.000000e+00
      vertex   1.168309e+02 1.367556e+02 8.000000e+00
      vertex   1.172787e+02 1.363589e+02 8.000000e+00
    endloop
  endfacet
  facet normal 0.000000e+00 -0.000000e+00 -1.000000e+00
    outer loop
      vertex   1.172787e+02 1.363589e+02 8.000000e+00
      vertex   1.174909e+02 1.357995e+02 8.000000e+00
      vertex   1.162500e+02 1.356488e+02 8.000000e+00
    endloop
  endfacet
  facet normal 0.000000e+00 0.000000e+00 -1.000000e+00
    outer loop
      vertex   1.174909e+02 1.357995e+02 8.000000e+00
      vertex   1.174188e+02 1.352056e+02 8.000000e+00
      vertex   1.162500e+02 1.356488e+02 8.000000e+00
    endloop
  endfacet
  facet normal 8.229839e-01 5.680647e-01 0.000000e+00
    outer loop
      vertex   1.154211e+02 8.699690e+01 5.000000e+00
      vertex   1.150812e+02 8.748928e+01 5.000000e+00
      vertex   1.150812e+02 8.748928e+01 8.000000e+00
    endloop
  endfacet
  facet normal 9.836199e-01 1.802550e-01 0.000000e+00
    outer loop
      vertex   1.150812e+02 8.748928e+01 8.000000e+00
      vertex   1.150812e+02 8.748928e+01 5.000000e+00
      vertex   1.150000e+02 8.793254e+01 5.000000e+00
    endloop
  endfacet
  facet normal 9.926680e-01 1.205317e-01 -9.069234e-03
    outer loop
      vertex   1.150000e+02 8.793254e+01 5.000000e+00
      vertex   1.150091e+02 8.808321e+01 8.000000e+00
      vertex   1.150812e+02 8.748928e+01 8.000000e+00
    endloop
  endfacet
  facet normal 9.981756e-01 -6.037850e-02 -4.342295e-19
    outer loop
      vertex   1.150000e+02 8.793254e+01 5.000000e+00
      vertex   1.150091e+02 8.808321e+01 5.000000e+00
      vertex   1.150091e+02 8.808321e+01 8.000000e+00
    endloop
  endfacet
  facet normal 9.350162e-01 -3.546049e-01 1.415107e-17
    outer loop
      vertex   1.152213e+02 8.864262e+01 8.000000e+00
      vertex   1.150091e+02 8.808321e+01 8.000000e+00
      vertex   1.150091e+02 8.808321e+01 5.000000e+00
    endloop
  endfacet
  facet normal 9.350162e-01 -3.546049e-01 1.415107e-17
    outer loop
      vertex   1.150091e+02 8.808321e+01 5.000000e+00
      vertex   1.152213e+02 8.864262e+01 5.000000e+00
      vertex   1.152213e+02 8.864262e+01 8.000000e+00
    endloop
  endfacet
  facet normal 6.631227e-01 -7.485107e-01 1.415107e-17
    outer loop
      vertex   1.156691e+02 8.903936e+01 8.000000e+00
      vertex   1.152213e+02 8.864262e+01 8.000000e+00
      vertex   1.152213e+02 8.864262e+01 5.000000e+00
    endloop
  endfacet
  facet normal 6.631227e-01 -7.485107e-01 1.415107e-17
    outer loop
      vertex   1.152213e+02 8.864262e+01 5.000000e+00
      vertex   1.156691e+02 8.903936e+01 5.000000e+00
      vertex   1.156691e+02 8.903936e+01 8.000000e+00
    endloop
  endfacet
  facet normal 2.393157e-01 -9.709418e-01 0.000000e+00
    outer loop
      vertex   1.162500e+02 8.918254e+01 8.000000e+00
      vertex   1.156691e+02 8.903936e+01 8.000000e+00
      vertex   1.156691e+02 8.903936e+01 5.000000e+00
    endloop
  endfacet
  facet normal 2.393157e-01 -9.709418e-01 0.000000e+00
    outer loop
      vertex   1.156691e+02 8.903936e+01 5.000000e+00
      vertex   1.162500e+02 8.918254e+01 5.000000e+00
      vertex   1.162500e+02 8.918254e+01 8.000000e+00
    endloop
  endfacet
  facet normal -2.393157e-01 -9.709418e-01 0.000000e+00
    outer loop
      vertex   1.168309e+02 8.903936e+01 8.000000e+00
      vertex   1.162500e+02 8.918254e+01 8.000000e+00
      vertex   1.162500e+02 8.918254e+01 5.000000e+00
    endloop
  endfacet
  facet normal -2.393157e-01 -9.709418e-01 0.000000e+00
    outer loop
      vertex   1.162500e+02 8.918254e+01 5.000000e+00
      vertex   1.168309e+02 8.903936e+01 5.000000e+00
      vertex   1.168309e+02 8.903936e+01 8.000000e+00
    endloop
  endfacet
  facet normal -6.631227e-01 -7.485107e-01 -1.415107e-17
    outer loop
      vertex   1.172787e+02 8.864262e+01 8.000000e+00
      vertex   1.168309e+02 8.903936e+01 8.000000e+00
      vertex   1.168309e+02 8.903936e+01 5.000000e+00
    endloop
  endfacet
  facet normal -6.631227e-01 -7.485107e-01 -1.415107e-17
    outer loop
      vertex   1.168309e+02 8.903936e+01 5.000000e+00
      vertex   1.172787e+02 8.864262e+01 5.000000e+00
      vertex   1.172787e+02 8.864262e+01 8.000000e+00
    endloop
  endfacet
  facet normal -9.350162e-01 -3.546049e-01 -1.415107e-17
    outer loop
      vertex   1.174909e+02 8.808321e+01 8.000000e+00
      vertex   1.172787e+02 8.864262e+01 8.000000e+00
      vertex   1.172787e+02 8.864262e+01 5.000000e+00
    endloop
  endfacet
  facet normal -9.350162e-01 -3.546049e-01 -1.415107e-17
    outer loop
      vertex   1.172787e+02 8.864262e+01 5.000000e+00
      vertex   1.174909e+02 8.808321e+01 5.000000e+00
      vertex   1.174909e+02 8.808321e+01 8.000000e+00
    endloop
  endfacet
  facet normal -9.927089e-01 1.205367e-01 3.537768e-18
    outer loop
      vertex   1.174188e+02 8.748928e+01 8.000000e+00
      vertex   1.174909e+02 8.808321e+01 8.000000e+00
      vertex   1.174909e+02 8.808321e+01 5.000000e+00
    endloop
  endfacet
  facet normal -9.927089e-01 1.205367e-01 3.537768e-18
    outer loop
      vertex   1.174909e+02 8.808321e+01 5.000000e+00
      vertex   1.174188e+02 8.748928e+01 5.000000e+00
      vertex   1.174188e+02 8.748928e+01 8.000000e+00
    endloop
  endfacet
  facet normal -8.229839e-01 5.680647e-01 0.000000e+00
    outer loop
      vertex   1.170789e+02 8.699690e+01 8.000000e+00
      vertex   1.174188e+02 8.748928e+01 8.000000e+00
      vertex   1.174188e+02 8.748928e+01 5.000000e+00
    endloop
  endfacet
  facet normal -8.229839e-01 5.680647e-01 0.000000e+00
    outer loop
      vertex   1.174188e+02 8.748928e+01 5.000000e+00
      vertex   1.170789e+02 8.699690e+01 5.000000e+00
      vertex   1.170789e+02 8.699690e+01 8.000000e+00
    endloop
  endfacet
  facet normal -4.647232e-01 8.854560e-01 0.000000e+00
    outer loop
      vertex   1.165491e+02 8.671886e+01 8.000000e+00
      vertex   1.170789e+02 8.699690e+01 8.000000e+00
      vertex   1.170789e+02 8.699690e+01 5.000000e+00
    endloop
  endfacet
  facet normal -4.647232e-01 8.854560e-01 0.000000e+00
    outer loop
      vertex   1.170789e+02 8.699690e+01 5.000000e+00
      vertex   1.165491e+02 8.671886e+01 5.000000e+00
      vertex   1.165491e+02 8.671886e+01 8.000000e+00
    endloop
  endfacet
  facet normal -0.000000e+00 1.000000e+00 0.000000e+00
    outer loop
      vertex   1.159509e+02 8.671886e+01 8.000000e+00
      vertex   1.165491e+02 8.671886e+01 8.000000e+00
      vertex   1.165491e+02 8.671886e+01 5.000000e+00
    endloop
  endfacet
  facet normal 0.000000e+00 1.000000e+00 0.000000e+00
    outer loop
      vertex   1.165491e+02 8.671886e+01 5.000000e+00
      vertex   1.159509e+02 8.671886e+01 5.000000e+00
      vertex   1.159509e+02 8.671886e+01 8.000000e+00
    endloop
  endfacet
  facet normal 4.647232e-01 8.854560e-01 0.000000e+00
    outer loop
      vertex   1.154211e+02 8.699690e+01 8.000000e+00
      vertex   1.159509e+02 8.671886e+01 8.000000e+00
      vertex   1.159509e+02 8.671886e+01 5.000000e+00
    endloop
  endfacet
  facet normal 4.647232e-01 8.854560e-01 0.000000e+00
    outer loop
      vertex   1.159509e+02 8.671886e+01 5.000000e+00
      vertex   1.154211e+02 8.699690e+01 5.000000e+00
      vertex   1.154211e+02 8.699690e+01 8.000000e+00
    endloop
  endfacet
  facet normal 8.229839e-01 5.680647e-01 0.000000e+00
    outer loop
      vertex   1.150812e+02 8.748928e+01 8.000000e+00
      vertex   1.154211e+02 8.699690e+01 8.000000e+00
      vertex   1.154211e+02 8.699690e+01 5.000000e+00
    endloop
  endfacet
  facet normal 0.000000e+00 0.000000e+00 -1.000000e+00
    outer loop
      vertex   1.162500e+02 8.918254e+01 8.000000e+00
      vertex   1.168309e+02 8.903936e+01 8.000000e+00
      vertex   1.162500e+02 8.793254e+01 8.000000e+00
    endloop
  endfacet
  facet normal 0.000000e+00 0.000000e+00 -1.000000e+00
    outer loop
      vertex   1.150091e+02 8.808321e+01 8.000000e+00
      vertex   1.152213e+02 8.864262e+01 8.000000e+00
      vertex   1.162500e+02 8.793254e+01 8.000000e+00
    endloop
  endfacet
  facet normal 0.000000e+00 0.000000e+00 -1.000000e+00
    outer loop
      vertex   1.152213e+02 8.864262e+01 8.000000e+00
      vertex   1.156691e+02 8.903936e+01 8.000000e+00
      vertex   1.162500e+02 8.793254e+01 8.000000e+00
    endloop
  endfacet
  facet normal 0.000000e+00 0.000000e+00 -1.000000e+00
    outer loop
      vertex   1.156691e+02 8.903936e+01 8.000000e+00
      vertex   1.162500e+02 8.918254e+01 8.000000e+00
      vertex   1.162500e+02 8.793254e+01 8.000000e+00
    endloop
  endfacet
  facet normal 0.000000e+00 0.000000e+00 -1.000000e+00
    outer loop
      vertex   1.159509e+02 8.671886e+01 8.000000e+00
      vertex   1.154211e+02 8.699690e+01 8.000000e+00
      vertex   1.162500e+02 8.793254e+01 8.000000e+00
    endloop
  endfacet
  facet normal 0.000000e+00 0.000000e+00 -1.000000e+00
    outer loop
      vertex   1.154211e+02 8.699690e+01 8.000000e+00
      vertex   1.150812e+02 8.748928e+01 8.000000e+00
      vertex   1.162500e+02 8.793254e+01 8.000000e+00
    endloop
  endfacet
  facet normal 0.000000e+00 0.000000e+00 -1.000000e+00
    outer loop
      vertex   1.150812e+02 8.748928e+01 8.000000e+00
      vertex   1.150091e+02 8.808321e+01 8.000000e+00
      vertex   1.162500e+02 8.793254e+01 8.000000e+00
    endloop
  endfacet
  facet normal -0.000000e+00 0.000000e+00 -1.000000e+00
    outer loop
      vertex   1.174188e+02 8.748928e+01 8.000000e+00
      vertex   1.170789e+02 8.699690e+01 8.000000e+00
      vertex   1.162500e+02 8.793254e+01 8.000000e+00
    endloop
  endfacet
  facet normal -0.000000e+00 0.000000e+00 -1.000000e+00
    outer loop
      vertex   1.170789e+02 8.699690e+01 8.000000e+00
      vertex   1.165491e+02 8.671886e+01 8.000000e+00
      vertex   1.162500e+02 8.793254e+01 8.000000e+00
    endloop
  endfacet
  facet normal 0.000000e+00 0.000000e+00 -1.000000e+00
    outer loop
      vertex   1.165491e+02 8.671886e+01 8.000000e+00
      vertex   1.159509e+02 8.671886e+01 8.000000e+00
      vertex   1.162500e+02 8.793254e+01 8.000000e+00
    endloop
  endfacet
  facet normal 0.000000e+00 0.000000e+00 -1.000000e+00
    outer loop
      vertex   1.162500e+02 8.793254e+01 8.000000e+00
      vertex   1.168309e+02 8.903936e+01 8.000000e+00
      vertex   1.172787e+02 8.864262e+01 8.000000e+00
    endloop
  endfacet
  facet normal 0.000000e+00 -0.000000e+00 -1.000000e+00
    outer loop
      vertex   1.172787e+02 8.864262e+01 8.000000e+00
      vertex   1.174909e+02 8.808321e+01 8.000000e+00
      vertex   1.162500e+02 8.793254e+01 8.000000e+00
    endloop
  endfacet
  facet normal 0.000000e+00 0.000000e+00 -1.000000e+00
    outer loop
      vertex   1.174909e+02 8.808321e+01 8.000000e+00
      vertex   1.174188e+02 8.748928e+01 8.000000e+00
      vertex   1.162500e+02 8.793254e+01 8.000000e+00
    endloop
  endfacet
  facet normal 0.000000e+00 0.000000e+00 1.000000e+00
    outer loop
      vertex   3.000000e+01 1.708651e+02 1.500000e+01
      vertex   3.000000e+01 1.458651e+02 1.500000e+01
      vertex   1.225000e+02 0.000000e+00 1.500000e+01
    endloop
  endfacet
  facet normal 0.000000e+00 0.000000e+00 1.000000e+00
    outer loop
      vertex   5.000000e+00 1.458651e+02 1.500000e+01
      vertex   5.000000e+00 1.708651e+02 1.500000e+01
      vertex   0.000000e+00 1.758651e+02 1.500000e+01
    endloop
  endfacet
  facet normal 0.000000e+00 0.000000e+00 1.000000e+00
    outer loop
      vertex   0.000000e+00 1.758651e+02 1.500000e+01
      vertex   5.000000e+00 1.708651e+02 1.500000e+01
      vertex   3.000000e+01 1.708651e+02 1.500000e+01
    endloop
  endfacet
  facet normal 0.000000e+00 -0.000000e+00 1.000000e+00
    outer loop
      vertex   3.000000e+01 1.708651e+02 1.500000e+01
      vertex   1.225000e+02 1.758651e+02 1.500000e+01
      vertex   0.000000e+00 1.758651e+02 1.500000e+01
    endloop
  endfacet
  facet normal 0.000000e+00 -0.000000e+00 1.000000e+00
    outer loop
      vertex   1.225000e+02 0.000000e+00 1.500000e+01
      vertex   1.225000e+02 1.758651e+02 1.500000e+01
      vertex   3.000000e+01 1.708651e+02 1.500000e+01
    endloop
  endfacet
  facet normal 0.000000e+00 0.000000e+00 1.000000e+00
    outer loop
      vertex   0.000000e+00 1.758651e+02 1.500000e+01
      vertex   0.000000e+00 0.000000e+00 1.500000e+01
      vertex   5.000000e+00 1.458651e+02 1.500000e+01
    endloop
  endfacet
  facet normal 0.000000e+00 -0.000000e+00 1.000000e+00
    outer loop
      vertex   5.000000e+00 3.000000e+01 1.500000e+01
      vertex   5.000000e+00 1.458651e+02 1.500000e+01
      vertex   0.000000e+00 0.000000e+00 1.500000e+01
    endloop
  endfacet
  facet normal 0.000000e+00 0.000000e+00 1.000000e+00
    outer loop
      vertex   3.000000e+01 1.458651e+02 1.500000e+01
      vertex   5.000000e+00 1.458651e+02 1.500000e+01
      vertex   5.000000e+00 3.000000e+01 1.500000e+01
    endloop
  endfacet
  facet normal 0.000000e+00 0.000000e+00 1.000000e+00
    outer loop
      vertex   5.000000e+00 3.000000e+01 1.500000e+01
      vertex   3.000000e+01 3.000000e+01 1.500000e+01
      vertex   3.000000e+01 1.458651e+02 1.500000e+01
    endloop
  endfacet
  facet normal 0.000000e+00 0.000000e+00 1.000000e+00
    outer loop
      vertex   1.225000e+02 0.000000e+00 1.500000e+01
      vertex   3.000000e+01 1.458651e+02 1.500000e+01
      vertex   3.000000e+01 3.000000e+01 1.500000e+01
    endloop
  endfacet
  facet normal 0.000000e+00 0.000000e+00 1.000000e+00
    outer loop
      vertex   3.000000e+01 3.000000e+01 1.500000e+01
      vertex   3.000000e+01 5.000000e+00 1.500000e+01
      vertex   1.225000e+02 0.000000e+00 1.500000e+01
    endloop
  endfacet
  facet normal 0.000000e+00 0.000000e+00 1.000000e+00
    outer loop
      vertex   0.000000e+00 0.000000e+00 1.500000e+01
      vertex   1.225000e+02 0.000000e+00 1.500000e+01
      vertex   3.000000e+01 5.000000e+00 1.500000e+01
    endloop
  endfacet
  facet normal 0.000000e+00 0.000000e+00 1.000000e+00
    outer loop
      vertex   3.000000e+01 5.000000e+00 1.500000e+01
      vertex   5.000000e+00 5.000000e+00 1.500000e+01
      vertex   0.000000e+00 0.000000e+00 1.500000e+01
    endloop
  endfacet
  facet normal 0.000000e+00 0.000000e+00 1.000000e+00
    outer loop
      vertex   0.000000e+00 0.000000e+00 1.500000e+01
      vertex   5.000000e+00 5.000000e+00 1.500000e+01
      vertex   5.000000e+00 3.000000e+01 1.500000e+01
    endloop
  endfacet
  facet normal 1.000000e+00 0.000000e+00 -0.000000e+00
    outer loop
      vertex   3.000000e+01 3.000000e+01 1.500000e+01
      vertex   3.000000e+01 3.000000e+01 4.000000e+01
      vertex   3.000000e+01 5.000000e+00 4.000000e+01
    endloop
  endfacet
  facet normal 1.000000e+00 0.000000e+00 0.000000e+00
    outer loop
      vertex   3.000000e+01 5.000000e+00 4.000000e+01
      vertex   3.000000e+01 5.000000e+00 1.500000e+01
      vertex   3.000000e+01 3.000000e+01 1.500000e+01
    endloop
  endfacet
  facet normal 0.000000e+00 1.000000e+00 0.000000e+00
    outer loop
      vertex   5.000000e+00 3.000000e+01 1.500000e+01
      vertex   5.000000e+00 3.000000e+01 4.000000e+01
      vertex   3.000000e+01 3.000000e+01 4.000000e+01
    endloop
  endfacet
  facet normal 0.000000e+00 1.000000e+00 0.000000e+00
    outer loop
      vertex   3.000000e+01 3.000000e+01 4.000000e+01
      vertex   3.000000e+01 3.000000e+01 1.500000e+01
      vertex   5.000000e+00 3.000000e+01 1.500000e+01
    endloop
  endfacet
  facet normal -1.000000e+00 3.469447e-17 0.000000e+00
    outer loop
      vertex   5.000000e+00 5.000000e+00 1.500000e+01
      vertex   5.000000e+00 5.000000e+00 4.000000e+01
      vertex   5.000000e+00 3.000000e+01 4.000000e+01
    endloop
  endfacet
  facet normal -1.000000e+00 -4.357882e-33 3.469447e-17
    outer loop
      vertex   5.000000e+00 3.000000e+01 4.000000e+01
      vertex   5.000000e+00 3.000000e+01 1.500000e+01
      vertex   5.000000e+00 5.000000e+00 1.500000e+01
    endloop
  endfacet
  facet normal 0.000000e+00 -1.000000e+00 0.000000e+00
    outer loop
      vertex   3.000000e+01 5.000000e+00 1.500000e+01
      vertex   3.000000e+01 5.000000e+00 4.000000e+01
      vertex   5.000000e+00 5.000000e+00 4.000000e+01
    endloop
  endfacet
  facet normal 0.000000e+00 -1.000000e+00 0.000000e+00
    outer loop
      vertex   5.000000e+00 5.000000e+00 4.000000e+01
      vertex   5.000000e+00 5.000000e+00 1.500000e+01
      vertex   3.000000e+01 5.000000e+00 1.500000e+01
    endloop
  endfacet
  facet normal -1.110223e-15 1.000000e+00 0.000000e+00
    outer loop
      vertex   5.000000e+00 1.708651e+02 1.500000e+01
      vertex   5.000000e+00 1.708651e+02 4.000000e+01
      vertex   3.000000e+01 1.708651e+02 4.000000e+01
    endloop
  endfacet
  facet normal -2.220446e-15 1.000000e+00 1.110223e-15
    outer loop
      vertex   3.000000e+01 1.708651e+02 4.000000e+01
      vertex   3.000000e+01 1.708651e+02 1.500000e+01
      vertex   5.000000e+00 1.708651e+02 1.500000e+01
    endloop
  endfacet
  facet normal -1.000000e+00 -4.163336e-16 3.816392e-16
    outer loop
      vertex   5.000000e+00 1.458651e+02 1.500000e+01
      vertex   5.000000e+00 1.458651e+02 4.000000e+01
      vertex   5.000000e+00 1.708651e+02 4.000000e+01
    endloop
  endfacet
  facet normal -1.000000e+00 -3.469447e-17 -0.000000e+00
    outer loop
      vertex   5.000000e+00 1.708651e+02 4.000000e+01
      vertex   5.000000e+00 1.708651e+02 1.500000e+01
      vertex   5.000000e+00 1.458651e+02 1.500000e+01
    endloop
  endfacet
  facet normal 1.110223e-15 -1.000000e+00 -4.622232e-31
    outer loop
      vertex   3.000000e+01 1.458651e+02 1.500000e+01
      vertex   3.000000e+01 1.458651e+02 4.000000e+01
      vertex   5.000000e+00 1.458651e+02 4.000000e+01
    endloop
  endfacet
  facet normal 1.110223e-15 -1.000000e+00 -4.237046e-31
    outer loop
      vertex   5.000000e+00 1.458651e+02 4.000000e+01
      vertex   5.000000e+00 1.458651e+02 1.500000e+01
      vertex   3.000000e+01 1.458651e+02 1.500000e+01
    endloop
  endfacet
  facet normal 1.000000e+00 4.163336e-16 4.622232e-31
    outer loop
      vertex   3.000000e+01 1.708651e+02 1.500000e+01
      vertex   3.000000e+01 1.708651e+02 4.000000e+01
      vertex   3.000000e+01 1.458651e+02 4.000000e+01
    endloop
  endfacet
  facet normal 1.000000e+00 -6.972611e-32 -4.163336e-16
    outer loop
      vertex   3.000000e+01 1.458651e+02 4.000000e+01
      vertex   3.000000e+01 1.458651e+02 1.500000e+01
      vertex   3.000000e+01 1.708651e+02 1.500000e+01
    endloop
  endfacet
  facet normal 0.000000e+00 -0.000000e+00 1.000000e+00
    outer loop
      vertex   7.000000e+00 7.000000e+00 4.000000e+01
      vertex   7.000000e+00 2.800000e+01 4.000000e+01
      vertex   5.000000e+00 3.000000e+01 4.000000e+01
    endloop
  endfacet
  facet normal 0.000000e+00 0.000000e+00 1.000000e+00
    outer loop
      vertex   5.000000e+00 3.000000e+01 4.000000e+01
      vertex   5.000000e+00 5.000000e+00 4.000000e+01
      vertex   7.000000e+00 7.000000e+00 4.000000e+01
    endloop
  endfacet
  facet normal 0.000000e+00 0.000000e+00 1.000000e+00
    outer loop
      vertex   2.800000e+01 7.000000e+00 4.000000e+01
      vertex   7.000000e+00 7.000000e+00 4.000000e+01
      vertex   5.000000e+00 5.000000e+00 4.000000e+01
    endloop
  endfacet
  facet normal 0.000000e+00 0.000000e+00 1.000000e+00
    outer loop
      vertex   5.000000e+00 5.000000e+00 4.000000e+01
      vertex   3.000000e+01 5.000000e+00 4.000000e+01
      vertex   2.800000e+01 7.000000e+00 4.000000e+01
    endloop
  endfacet
  facet normal 0.000000e+00 0.000000e+00 1.000000e+00
    outer loop
      vertex   2.800000e+01 2.800000e+01 4.000000e+01
      vertex   2.800000e+01 7.000000e+00 4.000000e+01
      vertex   3.000000e+01 5.000000e+00 4.000000e+01
    endloop
  endfacet
  facet normal 0.000000e+00 -0.000000e+00 1.000000e+00
    outer loop
      vertex   3.000000e+01 5.000000e+00 4.000000e+01
      vertex   3.000000e+01 3.000000e+01 4.000000e+01
      vertex   2.800000e+01 2.800000e+01 4.000000e+01
    endloop
  endfacet
  facet normal 0.000000e+00 0.000000e+00 1.000000e+00
    outer loop
      vertex   7.000000e+00 2.800000e+01 4.000000e+01
      vertex   2.800000e+01 2.800000e+01 4.000000e+01
      vertex   3.000000e+01 3.000000e+01 4.000000e+01
    endloop
  endfacet
  facet normal 0.000000e+00 0.000000e+00 1.000000e+00
    outer loop
      vertex   3.000000e+01 3.000000e+01 4.000000e+01
      vertex   5.000000e+00 3.000000e+01 4.000000e+01
      vertex   7.000000e+00 2.800000e+01 4.000000e+01
    endloop
  endfacet
  facet normal -1.000000e+00 0.000000e+00 -0.000000e+00
    outer loop
      vertex   2.800000e+01 2.800000e+01 4.000000e+01
      vertex   2.800000e+01 2.800000e+01 1.500000e+01
      vertex   2.800000e+01 7.000000e+00 1.500000e+01
    endloop
  endfacet
  facet normal -1.000000e+00 0.000000e+00 0.000000e+00
    outer loop
      vertex   2.800000e+01 7.000000e+00 1.500000e+01
      vertex   2.800000e+01 7.000000e+00 4.000000e+01
      vertex   2.800000e+01 2.800000e+01 4.000000e+01
    endloop
  endfacet
  facet normal 0.000000e+00 -0.000000e+00 1.000000e+00
    outer loop
      vertex   2.800000e+01 7.000000e+00 1.500000e+01
      vertex   2.800000e+01 2.800000e+01 1.500000e+01
      vertex   7.000000e+00 2.800000e+01 1.500000e+01
    endloop
  endfacet
  facet normal 0.000000e+00 0.000000e+00 1.000000e+00
    outer loop
      vertex   7.000000e+00 2.800000e+01 1.500000e+01
      vertex   7.000000e+00 7.000000e+00 1.500000e+01
      vertex   2.800000e+01 7.000000e+00 1.500000e+01
    endloop
  endfacet
  facet normal 0.000000e+00 -1.000000e+00 -0.000000e+00
    outer loop
      vertex   7.000000e+00 2.800000e+01 4.000000e+01
      vertex   7.000000e+00 2.800000e+01 1.500000e+01
      vertex   2.800000e+01 2.800000e+01 1.500000e+01
    endloop
  endfacet
  facet normal 0.000000e+00 -1.000000e+00 0.000000e+00
    outer loop
      vertex   2.800000e+01 2.800000e+01 1.500000e+01
      vertex   2.800000e+01 2.800000e+01 4.000000e+01
      vertex   7.000000e+00 2.800000e+01 4.000000e+01
    endloop
  endfacet
  facet normal 1.000000e+00 0.000000e+00 0.000000e+00
    outer loop
      vertex   7.000000e+00 7.000000e+00 4.000000e+01
      vertex   7.000000e+00 7.000000e+00 1.500000e+01
      vertex   7.000000e+00 2.800000e+01 1.500000e+01
    endloop
  endfacet
  facet normal 1.000000e+00 -8.260588e-17 -6.938894e-17
    outer loop
      vertex   7.000000e+00 2.800000e+01 1.500000e+01
      vertex   7.000000e+00 2.800000e+01 4.000000e+01
      vertex   7.000000e+00 7.000000e+00 4.000000e+01
    endloop
  endfacet
  facet normal 0.000000e+00 1.000000e+00 0.000000e+00
    outer loop
      vertex   2.800000e+01 7.000000e+00 4.000000e+01
      vertex   2.800000e+01 7.000000e+00 1.500000e+01
      vertex   7.000000e+00 7.000000e+00 1.500000e+01
    endloop
  endfacet
  facet normal 0.000000e+00 1.000000e+00 0.000000e+00
    outer loop
      vertex   7.000000e+00 7.000000e+00 1.500000e+01
      vertex   7.000000e+00 7.000000e+00 4.000000e+01
      vertex   2.800000e+01 7.000000e+00 4.000000e+01
    endloop
  endfacet
  facet normal 0.000000e+00 0.000000e+00 1.000000e+00
    outer loop
      vertex   7.000000e+00 1.688651e+02 4.000000e+01
      vertex   2.800000e+01 1.688651e+02 4.000000e+01
      vertex   3.000000e+01 1.708651e+02 4.000000e+01
    endloop
  endfacet
  facet normal 0.000000e+00 0.000000e+00 1.000000e+00
    outer loop
      vertex   3.000000e+01 1.708651e+02 4.000000e+01
      vertex   5.000000e+00 1.708651e+02 4.000000e+01
      vertex   7.000000e+00 1.688651e+02 4.000000e+01
    endloop
  endfacet
  facet normal 0.000000e+00 0.000000e+00 1.000000e+00
    outer loop
      vertex   7.000000e+00 1.478651e+02 4.000000e+01
      vertex   7.000000e+00 1.688651e+02 4.000000e+01
      vertex   5.000000e+00 1.708651e+02 4.000000e+01
    endloop
  endfacet
  facet normal 0.000000e+00 0.000000e+00 1.000000e+00
    outer loop
      vertex   5.000000e+00 1.708651e+02 4.000000e+01
      vertex   5.000000e+00 1.458651e+02 4.000000e+01
      vertex   7.000000e+00 1.478651e+02 4.000000e+01
    endloop
  endfacet
  facet normal 0.000000e+00 0.000000e+00 1.000000e+00
    outer loop
      vertex   2.800000e+01 1.478651e+02 4.000000e+01
      vertex   7.000000e+00 1.478651e+02 4.000000e+01
      vertex   5.000000e+00 1.458651e+02 4.000000e+01
    endloop
  endfacet
  facet normal 0.000000e+00 0.000000e+00 1.000000e+00
    outer loop
      vertex   5.000000e+00 1.458651e+02 4.000000e+01
      vertex   3.000000e+01 1.458651e+02 4.000000e+01
      vertex   2.800000e+01 1.478651e+02 4.000000e+01
    endloop
  endfacet
  facet normal 0.000000e+00 0.000000e+00 1.000000e+00
    outer loop
      vertex   2.800000e+01 1.688651e+02 4.000000e+01
      vertex   2.800000e+01 1.478651e+02 4.000000e+01
      vertex   3.000000e+01 1.458651e+02 4.000000e+01
    endloop
  endfacet
  facet normal 0.000000e+00 0.000000e+00 1.000000e+00
    outer loop
      vertex   3.000000e+01 1.458651e+02 4.000000e+01
      vertex   3.000000e+01 1.708651e+02 4.000000e+01
      vertex   2.800000e+01 1.688651e+02 4.000000e+01
    endloop
  endfacet
  facet normal 0.000000e+00 -1.000000e+00 -0.000000e+00
    outer loop
      vertex   7.000000e+00 1.688651e+02 4.000000e+01
      vertex   7.000000e+00 1.688651e+02 1.500000e+01
      vertex   2.800000e+01 1.688651e+02 1.500000e+01
    endloop
  endfacet
  facet normal 0.000000e+00 -1.000000e+00 0.000000e+00
    outer loop
      vertex   2.800000e+01 1.688651e+02 1.500000e+01
      vertex   2.800000e+01 1.688651e+02 4.000000e+01
      vertex   7.000000e+00 1.688651e+02 4.000000e+01
    endloop
  endfacet
  facet normal 0.000000e+00 0.000000e+00 1.000000e+00
    outer loop
      vertex   2.800000e+01 1.478651e+02 1.500000e+01
      vertex   2.800000e+01 1.688651e+02 1.500000e+01
      vertex   7.000000e+00 1.688651e+02 1.500000e+01
    endloop
  endfacet
  facet normal 0.000000e+00 0.000000e+00 1.000000e+00
    outer loop
      vertex   7.000000e+00 1.688651e+02 1.500000e+01
      vertex   7.000000e+00 1.478651e+02 1.500000e+01
      vertex   2.800000e+01 1.478651e+02 1.500000e+01
    endloop
  endfacet
  facet normal 1.000000e+00 1.280391e-15 0.000000e+00
    outer loop
      vertex   7.000000e+00 1.478651e+02 4.000000e+01
      vertex   7.000000e+00 1.478651e+02 1.500000e+01
      vertex   7.000000e+00 1.688651e+02 1.500000e+01
    endloop
  endfacet
  facet normal 1.000000e+00 1.239088e-15 -3.469447e-17
    outer loop
      vertex   7.000000e+00 1.688651e+02 1.500000e+01
      vertex   7.000000e+00 1.688651e+02 4.000000e+01
      vertex   7.000000e+00 1.478651e+02 4.000000e+01
    endloop
  endfacet
  facet normal 1.321694e-15 1.000000e+00 0.000000e+00
    outer loop
      vertex   2.800000e+01 1.478651e+02 4.000000e+01
      vertex   2.800000e+01 1.478651e+02 1.500000e+01
      vertex   7.000000e+00 1.478651e+02 1.500000e+01
    endloop
  endfacet
  facet normal 1.321694e-15 1.000000e+00 -0.000000e+00
    outer loop
      vertex   7.000000e+00 1.478651e+02 1.500000e+01
      vertex   7.000000e+00 1.478651e+02 4.000000e+01
      vertex   2.800000e+01 1.478651e+02 4.000000e+01
    endloop
  endfacet
  facet normal -1.000000e+00 -1.156482e-15 -0.000000e+00
    outer loop
      vertex   2.800000e+01 1.688651e+02 4.000000e+01
      vertex   2.800000e+01 1.688651e+02 1.500000e+01
      vertex   2.800000e+01 1.478651e+02 1.500000e+01
    endloop
  endfacet
  facet normal -1.000000e+00 -1.156482e-15 0.000000e+00
    outer loop
      vertex   2.800000e+01 1.478651e+02 1.500000e+01
      vertex   2.800000e+01 1.478651e+02 4.000000e+01
      vertex   2.800000e+01 1.688651e+02 4.000000e+01
    endloop
  endfacet
endsolid
