solid ascii
  facet normal 0.000000e+00 -1.000000e+00 0.000000e+00
    outer loop
      vertex   -1.250000e+01 -7.500000e+00 5.000000e+00
      vertex   -1.250000e+01 -7.500000e+00 0.000000e+00
      vertex   1.250000e+01 -7.500000e+00 0.000000e+00
    endloop
  endfacet
  facet normal 0.000000e+00 -1.000000e+00 0.000000e+00
    outer loop
      vertex   1.250000e+01 -7.500000e+00 0.000000e+00
      vertex   1.250000e+01 -7.500000e+00 5.000000e+00
      vertex   -1.250000e+01 -7.500000e+00 5.000000e+00
    endloop
  endfacet
  facet normal 0.000000e+00 1.000000e+00 0.000000e+00
    outer loop
      vertex   1.250000e+01 7.500000e+00 5.000000e+00
      vertex   1.250000e+01 7.500000e+00 0.000000e+00
      vertex   -1.250000e+01 7.500000e+00 0.000000e+00
    endloop
  endfacet
  facet normal 0.000000e+00 1.000000e+00 0.000000e+00
    outer loop
      vertex   -1.250000e+01 7.500000e+00 0.000000e+00
      vertex   -1.250000e+01 7.500000e+00 5.000000e+00
      vertex   1.250000e+01 7.500000e+00 5.000000e+00
    endloop
  endfacet
  facet normal 1.000000e+00 0.000000e+00 0.000000e+00
    outer loop
      vertex   1.250000e+01 -7.500000e+00 5.000000e+00
      vertex   1.250000e+01 -7.500000e+00 0.000000e+00
      vertex   1.250000e+01 7.500000e+00 0.000000e+00
    endloop
  endfacet
  facet normal 1.000000e+00 0.000000e+00 -0.000000e+00
    outer loop
      vertex   1.250000e+01 7.500000e+00 0.000000e+00
      vertex   1.250000e+01 7.500000e+00 5.000000e+00
      vertex   1.250000e+01 -7.500000e+00 5.000000e+00
    endloop
  endfacet
  facet normal 0.000000e+00 0.000000e+00 1.000000e+00
    outer loop
      vertex   -6.250000e+00 0.000000e+00 2.000000e+00
      vertex   -5.625000e+00 -1.082532e+00 2.000000e+00
      vertex   -5.167468e+00 -6.250000e-01 2.000000e+00
    endloop
  endfacet
  facet normal 0.000000e+00 -0.000000e+00 1.000000e+00
    outer loop
      vertex   -5.167468e+00 -6.250000e-01 2.000000e+00
      vertex   -5.000000e+00 -3.469447e-16 2.000000e+00
      vertex   -6.250000e+00 0.000000e+00 2.000000e+00
    endloop
  endfacet
  facet normal 0.000000e+00 0.000000e+00 1.000000e+00
    outer loop
      vertex   -5.000000e+00 -3.469447e-16 2.000000e+00
      vertex   -5.167468e+00 6.250000e-01 2.000000e+00
      vertex   -6.250000e+00 0.000000e+00 2.000000e+00
    endloop
  endfacet
  facet normal 0.000000e+00 0.000000e+00 1.000000e+00
    outer loop
      vertex   -5.167468e+00 6.250000e-01 2.000000e+00
      vertex   -5.625000e+00 1.082532e+00 2.000000e+00
      vertex   -6.250000e+00 0.000000e+00 2.000000e+00
    endloop
  endfacet
  facet normal 0.000000e+00 0.000000e+00 1.000000e+00
    outer loop
      vertex   -5.625000e+00 1.082532e+00 2.000000e+00
      vertex   -6.250000e+00 1.250000e+00 2.000000e+00
      vertex   -6.250000e+00 0.000000e+00 2.000000e+00
    endloop
  endfacet
  facet normal 0.000000e+00 0.000000e+00 1.000000e+00
    outer loop
      vertex   -6.250000e+00 1.250000e+00 2.000000e+00
      vertex   -6.875000e+00 1.082532e+00 2.000000e+00
      vertex   -6.250000e+00 0.000000e+00 2.000000e+00
    endloop
  endfacet
  facet normal 0.000000e+00 0.000000e+00 1.000000e+00
    outer loop
      vertex   -6.875000e+00 1.082532e+00 2.000000e+00
      vertex   -7.332532e+00 6.250000e-01 2.000000e+00
      vertex   -6.250000e+00 0.000000e+00 2.000000e+00
    endloop
  endfacet
  facet normal 0.000000e+00 0.000000e+00 1.000000e+00
    outer loop
      vertex   -7.332532e+00 6.250000e-01 2.000000e+00
      vertex   -7.500000e+00 1.040834e-15 2.000000e+00
      vertex   -6.250000e+00 0.000000e+00 2.000000e+00
    endloop
  endfacet
  facet normal 0.000000e+00 0.000000e+00 1.000000e+00
    outer loop
      vertex   -7.500000e+00 1.040834e-15 2.000000e+00
      vertex   -7.332532e+00 -6.250000e-01 2.000000e+00
      vertex   -6.250000e+00 0.000000e+00 2.000000e+00
    endloop
  endfacet
  facet normal -0.000000e+00 0.000000e+00 1.000000e+00
    outer loop
      vertex   -7.332532e+00 -6.250000e-01 2.000000e+00
      vertex   -6.875000e+00 -1.082532e+00 2.000000e+00
      vertex   -6.250000e+00 0.000000e+00 2.000000e+00
    endloop
  endfacet
  facet normal -0.000000e+00 0.000000e+00 1.000000e+00
    outer loop
      vertex   -6.875000e+00 -1.082532e+00 2.000000e+00
      vertex   -6.250000e+00 -1.250000e+00 2.000000e+00
      vertex   -6.250000e+00 0.000000e+00 2.000000e+00
    endloop
  endfacet
  facet normal 0.000000e+00 0.000000e+00 1.000000e+00
    outer loop
      vertex   -6.250000e+00 -1.250000e+00 2.000000e+00
      vertex   -5.625000e+00 -1.082532e+00 2.000000e+00
      vertex   -6.250000e+00 0.000000e+00 2.000000e+00
    endloop
  endfacet
  facet normal -1.000000e+00 0.000000e+00 -0.000000e+00
    outer loop
      vertex   -1.250000e+01 7.500000e+00 5.000000e+00
      vertex   -1.250000e+01 7.500000e+00 0.000000e+00
      vertex   -1.250000e+01 -7.500000e+00 0.000000e+00
    endloop
  endfacet
  facet normal -1.000000e+00 0.000000e+00 0.000000e+00
    outer loop
      vertex   -1.250000e+01 -7.500000e+00 0.000000e+00
      vertex   -1.250000e+01 -7.500000e+00 5.000000e+00
      vertex   -1.250000e+01 7.500000e+00 5.000000e+00
    endloop
  endfacet
  facet normal 0.000000e+00 -0.000000e+00 -1.000000e+00
    outer loop
      vertex   1.250000e+01 7.500000e+00 0.000000e+00
      vertex   1.250000e+01 -7.500000e+00 0.000000e+00
      vertex   -1.250000e+01 -7.500000e+00 0.000000e+00
    endloop
  endfacet
  facet normal 0.000000e+00 0.000000e+00 -1.000000e+00
    outer loop
      vertex   -1.250000e+01 -7.500000e+00 0.000000e+00
      vertex   -1.250000e+01 7.500000e+00 0.000000e+00
      vertex   1.250000e+01 7.500000e+00 0.000000e+00
    endloop
  endfacet
  facet normal -2.588190e-01 9.659258e-01 -7.098454e-18
    outer loop
      vertex   6.875000e+00 -1.082532e+00 2.000000e+00
      vertex   6.250000e+00 -1.250000e+00 2.000000e+00
      vertex   6.250000e+00 -1.250000e+00 5.000000e+00
    endloop
  endfacet
  facet normal -7.071068e-01 7.071068e-01 -1.419691e-17
    outer loop
      vertex   7.332532e+00 -6.250000e-01 2.000000e+00
      vertex   6.875000e+00 -1.082532e+00 2.000000e+00
      vertex   6.875000e+00 -1.082532e+00 5.000000e+00
    endloop
  endfacet
  facet normal -9.659258e-01 2.588190e-01 0.000000e+00
    outer loop
      vertex   7.500000e+00 1.339844e-15 2.000000e+00
      vertex   7.332532e+00 -6.250000e-01 2.000000e+00
      vertex   7.332532e+00 -6.250000e-01 5.000000e+00
    endloop
  endfacet
  facet normal -9.659258e-01 -2.588190e-01 0.000000e+00
    outer loop
      vertex   7.332532e+00 6.250000e-01 2.000000e+00
      vertex   7.500000e+00 1.339844e-15 2.000000e+00
      vertex   7.500000e+00 1.339844e-15 5.000000e+00
    endloop
  endfacet
  facet normal -7.071068e-01 -7.071068e-01 0.000000e+00
    outer loop
      vertex   6.875000e+00 1.082532e+00 2.000000e+00
      vertex   7.332532e+00 6.250000e-01 2.000000e+00
      vertex   7.332532e+00 6.250000e-01 5.000000e+00
    endloop
  endfacet
  facet normal -2.588190e-01 -9.659258e-01 0.000000e+00
    outer loop
      vertex   6.250000e+00 1.250000e+00 2.000000e+00
      vertex   6.875000e+00 1.082532e+00 2.000000e+00
      vertex   6.875000e+00 1.082532e+00 5.000000e+00
    endloop
  endfacet
  facet normal 2.588190e-01 -9.659258e-01 0.000000e+00
    outer loop
      vertex   5.625000e+00 1.082532e+00 2.000000e+00
      vertex   6.250000e+00 1.250000e+00 2.000000e+00
      vertex   6.250000e+00 1.250000e+00 5.000000e+00
    endloop
  endfacet
  facet normal 7.071068e-01 -7.071068e-01 0.000000e+00
    outer loop
      vertex   5.167468e+00 6.250000e-01 2.000000e+00
      vertex   5.625000e+00 1.082532e+00 2.000000e+00
      vertex   5.625000e+00 1.082532e+00 5.000000e+00
    endloop
  endfacet
  facet normal 9.659258e-01 -2.588190e-01 0.000000e+00
    outer loop
      vertex   5.000000e+00 -3.540962e-16 2.000000e+00
      vertex   5.167468e+00 6.250000e-01 2.000000e+00
      vertex   5.167468e+00 6.250000e-01 5.000000e+00
    endloop
  endfacet
  facet normal 9.659258e-01 2.588190e-01 0.000000e+00
    outer loop
      vertex   5.167468e+00 -6.250000e-01 2.000000e+00
      vertex   5.000000e+00 -3.540962e-16 2.000000e+00
      vertex   5.000000e+00 -3.540962e-16 5.000000e+00
    endloop
  endfacet
  facet normal 7.071068e-01 7.071068e-01 0.000000e+00
    outer loop
      vertex   5.625000e+00 -1.082532e+00 2.000000e+00
      vertex   5.167468e+00 -6.250000e-01 2.000000e+00
      vertex   5.167468e+00 -6.250000e-01 5.000000e+00
    endloop
  endfacet
  facet normal 2.588190e-01 9.659258e-01 0.000000e+00
    outer loop
      vertex   6.250000e+00 -1.250000e+00 2.000000e+00
      vertex   5.625000e+00 -1.082532e+00 2.000000e+00
      vertex   5.625000e+00 -1.082532e+00 5.000000e+00
    endloop
  endfacet
  facet normal 2.588190e-01 9.659258e-01 0.000000e+00
    outer loop
      vertex   5.625000e+00 -1.082532e+00 5.000000e+00
      vertex   6.250000e+00 -1.250000e+00 5.000000e+00
      vertex   6.250000e+00 -1.250000e+00 2.000000e+00
    endloop
  endfacet
  facet normal 7.071068e-01 7.071068e-01 0.000000e+00
    outer loop
      vertex   5.167468e+00 -6.250000e-01 5.000000e+00
      vertex   5.625000e+00 -1.082532e+00 5.000000e+00
      vertex   5.625000e+00 -1.082532e+00 2.000000e+00
    endloop
  endfacet
  facet normal 9.659258e-01 2.588190e-01 0.000000e+00
    outer loop
      vertex   5.000000e+00 -3.540962e-16 5.000000e+00
      vertex   5.167468e+00 -6.250000e-01 5.000000e+00
      vertex   5.167468e+00 -6.250000e-01 2.000000e+00
    endloop
  endfacet
  facet normal 9.659258e-01 -2.588190e-01 0.000000e+00
    outer loop
      vertex   5.167468e+00 6.250000e-01 5.000000e+00
      vertex   5.000000e+00 -3.540962e-16 5.000000e+00
      vertex   5.000000e+00 -3.540962e-16 2.000000e+00
    endloop
  endfacet
  facet normal 7.071068e-01 -7.071068e-01 0.000000e+00
    outer loop
      vertex   5.625000e+00 1.082532e+00 5.000000e+00
      vertex   5.167468e+00 6.250000e-01 5.000000e+00
      vertex   5.167468e+00 6.250000e-01 2.000000e+00
    endloop
  endfacet
  facet normal 2.588190e-01 -9.659258e-01 0.000000e+00
    outer loop
      vertex   6.250000e+00 1.250000e+00 5.000000e+00
      vertex   5.625000e+00 1.082532e+00 5.000000e+00
      vertex   5.625000e+00 1.082532e+00 2.000000e+00
    endloop
  endfacet
  facet normal -2.588190e-01 -9.659258e-01 0.000000e+00
    outer loop
      vertex   6.875000e+00 1.082532e+00 5.000000e+00
      vertex   6.250000e+00 1.250000e+00 5.000000e+00
      vertex   6.250000e+00 1.250000e+00 2.000000e+00
    endloop
  endfacet
  facet normal -7.071068e-01 -7.071068e-01 0.000000e+00
    outer loop
      vertex   7.332532e+00 6.250000e-01 5.000000e+00
      vertex   6.875000e+00 1.082532e+00 5.000000e+00
      vertex   6.875000e+00 1.082532e+00 2.000000e+00
    endloop
  endfacet
  facet normal -9.659258e-01 -2.588190e-01 0.000000e+00
    outer loop
      vertex   7.500000e+00 1.339844e-15 5.000000e+00
      vertex   7.332532e+00 6.250000e-01 5.000000e+00
      vertex   7.332532e+00 6.250000e-01 2.000000e+00
    endloop
  endfacet
  facet normal -9.659258e-01 2.588190e-01 0.000000e+00
    outer loop
      vertex   7.332532e+00 -6.250000e-01 5.000000e+00
      vertex   7.500000e+00 1.339844e-15 5.000000e+00
      vertex   7.500000e+00 1.339844e-15 2.000000e+00
    endloop
  endfacet
  facet normal -7.071068e-01 7.071068e-01 -1.419691e-17
    outer loop
      vertex   6.875000e+00 -1.082532e+00 5.000000e+00
      vertex   7.332532e+00 -6.250000e-01 5.000000e+00
      vertex   7.332532e+00 -6.250000e-01 2.000000e+00
    endloop
  endfacet
  facet normal -2.588190e-01 9.659258e-01 -7.098454e-18
    outer loop
      vertex   6.250000e+00 -1.250000e+00 5.000000e+00
      vertex   6.875000e+00 -1.082532e+00 5.000000e+00
      vertex   6.875000e+00 -1.082532e+00 2.000000e+00
    endloop
  endfacet
  facet normal 0.000000e+00 0.000000e+00 1.000000e+00
    outer loop
      vertex   6.250000e+00 0.000000e+00 2.000000e+00
      vertex   6.875000e+00 -1.082532e+00 2.000000e+00
      vertex   7.332532e+00 -6.250000e-01 2.000000e+00
    endloop
  endfacet
  facet normal 0.000000e+00 -0.000000e+00 1.000000e+00
    outer loop
      vertex   7.332532e+00 -6.250000e-01 2.000000e+00
      vertex   7.500000e+00 -3.469447e-16 2.000000e+00
      vertex   6.250000e+00 0.000000e+00 2.000000e+00
    endloop
  endfacet
  facet normal 0.000000e+00 0.000000e+00 1.000000e+00
    outer loop
      vertex   7.500000e+00 -3.469447e-16 2.000000e+00
      vertex   7.332532e+00 6.250000e-01 2.000000e+00
      vertex   6.250000e+00 0.000000e+00 2.000000e+00
    endloop
  endfacet
  facet normal 0.000000e+00 0.000000e+00 1.000000e+00
    outer loop
      vertex   7.332532e+00 6.250000e-01 2.000000e+00
      vertex   6.875000e+00 1.082532e+00 2.000000e+00
      vertex   6.250000e+00 0.000000e+00 2.000000e+00
    endloop
  endfacet
  facet normal 0.000000e+00 0.000000e+00 1.000000e+00
    outer loop
      vertex   6.875000e+00 1.082532e+00 2.000000e+00
      vertex   6.250000e+00 1.250000e+00 2.000000e+00
      vertex   6.250000e+00 0.000000e+00 2.000000e+00
    endloop
  endfacet
  facet normal 0.000000e+00 0.000000e+00 1.000000e+00
    outer loop
      vertex   6.250000e+00 1.250000e+00 2.000000e+00
      vertex   5.625000e+00 1.082532e+00 2.000000e+00
      vertex   6.250000e+00 0.000000e+00 2.000000e+00
    endloop
  endfacet
  facet normal 0.000000e+00 0.000000e+00 1.000000e+00
    outer loop
      vertex   5.625000e+00 1.082532e+00 2.000000e+00
      vertex   5.167468e+00 6.250000e-01 2.000000e+00
      vertex   6.250000e+00 0.000000e+00 2.000000e+00
    endloop
  endfacet
  facet normal 0.000000e+00 0.000000e+00 1.000000e+00
    outer loop
      vertex   5.167468e+00 6.250000e-01 2.000000e+00
      vertex   5.000000e+00 1.040834e-15 2.000000e+00
      vertex   6.250000e+00 0.000000e+00 2.000000e+00
    endloop
  endfacet
  facet normal 0.000000e+00 0.000000e+00 1.000000e+00
    outer loop
      vertex   5.000000e+00 1.040834e-15 2.000000e+00
      vertex   5.167468e+00 -6.250000e-01 2.000000e+00
      vertex   6.250000e+00 0.000000e+00 2.000000e+00
    endloop
  endfacet
  facet normal -0.000000e+00 0.000000e+00 1.000000e+00
    outer loop
      vertex   5.167468e+00 -6.250000e-01 2.000000e+00
      vertex   5.625000e+00 -1.082532e+00 2.000000e+00
      vertex   6.250000e+00 0.000000e+00 2.000000e+00
    endloop
  endfacet
  facet normal -0.000000e+00 0.000000e+00 1.000000e+00
    outer loop
      vertex   5.625000e+00 -1.082532e+00 2.000000e+00
      vertex   6.250000e+00 -1.250000e+00 2.000000e+00
      vertex   6.250000e+00 0.000000e+00 2.000000e+00
    endloop
  endfacet
  facet normal 0.000000e+00 0.000000e+00 1.000000e+00
    outer loop
      vertex   6.250000e+00 -1.250000e+00 2.000000e+00
      vertex   6.875000e+00 -1.082532e+00 2.000000e+00
      vertex   6.250000e+00 0.000000e+00 2.000000e+00
    endloop
  endfacet
  facet normal -2.588190e-01 9.659258e-01 -7.098454e-18
    outer loop
      vertex   -5.625000e+00 -1.082532e+00 2.000000e+00
      vertex   -6.250000e+00 -1.250000e+00 2.000000e+00
      vertex   -6.250000e+00 -1.250000e+00 5.000000e+00
    endloop
  endfacet
  facet normal -7.071068e-01 7.071068e-01 -1.419691e-17
    outer loop
      vertex   -5.167468e+00 -6.250000e-01 2.000000e+00
      vertex   -5.625000e+00 -1.082532e+00 2.000000e+00
      vertex   -5.625000e+00 -1.082532e+00 5.000000e+00
    endloop
  endfacet
  facet normal -9.659258e-01 2.588190e-01 0.000000e+00
    outer loop
      vertex   -5.000000e+00 1.339844e-15 2.000000e+00
      vertex   -5.167468e+00 -6.250000e-01 2.000000e+00
      vertex   -5.167468e+00 -6.250000e-01 5.000000e+00
    endloop
  endfacet
  facet normal -9.659258e-01 -2.588190e-01 0.000000e+00
    outer loop
      vertex   -5.167468e+00 6.250000e-01 2.000000e+00
      vertex   -5.000000e+00 1.339844e-15 2.000000e+00
      vertex   -5.000000e+00 1.339844e-15 5.000000e+00
    endloop
  endfacet
  facet normal -7.071068e-01 -7.071068e-01 0.000000e+00
    outer loop
      vertex   -5.625000e+00 1.082532e+00 2.000000e+00
      vertex   -5.167468e+00 6.250000e-01 2.000000e+00
      vertex   -5.167468e+00 6.250000e-01 5.000000e+00
    endloop
  endfacet
  facet normal -2.588190e-01 -9.659258e-01 0.000000e+00
    outer loop
      vertex   -6.250000e+00 1.250000e+00 2.000000e+00
      vertex   -5.625000e+00 1.082532e+00 2.000000e+00
      vertex   -5.625000e+00 1.082532e+00 5.000000e+00
    endloop
  endfacet
  facet normal 2.588190e-01 -9.659258e-01 0.000000e+00
    outer loop
      vertex   -6.875000e+00 1.082532e+00 2.000000e+00
      vertex   -6.250000e+00 1.250000e+00 2.000000e+00
      vertex   -6.250000e+00 1.250000e+00 5.000000e+00
    endloop
  endfacet
  facet normal 7.071068e-01 -7.071068e-01 0.000000e+00
    outer loop
      vertex   -7.332532e+00 6.250000e-01 2.000000e+00
      vertex   -6.875000e+00 1.082532e+00 2.000000e+00
      vertex   -6.875000e+00 1.082532e+00 5.000000e+00
    endloop
  endfacet
  facet normal 9.659258e-01 -2.588190e-01 0.000000e+00
    outer loop
      vertex   -7.500000e+00 -3.540962e-16 2.000000e+00
      vertex   -7.332532e+00 6.250000e-01 2.000000e+00
      vertex   -7.332532e+00 6.250000e-01 5.000000e+00
    endloop
  endfacet
  facet normal 9.659258e-01 2.588190e-01 0.000000e+00
    outer loop
      vertex   -7.332532e+00 -6.250000e-01 2.000000e+00
      vertex   -7.500000e+00 -3.540962e-16 2.000000e+00
      vertex   -7.500000e+00 -3.540962e-16 5.000000e+00
    endloop
  endfacet
  facet normal 7.071068e-01 7.071068e-01 0.000000e+00
    outer loop
      vertex   -6.875000e+00 -1.082532e+00 2.000000e+00
      vertex   -7.332532e+00 -6.250000e-01 2.000000e+00
      vertex   -7.332532e+00 -6.250000e-01 5.000000e+00
    endloop
  endfacet
  facet normal 2.588190e-01 9.659258e-01 0.000000e+00
    outer loop
      vertex   -6.250000e+00 -1.250000e+00 2.000000e+00
      vertex   -6.875000e+00 -1.082532e+00 2.000000e+00
      vertex   -6.875000e+00 -1.082532e+00 5.000000e+00
    endloop
  endfacet
  facet normal 2.588190e-01 9.659258e-01 0.000000e+00
    outer loop
      vertex   -6.875000e+00 -1.082532e+00 5.000000e+00
      vertex   -6.250000e+00 -1.250000e+00 5.000000e+00
      vertex   -6.250000e+00 -1.250000e+00 2.000000e+00
    endloop
  endfacet
  facet normal 7.071068e-01 7.071068e-01 0.000000e+00
    outer loop
      vertex   -7.332532e+00 -6.250000e-01 5.000000e+00
      vertex   -6.875000e+00 -1.082532e+00 5.000000e+00
      vertex   -6.875000e+00 -1.082532e+00 2.000000e+00
    endloop
  endfacet
  facet normal 9.659258e-01 2.588190e-01 0.000000e+00
    outer loop
      vertex   -7.500000e+00 -3.540962e-16 5.000000e+00
      vertex   -7.332532e+00 -6.250000e-01 5.000000e+00
      vertex   -7.332532e+00 -6.250000e-01 2.000000e+00
    endloop
  endfacet
  facet normal 9.659258e-01 -2.588190e-01 0.000000e+00
    outer loop
      vertex   -7.332532e+00 6.250000e-01 5.000000e+00
      vertex   -7.500000e+00 -3.540962e-16 5.000000e+00
      vertex   -7.500000e+00 -3.540962e-16 2.000000e+00
    endloop
  endfacet
  facet normal 7.071068e-01 -7.071068e-01 0.000000e+00
    outer loop
      vertex   -6.875000e+00 1.082532e+00 5.000000e+00
      vertex   -7.332532e+00 6.250000e-01 5.000000e+00
      vertex   -7.332532e+00 6.250000e-01 2.000000e+00
    endloop
  endfacet
  facet normal 2.588190e-01 -9.659258e-01 0.000000e+00
    outer loop
      vertex   -6.250000e+00 1.250000e+00 5.000000e+00
      vertex   -6.875000e+00 1.082532e+00 5.000000e+00
      vertex   -6.875000e+00 1.082532e+00 2.000000e+00
    endloop
  endfacet
  facet normal -2.588190e-01 -9.659258e-01 0.000000e+00
    outer loop
      vertex   -5.625000e+00 1.082532e+00 5.000000e+00
      vertex   -6.250000e+00 1.250000e+00 5.000000e+00
      vertex   -6.250000e+00 1.250000e+00 2.000000e+00
    endloop
  endfacet
  facet normal -7.071068e-01 -7.071068e-01 0.000000e+00
    outer loop
      vertex   -5.167468e+00 6.250000e-01 5.000000e+00
      vertex   -5.625000e+00 1.082532e+00 5.000000e+00
      vertex   -5.625000e+00 1.082532e+00 2.000000e+00
    endloop
  endfacet
  facet normal -9.659258e-01 -2.588190e-01 0.000000e+00
    outer loop
      vertex   -5.000000e+00 1.339844e-15 5.000000e+00
      vertex   -5.167468e+00 6.250000e-01 5.000000e+00
      vertex   -5.167468e+00 6.250000e-01 2.000000e+00
    endloop
  endfacet
  facet normal -9.659258e-01 2.588190e-01 0.000000e+00
    outer loop
      vertex   -5.167468e+00 -6.250000e-01 5.000000e+00
      vertex   -5.000000e+00 1.339844e-15 5.000000e+00
      vertex   -5.000000e+00 1.339844e-15 2.000000e+00
    endloop
  endfacet
  facet normal -7.071068e-01 7.071068e-01 -1.419691e-17
    outer loop
      vertex   -5.625000e+00 -1.082532e+00 5.000000e+00
      vertex   -5.167468e+00 -6.250000e-01 5.000000e+00
      vertex   -5.167468e+00 -6.250000e-01 2.000000e+00
    endloop
  endfacet
  facet normal -2.588190e-01 9.659258e-01 -7.098454e-18
    outer loop
      vertex   -6.250000e+00 -1.250000e+00 5.000000e+00
      vertex   -5.625000e+00 -1.082532e+00 5.000000e+00
      vertex   -5.625000e+00 -1.082532e+00 2.000000e+00
    endloop
  endfacet
  facet normal 0.000000e+00 0.000000e+00 1.000000e+00
    outer loop
      vertex   1.250000e+01 7.500000e+00 5.000000e+00
      vertex   -5.625000e+00 1.082532e+00 5.000000e+00
      vertex   5.625000e+00 1.082532e+00 5.000000e+00
    endloop
  endfacet
  facet normal 0.000000e+00 0.000000e+00 1.000000e+00
    outer loop
      vertex   5.625000e+00 1.082532e+00 5.000000e+00
      vertex   6.250000e+00 1.250000e+00 5.000000e+00
      vertex   1.250000e+01 7.500000e+00 5.000000e+00
    endloop
  endfacet
  facet normal 0.000000e+00 0.000000e+00 1.000000e+00
    outer loop
      vertex   5.167468e+00 6.250000e-01 5.000000e+00
      vertex   -5.167468e+00 6.250000e-01 5.000000e+00
      vertex   -5.000000e+00 0.000000e+00 5.000000e+00
    endloop
  endfacet
  facet normal 0.000000e+00 0.000000e+00 1.000000e+00
    outer loop
      vertex   1.250000e+01 7.500000e+00 5.000000e+00
      vertex   -1.250000e+01 7.500000e+00 5.000000e+00
      vertex   -6.250000e+00 1.250000e+00 5.000000e+00
    endloop
  endfacet
  facet normal -0.000000e+00 0.000000e+00 1.000000e+00
    outer loop
      vertex   -5.625000e+00 1.082532e+00 5.000000e+00
      vertex   5.167468e+00 6.250000e-01 5.000000e+00
      vertex   5.625000e+00 1.082532e+00 5.000000e+00
    endloop
  endfacet
  facet normal 0.000000e+00 0.000000e+00 1.000000e+00
    outer loop
      vertex   5.167468e+00 6.250000e-01 5.000000e+00
      vertex   -5.625000e+00 1.082532e+00 5.000000e+00
      vertex   -5.167468e+00 6.250000e-01 5.000000e+00
    endloop
  endfacet
  facet normal 0.000000e+00 0.000000e+00 1.000000e+00
    outer loop
      vertex   -1.250000e+01 7.500000e+00 5.000000e+00
      vertex   -6.875000e+00 1.082532e+00 5.000000e+00
      vertex   -6.250000e+00 1.250000e+00 5.000000e+00
    endloop
  endfacet
  facet normal 0.000000e+00 0.000000e+00 1.000000e+00
    outer loop
      vertex   -1.250000e+01 -7.500000e+00 5.000000e+00
      vertex   -7.332532e+00 -6.250000e-01 5.000000e+00
      vertex   -7.500000e+00 6.938894e-16 5.000000e+00
    endloop
  endfacet
  facet normal 0.000000e+00 0.000000e+00 1.000000e+00
    outer loop
      vertex   1.250000e+01 -7.500000e+00 5.000000e+00
      vertex   6.250000e+00 -1.250000e+00 5.000000e+00
      vertex   5.625000e+00 -1.082532e+00 5.000000e+00
    endloop
  endfacet
  facet normal 0.000000e+00 0.000000e+00 1.000000e+00
    outer loop
      vertex   1.250000e+01 7.500000e+00 5.000000e+00
      vertex   6.875000e+00 1.082532e+00 5.000000e+00
      vertex   7.332532e+00 6.250000e-01 5.000000e+00
    endloop
  endfacet
  facet normal 0.000000e+00 0.000000e+00 1.000000e+00
    outer loop
      vertex   -5.000000e+00 0.000000e+00 5.000000e+00
      vertex   5.000000e+00 6.938894e-16 5.000000e+00
      vertex   5.167468e+00 6.250000e-01 5.000000e+00
    endloop
  endfacet
  facet normal 0.000000e+00 0.000000e+00 1.000000e+00
    outer loop
      vertex   -1.250000e+01 7.500000e+00 5.000000e+00
      vertex   -7.332532e+00 6.250000e-01 5.000000e+00
      vertex   -6.875000e+00 1.082532e+00 5.000000e+00
    endloop
  endfacet
  facet normal 0.000000e+00 0.000000e+00 1.000000e+00
    outer loop
      vertex   -7.500000e+00 6.938894e-16 5.000000e+00
      vertex   -1.250000e+01 7.500000e+00 5.000000e+00
      vertex   -1.250000e+01 -7.500000e+00 5.000000e+00
    endloop
  endfacet
  facet normal 0.000000e+00 0.000000e+00 1.000000e+00
    outer loop
      vertex   1.250000e+01 -7.500000e+00 5.000000e+00
      vertex   -5.625000e+00 -1.082532e+00 5.000000e+00
      vertex   -6.250000e+00 -1.250000e+00 5.000000e+00
    endloop
  endfacet
  facet normal 0.000000e+00 0.000000e+00 1.000000e+00
    outer loop
      vertex   5.625000e+00 -1.082532e+00 5.000000e+00
      vertex   -5.167468e+00 -6.250000e-01 5.000000e+00
      vertex   1.250000e+01 -7.500000e+00 5.000000e+00
    endloop
  endfacet
  facet normal 0.000000e+00 0.000000e+00 1.000000e+00
    outer loop
      vertex   1.250000e+01 -7.500000e+00 5.000000e+00
      vertex   7.332532e+00 -6.250000e-01 5.000000e+00
      vertex   6.875000e+00 -1.082532e+00 5.000000e+00
    endloop
  endfacet
  facet normal -0.000000e+00 0.000000e+00 1.000000e+00
    outer loop
      vertex   6.250000e+00 1.250000e+00 5.000000e+00
      vertex   6.875000e+00 1.082532e+00 5.000000e+00
      vertex   1.250000e+01 7.500000e+00 5.000000e+00
    endloop
  endfacet
  facet normal 0.000000e+00 -0.000000e+00 1.000000e+00
    outer loop
      vertex   -7.500000e+00 6.938894e-16 5.000000e+00
      vertex   -7.332532e+00 6.250000e-01 5.000000e+00
      vertex   -1.250000e+01 7.500000e+00 5.000000e+00
    endloop
  endfacet
  facet normal 0.000000e+00 0.000000e+00 1.000000e+00
    outer loop
      vertex   -1.250000e+01 -7.500000e+00 5.000000e+00
      vertex   -6.250000e+00 -1.250000e+00 5.000000e+00
      vertex   -6.875000e+00 -1.082532e+00 5.000000e+00
    endloop
  endfacet
  facet normal 0.000000e+00 0.000000e+00 1.000000e+00
    outer loop
      vertex   1.250000e+01 -7.500000e+00 5.000000e+00
      vertex   -5.167468e+00 -6.250000e-01 5.000000e+00
      vertex   -5.625000e+00 -1.082532e+00 5.000000e+00
    endloop
  endfacet
  facet normal 0.000000e+00 0.000000e+00 1.000000e+00
    outer loop
      vertex   5.167468e+00 -6.250000e-01 5.000000e+00
      vertex   5.000000e+00 6.938894e-16 5.000000e+00
      vertex   -5.000000e+00 0.000000e+00 5.000000e+00
    endloop
  endfacet
  facet normal 0.000000e+00 0.000000e+00 1.000000e+00
    outer loop
      vertex   6.875000e+00 -1.082532e+00 5.000000e+00
      vertex   6.250000e+00 -1.250000e+00 5.000000e+00
      vertex   1.250000e+01 -7.500000e+00 5.000000e+00
    endloop
  endfacet
  facet normal -0.000000e+00 0.000000e+00 1.000000e+00
    outer loop
      vertex   -6.250000e+00 1.250000e+00 5.000000e+00
      vertex   -5.625000e+00 1.082532e+00 5.000000e+00
      vertex   1.250000e+01 7.500000e+00 5.000000e+00
    endloop
  endfacet
  facet normal 0.000000e+00 0.000000e+00 1.000000e+00
    outer loop
      vertex   -6.250000e+00 -1.250000e+00 5.000000e+00
      vertex   -1.250000e+01 -7.500000e+00 5.000000e+00
      vertex   1.250000e+01 -7.500000e+00 5.000000e+00
    endloop
  endfacet
  facet normal 0.000000e+00 0.000000e+00 1.000000e+00
    outer loop
      vertex   5.625000e+00 -1.082532e+00 5.000000e+00
      vertex   5.167468e+00 -6.250000e-01 5.000000e+00
      vertex   -5.167468e+00 -6.250000e-01 5.000000e+00
    endloop
  endfacet
  facet normal 0.000000e+00 -0.000000e+00 1.000000e+00
    outer loop
      vertex   1.250000e+01 -7.500000e+00 5.000000e+00
      vertex   1.250000e+01 7.500000e+00 5.000000e+00
      vertex   7.500000e+00 0.000000e+00 5.000000e+00
    endloop
  endfacet
  facet normal 0.000000e+00 0.000000e+00 1.000000e+00
    outer loop
      vertex   -6.875000e+00 -1.082532e+00 5.000000e+00
      vertex   -7.332532e+00 -6.250000e-01 5.000000e+00
      vertex   -1.250000e+01 -7.500000e+00 5.000000e+00
    endloop
  endfacet
  facet normal 0.000000e+00 0.000000e+00 1.000000e+00
    outer loop
      vertex   7.500000e+00 0.000000e+00 5.000000e+00
      vertex   7.332532e+00 -6.250000e-01 5.000000e+00
      vertex   1.250000e+01 -7.500000e+00 5.000000e+00
    endloop
  endfacet
  facet normal 0.000000e+00 0.000000e+00 1.000000e+00
    outer loop
      vertex   -5.000000e+00 0.000000e+00 5.000000e+00
      vertex   -5.167468e+00 -6.250000e-01 5.000000e+00
      vertex   5.167468e+00 -6.250000e-01 5.000000e+00
    endloop
  endfacet
  facet normal -0.000000e+00 0.000000e+00 1.000000e+00
    outer loop
      vertex   7.332532e+00 6.250000e-01 5.000000e+00
      vertex   7.500000e+00 0.000000e+00 5.000000e+00
      vertex   1.250000e+01 7.500000e+00 5.000000e+00
    endloop
  endfacet
endsolid
