solid ascii
  facet normal 2.393157e-01 9.709418e-01 -3.482096e-18
    outer loop
      vertex   -7.580904e+00 -8.106820e+00 7.000000e+00
      vertex   -7.000000e+00 -8.250000e+00 7.000000e+00
      vertex   -7.000000e+00 -8.250000e+00 0.000000e+00
    endloop
  endfacet
  facet normal 2.393157e-01 9.709418e-01 -3.482096e-18
    outer loop
      vertex   -7.000000e+00 -8.250000e+00 0.000000e+00
      vertex   -7.580904e+00 -8.106820e+00 0.000000e+00
      vertex   -7.580904e+00 -8.106820e+00 7.000000e+00
    endloop
  endfacet
  facet normal 6.631227e-01 7.485107e-01 6.964192e-18
    outer loop
      vertex   -8.028730e+00 -7.710081e+00 7.000000e+00
      vertex   -7.580904e+00 -8.106820e+00 7.000000e+00
      vertex   -7.580904e+00 -8.106820e+00 0.000000e+00
    endloop
  endfacet
  facet normal 6.631227e-01 7.485107e-01 6.964192e-18
    outer loop
      vertex   -7.580904e+00 -8.106820e+00 0.000000e+00
      vertex   -8.028730e+00 -7.710081e+00 0.000000e+00
      vertex   -8.028730e+00 -7.710081e+00 7.000000e+00
    endloop
  endfacet
  facet normal 9.350162e-01 3.546049e-01 6.964192e-18
    outer loop
      vertex   -8.240886e+00 -7.150671e+00 7.000000e+00
      vertex   -8.028730e+00 -7.710081e+00 7.000000e+00
      vertex   -8.028730e+00 -7.710081e+00 0.000000e+00
    endloop
  endfacet
  facet normal 9.350162e-01 3.546049e-01 6.964192e-18
    outer loop
      vertex   -8.028730e+00 -7.710081e+00 0.000000e+00
      vertex   -8.240886e+00 -7.150671e+00 0.000000e+00
      vertex   -8.240886e+00 -7.150671e+00 7.000000e+00
    endloop
  endfacet
  facet normal 9.981756e-01 6.037850e-02 0.000000e+00
    outer loop
      vertex   -8.250000e+00 -7.000000e+00 7.000000e+00
      vertex   -8.240886e+00 -7.150671e+00 7.000000e+00
      vertex   -8.240886e+00 -7.150671e+00 0.000000e+00
    endloop
  endfacet
  facet normal 9.981756e-01 6.037850e-02 0.000000e+00
    outer loop
      vertex   -8.240886e+00 -7.150671e+00 0.000000e+00
      vertex   -8.250000e+00 -7.000000e+00 0.000000e+00
      vertex   -8.250000e+00 -7.000000e+00 7.000000e+00
    endloop
  endfacet
  facet normal 9.836199e-01 -1.802550e-01 1.738314e-18
    outer loop
      vertex   -8.168770e+00 -6.556744e+00 7.000000e+00
      vertex   -8.250000e+00 -7.000000e+00 7.000000e+00
      vertex   -8.250000e+00 -7.000000e+00 0.000000e+00
    endloop
  endfacet
  facet normal 9.836199e-01 -1.802550e-01 1.738314e-18
    outer loop
      vertex   -8.250000e+00 -7.000000e+00 0.000000e+00
      vertex   -8.168770e+00 -6.556744e+00 0.000000e+00
      vertex   -8.168770e+00 -6.556744e+00 7.000000e+00
    endloop
  endfacet
  facet normal 8.229839e-01 -5.680647e-01 6.964192e-18
    outer loop
      vertex   -7.828903e+00 -6.064362e+00 7.000000e+00
      vertex   -8.168770e+00 -6.556744e+00 7.000000e+00
      vertex   -8.168770e+00 -6.556744e+00 0.000000e+00
    endloop
  endfacet
  facet normal 8.229839e-01 -5.680647e-01 6.964192e-18
    outer loop
      vertex   -8.168770e+00 -6.556744e+00 0.000000e+00
      vertex   -7.828903e+00 -6.064362e+00 0.000000e+00
      vertex   -7.828903e+00 -6.064362e+00 7.000000e+00
    endloop
  endfacet
  facet normal 4.647232e-01 -8.854560e-01 -6.964192e-18
    outer loop
      vertex   -7.299145e+00 -5.786323e+00 7.000000e+00
      vertex   -7.828903e+00 -6.064362e+00 7.000000e+00
      vertex   -7.828903e+00 -6.064362e+00 0.000000e+00
    endloop
  endfacet
  facet normal 4.647232e-01 -8.854560e-01 -6.964192e-18
    outer loop
      vertex   -7.828903e+00 -6.064362e+00 0.000000e+00
      vertex   -7.299145e+00 -5.786323e+00 0.000000e+00
      vertex   -7.299145e+00 -5.786323e+00 7.000000e+00
    endloop
  endfacet
  facet normal -0.000000e+00 -1.000000e+00 0.000000e+00
    outer loop
      vertex   -6.700855e+00 -5.786323e+00 7.000000e+00
      vertex   -7.299145e+00 -5.786323e+00 7.000000e+00
      vertex   -7.299145e+00 -5.786323e+00 0.000000e+00
    endloop
  endfacet
  facet normal 0.000000e+00 -1.000000e+00 0.000000e+00
    outer loop
      vertex   -7.299145e+00 -5.786323e+00 0.000000e+00
      vertex   -6.700855e+00 -5.786323e+00 0.000000e+00
      vertex   -6.700855e+00 -5.786323e+00 7.000000e+00
    endloop
  endfacet
  facet normal -4.647232e-01 -8.854560e-01 0.000000e+00
    outer loop
      vertex   -6.171097e+00 -6.064362e+00 7.000000e+00
      vertex   -6.700855e+00 -5.786323e+00 7.000000e+00
      vertex   -6.700855e+00 -5.786323e+00 0.000000e+00
    endloop
  endfacet
  facet normal -4.647232e-01 -8.854560e-01 0.000000e+00
    outer loop
      vertex   -6.700855e+00 -5.786323e+00 0.000000e+00
      vertex   -6.171097e+00 -6.064362e+00 0.000000e+00
      vertex   -6.171097e+00 -6.064362e+00 7.000000e+00
    endloop
  endfacet
  facet normal -8.229839e-01 -5.680647e-01 6.964192e-18
    outer loop
      vertex   -5.831230e+00 -6.556744e+00 7.000000e+00
      vertex   -6.171097e+00 -6.064362e+00 7.000000e+00
      vertex   -6.171097e+00 -6.064362e+00 0.000000e+00
    endloop
  endfacet
  facet normal -8.229839e-01 -5.680647e-01 6.964192e-18
    outer loop
      vertex   -6.171097e+00 -6.064362e+00 0.000000e+00
      vertex   -5.831230e+00 -6.556744e+00 0.000000e+00
      vertex   -5.831230e+00 -6.556744e+00 7.000000e+00
    endloop
  endfacet
  facet normal -9.927089e-01 -1.205367e-01 0.000000e+00
    outer loop
      vertex   -5.759114e+00 -7.150671e+00 7.000000e+00
      vertex   -5.831230e+00 -6.556744e+00 7.000000e+00
      vertex   -5.831230e+00 -6.556744e+00 0.000000e+00
    endloop
  endfacet
  facet normal -9.927089e-01 -1.205367e-01 0.000000e+00
    outer loop
      vertex   -5.831230e+00 -6.556744e+00 0.000000e+00
      vertex   -5.759114e+00 -7.150671e+00 0.000000e+00
      vertex   -5.759114e+00 -7.150671e+00 7.000000e+00
    endloop
  endfacet
  facet normal -9.350162e-01 3.546049e-01 0.000000e+00
    outer loop
      vertex   -5.971270e+00 -7.710081e+00 7.000000e+00
      vertex   -5.759114e+00 -7.150671e+00 7.000000e+00
      vertex   -5.759114e+00 -7.150671e+00 0.000000e+00
    endloop
  endfacet
  facet normal -9.350162e-01 3.546049e-01 0.000000e+00
    outer loop
      vertex   -5.759114e+00 -7.150671e+00 0.000000e+00
      vertex   -5.971270e+00 -7.710081e+00 0.000000e+00
      vertex   -5.971270e+00 -7.710081e+00 7.000000e+00
    endloop
  endfacet
  facet normal -6.631227e-01 7.485107e-01 6.964192e-18
    outer loop
      vertex   -6.419096e+00 -8.106820e+00 7.000000e+00
      vertex   -5.971270e+00 -7.710081e+00 7.000000e+00
      vertex   -5.971270e+00 -7.710081e+00 0.000000e+00
    endloop
  endfacet
  facet normal -6.631227e-01 7.485107e-01 6.964192e-18
    outer loop
      vertex   -5.971270e+00 -7.710081e+00 0.000000e+00
      vertex   -6.419096e+00 -8.106820e+00 0.000000e+00
      vertex   -6.419096e+00 -8.106820e+00 7.000000e+00
    endloop
  endfacet
  facet normal -2.393157e-01 9.709418e-01 3.482096e-18
    outer loop
      vertex   -7.000000e+00 -8.250000e+00 7.000000e+00
      vertex   -6.419096e+00 -8.106820e+00 7.000000e+00
      vertex   -6.419096e+00 -8.106820e+00 0.000000e+00
    endloop
  endfacet
  facet normal -2.393157e-01 9.709418e-01 3.482096e-18
    outer loop
      vertex   -6.419096e+00 -8.106820e+00 0.000000e+00
      vertex   -7.000000e+00 -8.250000e+00 0.000000e+00
      vertex   -7.000000e+00 -8.250000e+00 7.000000e+00
    endloop
  endfacet
  facet normal 0.000000e+00 0.000000e+00 1.000000e+00
    outer loop
      vertex   9.000000e+00 -9.000000e+00 7.000000e+00
      vertex   8.240886e+00 -7.150671e+00 7.000000e+00
      vertex   8.028730e+00 -7.710081e+00 7.000000e+00
    endloop
  endfacet
  facet normal 0.000000e+00 0.000000e+00 1.000000e+00
    outer loop
      vertex   9.000000e+00 -9.000000e+00 7.000000e+00
      vertex   8.028730e+00 -7.710081e+00 7.000000e+00
      vertex   7.580904e+00 -8.106820e+00 7.000000e+00
    endloop
  endfacet
  facet normal 0.000000e+00 0.000000e+00 1.000000e+00
    outer loop
      vertex   7.580904e+00 -8.106820e+00 7.000000e+00
      vertex   7.000000e+00 -8.250000e+00 7.000000e+00
      vertex   9.000000e+00 -9.000000e+00 7.000000e+00
    endloop
  endfacet
  facet normal 0.000000e+00 0.000000e+00 1.000000e+00
    outer loop
      vertex   0.000000e+00 -9.000000e+00 7.000000e+00
      vertex   9.000000e+00 -9.000000e+00 7.000000e+00
      vertex   7.000000e+00 -8.250000e+00 7.000000e+00
    endloop
  endfacet
  facet normal 0.000000e+00 0.000000e+00 1.000000e+00
    outer loop
      vertex   9.000000e+00 0.000000e+00 7.000000e+00
      vertex   5.750000e+00 6.163284e-15 7.000000e+00
      vertex   5.554074e+00 -1.488210e+00 7.000000e+00
    endloop
  endfacet
  facet normal 0.000000e+00 0.000000e+00 1.000000e+00
    outer loop
      vertex   8.168770e+00 -6.556744e+00 7.000000e+00
      vertex   8.240886e+00 -7.150671e+00 7.000000e+00
      vertex   9.000000e+00 -9.000000e+00 7.000000e+00
    endloop
  endfacet
  facet normal 0.000000e+00 -0.000000e+00 1.000000e+00
    outer loop
      vertex   9.000000e+00 -9.000000e+00 7.000000e+00
      vertex   9.000000e+00 0.000000e+00 7.000000e+00
      vertex   8.168770e+00 -6.556744e+00 7.000000e+00
    endloop
  endfacet
  facet normal 0.000000e+00 0.000000e+00 1.000000e+00
    outer loop
      vertex   9.000000e+00 0.000000e+00 7.000000e+00
      vertex   7.828903e+00 -6.064362e+00 7.000000e+00
      vertex   8.168770e+00 -6.556744e+00 7.000000e+00
    endloop
  endfacet
  facet normal 0.000000e+00 0.000000e+00 1.000000e+00
    outer loop
      vertex   7.000000e+00 -8.250000e+00 7.000000e+00
      vertex   6.419096e+00 -8.106820e+00 7.000000e+00
      vertex   0.000000e+00 -9.000000e+00 7.000000e+00
    endloop
  endfacet
  facet normal 0.000000e+00 0.000000e+00 1.000000e+00
    outer loop
      vertex   0.000000e+00 -9.000000e+00 7.000000e+00
      vertex   6.419096e+00 -8.106820e+00 7.000000e+00
      vertex   5.971270e+00 -7.710081e+00 7.000000e+00
    endloop
  endfacet
  facet normal 0.000000e+00 0.000000e+00 1.000000e+00
    outer loop
      vertex   0.000000e+00 -9.000000e+00 7.000000e+00
      vertex   5.971270e+00 -7.710081e+00 7.000000e+00
      vertex   5.759114e+00 -7.150671e+00 7.000000e+00
    endloop
  endfacet
  facet normal -0.000000e+00 0.000000e+00 1.000000e+00
    outer loop
      vertex   7.299145e+00 -5.786323e+00 7.000000e+00
      vertex   7.828903e+00 -6.064362e+00 7.000000e+00
      vertex   9.000000e+00 0.000000e+00 7.000000e+00
    endloop
  endfacet
  facet normal 0.000000e+00 -0.000000e+00 1.000000e+00
    outer loop
      vertex   7.299145e+00 -5.786323e+00 7.000000e+00
      vertex   9.000000e+00 0.000000e+00 7.000000e+00
      vertex   5.554074e+00 -1.488210e+00 7.000000e+00
    endloop
  endfacet
  facet normal 0.000000e+00 0.000000e+00 1.000000e+00
    outer loop
      vertex   5.554074e+00 -1.488210e+00 7.000000e+00
      vertex   6.700855e+00 -5.786323e+00 7.000000e+00
      vertex   7.299145e+00 -5.786323e+00 7.000000e+00
    endloop
  endfacet
  facet normal 0.000000e+00 0.000000e+00 1.000000e+00
    outer loop
      vertex   6.700855e+00 -5.786323e+00 7.000000e+00
      vertex   5.554074e+00 -1.488210e+00 7.000000e+00
      vertex   4.979646e+00 -2.875000e+00 7.000000e+00
    endloop
  endfacet
  facet normal 0.000000e+00 -0.000000e+00 1.000000e+00
    outer loop
      vertex   6.171097e+00 -6.064362e+00 7.000000e+00
      vertex   6.700855e+00 -5.786323e+00 7.000000e+00
      vertex   4.979646e+00 -2.875000e+00 7.000000e+00
    endloop
  endfacet
  facet normal 0.000000e+00 0.000000e+00 1.000000e+00
    outer loop
      vertex   4.979646e+00 -2.875000e+00 7.000000e+00
      vertex   4.065864e+00 -4.065864e+00 7.000000e+00
      vertex   6.171097e+00 -6.064362e+00 7.000000e+00
    endloop
  endfacet
  facet normal 0.000000e+00 -0.000000e+00 1.000000e+00
    outer loop
      vertex   5.831230e+00 -6.556744e+00 7.000000e+00
      vertex   6.171097e+00 -6.064362e+00 7.000000e+00
      vertex   4.065864e+00 -4.065864e+00 7.000000e+00
    endloop
  endfacet
  facet normal 0.000000e+00 0.000000e+00 1.000000e+00
    outer loop
      vertex   4.065864e+00 -4.065864e+00 7.000000e+00
      vertex   2.875000e+00 -4.979646e+00 7.000000e+00
      vertex   5.831230e+00 -6.556744e+00 7.000000e+00
    endloop
  endfacet
  facet normal 0.000000e+00 -0.000000e+00 1.000000e+00
    outer loop
      vertex   5.750000e+00 -7.000000e+00 7.000000e+00
      vertex   5.831230e+00 -6.556744e+00 7.000000e+00
      vertex   2.875000e+00 -4.979646e+00 7.000000e+00
    endloop
  endfacet
  facet normal 0.000000e+00 0.000000e+00 1.000000e+00
    outer loop
      vertex   2.875000e+00 -4.979646e+00 7.000000e+00
      vertex   1.488210e+00 -5.554074e+00 7.000000e+00
      vertex   5.750000e+00 -7.000000e+00 7.000000e+00
    endloop
  endfacet
  facet normal 0.000000e+00 0.000000e+00 1.000000e+00
    outer loop
      vertex   5.759114e+00 -7.150671e+00 7.000000e+00
      vertex   5.750000e+00 -7.000000e+00 7.000000e+00
      vertex   1.488210e+00 -5.554074e+00 7.000000e+00
    endloop
  endfacet
  facet normal -0.000000e+00 0.000000e+00 1.000000e+00
    outer loop
      vertex   5.750000e+00 6.163284e-15 7.000000e+00
      vertex   9.000000e+00 0.000000e+00 7.000000e+00
      vertex   7.580904e+00 5.893180e+00 7.000000e+00
    endloop
  endfacet
  facet normal 0.000000e+00 0.000000e+00 1.000000e+00
    outer loop
      vertex   7.580904e+00 5.893180e+00 7.000000e+00
      vertex   7.000000e+00 5.750000e+00 7.000000e+00
      vertex   5.750000e+00 6.163284e-15 7.000000e+00
    endloop
  endfacet
  facet normal -0.000000e+00 0.000000e+00 1.000000e+00
    outer loop
      vertex   5.554074e+00 1.488210e+00 7.000000e+00
      vertex   5.750000e+00 6.163284e-15 7.000000e+00
      vertex   7.000000e+00 5.750000e+00 7.000000e+00
    endloop
  endfacet
  facet normal 0.000000e+00 -0.000000e+00 1.000000e+00
    outer loop
      vertex   5.831230e+00 7.443256e+00 7.000000e+00
      vertex   6.171097e+00 7.935638e+00 7.000000e+00
      vertex   0.000000e+00 9.000000e+00 7.000000e+00
    endloop
  endfacet
  facet normal 0.000000e+00 0.000000e+00 1.000000e+00
    outer loop
      vertex   0.000000e+00 9.000000e+00 7.000000e+00
      vertex   6.171097e+00 7.935638e+00 7.000000e+00
      vertex   6.700855e+00 8.213677e+00 7.000000e+00
    endloop
  endfacet
  facet normal 0.000000e+00 0.000000e+00 1.000000e+00
    outer loop
      vertex   9.000000e+00 9.000000e+00 7.000000e+00
      vertex   0.000000e+00 9.000000e+00 7.000000e+00
      vertex   6.700855e+00 8.213677e+00 7.000000e+00
    endloop
  endfacet
  facet normal 0.000000e+00 0.000000e+00 1.000000e+00
    outer loop
      vertex   6.700855e+00 8.213677e+00 7.000000e+00
      vertex   7.299145e+00 8.213677e+00 7.000000e+00
      vertex   9.000000e+00 9.000000e+00 7.000000e+00
    endloop
  endfacet
  facet normal 0.000000e+00 0.000000e+00 1.000000e+00
    outer loop
      vertex   9.000000e+00 9.000000e+00 7.000000e+00
      vertex   7.299145e+00 8.213677e+00 7.000000e+00
      vertex   7.828903e+00 7.935638e+00 7.000000e+00
    endloop
  endfacet
  facet normal -0.000000e+00 0.000000e+00 1.000000e+00
    outer loop
      vertex   7.828903e+00 7.935638e+00 7.000000e+00
      vertex   8.168770e+00 7.443256e+00 7.000000e+00
      vertex   9.000000e+00 9.000000e+00 7.000000e+00
    endloop
  endfacet
  facet normal 0.000000e+00 0.000000e+00 1.000000e+00
    outer loop
      vertex   9.000000e+00 9.000000e+00 7.000000e+00
      vertex   8.168770e+00 7.443256e+00 7.000000e+00
      vertex   8.240886e+00 6.849329e+00 7.000000e+00
    endloop
  endfacet
  facet normal -0.000000e+00 0.000000e+00 1.000000e+00
    outer loop
      vertex   8.240886e+00 6.849329e+00 7.000000e+00
      vertex   9.000000e+00 0.000000e+00 7.000000e+00
      vertex   9.000000e+00 9.000000e+00 7.000000e+00
    endloop
  endfacet
  facet normal 0.000000e+00 0.000000e+00 1.000000e+00
    outer loop
      vertex   9.000000e+00 0.000000e+00 7.000000e+00
      vertex   8.240886e+00 6.849329e+00 7.000000e+00
      vertex   8.028730e+00 6.289919e+00 7.000000e+00
    endloop
  endfacet
  facet normal 0.000000e+00 0.000000e+00 1.000000e+00
    outer loop
      vertex   9.000000e+00 0.000000e+00 7.000000e+00
      vertex   8.028730e+00 6.289919e+00 7.000000e+00
      vertex   7.580904e+00 5.893180e+00 7.000000e+00
    endloop
  endfacet
  facet normal -0.000000e+00 0.000000e+00 1.000000e+00
    outer loop
      vertex   4.979646e+00 2.875000e+00 7.000000e+00
      vertex   5.554074e+00 1.488210e+00 7.000000e+00
      vertex   7.000000e+00 5.750000e+00 7.000000e+00
    endloop
  endfacet
  facet normal 0.000000e+00 0.000000e+00 1.000000e+00
    outer loop
      vertex   7.000000e+00 5.750000e+00 7.000000e+00
      vertex   6.419096e+00 5.893180e+00 7.000000e+00
      vertex   4.979646e+00 2.875000e+00 7.000000e+00
    endloop
  endfacet
  facet normal -0.000000e+00 0.000000e+00 1.000000e+00
    outer loop
      vertex   4.065864e+00 4.065864e+00 7.000000e+00
      vertex   4.979646e+00 2.875000e+00 7.000000e+00
      vertex   6.419096e+00 5.893180e+00 7.000000e+00
    endloop
  endfacet
  facet normal 0.000000e+00 0.000000e+00 1.000000e+00
    outer loop
      vertex   6.419096e+00 5.893180e+00 7.000000e+00
      vertex   5.971270e+00 6.289919e+00 7.000000e+00
      vertex   4.065864e+00 4.065864e+00 7.000000e+00
    endloop
  endfacet
  facet normal 0.000000e+00 0.000000e+00 1.000000e+00
    outer loop
      vertex   5.971270e+00 6.289919e+00 7.000000e+00
      vertex   2.875000e+00 4.979646e+00 7.000000e+00
      vertex   4.065864e+00 4.065864e+00 7.000000e+00
    endloop
  endfacet
  facet normal -0.000000e+00 0.000000e+00 1.000000e+00
    outer loop
      vertex   1.488210e+00 5.554074e+00 7.000000e+00
      vertex   2.875000e+00 4.979646e+00 7.000000e+00
      vertex   5.971270e+00 6.289919e+00 7.000000e+00
    endloop
  endfacet
  facet normal 0.000000e+00 0.000000e+00 1.000000e+00
    outer loop
      vertex   5.971270e+00 6.289919e+00 7.000000e+00
      vertex   5.759114e+00 6.849329e+00 7.000000e+00
      vertex   1.488210e+00 5.554074e+00 7.000000e+00
    endloop
  endfacet
  facet normal 0.000000e+00 0.000000e+00 1.000000e+00
    outer loop
      vertex   5.759114e+00 6.849329e+00 7.000000e+00
      vertex   -3.257685e-15 5.750000e+00 7.000000e+00
      vertex   1.488210e+00 5.554074e+00 7.000000e+00
    endloop
  endfacet
  facet normal 0.000000e+00 0.000000e+00 1.000000e+00
    outer loop
      vertex   0.000000e+00 9.000000e+00 7.000000e+00
      vertex   -3.257685e-15 5.750000e+00 7.000000e+00
      vertex   5.759114e+00 6.849329e+00 7.000000e+00
    endloop
  endfacet
  facet normal 0.000000e+00 0.000000e+00 1.000000e+00
    outer loop
      vertex   5.759114e+00 6.849329e+00 7.000000e+00
      vertex   5.750000e+00 7.000000e+00 7.000000e+00
      vertex   0.000000e+00 9.000000e+00 7.000000e+00
    endloop
  endfacet
  facet normal 0.000000e+00 -0.000000e+00 1.000000e+00
    outer loop
      vertex   5.750000e+00 7.000000e+00 7.000000e+00
      vertex   5.831230e+00 7.443256e+00 7.000000e+00
      vertex   0.000000e+00 9.000000e+00 7.000000e+00
    endloop
  endfacet
  facet normal 0.000000e+00 -0.000000e+00 1.000000e+00
    outer loop
      vertex   -8.168770e+00 7.443256e+00 7.000000e+00
      vertex   -7.828903e+00 7.935638e+00 7.000000e+00
      vertex   -9.000000e+00 9.000000e+00 7.000000e+00
    endloop
  endfacet
  facet normal 0.000000e+00 -0.000000e+00 1.000000e+00
    outer loop
      vertex   -4.065864e+00 4.065864e+00 7.000000e+00
      vertex   -2.875000e+00 4.979646e+00 7.000000e+00
      vertex   -5.971270e+00 6.289919e+00 7.000000e+00
    endloop
  endfacet
  facet normal 0.000000e+00 0.000000e+00 1.000000e+00
    outer loop
      vertex   -9.000000e+00 9.000000e+00 7.000000e+00
      vertex   -7.828903e+00 7.935638e+00 7.000000e+00
      vertex   -7.299145e+00 8.213677e+00 7.000000e+00
    endloop
  endfacet
  facet normal 0.000000e+00 0.000000e+00 1.000000e+00
    outer loop
      vertex   -9.000000e+00 9.000000e+00 7.000000e+00
      vertex   -7.299145e+00 8.213677e+00 7.000000e+00
      vertex   -6.700855e+00 8.213677e+00 7.000000e+00
    endloop
  endfacet
  facet normal 0.000000e+00 -0.000000e+00 1.000000e+00
    outer loop
      vertex   -6.700855e+00 8.213677e+00 7.000000e+00
      vertex   0.000000e+00 9.000000e+00 7.000000e+00
      vertex   -9.000000e+00 9.000000e+00 7.000000e+00
    endloop
  endfacet
  facet normal 0.000000e+00 0.000000e+00 1.000000e+00
    outer loop
      vertex   -5.759114e+00 6.849329e+00 7.000000e+00
      vertex   -5.971270e+00 6.289919e+00 7.000000e+00
      vertex   -2.875000e+00 4.979646e+00 7.000000e+00
    endloop
  endfacet
  facet normal 0.000000e+00 0.000000e+00 1.000000e+00
    outer loop
      vertex   -7.000000e+00 5.750000e+00 7.000000e+00
      vertex   -7.580904e+00 5.893180e+00 7.000000e+00
      vertex   -9.000000e+00 0.000000e+00 7.000000e+00
    endloop
  endfacet
  facet normal 0.000000e+00 0.000000e+00 1.000000e+00
    outer loop
      vertex   0.000000e+00 9.000000e+00 7.000000e+00
      vertex   -6.700855e+00 8.213677e+00 7.000000e+00
      vertex   -6.171097e+00 7.935638e+00 7.000000e+00
    endloop
  endfacet
  facet normal -0.000000e+00 0.000000e+00 1.000000e+00
    outer loop
      vertex   -6.171097e+00 7.935638e+00 7.000000e+00
      vertex   -5.831230e+00 7.443256e+00 7.000000e+00
      vertex   0.000000e+00 9.000000e+00 7.000000e+00
    endloop
  endfacet
  facet normal 0.000000e+00 -0.000000e+00 1.000000e+00
    outer loop
      vertex   -3.257685e-15 5.750000e+00 7.000000e+00
      vertex   0.000000e+00 9.000000e+00 7.000000e+00
      vertex   -5.831230e+00 7.443256e+00 7.000000e+00
    endloop
  endfacet
  facet normal 0.000000e+00 0.000000e+00 1.000000e+00
    outer loop
      vertex   -5.831230e+00 7.443256e+00 7.000000e+00
      vertex   -5.759114e+00 6.849329e+00 7.000000e+00
      vertex   -3.257685e-15 5.750000e+00 7.000000e+00
    endloop
  endfacet
  facet normal 0.000000e+00 -0.000000e+00 1.000000e+00
    outer loop
      vertex   -1.488210e+00 5.554074e+00 7.000000e+00
      vertex   -3.257685e-15 5.750000e+00 7.000000e+00
      vertex   -5.759114e+00 6.849329e+00 7.000000e+00
    endloop
  endfacet
  facet normal 0.000000e+00 -0.000000e+00 1.000000e+00
    outer loop
      vertex   -2.875000e+00 4.979646e+00 7.000000e+00
      vertex   -1.488210e+00 5.554074e+00 7.000000e+00
      vertex   -5.759114e+00 6.849329e+00 7.000000e+00
    endloop
  endfacet
  facet normal 0.000000e+00 0.000000e+00 1.000000e+00
    outer loop
      vertex   -7.580904e+00 5.893180e+00 7.000000e+00
      vertex   -8.028730e+00 6.289919e+00 7.000000e+00
      vertex   -9.000000e+00 0.000000e+00 7.000000e+00
    endloop
  endfacet
  facet normal 0.000000e+00 0.000000e+00 1.000000e+00
    outer loop
      vertex   -9.000000e+00 0.000000e+00 7.000000e+00
      vertex   -8.028730e+00 6.289919e+00 7.000000e+00
      vertex   -8.240886e+00 6.849329e+00 7.000000e+00
    endloop
  endfacet
  facet normal 0.000000e+00 0.000000e+00 1.000000e+00
    outer loop
      vertex   -9.000000e+00 9.000000e+00 7.000000e+00
      vertex   -9.000000e+00 0.000000e+00 7.000000e+00
      vertex   -8.240886e+00 6.849329e+00 7.000000e+00
    endloop
  endfacet
  facet normal 0.000000e+00 0.000000e+00 1.000000e+00
    outer loop
      vertex   -8.240886e+00 6.849329e+00 7.000000e+00
      vertex   -8.250000e+00 7.000000e+00 7.000000e+00
      vertex   -9.000000e+00 9.000000e+00 7.000000e+00
    endloop
  endfacet
  facet normal 0.000000e+00 -0.000000e+00 1.000000e+00
    outer loop
      vertex   -8.250000e+00 7.000000e+00 7.000000e+00
      vertex   -8.168770e+00 7.443256e+00 7.000000e+00
      vertex   -9.000000e+00 9.000000e+00 7.000000e+00
    endloop
  endfacet
  facet normal 0.000000e+00 0.000000e+00 1.000000e+00
    outer loop
      vertex   -4.979646e+00 -2.875000e+00 7.000000e+00
      vertex   -5.554074e+00 -1.488210e+00 7.000000e+00
      vertex   -6.700855e+00 -5.786323e+00 7.000000e+00
    endloop
  endfacet
  facet normal 0.000000e+00 0.000000e+00 1.000000e+00
    outer loop
      vertex   -9.000000e+00 -9.000000e+00 7.000000e+00
      vertex   -7.580904e+00 -8.106820e+00 7.000000e+00
      vertex   -8.028730e+00 -7.710081e+00 7.000000e+00
    endloop
  endfacet
  facet normal 0.000000e+00 0.000000e+00 1.000000e+00
    outer loop
      vertex   -9.000000e+00 0.000000e+00 7.000000e+00
      vertex   -7.828903e+00 -6.064362e+00 7.000000e+00
      vertex   -7.299145e+00 -5.786323e+00 7.000000e+00
    endloop
  endfacet
  facet normal 0.000000e+00 0.000000e+00 1.000000e+00
    outer loop
      vertex   -7.000000e+00 -8.250000e+00 7.000000e+00
      vertex   -7.580904e+00 -8.106820e+00 7.000000e+00
      vertex   -9.000000e+00 -9.000000e+00 7.000000e+00
    endloop
  endfacet
  facet normal 0.000000e+00 0.000000e+00 1.000000e+00
    outer loop
      vertex   -7.000000e+00 -8.250000e+00 7.000000e+00
      vertex   -9.000000e+00 -9.000000e+00 7.000000e+00
      vertex   0.000000e+00 -9.000000e+00 7.000000e+00
    endloop
  endfacet
  facet normal 0.000000e+00 0.000000e+00 1.000000e+00
    outer loop
      vertex   0.000000e+00 -9.000000e+00 7.000000e+00
      vertex   -6.419096e+00 -8.106820e+00 7.000000e+00
      vertex   -7.000000e+00 -8.250000e+00 7.000000e+00
    endloop
  endfacet
  facet normal 0.000000e+00 0.000000e+00 1.000000e+00
    outer loop
      vertex   1.488210e+00 -5.554074e+00 7.000000e+00
      vertex   0.000000e+00 -9.000000e+00 7.000000e+00
      vertex   5.759114e+00 -7.150671e+00 7.000000e+00
    endloop
  endfacet
  facet normal 0.000000e+00 0.000000e+00 1.000000e+00
    outer loop
      vertex   1.488210e+00 -5.554074e+00 7.000000e+00
      vertex   0.000000e+00 -5.750000e+00 7.000000e+00
      vertex   0.000000e+00 -9.000000e+00 7.000000e+00
    endloop
  endfacet
  facet normal 0.000000e+00 -0.000000e+00 1.000000e+00
    outer loop
      vertex   0.000000e+00 -9.000000e+00 7.000000e+00
      vertex   0.000000e+00 -5.750000e+00 7.000000e+00
      vertex   -1.488210e+00 -5.554074e+00 7.000000e+00
    endloop
  endfacet
  facet normal 0.000000e+00 -0.000000e+00 1.000000e+00
    outer loop
      vertex   -4.979646e+00 2.875000e+00 7.000000e+00
      vertex   -4.065864e+00 4.065864e+00 7.000000e+00
      vertex   -5.971270e+00 6.289919e+00 7.000000e+00
    endloop
  endfacet
  facet normal 0.000000e+00 0.000000e+00 1.000000e+00
    outer loop
      vertex   -5.971270e+00 6.289919e+00 7.000000e+00
      vertex   -6.419096e+00 5.893180e+00 7.000000e+00
      vertex   -4.979646e+00 2.875000e+00 7.000000e+00
    endloop
  endfacet
  facet normal 0.000000e+00 -0.000000e+00 1.000000e+00
    outer loop
      vertex   -5.554074e+00 1.488210e+00 7.000000e+00
      vertex   -4.979646e+00 2.875000e+00 7.000000e+00
      vertex   -6.419096e+00 5.893180e+00 7.000000e+00
    endloop
  endfacet
  facet normal 0.000000e+00 0.000000e+00 1.000000e+00
    outer loop
      vertex   -6.419096e+00 5.893180e+00 7.000000e+00
      vertex   -7.000000e+00 5.750000e+00 7.000000e+00
      vertex   -5.554074e+00 1.488210e+00 7.000000e+00
    endloop
  endfacet
  facet normal 0.000000e+00 0.000000e+00 1.000000e+00
    outer loop
      vertex   -7.000000e+00 5.750000e+00 7.000000e+00
      vertex   -5.750000e+00 -1.628842e-15 7.000000e+00
      vertex   -5.554074e+00 1.488210e+00 7.000000e+00
    endloop
  endfacet
  facet normal -0.000000e+00 0.000000e+00 1.000000e+00
    outer loop
      vertex   -9.000000e+00 0.000000e+00 7.000000e+00
      vertex   -5.750000e+00 -1.628842e-15 7.000000e+00
      vertex   -7.000000e+00 5.750000e+00 7.000000e+00
    endloop
  endfacet
  facet normal 0.000000e+00 0.000000e+00 1.000000e+00
    outer loop
      vertex   -5.554074e+00 -1.488210e+00 7.000000e+00
      vertex   -5.750000e+00 -1.628842e-15 7.000000e+00
      vertex   -9.000000e+00 0.000000e+00 7.000000e+00
    endloop
  endfacet
  facet normal 0.000000e+00 0.000000e+00 1.000000e+00
    outer loop
      vertex   -5.554074e+00 -1.488210e+00 7.000000e+00
      vertex   -9.000000e+00 0.000000e+00 7.000000e+00
      vertex   -7.299145e+00 -5.786323e+00 7.000000e+00
    endloop
  endfacet
  facet normal 0.000000e+00 0.000000e+00 1.000000e+00
    outer loop
      vertex   -7.299145e+00 -5.786323e+00 7.000000e+00
      vertex   -6.700855e+00 -5.786323e+00 7.000000e+00
      vertex   -5.554074e+00 -1.488210e+00 7.000000e+00
    endloop
  endfacet
  facet normal 0.000000e+00 0.000000e+00 1.000000e+00
    outer loop
      vertex   -4.065864e+00 -4.065864e+00 7.000000e+00
      vertex   -4.979646e+00 -2.875000e+00 7.000000e+00
      vertex   -6.700855e+00 -5.786323e+00 7.000000e+00
    endloop
  endfacet
  facet normal -0.000000e+00 0.000000e+00 1.000000e+00
    outer loop
      vertex   -6.700855e+00 -5.786323e+00 7.000000e+00
      vertex   -6.171097e+00 -6.064362e+00 7.000000e+00
      vertex   -4.065864e+00 -4.065864e+00 7.000000e+00
    endloop
  endfacet
  facet normal 0.000000e+00 0.000000e+00 1.000000e+00
    outer loop
      vertex   -2.875000e+00 -4.979646e+00 7.000000e+00
      vertex   -4.065864e+00 -4.065864e+00 7.000000e+00
      vertex   -6.171097e+00 -6.064362e+00 7.000000e+00
    endloop
  endfacet
  facet normal -0.000000e+00 0.000000e+00 1.000000e+00
    outer loop
      vertex   -6.171097e+00 -6.064362e+00 7.000000e+00
      vertex   -5.831230e+00 -6.556744e+00 7.000000e+00
      vertex   -2.875000e+00 -4.979646e+00 7.000000e+00
    endloop
  endfacet
  facet normal 0.000000e+00 0.000000e+00 1.000000e+00
    outer loop
      vertex   -1.488210e+00 -5.554074e+00 7.000000e+00
      vertex   -2.875000e+00 -4.979646e+00 7.000000e+00
      vertex   -5.831230e+00 -6.556744e+00 7.000000e+00
    endloop
  endfacet
  facet normal -0.000000e+00 0.000000e+00 1.000000e+00
    outer loop
      vertex   -5.831230e+00 -6.556744e+00 7.000000e+00
      vertex   -5.759114e+00 -7.150671e+00 7.000000e+00
      vertex   -1.488210e+00 -5.554074e+00 7.000000e+00
    endloop
  endfacet
  facet normal -0.000000e+00 0.000000e+00 1.000000e+00
    outer loop
      vertex   -5.759114e+00 -7.150671e+00 7.000000e+00
      vertex   0.000000e+00 -9.000000e+00 7.000000e+00
      vertex   -1.488210e+00 -5.554074e+00 7.000000e+00
    endloop
  endfacet
  facet normal 0.000000e+00 0.000000e+00 1.000000e+00
    outer loop
      vertex   0.000000e+00 -9.000000e+00 7.000000e+00
      vertex   -5.759114e+00 -7.150671e+00 7.000000e+00
      vertex   -5.971270e+00 -7.710081e+00 7.000000e+00
    endloop
  endfacet
  facet normal 0.000000e+00 0.000000e+00 1.000000e+00
    outer loop
      vertex   -5.971270e+00 -7.710081e+00 7.000000e+00
      vertex   -6.419096e+00 -8.106820e+00 7.000000e+00
      vertex   0.000000e+00 -9.000000e+00 7.000000e+00
    endloop
  endfacet
  facet normal 0.000000e+00 0.000000e+00 1.000000e+00
    outer loop
      vertex   -9.000000e+00 -9.000000e+00 7.000000e+00
      vertex   -8.028730e+00 -7.710081e+00 7.000000e+00
      vertex   -8.240886e+00 -7.150671e+00 7.000000e+00
    endloop
  endfacet
  facet normal 0.000000e+00 0.000000e+00 1.000000e+00
    outer loop
      vertex   -9.000000e+00 -9.000000e+00 7.000000e+00
      vertex   -8.240886e+00 -7.150671e+00 7.000000e+00
      vertex   -8.250000e+00 -7.000000e+00 7.000000e+00
    endloop
  endfacet
  facet normal 0.000000e+00 0.000000e+00 1.000000e+00
    outer loop
      vertex   -9.000000e+00 0.000000e+00 7.000000e+00
      vertex   -9.000000e+00 -9.000000e+00 7.000000e+00
      vertex   -8.250000e+00 -7.000000e+00 7.000000e+00
    endloop
  endfacet
  facet normal 0.000000e+00 -0.000000e+00 1.000000e+00
    outer loop
      vertex   -8.250000e+00 -7.000000e+00 7.000000e+00
      vertex   -8.168770e+00 -6.556744e+00 7.000000e+00
      vertex   -9.000000e+00 0.000000e+00 7.000000e+00
    endloop
  endfacet
  facet normal 0.000000e+00 -0.000000e+00 1.000000e+00
    outer loop
      vertex   -8.168770e+00 -6.556744e+00 7.000000e+00
      vertex   -7.828903e+00 -6.064362e+00 7.000000e+00
      vertex   -9.000000e+00 0.000000e+00 7.000000e+00
    endloop
  endfacet
  facet normal 0.000000e+00 0.000000e+00 -1.000000e+00
    outer loop
      vertex   -9.000000e+00 9.000000e+00 0.000000e+00
      vertex   -7.828903e+00 7.935638e+00 0.000000e+00
      vertex   -8.168770e+00 7.443256e+00 0.000000e+00
    endloop
  endfacet
  facet normal -0.000000e+00 0.000000e+00 -1.000000e+00
    outer loop
      vertex   -8.168770e+00 7.443256e+00 0.000000e+00
      vertex   -8.250000e+00 7.000000e+00 0.000000e+00
      vertex   -9.000000e+00 9.000000e+00 0.000000e+00
    endloop
  endfacet
  facet normal 0.000000e+00 0.000000e+00 -1.000000e+00
    outer loop
      vertex   -9.000000e+00 9.000000e+00 0.000000e+00
      vertex   -8.250000e+00 7.000000e+00 0.000000e+00
      vertex   -8.240886e+00 6.849329e+00 0.000000e+00
    endloop
  endfacet
  facet normal -0.000000e+00 0.000000e+00 -1.000000e+00
    outer loop
      vertex   -8.240886e+00 6.849329e+00 0.000000e+00
      vertex   -9.000000e+00 0.000000e+00 0.000000e+00
      vertex   -9.000000e+00 9.000000e+00 0.000000e+00
    endloop
  endfacet
  facet normal 0.000000e+00 -0.000000e+00 -1.000000e+00
    outer loop
      vertex   -8.240886e+00 6.849329e+00 0.000000e+00
      vertex   -8.028730e+00 6.289919e+00 0.000000e+00
      vertex   -9.000000e+00 0.000000e+00 0.000000e+00
    endloop
  endfacet
  facet normal 0.000000e+00 0.000000e+00 -1.000000e+00
    outer loop
      vertex   -9.000000e+00 0.000000e+00 0.000000e+00
      vertex   -8.028730e+00 6.289919e+00 0.000000e+00
      vertex   -7.580904e+00 5.893180e+00 0.000000e+00
    endloop
  endfacet
  facet normal 0.000000e+00 0.000000e+00 -1.000000e+00
    outer loop
      vertex   -5.759114e+00 6.849329e+00 0.000000e+00
      vertex   -5.831230e+00 7.443256e+00 0.000000e+00
      vertex   0.000000e+00 9.000000e+00 0.000000e+00
    endloop
  endfacet
  facet normal 0.000000e+00 0.000000e+00 -1.000000e+00
    outer loop
      vertex   0.000000e+00 9.000000e+00 0.000000e+00
      vertex   -5.831230e+00 7.443256e+00 0.000000e+00
      vertex   -6.171097e+00 7.935638e+00 0.000000e+00
    endloop
  endfacet
  facet normal 0.000000e+00 0.000000e+00 -1.000000e+00
    outer loop
      vertex   -6.171097e+00 7.935638e+00 0.000000e+00
      vertex   -6.700855e+00 8.213677e+00 0.000000e+00
      vertex   0.000000e+00 9.000000e+00 0.000000e+00
    endloop
  endfacet
  facet normal 0.000000e+00 0.000000e+00 -1.000000e+00
    outer loop
      vertex   -9.000000e+00 9.000000e+00 0.000000e+00
      vertex   0.000000e+00 9.000000e+00 0.000000e+00
      vertex   -6.700855e+00 8.213677e+00 0.000000e+00
    endloop
  endfacet
  facet normal 0.000000e+00 0.000000e+00 -1.000000e+00
    outer loop
      vertex   -6.700855e+00 8.213677e+00 0.000000e+00
      vertex   -7.299145e+00 8.213677e+00 0.000000e+00
      vertex   -9.000000e+00 9.000000e+00 0.000000e+00
    endloop
  endfacet
  facet normal -0.000000e+00 0.000000e+00 -1.000000e+00
    outer loop
      vertex   -7.299145e+00 8.213677e+00 0.000000e+00
      vertex   -7.828903e+00 7.935638e+00 0.000000e+00
      vertex   -9.000000e+00 9.000000e+00 0.000000e+00
    endloop
  endfacet
  facet normal 0.000000e+00 0.000000e+00 -1.000000e+00
    outer loop
      vertex   -6.419096e+00 5.893180e+00 0.000000e+00
      vertex   -5.971270e+00 6.289919e+00 0.000000e+00
      vertex   -4.065864e+00 4.065864e+00 0.000000e+00
    endloop
  endfacet
  facet normal -0.000000e+00 0.000000e+00 -1.000000e+00
    outer loop
      vertex   -4.065864e+00 4.065864e+00 0.000000e+00
      vertex   -4.979646e+00 2.875000e+00 0.000000e+00
      vertex   -6.419096e+00 5.893180e+00 0.000000e+00
    endloop
  endfacet
  facet normal 0.000000e+00 0.000000e+00 -1.000000e+00
    outer loop
      vertex   -7.000000e+00 5.750000e+00 0.000000e+00
      vertex   -6.419096e+00 5.893180e+00 0.000000e+00
      vertex   -4.979646e+00 2.875000e+00 0.000000e+00
    endloop
  endfacet
  facet normal -0.000000e+00 0.000000e+00 -1.000000e+00
    outer loop
      vertex   -4.979646e+00 2.875000e+00 0.000000e+00
      vertex   -5.554074e+00 1.488210e+00 0.000000e+00
      vertex   -7.000000e+00 5.750000e+00 0.000000e+00
    endloop
  endfacet
  facet normal -0.000000e+00 0.000000e+00 -1.000000e+00
    outer loop
      vertex   -5.554074e+00 1.488210e+00 0.000000e+00
      vertex   -5.750000e+00 -1.760430e-15 0.000000e+00
      vertex   -7.000000e+00 5.750000e+00 0.000000e+00
    endloop
  endfacet
  facet normal 0.000000e+00 0.000000e+00 -1.000000e+00
    outer loop
      vertex   0.000000e+00 9.000000e+00 0.000000e+00
      vertex   -3.257685e-15 5.750000e+00 0.000000e+00
      vertex   -5.759114e+00 6.849329e+00 0.000000e+00
    endloop
  endfacet
  facet normal 0.000000e+00 0.000000e+00 -1.000000e+00
    outer loop
      vertex   -5.759114e+00 6.849329e+00 0.000000e+00
      vertex   -3.257685e-15 5.750000e+00 0.000000e+00
      vertex   -1.488210e+00 5.554074e+00 0.000000e+00
    endloop
  endfacet
  facet normal 0.000000e+00 0.000000e+00 -1.000000e+00
    outer loop
      vertex   -5.971270e+00 6.289919e+00 0.000000e+00
      vertex   -5.759114e+00 6.849329e+00 0.000000e+00
      vertex   -1.488210e+00 5.554074e+00 0.000000e+00
    endloop
  endfacet
  facet normal -0.000000e+00 0.000000e+00 -1.000000e+00
    outer loop
      vertex   -1.488210e+00 5.554074e+00 0.000000e+00
      vertex   -2.875000e+00 4.979646e+00 0.000000e+00
      vertex   -5.971270e+00 6.289919e+00 0.000000e+00
    endloop
  endfacet
  facet normal 0.000000e+00 0.000000e+00 -1.000000e+00
    outer loop
      vertex   -5.971270e+00 6.289919e+00 0.000000e+00
      vertex   -2.875000e+00 4.979646e+00 0.000000e+00
      vertex   -4.065864e+00 4.065864e+00 0.000000e+00
    endloop
  endfacet
  facet normal 0.000000e+00 0.000000e+00 -1.000000e+00
    outer loop
      vertex   4.065864e+00 4.065864e+00 0.000000e+00
      vertex   2.875000e+00 4.979646e+00 0.000000e+00
      vertex   5.971270e+00 6.289919e+00 0.000000e+00
    endloop
  endfacet
  facet normal 0.000000e+00 -0.000000e+00 -1.000000e+00
    outer loop
      vertex   5.759114e+00 6.849329e+00 0.000000e+00
      vertex   5.971270e+00 6.289919e+00 0.000000e+00
      vertex   2.875000e+00 4.979646e+00 0.000000e+00
    endloop
  endfacet
  facet normal 0.000000e+00 0.000000e+00 -1.000000e+00
    outer loop
      vertex   7.000000e+00 5.750000e+00 0.000000e+00
      vertex   7.580904e+00 5.893180e+00 0.000000e+00
      vertex   9.000000e+00 0.000000e+00 -0.000000e+00
    endloop
  endfacet
  facet normal 0.000000e+00 0.000000e+00 -1.000000e+00
    outer loop
      vertex   2.875000e+00 4.979646e+00 0.000000e+00
      vertex   1.488210e+00 5.554074e+00 0.000000e+00
      vertex   5.759114e+00 6.849329e+00 0.000000e+00
    endloop
  endfacet
  facet normal 0.000000e+00 0.000000e+00 -1.000000e+00
    outer loop
      vertex   1.488210e+00 5.554074e+00 0.000000e+00
      vertex   -3.257685e-15 5.750000e+00 0.000000e+00
      vertex   5.759114e+00 6.849329e+00 0.000000e+00
    endloop
  endfacet
  facet normal 0.000000e+00 -0.000000e+00 -1.000000e+00
    outer loop
      vertex   5.750000e+00 7.000000e+00 0.000000e+00
      vertex   5.759114e+00 6.849329e+00 0.000000e+00
      vertex   -3.257685e-15 5.750000e+00 0.000000e+00
    endloop
  endfacet
  facet normal 0.000000e+00 0.000000e+00 -1.000000e+00
    outer loop
      vertex   -3.257685e-15 5.750000e+00 0.000000e+00
      vertex   0.000000e+00 9.000000e+00 0.000000e+00
      vertex   5.750000e+00 7.000000e+00 0.000000e+00
    endloop
  endfacet
  facet normal -0.000000e+00 0.000000e+00 -1.000000e+00
    outer loop
      vertex   5.831230e+00 7.443256e+00 0.000000e+00
      vertex   5.750000e+00 7.000000e+00 0.000000e+00
      vertex   0.000000e+00 9.000000e+00 0.000000e+00
    endloop
  endfacet
  facet normal 0.000000e+00 0.000000e+00 -1.000000e+00
    outer loop
      vertex   7.828903e+00 7.935638e+00 0.000000e+00
      vertex   7.299145e+00 8.213677e+00 0.000000e+00
      vertex   9.000000e+00 9.000000e+00 0.000000e+00
    endloop
  endfacet
  facet normal 0.000000e+00 0.000000e+00 -1.000000e+00
    outer loop
      vertex   9.000000e+00 9.000000e+00 0.000000e+00
      vertex   7.299145e+00 8.213677e+00 0.000000e+00
      vertex   6.700855e+00 8.213677e+00 0.000000e+00
    endloop
  endfacet
  facet normal 0.000000e+00 0.000000e+00 -1.000000e+00
    outer loop
      vertex   6.700855e+00 8.213677e+00 0.000000e+00
      vertex   0.000000e+00 9.000000e+00 0.000000e+00
      vertex   9.000000e+00 9.000000e+00 0.000000e+00
    endloop
  endfacet
  facet normal -0.000000e+00 0.000000e+00 -1.000000e+00
    outer loop
      vertex   6.700855e+00 8.213677e+00 0.000000e+00
      vertex   6.171097e+00 7.935638e+00 0.000000e+00
      vertex   0.000000e+00 9.000000e+00 0.000000e+00
    endloop
  endfacet
  facet normal 0.000000e+00 0.000000e+00 -1.000000e+00
    outer loop
      vertex   0.000000e+00 9.000000e+00 0.000000e+00
      vertex   6.171097e+00 7.935638e+00 0.000000e+00
      vertex   5.831230e+00 7.443256e+00 0.000000e+00
    endloop
  endfacet
  facet normal 0.000000e+00 0.000000e+00 -1.000000e+00
    outer loop
      vertex   7.580904e+00 5.893180e+00 0.000000e+00
      vertex   8.028730e+00 6.289919e+00 0.000000e+00
      vertex   9.000000e+00 0.000000e+00 -0.000000e+00
    endloop
  endfacet
  facet normal 0.000000e+00 0.000000e+00 -1.000000e+00
    outer loop
      vertex   9.000000e+00 0.000000e+00 -0.000000e+00
      vertex   8.028730e+00 6.289919e+00 0.000000e+00
      vertex   8.240886e+00 6.849329e+00 0.000000e+00
    endloop
  endfacet
  facet normal -0.000000e+00 0.000000e+00 -1.000000e+00
    outer loop
      vertex   9.000000e+00 9.000000e+00 0.000000e+00
      vertex   9.000000e+00 0.000000e+00 -0.000000e+00
      vertex   8.240886e+00 6.849329e+00 0.000000e+00
    endloop
  endfacet
  facet normal 0.000000e+00 0.000000e+00 -1.000000e+00
    outer loop
      vertex   8.240886e+00 6.849329e+00 0.000000e+00
      vertex   8.168770e+00 7.443256e+00 0.000000e+00
      vertex   9.000000e+00 9.000000e+00 0.000000e+00
    endloop
  endfacet
  facet normal 0.000000e+00 0.000000e+00 -1.000000e+00
    outer loop
      vertex   9.000000e+00 9.000000e+00 0.000000e+00
      vertex   8.168770e+00 7.443256e+00 0.000000e+00
      vertex   7.828903e+00 7.935638e+00 0.000000e+00
    endloop
  endfacet
  facet normal 0.000000e+00 -0.000000e+00 -1.000000e+00
    outer loop
      vertex   5.759114e+00 -7.150671e+00 0.000000e+00
      vertex   5.971270e+00 -7.710081e+00 0.000000e+00
      vertex   -0.000000e+00 -9.000000e+00 0.000000e+00
    endloop
  endfacet
  facet normal 0.000000e+00 -0.000000e+00 -1.000000e+00
    outer loop
      vertex   5.750000e+00 -7.000000e+00 0.000000e+00
      vertex   5.759114e+00 -7.150671e+00 0.000000e+00
      vertex   -0.000000e+00 -9.000000e+00 0.000000e+00
    endloop
  endfacet
  facet normal 0.000000e+00 -0.000000e+00 -1.000000e+00
    outer loop
      vertex   5.971270e+00 -7.710081e+00 0.000000e+00
      vertex   6.419096e+00 -8.106820e+00 0.000000e+00
      vertex   -0.000000e+00 -9.000000e+00 0.000000e+00
    endloop
  endfacet
  facet normal 0.000000e+00 0.000000e+00 -1.000000e+00
    outer loop
      vertex   -0.000000e+00 -9.000000e+00 0.000000e+00
      vertex   6.419096e+00 -8.106820e+00 0.000000e+00
      vertex   7.000000e+00 -8.250000e+00 0.000000e+00
    endloop
  endfacet
  facet normal 0.000000e+00 -0.000000e+00 -1.000000e+00
    outer loop
      vertex   7.000000e+00 -8.250000e+00 0.000000e+00
      vertex   9.000000e+00 -9.000000e+00 0.000000e+00
      vertex   -0.000000e+00 -9.000000e+00 0.000000e+00
    endloop
  endfacet
  facet normal 0.000000e+00 0.000000e+00 -1.000000e+00
    outer loop
      vertex   9.000000e+00 -9.000000e+00 0.000000e+00
      vertex   7.000000e+00 -8.250000e+00 0.000000e+00
      vertex   7.580904e+00 -8.106820e+00 0.000000e+00
    endloop
  endfacet
  facet normal 0.000000e+00 0.000000e+00 -1.000000e+00
    outer loop
      vertex   7.580904e+00 -8.106820e+00 0.000000e+00
      vertex   8.028730e+00 -7.710081e+00 0.000000e+00
      vertex   9.000000e+00 -9.000000e+00 0.000000e+00
    endloop
  endfacet
  facet normal 0.000000e+00 0.000000e+00 -1.000000e+00
    outer loop
      vertex   4.979646e+00 2.875000e+00 0.000000e+00
      vertex   4.065864e+00 4.065864e+00 0.000000e+00
      vertex   5.971270e+00 6.289919e+00 0.000000e+00
    endloop
  endfacet
  facet normal 0.000000e+00 -0.000000e+00 -1.000000e+00
    outer loop
      vertex   5.971270e+00 6.289919e+00 0.000000e+00
      vertex   6.419096e+00 5.893180e+00 0.000000e+00
      vertex   4.979646e+00 2.875000e+00 0.000000e+00
    endloop
  endfacet
  facet normal 0.000000e+00 0.000000e+00 -1.000000e+00
    outer loop
      vertex   5.554074e+00 1.488210e+00 0.000000e+00
      vertex   4.979646e+00 2.875000e+00 0.000000e+00
      vertex   6.419096e+00 5.893180e+00 0.000000e+00
    endloop
  endfacet
  facet normal 0.000000e+00 -0.000000e+00 -1.000000e+00
    outer loop
      vertex   6.419096e+00 5.893180e+00 0.000000e+00
      vertex   7.000000e+00 5.750000e+00 0.000000e+00
      vertex   5.554074e+00 1.488210e+00 0.000000e+00
    endloop
  endfacet
  facet normal 0.000000e+00 0.000000e+00 -1.000000e+00
    outer loop
      vertex   7.000000e+00 5.750000e+00 0.000000e+00
      vertex   5.750000e+00 6.163284e-15 0.000000e+00
      vertex   5.554074e+00 1.488210e+00 0.000000e+00
    endloop
  endfacet
  facet normal 0.000000e+00 0.000000e+00 -1.000000e+00
    outer loop
      vertex   9.000000e+00 0.000000e+00 -0.000000e+00
      vertex   5.750000e+00 6.163284e-15 0.000000e+00
      vertex   7.000000e+00 5.750000e+00 0.000000e+00
    endloop
  endfacet
  facet normal -0.000000e+00 0.000000e+00 -1.000000e+00
    outer loop
      vertex   5.554074e+00 -1.488210e+00 0.000000e+00
      vertex   5.750000e+00 6.163284e-15 0.000000e+00
      vertex   9.000000e+00 0.000000e+00 -0.000000e+00
    endloop
  endfacet
  facet normal 0.000000e+00 -0.000000e+00 -1.000000e+00
    outer loop
      vertex   5.554074e+00 -1.488210e+00 0.000000e+00
      vertex   9.000000e+00 0.000000e+00 -0.000000e+00
      vertex   7.299145e+00 -5.786323e+00 0.000000e+00
    endloop
  endfacet
  facet normal 0.000000e+00 0.000000e+00 -1.000000e+00
    outer loop
      vertex   7.299145e+00 -5.786323e+00 0.000000e+00
      vertex   6.700855e+00 -5.786323e+00 0.000000e+00
      vertex   5.554074e+00 -1.488210e+00 0.000000e+00
    endloop
  endfacet
  facet normal 0.000000e+00 0.000000e+00 -1.000000e+00
    outer loop
      vertex   9.000000e+00 -9.000000e+00 0.000000e+00
      vertex   8.028730e+00 -7.710081e+00 0.000000e+00
      vertex   8.240886e+00 -7.150671e+00 0.000000e+00
    endloop
  endfacet
  facet normal 0.000000e+00 0.000000e+00 -1.000000e+00
    outer loop
      vertex   9.000000e+00 -9.000000e+00 0.000000e+00
      vertex   8.240886e+00 -7.150671e+00 0.000000e+00
      vertex   8.168770e+00 -6.556744e+00 0.000000e+00
    endloop
  endfacet
  facet normal 0.000000e+00 -0.000000e+00 -1.000000e+00
    outer loop
      vertex   8.168770e+00 -6.556744e+00 0.000000e+00
      vertex   9.000000e+00 0.000000e+00 -0.000000e+00
      vertex   9.000000e+00 -9.000000e+00 0.000000e+00
    endloop
  endfacet
  facet normal -0.000000e+00 0.000000e+00 -1.000000e+00
    outer loop
      vertex   8.168770e+00 -6.556744e+00 0.000000e+00
      vertex   7.828903e+00 -6.064362e+00 0.000000e+00
      vertex   9.000000e+00 0.000000e+00 -0.000000e+00
    endloop
  endfacet
  facet normal 0.000000e+00 0.000000e+00 -1.000000e+00
    outer loop
      vertex   9.000000e+00 0.000000e+00 -0.000000e+00
      vertex   7.828903e+00 -6.064362e+00 0.000000e+00
      vertex   7.299145e+00 -5.786323e+00 0.000000e+00
    endloop
  endfacet
  facet normal 0.000000e+00 0.000000e+00 -1.000000e+00
    outer loop
      vertex   -5.971270e+00 -7.710081e+00 0.000000e+00
      vertex   -5.759114e+00 -7.150671e+00 0.000000e+00
      vertex   -0.000000e+00 -9.000000e+00 0.000000e+00
    endloop
  endfacet
  facet normal 0.000000e+00 -0.000000e+00 -1.000000e+00
    outer loop
      vertex   -8.028730e+00 -7.710081e+00 0.000000e+00
      vertex   -7.580904e+00 -8.106820e+00 0.000000e+00
      vertex   -9.000000e+00 -9.000000e+00 0.000000e+00
    endloop
  endfacet
  facet normal 0.000000e+00 0.000000e+00 -1.000000e+00
    outer loop
      vertex   -9.000000e+00 -9.000000e+00 0.000000e+00
      vertex   -7.580904e+00 -8.106820e+00 0.000000e+00
      vertex   -7.000000e+00 -8.250000e+00 0.000000e+00
    endloop
  endfacet
  facet normal 0.000000e+00 0.000000e+00 -1.000000e+00
    outer loop
      vertex   -0.000000e+00 -9.000000e+00 0.000000e+00
      vertex   -9.000000e+00 -9.000000e+00 0.000000e+00
      vertex   -7.000000e+00 -8.250000e+00 0.000000e+00
    endloop
  endfacet
  facet normal 0.000000e+00 0.000000e+00 -1.000000e+00
    outer loop
      vertex   -7.000000e+00 -8.250000e+00 0.000000e+00
      vertex   -6.419096e+00 -8.106820e+00 0.000000e+00
      vertex   -0.000000e+00 -9.000000e+00 0.000000e+00
    endloop
  endfacet
  facet normal 0.000000e+00 0.000000e+00 -1.000000e+00
    outer loop
      vertex   -0.000000e+00 -9.000000e+00 0.000000e+00
      vertex   -6.419096e+00 -8.106820e+00 0.000000e+00
      vertex   -5.971270e+00 -7.710081e+00 0.000000e+00
    endloop
  endfacet
  facet normal 0.000000e+00 0.000000e+00 -1.000000e+00
    outer loop
      vertex   -9.000000e+00 0.000000e+00 0.000000e+00
      vertex   -7.828903e+00 -6.064362e+00 0.000000e+00
      vertex   -8.168770e+00 -6.556744e+00 0.000000e+00
    endloop
  endfacet
  facet normal 0.000000e+00 0.000000e+00 -1.000000e+00
    outer loop
      vertex   -9.000000e+00 0.000000e+00 0.000000e+00
      vertex   -8.168770e+00 -6.556744e+00 0.000000e+00
      vertex   -8.250000e+00 -7.000000e+00 0.000000e+00
    endloop
  endfacet
  facet normal -0.000000e+00 0.000000e+00 -1.000000e+00
    outer loop
      vertex   -8.250000e+00 -7.000000e+00 0.000000e+00
      vertex   -9.000000e+00 -9.000000e+00 0.000000e+00
      vertex   -9.000000e+00 0.000000e+00 0.000000e+00
    endloop
  endfacet
  facet normal 0.000000e+00 0.000000e+00 -1.000000e+00
    outer loop
      vertex   -9.000000e+00 -9.000000e+00 0.000000e+00
      vertex   -8.250000e+00 -7.000000e+00 0.000000e+00
      vertex   -8.240886e+00 -7.150671e+00 0.000000e+00
    endloop
  endfacet
  facet normal 0.000000e+00 -0.000000e+00 -1.000000e+00
    outer loop
      vertex   -8.240886e+00 -7.150671e+00 0.000000e+00
      vertex   -8.028730e+00 -7.710081e+00 0.000000e+00
      vertex   -9.000000e+00 -9.000000e+00 0.000000e+00
    endloop
  endfacet
  facet normal 0.000000e+00 0.000000e+00 -1.000000e+00
    outer loop
      vertex   -9.000000e+00 0.000000e+00 0.000000e+00
      vertex   -5.750000e+00 -1.760430e-15 0.000000e+00
      vertex   -5.554074e+00 -1.488210e+00 0.000000e+00
    endloop
  endfacet
  facet normal 0.000000e+00 0.000000e+00 -1.000000e+00
    outer loop
      vertex   -5.750000e+00 -1.760430e-15 0.000000e+00
      vertex   -9.000000e+00 0.000000e+00 0.000000e+00
      vertex   -7.580904e+00 5.893180e+00 0.000000e+00
    endloop
  endfacet
  facet normal 0.000000e+00 0.000000e+00 -1.000000e+00
    outer loop
      vertex   -7.580904e+00 5.893180e+00 0.000000e+00
      vertex   -7.000000e+00 5.750000e+00 0.000000e+00
      vertex   -5.750000e+00 -1.760430e-15 0.000000e+00
    endloop
  endfacet
  facet normal -0.000000e+00 0.000000e+00 -1.000000e+00
    outer loop
      vertex   -7.299145e+00 -5.786323e+00 0.000000e+00
      vertex   -7.828903e+00 -6.064362e+00 0.000000e+00
      vertex   -9.000000e+00 0.000000e+00 0.000000e+00
    endloop
  endfacet
  facet normal 0.000000e+00 0.000000e+00 -1.000000e+00
    outer loop
      vertex   -7.299145e+00 -5.786323e+00 0.000000e+00
      vertex   -9.000000e+00 0.000000e+00 0.000000e+00
      vertex   -5.554074e+00 -1.488210e+00 0.000000e+00
    endloop
  endfacet
  facet normal 0.000000e+00 0.000000e+00 -1.000000e+00
    outer loop
      vertex   -5.554074e+00 -1.488210e+00 0.000000e+00
      vertex   -6.700855e+00 -5.786323e+00 0.000000e+00
      vertex   -7.299145e+00 -5.786323e+00 0.000000e+00
    endloop
  endfacet
  facet normal 0.000000e+00 0.000000e+00 -1.000000e+00
    outer loop
      vertex   -6.700855e+00 -5.786323e+00 0.000000e+00
      vertex   -5.554074e+00 -1.488210e+00 0.000000e+00
      vertex   -4.979646e+00 -2.875000e+00 0.000000e+00
    endloop
  endfacet
  facet normal 0.000000e+00 0.000000e+00 -1.000000e+00
    outer loop
      vertex   -6.171097e+00 -6.064362e+00 0.000000e+00
      vertex   -6.700855e+00 -5.786323e+00 0.000000e+00
      vertex   -4.979646e+00 -2.875000e+00 0.000000e+00
    endloop
  endfacet
  facet normal 0.000000e+00 -0.000000e+00 -1.000000e+00
    outer loop
      vertex   -4.979646e+00 -2.875000e+00 0.000000e+00
      vertex   -4.065864e+00 -4.065864e+00 0.000000e+00
      vertex   -6.171097e+00 -6.064362e+00 0.000000e+00
    endloop
  endfacet
  facet normal 0.000000e+00 0.000000e+00 -1.000000e+00
    outer loop
      vertex   -5.831230e+00 -6.556744e+00 0.000000e+00
      vertex   -6.171097e+00 -6.064362e+00 0.000000e+00
      vertex   -4.065864e+00 -4.065864e+00 0.000000e+00
    endloop
  endfacet
  facet normal 0.000000e+00 -0.000000e+00 -1.000000e+00
    outer loop
      vertex   -4.065864e+00 -4.065864e+00 0.000000e+00
      vertex   -2.875000e+00 -4.979646e+00 0.000000e+00
      vertex   -5.831230e+00 -6.556744e+00 0.000000e+00
    endloop
  endfacet
  facet normal 0.000000e+00 0.000000e+00 -1.000000e+00
    outer loop
      vertex   -5.759114e+00 -7.150671e+00 0.000000e+00
      vertex   -5.831230e+00 -6.556744e+00 0.000000e+00
      vertex   -2.875000e+00 -4.979646e+00 0.000000e+00
    endloop
  endfacet
  facet normal 0.000000e+00 -0.000000e+00 -1.000000e+00
    outer loop
      vertex   -2.875000e+00 -4.979646e+00 0.000000e+00
      vertex   -1.488210e+00 -5.554074e+00 0.000000e+00
      vertex   -5.759114e+00 -7.150671e+00 0.000000e+00
    endloop
  endfacet
  facet normal 0.000000e+00 -0.000000e+00 -1.000000e+00
    outer loop
      vertex   -1.488210e+00 -5.554074e+00 0.000000e+00
      vertex   -0.000000e+00 -9.000000e+00 0.000000e+00
      vertex   -5.759114e+00 -7.150671e+00 0.000000e+00
    endloop
  endfacet
  facet normal 0.000000e+00 0.000000e+00 -1.000000e+00
    outer loop
      vertex   -1.488210e+00 -5.554074e+00 0.000000e+00
      vertex   0.000000e+00 -5.750000e+00 0.000000e+00
      vertex   -0.000000e+00 -9.000000e+00 0.000000e+00
    endloop
  endfacet
  facet normal 0.000000e+00 0.000000e+00 -1.000000e+00
    outer loop
      vertex   -0.000000e+00 -9.000000e+00 0.000000e+00
      vertex   0.000000e+00 -5.750000e+00 0.000000e+00
      vertex   5.750000e+00 -7.000000e+00 0.000000e+00
    endloop
  endfacet
  facet normal 0.000000e+00 0.000000e+00 -1.000000e+00
    outer loop
      vertex   5.750000e+00 -7.000000e+00 0.000000e+00
      vertex   0.000000e+00 -5.750000e+00 0.000000e+00
      vertex   1.488210e+00 -5.554074e+00 0.000000e+00
    endloop
  endfacet
  facet normal -0.000000e+00 0.000000e+00 -1.000000e+00
    outer loop
      vertex   5.831230e+00 -6.556744e+00 0.000000e+00
      vertex   5.750000e+00 -7.000000e+00 0.000000e+00
      vertex   1.488210e+00 -5.554074e+00 0.000000e+00
    endloop
  endfacet
  facet normal 0.000000e+00 0.000000e+00 -1.000000e+00
    outer loop
      vertex   1.488210e+00 -5.554074e+00 0.000000e+00
      vertex   2.875000e+00 -4.979646e+00 0.000000e+00
      vertex   5.831230e+00 -6.556744e+00 0.000000e+00
    endloop
  endfacet
  facet normal -0.000000e+00 0.000000e+00 -1.000000e+00
    outer loop
      vertex   6.171097e+00 -6.064362e+00 0.000000e+00
      vertex   5.831230e+00 -6.556744e+00 0.000000e+00
      vertex   2.875000e+00 -4.979646e+00 0.000000e+00
    endloop
  endfacet
  facet normal 0.000000e+00 0.000000e+00 -1.000000e+00
    outer loop
      vertex   2.875000e+00 -4.979646e+00 0.000000e+00
      vertex   4.065864e+00 -4.065864e+00 0.000000e+00
      vertex   6.171097e+00 -6.064362e+00 0.000000e+00
    endloop
  endfacet
  facet normal -0.000000e+00 0.000000e+00 -1.000000e+00
    outer loop
      vertex   6.700855e+00 -5.786323e+00 0.000000e+00
      vertex   6.171097e+00 -6.064362e+00 0.000000e+00
      vertex   4.065864e+00 -4.065864e+00 0.000000e+00
    endloop
  endfacet
  facet normal 0.000000e+00 0.000000e+00 -1.000000e+00
    outer loop
      vertex   4.065864e+00 -4.065864e+00 0.000000e+00
      vertex   4.979646e+00 -2.875000e+00 0.000000e+00
      vertex   6.700855e+00 -5.786323e+00 0.000000e+00
    endloop
  endfacet
  facet normal 0.000000e+00 0.000000e+00 -1.000000e+00
    outer loop
      vertex   4.979646e+00 -2.875000e+00 0.000000e+00
      vertex   5.554074e+00 -1.488210e+00 0.000000e+00
      vertex   6.700855e+00 -5.786323e+00 0.000000e+00
    endloop
  endfacet
  facet normal 1.000000e+00 0.000000e+00 0.000000e+00
    outer loop
      vertex   9.000000e+00 0.000000e+00 -0.000000e+00
      vertex   9.000000e+00 9.000000e+00 0.000000e+00
      vertex   9.000000e+00 9.000000e+00 7.000000e+00
    endloop
  endfacet
  facet normal 1.000000e+00 0.000000e+00 0.000000e+00
    outer loop
      vertex   9.000000e+00 9.000000e+00 7.000000e+00
      vertex   9.000000e+00 0.000000e+00 7.000000e+00
      vertex   9.000000e+00 0.000000e+00 -0.000000e+00
    endloop
  endfacet
  facet normal 1.000000e+00 -0.000000e+00 0.000000e+00
    outer loop
      vertex   9.000000e+00 -9.000000e+00 0.000000e+00
      vertex   9.000000e+00 0.000000e+00 -0.000000e+00
      vertex   9.000000e+00 0.000000e+00 7.000000e+00
    endloop
  endfacet
  facet normal 1.000000e+00 0.000000e+00 0.000000e+00
    outer loop
      vertex   9.000000e+00 0.000000e+00 7.000000e+00
      vertex   9.000000e+00 -9.000000e+00 7.000000e+00
      vertex   9.000000e+00 -9.000000e+00 0.000000e+00
    endloop
  endfacet
  facet normal 0.000000e+00 -1.000000e+00 0.000000e+00
    outer loop
      vertex   -0.000000e+00 -9.000000e+00 0.000000e+00
      vertex   9.000000e+00 -9.000000e+00 0.000000e+00
      vertex   9.000000e+00 -9.000000e+00 7.000000e+00
    endloop
  endfacet
  facet normal -0.000000e+00 -1.000000e+00 0.000000e+00
    outer loop
      vertex   9.000000e+00 -9.000000e+00 7.000000e+00
      vertex   0.000000e+00 -9.000000e+00 7.000000e+00
      vertex   -0.000000e+00 -9.000000e+00 0.000000e+00
    endloop
  endfacet
  facet normal 0.000000e+00 -1.000000e+00 0.000000e+00
    outer loop
      vertex   -9.000000e+00 -9.000000e+00 0.000000e+00
      vertex   -0.000000e+00 -9.000000e+00 0.000000e+00
      vertex   0.000000e+00 -9.000000e+00 7.000000e+00
    endloop
  endfacet
  facet normal -0.000000e+00 -1.000000e+00 0.000000e+00
    outer loop
      vertex   0.000000e+00 -9.000000e+00 7.000000e+00
      vertex   -9.000000e+00 -9.000000e+00 7.000000e+00
      vertex   -9.000000e+00 -9.000000e+00 0.000000e+00
    endloop
  endfacet
  facet normal -1.000000e+00 0.000000e+00 0.000000e+00
    outer loop
      vertex   -9.000000e+00 0.000000e+00 0.000000e+00
      vertex   -9.000000e+00 -9.000000e+00 0.000000e+00
      vertex   -9.000000e+00 -9.000000e+00 7.000000e+00
    endloop
  endfacet
  facet normal -1.000000e+00 0.000000e+00 0.000000e+00
    outer loop
      vertex   -9.000000e+00 -9.000000e+00 7.000000e+00
      vertex   -9.000000e+00 0.000000e+00 7.000000e+00
      vertex   -9.000000e+00 0.000000e+00 0.000000e+00
    endloop
  endfacet
  facet normal -1.000000e+00 0.000000e+00 0.000000e+00
    outer loop
      vertex   -9.000000e+00 9.000000e+00 0.000000e+00
      vertex   -9.000000e+00 0.000000e+00 0.000000e+00
      vertex   -9.000000e+00 0.000000e+00 7.000000e+00
    endloop
  endfacet
  facet normal -1.000000e+00 0.000000e+00 0.000000e+00
    outer loop
      vertex   -9.000000e+00 0.000000e+00 7.000000e+00
      vertex   -9.000000e+00 9.000000e+00 7.000000e+00
      vertex   -9.000000e+00 9.000000e+00 0.000000e+00
    endloop
  endfacet
  facet normal 0.000000e+00 1.000000e+00 0.000000e+00
    outer loop
      vertex   0.000000e+00 9.000000e+00 0.000000e+00
      vertex   -9.000000e+00 9.000000e+00 0.000000e+00
      vertex   -9.000000e+00 9.000000e+00 7.000000e+00
    endloop
  endfacet
  facet normal -0.000000e+00 1.000000e+00 0.000000e+00
    outer loop
      vertex   -9.000000e+00 9.000000e+00 7.000000e+00
      vertex   0.000000e+00 9.000000e+00 7.000000e+00
      vertex   0.000000e+00 9.000000e+00 0.000000e+00
    endloop
  endfacet
  facet normal 0.000000e+00 1.000000e+00 0.000000e+00
    outer loop
      vertex   9.000000e+00 9.000000e+00 0.000000e+00
      vertex   0.000000e+00 9.000000e+00 0.000000e+00
      vertex   0.000000e+00 9.000000e+00 7.000000e+00
    endloop
  endfacet
  facet normal -0.000000e+00 1.000000e+00 0.000000e+00
    outer loop
      vertex   0.000000e+00 9.000000e+00 7.000000e+00
      vertex   9.000000e+00 9.000000e+00 7.000000e+00
      vertex   9.000000e+00 9.000000e+00 0.000000e+00
    endloop
  endfacet
  facet normal 2.393157e-01 9.709418e-01 0.000000e+00
    outer loop
      vertex   6.419096e+00 5.893180e+00 7.000000e+00
      vertex   7.000000e+00 5.750000e+00 7.000000e+00
      vertex   7.000000e+00 5.750000e+00 0.000000e+00
    endloop
  endfacet
  facet normal 2.393157e-01 9.709418e-01 0.000000e+00
    outer loop
      vertex   7.000000e+00 5.750000e+00 0.000000e+00
      vertex   6.419096e+00 5.893180e+00 0.000000e+00
      vertex   6.419096e+00 5.893180e+00 7.000000e+00
    endloop
  endfacet
  facet normal 6.631227e-01 7.485107e-01 6.964192e-18
    outer loop
      vertex   5.971270e+00 6.289919e+00 7.000000e+00
      vertex   6.419096e+00 5.893180e+00 7.000000e+00
      vertex   6.419096e+00 5.893180e+00 0.000000e+00
    endloop
  endfacet
  facet normal 6.631227e-01 7.485107e-01 6.964192e-18
    outer loop
      vertex   6.419096e+00 5.893180e+00 0.000000e+00
      vertex   5.971270e+00 6.289919e+00 0.000000e+00
      vertex   5.971270e+00 6.289919e+00 7.000000e+00
    endloop
  endfacet
  facet normal 9.350162e-01 3.546049e-01 6.964192e-18
    outer loop
      vertex   5.759114e+00 6.849329e+00 7.000000e+00
      vertex   5.971270e+00 6.289919e+00 7.000000e+00
      vertex   5.971270e+00 6.289919e+00 0.000000e+00
    endloop
  endfacet
  facet normal 9.350162e-01 3.546049e-01 6.964192e-18
    outer loop
      vertex   5.971270e+00 6.289919e+00 0.000000e+00
      vertex   5.759114e+00 6.849329e+00 0.000000e+00
      vertex   5.759114e+00 6.849329e+00 7.000000e+00
    endloop
  endfacet
  facet normal 9.981756e-01 6.037850e-02 0.000000e+00
    outer loop
      vertex   5.750000e+00 7.000000e+00 7.000000e+00
      vertex   5.759114e+00 6.849329e+00 7.000000e+00
      vertex   5.759114e+00 6.849329e+00 0.000000e+00
    endloop
  endfacet
  facet normal 9.981756e-01 6.037850e-02 0.000000e+00
    outer loop
      vertex   5.759114e+00 6.849329e+00 0.000000e+00
      vertex   5.750000e+00 7.000000e+00 0.000000e+00
      vertex   5.750000e+00 7.000000e+00 7.000000e+00
    endloop
  endfacet
  facet normal 9.836199e-01 -1.802550e-01 1.738314e-18
    outer loop
      vertex   5.831230e+00 7.443256e+00 7.000000e+00
      vertex   5.750000e+00 7.000000e+00 7.000000e+00
      vertex   5.750000e+00 7.000000e+00 0.000000e+00
    endloop
  endfacet
  facet normal 9.836199e-01 -1.802550e-01 1.738314e-18
    outer loop
      vertex   5.750000e+00 7.000000e+00 0.000000e+00
      vertex   5.831230e+00 7.443256e+00 0.000000e+00
      vertex   5.831230e+00 7.443256e+00 7.000000e+00
    endloop
  endfacet
  facet normal 8.229839e-01 -5.680647e-01 0.000000e+00
    outer loop
      vertex   6.171097e+00 7.935638e+00 7.000000e+00
      vertex   5.831230e+00 7.443256e+00 7.000000e+00
      vertex   5.831230e+00 7.443256e+00 0.000000e+00
    endloop
  endfacet
  facet normal 8.229839e-01 -5.680647e-01 0.000000e+00
    outer loop
      vertex   5.831230e+00 7.443256e+00 0.000000e+00
      vertex   6.171097e+00 7.935638e+00 0.000000e+00
      vertex   6.171097e+00 7.935638e+00 7.000000e+00
    endloop
  endfacet
  facet normal 4.647232e-01 -8.854560e-01 -6.964192e-18
    outer loop
      vertex   6.700855e+00 8.213677e+00 7.000000e+00
      vertex   6.171097e+00 7.935638e+00 7.000000e+00
      vertex   6.171097e+00 7.935638e+00 0.000000e+00
    endloop
  endfacet
  facet normal 4.647232e-01 -8.854560e-01 -6.964192e-18
    outer loop
      vertex   6.171097e+00 7.935638e+00 0.000000e+00
      vertex   6.700855e+00 8.213677e+00 0.000000e+00
      vertex   6.700855e+00 8.213677e+00 7.000000e+00
    endloop
  endfacet
  facet normal -0.000000e+00 -1.000000e+00 0.000000e+00
    outer loop
      vertex   7.299145e+00 8.213677e+00 7.000000e+00
      vertex   6.700855e+00 8.213677e+00 7.000000e+00
      vertex   6.700855e+00 8.213677e+00 0.000000e+00
    endloop
  endfacet
  facet normal 0.000000e+00 -1.000000e+00 0.000000e+00
    outer loop
      vertex   6.700855e+00 8.213677e+00 0.000000e+00
      vertex   7.299145e+00 8.213677e+00 0.000000e+00
      vertex   7.299145e+00 8.213677e+00 7.000000e+00
    endloop
  endfacet
  facet normal -4.647232e-01 -8.854560e-01 6.964192e-18
    outer loop
      vertex   7.828903e+00 7.935638e+00 7.000000e+00
      vertex   7.299145e+00 8.213677e+00 7.000000e+00
      vertex   7.299145e+00 8.213677e+00 0.000000e+00
    endloop
  endfacet
  facet normal -4.647232e-01 -8.854560e-01 6.964192e-18
    outer loop
      vertex   7.299145e+00 8.213677e+00 0.000000e+00
      vertex   7.828903e+00 7.935638e+00 0.000000e+00
      vertex   7.828903e+00 7.935638e+00 7.000000e+00
    endloop
  endfacet
  facet normal -8.229839e-01 -5.680647e-01 0.000000e+00
    outer loop
      vertex   8.168770e+00 7.443256e+00 7.000000e+00
      vertex   7.828903e+00 7.935638e+00 7.000000e+00
      vertex   7.828903e+00 7.935638e+00 0.000000e+00
    endloop
  endfacet
  facet normal -8.229839e-01 -5.680647e-01 0.000000e+00
    outer loop
      vertex   7.828903e+00 7.935638e+00 0.000000e+00
      vertex   8.168770e+00 7.443256e+00 0.000000e+00
      vertex   8.168770e+00 7.443256e+00 7.000000e+00
    endloop
  endfacet
  facet normal -9.927089e-01 -1.205367e-01 0.000000e+00
    outer loop
      vertex   8.240886e+00 6.849329e+00 7.000000e+00
      vertex   8.168770e+00 7.443256e+00 7.000000e+00
      vertex   8.168770e+00 7.443256e+00 0.000000e+00
    endloop
  endfacet
  facet normal -9.927089e-01 -1.205367e-01 0.000000e+00
    outer loop
      vertex   8.168770e+00 7.443256e+00 0.000000e+00
      vertex   8.240886e+00 6.849329e+00 0.000000e+00
      vertex   8.240886e+00 6.849329e+00 7.000000e+00
    endloop
  endfacet
  facet normal -9.350162e-01 3.546049e-01 -3.482096e-18
    outer loop
      vertex   8.028730e+00 6.289919e+00 7.000000e+00
      vertex   8.240886e+00 6.849329e+00 7.000000e+00
      vertex   8.240886e+00 6.849329e+00 0.000000e+00
    endloop
  endfacet
  facet normal -9.350162e-01 3.546049e-01 -3.482096e-18
    outer loop
      vertex   8.240886e+00 6.849329e+00 0.000000e+00
      vertex   8.028730e+00 6.289919e+00 0.000000e+00
      vertex   8.028730e+00 6.289919e+00 7.000000e+00
    endloop
  endfacet
  facet normal -6.631227e-01 7.485107e-01 0.000000e+00
    outer loop
      vertex   7.580904e+00 5.893180e+00 7.000000e+00
      vertex   8.028730e+00 6.289919e+00 7.000000e+00
      vertex   8.028730e+00 6.289919e+00 0.000000e+00
    endloop
  endfacet
  facet normal -6.631227e-01 7.485107e-01 0.000000e+00
    outer loop
      vertex   8.028730e+00 6.289919e+00 0.000000e+00
      vertex   7.580904e+00 5.893180e+00 0.000000e+00
      vertex   7.580904e+00 5.893180e+00 7.000000e+00
    endloop
  endfacet
  facet normal -2.393157e-01 9.709418e-01 0.000000e+00
    outer loop
      vertex   7.000000e+00 5.750000e+00 7.000000e+00
      vertex   7.580904e+00 5.893180e+00 7.000000e+00
      vertex   7.580904e+00 5.893180e+00 0.000000e+00
    endloop
  endfacet
  facet normal -2.393157e-01 9.709418e-01 0.000000e+00
    outer loop
      vertex   7.580904e+00 5.893180e+00 0.000000e+00
      vertex   7.000000e+00 5.750000e+00 0.000000e+00
      vertex   7.000000e+00 5.750000e+00 7.000000e+00
    endloop
  endfacet
  facet normal 2.393157e-01 9.709418e-01 -3.482096e-18
    outer loop
      vertex   6.419096e+00 -8.106820e+00 7.000000e+00
      vertex   7.000000e+00 -8.250000e+00 7.000000e+00
      vertex   7.000000e+00 -8.250000e+00 0.000000e+00
    endloop
  endfacet
  facet normal 2.393157e-01 9.709418e-01 -3.482096e-18
    outer loop
      vertex   7.000000e+00 -8.250000e+00 0.000000e+00
      vertex   6.419096e+00 -8.106820e+00 0.000000e+00
      vertex   6.419096e+00 -8.106820e+00 7.000000e+00
    endloop
  endfacet
  facet normal 6.631227e-01 7.485107e-01 0.000000e+00
    outer loop
      vertex   5.971270e+00 -7.710081e+00 7.000000e+00
      vertex   6.419096e+00 -8.106820e+00 7.000000e+00
      vertex   6.419096e+00 -8.106820e+00 0.000000e+00
    endloop
  endfacet
  facet normal 6.631227e-01 7.485107e-01 0.000000e+00
    outer loop
      vertex   6.419096e+00 -8.106820e+00 0.000000e+00
      vertex   5.971270e+00 -7.710081e+00 0.000000e+00
      vertex   5.971270e+00 -7.710081e+00 7.000000e+00
    endloop
  endfacet
  facet normal 9.350162e-01 3.546049e-01 6.964192e-18
    outer loop
      vertex   5.759114e+00 -7.150671e+00 7.000000e+00
      vertex   5.971270e+00 -7.710081e+00 7.000000e+00
      vertex   5.971270e+00 -7.710081e+00 0.000000e+00
    endloop
  endfacet
  facet normal 9.350162e-01 3.546049e-01 6.964192e-18
    outer loop
      vertex   5.971270e+00 -7.710081e+00 0.000000e+00
      vertex   5.759114e+00 -7.150671e+00 0.000000e+00
      vertex   5.759114e+00 -7.150671e+00 7.000000e+00
    endloop
  endfacet
  facet normal 9.981756e-01 6.037850e-02 0.000000e+00
    outer loop
      vertex   5.750000e+00 -7.000000e+00 7.000000e+00
      vertex   5.759114e+00 -7.150671e+00 7.000000e+00
      vertex   5.759114e+00 -7.150671e+00 0.000000e+00
    endloop
  endfacet
  facet normal 9.981756e-01 6.037850e-02 0.000000e+00
    outer loop
      vertex   5.759114e+00 -7.150671e+00 0.000000e+00
      vertex   5.750000e+00 -7.000000e+00 0.000000e+00
      vertex   5.750000e+00 -7.000000e+00 7.000000e+00
    endloop
  endfacet
  facet normal 9.836199e-01 -1.802550e-01 1.738314e-18
    outer loop
      vertex   5.831230e+00 -6.556744e+00 7.000000e+00
      vertex   5.750000e+00 -7.000000e+00 7.000000e+00
      vertex   5.750000e+00 -7.000000e+00 0.000000e+00
    endloop
  endfacet
  facet normal 9.836199e-01 -1.802550e-01 1.738314e-18
    outer loop
      vertex   5.750000e+00 -7.000000e+00 0.000000e+00
      vertex   5.831230e+00 -6.556744e+00 0.000000e+00
      vertex   5.831230e+00 -6.556744e+00 7.000000e+00
    endloop
  endfacet
  facet normal 8.229839e-01 -5.680647e-01 0.000000e+00
    outer loop
      vertex   6.171097e+00 -6.064362e+00 7.000000e+00
      vertex   5.831230e+00 -6.556744e+00 7.000000e+00
      vertex   5.831230e+00 -6.556744e+00 0.000000e+00
    endloop
  endfacet
  facet normal 8.229839e-01 -5.680647e-01 0.000000e+00
    outer loop
      vertex   5.831230e+00 -6.556744e+00 0.000000e+00
      vertex   6.171097e+00 -6.064362e+00 0.000000e+00
      vertex   6.171097e+00 -6.064362e+00 7.000000e+00
    endloop
  endfacet
  facet normal 4.647232e-01 -8.854560e-01 0.000000e+00
    outer loop
      vertex   6.700855e+00 -5.786323e+00 7.000000e+00
      vertex   6.171097e+00 -6.064362e+00 7.000000e+00
      vertex   6.171097e+00 -6.064362e+00 0.000000e+00
    endloop
  endfacet
  facet normal 4.647232e-01 -8.854560e-01 0.000000e+00
    outer loop
      vertex   6.171097e+00 -6.064362e+00 0.000000e+00
      vertex   6.700855e+00 -5.786323e+00 0.000000e+00
      vertex   6.700855e+00 -5.786323e+00 7.000000e+00
    endloop
  endfacet
  facet normal -0.000000e+00 -1.000000e+00 0.000000e+00
    outer loop
      vertex   7.299145e+00 -5.786323e+00 7.000000e+00
      vertex   6.700855e+00 -5.786323e+00 7.000000e+00
      vertex   6.700855e+00 -5.786323e+00 0.000000e+00
    endloop
  endfacet
  facet normal 0.000000e+00 -1.000000e+00 0.000000e+00
    outer loop
      vertex   6.700855e+00 -5.786323e+00 0.000000e+00
      vertex   7.299145e+00 -5.786323e+00 0.000000e+00
      vertex   7.299145e+00 -5.786323e+00 7.000000e+00
    endloop
  endfacet
  facet normal -4.647232e-01 -8.854560e-01 0.000000e+00
    outer loop
      vertex   7.828903e+00 -6.064362e+00 7.000000e+00
      vertex   7.299145e+00 -5.786323e+00 7.000000e+00
      vertex   7.299145e+00 -5.786323e+00 0.000000e+00
    endloop
  endfacet
  facet normal -4.647232e-01 -8.854560e-01 0.000000e+00
    outer loop
      vertex   7.299145e+00 -5.786323e+00 0.000000e+00
      vertex   7.828903e+00 -6.064362e+00 0.000000e+00
      vertex   7.828903e+00 -6.064362e+00 7.000000e+00
    endloop
  endfacet
  facet normal -8.229839e-01 -5.680647e-01 6.964192e-18
    outer loop
      vertex   8.168770e+00 -6.556744e+00 7.000000e+00
      vertex   7.828903e+00 -6.064362e+00 7.000000e+00
      vertex   7.828903e+00 -6.064362e+00 0.000000e+00
    endloop
  endfacet
  facet normal -8.229839e-01 -5.680647e-01 6.964192e-18
    outer loop
      vertex   7.828903e+00 -6.064362e+00 0.000000e+00
      vertex   8.168770e+00 -6.556744e+00 0.000000e+00
      vertex   8.168770e+00 -6.556744e+00 7.000000e+00
    endloop
  endfacet
  facet normal -9.927089e-01 -1.205367e-01 0.000000e+00
    outer loop
      vertex   8.240886e+00 -7.150671e+00 7.000000e+00
      vertex   8.168770e+00 -6.556744e+00 7.000000e+00
      vertex   8.168770e+00 -6.556744e+00 0.000000e+00
    endloop
  endfacet
  facet normal -9.927089e-01 -1.205367e-01 0.000000e+00
    outer loop
      vertex   8.168770e+00 -6.556744e+00 0.000000e+00
      vertex   8.240886e+00 -7.150671e+00 0.000000e+00
      vertex   8.240886e+00 -7.150671e+00 7.000000e+00
    endloop
  endfacet
  facet normal -9.350162e-01 3.546049e-01 -3.482096e-18
    outer loop
      vertex   8.028730e+00 -7.710081e+00 7.000000e+00
      vertex   8.240886e+00 -7.150671e+00 7.000000e+00
      vertex   8.240886e+00 -7.150671e+00 0.000000e+00
    endloop
  endfacet
  facet normal -9.350162e-01 3.546049e-01 -3.482096e-18
    outer loop
      vertex   8.240886e+00 -7.150671e+00 0.000000e+00
      vertex   8.028730e+00 -7.710081e+00 0.000000e+00
      vertex   8.028730e+00 -7.710081e+00 7.000000e+00
    endloop
  endfacet
  facet normal -6.631227e-01 7.485107e-01 0.000000e+00
    outer loop
      vertex   7.580904e+00 -8.106820e+00 7.000000e+00
      vertex   8.028730e+00 -7.710081e+00 7.000000e+00
      vertex   8.028730e+00 -7.710081e+00 0.000000e+00
    endloop
  endfacet
  facet normal -6.631227e-01 7.485107e-01 0.000000e+00
    outer loop
      vertex   8.028730e+00 -7.710081e+00 0.000000e+00
      vertex   7.580904e+00 -8.106820e+00 0.000000e+00
      vertex   7.580904e+00 -8.106820e+00 7.000000e+00
    endloop
  endfacet
  facet normal -2.393157e-01 9.709418e-01 0.000000e+00
    outer loop
      vertex   7.000000e+00 -8.250000e+00 7.000000e+00
      vertex   7.580904e+00 -8.106820e+00 7.000000e+00
      vertex   7.580904e+00 -8.106820e+00 0.000000e+00
    endloop
  endfacet
  facet normal -2.393157e-01 9.709418e-01 0.000000e+00
    outer loop
      vertex   7.580904e+00 -8.106820e+00 0.000000e+00
      vertex   7.000000e+00 -8.250000e+00 0.000000e+00
      vertex   7.000000e+00 -8.250000e+00 7.000000e+00
    endloop
  endfacet
  facet normal 2.393157e-01 9.709418e-01 0.000000e+00
    outer loop
      vertex   -7.580904e+00 5.893180e+00 7.000000e+00
      vertex   -7.000000e+00 5.750000e+00 7.000000e+00
      vertex   -7.000000e+00 5.750000e+00 0.000000e+00
    endloop
  endfacet
  facet normal 2.393157e-01 9.709418e-01 0.000000e+00
    outer loop
      vertex   -7.000000e+00 5.750000e+00 0.000000e+00
      vertex   -7.580904e+00 5.893180e+00 0.000000e+00
      vertex   -7.580904e+00 5.893180e+00 7.000000e+00
    endloop
  endfacet
  facet normal 6.631227e-01 7.485107e-01 6.964192e-18
    outer loop
      vertex   -8.028730e+00 6.289919e+00 7.000000e+00
      vertex   -7.580904e+00 5.893180e+00 7.000000e+00
      vertex   -7.580904e+00 5.893180e+00 0.000000e+00
    endloop
  endfacet
  facet normal 6.631227e-01 7.485107e-01 6.964192e-18
    outer loop
      vertex   -7.580904e+00 5.893180e+00 0.000000e+00
      vertex   -8.028730e+00 6.289919e+00 0.000000e+00
      vertex   -8.028730e+00 6.289919e+00 7.000000e+00
    endloop
  endfacet
  facet normal 9.350162e-01 3.546049e-01 6.964192e-18
    outer loop
      vertex   -8.240886e+00 6.849329e+00 7.000000e+00
      vertex   -8.028730e+00 6.289919e+00 7.000000e+00
      vertex   -8.028730e+00 6.289919e+00 0.000000e+00
    endloop
  endfacet
  facet normal 9.350162e-01 3.546049e-01 6.964192e-18
    outer loop
      vertex   -8.028730e+00 6.289919e+00 0.000000e+00
      vertex   -8.240886e+00 6.849329e+00 0.000000e+00
      vertex   -8.240886e+00 6.849329e+00 7.000000e+00
    endloop
  endfacet
  facet normal 9.981756e-01 6.037850e-02 0.000000e+00
    outer loop
      vertex   -8.250000e+00 7.000000e+00 7.000000e+00
      vertex   -8.240886e+00 6.849329e+00 7.000000e+00
      vertex   -8.240886e+00 6.849329e+00 0.000000e+00
    endloop
  endfacet
  facet normal 9.981756e-01 6.037850e-02 0.000000e+00
    outer loop
      vertex   -8.240886e+00 6.849329e+00 0.000000e+00
      vertex   -8.250000e+00 7.000000e+00 0.000000e+00
      vertex   -8.250000e+00 7.000000e+00 7.000000e+00
    endloop
  endfacet
  facet normal 9.836199e-01 -1.802550e-01 1.738314e-18
    outer loop
      vertex   -8.168770e+00 7.443256e+00 7.000000e+00
      vertex   -8.250000e+00 7.000000e+00 7.000000e+00
      vertex   -8.250000e+00 7.000000e+00 0.000000e+00
    endloop
  endfacet
  facet normal 9.836199e-01 -1.802550e-01 1.738314e-18
    outer loop
      vertex   -8.250000e+00 7.000000e+00 0.000000e+00
      vertex   -8.168770e+00 7.443256e+00 0.000000e+00
      vertex   -8.168770e+00 7.443256e+00 7.000000e+00
    endloop
  endfacet
  facet normal 8.229839e-01 -5.680647e-01 6.964192e-18
    outer loop
      vertex   -7.828903e+00 7.935638e+00 7.000000e+00
      vertex   -8.168770e+00 7.443256e+00 7.000000e+00
      vertex   -8.168770e+00 7.443256e+00 0.000000e+00
    endloop
  endfacet
  facet normal 8.229839e-01 -5.680647e-01 6.964192e-18
    outer loop
      vertex   -8.168770e+00 7.443256e+00 0.000000e+00
      vertex   -7.828903e+00 7.935638e+00 0.000000e+00
      vertex   -7.828903e+00 7.935638e+00 7.000000e+00
    endloop
  endfacet
  facet normal 4.647232e-01 -8.854560e-01 -6.964192e-18
    outer loop
      vertex   -7.299145e+00 8.213677e+00 7.000000e+00
      vertex   -7.828903e+00 7.935638e+00 7.000000e+00
      vertex   -7.828903e+00 7.935638e+00 0.000000e+00
    endloop
  endfacet
  facet normal 4.647232e-01 -8.854560e-01 -6.964192e-18
    outer loop
      vertex   -7.828903e+00 7.935638e+00 0.000000e+00
      vertex   -7.299145e+00 8.213677e+00 0.000000e+00
      vertex   -7.299145e+00 8.213677e+00 7.000000e+00
    endloop
  endfacet
  facet normal -0.000000e+00 -1.000000e+00 0.000000e+00
    outer loop
      vertex   -6.700855e+00 8.213677e+00 7.000000e+00
      vertex   -7.299145e+00 8.213677e+00 7.000000e+00
      vertex   -7.299145e+00 8.213677e+00 0.000000e+00
    endloop
  endfacet
  facet normal 0.000000e+00 -1.000000e+00 0.000000e+00
    outer loop
      vertex   -7.299145e+00 8.213677e+00 0.000000e+00
      vertex   -6.700855e+00 8.213677e+00 0.000000e+00
      vertex   -6.700855e+00 8.213677e+00 7.000000e+00
    endloop
  endfacet
  facet normal -4.647232e-01 -8.854560e-01 6.964192e-18
    outer loop
      vertex   -6.171097e+00 7.935638e+00 7.000000e+00
      vertex   -6.700855e+00 8.213677e+00 7.000000e+00
      vertex   -6.700855e+00 8.213677e+00 0.000000e+00
    endloop
  endfacet
  facet normal -4.647232e-01 -8.854560e-01 6.964192e-18
    outer loop
      vertex   -6.700855e+00 8.213677e+00 0.000000e+00
      vertex   -6.171097e+00 7.935638e+00 0.000000e+00
      vertex   -6.171097e+00 7.935638e+00 7.000000e+00
    endloop
  endfacet
  facet normal -8.229839e-01 -5.680647e-01 0.000000e+00
    outer loop
      vertex   -5.831230e+00 7.443256e+00 7.000000e+00
      vertex   -6.171097e+00 7.935638e+00 7.000000e+00
      vertex   -6.171097e+00 7.935638e+00 0.000000e+00
    endloop
  endfacet
  facet normal -8.229839e-01 -5.680647e-01 0.000000e+00
    outer loop
      vertex   -6.171097e+00 7.935638e+00 0.000000e+00
      vertex   -5.831230e+00 7.443256e+00 0.000000e+00
      vertex   -5.831230e+00 7.443256e+00 7.000000e+00
    endloop
  endfacet
  facet normal -9.927089e-01 -1.205367e-01 0.000000e+00
    outer loop
      vertex   -5.759114e+00 6.849329e+00 7.000000e+00
      vertex   -5.831230e+00 7.443256e+00 7.000000e+00
      vertex   -5.831230e+00 7.443256e+00 0.000000e+00
    endloop
  endfacet
  facet normal -9.927089e-01 -1.205367e-01 0.000000e+00
    outer loop
      vertex   -5.831230e+00 7.443256e+00 0.000000e+00
      vertex   -5.759114e+00 6.849329e+00 0.000000e+00
      vertex   -5.759114e+00 6.849329e+00 7.000000e+00
    endloop
  endfacet
  facet normal -9.350162e-01 3.546049e-01 0.000000e+00
    outer loop
      vertex   -5.971270e+00 6.289919e+00 7.000000e+00
      vertex   -5.759114e+00 6.849329e+00 7.000000e+00
      vertex   -5.759114e+00 6.849329e+00 0.000000e+00
    endloop
  endfacet
  facet normal -9.350162e-01 3.546049e-01 0.000000e+00
    outer loop
      vertex   -5.759114e+00 6.849329e+00 0.000000e+00
      vertex   -5.971270e+00 6.289919e+00 0.000000e+00
      vertex   -5.971270e+00 6.289919e+00 7.000000e+00
    endloop
  endfacet
  facet normal -6.631227e-01 7.485107e-01 0.000000e+00
    outer loop
      vertex   -6.419096e+00 5.893180e+00 7.000000e+00
      vertex   -5.971270e+00 6.289919e+00 7.000000e+00
      vertex   -5.971270e+00 6.289919e+00 0.000000e+00
    endloop
  endfacet
  facet normal -6.631227e-01 7.485107e-01 0.000000e+00
    outer loop
      vertex   -5.971270e+00 6.289919e+00 0.000000e+00
      vertex   -6.419096e+00 5.893180e+00 0.000000e+00
      vertex   -6.419096e+00 5.893180e+00 7.000000e+00
    endloop
  endfacet
  facet normal -2.393157e-01 9.709418e-01 0.000000e+00
    outer loop
      vertex   -7.000000e+00 5.750000e+00 7.000000e+00
      vertex   -6.419096e+00 5.893180e+00 7.000000e+00
      vertex   -6.419096e+00 5.893180e+00 0.000000e+00
    endloop
  endfacet
  facet normal -2.393157e-01 9.709418e-01 0.000000e+00
    outer loop
      vertex   -6.419096e+00 5.893180e+00 0.000000e+00
      vertex   -7.000000e+00 5.750000e+00 0.000000e+00
      vertex   -7.000000e+00 5.750000e+00 7.000000e+00
    endloop
  endfacet
  facet normal 1.305262e-01 9.914449e-01 0.000000e+00
    outer loop
      vertex   -1.488210e+00 -5.554074e+00 7.000000e+00
      vertex   0.000000e+00 -5.750000e+00 7.000000e+00
      vertex   0.000000e+00 -5.750000e+00 0.000000e+00
    endloop
  endfacet
  facet normal 1.305262e-01 9.914449e-01 0.000000e+00
    outer loop
      vertex   0.000000e+00 -5.750000e+00 0.000000e+00
      vertex   -1.488210e+00 -5.554074e+00 0.000000e+00
      vertex   -1.488210e+00 -5.554074e+00 7.000000e+00
    endloop
  endfacet
  facet normal 3.826834e-01 9.238795e-01 0.000000e+00
    outer loop
      vertex   -2.875000e+00 -4.979646e+00 7.000000e+00
      vertex   -1.488210e+00 -5.554074e+00 7.000000e+00
      vertex   -1.488210e+00 -5.554074e+00 0.000000e+00
    endloop
  endfacet
  facet normal 3.826834e-01 9.238795e-01 0.000000e+00
    outer loop
      vertex   -1.488210e+00 -5.554074e+00 0.000000e+00
      vertex   -2.875000e+00 -4.979646e+00 0.000000e+00
      vertex   -2.875000e+00 -4.979646e+00 7.000000e+00
    endloop
  endfacet
  facet normal 6.087614e-01 7.933533e-01 0.000000e+00
    outer loop
      vertex   -4.065864e+00 -4.065864e+00 7.000000e+00
      vertex   -2.875000e+00 -4.979646e+00 7.000000e+00
      vertex   -2.875000e+00 -4.979646e+00 0.000000e+00
    endloop
  endfacet
  facet normal 6.087614e-01 7.933533e-01 0.000000e+00
    outer loop
      vertex   -2.875000e+00 -4.979646e+00 0.000000e+00
      vertex   -4.065864e+00 -4.065864e+00 0.000000e+00
      vertex   -4.065864e+00 -4.065864e+00 7.000000e+00
    endloop
  endfacet
  facet normal 7.933533e-01 6.087614e-01 0.000000e+00
    outer loop
      vertex   -4.979646e+00 -2.875000e+00 7.000000e+00
      vertex   -4.065864e+00 -4.065864e+00 7.000000e+00
      vertex   -4.065864e+00 -4.065864e+00 0.000000e+00
    endloop
  endfacet
  facet normal 7.933533e-01 6.087614e-01 0.000000e+00
    outer loop
      vertex   -4.065864e+00 -4.065864e+00 0.000000e+00
      vertex   -4.979646e+00 -2.875000e+00 0.000000e+00
      vertex   -4.979646e+00 -2.875000e+00 7.000000e+00
    endloop
  endfacet
  facet normal 9.238795e-01 3.826834e-01 0.000000e+00
    outer loop
      vertex   -5.554074e+00 -1.488210e+00 7.000000e+00
      vertex   -4.979646e+00 -2.875000e+00 7.000000e+00
      vertex   -4.979646e+00 -2.875000e+00 0.000000e+00
    endloop
  endfacet
  facet normal 9.238795e-01 3.826834e-01 0.000000e+00
    outer loop
      vertex   -4.979646e+00 -2.875000e+00 0.000000e+00
      vertex   -5.554074e+00 -1.488210e+00 0.000000e+00
      vertex   -5.554074e+00 -1.488210e+00 7.000000e+00
    endloop
  endfacet
  facet normal 9.914449e-01 1.305262e-01 0.000000e+00
    outer loop
      vertex   -5.750000e+00 -1.628842e-15 7.000000e+00
      vertex   -5.554074e+00 -1.488210e+00 7.000000e+00
      vertex   -5.554074e+00 -1.488210e+00 0.000000e+00
    endloop
  endfacet
  facet normal 9.914449e-01 1.305262e-01 0.000000e+00
    outer loop
      vertex   -5.554074e+00 -1.488210e+00 0.000000e+00
      vertex   -5.750000e+00 -1.760430e-15 0.000000e+00
      vertex   -5.750000e+00 -1.628842e-15 7.000000e+00
    endloop
  endfacet
  facet normal 9.914449e-01 -1.305262e-01 -3.548318e-18
    outer loop
      vertex   -5.554074e+00 1.488210e+00 7.000000e+00
      vertex   -5.750000e+00 -1.628842e-15 7.000000e+00
      vertex   -5.750000e+00 -1.760430e-15 0.000000e+00
    endloop
  endfacet
  facet normal 9.914449e-01 -1.305262e-01 -3.548318e-18
    outer loop
      vertex   -5.750000e+00 -1.760430e-15 0.000000e+00
      vertex   -5.554074e+00 1.488210e+00 0.000000e+00
      vertex   -5.554074e+00 1.488210e+00 7.000000e+00
    endloop
  endfacet
  facet normal 9.238795e-01 -3.826834e-01 0.000000e+00
    outer loop
      vertex   -4.979646e+00 2.875000e+00 7.000000e+00
      vertex   -5.554074e+00 1.488210e+00 7.000000e+00
      vertex   -5.554074e+00 1.488210e+00 0.000000e+00
    endloop
  endfacet
  facet normal 9.238795e-01 -3.826834e-01 0.000000e+00
    outer loop
      vertex   -5.554074e+00 1.488210e+00 0.000000e+00
      vertex   -4.979646e+00 2.875000e+00 0.000000e+00
      vertex   -4.979646e+00 2.875000e+00 7.000000e+00
    endloop
  endfacet
  facet normal 7.933533e-01 -6.087614e-01 2.838654e-17
    outer loop
      vertex   -4.065864e+00 4.065864e+00 7.000000e+00
      vertex   -4.979646e+00 2.875000e+00 7.000000e+00
      vertex   -4.979646e+00 2.875000e+00 0.000000e+00
    endloop
  endfacet
  facet normal 7.933533e-01 -6.087614e-01 2.838654e-17
    outer loop
      vertex   -4.979646e+00 2.875000e+00 0.000000e+00
      vertex   -4.065864e+00 4.065864e+00 0.000000e+00
      vertex   -4.065864e+00 4.065864e+00 7.000000e+00
    endloop
  endfacet
  facet normal 6.087614e-01 -7.933533e-01 0.000000e+00
    outer loop
      vertex   -2.875000e+00 4.979646e+00 7.000000e+00
      vertex   -4.065864e+00 4.065864e+00 7.000000e+00
      vertex   -4.065864e+00 4.065864e+00 0.000000e+00
    endloop
  endfacet
  facet normal 6.087614e-01 -7.933533e-01 0.000000e+00
    outer loop
      vertex   -4.065864e+00 4.065864e+00 0.000000e+00
      vertex   -2.875000e+00 4.979646e+00 0.000000e+00
      vertex   -2.875000e+00 4.979646e+00 7.000000e+00
    endloop
  endfacet
  facet normal 3.826834e-01 -9.238795e-01 0.000000e+00
    outer loop
      vertex   -1.488210e+00 5.554074e+00 7.000000e+00
      vertex   -2.875000e+00 4.979646e+00 7.000000e+00
      vertex   -2.875000e+00 4.979646e+00 0.000000e+00
    endloop
  endfacet
  facet normal 3.826834e-01 -9.238795e-01 0.000000e+00
    outer loop
      vertex   -2.875000e+00 4.979646e+00 0.000000e+00
      vertex   -1.488210e+00 5.554074e+00 0.000000e+00
      vertex   -1.488210e+00 5.554074e+00 7.000000e+00
    endloop
  endfacet
  facet normal 1.305262e-01 -9.914449e-01 -3.548318e-18
    outer loop
      vertex   -3.257685e-15 5.750000e+00 7.000000e+00
      vertex   -1.488210e+00 5.554074e+00 7.000000e+00
      vertex   -1.488210e+00 5.554074e+00 0.000000e+00
    endloop
  endfacet
  facet normal 1.305262e-01 -9.914449e-01 -3.548318e-18
    outer loop
      vertex   -1.488210e+00 5.554074e+00 0.000000e+00
      vertex   -3.257685e-15 5.750000e+00 0.000000e+00
      vertex   -3.257685e-15 5.750000e+00 7.000000e+00
    endloop
  endfacet
  facet normal -1.305262e-01 -9.914449e-01 0.000000e+00
    outer loop
      vertex   1.488210e+00 5.554074e+00 7.000000e+00
      vertex   -3.257685e-15 5.750000e+00 7.000000e+00
      vertex   -3.257685e-15 5.750000e+00 0.000000e+00
    endloop
  endfacet
  facet normal -1.305262e-01 -9.914449e-01 0.000000e+00
    outer loop
      vertex   -3.257685e-15 5.750000e+00 0.000000e+00
      vertex   1.488210e+00 5.554074e+00 0.000000e+00
      vertex   1.488210e+00 5.554074e+00 7.000000e+00
    endloop
  endfacet
  facet normal -3.826834e-01 -9.238795e-01 0.000000e+00
    outer loop
      vertex   2.875000e+00 4.979646e+00 7.000000e+00
      vertex   1.488210e+00 5.554074e+00 7.000000e+00
      vertex   1.488210e+00 5.554074e+00 0.000000e+00
    endloop
  endfacet
  facet normal -3.826834e-01 -9.238795e-01 0.000000e+00
    outer loop
      vertex   1.488210e+00 5.554074e+00 0.000000e+00
      vertex   2.875000e+00 4.979646e+00 0.000000e+00
      vertex   2.875000e+00 4.979646e+00 7.000000e+00
    endloop
  endfacet
  facet normal -6.087614e-01 -7.933533e-01 2.838654e-17
    outer loop
      vertex   4.065864e+00 4.065864e+00 7.000000e+00
      vertex   2.875000e+00 4.979646e+00 7.000000e+00
      vertex   2.875000e+00 4.979646e+00 0.000000e+00
    endloop
  endfacet
  facet normal -6.087614e-01 -7.933533e-01 2.838654e-17
    outer loop
      vertex   2.875000e+00 4.979646e+00 0.000000e+00
      vertex   4.065864e+00 4.065864e+00 0.000000e+00
      vertex   4.065864e+00 4.065864e+00 7.000000e+00
    endloop
  endfacet
  facet normal -7.933533e-01 -6.087614e-01 -1.419327e-17
    outer loop
      vertex   4.979646e+00 2.875000e+00 7.000000e+00
      vertex   4.065864e+00 4.065864e+00 7.000000e+00
      vertex   4.065864e+00 4.065864e+00 0.000000e+00
    endloop
  endfacet
  facet normal -7.933533e-01 -6.087614e-01 -1.419327e-17
    outer loop
      vertex   4.065864e+00 4.065864e+00 0.000000e+00
      vertex   4.979646e+00 2.875000e+00 0.000000e+00
      vertex   4.979646e+00 2.875000e+00 7.000000e+00
    endloop
  endfacet
  facet normal -9.238795e-01 -3.826834e-01 -1.419327e-17
    outer loop
      vertex   5.554074e+00 1.488210e+00 7.000000e+00
      vertex   4.979646e+00 2.875000e+00 7.000000e+00
      vertex   4.979646e+00 2.875000e+00 0.000000e+00
    endloop
  endfacet
  facet normal -9.238795e-01 -3.826834e-01 -1.419327e-17
    outer loop
      vertex   4.979646e+00 2.875000e+00 0.000000e+00
      vertex   5.554074e+00 1.488210e+00 0.000000e+00
      vertex   5.554074e+00 1.488210e+00 7.000000e+00
    endloop
  endfacet
  facet normal -9.914449e-01 -1.305262e-01 3.548318e-18
    outer loop
      vertex   5.750000e+00 6.163284e-15 7.000000e+00
      vertex   5.554074e+00 1.488210e+00 7.000000e+00
      vertex   5.554074e+00 1.488210e+00 0.000000e+00
    endloop
  endfacet
  facet normal -9.914449e-01 -1.305262e-01 3.548318e-18
    outer loop
      vertex   5.554074e+00 1.488210e+00 0.000000e+00
      vertex   5.750000e+00 6.163284e-15 0.000000e+00
      vertex   5.750000e+00 6.163284e-15 7.000000e+00
    endloop
  endfacet
  facet normal -9.914449e-01 1.305262e-01 -7.096636e-18
    outer loop
      vertex   5.554074e+00 -1.488210e+00 7.000000e+00
      vertex   5.750000e+00 6.163284e-15 7.000000e+00
      vertex   5.750000e+00 6.163284e-15 0.000000e+00
    endloop
  endfacet
  facet normal -9.914449e-01 1.305262e-01 -7.096636e-18
    outer loop
      vertex   5.750000e+00 6.163284e-15 0.000000e+00
      vertex   5.554074e+00 -1.488210e+00 0.000000e+00
      vertex   5.554074e+00 -1.488210e+00 7.000000e+00
    endloop
  endfacet
  facet normal -9.238795e-01 3.826834e-01 1.419327e-17
    outer loop
      vertex   4.979646e+00 -2.875000e+00 7.000000e+00
      vertex   5.554074e+00 -1.488210e+00 7.000000e+00
      vertex   5.554074e+00 -1.488210e+00 0.000000e+00
    endloop
  endfacet
  facet normal -9.238795e-01 3.826834e-01 1.419327e-17
    outer loop
      vertex   5.554074e+00 -1.488210e+00 0.000000e+00
      vertex   4.979646e+00 -2.875000e+00 0.000000e+00
      vertex   4.979646e+00 -2.875000e+00 7.000000e+00
    endloop
  endfacet
  facet normal -7.933533e-01 6.087614e-01 0.000000e+00
    outer loop
      vertex   4.065864e+00 -4.065864e+00 7.000000e+00
      vertex   4.979646e+00 -2.875000e+00 7.000000e+00
      vertex   4.979646e+00 -2.875000e+00 0.000000e+00
    endloop
  endfacet
  facet normal -7.933533e-01 6.087614e-01 0.000000e+00
    outer loop
      vertex   4.979646e+00 -2.875000e+00 0.000000e+00
      vertex   4.065864e+00 -4.065864e+00 0.000000e+00
      vertex   4.065864e+00 -4.065864e+00 7.000000e+00
    endloop
  endfacet
  facet normal -6.087614e-01 7.933533e-01 1.419327e-17
    outer loop
      vertex   2.875000e+00 -4.979646e+00 7.000000e+00
      vertex   4.065864e+00 -4.065864e+00 7.000000e+00
      vertex   4.065864e+00 -4.065864e+00 0.000000e+00
    endloop
  endfacet
  facet normal -6.087614e-01 7.933533e-01 1.419327e-17
    outer loop
      vertex   4.065864e+00 -4.065864e+00 0.000000e+00
      vertex   2.875000e+00 -4.979646e+00 0.000000e+00
      vertex   2.875000e+00 -4.979646e+00 7.000000e+00
    endloop
  endfacet
  facet normal -3.826834e-01 9.238795e-01 -1.419327e-17
    outer loop
      vertex   1.488210e+00 -5.554074e+00 7.000000e+00
      vertex   2.875000e+00 -4.979646e+00 7.000000e+00
      vertex   2.875000e+00 -4.979646e+00 0.000000e+00
    endloop
  endfacet
  facet normal -3.826834e-01 9.238795e-01 -1.419327e-17
    outer loop
      vertex   2.875000e+00 -4.979646e+00 0.000000e+00
      vertex   1.488210e+00 -5.554074e+00 0.000000e+00
      vertex   1.488210e+00 -5.554074e+00 7.000000e+00
    endloop
  endfacet
  facet normal -1.305262e-01 9.914449e-01 0.000000e+00
    outer loop
      vertex   0.000000e+00 -5.750000e+00 7.000000e+00
      vertex   1.488210e+00 -5.554074e+00 7.000000e+00
      vertex   1.488210e+00 -5.554074e+00 0.000000e+00
    endloop
  endfacet
  facet normal -1.305262e-01 9.914449e-01 0.000000e+00
    outer loop
      vertex   1.488210e+00 -5.554074e+00 0.000000e+00
      vertex   0.000000e+00 -5.750000e+00 0.000000e+00
      vertex   0.000000e+00 -5.750000e+00 7.000000e+00
    endloop
  endfacet
endsolid
