solid ascii
  facet normal -9.781476e-01 2.079117e-01 0.000000e+00
    outer loop
      vertex   -1.827091e+00 8.134733e-01 3.000000e+01
      vertex   -1.827091e+00 8.134733e-01 0.000000e+00
      vertex   -2.000000e+00 0.000000e+00 0.000000e+00
    endloop
  endfacet
  facet normal -8.090170e-01 5.877853e-01 0.000000e+00
    outer loop
      vertex   -1.827091e+00 8.134733e-01 0.000000e+00
      vertex   -1.827091e+00 8.134733e-01 3.000000e+01
      vertex   -1.338261e+00 1.486290e+00 3.000000e+01
    endloop
  endfacet
  facet normal -8.090170e-01 5.877853e-01 0.000000e+00
    outer loop
      vertex   -1.338261e+00 1.486290e+00 3.000000e+01
      vertex   -1.338261e+00 1.486290e+00 0.000000e+00
      vertex   -1.827091e+00 8.134733e-01 0.000000e+00
    endloop
  endfacet
  facet normal -5.000000e-01 8.660254e-01 0.000000e+00
    outer loop
      vertex   -1.338261e+00 1.486290e+00 0.000000e+00
      vertex   -1.338261e+00 1.486290e+00 3.000000e+01
      vertex   -6.180340e-01 1.902113e+00 3.000000e+01
    endloop
  endfacet
  facet normal -5.000000e-01 8.660254e-01 0.000000e+00
    outer loop
      vertex   -6.180340e-01 1.902113e+00 3.000000e+01
      vertex   -6.180340e-01 1.902113e+00 0.000000e+00
      vertex   -1.338261e+00 1.486290e+00 0.000000e+00
    endloop
  endfacet
  facet normal -1.045285e-01 9.945219e-01 0.000000e+00
    outer loop
      vertex   -6.180340e-01 1.902113e+00 0.000000e+00
      vertex   -6.180340e-01 1.902113e+00 3.000000e+01
      vertex   2.090569e-01 1.989044e+00 3.000000e+01
    endloop
  endfacet
  facet normal -1.045285e-01 9.945219e-01 0.000000e+00
    outer loop
      vertex   2.090569e-01 1.989044e+00 3.000000e+01
      vertex   2.090569e-01 1.989044e+00 0.000000e+00
      vertex   -6.180340e-01 1.902113e+00 0.000000e+00
    endloop
  endfacet
  facet normal 3.090170e-01 9.510565e-01 -0.000000e+00
    outer loop
      vertex   2.090569e-01 1.989044e+00 0.000000e+00
      vertex   2.090569e-01 1.989044e+00 3.000000e+01
      vertex   1.000000e+00 1.732051e+00 3.000000e+01
    endloop
  endfacet
  facet normal 3.090170e-01 9.510565e-01 0.000000e+00
    outer loop
      vertex   1.000000e+00 1.732051e+00 3.000000e+01
      vertex   1.000000e+00 1.732051e+00 0.000000e+00
      vertex   2.090569e-01 1.989044e+00 0.000000e+00
    endloop
  endfacet
  facet normal 6.691306e-01 7.431448e-01 -0.000000e+00
    outer loop
      vertex   1.000000e+00 1.732051e+00 0.000000e+00
      vertex   1.000000e+00 1.732051e+00 3.000000e+01
      vertex   1.618034e+00 1.175571e+00 3.000000e+01
    endloop
  endfacet
  facet normal 6.691306e-01 7.431448e-01 0.000000e+00
    outer loop
      vertex   1.618034e+00 1.175571e+00 3.000000e+01
      vertex   1.618034e+00 1.175571e+00 0.000000e+00
      vertex   1.000000e+00 1.732051e+00 0.000000e+00
    endloop
  endfacet
  facet normal 9.135455e-01 4.067366e-01 -0.000000e+00
    outer loop
      vertex   1.618034e+00 1.175571e+00 0.000000e+00
      vertex   1.618034e+00 1.175571e+00 3.000000e+01
      vertex   1.956295e+00 4.158234e-01 3.000000e+01
    endloop
  endfacet
  facet normal 9.135455e-01 4.067366e-01 0.000000e+00
    outer loop
      vertex   1.956295e+00 4.158234e-01 3.000000e+01
      vertex   1.956295e+00 4.158234e-01 0.000000e+00
      vertex   1.618034e+00 1.175571e+00 0.000000e+00
    endloop
  endfacet
  facet normal 1.000000e+00 5.214724e-16 -0.000000e+00
    outer loop
      vertex   1.956295e+00 4.158234e-01 0.000000e+00
      vertex   1.956295e+00 4.158234e-01 3.000000e+01
      vertex   1.956295e+00 -4.158234e-01 3.000000e+01
    endloop
  endfacet
  facet normal 1.000000e+00 5.214724e-16 0.000000e+00
    outer loop
      vertex   1.956295e+00 -4.158234e-01 3.000000e+01
      vertex   1.956295e+00 -4.158234e-01 0.000000e+00
      vertex   1.956295e+00 4.158234e-01 0.000000e+00
    endloop
  endfacet
  facet normal 9.135455e-01 -4.067366e-01 0.000000e+00
    outer loop
      vertex   1.956295e+00 -4.158234e-01 0.000000e+00
      vertex   1.956295e+00 -4.158234e-01 3.000000e+01
      vertex   1.618034e+00 -1.175571e+00 3.000000e+01
    endloop
  endfacet
  facet normal 9.135455e-01 -4.067366e-01 0.000000e+00
    outer loop
      vertex   1.618034e+00 -1.175571e+00 3.000000e+01
      vertex   1.618034e+00 -1.175571e+00 0.000000e+00
      vertex   1.956295e+00 -4.158234e-01 0.000000e+00
    endloop
  endfacet
  facet normal 6.691306e-01 -7.431448e-01 0.000000e+00
    outer loop
      vertex   1.618034e+00 -1.175571e+00 0.000000e+00
      vertex   1.618034e+00 -1.175571e+00 3.000000e+01
      vertex   1.000000e+00 -1.732051e+00 3.000000e+01
    endloop
  endfacet
  facet normal 6.691306e-01 -7.431448e-01 0.000000e+00
    outer loop
      vertex   1.000000e+00 -1.732051e+00 3.000000e+01
      vertex   1.000000e+00 -1.732051e+00 0.000000e+00
      vertex   1.618034e+00 -1.175571e+00 0.000000e+00
    endloop
  endfacet
  facet normal 3.090170e-01 -9.510565e-01 0.000000e+00
    outer loop
      vertex   1.000000e+00 -1.732051e+00 0.000000e+00
      vertex   1.000000e+00 -1.732051e+00 3.000000e+01
      vertex   2.090569e-01 -1.989044e+00 3.000000e+01
    endloop
  endfacet
  facet normal 3.090170e-01 -9.510565e-01 0.000000e+00
    outer loop
      vertex   2.090569e-01 -1.989044e+00 3.000000e+01
      vertex   2.090569e-01 -1.989044e+00 0.000000e+00
      vertex   1.000000e+00 -1.732051e+00 0.000000e+00
    endloop
  endfacet
  facet normal -1.045285e-01 -9.945219e-01 0.000000e+00
    outer loop
      vertex   2.090569e-01 -1.989044e+00 0.000000e+00
      vertex   2.090569e-01 -1.989044e+00 3.000000e+01
      vertex   -6.180340e-01 -1.902113e+00 3.000000e+01
    endloop
  endfacet
  facet normal -1.045285e-01 -9.945219e-01 -0.000000e+00
    outer loop
      vertex   -6.180340e-01 -1.902113e+00 3.000000e+01
      vertex   -6.180340e-01 -1.902113e+00 0.000000e+00
      vertex   2.090569e-01 -1.989044e+00 0.000000e+00
    endloop
  endfacet
  facet normal -5.000000e-01 -8.660254e-01 0.000000e+00
    outer loop
      vertex   -6.180340e-01 -1.902113e+00 0.000000e+00
      vertex   -6.180340e-01 -1.902113e+00 3.000000e+01
      vertex   -1.338261e+00 -1.486290e+00 3.000000e+01
    endloop
  endfacet
  facet normal -5.000000e-01 -8.660254e-01 -0.000000e+00
    outer loop
      vertex   -1.338261e+00 -1.486290e+00 3.000000e+01
      vertex   -1.338261e+00 -1.486290e+00 0.000000e+00
      vertex   -6.180340e-01 -1.902113e+00 0.000000e+00
    endloop
  endfacet
  facet normal -8.090170e-01 -5.877853e-01 0.000000e+00
    outer loop
      vertex   -1.338261e+00 -1.486290e+00 0.000000e+00
      vertex   -1.338261e+00 -1.486290e+00 3.000000e+01
      vertex   -1.827091e+00 -8.134733e-01 3.000000e+01
    endloop
  endfacet
  facet normal -8.090170e-01 -5.877853e-01 -0.000000e+00
    outer loop
      vertex   -1.827091e+00 -8.134733e-01 3.000000e+01
      vertex   -1.827091e+00 -8.134733e-01 0.000000e+00
      vertex   -1.338261e+00 -1.486290e+00 0.000000e+00
    endloop
  endfacet
  facet normal -9.781476e-01 -2.079117e-01 0.000000e+00
    outer loop
      vertex   -1.827091e+00 -8.134733e-01 0.000000e+00
      vertex   -1.827091e+00 -8.134733e-01 3.000000e+01
      vertex   -2.000000e+00 -4.898587e-16 3.000000e+01
    endloop
  endfacet
  facet normal -9.781476e-01 -2.079117e-01 -3.394912e-18
    outer loop
      vertex   -2.000000e+00 -4.898587e-16 3.000000e+01
      vertex   -2.000000e+00 0.000000e+00 0.000000e+00
      vertex   -1.827091e+00 -8.134733e-01 0.000000e+00
    endloop
  endfacet
  facet normal -9.781476e-01 2.079117e-01 3.394912e-18
    outer loop
      vertex   -2.000000e+00 0.000000e+00 0.000000e+00
      vertex   -2.000000e+00 -4.898587e-16 3.000000e+01
      vertex   -1.827091e+00 8.134733e-01 3.000000e+01
    endloop
  endfacet
  facet normal 0.000000e+00 0.000000e+00 1.000000e+00
    outer loop
      vertex   -2.000000e+00 -4.898587e-16 3.000000e+01
      vertex   -1.827091e+00 -8.134733e-01 3.000000e+01
      vertex   -8.229839e-01 -5.680647e-01 3.000000e+01
    endloop
  endfacet
  facet normal 0.000000e+00 0.000000e+00 1.000000e+00
    outer loop
      vertex   -8.229839e-01 -5.680647e-01 3.000000e+01
      vertex   -1.827091e+00 -8.134733e-01 3.000000e+01
      vertex   -1.338261e+00 -1.486290e+00 3.000000e+01
    endloop
  endfacet
  facet normal 0.000000e+00 0.000000e+00 1.000000e+00
    outer loop
      vertex   -4.647232e-01 -8.854560e-01 3.000000e+01
      vertex   -8.229839e-01 -5.680647e-01 3.000000e+01
      vertex   -1.338261e+00 -1.486290e+00 3.000000e+01
    endloop
  endfacet
  facet normal -0.000000e+00 0.000000e+00 1.000000e+00
    outer loop
      vertex   -1.338261e+00 -1.486290e+00 3.000000e+01
      vertex   -6.180340e-01 -1.902113e+00 3.000000e+01
      vertex   -4.647232e-01 -8.854560e-01 3.000000e+01
    endloop
  endfacet
  facet normal 0.000000e+00 0.000000e+00 1.000000e+00
    outer loop
      vertex   2.449294e-16 -1.000000e+00 3.000000e+01
      vertex   -4.647232e-01 -8.854560e-01 3.000000e+01
      vertex   -6.180340e-01 -1.902113e+00 3.000000e+01
    endloop
  endfacet
  facet normal -0.000000e+00 0.000000e+00 1.000000e+00
    outer loop
      vertex   -6.180340e-01 -1.902113e+00 3.000000e+01
      vertex   2.090569e-01 -1.989044e+00 3.000000e+01
      vertex   2.449294e-16 -1.000000e+00 3.000000e+01
    endloop
  endfacet
  facet normal 0.000000e+00 0.000000e+00 1.000000e+00
    outer loop
      vertex   4.647232e-01 -8.854560e-01 3.000000e+01
      vertex   2.449294e-16 -1.000000e+00 3.000000e+01
      vertex   2.090569e-01 -1.989044e+00 3.000000e+01
    endloop
  endfacet
  facet normal 0.000000e+00 0.000000e+00 1.000000e+00
    outer loop
      vertex   2.090569e-01 -1.989044e+00 3.000000e+01
      vertex   1.000000e+00 -1.732051e+00 3.000000e+01
      vertex   4.647232e-01 -8.854560e-01 3.000000e+01
    endloop
  endfacet
  facet normal 0.000000e+00 0.000000e+00 1.000000e+00
    outer loop
      vertex   8.229839e-01 -5.680647e-01 3.000000e+01
      vertex   4.647232e-01 -8.854560e-01 3.000000e+01
      vertex   1.000000e+00 -1.732051e+00 3.000000e+01
    endloop
  endfacet
  facet normal 0.000000e+00 -0.000000e+00 1.000000e+00
    outer loop
      vertex   1.000000e+00 -1.732051e+00 3.000000e+01
      vertex   1.618034e+00 -1.175571e+00 3.000000e+01
      vertex   8.229839e-01 -5.680647e-01 3.000000e+01
    endloop
  endfacet
  facet normal 0.000000e+00 0.000000e+00 1.000000e+00
    outer loop
      vertex   9.927089e-01 -1.205367e-01 3.000000e+01
      vertex   8.229839e-01 -5.680647e-01 3.000000e+01
      vertex   1.618034e+00 -1.175571e+00 3.000000e+01
    endloop
  endfacet
  facet normal 0.000000e+00 -0.000000e+00 1.000000e+00
    outer loop
      vertex   1.618034e+00 -1.175571e+00 3.000000e+01
      vertex   1.956295e+00 -4.158234e-01 3.000000e+01
      vertex   9.927089e-01 -1.205367e-01 3.000000e+01
    endloop
  endfacet
  facet normal 0.000000e+00 0.000000e+00 1.000000e+00
    outer loop
      vertex   9.350162e-01 3.546049e-01 3.000000e+01
      vertex   9.927089e-01 -1.205367e-01 3.000000e+01
      vertex   1.956295e+00 -4.158234e-01 3.000000e+01
    endloop
  endfacet
  facet normal 0.000000e+00 0.000000e+00 1.000000e+00
    outer loop
      vertex   1.956295e+00 -4.158234e-01 3.000000e+01
      vertex   1.956295e+00 4.158234e-01 3.000000e+01
      vertex   9.350162e-01 3.546049e-01 3.000000e+01
    endloop
  endfacet
  facet normal 0.000000e+00 0.000000e+00 1.000000e+00
    outer loop
      vertex   6.631227e-01 7.485107e-01 3.000000e+01
      vertex   9.350162e-01 3.546049e-01 3.000000e+01
      vertex   1.956295e+00 4.158234e-01 3.000000e+01
    endloop
  endfacet
  facet normal 0.000000e+00 0.000000e+00 1.000000e+00
    outer loop
      vertex   1.956295e+00 4.158234e-01 3.000000e+01
      vertex   1.618034e+00 1.175571e+00 3.000000e+01
      vertex   6.631227e-01 7.485107e-01 3.000000e+01
    endloop
  endfacet
  facet normal 0.000000e+00 0.000000e+00 1.000000e+00
    outer loop
      vertex   1.618034e+00 1.175571e+00 3.000000e+01
      vertex   1.000000e+00 1.732051e+00 3.000000e+01
      vertex   6.631227e-01 7.485107e-01 3.000000e+01
    endloop
  endfacet
  facet normal -0.000000e+00 0.000000e+00 1.000000e+00
    outer loop
      vertex   2.393157e-01 9.709418e-01 3.000000e+01
      vertex   6.631227e-01 7.485107e-01 3.000000e+01
      vertex   1.000000e+00 1.732051e+00 3.000000e+01
    endloop
  endfacet
  facet normal 0.000000e+00 0.000000e+00 1.000000e+00
    outer loop
      vertex   1.000000e+00 1.732051e+00 3.000000e+01
      vertex   2.090569e-01 1.989044e+00 3.000000e+01
      vertex   2.393157e-01 9.709418e-01 3.000000e+01
    endloop
  endfacet
  facet normal 0.000000e+00 0.000000e+00 1.000000e+00
    outer loop
      vertex   -2.393157e-01 9.709418e-01 3.000000e+01
      vertex   2.393157e-01 9.709418e-01 3.000000e+01
      vertex   2.090569e-01 1.989044e+00 3.000000e+01
    endloop
  endfacet
  facet normal 0.000000e+00 0.000000e+00 1.000000e+00
    outer loop
      vertex   2.090569e-01 1.989044e+00 3.000000e+01
      vertex   -6.180340e-01 1.902113e+00 3.000000e+01
      vertex   -2.393157e-01 9.709418e-01 3.000000e+01
    endloop
  endfacet
  facet normal 0.000000e+00 0.000000e+00 1.000000e+00
    outer loop
      vertex   -6.631227e-01 7.485107e-01 3.000000e+01
      vertex   -2.393157e-01 9.709418e-01 3.000000e+01
      vertex   -6.180340e-01 1.902113e+00 3.000000e+01
    endloop
  endfacet
  facet normal 0.000000e+00 0.000000e+00 1.000000e+00
    outer loop
      vertex   -6.180340e-01 1.902113e+00 3.000000e+01
      vertex   -1.338261e+00 1.486290e+00 3.000000e+01
      vertex   -6.631227e-01 7.485107e-01 3.000000e+01
    endloop
  endfacet
  facet normal 0.000000e+00 -0.000000e+00 1.000000e+00
    outer loop
      vertex   -9.350162e-01 3.546049e-01 3.000000e+01
      vertex   -6.631227e-01 7.485107e-01 3.000000e+01
      vertex   -1.338261e+00 1.486290e+00 3.000000e+01
    endloop
  endfacet
  facet normal 0.000000e+00 0.000000e+00 1.000000e+00
    outer loop
      vertex   -1.338261e+00 1.486290e+00 3.000000e+01
      vertex   -1.827091e+00 8.134733e-01 3.000000e+01
      vertex   -9.350162e-01 3.546049e-01 3.000000e+01
    endloop
  endfacet
  facet normal 0.000000e+00 -0.000000e+00 1.000000e+00
    outer loop
      vertex   -1.000000e+00 -6.123234e-17 3.000000e+01
      vertex   -9.350162e-01 3.546049e-01 3.000000e+01
      vertex   -1.827091e+00 8.134733e-01 3.000000e+01
    endloop
  endfacet
  facet normal 0.000000e+00 0.000000e+00 1.000000e+00
    outer loop
      vertex   -1.827091e+00 8.134733e-01 3.000000e+01
      vertex   -2.000000e+00 -4.898587e-16 3.000000e+01
      vertex   -1.000000e+00 -6.123234e-17 3.000000e+01
    endloop
  endfacet
  facet normal -0.000000e+00 0.000000e+00 1.000000e+00
    outer loop
      vertex   -2.000000e+00 -4.898587e-16 3.000000e+01
      vertex   -9.927089e-01 -1.205367e-01 3.000000e+01
      vertex   -1.000000e+00 -6.123234e-17 3.000000e+01
    endloop
  endfacet
  facet normal 0.000000e+00 0.000000e+00 1.000000e+00
    outer loop
      vertex   -8.229839e-01 -5.680647e-01 3.000000e+01
      vertex   -9.927089e-01 -1.205367e-01 3.000000e+01
      vertex   -2.000000e+00 -4.898587e-16 3.000000e+01
    endloop
  endfacet
  facet normal 0.000000e+00 -0.000000e+00 -1.000000e+00
    outer loop
      vertex   -9.927089e-01 -1.205367e-01 0.000000e+00
      vertex   -8.229839e-01 -5.680647e-01 0.000000e+00
      vertex   -1.827091e+00 -8.134733e-01 0.000000e+00
    endloop
  endfacet
  facet normal 0.000000e+00 0.000000e+00 -1.000000e+00
    outer loop
      vertex   -1.827091e+00 -8.134733e-01 0.000000e+00
      vertex   -2.000000e+00 0.000000e+00 0.000000e+00
      vertex   -9.927089e-01 -1.205367e-01 0.000000e+00
    endloop
  endfacet
  facet normal 0.000000e+00 0.000000e+00 -1.000000e+00
    outer loop
      vertex   -2.000000e+00 0.000000e+00 0.000000e+00
      vertex   -1.000000e+00 -3.061617e-16 0.000000e+00
      vertex   -9.927089e-01 -1.205367e-01 0.000000e+00
    endloop
  endfacet
  facet normal 0.000000e+00 0.000000e+00 -1.000000e+00
    outer loop
      vertex   9.350162e-01 3.546049e-01 0.000000e+00
      vertex   6.631227e-01 7.485107e-01 0.000000e+00
      vertex   1.618034e+00 1.175571e+00 0.000000e+00
    endloop
  endfacet
  facet normal 0.000000e+00 -0.000000e+00 -1.000000e+00
    outer loop
      vertex   1.618034e+00 1.175571e+00 0.000000e+00
      vertex   1.956295e+00 4.158234e-01 0.000000e+00
      vertex   9.350162e-01 3.546049e-01 0.000000e+00
    endloop
  endfacet
  facet normal 0.000000e+00 0.000000e+00 -1.000000e+00
    outer loop
      vertex   9.927089e-01 -1.205367e-01 0.000000e+00
      vertex   9.350162e-01 3.546049e-01 0.000000e+00
      vertex   1.956295e+00 4.158234e-01 0.000000e+00
    endloop
  endfacet
  facet normal 0.000000e+00 -0.000000e+00 -1.000000e+00
    outer loop
      vertex   1.956295e+00 4.158234e-01 0.000000e+00
      vertex   1.956295e+00 -4.158234e-01 0.000000e+00
      vertex   9.927089e-01 -1.205367e-01 0.000000e+00
    endloop
  endfacet
  facet normal 0.000000e+00 0.000000e+00 -1.000000e+00
    outer loop
      vertex   8.229839e-01 -5.680647e-01 0.000000e+00
      vertex   9.927089e-01 -1.205367e-01 0.000000e+00
      vertex   1.956295e+00 -4.158234e-01 0.000000e+00
    endloop
  endfacet
  facet normal 0.000000e+00 0.000000e+00 -1.000000e+00
    outer loop
      vertex   1.956295e+00 -4.158234e-01 0.000000e+00
      vertex   1.618034e+00 -1.175571e+00 0.000000e+00
      vertex   8.229839e-01 -5.680647e-01 0.000000e+00
    endloop
  endfacet
  facet normal 0.000000e+00 0.000000e+00 -1.000000e+00
    outer loop
      vertex   4.647232e-01 -8.854560e-01 0.000000e+00
      vertex   8.229839e-01 -5.680647e-01 0.000000e+00
      vertex   1.618034e+00 -1.175571e+00 0.000000e+00
    endloop
  endfacet
  facet normal -0.000000e+00 0.000000e+00 -1.000000e+00
    outer loop
      vertex   1.618034e+00 -1.175571e+00 0.000000e+00
      vertex   1.000000e+00 -1.732051e+00 0.000000e+00
      vertex   4.647232e-01 -8.854560e-01 0.000000e+00
    endloop
  endfacet
  facet normal 0.000000e+00 0.000000e+00 -1.000000e+00
    outer loop
      vertex   2.449294e-16 -1.000000e+00 0.000000e+00
      vertex   4.647232e-01 -8.854560e-01 0.000000e+00
      vertex   1.000000e+00 -1.732051e+00 0.000000e+00
    endloop
  endfacet
  facet normal -0.000000e+00 0.000000e+00 -1.000000e+00
    outer loop
      vertex   1.000000e+00 -1.732051e+00 0.000000e+00
      vertex   2.090569e-01 -1.989044e+00 0.000000e+00
      vertex   2.449294e-16 -1.000000e+00 0.000000e+00
    endloop
  endfacet
  facet normal 0.000000e+00 0.000000e+00 -1.000000e+00
    outer loop
      vertex   -4.647232e-01 -8.854560e-01 0.000000e+00
      vertex   2.449294e-16 -1.000000e+00 0.000000e+00
      vertex   2.090569e-01 -1.989044e+00 0.000000e+00
    endloop
  endfacet
  facet normal 0.000000e+00 0.000000e+00 -1.000000e+00
    outer loop
      vertex   2.090569e-01 -1.989044e+00 0.000000e+00
      vertex   -6.180340e-01 -1.902113e+00 0.000000e+00
      vertex   -4.647232e-01 -8.854560e-01 0.000000e+00
    endloop
  endfacet
  facet normal 0.000000e+00 0.000000e+00 -1.000000e+00
    outer loop
      vertex   -8.229839e-01 -5.680647e-01 0.000000e+00
      vertex   -4.647232e-01 -8.854560e-01 0.000000e+00
      vertex   -6.180340e-01 -1.902113e+00 0.000000e+00
    endloop
  endfacet
  facet normal 0.000000e+00 0.000000e+00 -1.000000e+00
    outer loop
      vertex   -6.180340e-01 -1.902113e+00 0.000000e+00
      vertex   -1.338261e+00 -1.486290e+00 0.000000e+00
      vertex   -8.229839e-01 -5.680647e-01 0.000000e+00
    endloop
  endfacet
  facet normal 0.000000e+00 0.000000e+00 -1.000000e+00
    outer loop
      vertex   -1.338261e+00 -1.486290e+00 0.000000e+00
      vertex   -1.827091e+00 -8.134733e-01 0.000000e+00
      vertex   -8.229839e-01 -5.680647e-01 0.000000e+00
    endloop
  endfacet
  facet normal 0.000000e+00 0.000000e+00 -1.000000e+00
    outer loop
      vertex   -9.350162e-01 3.546049e-01 0.000000e+00
      vertex   -1.000000e+00 -3.061617e-16 0.000000e+00
      vertex   -2.000000e+00 0.000000e+00 0.000000e+00
    endloop
  endfacet
  facet normal 0.000000e+00 0.000000e+00 -1.000000e+00
    outer loop
      vertex   -2.000000e+00 0.000000e+00 0.000000e+00
      vertex   -1.827091e+00 8.134733e-01 0.000000e+00
      vertex   -9.350162e-01 3.546049e-01 0.000000e+00
    endloop
  endfacet
  facet normal -0.000000e+00 0.000000e+00 -1.000000e+00
    outer loop
      vertex   -6.631227e-01 7.485107e-01 0.000000e+00
      vertex   -9.350162e-01 3.546049e-01 0.000000e+00
      vertex   -1.827091e+00 8.134733e-01 0.000000e+00
    endloop
  endfacet
  facet normal 0.000000e+00 0.000000e+00 -1.000000e+00
    outer loop
      vertex   -1.827091e+00 8.134733e-01 0.000000e+00
      vertex   -1.338261e+00 1.486290e+00 0.000000e+00
      vertex   -6.631227e-01 7.485107e-01 0.000000e+00
    endloop
  endfacet
  facet normal -0.000000e+00 0.000000e+00 -1.000000e+00
    outer loop
      vertex   -2.393157e-01 9.709418e-01 0.000000e+00
      vertex   -6.631227e-01 7.485107e-01 0.000000e+00
      vertex   -1.338261e+00 1.486290e+00 0.000000e+00
    endloop
  endfacet
  facet normal 0.000000e+00 0.000000e+00 -1.000000e+00
    outer loop
      vertex   -1.338261e+00 1.486290e+00 0.000000e+00
      vertex   -6.180340e-01 1.902113e+00 0.000000e+00
      vertex   -2.393157e-01 9.709418e-01 0.000000e+00
    endloop
  endfacet
  facet normal -0.000000e+00 0.000000e+00 -1.000000e+00
    outer loop
      vertex   2.393157e-01 9.709418e-01 0.000000e+00
      vertex   -2.393157e-01 9.709418e-01 0.000000e+00
      vertex   -6.180340e-01 1.902113e+00 0.000000e+00
    endloop
  endfacet
  facet normal 0.000000e+00 0.000000e+00 -1.000000e+00
    outer loop
      vertex   -6.180340e-01 1.902113e+00 0.000000e+00
      vertex   2.090569e-01 1.989044e+00 0.000000e+00
      vertex   2.393157e-01 9.709418e-01 0.000000e+00
    endloop
  endfacet
  facet normal 0.000000e+00 0.000000e+00 -1.000000e+00
    outer loop
      vertex   6.631227e-01 7.485107e-01 0.000000e+00
      vertex   2.393157e-01 9.709418e-01 0.000000e+00
      vertex   2.090569e-01 1.989044e+00 0.000000e+00
    endloop
  endfacet
  facet normal 0.000000e+00 0.000000e+00 -1.000000e+00
    outer loop
      vertex   2.090569e-01 1.989044e+00 0.000000e+00
      vertex   1.000000e+00 1.732051e+00 0.000000e+00
      vertex   6.631227e-01 7.485107e-01 0.000000e+00
    endloop
  endfacet
  facet normal 0.000000e+00 0.000000e+00 -1.000000e+00
    outer loop
      vertex   6.631227e-01 7.485107e-01 0.000000e+00
      vertex   1.000000e+00 1.732051e+00 0.000000e+00
      vertex   1.618034e+00 1.175571e+00 0.000000e+00
    endloop
  endfacet
  facet normal 2.393157e-01 9.709418e-01 0.000000e+00
    outer loop
      vertex   -4.647232e-01 -8.854560e-01 3.000000e+01
      vertex   2.449294e-16 -1.000000e+00 3.000000e+01
      vertex   2.449294e-16 -1.000000e+00 0.000000e+00
    endloop
  endfacet
  facet normal 2.393157e-01 9.709418e-01 0.000000e+00
    outer loop
      vertex   2.449294e-16 -1.000000e+00 0.000000e+00
      vertex   -4.647232e-01 -8.854560e-01 0.000000e+00
      vertex   -4.647232e-01 -8.854560e-01 3.000000e+01
    endloop
  endfacet
  facet normal 6.631227e-01 7.485107e-01 0.000000e+00
    outer loop
      vertex   -8.229839e-01 -5.680647e-01 3.000000e+01
      vertex   -4.647232e-01 -8.854560e-01 3.000000e+01
      vertex   -4.647232e-01 -8.854560e-01 0.000000e+00
    endloop
  endfacet
  facet normal 6.631227e-01 7.485107e-01 0.000000e+00
    outer loop
      vertex   -4.647232e-01 -8.854560e-01 0.000000e+00
      vertex   -8.229839e-01 -5.680647e-01 0.000000e+00
      vertex   -8.229839e-01 -5.680647e-01 3.000000e+01
    endloop
  endfacet
  facet normal 9.350162e-01 3.546049e-01 8.674721e-19
    outer loop
      vertex   -9.927089e-01 -1.205367e-01 3.000000e+01
      vertex   -8.229839e-01 -5.680647e-01 3.000000e+01
      vertex   -8.229839e-01 -5.680647e-01 0.000000e+00
    endloop
  endfacet
  facet normal 9.350162e-01 3.546049e-01 8.674721e-19
    outer loop
      vertex   -8.229839e-01 -5.680647e-01 0.000000e+00
      vertex   -9.927089e-01 -1.205367e-01 0.000000e+00
      vertex   -9.927089e-01 -1.205367e-01 3.000000e+01
    endloop
  endfacet
  facet normal 9.981756e-01 6.037850e-02 2.710527e-20
    outer loop
      vertex   -1.000000e+00 -6.123234e-17 3.000000e+01
      vertex   -9.927089e-01 -1.205367e-01 3.000000e+01
      vertex   -9.927089e-01 -1.205367e-01 0.000000e+00
    endloop
  endfacet
  facet normal 9.981756e-01 6.037850e-02 -4.607897e-19
    outer loop
      vertex   -9.927089e-01 -1.205367e-01 0.000000e+00
      vertex   -1.000000e+00 -3.061617e-16 0.000000e+00
      vertex   -1.000000e+00 -6.123234e-17 3.000000e+01
    endloop
  endfacet
  facet normal 9.836199e-01 -1.802550e-01 1.301137e-18
    outer loop
      vertex   -9.350162e-01 3.546049e-01 3.000000e+01
      vertex   -1.000000e+00 -6.123234e-17 3.000000e+01
      vertex   -1.000000e+00 -3.061617e-16 0.000000e+00
    endloop
  endfacet
  facet normal 9.836199e-01 -1.802550e-01 -4.337122e-19
    outer loop
      vertex   -1.000000e+00 -3.061617e-16 0.000000e+00
      vertex   -9.350162e-01 3.546049e-01 0.000000e+00
      vertex   -9.350162e-01 3.546049e-01 3.000000e+01
    endloop
  endfacet
  facet normal 8.229839e-01 -5.680647e-01 0.000000e+00
    outer loop
      vertex   -6.631227e-01 7.485107e-01 3.000000e+01
      vertex   -9.350162e-01 3.546049e-01 3.000000e+01
      vertex   -9.350162e-01 3.546049e-01 0.000000e+00
    endloop
  endfacet
  facet normal 8.229839e-01 -5.680647e-01 0.000000e+00
    outer loop
      vertex   -9.350162e-01 3.546049e-01 0.000000e+00
      vertex   -6.631227e-01 7.485107e-01 0.000000e+00
      vertex   -6.631227e-01 7.485107e-01 3.000000e+01
    endloop
  endfacet
  facet normal 4.647232e-01 -8.854560e-01 0.000000e+00
    outer loop
      vertex   -2.393157e-01 9.709418e-01 3.000000e+01
      vertex   -6.631227e-01 7.485107e-01 3.000000e+01
      vertex   -6.631227e-01 7.485107e-01 0.000000e+00
    endloop
  endfacet
  facet normal 4.647232e-01 -8.854560e-01 0.000000e+00
    outer loop
      vertex   -6.631227e-01 7.485107e-01 0.000000e+00
      vertex   -2.393157e-01 9.709418e-01 0.000000e+00
      vertex   -2.393157e-01 9.709418e-01 3.000000e+01
    endloop
  endfacet
  facet normal 6.795641e-16 -1.000000e+00 0.000000e+00
    outer loop
      vertex   2.393157e-01 9.709418e-01 3.000000e+01
      vertex   -2.393157e-01 9.709418e-01 3.000000e+01
      vertex   -2.393157e-01 9.709418e-01 0.000000e+00
    endloop
  endfacet
  facet normal 6.795641e-16 -1.000000e+00 0.000000e+00
    outer loop
      vertex   -2.393157e-01 9.709418e-01 0.000000e+00
      vertex   2.393157e-01 9.709418e-01 0.000000e+00
      vertex   2.393157e-01 9.709418e-01 3.000000e+01
    endloop
  endfacet
  facet normal -4.647232e-01 -8.854560e-01 0.000000e+00
    outer loop
      vertex   6.631227e-01 7.485107e-01 3.000000e+01
      vertex   2.393157e-01 9.709418e-01 3.000000e+01
      vertex   2.393157e-01 9.709418e-01 0.000000e+00
    endloop
  endfacet
  facet normal -4.647232e-01 -8.854560e-01 0.000000e+00
    outer loop
      vertex   2.393157e-01 9.709418e-01 0.000000e+00
      vertex   6.631227e-01 7.485107e-01 0.000000e+00
      vertex   6.631227e-01 7.485107e-01 3.000000e+01
    endloop
  endfacet
  facet normal -8.229839e-01 -5.680647e-01 0.000000e+00
    outer loop
      vertex   9.350162e-01 3.546049e-01 3.000000e+01
      vertex   6.631227e-01 7.485107e-01 3.000000e+01
      vertex   6.631227e-01 7.485107e-01 0.000000e+00
    endloop
  endfacet
  facet normal -8.229839e-01 -5.680647e-01 0.000000e+00
    outer loop
      vertex   6.631227e-01 7.485107e-01 0.000000e+00
      vertex   9.350162e-01 3.546049e-01 0.000000e+00
      vertex   9.350162e-01 3.546049e-01 3.000000e+01
    endloop
  endfacet
  facet normal -9.927089e-01 -1.205367e-01 -4.337361e-19
    outer loop
      vertex   9.927089e-01 -1.205367e-01 3.000000e+01
      vertex   9.350162e-01 3.546049e-01 3.000000e+01
      vertex   9.350162e-01 3.546049e-01 0.000000e+00
    endloop
  endfacet
  facet normal -9.927089e-01 -1.205367e-01 -4.337361e-19
    outer loop
      vertex   9.350162e-01 3.546049e-01 0.000000e+00
      vertex   9.927089e-01 -1.205367e-01 0.000000e+00
      vertex   9.927089e-01 -1.205367e-01 3.000000e+01
    endloop
  endfacet
  facet normal -9.350162e-01 3.546049e-01 0.000000e+00
    outer loop
      vertex   8.229839e-01 -5.680647e-01 3.000000e+01
      vertex   9.927089e-01 -1.205367e-01 3.000000e+01
      vertex   9.927089e-01 -1.205367e-01 0.000000e+00
    endloop
  endfacet
  facet normal -9.350162e-01 3.546049e-01 0.000000e+00
    outer loop
      vertex   9.927089e-01 -1.205367e-01 0.000000e+00
      vertex   8.229839e-01 -5.680647e-01 0.000000e+00
      vertex   8.229839e-01 -5.680647e-01 3.000000e+01
    endloop
  endfacet
  facet normal -6.631227e-01 7.485107e-01 1.734944e-18
    outer loop
      vertex   4.647232e-01 -8.854560e-01 3.000000e+01
      vertex   8.229839e-01 -5.680647e-01 3.000000e+01
      vertex   8.229839e-01 -5.680647e-01 0.000000e+00
    endloop
  endfacet
  facet normal -6.631227e-01 7.485107e-01 1.734944e-18
    outer loop
      vertex   8.229839e-01 -5.680647e-01 0.000000e+00
      vertex   4.647232e-01 -8.854560e-01 0.000000e+00
      vertex   4.647232e-01 -8.854560e-01 3.000000e+01
    endloop
  endfacet
  facet normal -2.393157e-01 9.709418e-01 4.337361e-19
    outer loop
      vertex   2.449294e-16 -1.000000e+00 3.000000e+01
      vertex   4.647232e-01 -8.854560e-01 3.000000e+01
      vertex   4.647232e-01 -8.854560e-01 0.000000e+00
    endloop
  endfacet
  facet normal -2.393157e-01 9.709418e-01 4.337361e-19
    outer loop
      vertex   4.647232e-01 -8.854560e-01 0.000000e+00
      vertex   2.449294e-16 -1.000000e+00 0.000000e+00
      vertex   2.449294e-16 -1.000000e+00 3.000000e+01
    endloop
  endfacet
endsolid
