solid ascii
  facet normal 1.000000e+00 0.000000e+00 -0.000000e+00
    outer loop
      vertex   8.000000e+00 1.200000e+01 0.000000e+00
      vertex   8.000000e+00 1.200000e+01 8.000000e+00
      vertex   8.000000e+00 2.000000e+00 8.000000e+00
    endloop
  endfacet
  facet normal 1.000000e+00 0.000000e+00 0.000000e+00
    outer loop
      vertex   8.000000e+00 2.000000e+00 8.000000e+00
      vertex   8.000000e+00 2.000000e+00 0.000000e+00
      vertex   8.000000e+00 1.200000e+01 0.000000e+00
    endloop
  endfacet
  facet normal 0.000000e+00 1.000000e+00 0.000000e+00
    outer loop
      vertex   0.000000e+00 1.200000e+01 0.000000e+00
      vertex   0.000000e+00 1.200000e+01 8.000000e+00
      vertex   8.000000e+00 1.200000e+01 8.000000e+00
    endloop
  endfacet
  facet normal 0.000000e+00 1.000000e+00 0.000000e+00
    outer loop
      vertex   8.000000e+00 1.200000e+01 8.000000e+00
      vertex   8.000000e+00 1.200000e+01 0.000000e+00
      vertex   0.000000e+00 1.200000e+01 0.000000e+00
    endloop
  endfacet
  facet normal -1.000000e+00 0.000000e+00 0.000000e+00
    outer loop
      vertex   0.000000e+00 0.000000e+00 0.000000e+00
      vertex   0.000000e+00 0.000000e+00 8.000000e+00
      vertex   0.000000e+00 1.200000e+01 8.000000e+00
    endloop
  endfacet
  facet normal -1.000000e+00 0.000000e+00 -0.000000e+00
    outer loop
      vertex   0.000000e+00 1.200000e+01 8.000000e+00
      vertex   0.000000e+00 1.200000e+01 0.000000e+00
      vertex   0.000000e+00 0.000000e+00 0.000000e+00
    endloop
  endfacet
  facet normal 0.000000e+00 -0.000000e+00 -1.000000e+00
    outer loop
      vertex   8.000000e+00 2.000000e+00 0.000000e+00
      vertex   8.000000e+00 0.000000e+00 0.000000e+00
      vertex   0.000000e+00 0.000000e+00 0.000000e+00
    endloop
  endfacet
  facet normal -0.000000e+00 0.000000e+00 -1.000000e+00
    outer loop
      vertex   8.000000e+00 2.000000e+00 0.000000e+00
      vertex   0.000000e+00 0.000000e+00 0.000000e+00
      vertex   0.000000e+00 1.200000e+01 0.000000e+00
    endloop
  endfacet
  facet normal 0.000000e+00 0.000000e+00 -1.000000e+00
    outer loop
      vertex   0.000000e+00 1.200000e+01 0.000000e+00
      vertex   8.000000e+00 1.200000e+01 0.000000e+00
      vertex   8.000000e+00 2.000000e+00 0.000000e+00
    endloop
  endfacet
  facet normal 0.000000e+00 -0.000000e+00 1.000000e+00
    outer loop
      vertex   8.000000e+00 2.000000e+00 8.000000e+00
      vertex   8.000000e+00 1.200000e+01 8.000000e+00
      vertex   0.000000e+00 1.200000e+01 8.000000e+00
    endloop
  endfacet
  facet normal 0.000000e+00 0.000000e+00 1.000000e+00
    outer loop
      vertex   0.000000e+00 1.200000e+01 8.000000e+00
      vertex   0.000000e+00 0.000000e+00 8.000000e+00
      vertex   8.000000e+00 2.000000e+00 8.000000e+00
    endloop
  endfacet
  facet normal 0.000000e+00 0.000000e+00 1.000000e+00
    outer loop
      vertex   0.000000e+00 0.000000e+00 8.000000e+00
      vertex   8.000000e+00 0.000000e+00 8.000000e+00
      vertex   8.000000e+00 2.000000e+00 8.000000e+00
    endloop
  endfacet
  facet normal -1.000000e+00 0.000000e+00 0.000000e+00
    outer loop
      vertex   8.000000e+00 0.000000e+00 8.000000e+00
      vertex   8.000000e+00 0.000000e+00 1.600000e+01
      vertex   8.000000e+00 2.000000e+00 1.600000e+01
    endloop
  endfacet
  facet normal -1.000000e+00 0.000000e+00 -0.000000e+00
    outer loop
      vertex   8.000000e+00 2.000000e+00 1.600000e+01
      vertex   8.000000e+00 2.000000e+00 8.000000e+00
      vertex   8.000000e+00 0.000000e+00 8.000000e+00
    endloop
  endfacet
  facet normal 0.000000e+00 0.000000e+00 1.000000e+00
    outer loop
      vertex   8.000000e+00 0.000000e+00 1.600000e+01
      vertex   1.600000e+01 0.000000e+00 1.600000e+01
      vertex   1.600000e+01 2.000000e+00 1.600000e+01
    endloop
  endfacet
  facet normal 0.000000e+00 0.000000e+00 1.000000e+00
    outer loop
      vertex   1.600000e+01 2.000000e+00 1.600000e+01
      vertex   8.000000e+00 2.000000e+00 1.600000e+01
      vertex   8.000000e+00 0.000000e+00 1.600000e+01
    endloop
  endfacet
  facet normal 1.084202e-16 -1.000000e+00 0.000000e+00
    outer loop
      vertex   8.000000e+00 0.000000e+00 0.000000e+00
      vertex   8.000000e+00 0.000000e+00 -8.000000e+00
      vertex   1.600000e+01 8.673617e-16 -8.000000e+00
    endloop
  endfacet
  facet normal -0.000000e+00 -1.000000e+00 0.000000e+00
    outer loop
      vertex   1.600000e+01 0.000000e+00 1.600000e+01
      vertex   8.000000e+00 0.000000e+00 1.600000e+01
      vertex   8.000000e+00 0.000000e+00 8.000000e+00
    endloop
  endfacet
  facet normal -0.000000e+00 -1.000000e+00 0.000000e+00
    outer loop
      vertex   8.000000e+00 0.000000e+00 8.000000e+00
      vertex   0.000000e+00 0.000000e+00 8.000000e+00
      vertex   0.000000e+00 0.000000e+00 0.000000e+00
    endloop
  endfacet
  facet normal 0.000000e+00 -1.000000e+00 0.000000e+00
    outer loop
      vertex   0.000000e+00 0.000000e+00 0.000000e+00
      vertex   8.000000e+00 0.000000e+00 0.000000e+00
      vertex   8.000000e+00 0.000000e+00 8.000000e+00
    endloop
  endfacet
  facet normal 0.000000e+00 -1.000000e+00 0.000000e+00
    outer loop
      vertex   8.000000e+00 0.000000e+00 8.000000e+00
      vertex   8.000000e+00 0.000000e+00 0.000000e+00
      vertex   1.600000e+01 0.000000e+00 1.600000e+01
    endloop
  endfacet
  facet normal 7.228014e-17 -1.000000e+00 -3.614007e-17
    outer loop
      vertex   1.600000e+01 8.673617e-16 -8.000000e+00
      vertex   1.600000e+01 0.000000e+00 1.600000e+01
      vertex   8.000000e+00 0.000000e+00 0.000000e+00
    endloop
  endfacet
  facet normal -1.084202e-16 1.000000e+00 0.000000e+00
    outer loop
      vertex   1.600000e+01 2.000000e+00 -8.000000e+00
      vertex   8.000000e+00 2.000000e+00 -8.000000e+00
      vertex   8.000000e+00 2.000000e+00 0.000000e+00
    endloop
  endfacet
  facet normal -7.228014e-17 1.000000e+00 3.614007e-17
    outer loop
      vertex   1.600000e+01 2.000000e+00 1.600000e+01
      vertex   1.600000e+01 2.000000e+00 -8.000000e+00
      vertex   8.000000e+00 2.000000e+00 0.000000e+00
    endloop
  endfacet
  facet normal 0.000000e+00 1.000000e+00 0.000000e+00
    outer loop
      vertex   8.000000e+00 2.000000e+00 0.000000e+00
      vertex   8.000000e+00 2.000000e+00 8.000000e+00
      vertex   1.600000e+01 2.000000e+00 1.600000e+01
    endloop
  endfacet
  facet normal 0.000000e+00 1.000000e+00 0.000000e+00
    outer loop
      vertex   8.000000e+00 2.000000e+00 8.000000e+00
      vertex   8.000000e+00 2.000000e+00 1.600000e+01
      vertex   1.600000e+01 2.000000e+00 1.600000e+01
    endloop
  endfacet
  facet normal 1.000000e+00 0.000000e+00 0.000000e+00
    outer loop
      vertex   1.600000e+01 8.673617e-16 -8.000000e+00
      vertex   1.600000e+01 2.000000e+00 -8.000000e+00
      vertex   1.600000e+01 2.000000e+00 1.600000e+01
    endloop
  endfacet
  facet normal 1.000000e+00 0.000000e+00 0.000000e+00
    outer loop
      vertex   1.600000e+01 2.000000e+00 1.600000e+01
      vertex   1.600000e+01 0.000000e+00 1.600000e+01
      vertex   1.600000e+01 8.673617e-16 -8.000000e+00
    endloop
  endfacet
  facet normal -1.000000e+00 0.000000e+00 -0.000000e+00
    outer loop
      vertex   8.000000e+00 2.000000e+00 0.000000e+00
      vertex   8.000000e+00 2.000000e+00 -8.000000e+00
      vertex   8.000000e+00 0.000000e+00 -8.000000e+00
    endloop
  endfacet
  facet normal -1.000000e+00 0.000000e+00 0.000000e+00
    outer loop
      vertex   8.000000e+00 0.000000e+00 -8.000000e+00
      vertex   8.000000e+00 0.000000e+00 0.000000e+00
      vertex   8.000000e+00 2.000000e+00 0.000000e+00
    endloop
  endfacet
  facet normal -0.000000e+00 0.000000e+00 -1.000000e+00
    outer loop
      vertex   1.600000e+01 8.673617e-16 -8.000000e+00
      vertex   8.000000e+00 0.000000e+00 -8.000000e+00
      vertex   8.000000e+00 2.000000e+00 -8.000000e+00
    endloop
  endfacet
  facet normal 0.000000e+00 0.000000e+00 -1.000000e+00
    outer loop
      vertex   8.000000e+00 2.000000e+00 -8.000000e+00
      vertex   1.600000e+01 2.000000e+00 -8.000000e+00
      vertex   1.600000e+01 8.673617e-16 -8.000000e+00
    endloop
  endfacet
endsolid
