solid ascii
  facet normal 0.000000e+00 -1.000000e+00 0.000000e+00
    outer loop
      vertex   1.575000e+02 0.000000e+00 0.000000e+00
      vertex   1.575000e+02 0.000000e+00 5.000000e+00
      vertex   -7.500000e+00 0.000000e+00 5.000000e+00
    endloop
  endfacet
  facet normal 0.000000e+00 -1.000000e+00 0.000000e+00
    outer loop
      vertex   -7.500000e+00 0.000000e+00 5.000000e+00
      vertex   -7.500000e+00 0.000000e+00 0.000000e+00
      vertex   1.575000e+02 0.000000e+00 0.000000e+00
    endloop
  endfacet
  facet normal 1.000000e+00 0.000000e+00 -0.000000e+00
    outer loop
      vertex   1.575000e+02 4.300000e+01 0.000000e+00
      vertex   1.575000e+02 4.300000e+01 5.000000e+00
      vertex   1.575000e+02 0.000000e+00 5.000000e+00
    endloop
  endfacet
  facet normal 1.000000e+00 0.000000e+00 0.000000e+00
    outer loop
      vertex   1.575000e+02 0.000000e+00 5.000000e+00
      vertex   1.575000e+02 0.000000e+00 0.000000e+00
      vertex   1.575000e+02 4.300000e+01 0.000000e+00
    endloop
  endfacet
  facet normal 0.000000e+00 1.000000e+00 0.000000e+00
    outer loop
      vertex   -7.500000e+00 4.300000e+01 0.000000e+00
      vertex   -7.500000e+00 4.300000e+01 5.000000e+00
      vertex   1.575000e+02 4.300000e+01 5.000000e+00
    endloop
  endfacet
  facet normal 0.000000e+00 1.000000e+00 0.000000e+00
    outer loop
      vertex   1.575000e+02 4.300000e+01 5.000000e+00
      vertex   1.575000e+02 4.300000e+01 0.000000e+00
      vertex   -7.500000e+00 4.300000e+01 0.000000e+00
    endloop
  endfacet
  facet normal -1.000000e+00 0.000000e+00 0.000000e+00
    outer loop
      vertex   -7.500000e+00 0.000000e+00 0.000000e+00
      vertex   -7.500000e+00 0.000000e+00 5.000000e+00
      vertex   -7.500000e+00 4.300000e+01 5.000000e+00
    endloop
  endfacet
  facet normal -1.000000e+00 0.000000e+00 -0.000000e+00
    outer loop
      vertex   -7.500000e+00 4.300000e+01 5.000000e+00
      vertex   -7.500000e+00 4.300000e+01 0.000000e+00
      vertex   -7.500000e+00 0.000000e+00 0.000000e+00
    endloop
  endfacet
  facet normal 0.000000e+00 0.000000e+00 1.000000e+00
    outer loop
      vertex   1.575000e+02 0.000000e+00 5.000000e+00
      vertex   1.280000e+02 8.000000e+00 5.000000e+00
      vertex   2.400000e+01 8.000000e+00 5.000000e+00
    endloop
  endfacet
  facet normal 0.000000e+00 0.000000e+00 1.000000e+00
    outer loop
      vertex   1.280000e+02 3.500000e+01 5.000000e+00
      vertex   1.280000e+02 8.000000e+00 5.000000e+00
      vertex   1.575000e+02 0.000000e+00 5.000000e+00
    endloop
  endfacet
  facet normal 0.000000e+00 -0.000000e+00 1.000000e+00
    outer loop
      vertex   1.575000e+02 0.000000e+00 5.000000e+00
      vertex   1.575000e+02 4.300000e+01 5.000000e+00
      vertex   1.280000e+02 3.500000e+01 5.000000e+00
    endloop
  endfacet
  facet normal 0.000000e+00 0.000000e+00 1.000000e+00
    outer loop
      vertex   2.400000e+01 3.500000e+01 5.000000e+00
      vertex   1.280000e+02 3.500000e+01 5.000000e+00
      vertex   1.575000e+02 4.300000e+01 5.000000e+00
    endloop
  endfacet
  facet normal 0.000000e+00 0.000000e+00 1.000000e+00
    outer loop
      vertex   1.575000e+02 4.300000e+01 5.000000e+00
      vertex   -7.500000e+00 4.300000e+01 5.000000e+00
      vertex   2.400000e+01 3.500000e+01 5.000000e+00
    endloop
  endfacet
  facet normal 0.000000e+00 -0.000000e+00 1.000000e+00
    outer loop
      vertex   2.400000e+01 8.000000e+00 5.000000e+00
      vertex   2.400000e+01 3.500000e+01 5.000000e+00
      vertex   -7.500000e+00 4.300000e+01 5.000000e+00
    endloop
  endfacet
  facet normal 0.000000e+00 0.000000e+00 1.000000e+00
    outer loop
      vertex   -7.500000e+00 4.300000e+01 5.000000e+00
      vertex   -7.500000e+00 0.000000e+00 5.000000e+00
      vertex   2.400000e+01 8.000000e+00 5.000000e+00
    endloop
  endfacet
  facet normal 0.000000e+00 0.000000e+00 1.000000e+00
    outer loop
      vertex   2.400000e+01 8.000000e+00 5.000000e+00
      vertex   -7.500000e+00 0.000000e+00 5.000000e+00
      vertex   1.575000e+02 0.000000e+00 5.000000e+00
    endloop
  endfacet
  facet normal 0.000000e+00 0.000000e+00 -1.000000e+00
    outer loop
      vertex   1.575000e+02 4.300000e+01 0.000000e+00
      vertex   1.280000e+02 3.500000e+01 0.000000e+00
      vertex   2.400000e+01 3.500000e+01 0.000000e+00
    endloop
  endfacet
  facet normal 0.000000e+00 0.000000e+00 -1.000000e+00
    outer loop
      vertex   1.280000e+02 8.000000e+00 0.000000e+00
      vertex   1.280000e+02 3.500000e+01 0.000000e+00
      vertex   1.575000e+02 4.300000e+01 0.000000e+00
    endloop
  endfacet
  facet normal 0.000000e+00 -0.000000e+00 -1.000000e+00
    outer loop
      vertex   1.575000e+02 4.300000e+01 0.000000e+00
      vertex   1.575000e+02 0.000000e+00 0.000000e+00
      vertex   1.280000e+02 8.000000e+00 0.000000e+00
    endloop
  endfacet
  facet normal 0.000000e+00 0.000000e+00 -1.000000e+00
    outer loop
      vertex   2.400000e+01 8.000000e+00 0.000000e+00
      vertex   1.280000e+02 8.000000e+00 0.000000e+00
      vertex   1.575000e+02 0.000000e+00 0.000000e+00
    endloop
  endfacet
  facet normal 0.000000e+00 0.000000e+00 -1.000000e+00
    outer loop
      vertex   1.575000e+02 0.000000e+00 0.000000e+00
      vertex   -7.500000e+00 0.000000e+00 0.000000e+00
      vertex   2.400000e+01 8.000000e+00 0.000000e+00
    endloop
  endfacet
  facet normal 0.000000e+00 -0.000000e+00 -1.000000e+00
    outer loop
      vertex   2.400000e+01 3.500000e+01 0.000000e+00
      vertex   2.400000e+01 8.000000e+00 0.000000e+00
      vertex   -7.500000e+00 0.000000e+00 0.000000e+00
    endloop
  endfacet
  facet normal 0.000000e+00 0.000000e+00 -1.000000e+00
    outer loop
      vertex   -7.500000e+00 0.000000e+00 0.000000e+00
      vertex   -7.500000e+00 4.300000e+01 0.000000e+00
      vertex   2.400000e+01 3.500000e+01 0.000000e+00
    endloop
  endfacet
  facet normal 0.000000e+00 0.000000e+00 -1.000000e+00
    outer loop
      vertex   2.400000e+01 3.500000e+01 0.000000e+00
      vertex   -7.500000e+00 4.300000e+01 0.000000e+00
      vertex   1.575000e+02 4.300000e+01 0.000000e+00
    endloop
  endfacet
  facet normal 3.336007e-17 1.000000e+00 1.283380e-31
    outer loop
      vertex   2.400000e+01 8.000000e+00 5.000000e+00
      vertex   1.280000e+02 8.000000e+00 5.000000e+00
      vertex   1.280000e+02 8.000000e+00 0.000000e+00
    endloop
  endfacet
  facet normal 3.336007e-17 1.000000e+00 1.283380e-31
    outer loop
      vertex   1.280000e+02 8.000000e+00 0.000000e+00
      vertex   2.400000e+01 8.000000e+00 0.000000e+00
      vertex   2.400000e+01 8.000000e+00 5.000000e+00
    endloop
  endfacet
  facet normal -1.000000e+00 0.000000e+00 0.000000e+00
    outer loop
      vertex   1.280000e+02 8.000000e+00 5.000000e+00
      vertex   1.280000e+02 3.500000e+01 5.000000e+00
      vertex   1.280000e+02 3.500000e+01 0.000000e+00
    endloop
  endfacet
  facet normal -1.000000e+00 0.000000e+00 0.000000e+00
    outer loop
      vertex   1.280000e+02 3.500000e+01 0.000000e+00
      vertex   1.280000e+02 8.000000e+00 0.000000e+00
      vertex   1.280000e+02 8.000000e+00 5.000000e+00
    endloop
  endfacet
  facet normal -0.000000e+00 -1.000000e+00 0.000000e+00
    outer loop
      vertex   1.280000e+02 3.500000e+01 5.000000e+00
      vertex   2.400000e+01 3.500000e+01 5.000000e+00
      vertex   2.400000e+01 3.500000e+01 0.000000e+00
    endloop
  endfacet
  facet normal 0.000000e+00 -1.000000e+00 0.000000e+00
    outer loop
      vertex   2.400000e+01 3.500000e+01 0.000000e+00
      vertex   1.280000e+02 3.500000e+01 0.000000e+00
      vertex   1.280000e+02 3.500000e+01 5.000000e+00
    endloop
  endfacet
  facet normal 1.000000e+00 0.000000e+00 0.000000e+00
    outer loop
      vertex   2.400000e+01 3.500000e+01 5.000000e+00
      vertex   2.400000e+01 8.000000e+00 5.000000e+00
      vertex   2.400000e+01 8.000000e+00 0.000000e+00
    endloop
  endfacet
  facet normal 1.000000e+00 0.000000e+00 0.000000e+00
    outer loop
      vertex   2.400000e+01 8.000000e+00 0.000000e+00
      vertex   2.400000e+01 3.500000e+01 0.000000e+00
      vertex   2.400000e+01 3.500000e+01 5.000000e+00
    endloop
  endfacet
endsolid
