solid ascii
  facet normal 0.000000e+00 1.000000e+00 0.000000e+00
    outer loop
      vertex   2.100000e+01 5.000000e+01 0.000000e+00
      vertex   2.100000e+01 5.000000e+01 1.000000e+01
      vertex   2.400000e+01 5.000000e+01 1.000000e+01
    endloop
  endfacet
  facet normal 0.000000e+00 1.000000e+00 0.000000e+00
    outer loop
      vertex   2.400000e+01 5.000000e+01 1.000000e+01
      vertex   2.400000e+01 5.000000e+01 0.000000e+00
      vertex   2.100000e+01 5.000000e+01 0.000000e+00
    endloop
  endfacet
  facet normal 1.000000e+00 0.000000e+00 -0.000000e+00
    outer loop
      vertex   2.400000e+01 5.000000e+01 0.000000e+00
      vertex   2.400000e+01 5.000000e+01 1.000000e+01
      vertex   2.400000e+01 0.000000e+00 1.000000e+01
    endloop
  endfacet
  facet normal 1.000000e+00 0.000000e+00 0.000000e+00
    outer loop
      vertex   2.400000e+01 0.000000e+00 1.000000e+01
      vertex   2.400000e+01 0.000000e+00 0.000000e+00
      vertex   2.400000e+01 5.000000e+01 0.000000e+00
    endloop
  endfacet
  facet normal 0.000000e+00 -1.000000e+00 0.000000e+00
    outer loop
      vertex   2.400000e+01 0.000000e+00 0.000000e+00
      vertex   2.400000e+01 0.000000e+00 1.000000e+01
      vertex   0.000000e+00 0.000000e+00 1.000000e+01
    endloop
  endfacet
  facet normal 0.000000e+00 -1.000000e+00 0.000000e+00
    outer loop
      vertex   0.000000e+00 0.000000e+00 1.000000e+01
      vertex   0.000000e+00 0.000000e+00 0.000000e+00
      vertex   2.400000e+01 0.000000e+00 0.000000e+00
    endloop
  endfacet
  facet normal -1.000000e+00 0.000000e+00 0.000000e+00
    outer loop
      vertex   0.000000e+00 0.000000e+00 0.000000e+00
      vertex   0.000000e+00 0.000000e+00 1.000000e+01
      vertex   0.000000e+00 5.000000e+01 1.000000e+01
    endloop
  endfacet
  facet normal -1.000000e+00 0.000000e+00 -0.000000e+00
    outer loop
      vertex   0.000000e+00 5.000000e+01 1.000000e+01
      vertex   0.000000e+00 5.000000e+01 0.000000e+00
      vertex   0.000000e+00 0.000000e+00 0.000000e+00
    endloop
  endfacet
  facet normal 0.000000e+00 1.000000e+00 0.000000e+00
    outer loop
      vertex   0.000000e+00 5.000000e+01 0.000000e+00
      vertex   0.000000e+00 5.000000e+01 1.000000e+01
      vertex   3.000000e+00 5.000000e+01 1.000000e+01
    endloop
  endfacet
  facet normal 0.000000e+00 1.000000e+00 0.000000e+00
    outer loop
      vertex   3.000000e+00 5.000000e+01 1.000000e+01
      vertex   3.000000e+00 5.000000e+01 0.000000e+00
      vertex   0.000000e+00 5.000000e+01 0.000000e+00
    endloop
  endfacet
  facet normal 0.000000e+00 0.000000e+00 1.000000e+00
    outer loop
      vertex   2.400000e+01 5.000000e+01 1.000000e+01
      vertex   2.100000e+01 5.000000e+01 1.000000e+01
      vertex   2.100000e+01 1.000000e+01 1.000000e+01
    endloop
  endfacet
  facet normal 0.000000e+00 0.000000e+00 1.000000e+00
    outer loop
      vertex   3.000000e+00 1.000000e+01 1.000000e+01
      vertex   3.000000e+00 5.000000e+01 1.000000e+01
      vertex   0.000000e+00 5.000000e+01 1.000000e+01
    endloop
  endfacet
  facet normal 0.000000e+00 0.000000e+00 1.000000e+00
    outer loop
      vertex   0.000000e+00 5.000000e+01 1.000000e+01
      vertex   0.000000e+00 0.000000e+00 1.000000e+01
      vertex   3.000000e+00 1.000000e+01 1.000000e+01
    endloop
  endfacet
  facet normal 0.000000e+00 0.000000e+00 1.000000e+00
    outer loop
      vertex   2.100000e+01 1.000000e+01 1.000000e+01
      vertex   3.000000e+00 1.000000e+01 1.000000e+01
      vertex   0.000000e+00 0.000000e+00 1.000000e+01
    endloop
  endfacet
  facet normal 0.000000e+00 0.000000e+00 1.000000e+00
    outer loop
      vertex   0.000000e+00 0.000000e+00 1.000000e+01
      vertex   2.400000e+01 0.000000e+00 1.000000e+01
      vertex   2.100000e+01 1.000000e+01 1.000000e+01
    endloop
  endfacet
  facet normal -0.000000e+00 0.000000e+00 1.000000e+00
    outer loop
      vertex   2.100000e+01 1.000000e+01 1.000000e+01
      vertex   2.400000e+01 0.000000e+00 1.000000e+01
      vertex   2.400000e+01 5.000000e+01 1.000000e+01
    endloop
  endfacet
  facet normal 0.000000e+00 0.000000e+00 -1.000000e+00
    outer loop
      vertex   0.000000e+00 5.000000e+01 0.000000e+00
      vertex   3.000000e+00 5.000000e+01 0.000000e+00
      vertex   3.000000e+00 1.000000e+01 0.000000e+00
    endloop
  endfacet
  facet normal 0.000000e+00 0.000000e+00 -1.000000e+00
    outer loop
      vertex   2.100000e+01 1.000000e+01 0.000000e+00
      vertex   2.100000e+01 5.000000e+01 0.000000e+00
      vertex   2.400000e+01 5.000000e+01 0.000000e+00
    endloop
  endfacet
  facet normal 0.000000e+00 -0.000000e+00 -1.000000e+00
    outer loop
      vertex   2.400000e+01 5.000000e+01 0.000000e+00
      vertex   2.400000e+01 0.000000e+00 0.000000e+00
      vertex   2.100000e+01 1.000000e+01 0.000000e+00
    endloop
  endfacet
  facet normal 0.000000e+00 0.000000e+00 -1.000000e+00
    outer loop
      vertex   3.000000e+00 1.000000e+01 0.000000e+00
      vertex   2.100000e+01 1.000000e+01 0.000000e+00
      vertex   2.400000e+01 0.000000e+00 0.000000e+00
    endloop
  endfacet
  facet normal 0.000000e+00 0.000000e+00 -1.000000e+00
    outer loop
      vertex   2.400000e+01 0.000000e+00 0.000000e+00
      vertex   0.000000e+00 0.000000e+00 0.000000e+00
      vertex   3.000000e+00 1.000000e+01 0.000000e+00
    endloop
  endfacet
  facet normal -0.000000e+00 0.000000e+00 -1.000000e+00
    outer loop
      vertex   3.000000e+00 1.000000e+01 0.000000e+00
      vertex   0.000000e+00 0.000000e+00 0.000000e+00
      vertex   0.000000e+00 5.000000e+01 0.000000e+00
    endloop
  endfacet
  facet normal 1.000000e+00 1.734723e-16 -0.000000e+00
    outer loop
      vertex   3.000000e+00 5.000000e+01 0.000000e+00
      vertex   3.000000e+00 5.000000e+01 1.000000e+01
      vertex   3.000000e+00 1.000000e+01 1.000000e+01
    endloop
  endfacet
  facet normal 1.000000e+00 1.734723e-16 0.000000e+00
    outer loop
      vertex   3.000000e+00 1.000000e+01 1.000000e+01
      vertex   3.000000e+00 1.000000e+01 0.000000e+00
      vertex   3.000000e+00 5.000000e+01 0.000000e+00
    endloop
  endfacet
  facet normal 0.000000e+00 1.000000e+00 0.000000e+00
    outer loop
      vertex   3.000000e+00 1.000000e+01 0.000000e+00
      vertex   3.000000e+00 1.000000e+01 1.000000e+01
      vertex   2.100000e+01 1.000000e+01 1.000000e+01
    endloop
  endfacet
  facet normal 0.000000e+00 1.000000e+00 0.000000e+00
    outer loop
      vertex   2.100000e+01 1.000000e+01 1.000000e+01
      vertex   2.100000e+01 1.000000e+01 0.000000e+00
      vertex   3.000000e+00 1.000000e+01 0.000000e+00
    endloop
  endfacet
  facet normal -1.000000e+00 0.000000e+00 0.000000e+00
    outer loop
      vertex   2.100000e+01 1.000000e+01 0.000000e+00
      vertex   2.100000e+01 1.000000e+01 1.000000e+01
      vertex   2.100000e+01 5.000000e+01 1.000000e+01
    endloop
  endfacet
  facet normal -1.000000e+00 0.000000e+00 -0.000000e+00
    outer loop
      vertex   2.100000e+01 5.000000e+01 1.000000e+01
      vertex   2.100000e+01 5.000000e+01 0.000000e+00
      vertex   2.100000e+01 1.000000e+01 0.000000e+00
    endloop
  endfacet
endsolid
