solid ascii
  facet normal 0.000000e+00 -0.000000e+00 -1.000000e+00
    outer loop
      vertex   6.250000e+00 -5.000000e+00 6.000000e+00
      vertex   6.250000e+00 -4.000000e+01 6.000000e+00
      vertex   4.250000e+00 -4.000000e+01 6.000000e+00
    endloop
  endfacet
  facet normal 0.000000e+00 0.000000e+00 -1.000000e+00
    outer loop
      vertex   4.250000e+00 -4.000000e+01 6.000000e+00
      vertex   4.250000e+00 -5.000000e+00 6.000000e+00
      vertex   6.250000e+00 -5.000000e+00 6.000000e+00
    endloop
  endfacet
  facet normal 1.000000e+00 0.000000e+00 0.000000e+00
    outer loop
      vertex   4.250000e+00 -4.000000e+01 2.500000e+00
      vertex   4.250000e+00 -5.000000e+00 2.500000e+00
      vertex   4.250000e+00 -5.000000e+00 6.000000e+00
    endloop
  endfacet
  facet normal 1.000000e+00 0.000000e+00 0.000000e+00
    outer loop
      vertex   4.250000e+00 -5.000000e+00 6.000000e+00
      vertex   4.250000e+00 -4.000000e+01 6.000000e+00
      vertex   4.250000e+00 -4.000000e+01 2.500000e+00
    endloop
  endfacet
  facet normal 0.000000e+00 0.000000e+00 1.000000e+00
    outer loop
      vertex   4.250000e+00 -5.000000e+00 2.500000e+00
      vertex   4.250000e+00 -4.000000e+01 2.500000e+00
      vertex   1.000000e+01 -4.000000e+01 2.500000e+00
    endloop
  endfacet
  facet normal 0.000000e+00 -0.000000e+00 1.000000e+00
    outer loop
      vertex   1.000000e+01 -4.000000e+01 2.500000e+00
      vertex   1.000000e+01 -5.000000e+00 2.500000e+00
      vertex   4.250000e+00 -5.000000e+00 2.500000e+00
    endloop
  endfacet
  facet normal -0.000000e+00 -1.000000e+00 0.000000e+00
    outer loop
      vertex   6.250000e+00 -5.000000e+00 6.000000e+00
      vertex   4.250000e+00 -5.000000e+00 6.000000e+00
      vertex   4.250000e+00 -5.000000e+00 2.500000e+00
    endloop
  endfacet
  facet normal 0.000000e+00 -1.000000e+00 0.000000e+00
    outer loop
      vertex   4.250000e+00 -5.000000e+00 2.500000e+00
      vertex   1.000000e+01 -5.000000e+00 2.500000e+00
      vertex   6.250000e+00 -5.000000e+00 6.000000e+00
    endloop
  endfacet
  facet normal 0.000000e+00 -1.000000e+00 0.000000e+00
    outer loop
      vertex   6.250000e+00 -5.000000e+00 7.000000e+00
      vertex   6.250000e+00 -5.000000e+00 6.000000e+00
      vertex   1.000000e+01 -5.000000e+00 2.500000e+00
    endloop
  endfacet
  facet normal 0.000000e+00 -1.000000e+00 0.000000e+00
    outer loop
      vertex   1.000000e+01 -5.000000e+00 2.500000e+00
      vertex   1.000000e+01 -5.000000e+00 7.000000e+00
      vertex   6.250000e+00 -5.000000e+00 7.000000e+00
    endloop
  endfacet
  facet normal 1.000000e+00 0.000000e+00 0.000000e+00
    outer loop
      vertex   6.250000e+00 -5.000000e+00 7.000000e+00
      vertex   6.250000e+00 -4.000000e+01 7.000000e+00
      vertex   6.250000e+00 -4.000000e+01 6.000000e+00
    endloop
  endfacet
  facet normal 1.000000e+00 0.000000e+00 0.000000e+00
    outer loop
      vertex   6.250000e+00 -4.000000e+01 6.000000e+00
      vertex   6.250000e+00 -5.000000e+00 6.000000e+00
      vertex   6.250000e+00 -5.000000e+00 7.000000e+00
    endloop
  endfacet
  facet normal 1.000000e+00 0.000000e+00 0.000000e+00
    outer loop
      vertex   1.000000e+01 -4.000000e+01 2.500000e+00
      vertex   1.000000e+01 -4.000000e+01 -2.500000e+00
      vertex   1.000000e+01 -5.000000e+00 -2.500000e+00
    endloop
  endfacet
  facet normal 1.000000e+00 0.000000e+00 -0.000000e+00
    outer loop
      vertex   1.000000e+01 -5.000000e+00 -2.500000e+00
      vertex   1.000000e+01 -5.000000e+00 1.734723e-15
      vertex   1.000000e+01 -4.000000e+01 2.500000e+00
    endloop
  endfacet
  facet normal 1.000000e+00 0.000000e+00 0.000000e+00
    outer loop
      vertex   1.000000e+01 -5.000000e+00 2.500000e+00
      vertex   1.000000e+01 -4.000000e+01 2.500000e+00
      vertex   1.000000e+01 -5.000000e+00 1.734723e-15
    endloop
  endfacet
  facet normal 1.000000e+00 0.000000e+00 0.000000e+00
    outer loop
      vertex   1.000000e+01 -5.000000e+00 1.734723e-15
      vertex   1.000000e+01 4.000000e+01 1.734723e-15
      vertex   1.000000e+01 -5.000000e+00 2.500000e+00
    endloop
  endfacet
  facet normal 1.000000e+00 0.000000e+00 0.000000e+00
    outer loop
      vertex   1.000000e+01 -5.000000e+00 7.000000e+00
      vertex   1.000000e+01 -5.000000e+00 2.500000e+00
      vertex   1.000000e+01 4.000000e+01 1.734723e-15
    endloop
  endfacet
  facet normal 1.000000e+00 0.000000e+00 -0.000000e+00
    outer loop
      vertex   1.000000e+01 4.000000e+01 1.734723e-15
      vertex   1.000000e+01 4.000000e+01 7.000000e+00
      vertex   1.000000e+01 -5.000000e+00 7.000000e+00
    endloop
  endfacet
  facet normal 0.000000e+00 1.000000e+00 0.000000e+00
    outer loop
      vertex   -1.000000e+01 4.000000e+01 1.734723e-15
      vertex   -1.000000e+01 4.000000e+01 7.000000e+00
      vertex   1.000000e+01 4.000000e+01 7.000000e+00
    endloop
  endfacet
  facet normal 0.000000e+00 1.000000e+00 0.000000e+00
    outer loop
      vertex   1.000000e+01 4.000000e+01 7.000000e+00
      vertex   1.000000e+01 4.000000e+01 1.734723e-15
      vertex   -1.000000e+01 4.000000e+01 1.734723e-15
    endloop
  endfacet
  facet normal 0.000000e+00 0.000000e+00 -1.000000e+00
    outer loop
      vertex   4.250000e+00 -4.000000e+01 -2.500000e+00
      vertex   4.250000e+00 -5.000000e+00 -2.500000e+00
      vertex   1.000000e+01 -5.000000e+00 -2.500000e+00
    endloop
  endfacet
  facet normal 7.542276e-17 -1.239088e-17 -1.000000e+00
    outer loop
      vertex   1.000000e+01 -5.000000e+00 -2.500000e+00
      vertex   1.000000e+01 -4.000000e+01 -2.500000e+00
      vertex   4.250000e+00 -4.000000e+01 -2.500000e+00
    endloop
  endfacet
  facet normal -1.000000e+00 0.000000e+00 0.000000e+00
    outer loop
      vertex   4.250000e+00 -4.000000e+01 -1.500000e+00
      vertex   4.250000e+00 -5.000000e+00 -1.500000e+00
      vertex   4.250000e+00 -5.000000e+00 -2.500000e+00
    endloop
  endfacet
  facet normal -1.000000e+00 0.000000e+00 0.000000e+00
    outer loop
      vertex   4.250000e+00 -5.000000e+00 -2.500000e+00
      vertex   4.250000e+00 -4.000000e+01 -2.500000e+00
      vertex   4.250000e+00 -4.000000e+01 -1.500000e+00
    endloop
  endfacet
  facet normal 0.000000e+00 1.000000e+00 0.000000e+00
    outer loop
      vertex   4.250000e+00 -5.000000e+00 -2.500000e+00
      vertex   4.250000e+00 -5.000000e+00 -1.500000e+00
      vertex   6.250000e+00 -5.000000e+00 -1.500000e+00
    endloop
  endfacet
  facet normal 0.000000e+00 1.000000e+00 0.000000e+00
    outer loop
      vertex   6.250000e+00 -5.000000e+00 -1.500000e+00
      vertex   6.250000e+00 -5.000000e+00 1.734723e-15
      vertex   1.000000e+01 -5.000000e+00 1.734723e-15
    endloop
  endfacet
  facet normal 0.000000e+00 1.000000e+00 0.000000e+00
    outer loop
      vertex   1.000000e+01 -5.000000e+00 1.734723e-15
      vertex   1.000000e+01 -5.000000e+00 -2.500000e+00
      vertex   6.250000e+00 -5.000000e+00 -1.500000e+00
    endloop
  endfacet
  facet normal 0.000000e+00 1.000000e+00 0.000000e+00
    outer loop
      vertex   6.250000e+00 -5.000000e+00 -1.500000e+00
      vertex   1.000000e+01 -5.000000e+00 -2.500000e+00
      vertex   4.250000e+00 -5.000000e+00 -2.500000e+00
    endloop
  endfacet
  facet normal -1.000000e+00 0.000000e+00 0.000000e+00
    outer loop
      vertex   6.250000e+00 -4.000000e+01 1.734723e-15
      vertex   6.250000e+00 -5.000000e+00 1.734723e-15
      vertex   6.250000e+00 -5.000000e+00 -1.500000e+00
    endloop
  endfacet
  facet normal -1.000000e+00 0.000000e+00 0.000000e+00
    outer loop
      vertex   6.250000e+00 -5.000000e+00 -1.500000e+00
      vertex   6.250000e+00 -4.000000e+01 -1.500000e+00
      vertex   6.250000e+00 -4.000000e+01 1.734723e-15
    endloop
  endfacet
  facet normal -4.336809e-16 0.000000e+00 1.000000e+00
    outer loop
      vertex   6.250000e+00 -4.000000e+01 -1.500000e+00
      vertex   6.250000e+00 -5.000000e+00 -1.500000e+00
      vertex   4.250000e+00 -5.000000e+00 -1.500000e+00
    endloop
  endfacet
  facet normal -4.336809e-16 0.000000e+00 1.000000e+00
    outer loop
      vertex   4.250000e+00 -5.000000e+00 -1.500000e+00
      vertex   4.250000e+00 -4.000000e+01 -1.500000e+00
      vertex   6.250000e+00 -4.000000e+01 -1.500000e+00
    endloop
  endfacet
  facet normal 0.000000e+00 0.000000e+00 -1.000000e+00
    outer loop
      vertex   -6.250000e+00 -5.000000e+00 1.734723e-15
      vertex   -1.000000e+01 -5.000000e+00 1.734723e-15
      vertex   -1.000000e+01 4.000000e+01 1.734723e-15
    endloop
  endfacet
  facet normal 0.000000e+00 -0.000000e+00 -1.000000e+00
    outer loop
      vertex   1.000000e+01 4.000000e+01 1.734723e-15
      vertex   1.000000e+01 -5.000000e+00 1.734723e-15
      vertex   6.250000e+00 -5.000000e+00 1.734723e-15
    endloop
  endfacet
  facet normal 0.000000e+00 -0.000000e+00 -1.000000e+00
    outer loop
      vertex   6.250000e+00 -5.000000e+00 1.734723e-15
      vertex   6.250000e+00 -4.000000e+01 1.734723e-15
      vertex   -6.250000e+00 -4.000000e+01 1.734723e-15
    endloop
  endfacet
  facet normal 0.000000e+00 0.000000e+00 -1.000000e+00
    outer loop
      vertex   -6.250000e+00 -4.000000e+01 1.734723e-15
      vertex   -6.250000e+00 -5.000000e+00 1.734723e-15
      vertex   6.250000e+00 -5.000000e+00 1.734723e-15
    endloop
  endfacet
  facet normal 0.000000e+00 0.000000e+00 -1.000000e+00
    outer loop
      vertex   6.250000e+00 -5.000000e+00 1.734723e-15
      vertex   -6.250000e+00 -5.000000e+00 1.734723e-15
      vertex   1.000000e+01 4.000000e+01 1.734723e-15
    endloop
  endfacet
  facet normal 0.000000e+00 0.000000e+00 -1.000000e+00
    outer loop
      vertex   -1.000000e+01 4.000000e+01 1.734723e-15
      vertex   1.000000e+01 4.000000e+01 1.734723e-15
      vertex   -6.250000e+00 -5.000000e+00 1.734723e-15
    endloop
  endfacet
  facet normal 1.000000e+00 0.000000e+00 0.000000e+00
    outer loop
      vertex   -6.250000e+00 -4.000000e+01 -1.500000e+00
      vertex   -6.250000e+00 -5.000000e+00 -1.500000e+00
      vertex   -6.250000e+00 -5.000000e+00 1.734723e-15
    endloop
  endfacet
  facet normal 1.000000e+00 -9.912706e-17 2.312965e-15
    outer loop
      vertex   -6.250000e+00 -5.000000e+00 1.734723e-15
      vertex   -6.250000e+00 -4.000000e+01 1.734723e-15
      vertex   -6.250000e+00 -4.000000e+01 -1.500000e+00
    endloop
  endfacet
  facet normal 0.000000e+00 -0.000000e+00 1.000000e+00
    outer loop
      vertex   -4.250000e+00 -4.000000e+01 -1.500000e+00
      vertex   -4.250000e+00 -5.000000e+00 -1.500000e+00
      vertex   -6.250000e+00 -5.000000e+00 -1.500000e+00
    endloop
  endfacet
  facet normal 0.000000e+00 0.000000e+00 1.000000e+00
    outer loop
      vertex   -6.250000e+00 -5.000000e+00 -1.500000e+00
      vertex   -6.250000e+00 -4.000000e+01 -1.500000e+00
      vertex   -4.250000e+00 -4.000000e+01 -1.500000e+00
    endloop
  endfacet
  facet normal -0.000000e+00 1.000000e+00 0.000000e+00
    outer loop
      vertex   -6.250000e+00 -5.000000e+00 -1.500000e+00
      vertex   -4.250000e+00 -5.000000e+00 -1.500000e+00
      vertex   -4.250000e+00 -5.000000e+00 -2.500000e+00
    endloop
  endfacet
  facet normal 0.000000e+00 1.000000e+00 0.000000e+00
    outer loop
      vertex   -4.250000e+00 -5.000000e+00 -2.500000e+00
      vertex   -1.000000e+01 -5.000000e+00 -2.500000e+00
      vertex   -6.250000e+00 -5.000000e+00 -1.500000e+00
    endloop
  endfacet
  facet normal 0.000000e+00 1.000000e+00 0.000000e+00
    outer loop
      vertex   -6.250000e+00 -5.000000e+00 1.734723e-15
      vertex   -6.250000e+00 -5.000000e+00 -1.500000e+00
      vertex   -1.000000e+01 -5.000000e+00 -2.500000e+00
    endloop
  endfacet
  facet normal 0.000000e+00 1.000000e+00 0.000000e+00
    outer loop
      vertex   -1.000000e+01 -5.000000e+00 -2.500000e+00
      vertex   -1.000000e+01 -5.000000e+00 1.734723e-15
      vertex   -6.250000e+00 -5.000000e+00 1.734723e-15
    endloop
  endfacet
  facet normal 1.508455e-16 0.000000e+00 -1.000000e+00
    outer loop
      vertex   -1.000000e+01 -4.000000e+01 -2.500000e+00
      vertex   -1.000000e+01 -5.000000e+00 -2.500000e+00
      vertex   -4.250000e+00 -5.000000e+00 -2.500000e+00
    endloop
  endfacet
  facet normal 1.508455e-16 0.000000e+00 -1.000000e+00
    outer loop
      vertex   -4.250000e+00 -5.000000e+00 -2.500000e+00
      vertex   -4.250000e+00 -4.000000e+01 -2.500000e+00
      vertex   -1.000000e+01 -4.000000e+01 -2.500000e+00
    endloop
  endfacet
  facet normal 1.000000e+00 0.000000e+00 0.000000e+00
    outer loop
      vertex   -4.250000e+00 -4.000000e+01 -2.500000e+00
      vertex   -4.250000e+00 -5.000000e+00 -2.500000e+00
      vertex   -4.250000e+00 -5.000000e+00 -1.500000e+00
    endloop
  endfacet
  facet normal 1.000000e+00 0.000000e+00 0.000000e+00
    outer loop
      vertex   -4.250000e+00 -5.000000e+00 -1.500000e+00
      vertex   -4.250000e+00 -4.000000e+01 -1.500000e+00
      vertex   -4.250000e+00 -4.000000e+01 -2.500000e+00
    endloop
  endfacet
  facet normal -1.000000e+00 0.000000e+00 0.000000e+00
    outer loop
      vertex   -1.000000e+01 -5.000000e+00 2.500000e+00
      vertex   -1.000000e+01 -5.000000e+00 7.000000e+00
      vertex   -1.000000e+01 4.000000e+01 7.000000e+00
    endloop
  endfacet
  facet normal -1.000000e+00 0.000000e+00 -0.000000e+00
    outer loop
      vertex   -1.000000e+01 -5.000000e+00 1.734723e-15
      vertex   -1.000000e+01 -5.000000e+00 -2.500000e+00
      vertex   -1.000000e+01 -4.000000e+01 -2.500000e+00
    endloop
  endfacet
  facet normal -1.000000e+00 0.000000e+00 -0.000000e+00
    outer loop
      vertex   -1.000000e+01 4.000000e+01 7.000000e+00
      vertex   -1.000000e+01 4.000000e+01 1.734723e-15
      vertex   -1.000000e+01 -5.000000e+00 2.500000e+00
    endloop
  endfacet
  facet normal -1.000000e+00 0.000000e+00 0.000000e+00
    outer loop
      vertex   -1.000000e+01 -5.000000e+00 2.500000e+00
      vertex   -1.000000e+01 4.000000e+01 1.734723e-15
      vertex   -1.000000e+01 -5.000000e+00 1.734723e-15
    endloop
  endfacet
  facet normal -1.000000e+00 0.000000e+00 0.000000e+00
    outer loop
      vertex   -1.000000e+01 -5.000000e+00 1.734723e-15
      vertex   -1.000000e+01 -4.000000e+01 2.500000e+00
      vertex   -1.000000e+01 -5.000000e+00 2.500000e+00
    endloop
  endfacet
  facet normal -1.000000e+00 0.000000e+00 0.000000e+00
    outer loop
      vertex   -1.000000e+01 -4.000000e+01 -2.500000e+00
      vertex   -1.000000e+01 -4.000000e+01 2.500000e+00
      vertex   -1.000000e+01 -5.000000e+00 1.734723e-15
    endloop
  endfacet
  facet normal 0.000000e+00 0.000000e+00 1.000000e+00
    outer loop
      vertex   6.250000e+00 -5.000000e+00 7.000000e+00
      vertex   1.000000e+01 -5.000000e+00 7.000000e+00
      vertex   1.000000e+01 4.000000e+01 7.000000e+00
    endloop
  endfacet
  facet normal 0.000000e+00 0.000000e+00 1.000000e+00
    outer loop
      vertex   -1.000000e+01 4.000000e+01 7.000000e+00
      vertex   -1.000000e+01 -5.000000e+00 7.000000e+00
      vertex   -6.250000e+00 -5.000000e+00 7.000000e+00
    endloop
  endfacet
  facet normal 0.000000e+00 0.000000e+00 1.000000e+00
    outer loop
      vertex   -6.250000e+00 -5.000000e+00 7.000000e+00
      vertex   -6.250000e+00 -4.000000e+01 7.000000e+00
      vertex   6.250000e+00 -4.000000e+01 7.000000e+00
    endloop
  endfacet
  facet normal 0.000000e+00 -0.000000e+00 1.000000e+00
    outer loop
      vertex   6.250000e+00 -4.000000e+01 7.000000e+00
      vertex   6.250000e+00 -5.000000e+00 7.000000e+00
      vertex   -6.250000e+00 -5.000000e+00 7.000000e+00
    endloop
  endfacet
  facet normal 0.000000e+00 -0.000000e+00 1.000000e+00
    outer loop
      vertex   -6.250000e+00 -5.000000e+00 7.000000e+00
      vertex   6.250000e+00 -5.000000e+00 7.000000e+00
      vertex   -1.000000e+01 4.000000e+01 7.000000e+00
    endloop
  endfacet
  facet normal 0.000000e+00 0.000000e+00 1.000000e+00
    outer loop
      vertex   1.000000e+01 4.000000e+01 7.000000e+00
      vertex   -1.000000e+01 4.000000e+01 7.000000e+00
      vertex   6.250000e+00 -5.000000e+00 7.000000e+00
    endloop
  endfacet
  facet normal 0.000000e+00 0.000000e+00 1.000000e+00
    outer loop
      vertex   -1.000000e+01 -5.000000e+00 2.500000e+00
      vertex   -1.000000e+01 -4.000000e+01 2.500000e+00
      vertex   -4.250000e+00 -4.000000e+01 2.500000e+00
    endloop
  endfacet
  facet normal 0.000000e+00 -0.000000e+00 1.000000e+00
    outer loop
      vertex   -4.250000e+00 -4.000000e+01 2.500000e+00
      vertex   -4.250000e+00 -5.000000e+00 2.500000e+00
      vertex   -1.000000e+01 -5.000000e+00 2.500000e+00
    endloop
  endfacet
  facet normal 0.000000e+00 -1.000000e+00 0.000000e+00
    outer loop
      vertex   -4.250000e+00 -4.000000e+01 -2.500000e+00
      vertex   -4.250000e+00 -4.000000e+01 -1.500000e+00
      vertex   -6.250000e+00 -4.000000e+01 -1.500000e+00
    endloop
  endfacet
  facet normal 0.000000e+00 -1.000000e+00 0.000000e+00
    outer loop
      vertex   4.250000e+00 -4.000000e+01 6.000000e+00
      vertex   6.250000e+00 -4.000000e+01 6.000000e+00
      vertex   6.250000e+00 -4.000000e+01 7.000000e+00
    endloop
  endfacet
  facet normal 0.000000e+00 -1.000000e+00 -0.000000e+00
    outer loop
      vertex   4.250000e+00 -4.000000e+01 2.500000e+00
      vertex   -6.250000e+00 -4.000000e+01 1.734723e-15
      vertex   6.250000e+00 -4.000000e+01 1.734723e-15
    endloop
  endfacet
  facet normal 0.000000e+00 -1.000000e+00 0.000000e+00
    outer loop
      vertex   6.250000e+00 -4.000000e+01 -1.500000e+00
      vertex   4.250000e+00 -4.000000e+01 -1.500000e+00
      vertex   4.250000e+00 -4.000000e+01 -2.500000e+00
    endloop
  endfacet
  facet normal 0.000000e+00 -1.000000e+00 0.000000e+00
    outer loop
      vertex   4.250000e+00 -4.000000e+01 -2.500000e+00
      vertex   1.000000e+01 -4.000000e+01 -2.500000e+00
      vertex   6.250000e+00 -4.000000e+01 -1.500000e+00
    endloop
  endfacet
  facet normal 0.000000e+00 -1.000000e+00 0.000000e+00
    outer loop
      vertex   6.250000e+00 -4.000000e+01 1.734723e-15
      vertex   6.250000e+00 -4.000000e+01 -1.500000e+00
      vertex   1.000000e+01 -4.000000e+01 -2.500000e+00
    endloop
  endfacet
  facet normal 0.000000e+00 -1.000000e+00 0.000000e+00
    outer loop
      vertex   1.000000e+01 -4.000000e+01 -2.500000e+00
      vertex   1.000000e+01 -4.000000e+01 2.500000e+00
      vertex   6.250000e+00 -4.000000e+01 1.734723e-15
    endloop
  endfacet
  facet normal 0.000000e+00 -1.000000e+00 0.000000e+00
    outer loop
      vertex   6.250000e+00 -4.000000e+01 1.734723e-15
      vertex   1.000000e+01 -4.000000e+01 2.500000e+00
      vertex   4.250000e+00 -4.000000e+01 2.500000e+00
    endloop
  endfacet
  facet normal 0.000000e+00 -1.000000e+00 0.000000e+00
    outer loop
      vertex   -6.250000e+00 -4.000000e+01 7.000000e+00
      vertex   -6.250000e+00 -4.000000e+01 6.000000e+00
      vertex   -4.250000e+00 -4.000000e+01 6.000000e+00
    endloop
  endfacet
  facet normal -0.000000e+00 -1.000000e+00 0.000000e+00
    outer loop
      vertex   6.250000e+00 -4.000000e+01 7.000000e+00
      vertex   -6.250000e+00 -4.000000e+01 7.000000e+00
      vertex   4.250000e+00 -4.000000e+01 6.000000e+00
    endloop
  endfacet
  facet normal 0.000000e+00 -1.000000e+00 0.000000e+00
    outer loop
      vertex   -4.250000e+00 -4.000000e+01 6.000000e+00
      vertex   4.250000e+00 -4.000000e+01 6.000000e+00
      vertex   -6.250000e+00 -4.000000e+01 7.000000e+00
    endloop
  endfacet
  facet normal 0.000000e+00 -1.000000e+00 0.000000e+00
    outer loop
      vertex   4.250000e+00 -4.000000e+01 2.500000e+00
      vertex   4.250000e+00 -4.000000e+01 6.000000e+00
      vertex   -4.250000e+00 -4.000000e+01 6.000000e+00
    endloop
  endfacet
  facet normal 0.000000e+00 -1.000000e+00 0.000000e+00
    outer loop
      vertex   -4.250000e+00 -4.000000e+01 6.000000e+00
      vertex   -4.250000e+00 -4.000000e+01 2.500000e+00
      vertex   4.250000e+00 -4.000000e+01 2.500000e+00
    endloop
  endfacet
  facet normal 0.000000e+00 -1.000000e+00 0.000000e+00
    outer loop
      vertex   -6.250000e+00 -4.000000e+01 1.734723e-15
      vertex   4.250000e+00 -4.000000e+01 2.500000e+00
      vertex   -4.250000e+00 -4.000000e+01 2.500000e+00
    endloop
  endfacet
  facet normal -0.000000e+00 -1.000000e+00 0.000000e+00
    outer loop
      vertex   -4.250000e+00 -4.000000e+01 2.500000e+00
      vertex   -1.000000e+01 -4.000000e+01 2.500000e+00
      vertex   -6.250000e+00 -4.000000e+01 1.734723e-15
    endloop
  endfacet
  facet normal 0.000000e+00 -1.000000e+00 0.000000e+00
    outer loop
      vertex   -6.250000e+00 -4.000000e+01 -1.500000e+00
      vertex   -6.250000e+00 -4.000000e+01 1.734723e-15
      vertex   -1.000000e+01 -4.000000e+01 2.500000e+00
    endloop
  endfacet
  facet normal 0.000000e+00 -1.000000e+00 0.000000e+00
    outer loop
      vertex   -1.000000e+01 -4.000000e+01 2.500000e+00
      vertex   -1.000000e+01 -4.000000e+01 -2.500000e+00
      vertex   -6.250000e+00 -4.000000e+01 -1.500000e+00
    endloop
  endfacet
  facet normal 0.000000e+00 -1.000000e+00 -0.000000e+00
    outer loop
      vertex   -6.250000e+00 -4.000000e+01 -1.500000e+00
      vertex   -1.000000e+01 -4.000000e+01 -2.500000e+00
      vertex   -4.250000e+00 -4.000000e+01 -2.500000e+00
    endloop
  endfacet
  facet normal 0.000000e+00 -1.000000e+00 0.000000e+00
    outer loop
      vertex   -6.250000e+00 -5.000000e+00 6.000000e+00
      vertex   -6.250000e+00 -5.000000e+00 7.000000e+00
      vertex   -1.000000e+01 -5.000000e+00 7.000000e+00
    endloop
  endfacet
  facet normal 0.000000e+00 -1.000000e+00 0.000000e+00
    outer loop
      vertex   -1.000000e+01 -5.000000e+00 7.000000e+00
      vertex   -1.000000e+01 -5.000000e+00 2.500000e+00
      vertex   -6.250000e+00 -5.000000e+00 6.000000e+00
    endloop
  endfacet
  facet normal -0.000000e+00 -1.000000e+00 0.000000e+00
    outer loop
      vertex   -4.250000e+00 -5.000000e+00 6.000000e+00
      vertex   -6.250000e+00 -5.000000e+00 6.000000e+00
      vertex   -1.000000e+01 -5.000000e+00 2.500000e+00
    endloop
  endfacet
  facet normal 0.000000e+00 -1.000000e+00 0.000000e+00
    outer loop
      vertex   -1.000000e+01 -5.000000e+00 2.500000e+00
      vertex   -4.250000e+00 -5.000000e+00 2.500000e+00
      vertex   -4.250000e+00 -5.000000e+00 6.000000e+00
    endloop
  endfacet
  facet normal 0.000000e+00 0.000000e+00 -1.000000e+00
    outer loop
      vertex   -6.250000e+00 -4.000000e+01 6.000000e+00
      vertex   -6.250000e+00 -5.000000e+00 6.000000e+00
      vertex   -4.250000e+00 -5.000000e+00 6.000000e+00
    endloop
  endfacet
  facet normal 0.000000e+00 -0.000000e+00 -1.000000e+00
    outer loop
      vertex   -4.250000e+00 -5.000000e+00 6.000000e+00
      vertex   -4.250000e+00 -4.000000e+01 6.000000e+00
      vertex   -6.250000e+00 -4.000000e+01 6.000000e+00
    endloop
  endfacet
  facet normal -1.000000e+00 0.000000e+00 0.000000e+00
    outer loop
      vertex   -4.250000e+00 -4.000000e+01 6.000000e+00
      vertex   -4.250000e+00 -5.000000e+00 6.000000e+00
      vertex   -4.250000e+00 -5.000000e+00 2.500000e+00
    endloop
  endfacet
  facet normal -1.000000e+00 0.000000e+00 0.000000e+00
    outer loop
      vertex   -4.250000e+00 -5.000000e+00 2.500000e+00
      vertex   -4.250000e+00 -4.000000e+01 2.500000e+00
      vertex   -4.250000e+00 -4.000000e+01 6.000000e+00
    endloop
  endfacet
  facet normal -1.000000e+00 0.000000e+00 -0.000000e+00
    outer loop
      vertex   -6.250000e+00 -5.000000e+00 7.000000e+00
      vertex   -6.250000e+00 -5.000000e+00 6.000000e+00
      vertex   -6.250000e+00 -4.000000e+01 6.000000e+00
    endloop
  endfacet
  facet normal -1.000000e+00 9.912706e-17 -3.469447e-15
    outer loop
      vertex   -6.250000e+00 -4.000000e+01 6.000000e+00
      vertex   -6.250000e+00 -4.000000e+01 7.000000e+00
      vertex   -6.250000e+00 -5.000000e+00 7.000000e+00
    endloop
  endfacet
endsolid
