solid ascii
  facet normal -9.749279e-01 -2.225209e-01 -5.209040e-18
    outer loop
      vertex   1.576696e+00 7.592965e-01 -1.800000e+01
      vertex   1.750000e+00 0.000000e+00 -1.800000e+01
      vertex   1.750000e+00 -4.286264e-16 0.000000e+00
    endloop
  endfacet
  facet normal -9.749279e-01 -2.225209e-01 0.000000e+00
    outer loop
      vertex   1.750000e+00 -4.286264e-16 0.000000e+00
      vertex   1.576696e+00 7.592965e-01 0.000000e+00
      vertex   1.576696e+00 7.592965e-01 -1.800000e+01
    endloop
  endfacet
  facet normal -7.818315e-01 -6.234898e-01 0.000000e+00
    outer loop
      vertex   1.091107e+00 1.368205e+00 -1.800000e+01
      vertex   1.576696e+00 7.592965e-01 -1.800000e+01
      vertex   1.576696e+00 7.592965e-01 0.000000e+00
    endloop
  endfacet
  facet normal -7.818315e-01 -6.234898e-01 0.000000e+00
    outer loop
      vertex   1.576696e+00 7.592965e-01 0.000000e+00
      vertex   1.091107e+00 1.368205e+00 0.000000e+00
      vertex   1.091107e+00 1.368205e+00 -1.800000e+01
    endloop
  endfacet
  facet normal -4.338837e-01 -9.009689e-01 0.000000e+00
    outer loop
      vertex   3.894116e-01 1.706124e+00 -1.800000e+01
      vertex   1.091107e+00 1.368205e+00 -1.800000e+01
      vertex   1.091107e+00 1.368205e+00 0.000000e+00
    endloop
  endfacet
  facet normal -4.338837e-01 -9.009689e-01 0.000000e+00
    outer loop
      vertex   1.091107e+00 1.368205e+00 0.000000e+00
      vertex   3.894116e-01 1.706124e+00 0.000000e+00
      vertex   3.894116e-01 1.706124e+00 -1.800000e+01
    endloop
  endfacet
  facet normal 0.000000e+00 -1.000000e+00 0.000000e+00
    outer loop
      vertex   -3.894116e-01 1.706124e+00 -1.800000e+01
      vertex   3.894116e-01 1.706124e+00 -1.800000e+01
      vertex   3.894116e-01 1.706124e+00 0.000000e+00
    endloop
  endfacet
  facet normal -0.000000e+00 -1.000000e+00 0.000000e+00
    outer loop
      vertex   3.894116e-01 1.706124e+00 0.000000e+00
      vertex   -3.894116e-01 1.706124e+00 0.000000e+00
      vertex   -3.894116e-01 1.706124e+00 -1.800000e+01
    endloop
  endfacet
  facet normal 4.338837e-01 -9.009689e-01 -3.472693e-18
    outer loop
      vertex   -1.091107e+00 1.368205e+00 -1.800000e+01
      vertex   -3.894116e-01 1.706124e+00 -1.800000e+01
      vertex   -3.894116e-01 1.706124e+00 0.000000e+00
    endloop
  endfacet
  facet normal 4.338837e-01 -9.009689e-01 -3.472693e-18
    outer loop
      vertex   -3.894116e-01 1.706124e+00 0.000000e+00
      vertex   -1.091107e+00 1.368205e+00 0.000000e+00
      vertex   -1.091107e+00 1.368205e+00 -1.800000e+01
    endloop
  endfacet
  facet normal 7.818315e-01 -6.234898e-01 0.000000e+00
    outer loop
      vertex   -1.576696e+00 7.592965e-01 -1.800000e+01
      vertex   -1.091107e+00 1.368205e+00 -1.800000e+01
      vertex   -1.091107e+00 1.368205e+00 0.000000e+00
    endloop
  endfacet
  facet normal 7.818315e-01 -6.234898e-01 0.000000e+00
    outer loop
      vertex   -1.091107e+00 1.368205e+00 0.000000e+00
      vertex   -1.576696e+00 7.592965e-01 0.000000e+00
      vertex   -1.576696e+00 7.592965e-01 -1.800000e+01
    endloop
  endfacet
  facet normal 9.749279e-01 -2.225209e-01 0.000000e+00
    outer loop
      vertex   -1.750000e+00 2.143132e-16 -1.800000e+01
      vertex   -1.576696e+00 7.592965e-01 -1.800000e+01
      vertex   -1.576696e+00 7.592965e-01 0.000000e+00
    endloop
  endfacet
  facet normal 9.749279e-01 -2.225209e-01 0.000000e+00
    outer loop
      vertex   -1.576696e+00 7.592965e-01 0.000000e+00
      vertex   -1.750000e+00 2.143132e-16 0.000000e+00
      vertex   -1.750000e+00 2.143132e-16 -1.800000e+01
    endloop
  endfacet
  facet normal 9.749279e-01 2.225209e-01 -1.736347e-18
    outer loop
      vertex   -1.576696e+00 -7.592965e-01 -1.800000e+01
      vertex   -1.750000e+00 2.143132e-16 -1.800000e+01
      vertex   -1.750000e+00 2.143132e-16 0.000000e+00
    endloop
  endfacet
  facet normal 9.749279e-01 2.225209e-01 -1.736347e-18
    outer loop
      vertex   -1.750000e+00 2.143132e-16 0.000000e+00
      vertex   -1.576696e+00 -7.592965e-01 0.000000e+00
      vertex   -1.576696e+00 -7.592965e-01 -1.800000e+01
    endloop
  endfacet
  facet normal 7.818315e-01 6.234898e-01 0.000000e+00
    outer loop
      vertex   -1.091107e+00 -1.368205e+00 -1.800000e+01
      vertex   -1.576696e+00 -7.592965e-01 -1.800000e+01
      vertex   -1.576696e+00 -7.592965e-01 0.000000e+00
    endloop
  endfacet
  facet normal 7.818315e-01 6.234898e-01 0.000000e+00
    outer loop
      vertex   -1.576696e+00 -7.592965e-01 0.000000e+00
      vertex   -1.091107e+00 -1.368205e+00 0.000000e+00
      vertex   -1.091107e+00 -1.368205e+00 -1.800000e+01
    endloop
  endfacet
  facet normal 4.338837e-01 9.009689e-01 0.000000e+00
    outer loop
      vertex   -3.894116e-01 -1.706124e+00 -1.800000e+01
      vertex   -1.091107e+00 -1.368205e+00 -1.800000e+01
      vertex   -1.091107e+00 -1.368205e+00 0.000000e+00
    endloop
  endfacet
  facet normal 4.338837e-01 9.009689e-01 0.000000e+00
    outer loop
      vertex   -1.091107e+00 -1.368205e+00 0.000000e+00
      vertex   -3.894116e-01 -1.706124e+00 0.000000e+00
      vertex   -3.894116e-01 -1.706124e+00 -1.800000e+01
    endloop
  endfacet
  facet normal 0.000000e+00 1.000000e+00 0.000000e+00
    outer loop
      vertex   3.894116e-01 -1.706124e+00 -1.800000e+01
      vertex   -3.894116e-01 -1.706124e+00 -1.800000e+01
      vertex   -3.894116e-01 -1.706124e+00 0.000000e+00
    endloop
  endfacet
  facet normal -0.000000e+00 1.000000e+00 0.000000e+00
    outer loop
      vertex   -3.894116e-01 -1.706124e+00 0.000000e+00
      vertex   3.894116e-01 -1.706124e+00 0.000000e+00
      vertex   3.894116e-01 -1.706124e+00 -1.800000e+01
    endloop
  endfacet
  facet normal -4.338837e-01 9.009689e-01 -3.472693e-18
    outer loop
      vertex   1.091107e+00 -1.368205e+00 -1.800000e+01
      vertex   3.894116e-01 -1.706124e+00 -1.800000e+01
      vertex   3.894116e-01 -1.706124e+00 0.000000e+00
    endloop
  endfacet
  facet normal -4.338837e-01 9.009689e-01 -3.472693e-18
    outer loop
      vertex   3.894116e-01 -1.706124e+00 0.000000e+00
      vertex   1.091107e+00 -1.368205e+00 0.000000e+00
      vertex   1.091107e+00 -1.368205e+00 -1.800000e+01
    endloop
  endfacet
  facet normal -7.818315e-01 6.234898e-01 -3.472693e-18
    outer loop
      vertex   1.576696e+00 -7.592965e-01 -1.800000e+01
      vertex   1.091107e+00 -1.368205e+00 -1.800000e+01
      vertex   1.091107e+00 -1.368205e+00 0.000000e+00
    endloop
  endfacet
  facet normal -7.818315e-01 6.234898e-01 -3.472693e-18
    outer loop
      vertex   1.091107e+00 -1.368205e+00 0.000000e+00
      vertex   1.576696e+00 -7.592965e-01 0.000000e+00
      vertex   1.576696e+00 -7.592965e-01 -1.800000e+01
    endloop
  endfacet
  facet normal -9.749279e-01 2.225209e-01 0.000000e+00
    outer loop
      vertex   1.750000e+00 0.000000e+00 -1.800000e+01
      vertex   1.576696e+00 -7.592965e-01 -1.800000e+01
      vertex   1.576696e+00 -7.592965e-01 0.000000e+00
    endloop
  endfacet
  facet normal -9.749279e-01 2.225209e-01 5.209040e-18
    outer loop
      vertex   1.576696e+00 -7.592965e-01 0.000000e+00
      vertex   1.750000e+00 -4.286264e-16 0.000000e+00
      vertex   1.750000e+00 0.000000e+00 -1.800000e+01
    endloop
  endfacet
  facet normal 0.000000e+00 -0.000000e+00 -1.000000e+00
    outer loop
      vertex   -1.576696e+00 -7.592965e-01 -1.800000e+01
      vertex   -1.091107e+00 -1.368205e+00 -1.800000e+01
      vertex   -2.298133e+00 -1.928363e+00 -1.800000e+01
    endloop
  endfacet
  facet normal 0.000000e+00 0.000000e+00 -1.000000e+00
    outer loop
      vertex   -2.298133e+00 -1.928363e+00 -1.800000e+01
      vertex   -2.819078e+00 -1.026060e+00 -1.800000e+01
      vertex   -1.576696e+00 -7.592965e-01 -1.800000e+01
    endloop
  endfacet
  facet normal 0.000000e+00 -0.000000e+00 -1.000000e+00
    outer loop
      vertex   -1.750000e+00 2.143132e-16 -1.800000e+01
      vertex   -1.576696e+00 -7.592965e-01 -1.800000e+01
      vertex   -2.819078e+00 -1.026060e+00 -1.800000e+01
    endloop
  endfacet
  facet normal 0.000000e+00 0.000000e+00 -1.000000e+00
    outer loop
      vertex   -2.819078e+00 -1.026060e+00 -1.800000e+01
      vertex   -3.000000e+00 1.699662e-15 -1.800000e+01
      vertex   -1.750000e+00 2.143132e-16 -1.800000e+01
    endloop
  endfacet
  facet normal 0.000000e+00 0.000000e+00 -1.000000e+00
    outer loop
      vertex   -1.576696e+00 7.592965e-01 -1.800000e+01
      vertex   -1.750000e+00 2.143132e-16 -1.800000e+01
      vertex   -3.000000e+00 1.699662e-15 -1.800000e+01
    endloop
  endfacet
  facet normal 0.000000e+00 0.000000e+00 -1.000000e+00
    outer loop
      vertex   -3.000000e+00 1.699662e-15 -1.800000e+01
      vertex   -2.819078e+00 1.026060e+00 -1.800000e+01
      vertex   -1.576696e+00 7.592965e-01 -1.800000e+01
    endloop
  endfacet
  facet normal 0.000000e+00 0.000000e+00 -1.000000e+00
    outer loop
      vertex   -1.576696e+00 7.592965e-01 -1.800000e+01
      vertex   -2.819078e+00 1.026060e+00 -1.800000e+01
      vertex   -2.298133e+00 1.928363e+00 -1.800000e+01
    endloop
  endfacet
  facet normal 0.000000e+00 0.000000e+00 -1.000000e+00
    outer loop
      vertex   -2.298133e+00 1.928363e+00 -1.800000e+01
      vertex   -1.091107e+00 1.368205e+00 -1.800000e+01
      vertex   -1.576696e+00 7.592965e-01 -1.800000e+01
    endloop
  endfacet
  facet normal 0.000000e+00 0.000000e+00 -1.000000e+00
    outer loop
      vertex   -2.298133e+00 1.928363e+00 -1.800000e+01
      vertex   -1.500000e+00 2.598076e+00 -1.800000e+01
      vertex   -1.091107e+00 1.368205e+00 -1.800000e+01
    endloop
  endfacet
  facet normal -0.000000e+00 0.000000e+00 -1.000000e+00
    outer loop
      vertex   -3.894116e-01 1.706124e+00 -1.800000e+01
      vertex   -1.091107e+00 1.368205e+00 -1.800000e+01
      vertex   -1.500000e+00 2.598076e+00 -1.800000e+01
    endloop
  endfacet
  facet normal 0.000000e+00 0.000000e+00 -1.000000e+00
    outer loop
      vertex   -1.500000e+00 2.598076e+00 -1.800000e+01
      vertex   -5.209445e-01 2.954423e+00 -1.800000e+01
      vertex   -3.894116e-01 1.706124e+00 -1.800000e+01
    endloop
  endfacet
  facet normal 0.000000e+00 0.000000e+00 -1.000000e+00
    outer loop
      vertex   3.894116e-01 1.706124e+00 -1.800000e+01
      vertex   -3.894116e-01 1.706124e+00 -1.800000e+01
      vertex   -5.209445e-01 2.954423e+00 -1.800000e+01
    endloop
  endfacet
  facet normal 0.000000e+00 0.000000e+00 -1.000000e+00
    outer loop
      vertex   -5.209445e-01 2.954423e+00 -1.800000e+01
      vertex   5.209445e-01 2.954423e+00 -1.800000e+01
      vertex   3.894116e-01 1.706124e+00 -1.800000e+01
    endloop
  endfacet
  facet normal 0.000000e+00 0.000000e+00 -1.000000e+00
    outer loop
      vertex   1.091107e+00 1.368205e+00 -1.800000e+01
      vertex   3.894116e-01 1.706124e+00 -1.800000e+01
      vertex   5.209445e-01 2.954423e+00 -1.800000e+01
    endloop
  endfacet
  facet normal 0.000000e+00 0.000000e+00 -1.000000e+00
    outer loop
      vertex   2.298133e+00 -1.928363e+00 -1.800000e+01
      vertex   1.091107e+00 -1.368205e+00 -1.800000e+01
      vertex   1.576696e+00 -7.592965e-01 -1.800000e+01
    endloop
  endfacet
  facet normal -0.000000e+00 0.000000e+00 -1.000000e+00
    outer loop
      vertex   2.298133e+00 -1.928363e+00 -1.800000e+01
      vertex   1.500000e+00 -2.598076e+00 -1.800000e+01
      vertex   1.091107e+00 -1.368205e+00 -1.800000e+01
    endloop
  endfacet
  facet normal 0.000000e+00 0.000000e+00 -1.000000e+00
    outer loop
      vertex   3.894116e-01 -1.706124e+00 -1.800000e+01
      vertex   1.091107e+00 -1.368205e+00 -1.800000e+01
      vertex   1.500000e+00 -2.598076e+00 -1.800000e+01
    endloop
  endfacet
  facet normal -0.000000e+00 0.000000e+00 -1.000000e+00
    outer loop
      vertex   1.500000e+00 -2.598076e+00 -1.800000e+01
      vertex   5.209445e-01 -2.954423e+00 -1.800000e+01
      vertex   3.894116e-01 -1.706124e+00 -1.800000e+01
    endloop
  endfacet
  facet normal 0.000000e+00 0.000000e+00 -1.000000e+00
    outer loop
      vertex   -3.894116e-01 -1.706124e+00 -1.800000e+01
      vertex   3.894116e-01 -1.706124e+00 -1.800000e+01
      vertex   5.209445e-01 -2.954423e+00 -1.800000e+01
    endloop
  endfacet
  facet normal 0.000000e+00 0.000000e+00 -1.000000e+00
    outer loop
      vertex   5.209445e-01 -2.954423e+00 -1.800000e+01
      vertex   -5.209445e-01 -2.954423e+00 -1.800000e+01
      vertex   -3.894116e-01 -1.706124e+00 -1.800000e+01
    endloop
  endfacet
  facet normal 0.000000e+00 0.000000e+00 -1.000000e+00
    outer loop
      vertex   -1.091107e+00 -1.368205e+00 -1.800000e+01
      vertex   -3.894116e-01 -1.706124e+00 -1.800000e+01
      vertex   -5.209445e-01 -2.954423e+00 -1.800000e+01
    endloop
  endfacet
  facet normal 0.000000e+00 0.000000e+00 -1.000000e+00
    outer loop
      vertex   -5.209445e-01 -2.954423e+00 -1.800000e+01
      vertex   -1.500000e+00 -2.598076e+00 -1.800000e+01
      vertex   -1.091107e+00 -1.368205e+00 -1.800000e+01
    endloop
  endfacet
  facet normal 0.000000e+00 0.000000e+00 -1.000000e+00
    outer loop
      vertex   -1.091107e+00 -1.368205e+00 -1.800000e+01
      vertex   -1.500000e+00 -2.598076e+00 -1.800000e+01
      vertex   -2.298133e+00 -1.928363e+00 -1.800000e+01
    endloop
  endfacet
  facet normal 0.000000e+00 0.000000e+00 -1.000000e+00
    outer loop
      vertex   5.209445e-01 2.954423e+00 -1.800000e+01
      vertex   1.500000e+00 2.598076e+00 -1.800000e+01
      vertex   1.091107e+00 1.368205e+00 -1.800000e+01
    endloop
  endfacet
  facet normal 0.000000e+00 0.000000e+00 -1.000000e+00
    outer loop
      vertex   1.091107e+00 1.368205e+00 -1.800000e+01
      vertex   1.500000e+00 2.598076e+00 -1.800000e+01
      vertex   2.298133e+00 1.928363e+00 -1.800000e+01
    endloop
  endfacet
  facet normal 0.000000e+00 0.000000e+00 -1.000000e+00
    outer loop
      vertex   1.576696e+00 7.592965e-01 -1.800000e+01
      vertex   1.091107e+00 1.368205e+00 -1.800000e+01
      vertex   2.298133e+00 1.928363e+00 -1.800000e+01
    endloop
  endfacet
  facet normal 0.000000e+00 -0.000000e+00 -1.000000e+00
    outer loop
      vertex   2.298133e+00 1.928363e+00 -1.800000e+01
      vertex   2.819078e+00 1.026060e+00 -1.800000e+01
      vertex   1.576696e+00 7.592965e-01 -1.800000e+01
    endloop
  endfacet
  facet normal 0.000000e+00 0.000000e+00 -1.000000e+00
    outer loop
      vertex   1.750000e+00 0.000000e+00 -1.800000e+01
      vertex   1.576696e+00 7.592965e-01 -1.800000e+01
      vertex   2.819078e+00 1.026060e+00 -1.800000e+01
    endloop
  endfacet
  facet normal 0.000000e+00 -0.000000e+00 -1.000000e+00
    outer loop
      vertex   2.819078e+00 1.026060e+00 -1.800000e+01
      vertex   3.000000e+00 -7.347881e-16 -1.800000e+01
      vertex   1.750000e+00 0.000000e+00 -1.800000e+01
    endloop
  endfacet
  facet normal 0.000000e+00 0.000000e+00 -1.000000e+00
    outer loop
      vertex   1.576696e+00 -7.592965e-01 -1.800000e+01
      vertex   1.750000e+00 0.000000e+00 -1.800000e+01
      vertex   3.000000e+00 -7.347881e-16 -1.800000e+01
    endloop
  endfacet
  facet normal 0.000000e+00 0.000000e+00 -1.000000e+00
    outer loop
      vertex   3.000000e+00 -7.347881e-16 -1.800000e+01
      vertex   2.819078e+00 -1.026060e+00 -1.800000e+01
      vertex   1.576696e+00 -7.592965e-01 -1.800000e+01
    endloop
  endfacet
  facet normal 0.000000e+00 0.000000e+00 -1.000000e+00
    outer loop
      vertex   1.576696e+00 -7.592965e-01 -1.800000e+01
      vertex   2.819078e+00 -1.026060e+00 -1.800000e+01
      vertex   2.298133e+00 -1.928363e+00 -1.800000e+01
    endloop
  endfacet
  facet normal 9.848078e-01 1.736482e-01 -0.000000e+00
    outer loop
      vertex   2.819078e+00 1.026060e+00 -1.800000e+01
      vertex   2.819078e+00 1.026060e+00 0.000000e+00
      vertex   3.000000e+00 0.000000e+00 0.000000e+00
    endloop
  endfacet
  facet normal 8.660254e-01 5.000000e-01 0.000000e+00
    outer loop
      vertex   2.819078e+00 1.026060e+00 0.000000e+00
      vertex   2.819078e+00 1.026060e+00 -1.800000e+01
      vertex   2.298133e+00 1.928363e+00 -1.800000e+01
    endloop
  endfacet
  facet normal 8.660254e-01 5.000000e-01 -0.000000e+00
    outer loop
      vertex   2.298133e+00 1.928363e+00 -1.800000e+01
      vertex   2.298133e+00 1.928363e+00 0.000000e+00
      vertex   2.819078e+00 1.026060e+00 0.000000e+00
    endloop
  endfacet
  facet normal 6.427876e-01 7.660444e-01 0.000000e+00
    outer loop
      vertex   2.298133e+00 1.928363e+00 0.000000e+00
      vertex   2.298133e+00 1.928363e+00 -1.800000e+01
      vertex   1.500000e+00 2.598076e+00 -1.800000e+01
    endloop
  endfacet
  facet normal 6.427876e-01 7.660444e-01 -0.000000e+00
    outer loop
      vertex   1.500000e+00 2.598076e+00 -1.800000e+01
      vertex   1.500000e+00 2.598076e+00 0.000000e+00
      vertex   2.298133e+00 1.928363e+00 0.000000e+00
    endloop
  endfacet
  facet normal 3.420201e-01 9.396926e-01 0.000000e+00
    outer loop
      vertex   1.500000e+00 2.598076e+00 0.000000e+00
      vertex   1.500000e+00 2.598076e+00 -1.800000e+01
      vertex   5.209445e-01 2.954423e+00 -1.800000e+01
    endloop
  endfacet
  facet normal 3.420201e-01 9.396926e-01 -0.000000e+00
    outer loop
      vertex   5.209445e-01 2.954423e+00 -1.800000e+01
      vertex   5.209445e-01 2.954423e+00 0.000000e+00
      vertex   1.500000e+00 2.598076e+00 0.000000e+00
    endloop
  endfacet
  facet normal 4.162448e-16 1.000000e+00 0.000000e+00
    outer loop
      vertex   5.209445e-01 2.954423e+00 0.000000e+00
      vertex   5.209445e-01 2.954423e+00 -1.800000e+01
      vertex   -5.209445e-01 2.954423e+00 -1.800000e+01
    endloop
  endfacet
  facet normal 4.162448e-16 1.000000e+00 -0.000000e+00
    outer loop
      vertex   -5.209445e-01 2.954423e+00 -1.800000e+01
      vertex   -5.209445e-01 2.954423e+00 0.000000e+00
      vertex   5.209445e-01 2.954423e+00 0.000000e+00
    endloop
  endfacet
  facet normal -3.420201e-01 9.396926e-01 0.000000e+00
    outer loop
      vertex   -5.209445e-01 2.954423e+00 0.000000e+00
      vertex   -5.209445e-01 2.954423e+00 -1.800000e+01
      vertex   -1.500000e+00 2.598076e+00 -1.800000e+01
    endloop
  endfacet
  facet normal -3.420201e-01 9.396926e-01 0.000000e+00
    outer loop
      vertex   -1.500000e+00 2.598076e+00 -1.800000e+01
      vertex   -1.500000e+00 2.598076e+00 0.000000e+00
      vertex   -5.209445e-01 2.954423e+00 0.000000e+00
    endloop
  endfacet
  facet normal -6.427876e-01 7.660444e-01 0.000000e+00
    outer loop
      vertex   -1.500000e+00 2.598076e+00 0.000000e+00
      vertex   -1.500000e+00 2.598076e+00 -1.800000e+01
      vertex   -2.298133e+00 1.928363e+00 -1.800000e+01
    endloop
  endfacet
  facet normal -6.427876e-01 7.660444e-01 0.000000e+00
    outer loop
      vertex   -2.298133e+00 1.928363e+00 -1.800000e+01
      vertex   -2.298133e+00 1.928363e+00 0.000000e+00
      vertex   -1.500000e+00 2.598076e+00 0.000000e+00
    endloop
  endfacet
  facet normal -8.660254e-01 5.000000e-01 0.000000e+00
    outer loop
      vertex   -2.298133e+00 1.928363e+00 0.000000e+00
      vertex   -2.298133e+00 1.928363e+00 -1.800000e+01
      vertex   -2.819078e+00 1.026060e+00 -1.800000e+01
    endloop
  endfacet
  facet normal -8.660254e-01 5.000000e-01 0.000000e+00
    outer loop
      vertex   -2.819078e+00 1.026060e+00 -1.800000e+01
      vertex   -2.819078e+00 1.026060e+00 0.000000e+00
      vertex   -2.298133e+00 1.928363e+00 0.000000e+00
    endloop
  endfacet
  facet normal -9.848078e-01 1.736482e-01 0.000000e+00
    outer loop
      vertex   -2.819078e+00 1.026060e+00 0.000000e+00
      vertex   -2.819078e+00 1.026060e+00 -1.800000e+01
      vertex   -3.000000e+00 1.699662e-15 -1.800000e+01
    endloop
  endfacet
  facet normal -9.848078e-01 1.736482e-01 0.000000e+00
    outer loop
      vertex   -3.000000e+00 1.699662e-15 -1.800000e+01
      vertex   -3.000000e+00 1.699662e-15 0.000000e+00
      vertex   -2.819078e+00 1.026060e+00 0.000000e+00
    endloop
  endfacet
  facet normal -9.848078e-01 -1.736482e-01 -0.000000e+00
    outer loop
      vertex   -3.000000e+00 1.699662e-15 0.000000e+00
      vertex   -3.000000e+00 1.699662e-15 -1.800000e+01
      vertex   -2.819078e+00 -1.026060e+00 -1.800000e+01
    endloop
  endfacet
  facet normal -9.848078e-01 -1.736482e-01 0.000000e+00
    outer loop
      vertex   -2.819078e+00 -1.026060e+00 -1.800000e+01
      vertex   -2.819078e+00 -1.026060e+00 0.000000e+00
      vertex   -3.000000e+00 1.699662e-15 0.000000e+00
    endloop
  endfacet
  facet normal -8.660254e-01 -5.000000e-01 -0.000000e+00
    outer loop
      vertex   -2.819078e+00 -1.026060e+00 0.000000e+00
      vertex   -2.819078e+00 -1.026060e+00 -1.800000e+01
      vertex   -2.298133e+00 -1.928363e+00 -1.800000e+01
    endloop
  endfacet
  facet normal -8.660254e-01 -5.000000e-01 0.000000e+00
    outer loop
      vertex   -2.298133e+00 -1.928363e+00 -1.800000e+01
      vertex   -2.298133e+00 -1.928363e+00 0.000000e+00
      vertex   -2.819078e+00 -1.026060e+00 0.000000e+00
    endloop
  endfacet
  facet normal -6.427876e-01 -7.660444e-01 -0.000000e+00
    outer loop
      vertex   -2.298133e+00 -1.928363e+00 0.000000e+00
      vertex   -2.298133e+00 -1.928363e+00 -1.800000e+01
      vertex   -1.500000e+00 -2.598076e+00 -1.800000e+01
    endloop
  endfacet
  facet normal -6.427876e-01 -7.660444e-01 0.000000e+00
    outer loop
      vertex   -1.500000e+00 -2.598076e+00 -1.800000e+01
      vertex   -1.500000e+00 -2.598076e+00 0.000000e+00
      vertex   -2.298133e+00 -1.928363e+00 0.000000e+00
    endloop
  endfacet
  facet normal -3.420201e-01 -9.396926e-01 -0.000000e+00
    outer loop
      vertex   -1.500000e+00 -2.598076e+00 0.000000e+00
      vertex   -1.500000e+00 -2.598076e+00 -1.800000e+01
      vertex   -5.209445e-01 -2.954423e+00 -1.800000e+01
    endloop
  endfacet
  facet normal -3.420201e-01 -9.396926e-01 0.000000e+00
    outer loop
      vertex   -5.209445e-01 -2.954423e+00 -1.800000e+01
      vertex   -5.209445e-01 -2.954423e+00 0.000000e+00
      vertex   -1.500000e+00 -2.598076e+00 0.000000e+00
    endloop
  endfacet
  facet normal -8.324895e-16 -1.000000e+00 -0.000000e+00
    outer loop
      vertex   -5.209445e-01 -2.954423e+00 0.000000e+00
      vertex   -5.209445e-01 -2.954423e+00 -1.800000e+01
      vertex   5.209445e-01 -2.954423e+00 -1.800000e+01
    endloop
  endfacet
  facet normal -8.324895e-16 -1.000000e+00 0.000000e+00
    outer loop
      vertex   5.209445e-01 -2.954423e+00 -1.800000e+01
      vertex   5.209445e-01 -2.954423e+00 0.000000e+00
      vertex   -5.209445e-01 -2.954423e+00 0.000000e+00
    endloop
  endfacet
  facet normal 3.420201e-01 -9.396926e-01 0.000000e+00
    outer loop
      vertex   5.209445e-01 -2.954423e+00 0.000000e+00
      vertex   5.209445e-01 -2.954423e+00 -1.800000e+01
      vertex   1.500000e+00 -2.598076e+00 -1.800000e+01
    endloop
  endfacet
  facet normal 3.420201e-01 -9.396926e-01 0.000000e+00
    outer loop
      vertex   1.500000e+00 -2.598076e+00 -1.800000e+01
      vertex   1.500000e+00 -2.598076e+00 0.000000e+00
      vertex   5.209445e-01 -2.954423e+00 0.000000e+00
    endloop
  endfacet
  facet normal 6.427876e-01 -7.660444e-01 0.000000e+00
    outer loop
      vertex   1.500000e+00 -2.598076e+00 0.000000e+00
      vertex   1.500000e+00 -2.598076e+00 -1.800000e+01
      vertex   2.298133e+00 -1.928363e+00 -1.800000e+01
    endloop
  endfacet
  facet normal 6.427876e-01 -7.660444e-01 0.000000e+00
    outer loop
      vertex   2.298133e+00 -1.928363e+00 -1.800000e+01
      vertex   2.298133e+00 -1.928363e+00 0.000000e+00
      vertex   1.500000e+00 -2.598076e+00 0.000000e+00
    endloop
  endfacet
  facet normal 8.660254e-01 -5.000000e-01 0.000000e+00
    outer loop
      vertex   2.298133e+00 -1.928363e+00 0.000000e+00
      vertex   2.298133e+00 -1.928363e+00 -1.800000e+01
      vertex   2.819078e+00 -1.026060e+00 -1.800000e+01
    endloop
  endfacet
  facet normal 8.660254e-01 -5.000000e-01 0.000000e+00
    outer loop
      vertex   2.819078e+00 -1.026060e+00 -1.800000e+01
      vertex   2.819078e+00 -1.026060e+00 0.000000e+00
      vertex   2.298133e+00 -1.928363e+00 0.000000e+00
    endloop
  endfacet
  facet normal 9.848078e-01 -1.736482e-01 0.000000e+00
    outer loop
      vertex   2.819078e+00 -1.026060e+00 0.000000e+00
      vertex   2.819078e+00 -1.026060e+00 -1.800000e+01
      vertex   3.000000e+00 -7.347881e-16 -1.800000e+01
    endloop
  endfacet
  facet normal 9.848078e-01 -1.736482e-01 7.088589e-18
    outer loop
      vertex   3.000000e+00 -7.347881e-16 -1.800000e+01
      vertex   3.000000e+00 0.000000e+00 0.000000e+00
      vertex   2.819078e+00 -1.026060e+00 0.000000e+00
    endloop
  endfacet
  facet normal 9.848078e-01 1.736482e-01 -7.088589e-18
    outer loop
      vertex   3.000000e+00 0.000000e+00 0.000000e+00
      vertex   3.000000e+00 -7.347881e-16 -1.800000e+01
      vertex   2.819078e+00 1.026060e+00 -1.800000e+01
    endloop
  endfacet
  facet normal 0.000000e+00 0.000000e+00 1.000000e+00
    outer loop
      vertex   1.576696e+00 -7.592965e-01 0.000000e+00
      vertex   1.091107e+00 -1.368205e+00 0.000000e+00
      vertex   2.298133e+00 -1.928363e+00 0.000000e+00
    endloop
  endfacet
  facet normal 0.000000e+00 -0.000000e+00 1.000000e+00
    outer loop
      vertex   2.298133e+00 -1.928363e+00 0.000000e+00
      vertex   2.819078e+00 -1.026060e+00 0.000000e+00
      vertex   1.576696e+00 -7.592965e-01 0.000000e+00
    endloop
  endfacet
  facet normal 0.000000e+00 0.000000e+00 1.000000e+00
    outer loop
      vertex   1.750000e+00 -4.286264e-16 0.000000e+00
      vertex   1.576696e+00 -7.592965e-01 0.000000e+00
      vertex   2.819078e+00 -1.026060e+00 0.000000e+00
    endloop
  endfacet
  facet normal 0.000000e+00 -0.000000e+00 1.000000e+00
    outer loop
      vertex   2.819078e+00 -1.026060e+00 0.000000e+00
      vertex   3.000000e+00 0.000000e+00 0.000000e+00
      vertex   1.750000e+00 -4.286264e-16 0.000000e+00
    endloop
  endfacet
  facet normal 0.000000e+00 0.000000e+00 1.000000e+00
    outer loop
      vertex   1.576696e+00 7.592965e-01 0.000000e+00
      vertex   1.750000e+00 -4.286264e-16 0.000000e+00
      vertex   3.000000e+00 0.000000e+00 0.000000e+00
    endloop
  endfacet
  facet normal 0.000000e+00 0.000000e+00 1.000000e+00
    outer loop
      vertex   -2.298133e+00 -1.928363e+00 0.000000e+00
      vertex   -1.091107e+00 -1.368205e+00 0.000000e+00
      vertex   -1.576696e+00 -7.592965e-01 0.000000e+00
    endloop
  endfacet
  facet normal -0.000000e+00 0.000000e+00 1.000000e+00
    outer loop
      vertex   -2.298133e+00 -1.928363e+00 0.000000e+00
      vertex   -1.500000e+00 -2.598076e+00 0.000000e+00
      vertex   -1.091107e+00 -1.368205e+00 0.000000e+00
    endloop
  endfacet
  facet normal 0.000000e+00 0.000000e+00 1.000000e+00
    outer loop
      vertex   -3.894116e-01 -1.706124e+00 0.000000e+00
      vertex   -1.091107e+00 -1.368205e+00 0.000000e+00
      vertex   -1.500000e+00 -2.598076e+00 0.000000e+00
    endloop
  endfacet
  facet normal -0.000000e+00 0.000000e+00 1.000000e+00
    outer loop
      vertex   -1.500000e+00 -2.598076e+00 0.000000e+00
      vertex   -5.209445e-01 -2.954423e+00 0.000000e+00
      vertex   -3.894116e-01 -1.706124e+00 0.000000e+00
    endloop
  endfacet
  facet normal 0.000000e+00 0.000000e+00 1.000000e+00
    outer loop
      vertex   3.894116e-01 -1.706124e+00 0.000000e+00
      vertex   -3.894116e-01 -1.706124e+00 0.000000e+00
      vertex   -5.209445e-01 -2.954423e+00 0.000000e+00
    endloop
  endfacet
  facet normal -0.000000e+00 0.000000e+00 1.000000e+00
    outer loop
      vertex   -5.209445e-01 -2.954423e+00 0.000000e+00
      vertex   5.209445e-01 -2.954423e+00 0.000000e+00
      vertex   3.894116e-01 -1.706124e+00 0.000000e+00
    endloop
  endfacet
  facet normal 0.000000e+00 0.000000e+00 1.000000e+00
    outer loop
      vertex   1.091107e+00 -1.368205e+00 0.000000e+00
      vertex   3.894116e-01 -1.706124e+00 0.000000e+00
      vertex   5.209445e-01 -2.954423e+00 0.000000e+00
    endloop
  endfacet
  facet normal 0.000000e+00 0.000000e+00 1.000000e+00
    outer loop
      vertex   5.209445e-01 -2.954423e+00 0.000000e+00
      vertex   1.500000e+00 -2.598076e+00 0.000000e+00
      vertex   1.091107e+00 -1.368205e+00 0.000000e+00
    endloop
  endfacet
  facet normal 0.000000e+00 0.000000e+00 1.000000e+00
    outer loop
      vertex   1.091107e+00 -1.368205e+00 0.000000e+00
      vertex   1.500000e+00 -2.598076e+00 0.000000e+00
      vertex   2.298133e+00 -1.928363e+00 0.000000e+00
    endloop
  endfacet
  facet normal 0.000000e+00 -0.000000e+00 1.000000e+00
    outer loop
      vertex   -1.576696e+00 7.592965e-01 0.000000e+00
      vertex   -1.091107e+00 1.368205e+00 0.000000e+00
      vertex   -2.298133e+00 1.928363e+00 0.000000e+00
    endloop
  endfacet
  facet normal 0.000000e+00 0.000000e+00 1.000000e+00
    outer loop
      vertex   -2.298133e+00 1.928363e+00 0.000000e+00
      vertex   -2.819078e+00 1.026060e+00 0.000000e+00
      vertex   -1.576696e+00 7.592965e-01 0.000000e+00
    endloop
  endfacet
  facet normal 0.000000e+00 -0.000000e+00 1.000000e+00
    outer loop
      vertex   -1.750000e+00 2.143132e-16 0.000000e+00
      vertex   -1.576696e+00 7.592965e-01 0.000000e+00
      vertex   -2.819078e+00 1.026060e+00 0.000000e+00
    endloop
  endfacet
  facet normal 0.000000e+00 0.000000e+00 1.000000e+00
    outer loop
      vertex   -2.819078e+00 1.026060e+00 0.000000e+00
      vertex   -3.000000e+00 1.699662e-15 0.000000e+00
      vertex   -1.750000e+00 2.143132e-16 0.000000e+00
    endloop
  endfacet
  facet normal 0.000000e+00 0.000000e+00 1.000000e+00
    outer loop
      vertex   -1.576696e+00 -7.592965e-01 0.000000e+00
      vertex   -1.750000e+00 2.143132e-16 0.000000e+00
      vertex   -3.000000e+00 1.699662e-15 0.000000e+00
    endloop
  endfacet
  facet normal 0.000000e+00 0.000000e+00 1.000000e+00
    outer loop
      vertex   -3.000000e+00 1.699662e-15 0.000000e+00
      vertex   -2.819078e+00 -1.026060e+00 0.000000e+00
      vertex   -1.576696e+00 -7.592965e-01 0.000000e+00
    endloop
  endfacet
  facet normal 0.000000e+00 0.000000e+00 1.000000e+00
    outer loop
      vertex   -1.576696e+00 -7.592965e-01 0.000000e+00
      vertex   -2.819078e+00 -1.026060e+00 0.000000e+00
      vertex   -2.298133e+00 -1.928363e+00 0.000000e+00
    endloop
  endfacet
  facet normal 0.000000e+00 0.000000e+00 1.000000e+00
    outer loop
      vertex   3.000000e+00 0.000000e+00 0.000000e+00
      vertex   2.819078e+00 1.026060e+00 0.000000e+00
      vertex   1.576696e+00 7.592965e-01 0.000000e+00
    endloop
  endfacet
  facet normal 0.000000e+00 0.000000e+00 1.000000e+00
    outer loop
      vertex   1.576696e+00 7.592965e-01 0.000000e+00
      vertex   2.819078e+00 1.026060e+00 0.000000e+00
      vertex   2.298133e+00 1.928363e+00 0.000000e+00
    endloop
  endfacet
  facet normal 0.000000e+00 0.000000e+00 1.000000e+00
    outer loop
      vertex   2.298133e+00 1.928363e+00 0.000000e+00
      vertex   1.091107e+00 1.368205e+00 0.000000e+00
      vertex   1.576696e+00 7.592965e-01 0.000000e+00
    endloop
  endfacet
  facet normal 0.000000e+00 0.000000e+00 1.000000e+00
    outer loop
      vertex   2.298133e+00 1.928363e+00 0.000000e+00
      vertex   1.500000e+00 2.598076e+00 0.000000e+00
      vertex   1.091107e+00 1.368205e+00 0.000000e+00
    endloop
  endfacet
  facet normal -0.000000e+00 0.000000e+00 1.000000e+00
    outer loop
      vertex   3.894116e-01 1.706124e+00 0.000000e+00
      vertex   1.091107e+00 1.368205e+00 0.000000e+00
      vertex   1.500000e+00 2.598076e+00 0.000000e+00
    endloop
  endfacet
  facet normal 0.000000e+00 0.000000e+00 1.000000e+00
    outer loop
      vertex   1.500000e+00 2.598076e+00 0.000000e+00
      vertex   5.209445e-01 2.954423e+00 0.000000e+00
      vertex   3.894116e-01 1.706124e+00 0.000000e+00
    endloop
  endfacet
  facet normal 0.000000e+00 0.000000e+00 1.000000e+00
    outer loop
      vertex   -3.894116e-01 1.706124e+00 0.000000e+00
      vertex   3.894116e-01 1.706124e+00 0.000000e+00
      vertex   5.209445e-01 2.954423e+00 0.000000e+00
    endloop
  endfacet
  facet normal 0.000000e+00 0.000000e+00 1.000000e+00
    outer loop
      vertex   5.209445e-01 2.954423e+00 0.000000e+00
      vertex   -5.209445e-01 2.954423e+00 0.000000e+00
      vertex   -3.894116e-01 1.706124e+00 0.000000e+00
    endloop
  endfacet
  facet normal 0.000000e+00 0.000000e+00 1.000000e+00
    outer loop
      vertex   -1.091107e+00 1.368205e+00 0.000000e+00
      vertex   -3.894116e-01 1.706124e+00 0.000000e+00
      vertex   -5.209445e-01 2.954423e+00 0.000000e+00
    endloop
  endfacet
  facet normal 0.000000e+00 0.000000e+00 1.000000e+00
    outer loop
      vertex   -5.209445e-01 2.954423e+00 0.000000e+00
      vertex   -1.500000e+00 2.598076e+00 0.000000e+00
      vertex   -1.091107e+00 1.368205e+00 0.000000e+00
    endloop
  endfacet
  facet normal 0.000000e+00 0.000000e+00 1.000000e+00
    outer loop
      vertex   -1.091107e+00 1.368205e+00 0.000000e+00
      vertex   -1.500000e+00 2.598076e+00 0.000000e+00
      vertex   -2.298133e+00 1.928363e+00 0.000000e+00
    endloop
  endfacet
endsolid
