solid ascii
  facet normal 1.000000e+00 0.000000e+00 0.000000e+00
    outer loop
      vertex   2.000000e+01 8.945364e+00 0.000000e+00
      vertex   2.000000e+01 1.400876e+01 0.000000e+00
      vertex   2.000000e+01 1.400876e+01 1.000000e+01
    endloop
  endfacet
  facet normal 1.000000e+00 0.000000e+00 0.000000e+00
    outer loop
      vertex   2.000000e+01 1.400876e+01 1.000000e+01
      vertex   2.000000e+01 8.945364e+00 1.000000e+01
      vertex   2.000000e+01 8.945364e+00 0.000000e+00
    endloop
  endfacet
  facet normal -8.673617e-17 1.000000e+00 0.000000e+00
    outer loop
      vertex   0.000000e+00 1.400876e+01 0.000000e+00
      vertex   0.000000e+00 1.400876e+01 1.000000e+01
      vertex   2.000000e+01 1.400876e+01 1.000000e+01
    endloop
  endfacet
  facet normal -8.673617e-17 1.000000e+00 0.000000e+00
    outer loop
      vertex   2.000000e+01 1.400876e+01 1.000000e+01
      vertex   2.000000e+01 1.400876e+01 0.000000e+00
      vertex   0.000000e+00 1.400876e+01 0.000000e+00
    endloop
  endfacet
  facet normal -1.000000e+00 1.056554e-15 -1.734723e-16
    outer loop
      vertex   -3.469447e-15 9.083150e+00 0.000000e+00
      vertex   -5.204170e-15 9.083150e+00 1.000000e+01
      vertex   0.000000e+00 1.400876e+01 1.000000e+01
    endloop
  endfacet
  facet normal -1.000000e+00 7.043692e-16 0.000000e+00
    outer loop
      vertex   0.000000e+00 1.400876e+01 1.000000e+01
      vertex   0.000000e+00 1.400876e+01 0.000000e+00
      vertex   -3.469447e-15 9.083150e+00 0.000000e+00
    endloop
  endfacet
  facet normal -0.000000e+00 1.000000e+00 0.000000e+00
    outer loop
      vertex   2.000000e+01 8.945364e+00 1.000000e+01
      vertex   2.500000e+01 8.945364e+00 1.000000e+01
      vertex   2.500000e+01 8.945364e+00 0.000000e+00
    endloop
  endfacet
  facet normal 0.000000e+00 1.000000e+00 0.000000e+00
    outer loop
      vertex   2.500000e+01 8.945364e+00 0.000000e+00
      vertex   2.000000e+01 8.945364e+00 0.000000e+00
      vertex   2.000000e+01 8.945364e+00 1.000000e+01
    endloop
  endfacet
  facet normal 1.000000e+00 0.000000e+00 0.000000e+00
    outer loop
      vertex   2.500000e+01 7.008759e+00 0.000000e+00
      vertex   2.500000e+01 8.945364e+00 0.000000e+00
      vertex   2.500000e+01 8.945364e+00 1.000000e+01
    endloop
  endfacet
  facet normal 1.000000e+00 0.000000e+00 0.000000e+00
    outer loop
      vertex   2.500000e+01 8.945364e+00 1.000000e+01
      vertex   2.500000e+01 7.008759e+00 1.000000e+01
      vertex   2.500000e+01 7.008759e+00 0.000000e+00
    endloop
  endfacet
  facet normal 0.000000e+00 -1.000000e+00 0.000000e+00
    outer loop
      vertex   2.500000e+01 7.008759e+00 0.000000e+00
      vertex   2.500000e+01 7.008759e+00 1.000000e+01
      vertex   1.750000e+01 7.008759e+00 1.000000e+01
    endloop
  endfacet
  facet normal 0.000000e+00 -1.000000e+00 0.000000e+00
    outer loop
      vertex   1.750000e+01 7.008759e+00 1.000000e+01
      vertex   1.750000e+01 7.008759e+00 0.000000e+00
      vertex   2.500000e+01 7.008759e+00 0.000000e+00
    endloop
  endfacet
  facet normal -1.000000e+00 0.000000e+00 0.000000e+00
    outer loop
      vertex   1.750000e+01 7.008759e+00 0.000000e+00
      vertex   1.750000e+01 7.008759e+00 1.000000e+01
      vertex   1.750000e+01 1.200876e+01 1.000000e+01
    endloop
  endfacet
  facet normal -1.000000e+00 0.000000e+00 -0.000000e+00
    outer loop
      vertex   1.750000e+01 1.200876e+01 1.000000e+01
      vertex   1.750000e+01 1.200876e+01 0.000000e+00
      vertex   1.750000e+01 7.008759e+00 0.000000e+00
    endloop
  endfacet
  facet normal 0.000000e+00 -1.000000e+00 0.000000e+00
    outer loop
      vertex   1.750000e+01 1.200876e+01 0.000000e+00
      vertex   1.750000e+01 1.200876e+01 1.000000e+01
      vertex   2.500000e+00 1.200876e+01 1.000000e+01
    endloop
  endfacet
  facet normal 0.000000e+00 -1.000000e+00 0.000000e+00
    outer loop
      vertex   2.500000e+00 1.200876e+01 1.000000e+01
      vertex   2.500000e+00 1.200876e+01 0.000000e+00
      vertex   1.750000e+01 1.200876e+01 0.000000e+00
    endloop
  endfacet
  facet normal 1.000000e+00 0.000000e+00 -0.000000e+00
    outer loop
      vertex   2.500000e+00 1.200876e+01 0.000000e+00
      vertex   2.500000e+00 1.200876e+01 1.000000e+01
      vertex   2.500000e+00 7.008759e+00 1.000000e+01
    endloop
  endfacet
  facet normal 1.000000e+00 0.000000e+00 0.000000e+00
    outer loop
      vertex   2.500000e+00 7.008759e+00 1.000000e+01
      vertex   2.500000e+00 7.008759e+00 0.000000e+00
      vertex   2.500000e+00 1.200876e+01 0.000000e+00
    endloop
  endfacet
  facet normal 0.000000e+00 0.000000e+00 1.000000e+00
    outer loop
      vertex   1.750000e+01 7.008759e+00 1.000000e+01
      vertex   2.500000e+01 7.008759e+00 1.000000e+01
      vertex   2.500000e+01 8.945364e+00 1.000000e+01
    endloop
  endfacet
  facet normal 0.000000e+00 0.000000e+00 1.000000e+00
    outer loop
      vertex   2.500000e+01 8.945364e+00 1.000000e+01
      vertex   2.000000e+01 8.945364e+00 1.000000e+01
      vertex   1.750000e+01 7.008759e+00 1.000000e+01
    endloop
  endfacet
  facet normal 0.000000e+00 0.000000e+00 1.000000e+00
    outer loop
      vertex   1.750000e+01 1.200876e+01 1.000000e+01
      vertex   1.750000e+01 7.008759e+00 1.000000e+01
      vertex   2.000000e+01 8.945364e+00 1.000000e+01
    endloop
  endfacet
  facet normal 0.000000e+00 -0.000000e+00 1.000000e+00
    outer loop
      vertex   2.000000e+01 8.945364e+00 1.000000e+01
      vertex   2.000000e+01 1.400876e+01 1.000000e+01
      vertex   1.750000e+01 1.200876e+01 1.000000e+01
    endloop
  endfacet
  facet normal 0.000000e+00 0.000000e+00 1.000000e+00
    outer loop
      vertex   2.500000e+00 1.200876e+01 1.000000e+01
      vertex   1.750000e+01 1.200876e+01 1.000000e+01
      vertex   2.000000e+01 1.400876e+01 1.000000e+01
    endloop
  endfacet
  facet normal 0.000000e+00 0.000000e+00 1.000000e+00
    outer loop
      vertex   2.000000e+01 1.400876e+01 1.000000e+01
      vertex   0.000000e+00 1.400876e+01 1.000000e+01
      vertex   2.500000e+00 1.200876e+01 1.000000e+01
    endloop
  endfacet
  facet normal 0.000000e+00 -0.000000e+00 1.000000e+00
    outer loop
      vertex   2.500000e+00 7.008759e+00 1.000000e+01
      vertex   2.500000e+00 1.200876e+01 1.000000e+01
      vertex   0.000000e+00 1.400876e+01 1.000000e+01
    endloop
  endfacet
  facet normal 0.000000e+00 0.000000e+00 1.000000e+00
    outer loop
      vertex   0.000000e+00 1.400876e+01 1.000000e+01
      vertex   -5.204170e-15 9.083150e+00 1.000000e+01
      vertex   2.500000e+00 7.008759e+00 1.000000e+01
    endloop
  endfacet
  facet normal -0.000000e+00 0.000000e+00 1.000000e+00
    outer loop
      vertex   -5.000000e+00 7.008759e+00 1.000000e+01
      vertex   2.500000e+00 7.008759e+00 1.000000e+01
      vertex   -5.204170e-15 9.083150e+00 1.000000e+01
    endloop
  endfacet
  facet normal 0.000000e+00 0.000000e+00 1.000000e+00
    outer loop
      vertex   -5.204170e-15 9.083150e+00 1.000000e+01
      vertex   -5.000000e+00 9.083150e+00 1.000000e+01
      vertex   -5.000000e+00 7.008759e+00 1.000000e+01
    endloop
  endfacet
  facet normal 0.000000e+00 0.000000e+00 -1.000000e+00
    outer loop
      vertex   2.000000e+01 8.945364e+00 0.000000e+00
      vertex   2.500000e+01 8.945364e+00 0.000000e+00
      vertex   2.500000e+01 7.008759e+00 0.000000e+00
    endloop
  endfacet
  facet normal 0.000000e+00 0.000000e+00 -1.000000e+00
    outer loop
      vertex   2.500000e+01 7.008759e+00 0.000000e+00
      vertex   1.750000e+01 7.008759e+00 0.000000e+00
      vertex   2.000000e+01 8.945364e+00 0.000000e+00
    endloop
  endfacet
  facet normal 0.000000e+00 -0.000000e+00 -1.000000e+00
    outer loop
      vertex   2.000000e+01 1.400876e+01 0.000000e+00
      vertex   2.000000e+01 8.945364e+00 0.000000e+00
      vertex   1.750000e+01 7.008759e+00 0.000000e+00
    endloop
  endfacet
  facet normal 0.000000e+00 0.000000e+00 -1.000000e+00
    outer loop
      vertex   1.750000e+01 7.008759e+00 0.000000e+00
      vertex   1.750000e+01 1.200876e+01 0.000000e+00
      vertex   2.000000e+01 1.400876e+01 0.000000e+00
    endloop
  endfacet
  facet normal 0.000000e+00 0.000000e+00 -1.000000e+00
    outer loop
      vertex   0.000000e+00 1.400876e+01 0.000000e+00
      vertex   2.000000e+01 1.400876e+01 0.000000e+00
      vertex   1.750000e+01 1.200876e+01 0.000000e+00
    endloop
  endfacet
  facet normal 0.000000e+00 0.000000e+00 -1.000000e+00
    outer loop
      vertex   1.750000e+01 1.200876e+01 0.000000e+00
      vertex   2.500000e+00 1.200876e+01 0.000000e+00
      vertex   0.000000e+00 1.400876e+01 0.000000e+00
    endloop
  endfacet
  facet normal 0.000000e+00 0.000000e+00 -1.000000e+00
    outer loop
      vertex   -3.469447e-15 9.083150e+00 0.000000e+00
      vertex   0.000000e+00 1.400876e+01 0.000000e+00
      vertex   2.500000e+00 1.200876e+01 0.000000e+00
    endloop
  endfacet
  facet normal 0.000000e+00 -0.000000e+00 -1.000000e+00
    outer loop
      vertex   2.500000e+00 1.200876e+01 0.000000e+00
      vertex   2.500000e+00 7.008759e+00 0.000000e+00
      vertex   -3.469447e-15 9.083150e+00 0.000000e+00
    endloop
  endfacet
  facet normal 0.000000e+00 0.000000e+00 -1.000000e+00
    outer loop
      vertex   -5.000000e+00 9.083150e+00 0.000000e+00
      vertex   -3.469447e-15 9.083150e+00 0.000000e+00
      vertex   2.500000e+00 7.008759e+00 0.000000e+00
    endloop
  endfacet
  facet normal 0.000000e+00 0.000000e+00 -1.000000e+00
    outer loop
      vertex   2.500000e+00 7.008759e+00 0.000000e+00
      vertex   -5.000000e+00 7.008759e+00 0.000000e+00
      vertex   -5.000000e+00 9.083150e+00 0.000000e+00
    endloop
  endfacet
  facet normal -2.312965e-16 -1.000000e+00 0.000000e+00
    outer loop
      vertex   2.500000e+00 7.008759e+00 0.000000e+00
      vertex   2.500000e+00 7.008759e+00 1.000000e+01
      vertex   -5.000000e+00 7.008759e+00 1.000000e+01
    endloop
  endfacet
  facet normal -2.312965e-16 -1.000000e+00 4.012354e-32
    outer loop
      vertex   -5.000000e+00 7.008759e+00 1.000000e+01
      vertex   -5.000000e+00 7.008759e+00 0.000000e+00
      vertex   2.500000e+00 7.008759e+00 0.000000e+00
    endloop
  endfacet
  facet normal 3.469447e-16 1.000000e+00 0.000000e+00
    outer loop
      vertex   -3.469447e-15 9.083150e+00 0.000000e+00
      vertex   -5.000000e+00 9.083150e+00 0.000000e+00
      vertex   -5.000000e+00 9.083150e+00 1.000000e+01
    endloop
  endfacet
  facet normal 3.469447e-16 1.000000e+00 2.756167e-32
    outer loop
      vertex   -5.000000e+00 9.083150e+00 1.000000e+01
      vertex   -5.204170e-15 9.083150e+00 1.000000e+01
      vertex   -3.469447e-15 9.083150e+00 0.000000e+00
    endloop
  endfacet
  facet normal -1.000000e+00 8.362565e-16 1.734723e-16
    outer loop
      vertex   -5.000000e+00 9.083150e+00 0.000000e+00
      vertex   -5.000000e+00 7.008759e+00 0.000000e+00
      vertex   -5.000000e+00 7.008759e+00 1.000000e+01
    endloop
  endfacet
  facet normal -1.000000e+00 0.000000e+00 0.000000e+00
    outer loop
      vertex   -5.000000e+00 7.008759e+00 1.000000e+01
      vertex   -5.000000e+00 9.083150e+00 1.000000e+01
      vertex   -5.000000e+00 9.083150e+00 0.000000e+00
    endloop
  endfacet
endsolid
