solid ascii
  facet normal 0.000000e+00 -1.000000e+00 0.000000e+00
    outer loop
      vertex   2.350000e+01 -2.000000e+01 -2.500000e+00
      vertex   2.350000e+01 -2.000000e+01 2.500000e+00
      vertex   -2.350000e+01 -2.000000e+01 2.500000e+00
    endloop
  endfacet
  facet normal 0.000000e+00 -1.000000e+00 0.000000e+00
    outer loop
      vertex   -2.350000e+01 -2.000000e+01 2.500000e+00
      vertex   -2.350000e+01 -2.000000e+01 -2.500000e+00
      vertex   2.350000e+01 -2.000000e+01 -2.500000e+00
    endloop
  endfacet
  facet normal 1.000000e+00 0.000000e+00 0.000000e+00
    outer loop
      vertex   2.350000e+01 2.000000e+01 -2.500000e+00
      vertex   2.350000e+01 1.500000e+01 2.500000e+00
      vertex   2.350000e+01 -2.000000e+01 2.500000e+00
    endloop
  endfacet
  facet normal 1.000000e+00 0.000000e+00 0.000000e+00
    outer loop
      vertex   2.350000e+01 -2.000000e+01 2.500000e+00
      vertex   2.350000e+01 -2.000000e+01 -2.500000e+00
      vertex   2.350000e+01 2.000000e+01 -2.500000e+00
    endloop
  endfacet
  facet normal -1.000000e+00 0.000000e+00 -0.000000e+00
    outer loop
      vertex   -2.350000e+01 1.500000e+01 2.500000e+00
      vertex   -2.350000e+01 2.000000e+01 -2.500000e+00
      vertex   -2.350000e+01 -2.000000e+01 -2.500000e+00
    endloop
  endfacet
  facet normal -1.000000e+00 0.000000e+00 0.000000e+00
    outer loop
      vertex   -2.350000e+01 -2.000000e+01 -2.500000e+00
      vertex   -2.350000e+01 -2.000000e+01 2.500000e+00
      vertex   -2.350000e+01 1.500000e+01 2.500000e+00
    endloop
  endfacet
  facet normal 3.066587e-16 7.071068e-01 7.071068e-01
    outer loop
      vertex   2.350000e+01 2.000000e+01 -2.500000e+00
      vertex   2.050000e+01 2.000000e+01 -2.500000e+00
      vertex   2.050000e+01 1.500000e+01 2.500000e+00
    endloop
  endfacet
  facet normal -8.177565e-16 7.071068e-01 7.071068e-01
    outer loop
      vertex   2.050000e+01 1.500000e+01 2.500000e+00
      vertex   2.350000e+01 1.500000e+01 2.500000e+00
      vertex   2.350000e+01 2.000000e+01 -2.500000e+00
    endloop
  endfacet
  facet normal -1.000000e+00 0.000000e+00 -0.000000e+00
    outer loop
      vertex   2.050000e+01 1.500000e+01 2.500000e+00
      vertex   2.050000e+01 2.000000e+01 -2.500000e+00
      vertex   2.050000e+01 5.000000e+00 -2.500000e+00
    endloop
  endfacet
  facet normal -1.000000e+00 0.000000e+00 0.000000e+00
    outer loop
      vertex   2.050000e+01 5.000000e+00 -2.500000e+00
      vertex   2.050000e+01 5.000000e+00 2.500000e+00
      vertex   2.050000e+01 1.500000e+01 2.500000e+00
    endloop
  endfacet
  facet normal 0.000000e+00 1.000000e+00 0.000000e+00
    outer loop
      vertex   2.050000e+01 5.000000e+00 2.500000e+00
      vertex   2.050000e+01 5.000000e+00 -2.500000e+00
      vertex   1.450000e+01 5.000000e+00 -2.500000e+00
    endloop
  endfacet
  facet normal 0.000000e+00 1.000000e+00 0.000000e+00
    outer loop
      vertex   1.450000e+01 5.000000e+00 -2.500000e+00
      vertex   1.450000e+01 5.000000e+00 2.500000e+00
      vertex   2.050000e+01 5.000000e+00 2.500000e+00
    endloop
  endfacet
  facet normal 1.000000e+00 0.000000e+00 0.000000e+00
    outer loop
      vertex   1.450000e+01 2.000000e+01 -2.500000e+00
      vertex   1.450000e+01 1.500000e+01 2.500000e+00
      vertex   1.450000e+01 5.000000e+00 2.500000e+00
    endloop
  endfacet
  facet normal 1.000000e+00 0.000000e+00 0.000000e+00
    outer loop
      vertex   1.450000e+01 5.000000e+00 2.500000e+00
      vertex   1.450000e+01 5.000000e+00 -2.500000e+00
      vertex   1.450000e+01 2.000000e+01 -2.500000e+00
    endloop
  endfacet
  facet normal -9.199761e-16 7.071068e-01 7.071068e-01
    outer loop
      vertex   1.450000e+01 2.000000e+01 -2.500000e+00
      vertex   1.350000e+01 2.000000e+01 -2.500000e+00
      vertex   1.350000e+01 1.500000e+01 2.500000e+00
    endloop
  endfacet
  facet normal -0.000000e+00 7.071068e-01 7.071068e-01
    outer loop
      vertex   1.350000e+01 1.500000e+01 2.500000e+00
      vertex   1.450000e+01 1.500000e+01 2.500000e+00
      vertex   1.450000e+01 2.000000e+01 -2.500000e+00
    endloop
  endfacet
  facet normal -1.000000e+00 0.000000e+00 -0.000000e+00
    outer loop
      vertex   1.350000e+01 1.500000e+01 2.500000e+00
      vertex   1.350000e+01 2.000000e+01 -2.500000e+00
      vertex   1.350000e+01 5.000000e+00 -2.500000e+00
    endloop
  endfacet
  facet normal -1.000000e+00 0.000000e+00 0.000000e+00
    outer loop
      vertex   1.350000e+01 5.000000e+00 -2.500000e+00
      vertex   1.350000e+01 5.000000e+00 2.500000e+00
      vertex   1.350000e+01 1.500000e+01 2.500000e+00
    endloop
  endfacet
  facet normal 0.000000e+00 1.000000e+00 0.000000e+00
    outer loop
      vertex   1.350000e+01 5.000000e+00 2.500000e+00
      vertex   1.350000e+01 5.000000e+00 -2.500000e+00
      vertex   7.500000e+00 5.000000e+00 -2.500000e+00
    endloop
  endfacet
  facet normal 0.000000e+00 1.000000e+00 0.000000e+00
    outer loop
      vertex   7.500000e+00 5.000000e+00 -2.500000e+00
      vertex   7.500000e+00 5.000000e+00 2.500000e+00
      vertex   1.350000e+01 5.000000e+00 2.500000e+00
    endloop
  endfacet
  facet normal 1.000000e+00 0.000000e+00 0.000000e+00
    outer loop
      vertex   7.500000e+00 2.000000e+01 -2.500000e+00
      vertex   7.500000e+00 1.500000e+01 2.500000e+00
      vertex   7.500000e+00 5.000000e+00 2.500000e+00
    endloop
  endfacet
  facet normal 1.000000e+00 0.000000e+00 0.000000e+00
    outer loop
      vertex   7.500000e+00 5.000000e+00 2.500000e+00
      vertex   7.500000e+00 5.000000e+00 -2.500000e+00
      vertex   7.500000e+00 2.000000e+01 -2.500000e+00
    endloop
  endfacet
  facet normal 0.000000e+00 7.071068e-01 7.071068e-01
    outer loop
      vertex   7.500000e+00 2.000000e+01 -2.500000e+00
      vertex   6.500000e+00 2.000000e+01 -2.500000e+00
      vertex   6.500000e+00 1.500000e+01 2.500000e+00
    endloop
  endfacet
  facet normal -0.000000e+00 7.071068e-01 7.071068e-01
    outer loop
      vertex   6.500000e+00 1.500000e+01 2.500000e+00
      vertex   7.500000e+00 1.500000e+01 2.500000e+00
      vertex   7.500000e+00 2.000000e+01 -2.500000e+00
    endloop
  endfacet
  facet normal -1.000000e+00 0.000000e+00 -0.000000e+00
    outer loop
      vertex   6.500000e+00 1.500000e+01 2.500000e+00
      vertex   6.500000e+00 2.000000e+01 -2.500000e+00
      vertex   6.500000e+00 5.000000e+00 -2.500000e+00
    endloop
  endfacet
  facet normal -1.000000e+00 0.000000e+00 0.000000e+00
    outer loop
      vertex   6.500000e+00 5.000000e+00 -2.500000e+00
      vertex   6.500000e+00 5.000000e+00 2.500000e+00
      vertex   6.500000e+00 1.500000e+01 2.500000e+00
    endloop
  endfacet
  facet normal 0.000000e+00 1.000000e+00 0.000000e+00
    outer loop
      vertex   6.500000e+00 5.000000e+00 2.500000e+00
      vertex   6.500000e+00 5.000000e+00 -2.500000e+00
      vertex   5.000000e-01 5.000000e+00 -2.500000e+00
    endloop
  endfacet
  facet normal 0.000000e+00 1.000000e+00 0.000000e+00
    outer loop
      vertex   5.000000e-01 5.000000e+00 -2.500000e+00
      vertex   5.000000e-01 5.000000e+00 2.500000e+00
      vertex   6.500000e+00 5.000000e+00 2.500000e+00
    endloop
  endfacet
  facet normal 1.000000e+00 0.000000e+00 0.000000e+00
    outer loop
      vertex   5.000000e-01 2.000000e+01 -2.500000e+00
      vertex   5.000000e-01 1.500000e+01 2.500000e+00
      vertex   5.000000e-01 5.000000e+00 2.500000e+00
    endloop
  endfacet
  facet normal 1.000000e+00 0.000000e+00 0.000000e+00
    outer loop
      vertex   5.000000e-01 5.000000e+00 2.500000e+00
      vertex   5.000000e-01 5.000000e+00 -2.500000e+00
      vertex   5.000000e-01 2.000000e+01 -2.500000e+00
    endloop
  endfacet
  facet normal -9.199761e-16 7.071068e-01 7.071068e-01
    outer loop
      vertex   5.000000e-01 2.000000e+01 -2.500000e+00
      vertex   -5.000000e-01 2.000000e+01 -2.500000e+00
      vertex   -5.000000e-01 1.500000e+01 2.500000e+00
    endloop
  endfacet
  facet normal -0.000000e+00 7.071068e-01 7.071068e-01
    outer loop
      vertex   -5.000000e-01 1.500000e+01 2.500000e+00
      vertex   5.000000e-01 1.500000e+01 2.500000e+00
      vertex   5.000000e-01 2.000000e+01 -2.500000e+00
    endloop
  endfacet
  facet normal -1.000000e+00 5.782412e-17 -1.156482e-16
    outer loop
      vertex   -5.000000e-01 1.500000e+01 2.500000e+00
      vertex   -5.000000e-01 2.000000e+01 -2.500000e+00
      vertex   -5.000000e-01 5.000000e+00 -2.500000e+00
    endloop
  endfacet
  facet normal -1.000000e+00 0.000000e+00 0.000000e+00
    outer loop
      vertex   -5.000000e-01 5.000000e+00 -2.500000e+00
      vertex   -5.000000e-01 5.000000e+00 2.500000e+00
      vertex   -5.000000e-01 1.500000e+01 2.500000e+00
    endloop
  endfacet
  facet normal 0.000000e+00 1.000000e+00 0.000000e+00
    outer loop
      vertex   -5.000000e-01 5.000000e+00 2.500000e+00
      vertex   -5.000000e-01 5.000000e+00 -2.500000e+00
      vertex   -6.500000e+00 5.000000e+00 -2.500000e+00
    endloop
  endfacet
  facet normal 0.000000e+00 1.000000e+00 0.000000e+00
    outer loop
      vertex   -6.500000e+00 5.000000e+00 -2.500000e+00
      vertex   -6.500000e+00 5.000000e+00 2.500000e+00
      vertex   -5.000000e-01 5.000000e+00 2.500000e+00
    endloop
  endfacet
  facet normal 1.000000e+00 0.000000e+00 -1.734723e-16
    outer loop
      vertex   -6.500000e+00 2.000000e+01 -2.500000e+00
      vertex   -6.500000e+00 1.500000e+01 2.500000e+00
      vertex   -6.500000e+00 5.000000e+00 2.500000e+00
    endloop
  endfacet
  facet normal 1.000000e+00 5.782412e-17 0.000000e+00
    outer loop
      vertex   -6.500000e+00 5.000000e+00 2.500000e+00
      vertex   -6.500000e+00 5.000000e+00 -2.500000e+00
      vertex   -6.500000e+00 2.000000e+01 -2.500000e+00
    endloop
  endfacet
  facet normal 0.000000e+00 7.071068e-01 7.071068e-01
    outer loop
      vertex   -6.500000e+00 2.000000e+01 -2.500000e+00
      vertex   -7.500000e+00 2.000000e+01 -2.500000e+00
      vertex   -7.500000e+00 1.500000e+01 2.500000e+00
    endloop
  endfacet
  facet normal -0.000000e+00 7.071068e-01 7.071068e-01
    outer loop
      vertex   -7.500000e+00 1.500000e+01 2.500000e+00
      vertex   -6.500000e+00 1.500000e+01 2.500000e+00
      vertex   -6.500000e+00 2.000000e+01 -2.500000e+00
    endloop
  endfacet
  facet normal -1.000000e+00 1.156482e-16 -2.312965e-16
    outer loop
      vertex   -7.500000e+00 1.500000e+01 2.500000e+00
      vertex   -7.500000e+00 2.000000e+01 -2.500000e+00
      vertex   -7.500000e+00 5.000000e+00 -2.500000e+00
    endloop
  endfacet
  facet normal -1.000000e+00 0.000000e+00 0.000000e+00
    outer loop
      vertex   -7.500000e+00 5.000000e+00 -2.500000e+00
      vertex   -7.500000e+00 5.000000e+00 2.500000e+00
      vertex   -7.500000e+00 1.500000e+01 2.500000e+00
    endloop
  endfacet
  facet normal 0.000000e+00 1.000000e+00 0.000000e+00
    outer loop
      vertex   -7.500000e+00 5.000000e+00 2.500000e+00
      vertex   -7.500000e+00 5.000000e+00 -2.500000e+00
      vertex   -1.350000e+01 5.000000e+00 -2.500000e+00
    endloop
  endfacet
  facet normal 0.000000e+00 1.000000e+00 0.000000e+00
    outer loop
      vertex   -1.350000e+01 5.000000e+00 -2.500000e+00
      vertex   -1.350000e+01 5.000000e+00 2.500000e+00
      vertex   -7.500000e+00 5.000000e+00 2.500000e+00
    endloop
  endfacet
  facet normal 1.000000e+00 0.000000e+00 0.000000e+00
    outer loop
      vertex   -1.350000e+01 2.000000e+01 -2.500000e+00
      vertex   -1.350000e+01 1.500000e+01 2.500000e+00
      vertex   -1.350000e+01 5.000000e+00 2.500000e+00
    endloop
  endfacet
  facet normal 1.000000e+00 0.000000e+00 0.000000e+00
    outer loop
      vertex   -1.350000e+01 5.000000e+00 2.500000e+00
      vertex   -1.350000e+01 5.000000e+00 -2.500000e+00
      vertex   -1.350000e+01 2.000000e+01 -2.500000e+00
    endloop
  endfacet
  facet normal -9.199761e-16 7.071068e-01 7.071068e-01
    outer loop
      vertex   -1.350000e+01 2.000000e+01 -2.500000e+00
      vertex   -1.450000e+01 2.000000e+01 -2.500000e+00
      vertex   -1.450000e+01 1.500000e+01 2.500000e+00
    endloop
  endfacet
  facet normal -0.000000e+00 7.071068e-01 7.071068e-01
    outer loop
      vertex   -1.450000e+01 1.500000e+01 2.500000e+00
      vertex   -1.350000e+01 1.500000e+01 2.500000e+00
      vertex   -1.350000e+01 2.000000e+01 -2.500000e+00
    endloop
  endfacet
  facet normal -1.000000e+00 1.156482e-16 -5.782412e-16
    outer loop
      vertex   -1.450000e+01 1.500000e+01 2.500000e+00
      vertex   -1.450000e+01 2.000000e+01 -2.500000e+00
      vertex   -1.450000e+01 5.000000e+00 -2.500000e+00
    endloop
  endfacet
  facet normal -1.000000e+00 -1.734723e-16 0.000000e+00
    outer loop
      vertex   -1.450000e+01 5.000000e+00 -2.500000e+00
      vertex   -1.450000e+01 5.000000e+00 2.500000e+00
      vertex   -1.450000e+01 1.500000e+01 2.500000e+00
    endloop
  endfacet
  facet normal 0.000000e+00 0.000000e+00 1.000000e+00
    outer loop
      vertex   2.350000e+01 1.500000e+01 2.500000e+00
      vertex   2.050000e+01 1.500000e+01 2.500000e+00
      vertex   2.050000e+01 5.000000e+00 2.500000e+00
    endloop
  endfacet
  facet normal 7.228014e-17 -1.272131e-16 1.000000e+00
    outer loop
      vertex   2.050000e+01 5.000000e+00 2.500000e+00
      vertex   1.450000e+01 5.000000e+00 2.500000e+00
      vertex   -2.350000e+01 -2.000000e+01 2.500000e+00
    endloop
  endfacet
  facet normal 0.000000e+00 0.000000e+00 1.000000e+00
    outer loop
      vertex   -2.350000e+01 -2.000000e+01 2.500000e+00
      vertex   2.350000e+01 -2.000000e+01 2.500000e+00
      vertex   2.050000e+01 5.000000e+00 2.500000e+00
    endloop
  endfacet
  facet normal -0.000000e+00 0.000000e+00 1.000000e+00
    outer loop
      vertex   2.050000e+01 5.000000e+00 2.500000e+00
      vertex   2.350000e+01 -2.000000e+01 2.500000e+00
      vertex   2.350000e+01 1.500000e+01 2.500000e+00
    endloop
  endfacet
  facet normal 0.000000e+00 4.336809e-17 1.000000e+00
    outer loop
      vertex   7.500000e+00 5.000000e+00 2.500000e+00
      vertex   7.500000e+00 1.500000e+01 2.500000e+00
      vertex   6.500000e+00 1.500000e+01 2.500000e+00
    endloop
  endfacet
  facet normal 0.000000e+00 0.000000e+00 1.000000e+00
    outer loop
      vertex   6.500000e+00 5.000000e+00 2.500000e+00
      vertex   5.000000e-01 5.000000e+00 2.500000e+00
      vertex   -2.350000e+01 -2.000000e+01 2.500000e+00
    endloop
  endfacet
  facet normal -4.336809e-16 0.000000e+00 1.000000e+00
    outer loop
      vertex   6.500000e+00 1.500000e+01 2.500000e+00
      vertex   6.500000e+00 5.000000e+00 2.500000e+00
      vertex   7.500000e+00 5.000000e+00 2.500000e+00
    endloop
  endfacet
  facet normal -4.336809e-16 5.204170e-16 1.000000e+00
    outer loop
      vertex   -2.350000e+01 -2.000000e+01 2.500000e+00
      vertex   7.500000e+00 5.000000e+00 2.500000e+00
      vertex   6.500000e+00 5.000000e+00 2.500000e+00
    endloop
  endfacet
  facet normal 7.228014e-17 -1.069746e-16 1.000000e+00
    outer loop
      vertex   1.350000e+01 5.000000e+00 2.500000e+00
      vertex   7.500000e+00 5.000000e+00 2.500000e+00
      vertex   -2.350000e+01 -2.000000e+01 2.500000e+00
    endloop
  endfacet
  facet normal -4.336809e-16 6.418477e-16 1.000000e+00
    outer loop
      vertex   -2.350000e+01 -2.000000e+01 2.500000e+00
      vertex   1.450000e+01 5.000000e+00 2.500000e+00
      vertex   1.350000e+01 5.000000e+00 2.500000e+00
    endloop
  endfacet
  facet normal -4.336809e-16 0.000000e+00 1.000000e+00
    outer loop
      vertex   1.350000e+01 1.500000e+01 2.500000e+00
      vertex   1.350000e+01 5.000000e+00 2.500000e+00
      vertex   1.450000e+01 5.000000e+00 2.500000e+00
    endloop
  endfacet
  facet normal 0.000000e+00 4.336809e-17 1.000000e+00
    outer loop
      vertex   1.450000e+01 5.000000e+00 2.500000e+00
      vertex   1.450000e+01 1.500000e+01 2.500000e+00
      vertex   1.350000e+01 1.500000e+01 2.500000e+00
    endloop
  endfacet
  facet normal 0.000000e+00 4.336809e-17 1.000000e+00
    outer loop
      vertex   -6.500000e+00 5.000000e+00 2.500000e+00
      vertex   -6.500000e+00 1.500000e+01 2.500000e+00
      vertex   -7.500000e+00 1.500000e+01 2.500000e+00
    endloop
  endfacet
  facet normal 0.000000e+00 0.000000e+00 1.000000e+00
    outer loop
      vertex   -7.500000e+00 5.000000e+00 2.500000e+00
      vertex   -1.350000e+01 5.000000e+00 2.500000e+00
      vertex   -2.350000e+01 -2.000000e+01 2.500000e+00
    endloop
  endfacet
  facet normal -4.336809e-16 0.000000e+00 1.000000e+00
    outer loop
      vertex   -7.500000e+00 1.500000e+01 2.500000e+00
      vertex   -7.500000e+00 5.000000e+00 2.500000e+00
      vertex   -6.500000e+00 5.000000e+00 2.500000e+00
    endloop
  endfacet
  facet normal -4.336809e-16 2.775558e-16 1.000000e+00
    outer loop
      vertex   -2.350000e+01 -2.000000e+01 2.500000e+00
      vertex   -6.500000e+00 5.000000e+00 2.500000e+00
      vertex   -7.500000e+00 5.000000e+00 2.500000e+00
    endloop
  endfacet
  facet normal 7.228014e-17 -6.649773e-17 1.000000e+00
    outer loop
      vertex   -5.000000e-01 5.000000e+00 2.500000e+00
      vertex   -6.500000e+00 5.000000e+00 2.500000e+00
      vertex   -2.350000e+01 -2.000000e+01 2.500000e+00
    endloop
  endfacet
  facet normal 0.000000e+00 0.000000e+00 1.000000e+00
    outer loop
      vertex   -2.350000e+01 -2.000000e+01 2.500000e+00
      vertex   5.000000e-01 5.000000e+00 2.500000e+00
      vertex   -5.000000e-01 5.000000e+00 2.500000e+00
    endloop
  endfacet
  facet normal 0.000000e+00 0.000000e+00 1.000000e+00
    outer loop
      vertex   -5.000000e-01 1.500000e+01 2.500000e+00
      vertex   -5.000000e-01 5.000000e+00 2.500000e+00
      vertex   5.000000e-01 5.000000e+00 2.500000e+00
    endloop
  endfacet
  facet normal 0.000000e+00 -0.000000e+00 1.000000e+00
    outer loop
      vertex   5.000000e-01 5.000000e+00 2.500000e+00
      vertex   5.000000e-01 1.500000e+01 2.500000e+00
      vertex   -5.000000e-01 1.500000e+01 2.500000e+00
    endloop
  endfacet
  facet normal 0.000000e+00 4.336809e-17 1.000000e+00
    outer loop
      vertex   -2.050000e+01 5.000000e+00 2.500000e+00
      vertex   -2.050000e+01 1.500000e+01 2.500000e+00
      vertex   -2.350000e+01 1.500000e+01 2.500000e+00
    endloop
  endfacet
  facet normal -1.445603e-16 0.000000e+00 1.000000e+00
    outer loop
      vertex   -2.350000e+01 1.500000e+01 2.500000e+00
      vertex   -2.350000e+01 -2.000000e+01 2.500000e+00
      vertex   -2.050000e+01 5.000000e+00 2.500000e+00
    endloop
  endfacet
  facet normal 7.228014e-17 -2.602085e-17 1.000000e+00
    outer loop
      vertex   -1.450000e+01 5.000000e+00 2.500000e+00
      vertex   -2.050000e+01 5.000000e+00 2.500000e+00
      vertex   -2.350000e+01 -2.000000e+01 2.500000e+00
    endloop
  endfacet
  facet normal 0.000000e+00 0.000000e+00 1.000000e+00
    outer loop
      vertex   -2.350000e+01 -2.000000e+01 2.500000e+00
      vertex   -1.350000e+01 5.000000e+00 2.500000e+00
      vertex   -1.450000e+01 5.000000e+00 2.500000e+00
    endloop
  endfacet
  facet normal 0.000000e+00 0.000000e+00 1.000000e+00
    outer loop
      vertex   -1.450000e+01 1.500000e+01 2.500000e+00
      vertex   -1.450000e+01 5.000000e+00 2.500000e+00
      vertex   -1.350000e+01 5.000000e+00 2.500000e+00
    endloop
  endfacet
  facet normal 0.000000e+00 -0.000000e+00 1.000000e+00
    outer loop
      vertex   -1.350000e+01 5.000000e+00 2.500000e+00
      vertex   -1.350000e+01 1.500000e+01 2.500000e+00
      vertex   -1.450000e+01 1.500000e+01 2.500000e+00
    endloop
  endfacet
  facet normal 4.336809e-16 8.673617e-17 -1.000000e+00
    outer loop
      vertex   -2.350000e+01 2.000000e+01 -2.500000e+00
      vertex   -2.050000e+01 2.000000e+01 -2.500000e+00
      vertex   -2.050000e+01 5.000000e+00 -2.500000e+00
    endloop
  endfacet
  facet normal 2.168404e-16 3.816392e-16 -1.000000e+00
    outer loop
      vertex   -2.050000e+01 5.000000e+00 -2.500000e+00
      vertex   -1.450000e+01 5.000000e+00 -2.500000e+00
      vertex   2.350000e+01 -2.000000e+01 -2.500000e+00
    endloop
  endfacet
  facet normal 0.000000e+00 0.000000e+00 -1.000000e+00
    outer loop
      vertex   2.350000e+01 -2.000000e+01 -2.500000e+00
      vertex   -2.350000e+01 -2.000000e+01 -2.500000e+00
      vertex   -2.050000e+01 5.000000e+00 -2.500000e+00
    endloop
  endfacet
  facet normal -0.000000e+00 0.000000e+00 -1.000000e+00
    outer loop
      vertex   -2.050000e+01 5.000000e+00 -2.500000e+00
      vertex   -2.350000e+01 -2.000000e+01 -2.500000e+00
      vertex   -2.350000e+01 2.000000e+01 -2.500000e+00
    endloop
  endfacet
  facet normal 0.000000e+00 0.000000e+00 -1.000000e+00
    outer loop
      vertex   -7.500000e+00 5.000000e+00 -2.500000e+00
      vertex   -7.500000e+00 2.000000e+01 -2.500000e+00
      vertex   -6.500000e+00 2.000000e+01 -2.500000e+00
    endloop
  endfacet
  facet normal 2.168404e-16 2.602085e-16 -1.000000e+00
    outer loop
      vertex   -6.500000e+00 5.000000e+00 -2.500000e+00
      vertex   -5.000000e-01 5.000000e+00 -2.500000e+00
      vertex   2.350000e+01 -2.000000e+01 -2.500000e+00
    endloop
  endfacet
  facet normal 0.000000e+00 -0.000000e+00 -1.000000e+00
    outer loop
      vertex   -6.500000e+00 2.000000e+01 -2.500000e+00
      vertex   -6.500000e+00 5.000000e+00 -2.500000e+00
      vertex   -7.500000e+00 5.000000e+00 -2.500000e+00
    endloop
  endfacet
  facet normal 0.000000e+00 0.000000e+00 -1.000000e+00
    outer loop
      vertex   2.350000e+01 -2.000000e+01 -2.500000e+00
      vertex   -7.500000e+00 5.000000e+00 -2.500000e+00
      vertex   -6.500000e+00 5.000000e+00 -2.500000e+00
    endloop
  endfacet
  facet normal 0.000000e+00 0.000000e+00 -1.000000e+00
    outer loop
      vertex   -1.350000e+01 5.000000e+00 -2.500000e+00
      vertex   -7.500000e+00 5.000000e+00 -2.500000e+00
      vertex   2.350000e+01 -2.000000e+01 -2.500000e+00
    endloop
  endfacet
  facet normal -1.301043e-15 -1.925543e-15 -1.000000e+00
    outer loop
      vertex   2.350000e+01 -2.000000e+01 -2.500000e+00
      vertex   -1.450000e+01 5.000000e+00 -2.500000e+00
      vertex   -1.350000e+01 5.000000e+00 -2.500000e+00
    endloop
  endfacet
  facet normal -1.301043e-15 8.673617e-17 -1.000000e+00
    outer loop
      vertex   -1.350000e+01 2.000000e+01 -2.500000e+00
      vertex   -1.350000e+01 5.000000e+00 -2.500000e+00
      vertex   -1.450000e+01 5.000000e+00 -2.500000e+00
    endloop
  endfacet
  facet normal 1.301043e-15 -8.673617e-17 -1.000000e+00
    outer loop
      vertex   -1.450000e+01 5.000000e+00 -2.500000e+00
      vertex   -1.450000e+01 2.000000e+01 -2.500000e+00
      vertex   -1.350000e+01 2.000000e+01 -2.500000e+00
    endloop
  endfacet
  facet normal 0.000000e+00 0.000000e+00 -1.000000e+00
    outer loop
      vertex   6.500000e+00 5.000000e+00 -2.500000e+00
      vertex   6.500000e+00 2.000000e+01 -2.500000e+00
      vertex   7.500000e+00 2.000000e+01 -2.500000e+00
    endloop
  endfacet
  facet normal 2.168404e-16 1.387779e-16 -1.000000e+00
    outer loop
      vertex   7.500000e+00 5.000000e+00 -2.500000e+00
      vertex   1.350000e+01 5.000000e+00 -2.500000e+00
      vertex   2.350000e+01 -2.000000e+01 -2.500000e+00
    endloop
  endfacet
  facet normal 0.000000e+00 -0.000000e+00 -1.000000e+00
    outer loop
      vertex   7.500000e+00 2.000000e+01 -2.500000e+00
      vertex   7.500000e+00 5.000000e+00 -2.500000e+00
      vertex   6.500000e+00 5.000000e+00 -2.500000e+00
    endloop
  endfacet
  facet normal 0.000000e+00 0.000000e+00 -1.000000e+00
    outer loop
      vertex   2.350000e+01 -2.000000e+01 -2.500000e+00
      vertex   6.500000e+00 5.000000e+00 -2.500000e+00
      vertex   7.500000e+00 5.000000e+00 -2.500000e+00
    endloop
  endfacet
  facet normal 0.000000e+00 0.000000e+00 -1.000000e+00
    outer loop
      vertex   5.000000e-01 5.000000e+00 -2.500000e+00
      vertex   6.500000e+00 5.000000e+00 -2.500000e+00
      vertex   2.350000e+01 -2.000000e+01 -2.500000e+00
    endloop
  endfacet
  facet normal -1.301043e-15 -1.196959e-15 -1.000000e+00
    outer loop
      vertex   2.350000e+01 -2.000000e+01 -2.500000e+00
      vertex   -5.000000e-01 5.000000e+00 -2.500000e+00
      vertex   5.000000e-01 5.000000e+00 -2.500000e+00
    endloop
  endfacet
  facet normal -1.301043e-15 8.673617e-17 -1.000000e+00
    outer loop
      vertex   5.000000e-01 2.000000e+01 -2.500000e+00
      vertex   5.000000e-01 5.000000e+00 -2.500000e+00
      vertex   -5.000000e-01 5.000000e+00 -2.500000e+00
    endloop
  endfacet
  facet normal 1.301043e-15 -8.673617e-17 -1.000000e+00
    outer loop
      vertex   -5.000000e-01 5.000000e+00 -2.500000e+00
      vertex   -5.000000e-01 2.000000e+01 -2.500000e+00
      vertex   5.000000e-01 2.000000e+01 -2.500000e+00
    endloop
  endfacet
  facet normal -4.336809e-16 0.000000e+00 -1.000000e+00
    outer loop
      vertex   2.050000e+01 5.000000e+00 -2.500000e+00
      vertex   2.050000e+01 2.000000e+01 -2.500000e+00
      vertex   2.350000e+01 2.000000e+01 -2.500000e+00
    endloop
  endfacet
  facet normal -4.336809e-16 -0.000000e+00 -1.000000e+00
    outer loop
      vertex   2.350000e+01 2.000000e+01 -2.500000e+00
      vertex   2.350000e+01 -2.000000e+01 -2.500000e+00
      vertex   2.050000e+01 5.000000e+00 -2.500000e+00
    endloop
  endfacet
  facet normal 2.168404e-16 7.806256e-17 -1.000000e+00
    outer loop
      vertex   1.450000e+01 5.000000e+00 -2.500000e+00
      vertex   2.050000e+01 5.000000e+00 -2.500000e+00
      vertex   2.350000e+01 -2.000000e+01 -2.500000e+00
    endloop
  endfacet
  facet normal -1.301043e-15 -4.683753e-16 -1.000000e+00
    outer loop
      vertex   2.350000e+01 -2.000000e+01 -2.500000e+00
      vertex   1.350000e+01 5.000000e+00 -2.500000e+00
      vertex   1.450000e+01 5.000000e+00 -2.500000e+00
    endloop
  endfacet
  facet normal -1.301043e-15 8.673617e-17 -1.000000e+00
    outer loop
      vertex   1.450000e+01 2.000000e+01 -2.500000e+00
      vertex   1.450000e+01 5.000000e+00 -2.500000e+00
      vertex   1.350000e+01 5.000000e+00 -2.500000e+00
    endloop
  endfacet
  facet normal 1.301043e-15 -8.673617e-17 -1.000000e+00
    outer loop
      vertex   1.350000e+01 5.000000e+00 -2.500000e+00
      vertex   1.350000e+01 2.000000e+01 -2.500000e+00
      vertex   1.450000e+01 2.000000e+01 -2.500000e+00
    endloop
  endfacet
  facet normal 0.000000e+00 1.000000e+00 0.000000e+00
    outer loop
      vertex   -1.450000e+01 5.000000e+00 -2.500000e+00
      vertex   -2.050000e+01 5.000000e+00 -2.500000e+00
      vertex   -2.050000e+01 5.000000e+00 2.500000e+00
    endloop
  endfacet
  facet normal 0.000000e+00 1.000000e+00 0.000000e+00
    outer loop
      vertex   -2.050000e+01 5.000000e+00 2.500000e+00
      vertex   -1.450000e+01 5.000000e+00 2.500000e+00
      vertex   -1.450000e+01 5.000000e+00 -2.500000e+00
    endloop
  endfacet
  facet normal 1.000000e+00 0.000000e+00 0.000000e+00
    outer loop
      vertex   -2.050000e+01 2.000000e+01 -2.500000e+00
      vertex   -2.050000e+01 1.500000e+01 2.500000e+00
      vertex   -2.050000e+01 5.000000e+00 2.500000e+00
    endloop
  endfacet
  facet normal 1.000000e+00 0.000000e+00 0.000000e+00
    outer loop
      vertex   -2.050000e+01 5.000000e+00 2.500000e+00
      vertex   -2.050000e+01 5.000000e+00 -2.500000e+00
      vertex   -2.050000e+01 2.000000e+01 -2.500000e+00
    endloop
  endfacet
  facet normal -3.066587e-16 7.071068e-01 7.071068e-01
    outer loop
      vertex   -2.050000e+01 2.000000e+01 -2.500000e+00
      vertex   -2.350000e+01 2.000000e+01 -2.500000e+00
      vertex   -2.350000e+01 1.500000e+01 2.500000e+00
    endloop
  endfacet
  facet normal -0.000000e+00 7.071068e-01 7.071068e-01
    outer loop
      vertex   -2.350000e+01 1.500000e+01 2.500000e+00
      vertex   -2.050000e+01 1.500000e+01 2.500000e+00
      vertex   -2.050000e+01 2.000000e+01 -2.500000e+00
    endloop
  endfacet
endsolid
