solid ascii
  facet normal 0.000000e+00 -1.000000e+00 0.000000e+00
    outer loop
      vertex   5.100000e+01 -1.300000e+01 0.000000e+00
      vertex   5.100000e+01 -1.300000e+01 5.000000e+00
      vertex   -5.100000e+01 -1.300000e+01 5.000000e+00
    endloop
  endfacet
  facet normal 0.000000e+00 -1.000000e+00 0.000000e+00
    outer loop
      vertex   -5.100000e+01 -1.300000e+01 5.000000e+00
      vertex   -5.100000e+01 -1.300000e+01 0.000000e+00
      vertex   5.100000e+01 -1.300000e+01 0.000000e+00
    endloop
  endfacet
  facet normal 0.000000e+00 0.000000e+00 1.000000e+00
    outer loop
      vertex   5.100000e+01 1.300000e+01 5.000000e+00
      vertex   -5.100000e+01 1.300000e+01 5.000000e+00
      vertex   -5.100000e+01 -1.300000e+01 5.000000e+00
    endloop
  endfacet
  facet normal 0.000000e+00 0.000000e+00 1.000000e+00
    outer loop
      vertex   -5.100000e+01 -1.300000e+01 5.000000e+00
      vertex   5.100000e+01 -1.300000e+01 5.000000e+00
      vertex   5.100000e+01 1.300000e+01 5.000000e+00
    endloop
  endfacet
  facet normal 0.000000e+00 1.000000e+00 0.000000e+00
    outer loop
      vertex   -5.100000e+01 1.300000e+01 0.000000e+00
      vertex   -5.100000e+01 1.300000e+01 5.000000e+00
      vertex   5.100000e+01 1.300000e+01 5.000000e+00
    endloop
  endfacet
  facet normal 0.000000e+00 1.000000e+00 0.000000e+00
    outer loop
      vertex   5.100000e+01 1.300000e+01 5.000000e+00
      vertex   5.100000e+01 1.300000e+01 0.000000e+00
      vertex   -5.100000e+01 1.300000e+01 0.000000e+00
    endloop
  endfacet
  facet normal 1.000000e+00 0.000000e+00 -0.000000e+00
    outer loop
      vertex   5.100000e+01 -5.000000e+00 0.000000e+00
      vertex   5.100000e+01 1.300000e+01 5.000000e+00
      vertex   5.100000e+01 -1.300000e+01 5.000000e+00
    endloop
  endfacet
  facet normal 1.000000e+00 0.000000e+00 0.000000e+00
    outer loop
      vertex   5.100000e+01 -1.300000e+01 5.000000e+00
      vertex   5.100000e+01 -1.300000e+01 0.000000e+00
      vertex   5.100000e+01 -5.000000e+00 0.000000e+00
    endloop
  endfacet
  facet normal 1.000000e+00 0.000000e+00 0.000000e+00
    outer loop
      vertex   5.100000e+01 5.000000e+00 0.000000e+00
      vertex   5.100000e+01 1.300000e+01 0.000000e+00
      vertex   5.100000e+01 1.300000e+01 5.000000e+00
    endloop
  endfacet
  facet normal 1.000000e+00 0.000000e+00 0.000000e+00
    outer loop
      vertex   5.100000e+01 1.300000e+01 5.000000e+00
      vertex   5.100000e+01 -5.000000e+00 0.000000e+00
      vertex   5.100000e+01 5.000000e+00 0.000000e+00
    endloop
  endfacet
  facet normal 1.000000e+00 0.000000e+00 -0.000000e+00
    outer loop
      vertex   5.100000e+01 5.000000e+00 -4.000000e+00
      vertex   5.100000e+01 5.000000e+00 0.000000e+00
      vertex   5.100000e+01 -5.000000e+00 0.000000e+00
    endloop
  endfacet
  facet normal 1.000000e+00 0.000000e+00 0.000000e+00
    outer loop
      vertex   5.100000e+01 -5.000000e+00 0.000000e+00
      vertex   5.100000e+01 -5.000000e+00 -4.000000e+00
      vertex   5.100000e+01 5.000000e+00 -4.000000e+00
    endloop
  endfacet
  facet normal 0.000000e+00 -1.000000e+00 0.000000e+00
    outer loop
      vertex   5.100000e+01 -5.000000e+00 -4.000000e+00
      vertex   5.100000e+01 -5.000000e+00 0.000000e+00
      vertex   4.900000e+01 -5.000000e+00 0.000000e+00
    endloop
  endfacet
  facet normal 0.000000e+00 -1.000000e+00 0.000000e+00
    outer loop
      vertex   4.900000e+01 -5.000000e+00 0.000000e+00
      vertex   4.900000e+01 -5.000000e+00 -4.000000e+00
      vertex   5.100000e+01 -5.000000e+00 -4.000000e+00
    endloop
  endfacet
  facet normal 0.000000e+00 1.000000e+00 0.000000e+00
    outer loop
      vertex   5.100000e+01 5.000000e+00 -4.000000e+00
      vertex   4.900000e+01 5.000000e+00 -4.000000e+00
      vertex   4.900000e+01 5.000000e+00 0.000000e+00
    endloop
  endfacet
  facet normal -2.168404e-15 1.000000e+00 -1.084202e-15
    outer loop
      vertex   4.900000e+01 5.000000e+00 0.000000e+00
      vertex   5.100000e+01 5.000000e+00 0.000000e+00
      vertex   5.100000e+01 5.000000e+00 -4.000000e+00
    endloop
  endfacet
  facet normal 0.000000e+00 -0.000000e+00 -1.000000e+00
    outer loop
      vertex   5.100000e+01 5.000000e+00 -4.000000e+00
      vertex   5.100000e+01 -5.000000e+00 -4.000000e+00
      vertex   4.900000e+01 -5.000000e+00 -4.000000e+00
    endloop
  endfacet
  facet normal 0.000000e+00 0.000000e+00 -1.000000e+00
    outer loop
      vertex   4.900000e+01 -5.000000e+00 -4.000000e+00
      vertex   4.900000e+01 5.000000e+00 -4.000000e+00
      vertex   5.100000e+01 5.000000e+00 -4.000000e+00
    endloop
  endfacet
  facet normal -1.000000e+00 0.000000e+00 -0.000000e+00
    outer loop
      vertex   4.900000e+01 5.000000e+00 0.000000e+00
      vertex   4.900000e+01 5.000000e+00 -4.000000e+00
      vertex   4.900000e+01 -5.000000e+00 -4.000000e+00
    endloop
  endfacet
  facet normal -1.000000e+00 0.000000e+00 0.000000e+00
    outer loop
      vertex   4.900000e+01 -5.000000e+00 -4.000000e+00
      vertex   4.900000e+01 -5.000000e+00 0.000000e+00
      vertex   4.900000e+01 5.000000e+00 0.000000e+00
    endloop
  endfacet
  facet normal 0.000000e+00 0.000000e+00 -1.000000e+00
    outer loop
      vertex   4.900000e+01 -5.000000e+00 0.000000e+00
      vertex   5.100000e+01 -5.000000e+00 0.000000e+00
      vertex   5.100000e+01 -1.300000e+01 0.000000e+00
    endloop
  endfacet
  facet normal 0.000000e+00 0.000000e+00 -1.000000e+00
    outer loop
      vertex   -4.900000e+01 5.000000e+00 0.000000e+00
      vertex   -5.100000e+01 5.000000e+00 0.000000e+00
      vertex   -5.100000e+01 1.300000e+01 0.000000e+00
    endloop
  endfacet
  facet normal 0.000000e+00 -0.000000e+00 -1.000000e+00
    outer loop
      vertex   5.100000e+01 1.300000e+01 0.000000e+00
      vertex   5.100000e+01 5.000000e+00 0.000000e+00
      vertex   4.900000e+01 5.000000e+00 0.000000e+00
    endloop
  endfacet
  facet normal 0.000000e+00 0.000000e+00 -1.000000e+00
    outer loop
      vertex   -5.100000e+01 -1.300000e+01 0.000000e+00
      vertex   -5.100000e+01 -5.000000e+00 0.000000e+00
      vertex   -4.900000e+01 -5.000000e+00 0.000000e+00
    endloop
  endfacet
  facet normal 0.000000e+00 0.000000e+00 -1.000000e+00
    outer loop
      vertex   -5.100000e+01 1.300000e+01 0.000000e+00
      vertex   5.100000e+01 1.300000e+01 0.000000e+00
      vertex   -4.900000e+01 5.000000e+00 0.000000e+00
    endloop
  endfacet
  facet normal -0.000000e+00 0.000000e+00 -1.000000e+00
    outer loop
      vertex   4.900000e+01 5.000000e+00 0.000000e+00
      vertex   -4.900000e+01 5.000000e+00 0.000000e+00
      vertex   5.100000e+01 1.300000e+01 0.000000e+00
    endloop
  endfacet
  facet normal 0.000000e+00 0.000000e+00 -1.000000e+00
    outer loop
      vertex   -4.900000e+01 -5.000000e+00 0.000000e+00
      vertex   -4.900000e+01 5.000000e+00 0.000000e+00
      vertex   4.900000e+01 5.000000e+00 0.000000e+00
    endloop
  endfacet
  facet normal 0.000000e+00 -0.000000e+00 -1.000000e+00
    outer loop
      vertex   4.900000e+01 5.000000e+00 0.000000e+00
      vertex   4.900000e+01 -5.000000e+00 0.000000e+00
      vertex   -4.900000e+01 -5.000000e+00 0.000000e+00
    endloop
  endfacet
  facet normal 0.000000e+00 -0.000000e+00 -1.000000e+00
    outer loop
      vertex   -4.900000e+01 -5.000000e+00 0.000000e+00
      vertex   4.900000e+01 -5.000000e+00 0.000000e+00
      vertex   -5.100000e+01 -1.300000e+01 0.000000e+00
    endloop
  endfacet
  facet normal 0.000000e+00 0.000000e+00 -1.000000e+00
    outer loop
      vertex   5.100000e+01 -1.300000e+01 0.000000e+00
      vertex   -5.100000e+01 -1.300000e+01 0.000000e+00
      vertex   4.900000e+01 -5.000000e+00 0.000000e+00
    endloop
  endfacet
  facet normal -1.000000e+00 0.000000e+00 0.000000e+00
    outer loop
      vertex   -5.100000e+01 5.000000e+00 0.000000e+00
      vertex   -5.100000e+01 -1.300000e+01 5.000000e+00
      vertex   -5.100000e+01 1.300000e+01 5.000000e+00
    endloop
  endfacet
  facet normal -1.000000e+00 0.000000e+00 -0.000000e+00
    outer loop
      vertex   -5.100000e+01 1.300000e+01 5.000000e+00
      vertex   -5.100000e+01 1.300000e+01 0.000000e+00
      vertex   -5.100000e+01 5.000000e+00 0.000000e+00
    endloop
  endfacet
  facet normal -1.000000e+00 0.000000e+00 0.000000e+00
    outer loop
      vertex   -5.100000e+01 -5.000000e+00 0.000000e+00
      vertex   -5.100000e+01 -1.300000e+01 0.000000e+00
      vertex   -5.100000e+01 -1.300000e+01 5.000000e+00
    endloop
  endfacet
  facet normal -1.000000e+00 0.000000e+00 0.000000e+00
    outer loop
      vertex   -5.100000e+01 -1.300000e+01 5.000000e+00
      vertex   -5.100000e+01 5.000000e+00 0.000000e+00
      vertex   -5.100000e+01 -5.000000e+00 0.000000e+00
    endloop
  endfacet
  facet normal -1.000000e+00 0.000000e+00 0.000000e+00
    outer loop
      vertex   -5.100000e+01 -5.000000e+00 -4.000000e+00
      vertex   -5.100000e+01 -5.000000e+00 0.000000e+00
      vertex   -5.100000e+01 5.000000e+00 0.000000e+00
    endloop
  endfacet
  facet normal -1.000000e+00 0.000000e+00 0.000000e+00
    outer loop
      vertex   -5.100000e+01 5.000000e+00 0.000000e+00
      vertex   -5.100000e+01 5.000000e+00 -4.000000e+00
      vertex   -5.100000e+01 -5.000000e+00 -4.000000e+00
    endloop
  endfacet
  facet normal 1.734723e-15 1.000000e+00 -4.336809e-16
    outer loop
      vertex   -5.100000e+01 5.000000e+00 -4.000000e+00
      vertex   -5.100000e+01 5.000000e+00 0.000000e+00
      vertex   -4.900000e+01 5.000000e+00 0.000000e+00
    endloop
  endfacet
  facet normal 8.673617e-16 1.000000e+00 0.000000e+00
    outer loop
      vertex   -4.900000e+01 5.000000e+00 0.000000e+00
      vertex   -4.900000e+01 5.000000e+00 -4.000000e+00
      vertex   -5.100000e+01 5.000000e+00 -4.000000e+00
    endloop
  endfacet
  facet normal 4.336809e-16 -1.000000e+00 -2.756167e-32
    outer loop
      vertex   -5.100000e+01 -5.000000e+00 -4.000000e+00
      vertex   -4.900000e+01 -5.000000e+00 -4.000000e+00
      vertex   -4.900000e+01 -5.000000e+00 0.000000e+00
    endloop
  endfacet
  facet normal 3.035766e-15 -1.000000e+00 -1.301043e-15
    outer loop
      vertex   -4.900000e+01 -5.000000e+00 0.000000e+00
      vertex   -5.100000e+01 -5.000000e+00 0.000000e+00
      vertex   -5.100000e+01 -5.000000e+00 -4.000000e+00
    endloop
  endfacet
  facet normal 0.000000e+00 0.000000e+00 -1.000000e+00
    outer loop
      vertex   -5.100000e+01 -5.000000e+00 -4.000000e+00
      vertex   -5.100000e+01 5.000000e+00 -4.000000e+00
      vertex   -4.900000e+01 5.000000e+00 -4.000000e+00
    endloop
  endfacet
  facet normal 0.000000e+00 -0.000000e+00 -1.000000e+00
    outer loop
      vertex   -4.900000e+01 5.000000e+00 -4.000000e+00
      vertex   -4.900000e+01 -5.000000e+00 -4.000000e+00
      vertex   -5.100000e+01 -5.000000e+00 -4.000000e+00
    endloop
  endfacet
  facet normal 1.000000e+00 0.000000e+00 0.000000e+00
    outer loop
      vertex   -4.900000e+01 -5.000000e+00 0.000000e+00
      vertex   -4.900000e+01 -5.000000e+00 -4.000000e+00
      vertex   -4.900000e+01 5.000000e+00 -4.000000e+00
    endloop
  endfacet
  facet normal 1.000000e+00 0.000000e+00 -0.000000e+00
    outer loop
      vertex   -4.900000e+01 5.000000e+00 -4.000000e+00
      vertex   -4.900000e+01 5.000000e+00 0.000000e+00
      vertex   -4.900000e+01 -5.000000e+00 0.000000e+00
    endloop
  endfacet
endsolid
